%FSLAX45Y45*%
G04 Gerber Fmt 4.5, Leading zero omitted, Abs format (unit mm)*
G04 Created by KiCad (PCBNEW (6.0.5)) date 2024-01-21 10:02:14*
%MOMM*%
%LPD*%
G01*
G04 APERTURE LIST*
%TA.AperFunction,Profile*%
%ADD10C,0.100000*%
%TD*%
%ADD11C,0.200000*%
%ADD12C,0.040000*%
%ADD13C,0.100000*%
G04 APERTURE END LIST*
D10*
X13200000Y-6900000D02*
X17000000Y-6900000D01*
X17000000Y-6900000D02*
X17000000Y-13000000D01*
X17000000Y-13000000D02*
X13200000Y-13000000D01*
X13200000Y-13000000D02*
X13200000Y-6900000D01*
D11*
D12*
X14150000Y-10080000D02*
X14190000Y-10120000D01*
X14190000Y-10080000D02*
X14150000Y-10120000D01*
X14150000Y-10430000D02*
X14190000Y-10470000D01*
X14190000Y-10430000D02*
X14150000Y-10470000D01*
X14290000Y-10100000D02*
X14330000Y-10140000D01*
X14330000Y-10100000D02*
X14290000Y-10140000D01*
X14290000Y-10440000D02*
X14330000Y-10480000D01*
X14330000Y-10440000D02*
X14290000Y-10480000D01*
X14910000Y-9420000D02*
X14950000Y-9460000D01*
X14950000Y-9420000D02*
X14910000Y-9460000D01*
X14920000Y-8300000D02*
X14960000Y-8340000D01*
X14960000Y-8300000D02*
X14920000Y-8340000D01*
X15030000Y-9490000D02*
X15070000Y-9530000D01*
X15070000Y-9490000D02*
X15030000Y-9530000D01*
X15030000Y-10400000D02*
X15070000Y-10440000D01*
X15070000Y-10400000D02*
X15030000Y-10440000D01*
X15080000Y-8310000D02*
X15120000Y-8350000D01*
X15120000Y-8310000D02*
X15080000Y-8350000D01*
X15130000Y-10470000D02*
X15170000Y-10510000D01*
X15170000Y-10470000D02*
X15130000Y-10510000D01*
X15220000Y-10560000D02*
X15260000Y-10600000D01*
X15260000Y-10560000D02*
X15220000Y-10600000D01*
X15280000Y-10150000D02*
X15320000Y-10190000D01*
X15320000Y-10150000D02*
X15280000Y-10190000D01*
X15360000Y-10240000D02*
X15400000Y-10280000D01*
X15400000Y-10240000D02*
X15360000Y-10280000D01*
X15410000Y-10750000D02*
X15450000Y-10790000D01*
X15450000Y-10750000D02*
X15410000Y-10790000D01*
X15450000Y-10320000D02*
X15490000Y-10360000D01*
X15490000Y-10320000D02*
X15450000Y-10360000D01*
X15490000Y-10830000D02*
X15530000Y-10870000D01*
X15530000Y-10830000D02*
X15490000Y-10870000D01*
X15620000Y-10510000D02*
X15660000Y-10550000D01*
X15660000Y-10510000D02*
X15620000Y-10550000D01*
X15650000Y-9620000D02*
X15690000Y-9660000D01*
X15690000Y-9620000D02*
X15650000Y-9660000D01*
X15710000Y-10590000D02*
X15750000Y-10630000D01*
X15750000Y-10590000D02*
X15710000Y-10630000D01*
X15780000Y-9730000D02*
X15820000Y-9770000D01*
X15820000Y-9730000D02*
X15780000Y-9770000D01*
X15830000Y-9440000D02*
X15870000Y-9480000D01*
X15870000Y-9440000D02*
X15830000Y-9480000D01*
X15970000Y-9560000D02*
X16010000Y-9600000D01*
X16010000Y-9560000D02*
X15970000Y-9600000D01*
X16040000Y-9930000D02*
X16080000Y-9970000D01*
X16080000Y-9930000D02*
X16040000Y-9970000D01*
X16130000Y-9790000D02*
X16170000Y-9830000D01*
X16170000Y-9790000D02*
X16130000Y-9830000D01*
X16180000Y-7390000D02*
X16220000Y-7430000D01*
X16220000Y-7390000D02*
X16180000Y-7430000D01*
D13*
X13623000Y-7537000D02*
G75*
G03*
X13623000Y-7537000I-50000J0D01*
G01*
X13623000Y-7791000D02*
G75*
G03*
X13623000Y-7791000I-50000J0D01*
G01*
X13623000Y-8045000D02*
G75*
G03*
X13623000Y-8045000I-50000J0D01*
G01*
X13623000Y-8299000D02*
G75*
G03*
X13623000Y-8299000I-50000J0D01*
G01*
X13623000Y-8553000D02*
G75*
G03*
X13623000Y-8553000I-50000J0D01*
G01*
X13623000Y-8807000D02*
G75*
G03*
X13623000Y-8807000I-50000J0D01*
G01*
X13623000Y-9061000D02*
G75*
G03*
X13623000Y-9061000I-50000J0D01*
G01*
X13623000Y-9315000D02*
G75*
G03*
X13623000Y-9315000I-50000J0D01*
G01*
X13623000Y-9569000D02*
G75*
G03*
X13623000Y-9569000I-50000J0D01*
G01*
X13623000Y-9823000D02*
G75*
G03*
X13623000Y-9823000I-50000J0D01*
G01*
X13623000Y-10077000D02*
G75*
G03*
X13623000Y-10077000I-50000J0D01*
G01*
X13623000Y-10331000D02*
G75*
G03*
X13623000Y-10331000I-50000J0D01*
G01*
X13623000Y-10585000D02*
G75*
G03*
X13623000Y-10585000I-50000J0D01*
G01*
X13623000Y-10839000D02*
G75*
G03*
X13623000Y-10839000I-50000J0D01*
G01*
X13623000Y-11093000D02*
G75*
G03*
X13623000Y-11093000I-50000J0D01*
G01*
X13623000Y-11347000D02*
G75*
G03*
X13623000Y-11347000I-50000J0D01*
G01*
X13623000Y-11601000D02*
G75*
G03*
X13623000Y-11601000I-50000J0D01*
G01*
X13623000Y-11855000D02*
G75*
G03*
X13623000Y-11855000I-50000J0D01*
G01*
X13623000Y-12109000D02*
G75*
G03*
X13623000Y-12109000I-50000J0D01*
G01*
X13623000Y-12363000D02*
G75*
G03*
X13623000Y-12363000I-50000J0D01*
G01*
X13877000Y-7537000D02*
G75*
G03*
X13877000Y-7537000I-50000J0D01*
G01*
X13877000Y-7791000D02*
G75*
G03*
X13877000Y-7791000I-50000J0D01*
G01*
X13877000Y-8045000D02*
G75*
G03*
X13877000Y-8045000I-50000J0D01*
G01*
X13877000Y-8299000D02*
G75*
G03*
X13877000Y-8299000I-50000J0D01*
G01*
X13877000Y-8553000D02*
G75*
G03*
X13877000Y-8553000I-50000J0D01*
G01*
X13877000Y-8807000D02*
G75*
G03*
X13877000Y-8807000I-50000J0D01*
G01*
X13877000Y-9061000D02*
G75*
G03*
X13877000Y-9061000I-50000J0D01*
G01*
X13877000Y-9315000D02*
G75*
G03*
X13877000Y-9315000I-50000J0D01*
G01*
X13877000Y-9569000D02*
G75*
G03*
X13877000Y-9569000I-50000J0D01*
G01*
X13877000Y-9823000D02*
G75*
G03*
X13877000Y-9823000I-50000J0D01*
G01*
X13877000Y-10077000D02*
G75*
G03*
X13877000Y-10077000I-50000J0D01*
G01*
X13877000Y-10331000D02*
G75*
G03*
X13877000Y-10331000I-50000J0D01*
G01*
X13877000Y-10585000D02*
G75*
G03*
X13877000Y-10585000I-50000J0D01*
G01*
X13877000Y-10839000D02*
G75*
G03*
X13877000Y-10839000I-50000J0D01*
G01*
X13877000Y-11093000D02*
G75*
G03*
X13877000Y-11093000I-50000J0D01*
G01*
X13877000Y-11347000D02*
G75*
G03*
X13877000Y-11347000I-50000J0D01*
G01*
X13877000Y-11601000D02*
G75*
G03*
X13877000Y-11601000I-50000J0D01*
G01*
X13877000Y-11855000D02*
G75*
G03*
X13877000Y-11855000I-50000J0D01*
G01*
X13877000Y-12109000D02*
G75*
G03*
X13877000Y-12109000I-50000J0D01*
G01*
X13877000Y-12363000D02*
G75*
G03*
X13877000Y-12363000I-50000J0D01*
G01*
X16422500Y-7283500D02*
G75*
G03*
X16422500Y-7283500I-50000J0D01*
G01*
X16422500Y-7537500D02*
G75*
G03*
X16422500Y-7537500I-50000J0D01*
G01*
X16422500Y-7791500D02*
G75*
G03*
X16422500Y-7791500I-50000J0D01*
G01*
X16422500Y-8045500D02*
G75*
G03*
X16422500Y-8045500I-50000J0D01*
G01*
X16422500Y-8299500D02*
G75*
G03*
X16422500Y-8299500I-50000J0D01*
G01*
X16422500Y-8553500D02*
G75*
G03*
X16422500Y-8553500I-50000J0D01*
G01*
X16422500Y-8807500D02*
G75*
G03*
X16422500Y-8807500I-50000J0D01*
G01*
X16422500Y-9061500D02*
G75*
G03*
X16422500Y-9061500I-50000J0D01*
G01*
X16422500Y-9315500D02*
G75*
G03*
X16422500Y-9315500I-50000J0D01*
G01*
X16422500Y-9569500D02*
G75*
G03*
X16422500Y-9569500I-50000J0D01*
G01*
X16422500Y-9823500D02*
G75*
G03*
X16422500Y-9823500I-50000J0D01*
G01*
X16422500Y-10077500D02*
G75*
G03*
X16422500Y-10077500I-50000J0D01*
G01*
X16422500Y-10331500D02*
G75*
G03*
X16422500Y-10331500I-50000J0D01*
G01*
X16422500Y-10585500D02*
G75*
G03*
X16422500Y-10585500I-50000J0D01*
G01*
X16422500Y-10839500D02*
G75*
G03*
X16422500Y-10839500I-50000J0D01*
G01*
X16422500Y-11093500D02*
G75*
G03*
X16422500Y-11093500I-50000J0D01*
G01*
X16422500Y-11347500D02*
G75*
G03*
X16422500Y-11347500I-50000J0D01*
G01*
X16422500Y-11601500D02*
G75*
G03*
X16422500Y-11601500I-50000J0D01*
G01*
X16422500Y-11855500D02*
G75*
G03*
X16422500Y-11855500I-50000J0D01*
G01*
X16422500Y-12109500D02*
G75*
G03*
X16422500Y-12109500I-50000J0D01*
G01*
X16422500Y-12363500D02*
G75*
G03*
X16422500Y-12363500I-50000J0D01*
G01*
X16422500Y-12617500D02*
G75*
G03*
X16422500Y-12617500I-50000J0D01*
G01*
X16676500Y-7283500D02*
G75*
G03*
X16676500Y-7283500I-50000J0D01*
G01*
X16676500Y-7537500D02*
G75*
G03*
X16676500Y-7537500I-50000J0D01*
G01*
X16676500Y-7791500D02*
G75*
G03*
X16676500Y-7791500I-50000J0D01*
G01*
X16676500Y-8045500D02*
G75*
G03*
X16676500Y-8045500I-50000J0D01*
G01*
X16676500Y-8299500D02*
G75*
G03*
X16676500Y-8299500I-50000J0D01*
G01*
X16676500Y-8553500D02*
G75*
G03*
X16676500Y-8553500I-50000J0D01*
G01*
X16676500Y-8807500D02*
G75*
G03*
X16676500Y-8807500I-50000J0D01*
G01*
X16676500Y-9061500D02*
G75*
G03*
X16676500Y-9061500I-50000J0D01*
G01*
X16676500Y-9315500D02*
G75*
G03*
X16676500Y-9315500I-50000J0D01*
G01*
X16676500Y-9569500D02*
G75*
G03*
X16676500Y-9569500I-50000J0D01*
G01*
X16676500Y-9823500D02*
G75*
G03*
X16676500Y-9823500I-50000J0D01*
G01*
X16676500Y-10077500D02*
G75*
G03*
X16676500Y-10077500I-50000J0D01*
G01*
X16676500Y-10331500D02*
G75*
G03*
X16676500Y-10331500I-50000J0D01*
G01*
X16676500Y-10585500D02*
G75*
G03*
X16676500Y-10585500I-50000J0D01*
G01*
X16676500Y-10839500D02*
G75*
G03*
X16676500Y-10839500I-50000J0D01*
G01*
X16676500Y-11093500D02*
G75*
G03*
X16676500Y-11093500I-50000J0D01*
G01*
X16676500Y-11347500D02*
G75*
G03*
X16676500Y-11347500I-50000J0D01*
G01*
X16676500Y-11601500D02*
G75*
G03*
X16676500Y-11601500I-50000J0D01*
G01*
X16676500Y-11855500D02*
G75*
G03*
X16676500Y-11855500I-50000J0D01*
G01*
X16676500Y-12109500D02*
G75*
G03*
X16676500Y-12109500I-50000J0D01*
G01*
X16676500Y-12363500D02*
G75*
G03*
X16676500Y-12363500I-50000J0D01*
G01*
X16676500Y-12617500D02*
G75*
G03*
X16676500Y-12617500I-50000J0D01*
G01*
D11*
X13452619Y-13315476D02*
X13452619Y-13115476D01*
X13500238Y-13115476D01*
X13528809Y-13125000D01*
X13547857Y-13144048D01*
X13557381Y-13163095D01*
X13566905Y-13201190D01*
X13566905Y-13229762D01*
X13557381Y-13267857D01*
X13547857Y-13286905D01*
X13528809Y-13305952D01*
X13500238Y-13315476D01*
X13452619Y-13315476D01*
X13652619Y-13315476D02*
X13652619Y-13182143D01*
X13652619Y-13220238D02*
X13662143Y-13201190D01*
X13671667Y-13191667D01*
X13690714Y-13182143D01*
X13709762Y-13182143D01*
X13776428Y-13315476D02*
X13776428Y-13182143D01*
X13776428Y-13115476D02*
X13766905Y-13125000D01*
X13776428Y-13134524D01*
X13785952Y-13125000D01*
X13776428Y-13115476D01*
X13776428Y-13134524D01*
X13900238Y-13315476D02*
X13881190Y-13305952D01*
X13871667Y-13286905D01*
X13871667Y-13115476D01*
X14005000Y-13315476D02*
X13985952Y-13305952D01*
X13976428Y-13286905D01*
X13976428Y-13115476D01*
X14233571Y-13315476D02*
X14233571Y-13115476D01*
X14300238Y-13258333D01*
X14366905Y-13115476D01*
X14366905Y-13315476D01*
X14547857Y-13315476D02*
X14547857Y-13210714D01*
X14538333Y-13191667D01*
X14519286Y-13182143D01*
X14481190Y-13182143D01*
X14462143Y-13191667D01*
X14547857Y-13305952D02*
X14528809Y-13315476D01*
X14481190Y-13315476D01*
X14462143Y-13305952D01*
X14452619Y-13286905D01*
X14452619Y-13267857D01*
X14462143Y-13248809D01*
X14481190Y-13239286D01*
X14528809Y-13239286D01*
X14547857Y-13229762D01*
X14643095Y-13182143D02*
X14643095Y-13382143D01*
X14643095Y-13191667D02*
X14662143Y-13182143D01*
X14700238Y-13182143D01*
X14719286Y-13191667D01*
X14728809Y-13201190D01*
X14738333Y-13220238D01*
X14738333Y-13277381D01*
X14728809Y-13296428D01*
X14719286Y-13305952D01*
X14700238Y-13315476D01*
X14662143Y-13315476D01*
X14643095Y-13305952D01*
X14824048Y-13296428D02*
X14833571Y-13305952D01*
X14824048Y-13315476D01*
X14814524Y-13305952D01*
X14824048Y-13296428D01*
X14824048Y-13315476D01*
X14824048Y-13191667D02*
X14833571Y-13201190D01*
X14824048Y-13210714D01*
X14814524Y-13201190D01*
X14824048Y-13191667D01*
X14824048Y-13210714D01*
D12*
X13155000Y-13625000D02*
X13195000Y-13665000D01*
X13195000Y-13625000D02*
X13155000Y-13665000D01*
D11*
X13490714Y-13535476D02*
X13509762Y-13535476D01*
X13528809Y-13545000D01*
X13538333Y-13554524D01*
X13547857Y-13573571D01*
X13557381Y-13611667D01*
X13557381Y-13659286D01*
X13547857Y-13697381D01*
X13538333Y-13716428D01*
X13528809Y-13725952D01*
X13509762Y-13735476D01*
X13490714Y-13735476D01*
X13471667Y-13725952D01*
X13462143Y-13716428D01*
X13452619Y-13697381D01*
X13443095Y-13659286D01*
X13443095Y-13611667D01*
X13452619Y-13573571D01*
X13462143Y-13554524D01*
X13471667Y-13545000D01*
X13490714Y-13535476D01*
X13643095Y-13716428D02*
X13652619Y-13725952D01*
X13643095Y-13735476D01*
X13633571Y-13725952D01*
X13643095Y-13716428D01*
X13643095Y-13735476D01*
X13824048Y-13602143D02*
X13824048Y-13735476D01*
X13776428Y-13525952D02*
X13728809Y-13668809D01*
X13852619Y-13668809D01*
X13966905Y-13535476D02*
X13985952Y-13535476D01*
X14005000Y-13545000D01*
X14014524Y-13554524D01*
X14024048Y-13573571D01*
X14033571Y-13611667D01*
X14033571Y-13659286D01*
X14024048Y-13697381D01*
X14014524Y-13716428D01*
X14005000Y-13725952D01*
X13985952Y-13735476D01*
X13966905Y-13735476D01*
X13947857Y-13725952D01*
X13938333Y-13716428D01*
X13928809Y-13697381D01*
X13919286Y-13659286D01*
X13919286Y-13611667D01*
X13928809Y-13573571D01*
X13938333Y-13554524D01*
X13947857Y-13545000D01*
X13966905Y-13535476D01*
X14157381Y-13535476D02*
X14176428Y-13535476D01*
X14195476Y-13545000D01*
X14205000Y-13554524D01*
X14214524Y-13573571D01*
X14224048Y-13611667D01*
X14224048Y-13659286D01*
X14214524Y-13697381D01*
X14205000Y-13716428D01*
X14195476Y-13725952D01*
X14176428Y-13735476D01*
X14157381Y-13735476D01*
X14138333Y-13725952D01*
X14128809Y-13716428D01*
X14119286Y-13697381D01*
X14109762Y-13659286D01*
X14109762Y-13611667D01*
X14119286Y-13573571D01*
X14128809Y-13554524D01*
X14138333Y-13545000D01*
X14157381Y-13535476D01*
X14309762Y-13735476D02*
X14309762Y-13602143D01*
X14309762Y-13621190D02*
X14319286Y-13611667D01*
X14338333Y-13602143D01*
X14366905Y-13602143D01*
X14385952Y-13611667D01*
X14395476Y-13630714D01*
X14395476Y-13735476D01*
X14395476Y-13630714D02*
X14405000Y-13611667D01*
X14424048Y-13602143D01*
X14452619Y-13602143D01*
X14471667Y-13611667D01*
X14481190Y-13630714D01*
X14481190Y-13735476D01*
X14576428Y-13735476D02*
X14576428Y-13602143D01*
X14576428Y-13621190D02*
X14585952Y-13611667D01*
X14605000Y-13602143D01*
X14633571Y-13602143D01*
X14652619Y-13611667D01*
X14662143Y-13630714D01*
X14662143Y-13735476D01*
X14662143Y-13630714D02*
X14671667Y-13611667D01*
X14690714Y-13602143D01*
X14719286Y-13602143D01*
X14738333Y-13611667D01*
X14747857Y-13630714D01*
X14747857Y-13735476D01*
X15138333Y-13525952D02*
X14966905Y-13783095D01*
X15395476Y-13535476D02*
X15414524Y-13535476D01*
X15433571Y-13545000D01*
X15443095Y-13554524D01*
X15452619Y-13573571D01*
X15462143Y-13611667D01*
X15462143Y-13659286D01*
X15452619Y-13697381D01*
X15443095Y-13716428D01*
X15433571Y-13725952D01*
X15414524Y-13735476D01*
X15395476Y-13735476D01*
X15376428Y-13725952D01*
X15366905Y-13716428D01*
X15357381Y-13697381D01*
X15347857Y-13659286D01*
X15347857Y-13611667D01*
X15357381Y-13573571D01*
X15366905Y-13554524D01*
X15376428Y-13545000D01*
X15395476Y-13535476D01*
X15547857Y-13716428D02*
X15557381Y-13725952D01*
X15547857Y-13735476D01*
X15538333Y-13725952D01*
X15547857Y-13716428D01*
X15547857Y-13735476D01*
X15681190Y-13535476D02*
X15700238Y-13535476D01*
X15719286Y-13545000D01*
X15728809Y-13554524D01*
X15738333Y-13573571D01*
X15747857Y-13611667D01*
X15747857Y-13659286D01*
X15738333Y-13697381D01*
X15728809Y-13716428D01*
X15719286Y-13725952D01*
X15700238Y-13735476D01*
X15681190Y-13735476D01*
X15662143Y-13725952D01*
X15652619Y-13716428D01*
X15643095Y-13697381D01*
X15633571Y-13659286D01*
X15633571Y-13611667D01*
X15643095Y-13573571D01*
X15652619Y-13554524D01*
X15662143Y-13545000D01*
X15681190Y-13535476D01*
X15938333Y-13735476D02*
X15824048Y-13735476D01*
X15881190Y-13735476D02*
X15881190Y-13535476D01*
X15862143Y-13564048D01*
X15843095Y-13583095D01*
X15824048Y-13592619D01*
X16119286Y-13535476D02*
X16024048Y-13535476D01*
X16014524Y-13630714D01*
X16024048Y-13621190D01*
X16043095Y-13611667D01*
X16090714Y-13611667D01*
X16109762Y-13621190D01*
X16119286Y-13630714D01*
X16128809Y-13649762D01*
X16128809Y-13697381D01*
X16119286Y-13716428D01*
X16109762Y-13725952D01*
X16090714Y-13735476D01*
X16043095Y-13735476D01*
X16024048Y-13725952D01*
X16014524Y-13716428D01*
X16195476Y-13535476D02*
X16328809Y-13535476D01*
X16243095Y-13735476D01*
X16395476Y-13535476D02*
X16395476Y-13573571D01*
X16471667Y-13535476D02*
X16471667Y-13573571D01*
X16766905Y-13811667D02*
X16757381Y-13802143D01*
X16738333Y-13773571D01*
X16728809Y-13754524D01*
X16719286Y-13725952D01*
X16709762Y-13678333D01*
X16709762Y-13640238D01*
X16719286Y-13592619D01*
X16728809Y-13564048D01*
X16738333Y-13545000D01*
X16757381Y-13516428D01*
X16766905Y-13506905D01*
X16833571Y-13554524D02*
X16843095Y-13545000D01*
X16862143Y-13535476D01*
X16909762Y-13535476D01*
X16928810Y-13545000D01*
X16938333Y-13554524D01*
X16947857Y-13573571D01*
X16947857Y-13592619D01*
X16938333Y-13621190D01*
X16824048Y-13735476D01*
X16947857Y-13735476D01*
X17128810Y-13535476D02*
X17033571Y-13535476D01*
X17024048Y-13630714D01*
X17033571Y-13621190D01*
X17052619Y-13611667D01*
X17100238Y-13611667D01*
X17119286Y-13621190D01*
X17128810Y-13630714D01*
X17138333Y-13649762D01*
X17138333Y-13697381D01*
X17128810Y-13716428D01*
X17119286Y-13725952D01*
X17100238Y-13735476D01*
X17052619Y-13735476D01*
X17033571Y-13725952D01*
X17024048Y-13716428D01*
X17376429Y-13735476D02*
X17376429Y-13535476D01*
X17462143Y-13735476D02*
X17462143Y-13630714D01*
X17452619Y-13611667D01*
X17433571Y-13602143D01*
X17405000Y-13602143D01*
X17385952Y-13611667D01*
X17376429Y-13621190D01*
X17585952Y-13735476D02*
X17566905Y-13725952D01*
X17557381Y-13716428D01*
X17547857Y-13697381D01*
X17547857Y-13640238D01*
X17557381Y-13621190D01*
X17566905Y-13611667D01*
X17585952Y-13602143D01*
X17614524Y-13602143D01*
X17633571Y-13611667D01*
X17643095Y-13621190D01*
X17652619Y-13640238D01*
X17652619Y-13697381D01*
X17643095Y-13716428D01*
X17633571Y-13725952D01*
X17614524Y-13735476D01*
X17585952Y-13735476D01*
X17766905Y-13735476D02*
X17747857Y-13725952D01*
X17738333Y-13706905D01*
X17738333Y-13535476D01*
X17919286Y-13725952D02*
X17900238Y-13735476D01*
X17862143Y-13735476D01*
X17843095Y-13725952D01*
X17833571Y-13706905D01*
X17833571Y-13630714D01*
X17843095Y-13611667D01*
X17862143Y-13602143D01*
X17900238Y-13602143D01*
X17919286Y-13611667D01*
X17928810Y-13630714D01*
X17928810Y-13649762D01*
X17833571Y-13668809D01*
X18005000Y-13725952D02*
X18024048Y-13735476D01*
X18062143Y-13735476D01*
X18081190Y-13725952D01*
X18090714Y-13706905D01*
X18090714Y-13697381D01*
X18081190Y-13678333D01*
X18062143Y-13668809D01*
X18033571Y-13668809D01*
X18014524Y-13659286D01*
X18005000Y-13640238D01*
X18005000Y-13630714D01*
X18014524Y-13611667D01*
X18033571Y-13602143D01*
X18062143Y-13602143D01*
X18081190Y-13611667D01*
X18157381Y-13811667D02*
X18166905Y-13802143D01*
X18185952Y-13773571D01*
X18195476Y-13754524D01*
X18205000Y-13725952D01*
X18214524Y-13678333D01*
X18214524Y-13640238D01*
X18205000Y-13592619D01*
X18195476Y-13564048D01*
X18185952Y-13545000D01*
X18166905Y-13516428D01*
X18157381Y-13506905D01*
D13*
X13195000Y-13909000D02*
G75*
G03*
X13195000Y-13909000I-50000J0D01*
G01*
D11*
X13557381Y-13999476D02*
X13443095Y-13999476D01*
X13500238Y-13999476D02*
X13500238Y-13799476D01*
X13481190Y-13828048D01*
X13462143Y-13847095D01*
X13443095Y-13856619D01*
X13643095Y-13980428D02*
X13652619Y-13989952D01*
X13643095Y-13999476D01*
X13633571Y-13989952D01*
X13643095Y-13980428D01*
X13643095Y-13999476D01*
X13776428Y-13799476D02*
X13795476Y-13799476D01*
X13814524Y-13809000D01*
X13824048Y-13818524D01*
X13833571Y-13837571D01*
X13843095Y-13875667D01*
X13843095Y-13923286D01*
X13833571Y-13961381D01*
X13824048Y-13980428D01*
X13814524Y-13989952D01*
X13795476Y-13999476D01*
X13776428Y-13999476D01*
X13757381Y-13989952D01*
X13747857Y-13980428D01*
X13738333Y-13961381D01*
X13728809Y-13923286D01*
X13728809Y-13875667D01*
X13738333Y-13837571D01*
X13747857Y-13818524D01*
X13757381Y-13809000D01*
X13776428Y-13799476D01*
X13966905Y-13799476D02*
X13985952Y-13799476D01*
X14005000Y-13809000D01*
X14014524Y-13818524D01*
X14024048Y-13837571D01*
X14033571Y-13875667D01*
X14033571Y-13923286D01*
X14024048Y-13961381D01*
X14014524Y-13980428D01*
X14005000Y-13989952D01*
X13985952Y-13999476D01*
X13966905Y-13999476D01*
X13947857Y-13989952D01*
X13938333Y-13980428D01*
X13928809Y-13961381D01*
X13919286Y-13923286D01*
X13919286Y-13875667D01*
X13928809Y-13837571D01*
X13938333Y-13818524D01*
X13947857Y-13809000D01*
X13966905Y-13799476D01*
X14157381Y-13799476D02*
X14176428Y-13799476D01*
X14195476Y-13809000D01*
X14205000Y-13818524D01*
X14214524Y-13837571D01*
X14224048Y-13875667D01*
X14224048Y-13923286D01*
X14214524Y-13961381D01*
X14205000Y-13980428D01*
X14195476Y-13989952D01*
X14176428Y-13999476D01*
X14157381Y-13999476D01*
X14138333Y-13989952D01*
X14128809Y-13980428D01*
X14119286Y-13961381D01*
X14109762Y-13923286D01*
X14109762Y-13875667D01*
X14119286Y-13837571D01*
X14128809Y-13818524D01*
X14138333Y-13809000D01*
X14157381Y-13799476D01*
X14309762Y-13999476D02*
X14309762Y-13866143D01*
X14309762Y-13885190D02*
X14319286Y-13875667D01*
X14338333Y-13866143D01*
X14366905Y-13866143D01*
X14385952Y-13875667D01*
X14395476Y-13894714D01*
X14395476Y-13999476D01*
X14395476Y-13894714D02*
X14405000Y-13875667D01*
X14424048Y-13866143D01*
X14452619Y-13866143D01*
X14471667Y-13875667D01*
X14481190Y-13894714D01*
X14481190Y-13999476D01*
X14576428Y-13999476D02*
X14576428Y-13866143D01*
X14576428Y-13885190D02*
X14585952Y-13875667D01*
X14605000Y-13866143D01*
X14633571Y-13866143D01*
X14652619Y-13875667D01*
X14662143Y-13894714D01*
X14662143Y-13999476D01*
X14662143Y-13894714D02*
X14671667Y-13875667D01*
X14690714Y-13866143D01*
X14719286Y-13866143D01*
X14738333Y-13875667D01*
X14747857Y-13894714D01*
X14747857Y-13999476D01*
X15138333Y-13789952D02*
X14966905Y-14047095D01*
X15395476Y-13799476D02*
X15414524Y-13799476D01*
X15433571Y-13809000D01*
X15443095Y-13818524D01*
X15452619Y-13837571D01*
X15462143Y-13875667D01*
X15462143Y-13923286D01*
X15452619Y-13961381D01*
X15443095Y-13980428D01*
X15433571Y-13989952D01*
X15414524Y-13999476D01*
X15395476Y-13999476D01*
X15376428Y-13989952D01*
X15366905Y-13980428D01*
X15357381Y-13961381D01*
X15347857Y-13923286D01*
X15347857Y-13875667D01*
X15357381Y-13837571D01*
X15366905Y-13818524D01*
X15376428Y-13809000D01*
X15395476Y-13799476D01*
X15547857Y-13980428D02*
X15557381Y-13989952D01*
X15547857Y-13999476D01*
X15538333Y-13989952D01*
X15547857Y-13980428D01*
X15547857Y-13999476D01*
X15681190Y-13799476D02*
X15700238Y-13799476D01*
X15719286Y-13809000D01*
X15728809Y-13818524D01*
X15738333Y-13837571D01*
X15747857Y-13875667D01*
X15747857Y-13923286D01*
X15738333Y-13961381D01*
X15728809Y-13980428D01*
X15719286Y-13989952D01*
X15700238Y-13999476D01*
X15681190Y-13999476D01*
X15662143Y-13989952D01*
X15652619Y-13980428D01*
X15643095Y-13961381D01*
X15633571Y-13923286D01*
X15633571Y-13875667D01*
X15643095Y-13837571D01*
X15652619Y-13818524D01*
X15662143Y-13809000D01*
X15681190Y-13799476D01*
X15814524Y-13799476D02*
X15938333Y-13799476D01*
X15871667Y-13875667D01*
X15900238Y-13875667D01*
X15919286Y-13885190D01*
X15928809Y-13894714D01*
X15938333Y-13913762D01*
X15938333Y-13961381D01*
X15928809Y-13980428D01*
X15919286Y-13989952D01*
X15900238Y-13999476D01*
X15843095Y-13999476D01*
X15824048Y-13989952D01*
X15814524Y-13980428D01*
X16033571Y-13999476D02*
X16071667Y-13999476D01*
X16090714Y-13989952D01*
X16100238Y-13980428D01*
X16119286Y-13951857D01*
X16128809Y-13913762D01*
X16128809Y-13837571D01*
X16119286Y-13818524D01*
X16109762Y-13809000D01*
X16090714Y-13799476D01*
X16052619Y-13799476D01*
X16033571Y-13809000D01*
X16024048Y-13818524D01*
X16014524Y-13837571D01*
X16014524Y-13885190D01*
X16024048Y-13904238D01*
X16033571Y-13913762D01*
X16052619Y-13923286D01*
X16090714Y-13923286D01*
X16109762Y-13913762D01*
X16119286Y-13904238D01*
X16128809Y-13885190D01*
X16300238Y-13866143D02*
X16300238Y-13999476D01*
X16252619Y-13789952D02*
X16205000Y-13932809D01*
X16328809Y-13932809D01*
X16395476Y-13799476D02*
X16395476Y-13837571D01*
X16471667Y-13799476D02*
X16471667Y-13837571D01*
X16766905Y-14075667D02*
X16757381Y-14066143D01*
X16738333Y-14037571D01*
X16728809Y-14018524D01*
X16719286Y-13989952D01*
X16709762Y-13942333D01*
X16709762Y-13904238D01*
X16719286Y-13856619D01*
X16728809Y-13828048D01*
X16738333Y-13809000D01*
X16757381Y-13780428D01*
X16766905Y-13770905D01*
X16871667Y-13885190D02*
X16852619Y-13875667D01*
X16843095Y-13866143D01*
X16833571Y-13847095D01*
X16833571Y-13837571D01*
X16843095Y-13818524D01*
X16852619Y-13809000D01*
X16871667Y-13799476D01*
X16909762Y-13799476D01*
X16928810Y-13809000D01*
X16938333Y-13818524D01*
X16947857Y-13837571D01*
X16947857Y-13847095D01*
X16938333Y-13866143D01*
X16928810Y-13875667D01*
X16909762Y-13885190D01*
X16871667Y-13885190D01*
X16852619Y-13894714D01*
X16843095Y-13904238D01*
X16833571Y-13923286D01*
X16833571Y-13961381D01*
X16843095Y-13980428D01*
X16852619Y-13989952D01*
X16871667Y-13999476D01*
X16909762Y-13999476D01*
X16928810Y-13989952D01*
X16938333Y-13980428D01*
X16947857Y-13961381D01*
X16947857Y-13923286D01*
X16938333Y-13904238D01*
X16928810Y-13894714D01*
X16909762Y-13885190D01*
X17119286Y-13866143D02*
X17119286Y-13999476D01*
X17071667Y-13789952D02*
X17024048Y-13932809D01*
X17147857Y-13932809D01*
X17376429Y-13999476D02*
X17376429Y-13799476D01*
X17462143Y-13999476D02*
X17462143Y-13894714D01*
X17452619Y-13875667D01*
X17433571Y-13866143D01*
X17405000Y-13866143D01*
X17385952Y-13875667D01*
X17376429Y-13885190D01*
X17585952Y-13999476D02*
X17566905Y-13989952D01*
X17557381Y-13980428D01*
X17547857Y-13961381D01*
X17547857Y-13904238D01*
X17557381Y-13885190D01*
X17566905Y-13875667D01*
X17585952Y-13866143D01*
X17614524Y-13866143D01*
X17633571Y-13875667D01*
X17643095Y-13885190D01*
X17652619Y-13904238D01*
X17652619Y-13961381D01*
X17643095Y-13980428D01*
X17633571Y-13989952D01*
X17614524Y-13999476D01*
X17585952Y-13999476D01*
X17766905Y-13999476D02*
X17747857Y-13989952D01*
X17738333Y-13970905D01*
X17738333Y-13799476D01*
X17919286Y-13989952D02*
X17900238Y-13999476D01*
X17862143Y-13999476D01*
X17843095Y-13989952D01*
X17833571Y-13970905D01*
X17833571Y-13894714D01*
X17843095Y-13875667D01*
X17862143Y-13866143D01*
X17900238Y-13866143D01*
X17919286Y-13875667D01*
X17928810Y-13894714D01*
X17928810Y-13913762D01*
X17833571Y-13932809D01*
X18005000Y-13989952D02*
X18024048Y-13999476D01*
X18062143Y-13999476D01*
X18081190Y-13989952D01*
X18090714Y-13970905D01*
X18090714Y-13961381D01*
X18081190Y-13942333D01*
X18062143Y-13932809D01*
X18033571Y-13932809D01*
X18014524Y-13923286D01*
X18005000Y-13904238D01*
X18005000Y-13894714D01*
X18014524Y-13875667D01*
X18033571Y-13866143D01*
X18062143Y-13866143D01*
X18081190Y-13875667D01*
X18157381Y-14075667D02*
X18166905Y-14066143D01*
X18185952Y-14037571D01*
X18195476Y-14018524D01*
X18205000Y-13989952D01*
X18214524Y-13942333D01*
X18214524Y-13904238D01*
X18205000Y-13856619D01*
X18195476Y-13828048D01*
X18185952Y-13809000D01*
X18166905Y-13780428D01*
X18157381Y-13770905D01*
M02*
