M48
; DRILL file {KiCad (6.0.5)} date Sun Jan 21 10:02:12 2024
; FORMAT={-:-/ absolute / metric / decimal}
; #@! TF.CreationDate,2024-01-21T10:02:12+01:00
; #@! TF.GenerationSoftware,Kicad,Pcbnew,(6.0.5)
; #@! TF.FileFunction,Plated,1,2,PTH
FMAT,2
METRIC
; #@! TA.AperFunction,Plated,PTH,ViaDrill
T1C0.400
; #@! TA.AperFunction,Plated,PTH,ComponentDrill
T2C1.000
%
G90
G05
T1
X141.7Y-101.0
X141.7Y-104.5
X143.1Y-101.2
X143.1Y-104.6
X149.3Y-94.4
X149.4Y-83.2
X150.5Y-95.1
X150.5Y-104.2
X151.0Y-83.3
X151.5Y-104.9
X152.4Y-105.8
X153.0Y-101.7
X153.8Y-102.6
X154.3Y-107.7
X154.7Y-103.4
X155.1Y-108.5
X156.4Y-105.3
X156.7Y-96.4
X157.3Y-106.1
X158.0Y-97.5
X158.5Y-94.6
X159.9Y-95.8
X160.6Y-99.5
X161.5Y-98.1
X162.0Y-74.1
T2
X135.73Y-75.37
X135.73Y-77.91
X135.73Y-80.45
X135.73Y-82.99
X135.73Y-85.53
X135.73Y-88.07
X135.73Y-90.61
X135.73Y-93.15
X135.73Y-95.69
X135.73Y-98.23
X135.73Y-100.77
X135.73Y-103.31
X135.73Y-105.85
X135.73Y-108.39
X135.73Y-110.93
X135.73Y-113.47
X135.73Y-116.01
X135.73Y-118.55
X135.73Y-121.09
X135.73Y-123.63
X138.27Y-75.37
X138.27Y-77.91
X138.27Y-80.45
X138.27Y-82.99
X138.27Y-85.53
X138.27Y-88.07
X138.27Y-90.61
X138.27Y-93.15
X138.27Y-95.69
X138.27Y-98.23
X138.27Y-100.77
X138.27Y-103.31
X138.27Y-105.85
X138.27Y-108.39
X138.27Y-110.93
X138.27Y-113.47
X138.27Y-116.01
X138.27Y-118.55
X138.27Y-121.09
X138.27Y-123.63
X163.725Y-72.835
X163.725Y-75.375
X163.725Y-77.915
X163.725Y-80.455
X163.725Y-82.995
X163.725Y-85.535
X163.725Y-88.075
X163.725Y-90.615
X163.725Y-93.155
X163.725Y-95.695
X163.725Y-98.235
X163.725Y-100.775
X163.725Y-103.315
X163.725Y-105.855
X163.725Y-108.395
X163.725Y-110.935
X163.725Y-113.475
X163.725Y-116.015
X163.725Y-118.555
X163.725Y-121.095
X163.725Y-123.635
X163.725Y-126.175
X166.265Y-72.835
X166.265Y-75.375
X166.265Y-77.915
X166.265Y-80.455
X166.265Y-82.995
X166.265Y-85.535
X166.265Y-88.075
X166.265Y-90.615
X166.265Y-93.155
X166.265Y-95.695
X166.265Y-98.235
X166.265Y-100.775
X166.265Y-103.315
X166.265Y-105.855
X166.265Y-108.395
X166.265Y-110.935
X166.265Y-113.475
X166.265Y-116.015
X166.265Y-118.555
X166.265Y-121.095
X166.265Y-123.635
X166.265Y-126.175
T0
M30
