%TF.GenerationSoftware,KiCad,Pcbnew,(6.0.5)*%
%TF.CreationDate,2024-01-21T10:02:01+01:00*%
%TF.ProjectId,Alchemy_to_Landungsbruecke,416c6368-656d-4795-9f74-6f5f4c616e64,rev?*%
%TF.SameCoordinates,Original*%
%TF.FileFunction,Copper,L1,Top*%
%TF.FilePolarity,Positive*%
%FSLAX46Y46*%
G04 Gerber Fmt 4.6, Leading zero omitted, Abs format (unit mm)*
G04 Created by KiCad (PCBNEW (6.0.5)) date 2024-01-21 10:02:01*
%MOMM*%
%LPD*%
G01*
G04 APERTURE LIST*
%TA.AperFunction,ComponentPad*%
%ADD10R,1.700000X1.700000*%
%TD*%
%TA.AperFunction,ComponentPad*%
%ADD11O,1.700000X1.700000*%
%TD*%
%TA.AperFunction,ViaPad*%
%ADD12C,0.800000*%
%TD*%
%TA.AperFunction,Conductor*%
%ADD13C,0.400000*%
%TD*%
%TA.AperFunction,Conductor*%
%ADD14C,1.500000*%
%TD*%
G04 APERTURE END LIST*
D10*
%TO.P,J2,1,Pin_1*%
%TO.N,/VM*%
X163725000Y-126175000D03*
D11*
%TO.P,J2,2,Pin_2*%
%TO.N,GND*%
X166265000Y-126175000D03*
%TO.P,J2,3,Pin_3*%
X163725000Y-123635000D03*
%TO.P,J2,4,Pin_4*%
%TO.N,unconnected-(J2-Pad4)*%
X166265000Y-123635000D03*
%TO.P,J2,5,Pin_5*%
%TO.N,+5V*%
X163725000Y-121095000D03*
%TO.P,J2,6,Pin_6*%
%TO.N,unconnected-(J2-Pad6)*%
X166265000Y-121095000D03*
%TO.P,J2,7,Pin_7*%
%TO.N,unconnected-(J2-Pad7)*%
X163725000Y-118555000D03*
%TO.P,J2,8,Pin_8*%
%TO.N,/GPIO3*%
X166265000Y-118555000D03*
%TO.P,J2,9,Pin_9*%
%TO.N,unconnected-(J2-Pad9)*%
X163725000Y-116015000D03*
%TO.P,J2,10,Pin_10*%
%TO.N,unconnected-(J2-Pad10)*%
X166265000Y-116015000D03*
%TO.P,J2,11,Pin_11*%
%TO.N,unconnected-(J2-Pad11)*%
X163725000Y-113475000D03*
%TO.P,J2,12,Pin_12*%
%TO.N,/GPIO2*%
X166265000Y-113475000D03*
%TO.P,J2,13,Pin_13*%
%TO.N,/GPIO1*%
X163725000Y-110935000D03*
%TO.P,J2,14,Pin_14*%
%TO.N,/ADC3*%
X166265000Y-110935000D03*
%TO.P,J2,15,Pin_15*%
%TO.N,unconnected-(J2-Pad15)*%
X163725000Y-108395000D03*
%TO.P,J2,16,Pin_16*%
%TO.N,/ADC2*%
X166265000Y-108395000D03*
%TO.P,J2,17,Pin_17*%
%TO.N,/GPIO0*%
X163725000Y-105855000D03*
%TO.P,J2,18,Pin_18*%
%TO.N,/ADC9*%
X166265000Y-105855000D03*
%TO.P,J2,19,Pin_19*%
%TO.N,unconnected-(J2-Pad19)*%
X163725000Y-103315000D03*
%TO.P,J2,20,Pin_20*%
%TO.N,/ADC8*%
X166265000Y-103315000D03*
%TO.P,J2,21,Pin_21*%
%TO.N,/ADC7*%
X163725000Y-100775000D03*
%TO.P,J2,22,Pin_22*%
%TO.N,/ADC6*%
X166265000Y-100775000D03*
%TO.P,J2,23,Pin_23*%
%TO.N,unconnected-(J2-Pad23)*%
X163725000Y-98235000D03*
%TO.P,J2,24,Pin_24*%
%TO.N,/SPI2_NCS*%
X166265000Y-98235000D03*
%TO.P,J2,25,Pin_25*%
%TO.N,/ADC1*%
X163725000Y-95695000D03*
%TO.P,J2,26,Pin_26*%
%TO.N,/ADC0*%
X166265000Y-95695000D03*
%TO.P,J2,27,Pin_27*%
%TO.N,/SPI2_SCK*%
X163725000Y-93155000D03*
%TO.P,J2,28,Pin_28*%
%TO.N,/SPI2_MISO*%
X166265000Y-93155000D03*
%TO.P,J2,29,Pin_29*%
%TO.N,/SPI2_MOSI*%
X163725000Y-90615000D03*
%TO.P,J2,30,Pin_30*%
%TO.N,/SPI1_NCS*%
X166265000Y-90615000D03*
%TO.P,J2,31,Pin_31*%
%TO.N,/SPI1_SCK*%
X163725000Y-88075000D03*
%TO.P,J2,32,Pin_32*%
%TO.N,/SPI1_MOSI*%
X166265000Y-88075000D03*
%TO.P,J2,33,Pin_33*%
%TO.N,/SPI1_MISO*%
X163725000Y-85535000D03*
%TO.P,J2,34,Pin_34*%
%TO.N,/ADC4*%
X166265000Y-85535000D03*
%TO.P,J2,35,Pin_35*%
%TO.N,/I2C2_SCL*%
X163725000Y-82995000D03*
%TO.P,J2,36,Pin_36*%
%TO.N,/ADC5*%
X166265000Y-82995000D03*
%TO.P,J2,37,Pin_37*%
%TO.N,/I2C2_SDA*%
X163725000Y-80455000D03*
%TO.P,J2,38,Pin_38*%
%TO.N,/I2C1_SDA*%
X166265000Y-80455000D03*
%TO.P,J2,39,Pin_39*%
%TO.N,/UART1_TX*%
X163725000Y-77915000D03*
%TO.P,J2,40,Pin_40*%
%TO.N,/UART1_RX*%
X166265000Y-77915000D03*
%TO.P,J2,41,Pin_41*%
%TO.N,/I2C1_SCL*%
X163725000Y-75375000D03*
%TO.P,J2,42,Pin_42*%
%TO.N,+5V*%
X166265000Y-75375000D03*
%TO.P,J2,43,Pin_43*%
%TO.N,GND*%
X163725000Y-72835000D03*
%TO.P,J2,44,Pin_44*%
X166265000Y-72835000D03*
%TD*%
D10*
%TO.P,J1,1,Pin_1*%
%TO.N,GND*%
X135730000Y-75370000D03*
D11*
%TO.P,J1,2,Pin_2*%
X138270000Y-75370000D03*
%TO.P,J1,3,Pin_3*%
%TO.N,+5V*%
X135730000Y-77910000D03*
%TO.P,J1,4,Pin_4*%
X138270000Y-77910000D03*
%TO.P,J1,5,Pin_5*%
%TO.N,/I2C1_SDA*%
X135730000Y-80450000D03*
%TO.P,J1,6,Pin_6*%
%TO.N,/I2C1_SCL*%
X138270000Y-80450000D03*
%TO.P,J1,7,Pin_7*%
%TO.N,/UART1_RX*%
X135730000Y-82990000D03*
%TO.P,J1,8,Pin_8*%
%TO.N,/UART1_TX*%
X138270000Y-82990000D03*
%TO.P,J1,9,Pin_9*%
%TO.N,/SPI1_MOSI*%
X135730000Y-85530000D03*
%TO.P,J1,10,Pin_10*%
%TO.N,/SPI1_MISO*%
X138270000Y-85530000D03*
%TO.P,J1,11,Pin_11*%
%TO.N,/SPI1_SCK*%
X135730000Y-88070000D03*
%TO.P,J1,12,Pin_12*%
%TO.N,/SPI1_NCS*%
X138270000Y-88070000D03*
%TO.P,J1,13,Pin_13*%
%TO.N,/SPI2_MOSI*%
X135730000Y-90610000D03*
%TO.P,J1,14,Pin_14*%
%TO.N,/SPI2_MISO*%
X138270000Y-90610000D03*
%TO.P,J1,15,Pin_15*%
%TO.N,/SPI2_SCK*%
X135730000Y-93150000D03*
%TO.P,J1,16,Pin_16*%
%TO.N,/SPI2_NCS*%
X138270000Y-93150000D03*
%TO.P,J1,17,Pin_17*%
%TO.N,/I2C2_SDA*%
X135730000Y-95690000D03*
%TO.P,J1,18,Pin_18*%
%TO.N,/I2C2_SCL*%
X138270000Y-95690000D03*
%TO.P,J1,19,Pin_19*%
%TO.N,GND*%
X135730000Y-98230000D03*
%TO.P,J1,20,Pin_20*%
X138270000Y-98230000D03*
%TO.P,J1,21,Pin_21*%
%TO.N,/ADC0*%
X135730000Y-100770000D03*
%TO.P,J1,22,Pin_22*%
%TO.N,/ADC1*%
X138270000Y-100770000D03*
%TO.P,J1,23,Pin_23*%
%TO.N,/ADC2*%
X135730000Y-103310000D03*
%TO.P,J1,24,Pin_24*%
%TO.N,/ADC3*%
X138270000Y-103310000D03*
%TO.P,J1,25,Pin_25*%
%TO.N,/ADC4*%
X135730000Y-105850000D03*
%TO.P,J1,26,Pin_26*%
%TO.N,/ADC5*%
X138270000Y-105850000D03*
%TO.P,J1,27,Pin_27*%
%TO.N,/ADC6*%
X135730000Y-108390000D03*
%TO.P,J1,28,Pin_28*%
%TO.N,/ADC7*%
X138270000Y-108390000D03*
%TO.P,J1,29,Pin_29*%
%TO.N,/ADC8*%
X135730000Y-110930000D03*
%TO.P,J1,30,Pin_30*%
%TO.N,/ADC9*%
X138270000Y-110930000D03*
%TO.P,J1,31,Pin_31*%
%TO.N,/GPIO0*%
X135730000Y-113470000D03*
%TO.P,J1,32,Pin_32*%
%TO.N,/GPIO1*%
X138270000Y-113470000D03*
%TO.P,J1,33,Pin_33*%
%TO.N,/GPIO2*%
X135730000Y-116010000D03*
%TO.P,J1,34,Pin_34*%
%TO.N,/GPIO3*%
X138270000Y-116010000D03*
%TO.P,J1,35,Pin_35*%
%TO.N,unconnected-(J1-Pad35)*%
X135730000Y-118550000D03*
%TO.P,J1,36,Pin_36*%
%TO.N,unconnected-(J1-Pad36)*%
X138270000Y-118550000D03*
%TO.P,J1,37,Pin_37*%
%TO.N,GND*%
X135730000Y-121090000D03*
%TO.P,J1,38,Pin_38*%
X138270000Y-121090000D03*
%TO.P,J1,39,Pin_39*%
%TO.N,/VM*%
X135730000Y-123630000D03*
%TO.P,J1,40,Pin_40*%
X138270000Y-123630000D03*
%TD*%
D12*
%TO.N,/I2C1_SDA*%
X162000000Y-74100000D03*
%TO.N,/I2C2_SDA*%
X149400000Y-83200000D03*
X149300000Y-94400000D03*
%TO.N,/I2C2_SCL*%
X150500000Y-95100000D03*
X151000000Y-83300000D03*
%TO.N,/ADC0*%
X156700000Y-96400000D03*
X158500000Y-94600000D03*
%TO.N,/ADC1*%
X158000000Y-97500000D03*
X159900000Y-95800000D03*
%TO.N,/ADC4*%
X161500000Y-98100000D03*
X141700000Y-101000000D03*
X141700000Y-104500000D03*
%TO.N,/ADC5*%
X143100000Y-104600000D03*
X160600000Y-99500000D03*
X143100000Y-101200000D03*
%TO.N,/ADC6*%
X153000000Y-101700000D03*
X150500000Y-104200000D03*
%TO.N,/ADC7*%
X153800000Y-102600000D03*
X151500000Y-104900000D03*
%TO.N,/ADC8*%
X152400000Y-105800000D03*
X154700000Y-103400000D03*
%TO.N,/ADC9*%
X156400000Y-105300000D03*
X154300000Y-107700000D03*
%TO.N,/GPIO0*%
X155100000Y-108500000D03*
X157300000Y-106100000D03*
%TD*%
D13*
%TO.N,/I2C1_SDA*%
X146740489Y-79159511D02*
X151800000Y-74100000D01*
X162000000Y-74100000D02*
X151800000Y-74100000D01*
X135730000Y-80450000D02*
X137020489Y-79159511D01*
X137020489Y-79159511D02*
X146740489Y-79159511D01*
%TO.N,/I2C1_SCL*%
X152325000Y-75375000D02*
X163725000Y-75375000D01*
X147250000Y-80450000D02*
X152325000Y-75375000D01*
X138270000Y-80450000D02*
X147250000Y-80450000D01*
%TO.N,/I2C2_SDA*%
X152145000Y-80455000D02*
X163725000Y-80455000D01*
X149400000Y-83200000D02*
X152145000Y-80455000D01*
X136979511Y-94440489D02*
X149259511Y-94440489D01*
X149259511Y-94440489D02*
X149300000Y-94400000D01*
X135730000Y-95690000D02*
X136979511Y-94440489D01*
%TO.N,/I2C2_SCL*%
X151000000Y-83300000D02*
X151305000Y-82995000D01*
X149910000Y-95690000D02*
X138270000Y-95690000D01*
X150500000Y-95100000D02*
X149910000Y-95690000D01*
X151305000Y-82995000D02*
X163725000Y-82995000D01*
%TO.N,/ADC0*%
X165015489Y-94445489D02*
X166265000Y-95695000D01*
X139879511Y-99520489D02*
X136979511Y-99520489D01*
X142500000Y-96900000D02*
X139879511Y-99520489D01*
X136979511Y-99520489D02*
X135730000Y-100770000D01*
X158500000Y-94600000D02*
X158654511Y-94445489D01*
X158654511Y-94445489D02*
X165015489Y-94445489D01*
X156700000Y-96400000D02*
X156200000Y-96900000D01*
X156200000Y-96900000D02*
X142500000Y-96900000D01*
%TO.N,/ADC1*%
X138270000Y-100770000D02*
X140430000Y-100770000D01*
X160005000Y-95695000D02*
X163725000Y-95695000D01*
X157400000Y-98100000D02*
X158000000Y-97500000D01*
X143100000Y-98100000D02*
X157400000Y-98100000D01*
X159900000Y-95800000D02*
X160005000Y-95695000D01*
X140430000Y-100770000D02*
X143100000Y-98100000D01*
%TO.N,/ADC4*%
X159400489Y-98299511D02*
X158700000Y-99000000D01*
X143700000Y-99000000D02*
X141700000Y-101000000D01*
X135730000Y-105850000D02*
X136979511Y-104600489D01*
X141599511Y-104600489D02*
X141700000Y-104500000D01*
X158700000Y-99000000D02*
X143700000Y-99000000D01*
X161300489Y-98299511D02*
X159400489Y-98299511D01*
X136979511Y-104600489D02*
X141599511Y-104600489D01*
X161500000Y-98100000D02*
X161300489Y-98299511D01*
%TO.N,/ADC5*%
X138270000Y-105850000D02*
X141850000Y-105850000D01*
X144700000Y-99700000D02*
X143200000Y-101200000D01*
X160600000Y-99500000D02*
X160400000Y-99700000D01*
X143200000Y-101200000D02*
X143100000Y-101200000D01*
X160400000Y-99700000D02*
X144700000Y-99700000D01*
X141850000Y-105850000D02*
X143100000Y-104600000D01*
%TO.N,/ADC6*%
X153000000Y-101700000D02*
X154000000Y-100700000D01*
X150500000Y-104200000D02*
X147559511Y-107140489D01*
X147559511Y-107140489D02*
X136979511Y-107140489D01*
X136979511Y-107140489D02*
X135730000Y-108390000D01*
X154000000Y-100700000D02*
X161300000Y-100700000D01*
X165015489Y-99525489D02*
X166265000Y-100775000D01*
X161300000Y-100700000D02*
X162474511Y-99525489D01*
X162474511Y-99525489D02*
X165015489Y-99525489D01*
%TO.N,/ADC7*%
X154700000Y-101700000D02*
X161500000Y-101700000D01*
X162425000Y-100775000D02*
X163725000Y-100775000D01*
X161500000Y-101700000D02*
X162425000Y-100775000D01*
X138270000Y-108390000D02*
X148010000Y-108390000D01*
X153800000Y-102600000D02*
X154700000Y-101700000D01*
X148010000Y-108390000D02*
X151500000Y-104900000D01*
%TO.N,/ADC8*%
X162534511Y-102065489D02*
X165015489Y-102065489D01*
X162000000Y-102600000D02*
X162534511Y-102065489D01*
X154700000Y-103400000D02*
X155500000Y-102600000D01*
X152400000Y-105800000D02*
X148519511Y-109680489D01*
X136979511Y-109680489D02*
X135730000Y-110930000D01*
X165015489Y-102065489D02*
X166265000Y-103315000D01*
X155500000Y-102600000D02*
X162000000Y-102600000D01*
X148519511Y-109680489D02*
X136979511Y-109680489D01*
%TO.N,/ADC9*%
X138270000Y-110930000D02*
X151070000Y-110930000D01*
X166265000Y-105855000D02*
X165015489Y-104605489D01*
X151070000Y-110930000D02*
X154300000Y-107700000D01*
X165015489Y-104605489D02*
X157094511Y-104605489D01*
X157094511Y-104605489D02*
X156400000Y-105300000D01*
%TO.N,/GPIO0*%
X163725000Y-105855000D02*
X157545000Y-105855000D01*
X136979511Y-112220489D02*
X151379511Y-112220489D01*
X157545000Y-105855000D02*
X157300000Y-106100000D01*
X151379511Y-112220489D02*
X155100000Y-108500000D01*
X135730000Y-113470000D02*
X136979511Y-112220489D01*
%TO.N,/GPIO1*%
X159830000Y-113470000D02*
X138270000Y-113470000D01*
X163725000Y-110935000D02*
X162365000Y-110935000D01*
X162365000Y-110935000D02*
X159830000Y-113470000D01*
%TO.N,/GPIO2*%
X137015489Y-114724511D02*
X135730000Y-116010000D01*
X165015489Y-114724511D02*
X137015489Y-114724511D01*
X166265000Y-113475000D02*
X165015489Y-114724511D01*
%TO.N,/GPIO3*%
X160010000Y-116010000D02*
X138270000Y-116010000D01*
X166265000Y-118555000D02*
X165015489Y-117305489D01*
X165015489Y-117305489D02*
X161305489Y-117305489D01*
X161305489Y-117305489D02*
X160010000Y-116010000D01*
%TO.N,+5V*%
X167600000Y-121527076D02*
X167600000Y-119800000D01*
D14*
X167467081Y-75375000D02*
X168400000Y-76307919D01*
D13*
X163725000Y-121095000D02*
X164974511Y-119845489D01*
X163725000Y-121095000D02*
X165015489Y-122385489D01*
D14*
X146582081Y-70800000D02*
X167400000Y-70800000D01*
X139472081Y-77910000D02*
X146582081Y-70800000D01*
X168400000Y-76307919D02*
X168400000Y-87600000D01*
X166269894Y-75375000D02*
X168200000Y-73444894D01*
D13*
X167554511Y-119845489D02*
X167600000Y-119800000D01*
X166741587Y-122385489D02*
X167600000Y-121527076D01*
D14*
X166265000Y-75375000D02*
X166269894Y-75375000D01*
X168400000Y-119000000D02*
X167600000Y-119800000D01*
X138270000Y-77910000D02*
X139472081Y-77910000D01*
X168400000Y-87600000D02*
X168400000Y-104400000D01*
X168200000Y-73444894D02*
X168200000Y-71600000D01*
D13*
X164974511Y-119845489D02*
X167554511Y-119845489D01*
D14*
X168200000Y-71600000D02*
X167400000Y-70800000D01*
X166265000Y-75375000D02*
X167467081Y-75375000D01*
D13*
X165015489Y-122385489D02*
X166741587Y-122385489D01*
D14*
X168400000Y-104400000D02*
X168400000Y-119000000D01*
X138270000Y-77910000D02*
X135730000Y-77910000D01*
D13*
%TO.N,/UART1_RX*%
X165015489Y-76665489D02*
X166265000Y-77915000D01*
X152534511Y-76665489D02*
X165015489Y-76665489D01*
X136979511Y-81740489D02*
X147459511Y-81740489D01*
X135730000Y-82990000D02*
X136979511Y-81740489D01*
X147459511Y-81740489D02*
X152534511Y-76665489D01*
%TO.N,/UART1_TX*%
X147590000Y-82990000D02*
X138270000Y-82990000D01*
X147600000Y-83000000D02*
X147590000Y-82990000D01*
X152685000Y-77915000D02*
X147600000Y-83000000D01*
X163725000Y-77915000D02*
X152685000Y-77915000D01*
%TO.N,/SPI1_MOSI*%
X165015489Y-86825489D02*
X166265000Y-88075000D01*
X136979511Y-84280489D02*
X164278543Y-84280489D01*
X164278543Y-84280489D02*
X165015489Y-85017435D01*
X165015489Y-85017435D02*
X165015489Y-86825489D01*
X135730000Y-85530000D02*
X136979511Y-84280489D01*
%TO.N,/SPI1_MISO*%
X138275000Y-85535000D02*
X138270000Y-85530000D01*
X163725000Y-85535000D02*
X138275000Y-85535000D01*
%TO.N,/SPI1_SCK*%
X136979511Y-86820489D02*
X162470489Y-86820489D01*
X162470489Y-86820489D02*
X163725000Y-88075000D01*
X135730000Y-88070000D02*
X136979511Y-86820489D01*
%TO.N,/SPI1_NCS*%
X165015489Y-89365489D02*
X162065489Y-89365489D01*
X166265000Y-90615000D02*
X165015489Y-89365489D01*
X160770000Y-88070000D02*
X138270000Y-88070000D01*
X162065489Y-89365489D02*
X160770000Y-88070000D01*
%TO.N,/SPI2_MOSI*%
X136502924Y-90610000D02*
X137752435Y-89360489D01*
X160160489Y-89360489D02*
X161415000Y-90615000D01*
X161415000Y-90615000D02*
X163725000Y-90615000D01*
X137752435Y-89360489D02*
X160160489Y-89360489D01*
X135730000Y-90610000D02*
X136502924Y-90610000D01*
%TO.N,/SPI2_MISO*%
X160705489Y-91905489D02*
X159410000Y-90610000D01*
X159410000Y-90610000D02*
X138270000Y-90610000D01*
X166265000Y-93155000D02*
X165015489Y-91905489D01*
X165015489Y-91905489D02*
X160705489Y-91905489D01*
%TO.N,/SPI2_SCK*%
X136979511Y-91900489D02*
X135730000Y-93150000D01*
X158700489Y-91900489D02*
X136979511Y-91900489D01*
X159955000Y-93155000D02*
X158700489Y-91900489D01*
X163725000Y-93155000D02*
X159955000Y-93155000D01*
%TO.N,/SPI2_NCS*%
X159144511Y-96944511D02*
X164974511Y-96944511D01*
X164974511Y-96944511D02*
X166265000Y-98235000D01*
X138270000Y-93150000D02*
X155350000Y-93150000D01*
X155350000Y-93150000D02*
X159144511Y-96944511D01*
%TO.N,/ADC2*%
X165015489Y-107145489D02*
X156945489Y-107145489D01*
X156945489Y-107145489D02*
X151860489Y-102060489D01*
X166265000Y-108395000D02*
X165015489Y-107145489D01*
X151860489Y-102060489D02*
X136979511Y-102060489D01*
X136979511Y-102060489D02*
X135730000Y-103310000D01*
%TO.N,/ADC3*%
X157585489Y-109685489D02*
X151210000Y-103310000D01*
X165015489Y-109685489D02*
X157585489Y-109685489D01*
X166265000Y-110935000D02*
X165015489Y-109685489D01*
X151210000Y-103310000D02*
X138270000Y-103310000D01*
D14*
%TO.N,/VM*%
X163725000Y-126175000D02*
X140815000Y-126175000D01*
X140815000Y-126175000D02*
X138270000Y-123630000D01*
X135730000Y-123630000D02*
X138270000Y-123630000D01*
%TD*%
M02*
