%TF.GenerationSoftware,KiCad,Pcbnew,(6.0.5)*%
%TF.CreationDate,2024-01-21T10:02:02+01:00*%
%TF.ProjectId,Alchemy_to_Landungsbruecke,416c6368-656d-4795-9f74-6f5f4c616e64,rev?*%
%TF.SameCoordinates,Original*%
%TF.FileFunction,Legend,Top*%
%TF.FilePolarity,Positive*%
%FSLAX46Y46*%
G04 Gerber Fmt 4.6, Leading zero omitted, Abs format (unit mm)*
G04 Created by KiCad (PCBNEW (6.0.5)) date 2024-01-21 10:02:02*
%MOMM*%
%LPD*%
G01*
G04 APERTURE LIST*
%ADD10C,0.150000*%
%ADD11R,1.700000X1.700000*%
%ADD12O,1.700000X1.700000*%
G04 APERTURE END LIST*
D10*
X150680952Y-72528571D02*
X151014285Y-72528571D01*
X151157142Y-73052380D02*
X150680952Y-73052380D01*
X150680952Y-72052380D01*
X151157142Y-72052380D01*
X152061904Y-73052380D02*
X151585714Y-73052380D01*
X151585714Y-72052380D01*
X152966666Y-73052380D02*
X152633333Y-72576190D01*
X152395238Y-73052380D02*
X152395238Y-72052380D01*
X152776190Y-72052380D01*
X152871428Y-72100000D01*
X152919047Y-72147619D01*
X152966666Y-72242857D01*
X152966666Y-72385714D01*
X152919047Y-72480952D01*
X152871428Y-72528571D01*
X152776190Y-72576190D01*
X152395238Y-72576190D01*
X157776190Y-127652380D02*
X158109523Y-128652380D01*
X158442857Y-127652380D01*
X159300000Y-128652380D02*
X158728571Y-128652380D01*
X159014285Y-128652380D02*
X159014285Y-127652380D01*
X158919047Y-127795238D01*
X158823809Y-127890476D01*
X158728571Y-127938095D01*
X159728571Y-128557142D02*
X159776190Y-128604761D01*
X159728571Y-128652380D01*
X159680952Y-128604761D01*
X159728571Y-128557142D01*
X159728571Y-128652380D01*
X160395238Y-127652380D02*
X160490476Y-127652380D01*
X160585714Y-127700000D01*
X160633333Y-127747619D01*
X160680952Y-127842857D01*
X160728571Y-128033333D01*
X160728571Y-128271428D01*
X160680952Y-128461904D01*
X160633333Y-128557142D01*
X160585714Y-128604761D01*
X160490476Y-128652380D01*
X160395238Y-128652380D01*
X160300000Y-128604761D01*
X160252380Y-128557142D01*
X160204761Y-128461904D01*
X160157142Y-128271428D01*
X160157142Y-128033333D01*
X160204761Y-127842857D01*
X160252380Y-127747619D01*
X160300000Y-127700000D01*
X160395238Y-127652380D01*
X140338095Y-128166666D02*
X140814285Y-128166666D01*
X140242857Y-128452380D02*
X140576190Y-127452380D01*
X140909523Y-128452380D01*
X141385714Y-128452380D02*
X141290476Y-128404761D01*
X141242857Y-128309523D01*
X141242857Y-127452380D01*
X142195238Y-128404761D02*
X142100000Y-128452380D01*
X141909523Y-128452380D01*
X141814285Y-128404761D01*
X141766666Y-128357142D01*
X141719047Y-128261904D01*
X141719047Y-127976190D01*
X141766666Y-127880952D01*
X141814285Y-127833333D01*
X141909523Y-127785714D01*
X142100000Y-127785714D01*
X142195238Y-127833333D01*
X142623809Y-128452380D02*
X142623809Y-127452380D01*
X143052380Y-128452380D02*
X143052380Y-127928571D01*
X143004761Y-127833333D01*
X142909523Y-127785714D01*
X142766666Y-127785714D01*
X142671428Y-127833333D01*
X142623809Y-127880952D01*
X143909523Y-128404761D02*
X143814285Y-128452380D01*
X143623809Y-128452380D01*
X143528571Y-128404761D01*
X143480952Y-128309523D01*
X143480952Y-127928571D01*
X143528571Y-127833333D01*
X143623809Y-127785714D01*
X143814285Y-127785714D01*
X143909523Y-127833333D01*
X143957142Y-127928571D01*
X143957142Y-128023809D01*
X143480952Y-128119047D01*
X144385714Y-128452380D02*
X144385714Y-127785714D01*
X144385714Y-127880952D02*
X144433333Y-127833333D01*
X144528571Y-127785714D01*
X144671428Y-127785714D01*
X144766666Y-127833333D01*
X144814285Y-127928571D01*
X144814285Y-128452380D01*
X144814285Y-127928571D02*
X144861904Y-127833333D01*
X144957142Y-127785714D01*
X145100000Y-127785714D01*
X145195238Y-127833333D01*
X145242857Y-127928571D01*
X145242857Y-128452380D01*
X145623809Y-127785714D02*
X145861904Y-128452380D01*
X146100000Y-127785714D02*
X145861904Y-128452380D01*
X145766666Y-128690476D01*
X145719047Y-128738095D01*
X145623809Y-128785714D01*
X147100000Y-127785714D02*
X147480952Y-127785714D01*
X147242857Y-127452380D02*
X147242857Y-128309523D01*
X147290476Y-128404761D01*
X147385714Y-128452380D01*
X147480952Y-128452380D01*
X147957142Y-128452380D02*
X147861904Y-128404761D01*
X147814285Y-128357142D01*
X147766666Y-128261904D01*
X147766666Y-127976190D01*
X147814285Y-127880952D01*
X147861904Y-127833333D01*
X147957142Y-127785714D01*
X148100000Y-127785714D01*
X148195238Y-127833333D01*
X148242857Y-127880952D01*
X148290476Y-127976190D01*
X148290476Y-128261904D01*
X148242857Y-128357142D01*
X148195238Y-128404761D01*
X148100000Y-128452380D01*
X147957142Y-128452380D01*
X149957142Y-128452380D02*
X149480952Y-128452380D01*
X149480952Y-127452380D01*
X150623809Y-127928571D02*
X150766666Y-127976190D01*
X150814285Y-128023809D01*
X150861904Y-128119047D01*
X150861904Y-128261904D01*
X150814285Y-128357142D01*
X150766666Y-128404761D01*
X150671428Y-128452380D01*
X150290476Y-128452380D01*
X150290476Y-127452380D01*
X150623809Y-127452380D01*
X150719047Y-127500000D01*
X150766666Y-127547619D01*
X150814285Y-127642857D01*
X150814285Y-127738095D01*
X150766666Y-127833333D01*
X150719047Y-127880952D01*
X150623809Y-127928571D01*
X150290476Y-127928571D01*
%LPC*%
D11*
%TO.C,J2*%
X163725000Y-126175000D03*
D12*
X166265000Y-126175000D03*
X163725000Y-123635000D03*
X166265000Y-123635000D03*
X163725000Y-121095000D03*
X166265000Y-121095000D03*
X163725000Y-118555000D03*
X166265000Y-118555000D03*
X163725000Y-116015000D03*
X166265000Y-116015000D03*
X163725000Y-113475000D03*
X166265000Y-113475000D03*
X163725000Y-110935000D03*
X166265000Y-110935000D03*
X163725000Y-108395000D03*
X166265000Y-108395000D03*
X163725000Y-105855000D03*
X166265000Y-105855000D03*
X163725000Y-103315000D03*
X166265000Y-103315000D03*
X163725000Y-100775000D03*
X166265000Y-100775000D03*
X163725000Y-98235000D03*
X166265000Y-98235000D03*
X163725000Y-95695000D03*
X166265000Y-95695000D03*
X163725000Y-93155000D03*
X166265000Y-93155000D03*
X163725000Y-90615000D03*
X166265000Y-90615000D03*
X163725000Y-88075000D03*
X166265000Y-88075000D03*
X163725000Y-85535000D03*
X166265000Y-85535000D03*
X163725000Y-82995000D03*
X166265000Y-82995000D03*
X163725000Y-80455000D03*
X166265000Y-80455000D03*
X163725000Y-77915000D03*
X166265000Y-77915000D03*
X163725000Y-75375000D03*
X166265000Y-75375000D03*
X163725000Y-72835000D03*
X166265000Y-72835000D03*
%TD*%
D11*
%TO.C,J1*%
X135730000Y-75370000D03*
D12*
X138270000Y-75370000D03*
X135730000Y-77910000D03*
X138270000Y-77910000D03*
X135730000Y-80450000D03*
X138270000Y-80450000D03*
X135730000Y-82990000D03*
X138270000Y-82990000D03*
X135730000Y-85530000D03*
X138270000Y-85530000D03*
X135730000Y-88070000D03*
X138270000Y-88070000D03*
X135730000Y-90610000D03*
X138270000Y-90610000D03*
X135730000Y-93150000D03*
X138270000Y-93150000D03*
X135730000Y-95690000D03*
X138270000Y-95690000D03*
X135730000Y-98230000D03*
X138270000Y-98230000D03*
X135730000Y-100770000D03*
X138270000Y-100770000D03*
X135730000Y-103310000D03*
X138270000Y-103310000D03*
X135730000Y-105850000D03*
X138270000Y-105850000D03*
X135730000Y-108390000D03*
X138270000Y-108390000D03*
X135730000Y-110930000D03*
X138270000Y-110930000D03*
X135730000Y-113470000D03*
X138270000Y-113470000D03*
X135730000Y-116010000D03*
X138270000Y-116010000D03*
X135730000Y-118550000D03*
X138270000Y-118550000D03*
X135730000Y-121090000D03*
X138270000Y-121090000D03*
X135730000Y-123630000D03*
X138270000Y-123630000D03*
%TD*%
M02*
