M48
; DRILL file {KiCad 6.0.2+dfsg-1} date Sat 20 Sep 2025 02:23:52 PM CEST
; FORMAT={-:-/ absolute / metric / decimal}
; #@! TF.CreationDate,2025-09-20T14:23:52+02:00
; #@! TF.GenerationSoftware,Kicad,Pcbnew,6.0.2+dfsg-1
; #@! TF.FileFunction,Plated,1,4,PTH
FMAT,2
METRIC
; #@! TA.AperFunction,Plated,PTH,ComponentDrill
T1C0.200
; #@! TA.AperFunction,Plated,PTH,ViaDrill
T2C0.400
; #@! TA.AperFunction,Plated,PTH,ComponentDrill
T3C0.600
; #@! TA.AperFunction,Plated,PTH,ComponentDrill
T4C1.000
; #@! TA.AperFunction,Plated,PTH,ComponentDrill
T5C3.200
%
G90
G05
T1
X157.045Y-128.7
X157.045Y-130.0
X157.045Y-131.3
X158.955Y-128.7
X158.955Y-130.0
X158.955Y-131.3
T2
X126.0Y-110.5
X126.5Y-85.75
X128.0Y-110.5
X128.0Y-111.75
X128.75Y-90.0
X129.25Y-128.5
X129.75Y-108.25
X131.25Y-83.75
X132.5Y-126.5
X132.5Y-130.5
X133.0Y-80.25
X133.5Y-126.5
X133.5Y-130.5
X134.25Y-80.25
X134.5Y-107.25
X135.5Y-121.25
X135.5Y-122.5
X135.5Y-134.5
X135.5Y-135.75
X136.345Y-98.095
X138.125Y-97.5
X138.5Y-121.25
X138.5Y-122.5
X138.5Y-134.5
X138.5Y-135.75
X139.976Y-103.75
X140.0Y-110.75
X141.762Y-98.0
X143.0Y-100.5
X143.25Y-97.75
X143.5Y-103.0
X143.75Y-93.0
X144.0Y-75.5
X144.25Y-68.5
X145.338Y-102.912
X146.25Y-104.0
X146.75Y-91.5
X147.375Y-95.875
X147.42Y-97.14
X147.75Y-107.25
X148.5Y-86.5
X148.5Y-87.75
X149.0Y-108.25
X149.5Y-95.0
X150.0Y-62.25
X150.25Y-98.75
X150.5Y-108.75
X151.25Y-89.0
X151.25Y-97.75
X151.75Y-99.75
X152.0Y-109.25
X152.5Y-103.5
X154.0Y-65.5
X154.75Y-92.0
X155.25Y-94.75
X155.75Y-101.5
X156.0Y-74.0
X157.775Y-68.475
X159.75Y-125.75
X160.0Y-97.75
X162.0Y-65.5
X162.0Y-132.5
X162.5Y-106.25
X164.0Y-122.75
X165.25Y-133.0
X165.988Y-89.238
X166.25Y-126.5
X166.5Y-71.5
X166.75Y-111.5
X167.0Y-88.5
X167.0Y-101.75
X169.25Y-66.5
T4
X132.5Y-59.0
X132.5Y-136.0
X133.21Y-68.0
X133.225Y-77.25
X135.0Y-85.485
X135.0Y-88.025
X135.75Y-68.0
X135.765Y-77.25
X142.0Y-57.975
X142.0Y-60.515
X142.0Y-63.055
X146.5Y-57.96
X146.5Y-60.5
X146.5Y-63.04
X158.5Y-88.96
X158.5Y-91.5
X158.5Y-94.04
X166.5Y-59.0
X166.5Y-136.0
X170.42Y-73.37
X170.42Y-75.91
X170.42Y-78.45
X170.42Y-80.99
X170.42Y-83.53
X170.42Y-86.07
X170.42Y-88.61
X170.42Y-91.15
X170.42Y-93.69
X170.42Y-96.23
X170.42Y-98.77
X170.42Y-101.31
X170.42Y-103.85
X170.42Y-106.39
X170.42Y-108.93
X170.42Y-111.47
X170.42Y-114.01
X170.42Y-116.55
X170.42Y-119.09
X170.42Y-121.63
X172.96Y-73.37
X172.96Y-75.91
X172.96Y-78.45
X172.96Y-80.99
X172.96Y-83.53
X172.96Y-86.07
X172.96Y-88.61
X172.96Y-91.15
X172.96Y-93.69
X172.96Y-96.23
X172.96Y-98.77
X172.96Y-101.31
X172.96Y-103.85
X172.96Y-106.39
X172.96Y-108.93
X172.96Y-111.47
X172.96Y-114.01
X172.96Y-116.55
X172.96Y-119.09
X172.96Y-121.63
T5
X126.0Y-59.0
X126.0Y-136.0
X173.0Y-59.0
X173.0Y-136.0
T3
X125.25Y-68.18G85X124.65Y-68.18
G05
X125.25Y-76.82G85X124.65Y-76.82
G05
X125.25Y-93.18G85X124.65Y-93.18
G05
X125.25Y-101.82G85X124.65Y-101.82
G05
X129.68Y-68.18G85X128.58Y-68.18
G05
X129.68Y-76.82G85X128.58Y-76.82
G05
X129.68Y-93.18G85X128.58Y-93.18
G05
X129.68Y-101.82G85X128.58Y-101.82
G05
T0
M30
