%TF.GenerationSoftware,KiCad,Pcbnew,(6.0.10)*%
%TF.CreationDate,2023-12-29T21:00:04+01:00*%
%TF.ProjectId,Alchemy,416c6368-656d-4792-9e6b-696361645f70,rev?*%
%TF.SameCoordinates,Original*%
%TF.FileFunction,Copper,L4,Bot*%
%TF.FilePolarity,Positive*%
%FSLAX46Y46*%
G04 Gerber Fmt 4.6, Leading zero omitted, Abs format (unit mm)*
G04 Created by KiCad (PCBNEW (6.0.10)) date 2023-12-29 21:00:04*
%MOMM*%
%LPD*%
G01*
G04 APERTURE LIST*
%TA.AperFunction,ComponentPad*%
%ADD10O,1.600000X1.000000*%
%TD*%
%TA.AperFunction,ComponentPad*%
%ADD11O,2.100000X1.000000*%
%TD*%
%TA.AperFunction,ComponentPad*%
%ADD12C,6.400000*%
%TD*%
%TA.AperFunction,ComponentPad*%
%ADD13R,1.700000X1.700000*%
%TD*%
%TA.AperFunction,ComponentPad*%
%ADD14O,1.700000X1.700000*%
%TD*%
%TA.AperFunction,ComponentPad*%
%ADD15C,1.500000*%
%TD*%
%TA.AperFunction,ComponentPad*%
%ADD16C,0.500000*%
%TD*%
%TA.AperFunction,SMDPad,CuDef*%
%ADD17R,2.410000X3.100000*%
%TD*%
%TA.AperFunction,ViaPad*%
%ADD18C,0.800000*%
%TD*%
G04 APERTURE END LIST*
D10*
X125450000Y-77820000D03*
D11*
X129630000Y-69180000D03*
X129630000Y-77820000D03*
D10*
X125450000Y-69180000D03*
D12*
X126500000Y-137000000D03*
D13*
X170850000Y-74375000D03*
D14*
X173390000Y-74375000D03*
X170850000Y-76915000D03*
X173390000Y-76915000D03*
X170850000Y-79455000D03*
X173390000Y-79455000D03*
X170850000Y-81995000D03*
X173390000Y-81995000D03*
X170850000Y-84535000D03*
X173390000Y-84535000D03*
X170850000Y-87075000D03*
X173390000Y-87075000D03*
X170850000Y-89615000D03*
X173390000Y-89615000D03*
X170850000Y-92155000D03*
X173390000Y-92155000D03*
X170850000Y-94695000D03*
X173390000Y-94695000D03*
X170850000Y-97235000D03*
X173390000Y-97235000D03*
X170850000Y-99775000D03*
X173390000Y-99775000D03*
X170850000Y-102315000D03*
X173390000Y-102315000D03*
X170850000Y-104855000D03*
X173390000Y-104855000D03*
X170850000Y-107395000D03*
X173390000Y-107395000D03*
X170850000Y-109935000D03*
X173390000Y-109935000D03*
X170850000Y-112475000D03*
X173390000Y-112475000D03*
X170850000Y-115015000D03*
X173390000Y-115015000D03*
X170850000Y-117555000D03*
X173390000Y-117555000D03*
X170850000Y-120095000D03*
X173390000Y-120095000D03*
X170850000Y-122635000D03*
X173390000Y-122635000D03*
D15*
X150800000Y-79250000D03*
X155680000Y-79250000D03*
D13*
X142500000Y-58975000D03*
D14*
X142500000Y-61515000D03*
X142500000Y-64055000D03*
D13*
X147000000Y-58960000D03*
D14*
X147000000Y-61500000D03*
X147000000Y-64040000D03*
D10*
X125450000Y-94180000D03*
X125450000Y-102820000D03*
D11*
X129630000Y-102820000D03*
X129630000Y-94180000D03*
D12*
X173500000Y-60000000D03*
D15*
X136050000Y-106500000D03*
X140930000Y-106500000D03*
D12*
X173500000Y-137000000D03*
D16*
X158545000Y-129700000D03*
X158545000Y-132300000D03*
D17*
X159500000Y-131000000D03*
D16*
X158545000Y-131000000D03*
X160455000Y-131000000D03*
X160455000Y-129700000D03*
X160455000Y-132300000D03*
D12*
X126500000Y-60000000D03*
D18*
X154250000Y-94500000D03*
X158275000Y-69475000D03*
X143500000Y-102750000D03*
X167000000Y-72500000D03*
X146000000Y-94250000D03*
X140000000Y-71750000D03*
X152500000Y-69500000D03*
X146250000Y-77250000D03*
X139500000Y-103250000D03*
X154750000Y-103250000D03*
X142262299Y-99000000D03*
X143750000Y-98750000D03*
X150750000Y-99750000D03*
X152250000Y-100750000D03*
X145837500Y-103912500D03*
X146750000Y-105000000D03*
X148250000Y-108250000D03*
X149500000Y-109250000D03*
X151000000Y-109750000D03*
X152500000Y-110250000D03*
X160500000Y-98750000D03*
X147875000Y-96875000D03*
X136844670Y-99094670D03*
X147920091Y-98139865D03*
X138625000Y-98500000D03*
X149500000Y-96000000D03*
X169750000Y-67500000D03*
X151750000Y-98750000D03*
X152793750Y-62206250D03*
X158130862Y-97630862D03*
X150750000Y-86000000D03*
X151762051Y-87012051D03*
X157512299Y-96512299D03*
X136000000Y-123500000D03*
X160750000Y-123750000D03*
X138500000Y-108500000D03*
X139000000Y-123500000D03*
X139000000Y-135500000D03*
X129750000Y-129500000D03*
X163750000Y-135500000D03*
X127750000Y-114750000D03*
X130750000Y-109250000D03*
X162500000Y-66500000D03*
X162250000Y-134000000D03*
X139000000Y-122250000D03*
X167250000Y-135500000D03*
X136000000Y-122250000D03*
X153250000Y-81250000D03*
X146250000Y-81250000D03*
X147250000Y-92500000D03*
X139500000Y-100250000D03*
X126337500Y-128162500D03*
X139500000Y-77000000D03*
X134000000Y-59000000D03*
X156500000Y-75000000D03*
X165500000Y-123750000D03*
X156000000Y-94500000D03*
X154500000Y-66500000D03*
X136000000Y-136750000D03*
X136000000Y-135500000D03*
X153000000Y-104500000D03*
X142500000Y-101500000D03*
X139000000Y-136750000D03*
X125500000Y-113500000D03*
X137500000Y-60500000D03*
X125500000Y-112250000D03*
X126500000Y-120000000D03*
X126500000Y-121250000D03*
X138750000Y-60500000D03*
%TA.AperFunction,Conductor*%
G36*
X163000000Y-133500000D02*
G01*
X156000000Y-133500000D01*
X156000000Y-128500000D01*
X163000000Y-128500000D01*
X163000000Y-133500000D01*
G37*
%TD.AperFunction*%
%TA.AperFunction,Conductor*%
G36*
X124728176Y-56528502D02*
G01*
X124774669Y-56582158D01*
X124784773Y-56652432D01*
X124755279Y-56717012D01*
X124717258Y-56746767D01*
X124646397Y-56782872D01*
X124640687Y-56786169D01*
X124320268Y-56994251D01*
X124314938Y-56998123D01*
X124112111Y-57162369D01*
X124103645Y-57174624D01*
X124109979Y-57185715D01*
X126487188Y-59562924D01*
X126501132Y-59570538D01*
X126502965Y-59570407D01*
X126509580Y-59566156D01*
X128889155Y-57186581D01*
X128896295Y-57173505D01*
X128888837Y-57163137D01*
X128685057Y-56998120D01*
X128679735Y-56994253D01*
X128359315Y-56786170D01*
X128353606Y-56782874D01*
X128282743Y-56746767D01*
X128231128Y-56698019D01*
X128214062Y-56629104D01*
X128236963Y-56561902D01*
X128292560Y-56517750D01*
X128339946Y-56508500D01*
X171660055Y-56508500D01*
X171728176Y-56528502D01*
X171774669Y-56582158D01*
X171784773Y-56652432D01*
X171755279Y-56717012D01*
X171717258Y-56746767D01*
X171646397Y-56782872D01*
X171640687Y-56786169D01*
X171320268Y-56994251D01*
X171314938Y-56998123D01*
X171112111Y-57162369D01*
X171103645Y-57174624D01*
X171109979Y-57185715D01*
X173487188Y-59562924D01*
X173501132Y-59570538D01*
X173502965Y-59570407D01*
X173509580Y-59566156D01*
X175889155Y-57186581D01*
X175896295Y-57173505D01*
X175888837Y-57163137D01*
X175685057Y-56998120D01*
X175679735Y-56994253D01*
X175359315Y-56786170D01*
X175353606Y-56782874D01*
X175282743Y-56746767D01*
X175231128Y-56698019D01*
X175214062Y-56629104D01*
X175236963Y-56561902D01*
X175292560Y-56517750D01*
X175339946Y-56508500D01*
X176865500Y-56508500D01*
X176933621Y-56528502D01*
X176980114Y-56582158D01*
X176991500Y-56634500D01*
X176991500Y-58160055D01*
X176971498Y-58228176D01*
X176917842Y-58274669D01*
X176847568Y-58284773D01*
X176782988Y-58255279D01*
X176753233Y-58217258D01*
X176717128Y-58146397D01*
X176713831Y-58140687D01*
X176505749Y-57820268D01*
X176501877Y-57814938D01*
X176337631Y-57612111D01*
X176325376Y-57603645D01*
X176314285Y-57609979D01*
X173937076Y-59987188D01*
X173929462Y-60001132D01*
X173929593Y-60002965D01*
X173933844Y-60009580D01*
X176313419Y-62389155D01*
X176326495Y-62396295D01*
X176336863Y-62388837D01*
X176501877Y-62185062D01*
X176505749Y-62179732D01*
X176713831Y-61859313D01*
X176717128Y-61853603D01*
X176753233Y-61782742D01*
X176801981Y-61731127D01*
X176870896Y-61714061D01*
X176938098Y-61736962D01*
X176982250Y-61792559D01*
X176991500Y-61839945D01*
X176991500Y-135160055D01*
X176971498Y-135228176D01*
X176917842Y-135274669D01*
X176847568Y-135284773D01*
X176782988Y-135255279D01*
X176753233Y-135217258D01*
X176717128Y-135146397D01*
X176713831Y-135140687D01*
X176505749Y-134820268D01*
X176501877Y-134814938D01*
X176337631Y-134612111D01*
X176325376Y-134603645D01*
X176314285Y-134609979D01*
X173937076Y-136987188D01*
X173929462Y-137001132D01*
X173929593Y-137002965D01*
X173933844Y-137009580D01*
X176313419Y-139389155D01*
X176326495Y-139396295D01*
X176336863Y-139388837D01*
X176501877Y-139185062D01*
X176505749Y-139179732D01*
X176713831Y-138859313D01*
X176717128Y-138853603D01*
X176753233Y-138782742D01*
X176801981Y-138731127D01*
X176870896Y-138714061D01*
X176938098Y-138736962D01*
X176982250Y-138792559D01*
X176991500Y-138839945D01*
X176991500Y-140365500D01*
X176971498Y-140433621D01*
X176917842Y-140480114D01*
X176865500Y-140491500D01*
X175339946Y-140491500D01*
X175271825Y-140471498D01*
X175225332Y-140417842D01*
X175215228Y-140347568D01*
X175244722Y-140282988D01*
X175282743Y-140253233D01*
X175353606Y-140217126D01*
X175359315Y-140213830D01*
X175679735Y-140005747D01*
X175685057Y-140001880D01*
X175887889Y-139837631D01*
X175896355Y-139825376D01*
X175890021Y-139814285D01*
X173512812Y-137437076D01*
X173498868Y-137429462D01*
X173497035Y-137429593D01*
X173490420Y-137433844D01*
X171110845Y-139813419D01*
X171103705Y-139826495D01*
X171111163Y-139836863D01*
X171314943Y-140001880D01*
X171320265Y-140005747D01*
X171640685Y-140213830D01*
X171646394Y-140217126D01*
X171717257Y-140253233D01*
X171768872Y-140301981D01*
X171785938Y-140370896D01*
X171763037Y-140438098D01*
X171707440Y-140482250D01*
X171660054Y-140491500D01*
X128339946Y-140491500D01*
X128271825Y-140471498D01*
X128225332Y-140417842D01*
X128215228Y-140347568D01*
X128244722Y-140282988D01*
X128282743Y-140253233D01*
X128353606Y-140217126D01*
X128359315Y-140213830D01*
X128679735Y-140005747D01*
X128685057Y-140001880D01*
X128887889Y-139837631D01*
X128896355Y-139825376D01*
X128890021Y-139814285D01*
X126512812Y-137437076D01*
X126498868Y-137429462D01*
X126497035Y-137429593D01*
X126490420Y-137433844D01*
X124110845Y-139813419D01*
X124103705Y-139826495D01*
X124111163Y-139836863D01*
X124314943Y-140001880D01*
X124320265Y-140005747D01*
X124640685Y-140213830D01*
X124646394Y-140217126D01*
X124717257Y-140253233D01*
X124768872Y-140301981D01*
X124785938Y-140370896D01*
X124763037Y-140438098D01*
X124707440Y-140482250D01*
X124660054Y-140491500D01*
X123134500Y-140491500D01*
X123066379Y-140471498D01*
X123019886Y-140417842D01*
X123008500Y-140365500D01*
X123008500Y-138839945D01*
X123028502Y-138771824D01*
X123082158Y-138725331D01*
X123152432Y-138715227D01*
X123217012Y-138744721D01*
X123246767Y-138782742D01*
X123282872Y-138853603D01*
X123286169Y-138859313D01*
X123494251Y-139179732D01*
X123498123Y-139185062D01*
X123662369Y-139387889D01*
X123674624Y-139396355D01*
X123685715Y-139390021D01*
X126062924Y-137012812D01*
X126069302Y-137001132D01*
X126929462Y-137001132D01*
X126929593Y-137002965D01*
X126933844Y-137009580D01*
X129313419Y-139389155D01*
X129326495Y-139396295D01*
X129336863Y-139388837D01*
X129501877Y-139185062D01*
X129505749Y-139179732D01*
X129713831Y-138859313D01*
X129717128Y-138853603D01*
X129890578Y-138513189D01*
X129893260Y-138507164D01*
X130030171Y-138150498D01*
X130032212Y-138144216D01*
X130131094Y-137775184D01*
X130132465Y-137768734D01*
X130192234Y-137391371D01*
X130192920Y-137384833D01*
X130212916Y-137003301D01*
X169787084Y-137003301D01*
X169807080Y-137384833D01*
X169807766Y-137391371D01*
X169867535Y-137768734D01*
X169868906Y-137775184D01*
X169967788Y-138144216D01*
X169969829Y-138150498D01*
X170106740Y-138507164D01*
X170109422Y-138513189D01*
X170282872Y-138853603D01*
X170286169Y-138859313D01*
X170494251Y-139179732D01*
X170498123Y-139185062D01*
X170662369Y-139387889D01*
X170674624Y-139396355D01*
X170685715Y-139390021D01*
X173062924Y-137012812D01*
X173070538Y-136998868D01*
X173070407Y-136997035D01*
X173066156Y-136990420D01*
X170686581Y-134610845D01*
X170673505Y-134603705D01*
X170663137Y-134611163D01*
X170498123Y-134814938D01*
X170494251Y-134820268D01*
X170286169Y-135140687D01*
X170282872Y-135146397D01*
X170109422Y-135486811D01*
X170106740Y-135492836D01*
X169969829Y-135849502D01*
X169967788Y-135855784D01*
X169868906Y-136224816D01*
X169867535Y-136231266D01*
X169807766Y-136608629D01*
X169807080Y-136615167D01*
X169787084Y-136996699D01*
X169787084Y-137003301D01*
X130212916Y-137003301D01*
X130212916Y-136996699D01*
X130192920Y-136615167D01*
X130192234Y-136608629D01*
X130132465Y-136231266D01*
X130131094Y-136224816D01*
X130032212Y-135855784D01*
X130030171Y-135849502D01*
X129893260Y-135492836D01*
X129890578Y-135486811D01*
X129717128Y-135146397D01*
X129713831Y-135140687D01*
X129505749Y-134820268D01*
X129501877Y-134814938D01*
X129337631Y-134612111D01*
X129325376Y-134603645D01*
X129314285Y-134609979D01*
X126937076Y-136987188D01*
X126929462Y-137001132D01*
X126069302Y-137001132D01*
X126070538Y-136998868D01*
X126070407Y-136997035D01*
X126066156Y-136990420D01*
X123686581Y-134610845D01*
X123673505Y-134603705D01*
X123663137Y-134611163D01*
X123498123Y-134814938D01*
X123494251Y-134820268D01*
X123286169Y-135140687D01*
X123282872Y-135146397D01*
X123246767Y-135217258D01*
X123198019Y-135268873D01*
X123129104Y-135285939D01*
X123061902Y-135263038D01*
X123017750Y-135207441D01*
X123008500Y-135160055D01*
X123008500Y-134174624D01*
X124103645Y-134174624D01*
X124109979Y-134185715D01*
X126487188Y-136562924D01*
X126501132Y-136570538D01*
X126502965Y-136570407D01*
X126509580Y-136566156D01*
X128889155Y-134186581D01*
X128895684Y-134174624D01*
X171103645Y-134174624D01*
X171109979Y-134185715D01*
X173487188Y-136562924D01*
X173501132Y-136570538D01*
X173502965Y-136570407D01*
X173509580Y-136566156D01*
X175889155Y-134186581D01*
X175896295Y-134173505D01*
X175888837Y-134163137D01*
X175685057Y-133998120D01*
X175679735Y-133994253D01*
X175359315Y-133786170D01*
X175353606Y-133782873D01*
X175013189Y-133609422D01*
X175007164Y-133606740D01*
X174650498Y-133469829D01*
X174644216Y-133467788D01*
X174275184Y-133368906D01*
X174268734Y-133367535D01*
X173891371Y-133307766D01*
X173884833Y-133307080D01*
X173503301Y-133287084D01*
X173496699Y-133287084D01*
X173115167Y-133307080D01*
X173108629Y-133307766D01*
X172731266Y-133367535D01*
X172724816Y-133368906D01*
X172355784Y-133467788D01*
X172349502Y-133469829D01*
X171992836Y-133606740D01*
X171986811Y-133609422D01*
X171646397Y-133782872D01*
X171640687Y-133786169D01*
X171320268Y-133994251D01*
X171314938Y-133998123D01*
X171112111Y-134162369D01*
X171103645Y-134174624D01*
X128895684Y-134174624D01*
X128896295Y-134173505D01*
X128888837Y-134163137D01*
X128685057Y-133998120D01*
X128679735Y-133994253D01*
X128359315Y-133786170D01*
X128353606Y-133782873D01*
X128013189Y-133609422D01*
X128007164Y-133606740D01*
X127650498Y-133469829D01*
X127644216Y-133467788D01*
X127275184Y-133368906D01*
X127268734Y-133367535D01*
X126891371Y-133307766D01*
X126884833Y-133307080D01*
X126503301Y-133287084D01*
X126496699Y-133287084D01*
X126115167Y-133307080D01*
X126108629Y-133307766D01*
X125731266Y-133367535D01*
X125724816Y-133368906D01*
X125355784Y-133467788D01*
X125349502Y-133469829D01*
X124992836Y-133606740D01*
X124986811Y-133609422D01*
X124646397Y-133782872D01*
X124640687Y-133786169D01*
X124320268Y-133994251D01*
X124314938Y-133998123D01*
X124112111Y-134162369D01*
X124103645Y-134174624D01*
X123008500Y-134174624D01*
X123008500Y-132296362D01*
X157782966Y-132296362D01*
X157786400Y-132331388D01*
X157787001Y-132343684D01*
X157787001Y-132594669D01*
X157787371Y-132601490D01*
X157792895Y-132652352D01*
X157796521Y-132667604D01*
X157841676Y-132788054D01*
X157850214Y-132803649D01*
X157926715Y-132905724D01*
X157939276Y-132918285D01*
X158041351Y-132994786D01*
X158056946Y-133003324D01*
X158177394Y-133048478D01*
X158192649Y-133052105D01*
X158243514Y-133057631D01*
X158250328Y-133058000D01*
X158485965Y-133058000D01*
X158502629Y-133059107D01*
X158522044Y-133061697D01*
X158536040Y-133061991D01*
X158574186Y-133058519D01*
X158585606Y-133058000D01*
X159181885Y-133058000D01*
X159197124Y-133053525D01*
X159198329Y-133052135D01*
X159200000Y-133044452D01*
X159200000Y-133039884D01*
X159800000Y-133039884D01*
X159804475Y-133055123D01*
X159805865Y-133056328D01*
X159813548Y-133057999D01*
X160395957Y-133057999D01*
X160412622Y-133059106D01*
X160432044Y-133061698D01*
X160446040Y-133061991D01*
X160484195Y-133058518D01*
X160495615Y-133057999D01*
X160749669Y-133057999D01*
X160756490Y-133057629D01*
X160807352Y-133052105D01*
X160822604Y-133048479D01*
X160943054Y-133003324D01*
X160958649Y-132994786D01*
X161060724Y-132918285D01*
X161073285Y-132905724D01*
X161149786Y-132803649D01*
X161158324Y-132788054D01*
X161203478Y-132667606D01*
X161207105Y-132652351D01*
X161212631Y-132601486D01*
X161213000Y-132594672D01*
X161213000Y-132362124D01*
X161214226Y-132344588D01*
X161216948Y-132325222D01*
X161217554Y-132317338D01*
X161217741Y-132303962D01*
X161217354Y-132296062D01*
X161213785Y-132264241D01*
X161213000Y-132250196D01*
X161213000Y-131318115D01*
X161208525Y-131302876D01*
X161207135Y-131301671D01*
X161199452Y-131300000D01*
X159818115Y-131300000D01*
X159802876Y-131304475D01*
X159801671Y-131305865D01*
X159800000Y-131313548D01*
X159800000Y-133039884D01*
X159200000Y-133039884D01*
X159200000Y-131318115D01*
X159195525Y-131302876D01*
X159194135Y-131301671D01*
X159186452Y-131300000D01*
X157805116Y-131300000D01*
X157789877Y-131304475D01*
X157788672Y-131305865D01*
X157787001Y-131313548D01*
X157787001Y-132244040D01*
X157786007Y-132259833D01*
X157783162Y-132282356D01*
X157782966Y-132296362D01*
X123008500Y-132296362D01*
X123008500Y-129696363D01*
X157782966Y-129696363D01*
X157786399Y-129731379D01*
X157787000Y-129743675D01*
X157787000Y-130681885D01*
X157791475Y-130697124D01*
X157792865Y-130698329D01*
X157800548Y-130700000D01*
X159181885Y-130700000D01*
X159197124Y-130695525D01*
X159198329Y-130694135D01*
X159200000Y-130686452D01*
X159200000Y-130681885D01*
X159800000Y-130681885D01*
X159804475Y-130697124D01*
X159805865Y-130698329D01*
X159813548Y-130700000D01*
X161194884Y-130700000D01*
X161210123Y-130695525D01*
X161211328Y-130694135D01*
X161212999Y-130686452D01*
X161212999Y-129762130D01*
X161214225Y-129744593D01*
X161216948Y-129725219D01*
X161217554Y-129717340D01*
X161217741Y-129703962D01*
X161217354Y-129696062D01*
X161213784Y-129664233D01*
X161212999Y-129650188D01*
X161212999Y-129405331D01*
X161212629Y-129398510D01*
X161207105Y-129347648D01*
X161203479Y-129332396D01*
X161158324Y-129211946D01*
X161149786Y-129196351D01*
X161073285Y-129094276D01*
X161060724Y-129081715D01*
X160958649Y-129005214D01*
X160943054Y-128996676D01*
X160822606Y-128951522D01*
X160807351Y-128947895D01*
X160756486Y-128942369D01*
X160749672Y-128942000D01*
X160507875Y-128942000D01*
X160492957Y-128941114D01*
X160467318Y-128938057D01*
X160453320Y-128937959D01*
X160421437Y-128941310D01*
X160408267Y-128942000D01*
X159818115Y-128942000D01*
X159802876Y-128946475D01*
X159801671Y-128947865D01*
X159800000Y-128955548D01*
X159800000Y-130681885D01*
X159200000Y-130681885D01*
X159200000Y-128960116D01*
X159195525Y-128944877D01*
X159194135Y-128943672D01*
X159186452Y-128942001D01*
X158597883Y-128942001D01*
X158582964Y-128941115D01*
X158557318Y-128938057D01*
X158543321Y-128937959D01*
X158511430Y-128941311D01*
X158498260Y-128942001D01*
X158250331Y-128942001D01*
X158243510Y-128942371D01*
X158192648Y-128947895D01*
X158177396Y-128951521D01*
X158056946Y-128996676D01*
X158041351Y-129005214D01*
X157939276Y-129081715D01*
X157926715Y-129094276D01*
X157850214Y-129196351D01*
X157841676Y-129211946D01*
X157796522Y-129332394D01*
X157792895Y-129347649D01*
X157787369Y-129398514D01*
X157787000Y-129405328D01*
X157787000Y-129644047D01*
X157786007Y-129659839D01*
X157783161Y-129682364D01*
X157782966Y-129696363D01*
X123008500Y-129696363D01*
X123008500Y-122601695D01*
X169487251Y-122601695D01*
X169487548Y-122606848D01*
X169487548Y-122606851D01*
X169493011Y-122701590D01*
X169500110Y-122824715D01*
X169501247Y-122829761D01*
X169501248Y-122829767D01*
X169521119Y-122917939D01*
X169549222Y-123042639D01*
X169633266Y-123249616D01*
X169684019Y-123332438D01*
X169747291Y-123435688D01*
X169749987Y-123440088D01*
X169896250Y-123608938D01*
X170068126Y-123751632D01*
X170261000Y-123864338D01*
X170469692Y-123944030D01*
X170474760Y-123945061D01*
X170474763Y-123945062D01*
X170582017Y-123966883D01*
X170688597Y-123988567D01*
X170693772Y-123988757D01*
X170693774Y-123988757D01*
X170906673Y-123996564D01*
X170906677Y-123996564D01*
X170911837Y-123996753D01*
X170916957Y-123996097D01*
X170916959Y-123996097D01*
X171128288Y-123969025D01*
X171128289Y-123969025D01*
X171133416Y-123968368D01*
X171138366Y-123966883D01*
X171342429Y-123905661D01*
X171342434Y-123905659D01*
X171347384Y-123904174D01*
X171547994Y-123805896D01*
X171729860Y-123676173D01*
X171888096Y-123518489D01*
X171947594Y-123435689D01*
X172018453Y-123337077D01*
X172019776Y-123338028D01*
X172066645Y-123294857D01*
X172136580Y-123282625D01*
X172202026Y-123310144D01*
X172229875Y-123341994D01*
X172289987Y-123440088D01*
X172436250Y-123608938D01*
X172608126Y-123751632D01*
X172801000Y-123864338D01*
X173009692Y-123944030D01*
X173014760Y-123945061D01*
X173014763Y-123945062D01*
X173122017Y-123966883D01*
X173228597Y-123988567D01*
X173233772Y-123988757D01*
X173233774Y-123988757D01*
X173446673Y-123996564D01*
X173446677Y-123996564D01*
X173451837Y-123996753D01*
X173456957Y-123996097D01*
X173456959Y-123996097D01*
X173668288Y-123969025D01*
X173668289Y-123969025D01*
X173673416Y-123968368D01*
X173678366Y-123966883D01*
X173882429Y-123905661D01*
X173882434Y-123905659D01*
X173887384Y-123904174D01*
X174087994Y-123805896D01*
X174269860Y-123676173D01*
X174428096Y-123518489D01*
X174487594Y-123435689D01*
X174555435Y-123341277D01*
X174558453Y-123337077D01*
X174579320Y-123294857D01*
X174655136Y-123141453D01*
X174655137Y-123141451D01*
X174657430Y-123136811D01*
X174722370Y-122923069D01*
X174751529Y-122701590D01*
X174753156Y-122635000D01*
X174734852Y-122412361D01*
X174680431Y-122195702D01*
X174591354Y-121990840D01*
X174470014Y-121803277D01*
X174319670Y-121638051D01*
X174315619Y-121634852D01*
X174315615Y-121634848D01*
X174148414Y-121502800D01*
X174148410Y-121502798D01*
X174144359Y-121499598D01*
X174102569Y-121476529D01*
X174052598Y-121426097D01*
X174037826Y-121356654D01*
X174062942Y-121290248D01*
X174090294Y-121263641D01*
X174265328Y-121138792D01*
X174273200Y-121132139D01*
X174424052Y-120981812D01*
X174430730Y-120973965D01*
X174555003Y-120801020D01*
X174560313Y-120792183D01*
X174654670Y-120601267D01*
X174658469Y-120591672D01*
X174712957Y-120412333D01*
X174713089Y-120398233D01*
X174706182Y-120395000D01*
X169543592Y-120395000D01*
X169530061Y-120398973D01*
X169528624Y-120408966D01*
X169548565Y-120497446D01*
X169551645Y-120507275D01*
X169631770Y-120704603D01*
X169636413Y-120713794D01*
X169747694Y-120895388D01*
X169753777Y-120903699D01*
X169893213Y-121064667D01*
X169900580Y-121071883D01*
X170064434Y-121207916D01*
X170072881Y-121213831D01*
X170141969Y-121254203D01*
X170190693Y-121305842D01*
X170203764Y-121375625D01*
X170177033Y-121441396D01*
X170136584Y-121474752D01*
X170123607Y-121481507D01*
X170119474Y-121484610D01*
X170119471Y-121484612D01*
X170095247Y-121502800D01*
X169944965Y-121615635D01*
X169790629Y-121777138D01*
X169664743Y-121961680D01*
X169649003Y-121995590D01*
X169573383Y-122158500D01*
X169570688Y-122164305D01*
X169510989Y-122379570D01*
X169487251Y-122601695D01*
X123008500Y-122601695D01*
X123008500Y-121250000D01*
X125586496Y-121250000D01*
X125587186Y-121256565D01*
X125601383Y-121391638D01*
X125606458Y-121439928D01*
X125665473Y-121621556D01*
X125760960Y-121786944D01*
X125888747Y-121928866D01*
X126043248Y-122041118D01*
X126049276Y-122043802D01*
X126049278Y-122043803D01*
X126211681Y-122116109D01*
X126217712Y-122118794D01*
X126311113Y-122138647D01*
X126398056Y-122157128D01*
X126398061Y-122157128D01*
X126404513Y-122158500D01*
X126595487Y-122158500D01*
X126601939Y-122157128D01*
X126601944Y-122157128D01*
X126688887Y-122138647D01*
X126782288Y-122118794D01*
X126788319Y-122116109D01*
X126950722Y-122043803D01*
X126950724Y-122043802D01*
X126956752Y-122041118D01*
X127111253Y-121928866D01*
X127239040Y-121786944D01*
X127334527Y-121621556D01*
X127393542Y-121439928D01*
X127398618Y-121391638D01*
X127412814Y-121256565D01*
X127413504Y-121250000D01*
X127401816Y-121138792D01*
X127394232Y-121066635D01*
X127394232Y-121066633D01*
X127393542Y-121060072D01*
X127334527Y-120878444D01*
X127239040Y-120713056D01*
X127234620Y-120708148D01*
X127230741Y-120702808D01*
X127232080Y-120701835D01*
X127204950Y-120645304D01*
X127213713Y-120574851D01*
X127231250Y-120547562D01*
X127230741Y-120547192D01*
X127234620Y-120541852D01*
X127239040Y-120536944D01*
X127334527Y-120371556D01*
X127393542Y-120189928D01*
X127413504Y-120000000D01*
X127393542Y-119810072D01*
X127334527Y-119628444D01*
X127239040Y-119463056D01*
X127198156Y-119417649D01*
X127115675Y-119326045D01*
X127115674Y-119326044D01*
X127111253Y-119321134D01*
X126956752Y-119208882D01*
X126950724Y-119206198D01*
X126950722Y-119206197D01*
X126788319Y-119133891D01*
X126788318Y-119133891D01*
X126782288Y-119131206D01*
X126688888Y-119111353D01*
X126601944Y-119092872D01*
X126601939Y-119092872D01*
X126595487Y-119091500D01*
X126404513Y-119091500D01*
X126398061Y-119092872D01*
X126398056Y-119092872D01*
X126311112Y-119111353D01*
X126217712Y-119131206D01*
X126211682Y-119133891D01*
X126211681Y-119133891D01*
X126049278Y-119206197D01*
X126049276Y-119206198D01*
X126043248Y-119208882D01*
X125888747Y-119321134D01*
X125884326Y-119326044D01*
X125884325Y-119326045D01*
X125801845Y-119417649D01*
X125760960Y-119463056D01*
X125665473Y-119628444D01*
X125606458Y-119810072D01*
X125586496Y-120000000D01*
X125606458Y-120189928D01*
X125665473Y-120371556D01*
X125760960Y-120536944D01*
X125765380Y-120541852D01*
X125769259Y-120547192D01*
X125767920Y-120548165D01*
X125795050Y-120604696D01*
X125786287Y-120675149D01*
X125768750Y-120702438D01*
X125769259Y-120702808D01*
X125765380Y-120708148D01*
X125760960Y-120713056D01*
X125665473Y-120878444D01*
X125606458Y-121060072D01*
X125605768Y-121066633D01*
X125605768Y-121066635D01*
X125598184Y-121138792D01*
X125586496Y-121250000D01*
X123008500Y-121250000D01*
X123008500Y-117521695D01*
X169487251Y-117521695D01*
X169487548Y-117526848D01*
X169487548Y-117526851D01*
X169493011Y-117621590D01*
X169500110Y-117744715D01*
X169501247Y-117749761D01*
X169501248Y-117749767D01*
X169521119Y-117837939D01*
X169549222Y-117962639D01*
X169633266Y-118169616D01*
X169684019Y-118252438D01*
X169747291Y-118355688D01*
X169749987Y-118360088D01*
X169896250Y-118528938D01*
X170068126Y-118671632D01*
X170141955Y-118714774D01*
X170190679Y-118766412D01*
X170203750Y-118836195D01*
X170177019Y-118901967D01*
X170136562Y-118935327D01*
X170128457Y-118939546D01*
X170119738Y-118945036D01*
X169949433Y-119072905D01*
X169941726Y-119079748D01*
X169794590Y-119233717D01*
X169788104Y-119241727D01*
X169668098Y-119417649D01*
X169663000Y-119426623D01*
X169573338Y-119619783D01*
X169569775Y-119629470D01*
X169528711Y-119777540D01*
X169528924Y-119791644D01*
X169536575Y-119795000D01*
X174696789Y-119795000D01*
X174710320Y-119791027D01*
X174711625Y-119781947D01*
X174681214Y-119660875D01*
X174677894Y-119651124D01*
X174592972Y-119455814D01*
X174588105Y-119446739D01*
X174472426Y-119267926D01*
X174466136Y-119259757D01*
X174322806Y-119102240D01*
X174315273Y-119095215D01*
X174148139Y-118963222D01*
X174139556Y-118957520D01*
X174102602Y-118937120D01*
X174052631Y-118886687D01*
X174037859Y-118817245D01*
X174062975Y-118750839D01*
X174090327Y-118724232D01*
X174113797Y-118707491D01*
X174269860Y-118596173D01*
X174428096Y-118438489D01*
X174487594Y-118355689D01*
X174555435Y-118261277D01*
X174558453Y-118257077D01*
X174579320Y-118214857D01*
X174655136Y-118061453D01*
X174655137Y-118061451D01*
X174657430Y-118056811D01*
X174722370Y-117843069D01*
X174751529Y-117621590D01*
X174753156Y-117555000D01*
X174734852Y-117332361D01*
X174680431Y-117115702D01*
X174591354Y-116910840D01*
X174470014Y-116723277D01*
X174319670Y-116558051D01*
X174315619Y-116554852D01*
X174315615Y-116554848D01*
X174148414Y-116422800D01*
X174148410Y-116422798D01*
X174144359Y-116419598D01*
X174103053Y-116396796D01*
X174053084Y-116346364D01*
X174038312Y-116276921D01*
X174063428Y-116210516D01*
X174090780Y-116183909D01*
X174134603Y-116152650D01*
X174269860Y-116056173D01*
X174428096Y-115898489D01*
X174487594Y-115815689D01*
X174555435Y-115721277D01*
X174558453Y-115717077D01*
X174579320Y-115674857D01*
X174655136Y-115521453D01*
X174655137Y-115521451D01*
X174657430Y-115516811D01*
X174722370Y-115303069D01*
X174751529Y-115081590D01*
X174753156Y-115015000D01*
X174734852Y-114792361D01*
X174680431Y-114575702D01*
X174591354Y-114370840D01*
X174470014Y-114183277D01*
X174319670Y-114018051D01*
X174315619Y-114014852D01*
X174315615Y-114014848D01*
X174148414Y-113882800D01*
X174148410Y-113882798D01*
X174144359Y-113879598D01*
X174103053Y-113856796D01*
X174053084Y-113806364D01*
X174038312Y-113736921D01*
X174063428Y-113670516D01*
X174090780Y-113643909D01*
X174134603Y-113612650D01*
X174269860Y-113516173D01*
X174428096Y-113358489D01*
X174487594Y-113275689D01*
X174555435Y-113181277D01*
X174558453Y-113177077D01*
X174579320Y-113134857D01*
X174655136Y-112981453D01*
X174655137Y-112981451D01*
X174657430Y-112976811D01*
X174689900Y-112869940D01*
X174720865Y-112768023D01*
X174720865Y-112768021D01*
X174722370Y-112763069D01*
X174751529Y-112541590D01*
X174753156Y-112475000D01*
X174734852Y-112252361D01*
X174680431Y-112035702D01*
X174591354Y-111830840D01*
X174470014Y-111643277D01*
X174319670Y-111478051D01*
X174315619Y-111474852D01*
X174315615Y-111474848D01*
X174148414Y-111342800D01*
X174148410Y-111342798D01*
X174144359Y-111339598D01*
X174103053Y-111316796D01*
X174053084Y-111266364D01*
X174038312Y-111196921D01*
X174063428Y-111130516D01*
X174090780Y-111103909D01*
X174134603Y-111072650D01*
X174269860Y-110976173D01*
X174428096Y-110818489D01*
X174487594Y-110735689D01*
X174555435Y-110641277D01*
X174558453Y-110637077D01*
X174563296Y-110627279D01*
X174655136Y-110441453D01*
X174655137Y-110441451D01*
X174657430Y-110436811D01*
X174702963Y-110286944D01*
X174720865Y-110228023D01*
X174720865Y-110228021D01*
X174722370Y-110223069D01*
X174751529Y-110001590D01*
X174753156Y-109935000D01*
X174734852Y-109712361D01*
X174680431Y-109495702D01*
X174591354Y-109290840D01*
X174537858Y-109208148D01*
X174472822Y-109107617D01*
X174472820Y-109107614D01*
X174470014Y-109103277D01*
X174319670Y-108938051D01*
X174315619Y-108934852D01*
X174315615Y-108934848D01*
X174148414Y-108802800D01*
X174148410Y-108802798D01*
X174144359Y-108799598D01*
X174103053Y-108776796D01*
X174053084Y-108726364D01*
X174038312Y-108656921D01*
X174063428Y-108590516D01*
X174090780Y-108563909D01*
X174134603Y-108532650D01*
X174269860Y-108436173D01*
X174325020Y-108381206D01*
X174364864Y-108341500D01*
X174428096Y-108278489D01*
X174487594Y-108195689D01*
X174555435Y-108101277D01*
X174558453Y-108097077D01*
X174573499Y-108066635D01*
X174655136Y-107901453D01*
X174655137Y-107901451D01*
X174657430Y-107896811D01*
X174713259Y-107713056D01*
X174720865Y-107688023D01*
X174720865Y-107688021D01*
X174722370Y-107683069D01*
X174751529Y-107461590D01*
X174753156Y-107395000D01*
X174734852Y-107172361D01*
X174680431Y-106955702D01*
X174591354Y-106750840D01*
X174470014Y-106563277D01*
X174319670Y-106398051D01*
X174315619Y-106394852D01*
X174315615Y-106394848D01*
X174148414Y-106262800D01*
X174148410Y-106262798D01*
X174144359Y-106259598D01*
X174103053Y-106236796D01*
X174053084Y-106186364D01*
X174038312Y-106116921D01*
X174063428Y-106050516D01*
X174090780Y-106023909D01*
X174134603Y-105992650D01*
X174269860Y-105896173D01*
X174297784Y-105868347D01*
X174424435Y-105742137D01*
X174428096Y-105738489D01*
X174467204Y-105684065D01*
X174555435Y-105561277D01*
X174558453Y-105557077D01*
X174568404Y-105536944D01*
X174655136Y-105361453D01*
X174655137Y-105361451D01*
X174657430Y-105356811D01*
X174722370Y-105143069D01*
X174751529Y-104921590D01*
X174753156Y-104855000D01*
X174734852Y-104632361D01*
X174680431Y-104415702D01*
X174591354Y-104210840D01*
X174514170Y-104091532D01*
X174472822Y-104027617D01*
X174472820Y-104027614D01*
X174470014Y-104023277D01*
X174319670Y-103858051D01*
X174315619Y-103854852D01*
X174315615Y-103854848D01*
X174148414Y-103722800D01*
X174148410Y-103722798D01*
X174144359Y-103719598D01*
X174103053Y-103696796D01*
X174053084Y-103646364D01*
X174038312Y-103576921D01*
X174063428Y-103510516D01*
X174090780Y-103483909D01*
X174152439Y-103439928D01*
X174269860Y-103356173D01*
X174428096Y-103198489D01*
X174487594Y-103115689D01*
X174555435Y-103021277D01*
X174558453Y-103017077D01*
X174579320Y-102974857D01*
X174655136Y-102821453D01*
X174655137Y-102821451D01*
X174657430Y-102816811D01*
X174722370Y-102603069D01*
X174751529Y-102381590D01*
X174753156Y-102315000D01*
X174734852Y-102092361D01*
X174680431Y-101875702D01*
X174591354Y-101670840D01*
X174500644Y-101530623D01*
X174472822Y-101487617D01*
X174472820Y-101487614D01*
X174470014Y-101483277D01*
X174319670Y-101318051D01*
X174315619Y-101314852D01*
X174315615Y-101314848D01*
X174148414Y-101182800D01*
X174148410Y-101182798D01*
X174144359Y-101179598D01*
X174103053Y-101156796D01*
X174053084Y-101106364D01*
X174038312Y-101036921D01*
X174063428Y-100970516D01*
X174090780Y-100943909D01*
X174134603Y-100912650D01*
X174269860Y-100816173D01*
X174298075Y-100788057D01*
X174424435Y-100662137D01*
X174428096Y-100658489D01*
X174446826Y-100632424D01*
X174555435Y-100481277D01*
X174558453Y-100477077D01*
X174579320Y-100434857D01*
X174655136Y-100281453D01*
X174655137Y-100281451D01*
X174657430Y-100276811D01*
X174696305Y-100148858D01*
X174720865Y-100068023D01*
X174720865Y-100068021D01*
X174722370Y-100063069D01*
X174751529Y-99841590D01*
X174753156Y-99775000D01*
X174734852Y-99552361D01*
X174680431Y-99335702D01*
X174591354Y-99130840D01*
X174482620Y-98962763D01*
X174472822Y-98947617D01*
X174472820Y-98947614D01*
X174470014Y-98943277D01*
X174319670Y-98778051D01*
X174315619Y-98774852D01*
X174315615Y-98774848D01*
X174148414Y-98642800D01*
X174148410Y-98642798D01*
X174144359Y-98639598D01*
X174102569Y-98616529D01*
X174052598Y-98566097D01*
X174037826Y-98496654D01*
X174062942Y-98430248D01*
X174090294Y-98403641D01*
X174265328Y-98278792D01*
X174273200Y-98272139D01*
X174424052Y-98121812D01*
X174430730Y-98113965D01*
X174555003Y-97941020D01*
X174560313Y-97932183D01*
X174654670Y-97741267D01*
X174658469Y-97731672D01*
X174712957Y-97552333D01*
X174713089Y-97538233D01*
X174706182Y-97535000D01*
X169543592Y-97535000D01*
X169530061Y-97538973D01*
X169528624Y-97548966D01*
X169548565Y-97637446D01*
X169551645Y-97647275D01*
X169631770Y-97844603D01*
X169636413Y-97853794D01*
X169747694Y-98035388D01*
X169753777Y-98043699D01*
X169893213Y-98204667D01*
X169900580Y-98211883D01*
X170064434Y-98347916D01*
X170072881Y-98353831D01*
X170141969Y-98394203D01*
X170190693Y-98445842D01*
X170203764Y-98515625D01*
X170177033Y-98581396D01*
X170136584Y-98614752D01*
X170123607Y-98621507D01*
X170119474Y-98624610D01*
X170119471Y-98624612D01*
X169952470Y-98750000D01*
X169944965Y-98755635D01*
X169941393Y-98759373D01*
X169822401Y-98883891D01*
X169790629Y-98917138D01*
X169787720Y-98921403D01*
X169787714Y-98921411D01*
X169779560Y-98933365D01*
X169664743Y-99101680D01*
X169650815Y-99131685D01*
X169576922Y-99290876D01*
X169570688Y-99304305D01*
X169510989Y-99519570D01*
X169487251Y-99741695D01*
X169487548Y-99746848D01*
X169487548Y-99746851D01*
X169494579Y-99868794D01*
X169500110Y-99964715D01*
X169501247Y-99969761D01*
X169501248Y-99969767D01*
X169508467Y-100001798D01*
X169549222Y-100182639D01*
X169610673Y-100333976D01*
X169631282Y-100384729D01*
X169633266Y-100389616D01*
X169684019Y-100472438D01*
X169747291Y-100575688D01*
X169749987Y-100580088D01*
X169896250Y-100748938D01*
X170068126Y-100891632D01*
X170118664Y-100921164D01*
X170141445Y-100934476D01*
X170190169Y-100986114D01*
X170203240Y-101055897D01*
X170176509Y-101121669D01*
X170136055Y-101155027D01*
X170123607Y-101161507D01*
X170119474Y-101164610D01*
X170119471Y-101164612D01*
X169988742Y-101262766D01*
X169944965Y-101295635D01*
X169941393Y-101299373D01*
X169803625Y-101443539D01*
X169790629Y-101457138D01*
X169664743Y-101641680D01*
X169619874Y-101738342D01*
X169577275Y-101830115D01*
X169570688Y-101844305D01*
X169510989Y-102059570D01*
X169487251Y-102281695D01*
X169487548Y-102286848D01*
X169487548Y-102286851D01*
X169497467Y-102458882D01*
X169500110Y-102504715D01*
X169501247Y-102509761D01*
X169501248Y-102509767D01*
X169512585Y-102560072D01*
X169549222Y-102722639D01*
X169633266Y-102929616D01*
X169678848Y-103004000D01*
X169747291Y-103115688D01*
X169749987Y-103120088D01*
X169896250Y-103288938D01*
X170068126Y-103431632D01*
X170082323Y-103439928D01*
X170141445Y-103474476D01*
X170190169Y-103526114D01*
X170203240Y-103595897D01*
X170176509Y-103661669D01*
X170136055Y-103695027D01*
X170123607Y-103701507D01*
X170119474Y-103704610D01*
X170119471Y-103704612D01*
X169949100Y-103832530D01*
X169944965Y-103835635D01*
X169790629Y-103997138D01*
X169664743Y-104181680D01*
X169570688Y-104384305D01*
X169510989Y-104599570D01*
X169487251Y-104821695D01*
X169487548Y-104826848D01*
X169487548Y-104826851D01*
X169493011Y-104921590D01*
X169500110Y-105044715D01*
X169501247Y-105049761D01*
X169501248Y-105049767D01*
X169521119Y-105137939D01*
X169549222Y-105262639D01*
X169633266Y-105469616D01*
X169671021Y-105531226D01*
X169747291Y-105655688D01*
X169749987Y-105660088D01*
X169896250Y-105828938D01*
X170068126Y-105971632D01*
X170138595Y-106012811D01*
X170141445Y-106014476D01*
X170190169Y-106066114D01*
X170203240Y-106135897D01*
X170176509Y-106201669D01*
X170136055Y-106235027D01*
X170123607Y-106241507D01*
X170119474Y-106244610D01*
X170119471Y-106244612D01*
X169949100Y-106372530D01*
X169944965Y-106375635D01*
X169790629Y-106537138D01*
X169664743Y-106721680D01*
X169570688Y-106924305D01*
X169510989Y-107139570D01*
X169487251Y-107361695D01*
X169487548Y-107366848D01*
X169487548Y-107366851D01*
X169493011Y-107461590D01*
X169500110Y-107584715D01*
X169501247Y-107589761D01*
X169501248Y-107589767D01*
X169502215Y-107594056D01*
X169549222Y-107802639D01*
X169633266Y-108009616D01*
X169684019Y-108092438D01*
X169747291Y-108195688D01*
X169749987Y-108200088D01*
X169896250Y-108368938D01*
X170068126Y-108511632D01*
X170138595Y-108552811D01*
X170141445Y-108554476D01*
X170190169Y-108606114D01*
X170203240Y-108675897D01*
X170176509Y-108741669D01*
X170136055Y-108775027D01*
X170123607Y-108781507D01*
X170119474Y-108784610D01*
X170119471Y-108784612D01*
X169949100Y-108912530D01*
X169944965Y-108915635D01*
X169926605Y-108934848D01*
X169796367Y-109071134D01*
X169790629Y-109077138D01*
X169787720Y-109081403D01*
X169787714Y-109081411D01*
X169735128Y-109158500D01*
X169664743Y-109261680D01*
X169649003Y-109295590D01*
X169574452Y-109456197D01*
X169570688Y-109464305D01*
X169510989Y-109679570D01*
X169487251Y-109901695D01*
X169487548Y-109906848D01*
X169487548Y-109906851D01*
X169494951Y-110035238D01*
X169500110Y-110124715D01*
X169501247Y-110129761D01*
X169501248Y-110129767D01*
X169521119Y-110217939D01*
X169549222Y-110342639D01*
X169585812Y-110432749D01*
X169630906Y-110543803D01*
X169633266Y-110549616D01*
X169673499Y-110615271D01*
X169747291Y-110735688D01*
X169749987Y-110740088D01*
X169896250Y-110908938D01*
X170068126Y-111051632D01*
X170138595Y-111092811D01*
X170141445Y-111094476D01*
X170190169Y-111146114D01*
X170203240Y-111215897D01*
X170176509Y-111281669D01*
X170136055Y-111315027D01*
X170123607Y-111321507D01*
X170119474Y-111324610D01*
X170119471Y-111324612D01*
X170044095Y-111381206D01*
X169944965Y-111455635D01*
X169790629Y-111617138D01*
X169664743Y-111801680D01*
X169570688Y-112004305D01*
X169510989Y-112219570D01*
X169487251Y-112441695D01*
X169487548Y-112446848D01*
X169487548Y-112446851D01*
X169497951Y-112627279D01*
X169500110Y-112664715D01*
X169501247Y-112669761D01*
X169501248Y-112669767D01*
X169521119Y-112757939D01*
X169549222Y-112882639D01*
X169633266Y-113089616D01*
X169684019Y-113172438D01*
X169747291Y-113275688D01*
X169749987Y-113280088D01*
X169896250Y-113448938D01*
X170068126Y-113591632D01*
X170138595Y-113632811D01*
X170141445Y-113634476D01*
X170190169Y-113686114D01*
X170203240Y-113755897D01*
X170176509Y-113821669D01*
X170136055Y-113855027D01*
X170123607Y-113861507D01*
X170119474Y-113864610D01*
X170119471Y-113864612D01*
X170095247Y-113882800D01*
X169944965Y-113995635D01*
X169790629Y-114157138D01*
X169664743Y-114341680D01*
X169570688Y-114544305D01*
X169510989Y-114759570D01*
X169487251Y-114981695D01*
X169487548Y-114986848D01*
X169487548Y-114986851D01*
X169493011Y-115081590D01*
X169500110Y-115204715D01*
X169501247Y-115209761D01*
X169501248Y-115209767D01*
X169521119Y-115297939D01*
X169549222Y-115422639D01*
X169633266Y-115629616D01*
X169684019Y-115712438D01*
X169747291Y-115815688D01*
X169749987Y-115820088D01*
X169896250Y-115988938D01*
X170068126Y-116131632D01*
X170138595Y-116172811D01*
X170141445Y-116174476D01*
X170190169Y-116226114D01*
X170203240Y-116295897D01*
X170176509Y-116361669D01*
X170136055Y-116395027D01*
X170123607Y-116401507D01*
X170119474Y-116404610D01*
X170119471Y-116404612D01*
X170095247Y-116422800D01*
X169944965Y-116535635D01*
X169790629Y-116697138D01*
X169664743Y-116881680D01*
X169570688Y-117084305D01*
X169510989Y-117299570D01*
X169487251Y-117521695D01*
X123008500Y-117521695D01*
X123008500Y-113500000D01*
X124586496Y-113500000D01*
X124606458Y-113689928D01*
X124665473Y-113871556D01*
X124760960Y-114036944D01*
X124888747Y-114178866D01*
X125043248Y-114291118D01*
X125049276Y-114293802D01*
X125049278Y-114293803D01*
X125197109Y-114359621D01*
X125217712Y-114368794D01*
X125311113Y-114388647D01*
X125398056Y-114407128D01*
X125398061Y-114407128D01*
X125404513Y-114408500D01*
X125595487Y-114408500D01*
X125601939Y-114407128D01*
X125601944Y-114407128D01*
X125688887Y-114388647D01*
X125782288Y-114368794D01*
X125802891Y-114359621D01*
X125950722Y-114293803D01*
X125950724Y-114293802D01*
X125956752Y-114291118D01*
X126111253Y-114178866D01*
X126239040Y-114036944D01*
X126334527Y-113871556D01*
X126393542Y-113689928D01*
X126413504Y-113500000D01*
X126393542Y-113310072D01*
X126334527Y-113128444D01*
X126331168Y-113122625D01*
X126297314Y-113063990D01*
X126239040Y-112963056D01*
X126234620Y-112958148D01*
X126230741Y-112952808D01*
X126232080Y-112951835D01*
X126204950Y-112895304D01*
X126213713Y-112824851D01*
X126231250Y-112797562D01*
X126230741Y-112797192D01*
X126234620Y-112791852D01*
X126239040Y-112786944D01*
X126334527Y-112621556D01*
X126393542Y-112439928D01*
X126413504Y-112250000D01*
X126393542Y-112060072D01*
X126334527Y-111878444D01*
X126239040Y-111713056D01*
X126156516Y-111621403D01*
X126115675Y-111576045D01*
X126115674Y-111576044D01*
X126111253Y-111571134D01*
X125956752Y-111458882D01*
X125950724Y-111456198D01*
X125950722Y-111456197D01*
X125788319Y-111383891D01*
X125788318Y-111383891D01*
X125782288Y-111381206D01*
X125688888Y-111361353D01*
X125601944Y-111342872D01*
X125601939Y-111342872D01*
X125595487Y-111341500D01*
X125404513Y-111341500D01*
X125398061Y-111342872D01*
X125398056Y-111342872D01*
X125311112Y-111361353D01*
X125217712Y-111381206D01*
X125211682Y-111383891D01*
X125211681Y-111383891D01*
X125049278Y-111456197D01*
X125049276Y-111456198D01*
X125043248Y-111458882D01*
X124888747Y-111571134D01*
X124884326Y-111576044D01*
X124884325Y-111576045D01*
X124843485Y-111621403D01*
X124760960Y-111713056D01*
X124665473Y-111878444D01*
X124606458Y-112060072D01*
X124586496Y-112250000D01*
X124606458Y-112439928D01*
X124665473Y-112621556D01*
X124760960Y-112786944D01*
X124765380Y-112791852D01*
X124769259Y-112797192D01*
X124767920Y-112798165D01*
X124795050Y-112854696D01*
X124786287Y-112925149D01*
X124768750Y-112952438D01*
X124769259Y-112952808D01*
X124765380Y-112958148D01*
X124760960Y-112963056D01*
X124702686Y-113063990D01*
X124668833Y-113122625D01*
X124665473Y-113128444D01*
X124606458Y-113310072D01*
X124586496Y-113500000D01*
X123008500Y-113500000D01*
X123008500Y-108250000D01*
X147336496Y-108250000D01*
X147356458Y-108439928D01*
X147415473Y-108621556D01*
X147418776Y-108627278D01*
X147418777Y-108627279D01*
X147441593Y-108666797D01*
X147510960Y-108786944D01*
X147515378Y-108791851D01*
X147515379Y-108791852D01*
X147624038Y-108912530D01*
X147638747Y-108928866D01*
X147793248Y-109041118D01*
X147799276Y-109043802D01*
X147799278Y-109043803D01*
X147883730Y-109081403D01*
X147967712Y-109118794D01*
X148061112Y-109138647D01*
X148148056Y-109157128D01*
X148148061Y-109157128D01*
X148154513Y-109158500D01*
X148345487Y-109158500D01*
X148351939Y-109157128D01*
X148351944Y-109157128D01*
X148434989Y-109139476D01*
X148505780Y-109144878D01*
X148562413Y-109187695D01*
X148585357Y-109250120D01*
X148586496Y-109250000D01*
X148606458Y-109439928D01*
X148665473Y-109621556D01*
X148760960Y-109786944D01*
X148765378Y-109791851D01*
X148765379Y-109791852D01*
X148884325Y-109923955D01*
X148888747Y-109928866D01*
X148984232Y-109998240D01*
X149035842Y-110035737D01*
X149043248Y-110041118D01*
X149049276Y-110043802D01*
X149049278Y-110043803D01*
X149209810Y-110115276D01*
X149217712Y-110118794D01*
X149311112Y-110138647D01*
X149398056Y-110157128D01*
X149398061Y-110157128D01*
X149404513Y-110158500D01*
X149595487Y-110158500D01*
X149601939Y-110157128D01*
X149601944Y-110157128D01*
X149688888Y-110138647D01*
X149782288Y-110118794D01*
X149790190Y-110115276D01*
X149950722Y-110043803D01*
X149950724Y-110043802D01*
X149956752Y-110041118D01*
X149964158Y-110035737D01*
X149965555Y-110035238D01*
X149967811Y-110033936D01*
X149968049Y-110034348D01*
X150031024Y-110011875D01*
X150100177Y-110027952D01*
X150149659Y-110078863D01*
X150158055Y-110098727D01*
X150165473Y-110121556D01*
X150168776Y-110127278D01*
X150168777Y-110127279D01*
X150186803Y-110158500D01*
X150260960Y-110286944D01*
X150388747Y-110428866D01*
X150487843Y-110500864D01*
X150535842Y-110535737D01*
X150543248Y-110541118D01*
X150549276Y-110543802D01*
X150549278Y-110543803D01*
X150709799Y-110615271D01*
X150717712Y-110618794D01*
X150781902Y-110632438D01*
X150898056Y-110657128D01*
X150898061Y-110657128D01*
X150904513Y-110658500D01*
X151095487Y-110658500D01*
X151101939Y-110657128D01*
X151101944Y-110657128D01*
X151218098Y-110632438D01*
X151282288Y-110618794D01*
X151290201Y-110615271D01*
X151450722Y-110543803D01*
X151450724Y-110543802D01*
X151456752Y-110541118D01*
X151464158Y-110535737D01*
X151465555Y-110535238D01*
X151467811Y-110533936D01*
X151468049Y-110534348D01*
X151531024Y-110511875D01*
X151600177Y-110527952D01*
X151649659Y-110578863D01*
X151658055Y-110598727D01*
X151665473Y-110621556D01*
X151668776Y-110627278D01*
X151668777Y-110627279D01*
X151686803Y-110658500D01*
X151760960Y-110786944D01*
X151888747Y-110928866D01*
X152043248Y-111041118D01*
X152049276Y-111043802D01*
X152049278Y-111043803D01*
X152188742Y-111105896D01*
X152217712Y-111118794D01*
X152311112Y-111138647D01*
X152398056Y-111157128D01*
X152398061Y-111157128D01*
X152404513Y-111158500D01*
X152595487Y-111158500D01*
X152601939Y-111157128D01*
X152601944Y-111157128D01*
X152688888Y-111138647D01*
X152782288Y-111118794D01*
X152811258Y-111105896D01*
X152950722Y-111043803D01*
X152950724Y-111043802D01*
X152956752Y-111041118D01*
X153111253Y-110928866D01*
X153239040Y-110786944D01*
X153313197Y-110658500D01*
X153331223Y-110627279D01*
X153331224Y-110627278D01*
X153334527Y-110621556D01*
X153393542Y-110439928D01*
X153413504Y-110250000D01*
X153393542Y-110060072D01*
X153334527Y-109878444D01*
X153239040Y-109713056D01*
X153213515Y-109684707D01*
X153115675Y-109576045D01*
X153115674Y-109576044D01*
X153111253Y-109571134D01*
X152997001Y-109488125D01*
X152962094Y-109462763D01*
X152962093Y-109462762D01*
X152956752Y-109458882D01*
X152950724Y-109456198D01*
X152950722Y-109456197D01*
X152788319Y-109383891D01*
X152788318Y-109383891D01*
X152782288Y-109381206D01*
X152688888Y-109361353D01*
X152601944Y-109342872D01*
X152601939Y-109342872D01*
X152595487Y-109341500D01*
X152404513Y-109341500D01*
X152398061Y-109342872D01*
X152398056Y-109342872D01*
X152311112Y-109361353D01*
X152217712Y-109381206D01*
X152211682Y-109383891D01*
X152211681Y-109383891D01*
X152049278Y-109456197D01*
X152049276Y-109456198D01*
X152043248Y-109458882D01*
X152035842Y-109464263D01*
X152034445Y-109464762D01*
X152032189Y-109466064D01*
X152031951Y-109465652D01*
X151968976Y-109488125D01*
X151899823Y-109472048D01*
X151850341Y-109421137D01*
X151841943Y-109401269D01*
X151834527Y-109378444D01*
X151813990Y-109342872D01*
X151767113Y-109261680D01*
X151739040Y-109213056D01*
X151644103Y-109107617D01*
X151615675Y-109076045D01*
X151615674Y-109076044D01*
X151611253Y-109071134D01*
X151497001Y-108988125D01*
X151462094Y-108962763D01*
X151462093Y-108962762D01*
X151456752Y-108958882D01*
X151450724Y-108956198D01*
X151450722Y-108956197D01*
X151288319Y-108883891D01*
X151288318Y-108883891D01*
X151282288Y-108881206D01*
X151188887Y-108861353D01*
X151101944Y-108842872D01*
X151101939Y-108842872D01*
X151095487Y-108841500D01*
X150904513Y-108841500D01*
X150898061Y-108842872D01*
X150898056Y-108842872D01*
X150811113Y-108861353D01*
X150717712Y-108881206D01*
X150711682Y-108883891D01*
X150711681Y-108883891D01*
X150549278Y-108956197D01*
X150549276Y-108956198D01*
X150543248Y-108958882D01*
X150535842Y-108964263D01*
X150534445Y-108964762D01*
X150532189Y-108966064D01*
X150531951Y-108965652D01*
X150468976Y-108988125D01*
X150399823Y-108972048D01*
X150350341Y-108921137D01*
X150341943Y-108901269D01*
X150334527Y-108878444D01*
X150313990Y-108842872D01*
X150242341Y-108718774D01*
X150239040Y-108713056D01*
X150195027Y-108664174D01*
X150115675Y-108576045D01*
X150115674Y-108576044D01*
X150111253Y-108571134D01*
X149956752Y-108458882D01*
X149950724Y-108456198D01*
X149950722Y-108456197D01*
X149788319Y-108383891D01*
X149788318Y-108383891D01*
X149782288Y-108381206D01*
X149684987Y-108360524D01*
X149601944Y-108342872D01*
X149601939Y-108342872D01*
X149595487Y-108341500D01*
X149404513Y-108341500D01*
X149398061Y-108342872D01*
X149398056Y-108342872D01*
X149315011Y-108360524D01*
X149244220Y-108355122D01*
X149187587Y-108312305D01*
X149164643Y-108249880D01*
X149163504Y-108250000D01*
X149144232Y-108066635D01*
X149144232Y-108066633D01*
X149143542Y-108060072D01*
X149084527Y-107878444D01*
X148989040Y-107713056D01*
X148966969Y-107688543D01*
X148865675Y-107576045D01*
X148865674Y-107576044D01*
X148861253Y-107571134D01*
X148762157Y-107499136D01*
X148712094Y-107462763D01*
X148712093Y-107462762D01*
X148706752Y-107458882D01*
X148700724Y-107456198D01*
X148700722Y-107456197D01*
X148538319Y-107383891D01*
X148538318Y-107383891D01*
X148532288Y-107381206D01*
X148416348Y-107356562D01*
X148351944Y-107342872D01*
X148351939Y-107342872D01*
X148345487Y-107341500D01*
X148154513Y-107341500D01*
X148148061Y-107342872D01*
X148148056Y-107342872D01*
X148083652Y-107356562D01*
X147967712Y-107381206D01*
X147961682Y-107383891D01*
X147961681Y-107383891D01*
X147799278Y-107456197D01*
X147799276Y-107456198D01*
X147793248Y-107458882D01*
X147787907Y-107462762D01*
X147787906Y-107462763D01*
X147737843Y-107499136D01*
X147638747Y-107571134D01*
X147634326Y-107576044D01*
X147634325Y-107576045D01*
X147533032Y-107688543D01*
X147510960Y-107713056D01*
X147415473Y-107878444D01*
X147356458Y-108060072D01*
X147355768Y-108066633D01*
X147355768Y-108066635D01*
X147352469Y-108098028D01*
X147336496Y-108250000D01*
X123008500Y-108250000D01*
X123008500Y-106500000D01*
X134786693Y-106500000D01*
X134805885Y-106719371D01*
X134862880Y-106932076D01*
X134865205Y-106937061D01*
X134953618Y-107126666D01*
X134953621Y-107126671D01*
X134955944Y-107131653D01*
X134959100Y-107136160D01*
X134959101Y-107136162D01*
X134980934Y-107167342D01*
X135082251Y-107312038D01*
X135237962Y-107467749D01*
X135418346Y-107594056D01*
X135617924Y-107687120D01*
X135830629Y-107744115D01*
X136050000Y-107763307D01*
X136269371Y-107744115D01*
X136482076Y-107687120D01*
X136681654Y-107594056D01*
X136862038Y-107467749D01*
X137017749Y-107312038D01*
X137119067Y-107167342D01*
X137140899Y-107136162D01*
X137140900Y-107136160D01*
X137144056Y-107131653D01*
X137146379Y-107126671D01*
X137146382Y-107126666D01*
X137234795Y-106937061D01*
X137237120Y-106932076D01*
X137294115Y-106719371D01*
X137313307Y-106500000D01*
X139666693Y-106500000D01*
X139685885Y-106719371D01*
X139742880Y-106932076D01*
X139745205Y-106937061D01*
X139833618Y-107126666D01*
X139833621Y-107126671D01*
X139835944Y-107131653D01*
X139839100Y-107136160D01*
X139839101Y-107136162D01*
X139860934Y-107167342D01*
X139962251Y-107312038D01*
X140117962Y-107467749D01*
X140298346Y-107594056D01*
X140497924Y-107687120D01*
X140710629Y-107744115D01*
X140930000Y-107763307D01*
X141149371Y-107744115D01*
X141362076Y-107687120D01*
X141561654Y-107594056D01*
X141742038Y-107467749D01*
X141897749Y-107312038D01*
X141999067Y-107167342D01*
X142020899Y-107136162D01*
X142020900Y-107136160D01*
X142024056Y-107131653D01*
X142026379Y-107126671D01*
X142026382Y-107126666D01*
X142114795Y-106937061D01*
X142117120Y-106932076D01*
X142174115Y-106719371D01*
X142193307Y-106500000D01*
X142174115Y-106280629D01*
X142117120Y-106067924D01*
X142073585Y-105974562D01*
X142026382Y-105873334D01*
X142026379Y-105873329D01*
X142024056Y-105868347D01*
X141935683Y-105742137D01*
X141900908Y-105692473D01*
X141900906Y-105692470D01*
X141897749Y-105687962D01*
X141742038Y-105532251D01*
X141561654Y-105405944D01*
X141362076Y-105312880D01*
X141149371Y-105255885D01*
X140930000Y-105236693D01*
X140710629Y-105255885D01*
X140497924Y-105312880D01*
X140414337Y-105351857D01*
X140303334Y-105403618D01*
X140303329Y-105403621D01*
X140298347Y-105405944D01*
X140293840Y-105409100D01*
X140293838Y-105409101D01*
X140122473Y-105529092D01*
X140122470Y-105529094D01*
X140117962Y-105532251D01*
X139962251Y-105687962D01*
X139959094Y-105692470D01*
X139959092Y-105692473D01*
X139924317Y-105742137D01*
X139835944Y-105868347D01*
X139833621Y-105873329D01*
X139833618Y-105873334D01*
X139786415Y-105974562D01*
X139742880Y-106067924D01*
X139685885Y-106280629D01*
X139666693Y-106500000D01*
X137313307Y-106500000D01*
X137294115Y-106280629D01*
X137237120Y-106067924D01*
X137193585Y-105974562D01*
X137146382Y-105873334D01*
X137146379Y-105873329D01*
X137144056Y-105868347D01*
X137055683Y-105742137D01*
X137020908Y-105692473D01*
X137020906Y-105692470D01*
X137017749Y-105687962D01*
X136862038Y-105532251D01*
X136681654Y-105405944D01*
X136482076Y-105312880D01*
X136269371Y-105255885D01*
X136050000Y-105236693D01*
X135830629Y-105255885D01*
X135617924Y-105312880D01*
X135534337Y-105351857D01*
X135423334Y-105403618D01*
X135423329Y-105403621D01*
X135418347Y-105405944D01*
X135413840Y-105409100D01*
X135413838Y-105409101D01*
X135242473Y-105529092D01*
X135242470Y-105529094D01*
X135237962Y-105532251D01*
X135082251Y-105687962D01*
X135079094Y-105692470D01*
X135079092Y-105692473D01*
X135044317Y-105742137D01*
X134955944Y-105868347D01*
X134953621Y-105873329D01*
X134953618Y-105873334D01*
X134906415Y-105974562D01*
X134862880Y-106067924D01*
X134805885Y-106280629D01*
X134786693Y-106500000D01*
X123008500Y-106500000D01*
X123008500Y-103131768D01*
X124190963Y-103131768D01*
X124209136Y-103193515D01*
X124213733Y-103204892D01*
X124299607Y-103369154D01*
X124306321Y-103379415D01*
X124422468Y-103523873D01*
X124431046Y-103532632D01*
X124573039Y-103651778D01*
X124583159Y-103658708D01*
X124745585Y-103748002D01*
X124756858Y-103752834D01*
X124933538Y-103808880D01*
X124945532Y-103811430D01*
X125089761Y-103827607D01*
X125096785Y-103828000D01*
X125131885Y-103828000D01*
X125147124Y-103823525D01*
X125148329Y-103822135D01*
X125150000Y-103814452D01*
X125150000Y-103809885D01*
X125750000Y-103809885D01*
X125754475Y-103825124D01*
X125755865Y-103826329D01*
X125763548Y-103828000D01*
X125796657Y-103828000D01*
X125802805Y-103827699D01*
X125940603Y-103814188D01*
X125952638Y-103811805D01*
X126130076Y-103758233D01*
X126141416Y-103753559D01*
X126305077Y-103666540D01*
X126315294Y-103659751D01*
X126458933Y-103542603D01*
X126467637Y-103533959D01*
X126585784Y-103391144D01*
X126592644Y-103380973D01*
X126680804Y-103217924D01*
X126685556Y-103206619D01*
X126707011Y-103137308D01*
X126707092Y-103131768D01*
X128120963Y-103131768D01*
X128139136Y-103193515D01*
X128143733Y-103204892D01*
X128229607Y-103369154D01*
X128236321Y-103379415D01*
X128352468Y-103523873D01*
X128361046Y-103532632D01*
X128503039Y-103651778D01*
X128513159Y-103658708D01*
X128675585Y-103748002D01*
X128686858Y-103752834D01*
X128863538Y-103808880D01*
X128875532Y-103811430D01*
X129019761Y-103827607D01*
X129026785Y-103828000D01*
X129311885Y-103828000D01*
X129327124Y-103823525D01*
X129328329Y-103822135D01*
X129330000Y-103814452D01*
X129330000Y-103809885D01*
X129930000Y-103809885D01*
X129934475Y-103825124D01*
X129935865Y-103826329D01*
X129943548Y-103828000D01*
X130226657Y-103828000D01*
X130232805Y-103827699D01*
X130370603Y-103814188D01*
X130382638Y-103811805D01*
X130560076Y-103758233D01*
X130571416Y-103753559D01*
X130735077Y-103666540D01*
X130745294Y-103659751D01*
X130888933Y-103542603D01*
X130897637Y-103533959D01*
X131015784Y-103391144D01*
X131022644Y-103380973D01*
X131093461Y-103250000D01*
X138586496Y-103250000D01*
X138587186Y-103256565D01*
X138605239Y-103428327D01*
X138606458Y-103439928D01*
X138665473Y-103621556D01*
X138668776Y-103627278D01*
X138668777Y-103627279D01*
X138686803Y-103658500D01*
X138760960Y-103786944D01*
X138765378Y-103791851D01*
X138765379Y-103791852D01*
X138868100Y-103905935D01*
X138888747Y-103928866D01*
X138980672Y-103995654D01*
X139024666Y-104027617D01*
X139043248Y-104041118D01*
X139049276Y-104043802D01*
X139049278Y-104043803D01*
X139211681Y-104116109D01*
X139217712Y-104118794D01*
X139311112Y-104138647D01*
X139398056Y-104157128D01*
X139398061Y-104157128D01*
X139404513Y-104158500D01*
X139595487Y-104158500D01*
X139601939Y-104157128D01*
X139601944Y-104157128D01*
X139688888Y-104138647D01*
X139782288Y-104118794D01*
X139788319Y-104116109D01*
X139950722Y-104043803D01*
X139950724Y-104043802D01*
X139956752Y-104041118D01*
X139975335Y-104027617D01*
X140019328Y-103995654D01*
X140111253Y-103928866D01*
X140125989Y-103912500D01*
X144923996Y-103912500D01*
X144924686Y-103919064D01*
X144924686Y-103919065D01*
X144935238Y-104019457D01*
X144943958Y-104102428D01*
X145002973Y-104284056D01*
X145098460Y-104449444D01*
X145226247Y-104591366D01*
X145380748Y-104703618D01*
X145386776Y-104706302D01*
X145386778Y-104706303D01*
X145549181Y-104778609D01*
X145555212Y-104781294D01*
X145661066Y-104803794D01*
X145741862Y-104820968D01*
X145804335Y-104854697D01*
X145838657Y-104916846D01*
X145840975Y-104957384D01*
X145836496Y-105000000D01*
X145837186Y-105006565D01*
X145852054Y-105148023D01*
X145856458Y-105189928D01*
X145915473Y-105371556D01*
X146010960Y-105536944D01*
X146015378Y-105541851D01*
X146015379Y-105541852D01*
X146134325Y-105673955D01*
X146138747Y-105678866D01*
X146293248Y-105791118D01*
X146299276Y-105793802D01*
X146299278Y-105793803D01*
X146461681Y-105866109D01*
X146467712Y-105868794D01*
X146561112Y-105888647D01*
X146648056Y-105907128D01*
X146648061Y-105907128D01*
X146654513Y-105908500D01*
X146845487Y-105908500D01*
X146851939Y-105907128D01*
X146851944Y-105907128D01*
X146938888Y-105888647D01*
X147032288Y-105868794D01*
X147038319Y-105866109D01*
X147200722Y-105793803D01*
X147200724Y-105793802D01*
X147206752Y-105791118D01*
X147361253Y-105678866D01*
X147365675Y-105673955D01*
X147484621Y-105541852D01*
X147484622Y-105541851D01*
X147489040Y-105536944D01*
X147584527Y-105371556D01*
X147643542Y-105189928D01*
X147647947Y-105148023D01*
X147662814Y-105006565D01*
X147663504Y-105000000D01*
X147643542Y-104810072D01*
X147584527Y-104628444D01*
X147570823Y-104604707D01*
X147492341Y-104468774D01*
X147489040Y-104463056D01*
X147418133Y-104384305D01*
X147365675Y-104326045D01*
X147365674Y-104326044D01*
X147361253Y-104321134D01*
X147206752Y-104208882D01*
X147200724Y-104206198D01*
X147200722Y-104206197D01*
X147038319Y-104133891D01*
X147038318Y-104133891D01*
X147032288Y-104131206D01*
X146845638Y-104091532D01*
X146783165Y-104057803D01*
X146748843Y-103995654D01*
X146746525Y-103955114D01*
X146750314Y-103919064D01*
X146751004Y-103912500D01*
X146742091Y-103827699D01*
X146731732Y-103729135D01*
X146731732Y-103729133D01*
X146731042Y-103722572D01*
X146672027Y-103540944D01*
X146576540Y-103375556D01*
X146559088Y-103356173D01*
X146463489Y-103250000D01*
X153836496Y-103250000D01*
X153837186Y-103256565D01*
X153855239Y-103428327D01*
X153856458Y-103439928D01*
X153915473Y-103621556D01*
X153918776Y-103627278D01*
X153918777Y-103627279D01*
X153936803Y-103658500D01*
X154010960Y-103786944D01*
X154015378Y-103791851D01*
X154015379Y-103791852D01*
X154118100Y-103905935D01*
X154138747Y-103928866D01*
X154230672Y-103995654D01*
X154274666Y-104027617D01*
X154293248Y-104041118D01*
X154299276Y-104043802D01*
X154299278Y-104043803D01*
X154461681Y-104116109D01*
X154467712Y-104118794D01*
X154561112Y-104138647D01*
X154648056Y-104157128D01*
X154648061Y-104157128D01*
X154654513Y-104158500D01*
X154845487Y-104158500D01*
X154851939Y-104157128D01*
X154851944Y-104157128D01*
X154938888Y-104138647D01*
X155032288Y-104118794D01*
X155038319Y-104116109D01*
X155200722Y-104043803D01*
X155200724Y-104043802D01*
X155206752Y-104041118D01*
X155225335Y-104027617D01*
X155269328Y-103995654D01*
X155361253Y-103928866D01*
X155381900Y-103905935D01*
X155484621Y-103791852D01*
X155484622Y-103791851D01*
X155489040Y-103786944D01*
X155563197Y-103658500D01*
X155581223Y-103627279D01*
X155581224Y-103627278D01*
X155584527Y-103621556D01*
X155643542Y-103439928D01*
X155644762Y-103428327D01*
X155662814Y-103256565D01*
X155663504Y-103250000D01*
X155658763Y-103204892D01*
X155644232Y-103066635D01*
X155644232Y-103066633D01*
X155643542Y-103060072D01*
X155584527Y-102878444D01*
X155489040Y-102713056D01*
X155390008Y-102603069D01*
X155365675Y-102576045D01*
X155365674Y-102576044D01*
X155361253Y-102571134D01*
X155206752Y-102458882D01*
X155200724Y-102456198D01*
X155200722Y-102456197D01*
X155038319Y-102383891D01*
X155038318Y-102383891D01*
X155032288Y-102381206D01*
X154938887Y-102361353D01*
X154851944Y-102342872D01*
X154851939Y-102342872D01*
X154845487Y-102341500D01*
X154654513Y-102341500D01*
X154648061Y-102342872D01*
X154648056Y-102342872D01*
X154561113Y-102361353D01*
X154467712Y-102381206D01*
X154461682Y-102383891D01*
X154461681Y-102383891D01*
X154299278Y-102456197D01*
X154299276Y-102456198D01*
X154293248Y-102458882D01*
X154138747Y-102571134D01*
X154134326Y-102576044D01*
X154134325Y-102576045D01*
X154109993Y-102603069D01*
X154010960Y-102713056D01*
X153915473Y-102878444D01*
X153856458Y-103060072D01*
X153855768Y-103066633D01*
X153855768Y-103066635D01*
X153841237Y-103204892D01*
X153836496Y-103250000D01*
X146463489Y-103250000D01*
X146453175Y-103238545D01*
X146453174Y-103238544D01*
X146448753Y-103233634D01*
X146308547Y-103131768D01*
X146299594Y-103125263D01*
X146299593Y-103125262D01*
X146294252Y-103121382D01*
X146288224Y-103118698D01*
X146288222Y-103118697D01*
X146125819Y-103046391D01*
X146125818Y-103046391D01*
X146119788Y-103043706D01*
X146017642Y-103021994D01*
X145939444Y-103005372D01*
X145939439Y-103005372D01*
X145932987Y-103004000D01*
X145742013Y-103004000D01*
X145735561Y-103005372D01*
X145735556Y-103005372D01*
X145657358Y-103021994D01*
X145555212Y-103043706D01*
X145549182Y-103046391D01*
X145549181Y-103046391D01*
X145386778Y-103118697D01*
X145386776Y-103118698D01*
X145380748Y-103121382D01*
X145375407Y-103125262D01*
X145375406Y-103125263D01*
X145366453Y-103131768D01*
X145226247Y-103233634D01*
X145221826Y-103238544D01*
X145221825Y-103238545D01*
X145115913Y-103356173D01*
X145098460Y-103375556D01*
X145002973Y-103540944D01*
X144943958Y-103722572D01*
X144943268Y-103729133D01*
X144943268Y-103729135D01*
X144932909Y-103827699D01*
X144923996Y-103912500D01*
X140125989Y-103912500D01*
X140131900Y-103905935D01*
X140234621Y-103791852D01*
X140234622Y-103791851D01*
X140239040Y-103786944D01*
X140313197Y-103658500D01*
X140331223Y-103627279D01*
X140331224Y-103627278D01*
X140334527Y-103621556D01*
X140393542Y-103439928D01*
X140394762Y-103428327D01*
X140412814Y-103256565D01*
X140413504Y-103250000D01*
X140408763Y-103204892D01*
X140394232Y-103066635D01*
X140394232Y-103066633D01*
X140393542Y-103060072D01*
X140334527Y-102878444D01*
X140260370Y-102750000D01*
X142586496Y-102750000D01*
X142606458Y-102939928D01*
X142665473Y-103121556D01*
X142668776Y-103127278D01*
X142668777Y-103127279D01*
X142674567Y-103137308D01*
X142760960Y-103286944D01*
X142765378Y-103291851D01*
X142765379Y-103291852D01*
X142844221Y-103379415D01*
X142888747Y-103428866D01*
X142951524Y-103474476D01*
X143035132Y-103535221D01*
X143043248Y-103541118D01*
X143049276Y-103543802D01*
X143049278Y-103543803D01*
X143201639Y-103611638D01*
X143217712Y-103618794D01*
X143311112Y-103638647D01*
X143398056Y-103657128D01*
X143398061Y-103657128D01*
X143404513Y-103658500D01*
X143595487Y-103658500D01*
X143601939Y-103657128D01*
X143601944Y-103657128D01*
X143688888Y-103638647D01*
X143782288Y-103618794D01*
X143798361Y-103611638D01*
X143950722Y-103543803D01*
X143950724Y-103543802D01*
X143956752Y-103541118D01*
X143964869Y-103535221D01*
X144048476Y-103474476D01*
X144111253Y-103428866D01*
X144155779Y-103379415D01*
X144234621Y-103291852D01*
X144234622Y-103291851D01*
X144239040Y-103286944D01*
X144325433Y-103137308D01*
X144331223Y-103127279D01*
X144331224Y-103127278D01*
X144334527Y-103121556D01*
X144393542Y-102939928D01*
X144413504Y-102750000D01*
X144393542Y-102560072D01*
X144334527Y-102378444D01*
X144313990Y-102342872D01*
X144242341Y-102218774D01*
X144239040Y-102213056D01*
X144142684Y-102106041D01*
X144115675Y-102076045D01*
X144115674Y-102076044D01*
X144111253Y-102071134D01*
X143956752Y-101958882D01*
X143950724Y-101956198D01*
X143950722Y-101956197D01*
X143788319Y-101883891D01*
X143788318Y-101883891D01*
X143782288Y-101881206D01*
X143677046Y-101858836D01*
X143601944Y-101842872D01*
X143601939Y-101842872D01*
X143595487Y-101841500D01*
X143404513Y-101841500D01*
X143398061Y-101842872D01*
X143398056Y-101842872D01*
X143322954Y-101858836D01*
X143217712Y-101881206D01*
X143211682Y-101883891D01*
X143211681Y-101883891D01*
X143049278Y-101956197D01*
X143049276Y-101956198D01*
X143043248Y-101958882D01*
X142888747Y-102071134D01*
X142884326Y-102076044D01*
X142884325Y-102076045D01*
X142857317Y-102106041D01*
X142760960Y-102213056D01*
X142757659Y-102218774D01*
X142686011Y-102342872D01*
X142665473Y-102378444D01*
X142606458Y-102560072D01*
X142586496Y-102750000D01*
X140260370Y-102750000D01*
X140239040Y-102713056D01*
X140140008Y-102603069D01*
X140115675Y-102576045D01*
X140115674Y-102576044D01*
X140111253Y-102571134D01*
X139956752Y-102458882D01*
X139950724Y-102456198D01*
X139950722Y-102456197D01*
X139788319Y-102383891D01*
X139788318Y-102383891D01*
X139782288Y-102381206D01*
X139688887Y-102361353D01*
X139601944Y-102342872D01*
X139601939Y-102342872D01*
X139595487Y-102341500D01*
X139404513Y-102341500D01*
X139398061Y-102342872D01*
X139398056Y-102342872D01*
X139311113Y-102361353D01*
X139217712Y-102381206D01*
X139211682Y-102383891D01*
X139211681Y-102383891D01*
X139049278Y-102456197D01*
X139049276Y-102456198D01*
X139043248Y-102458882D01*
X138888747Y-102571134D01*
X138884326Y-102576044D01*
X138884325Y-102576045D01*
X138859993Y-102603069D01*
X138760960Y-102713056D01*
X138665473Y-102878444D01*
X138606458Y-103060072D01*
X138605768Y-103066633D01*
X138605768Y-103066635D01*
X138591237Y-103204892D01*
X138586496Y-103250000D01*
X131093461Y-103250000D01*
X131110804Y-103217924D01*
X131115556Y-103206619D01*
X131137011Y-103137308D01*
X131137217Y-103123205D01*
X131130462Y-103120000D01*
X129948115Y-103120000D01*
X129932876Y-103124475D01*
X129931671Y-103125865D01*
X129930000Y-103133548D01*
X129930000Y-103809885D01*
X129330000Y-103809885D01*
X129330000Y-103138115D01*
X129325525Y-103122876D01*
X129324135Y-103121671D01*
X129316452Y-103120000D01*
X128135614Y-103120000D01*
X128122083Y-103123973D01*
X128120963Y-103131768D01*
X126707092Y-103131768D01*
X126707217Y-103123205D01*
X126700462Y-103120000D01*
X125768115Y-103120000D01*
X125752876Y-103124475D01*
X125751671Y-103125865D01*
X125750000Y-103133548D01*
X125750000Y-103809885D01*
X125150000Y-103809885D01*
X125150000Y-103138115D01*
X125145525Y-103122876D01*
X125144135Y-103121671D01*
X125136452Y-103120000D01*
X124205614Y-103120000D01*
X124192083Y-103123973D01*
X124190963Y-103131768D01*
X123008500Y-103131768D01*
X123008500Y-102516795D01*
X124192783Y-102516795D01*
X124199538Y-102520000D01*
X125131885Y-102520000D01*
X125147124Y-102515525D01*
X125148329Y-102514135D01*
X125150000Y-102506452D01*
X125150000Y-102501885D01*
X125750000Y-102501885D01*
X125754475Y-102517124D01*
X125755865Y-102518329D01*
X125763548Y-102520000D01*
X126694386Y-102520000D01*
X126705301Y-102516795D01*
X128122783Y-102516795D01*
X128129538Y-102520000D01*
X131124386Y-102520000D01*
X131137917Y-102516027D01*
X131139037Y-102508232D01*
X131120864Y-102446485D01*
X131116267Y-102435108D01*
X131030393Y-102270846D01*
X131023679Y-102260585D01*
X130907532Y-102116127D01*
X130898954Y-102107368D01*
X130756961Y-101988222D01*
X130746841Y-101981292D01*
X130584415Y-101891998D01*
X130573142Y-101887166D01*
X130396462Y-101831120D01*
X130384468Y-101828570D01*
X130240239Y-101812393D01*
X130233215Y-101812000D01*
X130015023Y-101812000D01*
X129946902Y-101791998D01*
X129900409Y-101738342D01*
X129890305Y-101668068D01*
X129898034Y-101639208D01*
X129904995Y-101621803D01*
X129907530Y-101615466D01*
X129908644Y-101608738D01*
X129908645Y-101608734D01*
X129935993Y-101443539D01*
X129935993Y-101443536D01*
X129937108Y-101436802D01*
X129936693Y-101428866D01*
X129927987Y-101262766D01*
X129927630Y-101255953D01*
X129907481Y-101182800D01*
X129881352Y-101087941D01*
X129879539Y-101081359D01*
X129795078Y-100921164D01*
X129790673Y-100915951D01*
X129790670Y-100915947D01*
X129682594Y-100788057D01*
X129682590Y-100788053D01*
X129678187Y-100782843D01*
X129638160Y-100752240D01*
X129539743Y-100676994D01*
X129539739Y-100676991D01*
X129534322Y-100672850D01*
X129421341Y-100620166D01*
X129376369Y-100599195D01*
X129376366Y-100599194D01*
X129370192Y-100596315D01*
X129363544Y-100594829D01*
X129363541Y-100594828D01*
X129198494Y-100557936D01*
X129198495Y-100557936D01*
X129193457Y-100556810D01*
X129187912Y-100556500D01*
X129054756Y-100556500D01*
X128919963Y-100571143D01*
X128836609Y-100599195D01*
X128754796Y-100626728D01*
X128754794Y-100626729D01*
X128748325Y-100628906D01*
X128593095Y-100722177D01*
X128588138Y-100726865D01*
X128588135Y-100726867D01*
X128466473Y-100841918D01*
X128461515Y-100846607D01*
X128457683Y-100852245D01*
X128457680Y-100852249D01*
X128393827Y-100946206D01*
X128359723Y-100996388D01*
X128292470Y-101164534D01*
X128291356Y-101171262D01*
X128291355Y-101171266D01*
X128272205Y-101286944D01*
X128262892Y-101343198D01*
X128263249Y-101350015D01*
X128263249Y-101350019D01*
X128268863Y-101457138D01*
X128272370Y-101524047D01*
X128274181Y-101530620D01*
X128274181Y-101530623D01*
X128309026Y-101657128D01*
X128320461Y-101698641D01*
X128404922Y-101858836D01*
X128409327Y-101864049D01*
X128409330Y-101864053D01*
X128427694Y-101885783D01*
X128456386Y-101950724D01*
X128445413Y-102020868D01*
X128411092Y-102064754D01*
X128371067Y-102097397D01*
X128362363Y-102106041D01*
X128244216Y-102248856D01*
X128237356Y-102259027D01*
X128149196Y-102422076D01*
X128144444Y-102433381D01*
X128122989Y-102502692D01*
X128122783Y-102516795D01*
X126705301Y-102516795D01*
X126707917Y-102516027D01*
X126709037Y-102508232D01*
X126690864Y-102446485D01*
X126686267Y-102435108D01*
X126600393Y-102270846D01*
X126593679Y-102260585D01*
X126477532Y-102116127D01*
X126468954Y-102107368D01*
X126326961Y-101988222D01*
X126316841Y-101981292D01*
X126154415Y-101891998D01*
X126143142Y-101887166D01*
X125966462Y-101831120D01*
X125954468Y-101828570D01*
X125810239Y-101812393D01*
X125803215Y-101812000D01*
X125768115Y-101812000D01*
X125752876Y-101816475D01*
X125751671Y-101817865D01*
X125750000Y-101825548D01*
X125750000Y-102501885D01*
X125150000Y-102501885D01*
X125150000Y-101830115D01*
X125145525Y-101814876D01*
X125144135Y-101813671D01*
X125136452Y-101812000D01*
X125103343Y-101812000D01*
X125097195Y-101812301D01*
X124959397Y-101825812D01*
X124947362Y-101828195D01*
X124769924Y-101881767D01*
X124758584Y-101886441D01*
X124594923Y-101973460D01*
X124584706Y-101980249D01*
X124441067Y-102097397D01*
X124432363Y-102106041D01*
X124314216Y-102248856D01*
X124307356Y-102259027D01*
X124219196Y-102422076D01*
X124214444Y-102433381D01*
X124192989Y-102502692D01*
X124192783Y-102516795D01*
X123008500Y-102516795D01*
X123008500Y-99094670D01*
X135931166Y-99094670D01*
X135951128Y-99284598D01*
X136010143Y-99466226D01*
X136105630Y-99631614D01*
X136233417Y-99773536D01*
X136387918Y-99885788D01*
X136393946Y-99888472D01*
X136393948Y-99888473D01*
X136553584Y-99959547D01*
X136562382Y-99963464D01*
X136655782Y-99983317D01*
X136742726Y-100001798D01*
X136742731Y-100001798D01*
X136749183Y-100003170D01*
X136940157Y-100003170D01*
X136946609Y-100001798D01*
X136946614Y-100001798D01*
X137033557Y-99983317D01*
X137126958Y-99963464D01*
X137135756Y-99959547D01*
X137295392Y-99888473D01*
X137295394Y-99888472D01*
X137301422Y-99885788D01*
X137455923Y-99773536D01*
X137583710Y-99631614D01*
X137679197Y-99466226D01*
X137738212Y-99284598D01*
X137747383Y-99197342D01*
X137774396Y-99131685D01*
X137832618Y-99091056D01*
X137903563Y-99088353D01*
X137966329Y-99126203D01*
X138013747Y-99178866D01*
X138112843Y-99250864D01*
X138161763Y-99286406D01*
X138168248Y-99291118D01*
X138174276Y-99293802D01*
X138174278Y-99293803D01*
X138279656Y-99340720D01*
X138342712Y-99368794D01*
X138417680Y-99384729D01*
X138523056Y-99407128D01*
X138523061Y-99407128D01*
X138529513Y-99408500D01*
X138720487Y-99408500D01*
X138726939Y-99407128D01*
X138726944Y-99407128D01*
X138832320Y-99384729D01*
X138907288Y-99368794D01*
X138970344Y-99340720D01*
X139075722Y-99293803D01*
X139075724Y-99293802D01*
X139081752Y-99291118D01*
X139088238Y-99286406D01*
X139137157Y-99250864D01*
X139236253Y-99178866D01*
X139287855Y-99121556D01*
X139359621Y-99041852D01*
X139359622Y-99041851D01*
X139364040Y-99036944D01*
X139385370Y-99000000D01*
X141348795Y-99000000D01*
X141349485Y-99006565D01*
X141361368Y-99119621D01*
X141368757Y-99189928D01*
X141427772Y-99371556D01*
X141431075Y-99377278D01*
X141431076Y-99377279D01*
X141449102Y-99408500D01*
X141523259Y-99536944D01*
X141527677Y-99541851D01*
X141527678Y-99541852D01*
X141646624Y-99673955D01*
X141651046Y-99678866D01*
X141737522Y-99741695D01*
X141783363Y-99775000D01*
X141805547Y-99791118D01*
X141811575Y-99793802D01*
X141811577Y-99793803D01*
X141927507Y-99845418D01*
X141980011Y-99868794D01*
X142059961Y-99885788D01*
X142160355Y-99907128D01*
X142160360Y-99907128D01*
X142166812Y-99908500D01*
X142357786Y-99908500D01*
X142364238Y-99907128D01*
X142364243Y-99907128D01*
X142464637Y-99885788D01*
X142544587Y-99868794D01*
X142597091Y-99845418D01*
X142713021Y-99793803D01*
X142713023Y-99793802D01*
X142719051Y-99791118D01*
X142741236Y-99775000D01*
X142775645Y-99750000D01*
X149836496Y-99750000D01*
X149837186Y-99756565D01*
X149853011Y-99907128D01*
X149856458Y-99939928D01*
X149915473Y-100121556D01*
X150010960Y-100286944D01*
X150015378Y-100291851D01*
X150015379Y-100291852D01*
X150134325Y-100423955D01*
X150138747Y-100428866D01*
X150293248Y-100541118D01*
X150299276Y-100543802D01*
X150299278Y-100543803D01*
X150461681Y-100616109D01*
X150467712Y-100618794D01*
X150561113Y-100638647D01*
X150648056Y-100657128D01*
X150648061Y-100657128D01*
X150654513Y-100658500D01*
X150845487Y-100658500D01*
X150851939Y-100657128D01*
X150851944Y-100657128D01*
X150938887Y-100638647D01*
X151032288Y-100618794D01*
X151166528Y-100559027D01*
X151236893Y-100549593D01*
X151301190Y-100579699D01*
X151339003Y-100639788D01*
X151343085Y-100687303D01*
X151339420Y-100722177D01*
X151336496Y-100750000D01*
X151337186Y-100756565D01*
X151353938Y-100915947D01*
X151356458Y-100939928D01*
X151415473Y-101121556D01*
X151418776Y-101127278D01*
X151418777Y-101127279D01*
X151435819Y-101156797D01*
X151510960Y-101286944D01*
X151515378Y-101291851D01*
X151515379Y-101291852D01*
X151518785Y-101295635D01*
X151638747Y-101428866D01*
X151737843Y-101500864D01*
X151760375Y-101517234D01*
X151793248Y-101541118D01*
X151799276Y-101543802D01*
X151799278Y-101543803D01*
X151960237Y-101615466D01*
X151967712Y-101618794D01*
X152055251Y-101637401D01*
X152148056Y-101657128D01*
X152148061Y-101657128D01*
X152154513Y-101658500D01*
X152345487Y-101658500D01*
X152351939Y-101657128D01*
X152351944Y-101657128D01*
X152444749Y-101637401D01*
X152532288Y-101618794D01*
X152539763Y-101615466D01*
X152700722Y-101543803D01*
X152700724Y-101543802D01*
X152706752Y-101541118D01*
X152739626Y-101517234D01*
X152762157Y-101500864D01*
X152861253Y-101428866D01*
X152981215Y-101295635D01*
X152984621Y-101291852D01*
X152984622Y-101291851D01*
X152989040Y-101286944D01*
X153064181Y-101156797D01*
X153081223Y-101127279D01*
X153081224Y-101127278D01*
X153084527Y-101121556D01*
X153143542Y-100939928D01*
X153146063Y-100915947D01*
X153162814Y-100756565D01*
X153163504Y-100750000D01*
X153153445Y-100654292D01*
X153144232Y-100566635D01*
X153144232Y-100566633D01*
X153143542Y-100560072D01*
X153084527Y-100378444D01*
X152989040Y-100213056D01*
X152961653Y-100182639D01*
X152865675Y-100076045D01*
X152865674Y-100076044D01*
X152861253Y-100071134D01*
X152714947Y-99964836D01*
X152712094Y-99962763D01*
X152712093Y-99962762D01*
X152706752Y-99958882D01*
X152700724Y-99956198D01*
X152700722Y-99956197D01*
X152538319Y-99883891D01*
X152538318Y-99883891D01*
X152532288Y-99881206D01*
X152438887Y-99861353D01*
X152351944Y-99842872D01*
X152351939Y-99842872D01*
X152345487Y-99841500D01*
X152154513Y-99841500D01*
X152148061Y-99842872D01*
X152148056Y-99842872D01*
X152136080Y-99845418D01*
X152065289Y-99840016D01*
X152008656Y-99797199D01*
X151984163Y-99730561D01*
X151999584Y-99661260D01*
X152050025Y-99611297D01*
X152058634Y-99607064D01*
X152200722Y-99543803D01*
X152200724Y-99543802D01*
X152206752Y-99541118D01*
X152361253Y-99428866D01*
X152473408Y-99304305D01*
X152484621Y-99291852D01*
X152484622Y-99291851D01*
X152489040Y-99286944D01*
X152554274Y-99173955D01*
X152581223Y-99127279D01*
X152581224Y-99127278D01*
X152584527Y-99121556D01*
X152643542Y-98939928D01*
X152646551Y-98911305D01*
X152662814Y-98756565D01*
X152663504Y-98750000D01*
X159586496Y-98750000D01*
X159587186Y-98756565D01*
X159603450Y-98911305D01*
X159606458Y-98939928D01*
X159665473Y-99121556D01*
X159668776Y-99127278D01*
X159668777Y-99127279D01*
X159695726Y-99173955D01*
X159760960Y-99286944D01*
X159765378Y-99291851D01*
X159765379Y-99291852D01*
X159776592Y-99304305D01*
X159888747Y-99428866D01*
X160043248Y-99541118D01*
X160049276Y-99543802D01*
X160049278Y-99543803D01*
X160200873Y-99611297D01*
X160217712Y-99618794D01*
X160301115Y-99636522D01*
X160398056Y-99657128D01*
X160398061Y-99657128D01*
X160404513Y-99658500D01*
X160595487Y-99658500D01*
X160601939Y-99657128D01*
X160601944Y-99657128D01*
X160698885Y-99636522D01*
X160782288Y-99618794D01*
X160799127Y-99611297D01*
X160950722Y-99543803D01*
X160950724Y-99543802D01*
X160956752Y-99541118D01*
X161111253Y-99428866D01*
X161223408Y-99304305D01*
X161234621Y-99291852D01*
X161234622Y-99291851D01*
X161239040Y-99286944D01*
X161304274Y-99173955D01*
X161331223Y-99127279D01*
X161331224Y-99127278D01*
X161334527Y-99121556D01*
X161393542Y-98939928D01*
X161396551Y-98911305D01*
X161412814Y-98756565D01*
X161413504Y-98750000D01*
X161407190Y-98689928D01*
X161394232Y-98566635D01*
X161394232Y-98566633D01*
X161393542Y-98560072D01*
X161334527Y-98378444D01*
X161239040Y-98213056D01*
X161167228Y-98133300D01*
X161115675Y-98076045D01*
X161115674Y-98076044D01*
X161111253Y-98071134D01*
X160956752Y-97958882D01*
X160950724Y-97956198D01*
X160950722Y-97956197D01*
X160788319Y-97883891D01*
X160788318Y-97883891D01*
X160782288Y-97881206D01*
X160688887Y-97861353D01*
X160601944Y-97842872D01*
X160601939Y-97842872D01*
X160595487Y-97841500D01*
X160404513Y-97841500D01*
X160398061Y-97842872D01*
X160398056Y-97842872D01*
X160311113Y-97861353D01*
X160217712Y-97881206D01*
X160211682Y-97883891D01*
X160211681Y-97883891D01*
X160049278Y-97956197D01*
X160049276Y-97956198D01*
X160043248Y-97958882D01*
X159888747Y-98071134D01*
X159884326Y-98076044D01*
X159884325Y-98076045D01*
X159832773Y-98133300D01*
X159760960Y-98213056D01*
X159665473Y-98378444D01*
X159606458Y-98560072D01*
X159605768Y-98566633D01*
X159605768Y-98566635D01*
X159592810Y-98689928D01*
X159586496Y-98750000D01*
X152663504Y-98750000D01*
X152657190Y-98689928D01*
X152644232Y-98566635D01*
X152644232Y-98566633D01*
X152643542Y-98560072D01*
X152584527Y-98378444D01*
X152489040Y-98213056D01*
X152417228Y-98133300D01*
X152365675Y-98076045D01*
X152365674Y-98076044D01*
X152361253Y-98071134D01*
X152206752Y-97958882D01*
X152200724Y-97956198D01*
X152200722Y-97956197D01*
X152038319Y-97883891D01*
X152038318Y-97883891D01*
X152032288Y-97881206D01*
X151938887Y-97861353D01*
X151851944Y-97842872D01*
X151851939Y-97842872D01*
X151845487Y-97841500D01*
X151654513Y-97841500D01*
X151648061Y-97842872D01*
X151648056Y-97842872D01*
X151561113Y-97861353D01*
X151467712Y-97881206D01*
X151461682Y-97883891D01*
X151461681Y-97883891D01*
X151299278Y-97956197D01*
X151299276Y-97956198D01*
X151293248Y-97958882D01*
X151138747Y-98071134D01*
X151134326Y-98076044D01*
X151134325Y-98076045D01*
X151082773Y-98133300D01*
X151010960Y-98213056D01*
X150915473Y-98378444D01*
X150856458Y-98560072D01*
X150855768Y-98566633D01*
X150855768Y-98566635D01*
X150838738Y-98728670D01*
X150811725Y-98794327D01*
X150753503Y-98834957D01*
X150713428Y-98841500D01*
X150654513Y-98841500D01*
X150648061Y-98842872D01*
X150648056Y-98842872D01*
X150561112Y-98861353D01*
X150467712Y-98881206D01*
X150461682Y-98883891D01*
X150461681Y-98883891D01*
X150299278Y-98956197D01*
X150299276Y-98956198D01*
X150293248Y-98958882D01*
X150138747Y-99071134D01*
X150134326Y-99076044D01*
X150134325Y-99076045D01*
X150031785Y-99189928D01*
X150010960Y-99213056D01*
X149966031Y-99290876D01*
X149922595Y-99366109D01*
X149915473Y-99378444D01*
X149856458Y-99560072D01*
X149855768Y-99566633D01*
X149855768Y-99566635D01*
X149843972Y-99678866D01*
X149836496Y-99750000D01*
X142775645Y-99750000D01*
X142787076Y-99741695D01*
X142873552Y-99678866D01*
X142877974Y-99673955D01*
X142996920Y-99541852D01*
X142996921Y-99541851D01*
X143001339Y-99536944D01*
X143004638Y-99531231D01*
X143004641Y-99531226D01*
X143015934Y-99511664D01*
X143067316Y-99462670D01*
X143137029Y-99449232D01*
X143199115Y-99472726D01*
X143293248Y-99541118D01*
X143299276Y-99543802D01*
X143299278Y-99543803D01*
X143450873Y-99611297D01*
X143467712Y-99618794D01*
X143551115Y-99636522D01*
X143648056Y-99657128D01*
X143648061Y-99657128D01*
X143654513Y-99658500D01*
X143845487Y-99658500D01*
X143851939Y-99657128D01*
X143851944Y-99657128D01*
X143948885Y-99636522D01*
X144032288Y-99618794D01*
X144049127Y-99611297D01*
X144200722Y-99543803D01*
X144200724Y-99543802D01*
X144206752Y-99541118D01*
X144361253Y-99428866D01*
X144473408Y-99304305D01*
X144484621Y-99291852D01*
X144484622Y-99291851D01*
X144489040Y-99286944D01*
X144554274Y-99173955D01*
X144581223Y-99127279D01*
X144581224Y-99127278D01*
X144584527Y-99121556D01*
X144643542Y-98939928D01*
X144646551Y-98911305D01*
X144662814Y-98756565D01*
X144663504Y-98750000D01*
X144657190Y-98689928D01*
X144644232Y-98566635D01*
X144644232Y-98566633D01*
X144643542Y-98560072D01*
X144584527Y-98378444D01*
X144489040Y-98213056D01*
X144417228Y-98133300D01*
X144365675Y-98076045D01*
X144365674Y-98076044D01*
X144361253Y-98071134D01*
X144206752Y-97958882D01*
X144200724Y-97956198D01*
X144200722Y-97956197D01*
X144038319Y-97883891D01*
X144038318Y-97883891D01*
X144032288Y-97881206D01*
X143938887Y-97861353D01*
X143851944Y-97842872D01*
X143851939Y-97842872D01*
X143845487Y-97841500D01*
X143654513Y-97841500D01*
X143648061Y-97842872D01*
X143648056Y-97842872D01*
X143561113Y-97861353D01*
X143467712Y-97881206D01*
X143461682Y-97883891D01*
X143461681Y-97883891D01*
X143299278Y-97956197D01*
X143299276Y-97956198D01*
X143293248Y-97958882D01*
X143138747Y-98071134D01*
X143134326Y-98076044D01*
X143134325Y-98076045D01*
X143082773Y-98133300D01*
X143010960Y-98213056D01*
X143007661Y-98218769D01*
X143007658Y-98218774D01*
X142996365Y-98238336D01*
X142944983Y-98287330D01*
X142875270Y-98300768D01*
X142813184Y-98277274D01*
X142724393Y-98212763D01*
X142724392Y-98212762D01*
X142719051Y-98208882D01*
X142713023Y-98206198D01*
X142713021Y-98206197D01*
X142550618Y-98133891D01*
X142550617Y-98133891D01*
X142544587Y-98131206D01*
X142451186Y-98111353D01*
X142364243Y-98092872D01*
X142364238Y-98092872D01*
X142357786Y-98091500D01*
X142166812Y-98091500D01*
X142160360Y-98092872D01*
X142160355Y-98092872D01*
X142073412Y-98111353D01*
X141980011Y-98131206D01*
X141973981Y-98133891D01*
X141973980Y-98133891D01*
X141811577Y-98206197D01*
X141811575Y-98206198D01*
X141805547Y-98208882D01*
X141651046Y-98321134D01*
X141646625Y-98326044D01*
X141646624Y-98326045D01*
X141535956Y-98448955D01*
X141523259Y-98463056D01*
X141427772Y-98628444D01*
X141368757Y-98810072D01*
X141368067Y-98816633D01*
X141368067Y-98816635D01*
X141355767Y-98933668D01*
X141348795Y-99000000D01*
X139385370Y-99000000D01*
X139443992Y-98898464D01*
X139456223Y-98877279D01*
X139456224Y-98877278D01*
X139459527Y-98871556D01*
X139518542Y-98689928D01*
X139526257Y-98616529D01*
X139537814Y-98506565D01*
X139538504Y-98500000D01*
X139529896Y-98418099D01*
X139519232Y-98316635D01*
X139519232Y-98316633D01*
X139518542Y-98310072D01*
X139459527Y-98128444D01*
X139438990Y-98092872D01*
X139367341Y-97968774D01*
X139364040Y-97963056D01*
X139236253Y-97821134D01*
X139081752Y-97708882D01*
X139075724Y-97706198D01*
X139075722Y-97706197D01*
X138913319Y-97633891D01*
X138913318Y-97633891D01*
X138907288Y-97631206D01*
X138801124Y-97608640D01*
X138726944Y-97592872D01*
X138726939Y-97592872D01*
X138720487Y-97591500D01*
X138529513Y-97591500D01*
X138523061Y-97592872D01*
X138523056Y-97592872D01*
X138448876Y-97608640D01*
X138342712Y-97631206D01*
X138336682Y-97633891D01*
X138336681Y-97633891D01*
X138174278Y-97706197D01*
X138174276Y-97706198D01*
X138168248Y-97708882D01*
X138013747Y-97821134D01*
X137885960Y-97963056D01*
X137882659Y-97968774D01*
X137811011Y-98092872D01*
X137790473Y-98128444D01*
X137731458Y-98310072D01*
X137730768Y-98316633D01*
X137730768Y-98316635D01*
X137722287Y-98397328D01*
X137695274Y-98462985D01*
X137637052Y-98503614D01*
X137566107Y-98506317D01*
X137503341Y-98468467D01*
X137460345Y-98420715D01*
X137460344Y-98420714D01*
X137455923Y-98415804D01*
X137346180Y-98336071D01*
X137306764Y-98307433D01*
X137306763Y-98307432D01*
X137301422Y-98303552D01*
X137295394Y-98300868D01*
X137295392Y-98300867D01*
X137132989Y-98228561D01*
X137132988Y-98228561D01*
X137126958Y-98225876D01*
X137027178Y-98204667D01*
X136946614Y-98187542D01*
X136946609Y-98187542D01*
X136940157Y-98186170D01*
X136749183Y-98186170D01*
X136742731Y-98187542D01*
X136742726Y-98187542D01*
X136662162Y-98204667D01*
X136562382Y-98225876D01*
X136556352Y-98228561D01*
X136556351Y-98228561D01*
X136393948Y-98300867D01*
X136393946Y-98300868D01*
X136387918Y-98303552D01*
X136382577Y-98307432D01*
X136382576Y-98307433D01*
X136343160Y-98336071D01*
X136233417Y-98415804D01*
X136228996Y-98420714D01*
X136228995Y-98420715D01*
X136151696Y-98506565D01*
X136105630Y-98557726D01*
X136010143Y-98723114D01*
X135951128Y-98904742D01*
X135950438Y-98911303D01*
X135950438Y-98911305D01*
X135948088Y-98933668D01*
X135931166Y-99094670D01*
X123008500Y-99094670D01*
X123008500Y-96875000D01*
X146961496Y-96875000D01*
X146962186Y-96881565D01*
X146969589Y-96951996D01*
X146981458Y-97064928D01*
X147040473Y-97246556D01*
X147135960Y-97411944D01*
X147169906Y-97449645D01*
X147200622Y-97513651D01*
X147191857Y-97584104D01*
X147181218Y-97602735D01*
X147181051Y-97602921D01*
X147177750Y-97608639D01*
X147177749Y-97608640D01*
X147117634Y-97712763D01*
X147085564Y-97768309D01*
X147026549Y-97949937D01*
X147025859Y-97956498D01*
X147025859Y-97956500D01*
X147017568Y-98035383D01*
X147006587Y-98139865D01*
X147007277Y-98146430D01*
X147021189Y-98278792D01*
X147026549Y-98329793D01*
X147085564Y-98511421D01*
X147088867Y-98517143D01*
X147088868Y-98517144D01*
X147097236Y-98531638D01*
X147181051Y-98676809D01*
X147185469Y-98681716D01*
X147185470Y-98681717D01*
X147295389Y-98803794D01*
X147308838Y-98818731D01*
X147340177Y-98841500D01*
X147439140Y-98913401D01*
X147463339Y-98930983D01*
X147469367Y-98933667D01*
X147469369Y-98933668D01*
X147526001Y-98958882D01*
X147637803Y-99008659D01*
X147731203Y-99028512D01*
X147818147Y-99046993D01*
X147818152Y-99046993D01*
X147824604Y-99048365D01*
X148015578Y-99048365D01*
X148022030Y-99046993D01*
X148022035Y-99046993D01*
X148108979Y-99028512D01*
X148202379Y-99008659D01*
X148314181Y-98958882D01*
X148370813Y-98933668D01*
X148370815Y-98933667D01*
X148376843Y-98930983D01*
X148401043Y-98913401D01*
X148500005Y-98841500D01*
X148531344Y-98818731D01*
X148544793Y-98803794D01*
X148654712Y-98681717D01*
X148654713Y-98681716D01*
X148659131Y-98676809D01*
X148742946Y-98531638D01*
X148751314Y-98517144D01*
X148751315Y-98517143D01*
X148754618Y-98511421D01*
X148813633Y-98329793D01*
X148818994Y-98278792D01*
X148832905Y-98146430D01*
X148833595Y-98139865D01*
X148822614Y-98035383D01*
X148814323Y-97956500D01*
X148814323Y-97956498D01*
X148813633Y-97949937D01*
X148754618Y-97768309D01*
X148659131Y-97602921D01*
X148625185Y-97565220D01*
X148594469Y-97501214D01*
X148603234Y-97430761D01*
X148613873Y-97412130D01*
X148614040Y-97411944D01*
X148709527Y-97246556D01*
X148768542Y-97064928D01*
X148780412Y-96951996D01*
X148787814Y-96881565D01*
X148788504Y-96875000D01*
X148787479Y-96865249D01*
X148787814Y-96863417D01*
X148787814Y-96861830D01*
X148788104Y-96861830D01*
X148800251Y-96795411D01*
X148848753Y-96743564D01*
X148917586Y-96726169D01*
X148986849Y-96750142D01*
X149043248Y-96791118D01*
X149049276Y-96793802D01*
X149049278Y-96793803D01*
X149211681Y-96866109D01*
X149217712Y-96868794D01*
X149311112Y-96888647D01*
X149398056Y-96907128D01*
X149398061Y-96907128D01*
X149404513Y-96908500D01*
X149595487Y-96908500D01*
X149601939Y-96907128D01*
X149601944Y-96907128D01*
X149688888Y-96888647D01*
X149782288Y-96868794D01*
X149788319Y-96866109D01*
X149950722Y-96793803D01*
X149950724Y-96793802D01*
X149956752Y-96791118D01*
X150111253Y-96678866D01*
X150192443Y-96588695D01*
X150234621Y-96541852D01*
X150234622Y-96541851D01*
X150239040Y-96536944D01*
X150253269Y-96512299D01*
X156598795Y-96512299D01*
X156599485Y-96518863D01*
X156599485Y-96518864D01*
X156616302Y-96678866D01*
X156618757Y-96702227D01*
X156677772Y-96883855D01*
X156773259Y-97049243D01*
X156777677Y-97054150D01*
X156777678Y-97054151D01*
X156818633Y-97099636D01*
X156901046Y-97191165D01*
X157055547Y-97303417D01*
X157061575Y-97306101D01*
X157061577Y-97306102D01*
X157159372Y-97349643D01*
X157213468Y-97395623D01*
X157234117Y-97463551D01*
X157233433Y-97477913D01*
X157217358Y-97630862D01*
X157218048Y-97637427D01*
X157232465Y-97774594D01*
X157237320Y-97820790D01*
X157296335Y-98002418D01*
X157391822Y-98167806D01*
X157396240Y-98172713D01*
X157396241Y-98172714D01*
X157514048Y-98303552D01*
X157519609Y-98309728D01*
X157606311Y-98372721D01*
X157648869Y-98403641D01*
X157674110Y-98421980D01*
X157680138Y-98424664D01*
X157680140Y-98424665D01*
X157834601Y-98493435D01*
X157848574Y-98499656D01*
X157923702Y-98515625D01*
X158028918Y-98537990D01*
X158028923Y-98537990D01*
X158035375Y-98539362D01*
X158226349Y-98539362D01*
X158232801Y-98537990D01*
X158232806Y-98537990D01*
X158338022Y-98515625D01*
X158413150Y-98499656D01*
X158427123Y-98493435D01*
X158581584Y-98424665D01*
X158581586Y-98424664D01*
X158587614Y-98421980D01*
X158612856Y-98403641D01*
X158655413Y-98372721D01*
X158742115Y-98309728D01*
X158747676Y-98303552D01*
X158865483Y-98172714D01*
X158865484Y-98172713D01*
X158869902Y-98167806D01*
X158965389Y-98002418D01*
X159024404Y-97820790D01*
X159029260Y-97774594D01*
X159043676Y-97637427D01*
X159044366Y-97630862D01*
X159036112Y-97552333D01*
X159025094Y-97447497D01*
X159025094Y-97447495D01*
X159024404Y-97440934D01*
X158965389Y-97259306D01*
X158869902Y-97093918D01*
X158829677Y-97049243D01*
X158746537Y-96956907D01*
X158746536Y-96956906D01*
X158742115Y-96951996D01*
X158623902Y-96866109D01*
X158592956Y-96843625D01*
X158592955Y-96843624D01*
X158587614Y-96839744D01*
X158581586Y-96837060D01*
X158581584Y-96837059D01*
X158483789Y-96793518D01*
X158429693Y-96747538D01*
X158409044Y-96679610D01*
X158409728Y-96665240D01*
X158417774Y-96588695D01*
X158425803Y-96512299D01*
X158418565Y-96443431D01*
X158406531Y-96328934D01*
X158406531Y-96328932D01*
X158405841Y-96322371D01*
X158346826Y-96140743D01*
X158314664Y-96085036D01*
X158293608Y-96048567D01*
X158251339Y-95975355D01*
X158123552Y-95833433D01*
X157969051Y-95721181D01*
X157963023Y-95718497D01*
X157963021Y-95718496D01*
X157800618Y-95646190D01*
X157800617Y-95646190D01*
X157794587Y-95643505D01*
X157696807Y-95622721D01*
X157614243Y-95605171D01*
X157614238Y-95605171D01*
X157607786Y-95603799D01*
X157416812Y-95603799D01*
X157410360Y-95605171D01*
X157410355Y-95605171D01*
X157327791Y-95622721D01*
X157230011Y-95643505D01*
X157223981Y-95646190D01*
X157223980Y-95646190D01*
X157061577Y-95718496D01*
X157061575Y-95718497D01*
X157055547Y-95721181D01*
X156901046Y-95833433D01*
X156773259Y-95975355D01*
X156730990Y-96048567D01*
X156709935Y-96085036D01*
X156677772Y-96140743D01*
X156618757Y-96322371D01*
X156618067Y-96328932D01*
X156618067Y-96328934D01*
X156606033Y-96443431D01*
X156598795Y-96512299D01*
X150253269Y-96512299D01*
X150334527Y-96371556D01*
X150393542Y-96189928D01*
X150397862Y-96148831D01*
X150412814Y-96006565D01*
X150412814Y-96006564D01*
X150413504Y-96000000D01*
X150399409Y-95865896D01*
X150394232Y-95816635D01*
X150394232Y-95816633D01*
X150393542Y-95810072D01*
X150334527Y-95628444D01*
X150239040Y-95463056D01*
X150111253Y-95321134D01*
X149975805Y-95222725D01*
X149962094Y-95212763D01*
X149962093Y-95212762D01*
X149956752Y-95208882D01*
X149950724Y-95206198D01*
X149950722Y-95206197D01*
X149788319Y-95133891D01*
X149788318Y-95133891D01*
X149782288Y-95131206D01*
X149688888Y-95111353D01*
X149601944Y-95092872D01*
X149601939Y-95092872D01*
X149595487Y-95091500D01*
X149404513Y-95091500D01*
X149398061Y-95092872D01*
X149398056Y-95092872D01*
X149311112Y-95111353D01*
X149217712Y-95131206D01*
X149211682Y-95133891D01*
X149211681Y-95133891D01*
X149049278Y-95206197D01*
X149049276Y-95206198D01*
X149043248Y-95208882D01*
X149037907Y-95212762D01*
X149037906Y-95212763D01*
X149024195Y-95222725D01*
X148888747Y-95321134D01*
X148760960Y-95463056D01*
X148665473Y-95628444D01*
X148606458Y-95810072D01*
X148605768Y-95816633D01*
X148605768Y-95816635D01*
X148600591Y-95865896D01*
X148586496Y-96000000D01*
X148587431Y-96008891D01*
X148587521Y-96009751D01*
X148587186Y-96011583D01*
X148587186Y-96013170D01*
X148586896Y-96013170D01*
X148574749Y-96079589D01*
X148526247Y-96131436D01*
X148457414Y-96148831D01*
X148388150Y-96124858D01*
X148337094Y-96087763D01*
X148337093Y-96087762D01*
X148331752Y-96083882D01*
X148325724Y-96081198D01*
X148325722Y-96081197D01*
X148163319Y-96008891D01*
X148163318Y-96008891D01*
X148157288Y-96006206D01*
X148063888Y-95986353D01*
X147976944Y-95967872D01*
X147976939Y-95967872D01*
X147970487Y-95966500D01*
X147779513Y-95966500D01*
X147773061Y-95967872D01*
X147773056Y-95967872D01*
X147686113Y-95986353D01*
X147592712Y-96006206D01*
X147586682Y-96008891D01*
X147586681Y-96008891D01*
X147424278Y-96081197D01*
X147424276Y-96081198D01*
X147418248Y-96083882D01*
X147263747Y-96196134D01*
X147259326Y-96201044D01*
X147259325Y-96201045D01*
X147155736Y-96316093D01*
X147135960Y-96338056D01*
X147040473Y-96503444D01*
X146981458Y-96685072D01*
X146980768Y-96691633D01*
X146980768Y-96691635D01*
X146964794Y-96843625D01*
X146961496Y-96875000D01*
X123008500Y-96875000D01*
X123008500Y-94491768D01*
X124190963Y-94491768D01*
X124209136Y-94553515D01*
X124213733Y-94564892D01*
X124299607Y-94729154D01*
X124306321Y-94739415D01*
X124422468Y-94883873D01*
X124431046Y-94892632D01*
X124573039Y-95011778D01*
X124583159Y-95018708D01*
X124745585Y-95108002D01*
X124756858Y-95112834D01*
X124933538Y-95168880D01*
X124945532Y-95171430D01*
X125089761Y-95187607D01*
X125096785Y-95188000D01*
X125131885Y-95188000D01*
X125147124Y-95183525D01*
X125148329Y-95182135D01*
X125150000Y-95174452D01*
X125150000Y-95169885D01*
X125750000Y-95169885D01*
X125754475Y-95185124D01*
X125755865Y-95186329D01*
X125763548Y-95188000D01*
X125796657Y-95188000D01*
X125802805Y-95187699D01*
X125940603Y-95174188D01*
X125952638Y-95171805D01*
X126130076Y-95118233D01*
X126141416Y-95113559D01*
X126305077Y-95026540D01*
X126315294Y-95019751D01*
X126458933Y-94902603D01*
X126467637Y-94893959D01*
X126585784Y-94751144D01*
X126592644Y-94740973D01*
X126680804Y-94577924D01*
X126685556Y-94566619D01*
X126707011Y-94497308D01*
X126707092Y-94491768D01*
X128120963Y-94491768D01*
X128139136Y-94553515D01*
X128143733Y-94564892D01*
X128229607Y-94729154D01*
X128236321Y-94739415D01*
X128352468Y-94883873D01*
X128361045Y-94892632D01*
X128413110Y-94936319D01*
X128452436Y-94995428D01*
X128453563Y-95066416D01*
X128436331Y-95103663D01*
X128359723Y-95216388D01*
X128292470Y-95384534D01*
X128291356Y-95391262D01*
X128291355Y-95391266D01*
X128274068Y-95495688D01*
X128262892Y-95563198D01*
X128263249Y-95570015D01*
X128263249Y-95570019D01*
X128268607Y-95672240D01*
X128272370Y-95744047D01*
X128274181Y-95750620D01*
X128274181Y-95750623D01*
X128299296Y-95841803D01*
X128320461Y-95918641D01*
X128404922Y-96078836D01*
X128409327Y-96084049D01*
X128409330Y-96084053D01*
X128517406Y-96211943D01*
X128517410Y-96211947D01*
X128521813Y-96217157D01*
X128527237Y-96221304D01*
X128527238Y-96221305D01*
X128660257Y-96323006D01*
X128660261Y-96323009D01*
X128665678Y-96327150D01*
X128747429Y-96365271D01*
X128823631Y-96400805D01*
X128823634Y-96400806D01*
X128829808Y-96403685D01*
X128836456Y-96405171D01*
X128836459Y-96405172D01*
X128942421Y-96428857D01*
X129006543Y-96443190D01*
X129012088Y-96443500D01*
X129145244Y-96443500D01*
X129280037Y-96428857D01*
X129433297Y-96377279D01*
X129445204Y-96373272D01*
X129445206Y-96373271D01*
X129451675Y-96371094D01*
X129606905Y-96277823D01*
X129611862Y-96273135D01*
X129611865Y-96273133D01*
X129733527Y-96158082D01*
X129733529Y-96158080D01*
X129738485Y-96153393D01*
X129742317Y-96147755D01*
X129742320Y-96147751D01*
X129836442Y-96009255D01*
X129840277Y-96003612D01*
X129907530Y-95835466D01*
X129908644Y-95828738D01*
X129908645Y-95828734D01*
X129935993Y-95663539D01*
X129935993Y-95663536D01*
X129937108Y-95656802D01*
X129936412Y-95643505D01*
X129927987Y-95482766D01*
X129927630Y-95475953D01*
X129892237Y-95347459D01*
X129893431Y-95276474D01*
X129932814Y-95217401D01*
X129997881Y-95188999D01*
X130013713Y-95188000D01*
X130226657Y-95188000D01*
X130232805Y-95187699D01*
X130370603Y-95174188D01*
X130382638Y-95171805D01*
X130560076Y-95118233D01*
X130571416Y-95113559D01*
X130735077Y-95026540D01*
X130745294Y-95019751D01*
X130888933Y-94902603D01*
X130897637Y-94893959D01*
X131015784Y-94751144D01*
X131022644Y-94740973D01*
X131110804Y-94577924D01*
X131115556Y-94566619D01*
X131137011Y-94497308D01*
X131137217Y-94483205D01*
X131130462Y-94480000D01*
X128135614Y-94480000D01*
X128122083Y-94483973D01*
X128120963Y-94491768D01*
X126707092Y-94491768D01*
X126707217Y-94483205D01*
X126700462Y-94480000D01*
X125768115Y-94480000D01*
X125752876Y-94484475D01*
X125751671Y-94485865D01*
X125750000Y-94493548D01*
X125750000Y-95169885D01*
X125150000Y-95169885D01*
X125150000Y-94498115D01*
X125145525Y-94482876D01*
X125144135Y-94481671D01*
X125136452Y-94480000D01*
X124205614Y-94480000D01*
X124192083Y-94483973D01*
X124190963Y-94491768D01*
X123008500Y-94491768D01*
X123008500Y-94250000D01*
X145086496Y-94250000D01*
X145087186Y-94256565D01*
X145093500Y-94316635D01*
X145106458Y-94439928D01*
X145165473Y-94621556D01*
X145260960Y-94786944D01*
X145265378Y-94791851D01*
X145265379Y-94791852D01*
X145365100Y-94902603D01*
X145388747Y-94928866D01*
X145543248Y-95041118D01*
X145549276Y-95043802D01*
X145549278Y-95043803D01*
X145705954Y-95113559D01*
X145717712Y-95118794D01*
X145811112Y-95138647D01*
X145898056Y-95157128D01*
X145898061Y-95157128D01*
X145904513Y-95158500D01*
X146095487Y-95158500D01*
X146101939Y-95157128D01*
X146101944Y-95157128D01*
X146188888Y-95138647D01*
X146282288Y-95118794D01*
X146294046Y-95113559D01*
X146450722Y-95043803D01*
X146450724Y-95043802D01*
X146456752Y-95041118D01*
X146611253Y-94928866D01*
X146634900Y-94902603D01*
X146734621Y-94791852D01*
X146734622Y-94791851D01*
X146739040Y-94786944D01*
X146834527Y-94621556D01*
X146874023Y-94500000D01*
X153336496Y-94500000D01*
X153337186Y-94506565D01*
X153354033Y-94666851D01*
X153356458Y-94689928D01*
X153415473Y-94871556D01*
X153418776Y-94877278D01*
X153418777Y-94877279D01*
X153422584Y-94883873D01*
X153510960Y-95036944D01*
X153515378Y-95041851D01*
X153515379Y-95041852D01*
X153632389Y-95171805D01*
X153638747Y-95178866D01*
X153793248Y-95291118D01*
X153799276Y-95293802D01*
X153799278Y-95293803D01*
X153961681Y-95366109D01*
X153967712Y-95368794D01*
X154061113Y-95388647D01*
X154148056Y-95407128D01*
X154148061Y-95407128D01*
X154154513Y-95408500D01*
X154345487Y-95408500D01*
X154351939Y-95407128D01*
X154351944Y-95407128D01*
X154438888Y-95388647D01*
X154532288Y-95368794D01*
X154538319Y-95366109D01*
X154700722Y-95293803D01*
X154700724Y-95293802D01*
X154706752Y-95291118D01*
X154861253Y-95178866D01*
X154867611Y-95171805D01*
X154984621Y-95041852D01*
X154984622Y-95041851D01*
X154989040Y-95036944D01*
X155077416Y-94883873D01*
X155081223Y-94877279D01*
X155081224Y-94877278D01*
X155084527Y-94871556D01*
X155143542Y-94689928D01*
X155145968Y-94666851D01*
X155146510Y-94661695D01*
X169487251Y-94661695D01*
X169487548Y-94666848D01*
X169487548Y-94666851D01*
X169493011Y-94761590D01*
X169500110Y-94884715D01*
X169501247Y-94889761D01*
X169501248Y-94889767D01*
X169513060Y-94942177D01*
X169549222Y-95102639D01*
X169610673Y-95253976D01*
X169619809Y-95276474D01*
X169633266Y-95309616D01*
X169670371Y-95370166D01*
X169747291Y-95495688D01*
X169749987Y-95500088D01*
X169896250Y-95668938D01*
X170068126Y-95811632D01*
X170119758Y-95841803D01*
X170141955Y-95854774D01*
X170190679Y-95906412D01*
X170203750Y-95976195D01*
X170177019Y-96041967D01*
X170136562Y-96075327D01*
X170128457Y-96079546D01*
X170119738Y-96085036D01*
X169949433Y-96212905D01*
X169941726Y-96219748D01*
X169794590Y-96373717D01*
X169788104Y-96381727D01*
X169668098Y-96557649D01*
X169663000Y-96566623D01*
X169573338Y-96759783D01*
X169569775Y-96769470D01*
X169528711Y-96917540D01*
X169528924Y-96931644D01*
X169536575Y-96935000D01*
X174696789Y-96935000D01*
X174710320Y-96931027D01*
X174711625Y-96921947D01*
X174681214Y-96800875D01*
X174677892Y-96791118D01*
X174592972Y-96595814D01*
X174588105Y-96586739D01*
X174472426Y-96407926D01*
X174466136Y-96399757D01*
X174322806Y-96242240D01*
X174315273Y-96235215D01*
X174148139Y-96103222D01*
X174139556Y-96097520D01*
X174102602Y-96077120D01*
X174052631Y-96026687D01*
X174037859Y-95957245D01*
X174062975Y-95890839D01*
X174090327Y-95864232D01*
X174126621Y-95838344D01*
X174269860Y-95736173D01*
X174284905Y-95721181D01*
X174383709Y-95622721D01*
X174428096Y-95578489D01*
X174487594Y-95495689D01*
X174555435Y-95401277D01*
X174558453Y-95397077D01*
X174572432Y-95368794D01*
X174655136Y-95201453D01*
X174655137Y-95201451D01*
X174657430Y-95196811D01*
X174704733Y-95041118D01*
X174720865Y-94988023D01*
X174720865Y-94988021D01*
X174722370Y-94983069D01*
X174751529Y-94761590D01*
X174753156Y-94695000D01*
X174734852Y-94472361D01*
X174680431Y-94255702D01*
X174591354Y-94050840D01*
X174478759Y-93876795D01*
X174472822Y-93867617D01*
X174472820Y-93867614D01*
X174470014Y-93863277D01*
X174319670Y-93698051D01*
X174315619Y-93694852D01*
X174315615Y-93694848D01*
X174148414Y-93562800D01*
X174148410Y-93562798D01*
X174144359Y-93559598D01*
X174103053Y-93536796D01*
X174053084Y-93486364D01*
X174038312Y-93416921D01*
X174063428Y-93350516D01*
X174090780Y-93323909D01*
X174134603Y-93292650D01*
X174269860Y-93196173D01*
X174428096Y-93038489D01*
X174487594Y-92955689D01*
X174555435Y-92861277D01*
X174558453Y-92857077D01*
X174579320Y-92814857D01*
X174655136Y-92661453D01*
X174655137Y-92661451D01*
X174657430Y-92656811D01*
X174722370Y-92443069D01*
X174751529Y-92221590D01*
X174753156Y-92155000D01*
X174734852Y-91932361D01*
X174680431Y-91715702D01*
X174591354Y-91510840D01*
X174470014Y-91323277D01*
X174319670Y-91158051D01*
X174315619Y-91154852D01*
X174315615Y-91154848D01*
X174148414Y-91022800D01*
X174148410Y-91022798D01*
X174144359Y-91019598D01*
X174103053Y-90996796D01*
X174053084Y-90946364D01*
X174038312Y-90876921D01*
X174063428Y-90810516D01*
X174090780Y-90783909D01*
X174134603Y-90752650D01*
X174269860Y-90656173D01*
X174428096Y-90498489D01*
X174487594Y-90415689D01*
X174555435Y-90321277D01*
X174558453Y-90317077D01*
X174579320Y-90274857D01*
X174655136Y-90121453D01*
X174655137Y-90121451D01*
X174657430Y-90116811D01*
X174722370Y-89903069D01*
X174751529Y-89681590D01*
X174753156Y-89615000D01*
X174734852Y-89392361D01*
X174680431Y-89175702D01*
X174591354Y-88970840D01*
X174470014Y-88783277D01*
X174319670Y-88618051D01*
X174315619Y-88614852D01*
X174315615Y-88614848D01*
X174148414Y-88482800D01*
X174148410Y-88482798D01*
X174144359Y-88479598D01*
X174103053Y-88456796D01*
X174053084Y-88406364D01*
X174038312Y-88336921D01*
X174063428Y-88270516D01*
X174090780Y-88243909D01*
X174134603Y-88212650D01*
X174269860Y-88116173D01*
X174428096Y-87958489D01*
X174487594Y-87875689D01*
X174555435Y-87781277D01*
X174558453Y-87777077D01*
X174579320Y-87734857D01*
X174655136Y-87581453D01*
X174655137Y-87581451D01*
X174657430Y-87576811D01*
X174722370Y-87363069D01*
X174751529Y-87141590D01*
X174753156Y-87075000D01*
X174734852Y-86852361D01*
X174680431Y-86635702D01*
X174591354Y-86430840D01*
X174551906Y-86369862D01*
X174472822Y-86247617D01*
X174472820Y-86247614D01*
X174470014Y-86243277D01*
X174319670Y-86078051D01*
X174315619Y-86074852D01*
X174315615Y-86074848D01*
X174148414Y-85942800D01*
X174148410Y-85942798D01*
X174144359Y-85939598D01*
X174103053Y-85916796D01*
X174053084Y-85866364D01*
X174038312Y-85796921D01*
X174063428Y-85730516D01*
X174090780Y-85703909D01*
X174134603Y-85672650D01*
X174269860Y-85576173D01*
X174428096Y-85418489D01*
X174487594Y-85335689D01*
X174555435Y-85241277D01*
X174558453Y-85237077D01*
X174579320Y-85194857D01*
X174655136Y-85041453D01*
X174655137Y-85041451D01*
X174657430Y-85036811D01*
X174722370Y-84823069D01*
X174751529Y-84601590D01*
X174753156Y-84535000D01*
X174734852Y-84312361D01*
X174680431Y-84095702D01*
X174591354Y-83890840D01*
X174470014Y-83703277D01*
X174319670Y-83538051D01*
X174315619Y-83534852D01*
X174315615Y-83534848D01*
X174148414Y-83402800D01*
X174148410Y-83402798D01*
X174144359Y-83399598D01*
X174103053Y-83376796D01*
X174053084Y-83326364D01*
X174038312Y-83256921D01*
X174063428Y-83190516D01*
X174090780Y-83163909D01*
X174134603Y-83132650D01*
X174269860Y-83036173D01*
X174428096Y-82878489D01*
X174487594Y-82795689D01*
X174555435Y-82701277D01*
X174558453Y-82697077D01*
X174579320Y-82654857D01*
X174655136Y-82501453D01*
X174655137Y-82501451D01*
X174657430Y-82496811D01*
X174722370Y-82283069D01*
X174751529Y-82061590D01*
X174753156Y-81995000D01*
X174734852Y-81772361D01*
X174680431Y-81555702D01*
X174591354Y-81350840D01*
X174470014Y-81163277D01*
X174319670Y-80998051D01*
X174315619Y-80994852D01*
X174315615Y-80994848D01*
X174148414Y-80862800D01*
X174148410Y-80862798D01*
X174144359Y-80859598D01*
X174103053Y-80836796D01*
X174053084Y-80786364D01*
X174038312Y-80716921D01*
X174063428Y-80650516D01*
X174090780Y-80623909D01*
X174134603Y-80592650D01*
X174269860Y-80496173D01*
X174428096Y-80338489D01*
X174487594Y-80255689D01*
X174555435Y-80161277D01*
X174558453Y-80157077D01*
X174579320Y-80114857D01*
X174655136Y-79961453D01*
X174655137Y-79961451D01*
X174657430Y-79956811D01*
X174722370Y-79743069D01*
X174751529Y-79521590D01*
X174753156Y-79455000D01*
X174734852Y-79232361D01*
X174680431Y-79015702D01*
X174591354Y-78810840D01*
X174493610Y-78659751D01*
X174472822Y-78627617D01*
X174472820Y-78627614D01*
X174470014Y-78623277D01*
X174319670Y-78458051D01*
X174315619Y-78454852D01*
X174315615Y-78454848D01*
X174148414Y-78322800D01*
X174148410Y-78322798D01*
X174144359Y-78319598D01*
X174103053Y-78296796D01*
X174053084Y-78246364D01*
X174038312Y-78176921D01*
X174063428Y-78110516D01*
X174090780Y-78083909D01*
X174134603Y-78052650D01*
X174269860Y-77956173D01*
X174428096Y-77798489D01*
X174487594Y-77715689D01*
X174555435Y-77621277D01*
X174558453Y-77617077D01*
X174579320Y-77574857D01*
X174655136Y-77421453D01*
X174655137Y-77421451D01*
X174657430Y-77416811D01*
X174716257Y-77223190D01*
X174720865Y-77208023D01*
X174720865Y-77208021D01*
X174722370Y-77203069D01*
X174751529Y-76981590D01*
X174753156Y-76915000D01*
X174734852Y-76692361D01*
X174680431Y-76475702D01*
X174591354Y-76270840D01*
X174518482Y-76158197D01*
X174472822Y-76087617D01*
X174472820Y-76087614D01*
X174470014Y-76083277D01*
X174319670Y-75918051D01*
X174315619Y-75914852D01*
X174315615Y-75914848D01*
X174148414Y-75782800D01*
X174148410Y-75782798D01*
X174144359Y-75779598D01*
X174102569Y-75756529D01*
X174052598Y-75706097D01*
X174037826Y-75636654D01*
X174062942Y-75570248D01*
X174090294Y-75543641D01*
X174265328Y-75418792D01*
X174273200Y-75412139D01*
X174424052Y-75261812D01*
X174430730Y-75253965D01*
X174555003Y-75081020D01*
X174560313Y-75072183D01*
X174654670Y-74881267D01*
X174658469Y-74871672D01*
X174712957Y-74692333D01*
X174713089Y-74678233D01*
X174706182Y-74675000D01*
X169510116Y-74675000D01*
X169494877Y-74679475D01*
X169493672Y-74680865D01*
X169492001Y-74688548D01*
X169492001Y-75269669D01*
X169492371Y-75276490D01*
X169497895Y-75327352D01*
X169501521Y-75342604D01*
X169546676Y-75463054D01*
X169555214Y-75478649D01*
X169631715Y-75580724D01*
X169644276Y-75593285D01*
X169746351Y-75669786D01*
X169761946Y-75678324D01*
X169870827Y-75719142D01*
X169927591Y-75761784D01*
X169952291Y-75828345D01*
X169937083Y-75897694D01*
X169917691Y-75924175D01*
X169848683Y-75996388D01*
X169790629Y-76057138D01*
X169787720Y-76061403D01*
X169787714Y-76061411D01*
X169721691Y-76158197D01*
X169664743Y-76241680D01*
X169649003Y-76275590D01*
X169574171Y-76436802D01*
X169570688Y-76444305D01*
X169510989Y-76659570D01*
X169487251Y-76881695D01*
X169487548Y-76886848D01*
X169487548Y-76886851D01*
X169497174Y-77053794D01*
X169500110Y-77104715D01*
X169501247Y-77109761D01*
X169501248Y-77109767D01*
X169510562Y-77151094D01*
X169549222Y-77322639D01*
X169587461Y-77416811D01*
X169628194Y-77517124D01*
X169633266Y-77529616D01*
X169684019Y-77612438D01*
X169747291Y-77715688D01*
X169749987Y-77720088D01*
X169896250Y-77888938D01*
X170068126Y-78031632D01*
X170119166Y-78061457D01*
X170141445Y-78074476D01*
X170190169Y-78126114D01*
X170203240Y-78195897D01*
X170176509Y-78261669D01*
X170136055Y-78295027D01*
X170123607Y-78301507D01*
X170119474Y-78304610D01*
X170119471Y-78304612D01*
X169949100Y-78432530D01*
X169944965Y-78435635D01*
X169790629Y-78597138D01*
X169664743Y-78781680D01*
X169570688Y-78984305D01*
X169510989Y-79199570D01*
X169487251Y-79421695D01*
X169487548Y-79426848D01*
X169487548Y-79426851D01*
X169493011Y-79521590D01*
X169500110Y-79644715D01*
X169501247Y-79649761D01*
X169501248Y-79649767D01*
X169509653Y-79687061D01*
X169549222Y-79862639D01*
X169633266Y-80069616D01*
X169684019Y-80152438D01*
X169747291Y-80255688D01*
X169749987Y-80260088D01*
X169896250Y-80428938D01*
X170068126Y-80571632D01*
X170138595Y-80612811D01*
X170141445Y-80614476D01*
X170190169Y-80666114D01*
X170203240Y-80735897D01*
X170176509Y-80801669D01*
X170136055Y-80835027D01*
X170123607Y-80841507D01*
X170119474Y-80844610D01*
X170119471Y-80844612D01*
X170095247Y-80862800D01*
X169944965Y-80975635D01*
X169790629Y-81137138D01*
X169664743Y-81321680D01*
X169570688Y-81524305D01*
X169510989Y-81739570D01*
X169487251Y-81961695D01*
X169487548Y-81966848D01*
X169487548Y-81966851D01*
X169493011Y-82061590D01*
X169500110Y-82184715D01*
X169501247Y-82189761D01*
X169501248Y-82189767D01*
X169521119Y-82277939D01*
X169549222Y-82402639D01*
X169633266Y-82609616D01*
X169684019Y-82692438D01*
X169747291Y-82795688D01*
X169749987Y-82800088D01*
X169896250Y-82968938D01*
X170068126Y-83111632D01*
X170138595Y-83152811D01*
X170141445Y-83154476D01*
X170190169Y-83206114D01*
X170203240Y-83275897D01*
X170176509Y-83341669D01*
X170136055Y-83375027D01*
X170123607Y-83381507D01*
X170119474Y-83384610D01*
X170119471Y-83384612D01*
X170095247Y-83402800D01*
X169944965Y-83515635D01*
X169790629Y-83677138D01*
X169664743Y-83861680D01*
X169570688Y-84064305D01*
X169510989Y-84279570D01*
X169487251Y-84501695D01*
X169487548Y-84506848D01*
X169487548Y-84506851D01*
X169493011Y-84601590D01*
X169500110Y-84724715D01*
X169501247Y-84729761D01*
X169501248Y-84729767D01*
X169521119Y-84817939D01*
X169549222Y-84942639D01*
X169587461Y-85036811D01*
X169625791Y-85131206D01*
X169633266Y-85149616D01*
X169671962Y-85212763D01*
X169747291Y-85335688D01*
X169749987Y-85340088D01*
X169896250Y-85508938D01*
X170068126Y-85651632D01*
X170138595Y-85692811D01*
X170141445Y-85694476D01*
X170190169Y-85746114D01*
X170203240Y-85815897D01*
X170176509Y-85881669D01*
X170136055Y-85915027D01*
X170123607Y-85921507D01*
X170119474Y-85924610D01*
X170119471Y-85924612D01*
X170010320Y-86006565D01*
X169944965Y-86055635D01*
X169941393Y-86059373D01*
X169816632Y-86189928D01*
X169790629Y-86217138D01*
X169664743Y-86401680D01*
X169628005Y-86480825D01*
X169599678Y-86541852D01*
X169570688Y-86604305D01*
X169510989Y-86819570D01*
X169487251Y-87041695D01*
X169487548Y-87046848D01*
X169487548Y-87046851D01*
X169493011Y-87141590D01*
X169500110Y-87264715D01*
X169501247Y-87269761D01*
X169501248Y-87269767D01*
X169521119Y-87357939D01*
X169549222Y-87482639D01*
X169633266Y-87689616D01*
X169684019Y-87772438D01*
X169747291Y-87875688D01*
X169749987Y-87880088D01*
X169896250Y-88048938D01*
X170068126Y-88191632D01*
X170138595Y-88232811D01*
X170141445Y-88234476D01*
X170190169Y-88286114D01*
X170203240Y-88355897D01*
X170176509Y-88421669D01*
X170136055Y-88455027D01*
X170123607Y-88461507D01*
X170119474Y-88464610D01*
X170119471Y-88464612D01*
X170095247Y-88482800D01*
X169944965Y-88595635D01*
X169790629Y-88757138D01*
X169664743Y-88941680D01*
X169570688Y-89144305D01*
X169510989Y-89359570D01*
X169487251Y-89581695D01*
X169487548Y-89586848D01*
X169487548Y-89586851D01*
X169493011Y-89681590D01*
X169500110Y-89804715D01*
X169501247Y-89809761D01*
X169501248Y-89809767D01*
X169521119Y-89897939D01*
X169549222Y-90022639D01*
X169633266Y-90229616D01*
X169684019Y-90312438D01*
X169747291Y-90415688D01*
X169749987Y-90420088D01*
X169896250Y-90588938D01*
X170068126Y-90731632D01*
X170138595Y-90772811D01*
X170141445Y-90774476D01*
X170190169Y-90826114D01*
X170203240Y-90895897D01*
X170176509Y-90961669D01*
X170136055Y-90995027D01*
X170123607Y-91001507D01*
X170119474Y-91004610D01*
X170119471Y-91004612D01*
X170095247Y-91022800D01*
X169944965Y-91135635D01*
X169790629Y-91297138D01*
X169664743Y-91481680D01*
X169570688Y-91684305D01*
X169510989Y-91899570D01*
X169487251Y-92121695D01*
X169487548Y-92126848D01*
X169487548Y-92126851D01*
X169493011Y-92221590D01*
X169500110Y-92344715D01*
X169501247Y-92349761D01*
X169501248Y-92349767D01*
X169521119Y-92437939D01*
X169549222Y-92562639D01*
X169633266Y-92769616D01*
X169684019Y-92852438D01*
X169747291Y-92955688D01*
X169749987Y-92960088D01*
X169896250Y-93128938D01*
X170068126Y-93271632D01*
X170138595Y-93312811D01*
X170141445Y-93314476D01*
X170190169Y-93366114D01*
X170203240Y-93435897D01*
X170176509Y-93501669D01*
X170136055Y-93535027D01*
X170123607Y-93541507D01*
X170119474Y-93544610D01*
X170119471Y-93544612D01*
X169949100Y-93672530D01*
X169944965Y-93675635D01*
X169941393Y-93679373D01*
X169843248Y-93782076D01*
X169790629Y-93837138D01*
X169787720Y-93841403D01*
X169787714Y-93841411D01*
X169758165Y-93884729D01*
X169664743Y-94021680D01*
X169570688Y-94224305D01*
X169510989Y-94439570D01*
X169487251Y-94661695D01*
X155146510Y-94661695D01*
X155162814Y-94506565D01*
X155163504Y-94500000D01*
X155161402Y-94480000D01*
X155144232Y-94316635D01*
X155144232Y-94316633D01*
X155143542Y-94310072D01*
X155084527Y-94128444D01*
X154989040Y-93963056D01*
X154903107Y-93867617D01*
X154865675Y-93826045D01*
X154865674Y-93826044D01*
X154861253Y-93821134D01*
X154706752Y-93708882D01*
X154700724Y-93706198D01*
X154700722Y-93706197D01*
X154538319Y-93633891D01*
X154538318Y-93633891D01*
X154532288Y-93631206D01*
X154427140Y-93608856D01*
X154351944Y-93592872D01*
X154351939Y-93592872D01*
X154345487Y-93591500D01*
X154154513Y-93591500D01*
X154148061Y-93592872D01*
X154148056Y-93592872D01*
X154072860Y-93608856D01*
X153967712Y-93631206D01*
X153961682Y-93633891D01*
X153961681Y-93633891D01*
X153799278Y-93706197D01*
X153799276Y-93706198D01*
X153793248Y-93708882D01*
X153638747Y-93821134D01*
X153634326Y-93826044D01*
X153634325Y-93826045D01*
X153596894Y-93867617D01*
X153510960Y-93963056D01*
X153415473Y-94128444D01*
X153356458Y-94310072D01*
X153355768Y-94316633D01*
X153355768Y-94316635D01*
X153338598Y-94480000D01*
X153336496Y-94500000D01*
X146874023Y-94500000D01*
X146893542Y-94439928D01*
X146906501Y-94316635D01*
X146912814Y-94256565D01*
X146913504Y-94250000D01*
X146893542Y-94060072D01*
X146834527Y-93878444D01*
X146827604Y-93866452D01*
X146742341Y-93718774D01*
X146739040Y-93713056D01*
X146725530Y-93698051D01*
X146615675Y-93576045D01*
X146615674Y-93576044D01*
X146611253Y-93571134D01*
X146468432Y-93467368D01*
X146462094Y-93462763D01*
X146462093Y-93462762D01*
X146456752Y-93458882D01*
X146450724Y-93456198D01*
X146450722Y-93456197D01*
X146288319Y-93383891D01*
X146288318Y-93383891D01*
X146282288Y-93381206D01*
X146188887Y-93361353D01*
X146101944Y-93342872D01*
X146101939Y-93342872D01*
X146095487Y-93341500D01*
X145904513Y-93341500D01*
X145898061Y-93342872D01*
X145898056Y-93342872D01*
X145811113Y-93361353D01*
X145717712Y-93381206D01*
X145711682Y-93383891D01*
X145711681Y-93383891D01*
X145549278Y-93456197D01*
X145549276Y-93456198D01*
X145543248Y-93458882D01*
X145537907Y-93462762D01*
X145537906Y-93462763D01*
X145531568Y-93467368D01*
X145388747Y-93571134D01*
X145384326Y-93576044D01*
X145384325Y-93576045D01*
X145274471Y-93698051D01*
X145260960Y-93713056D01*
X145257659Y-93718774D01*
X145172397Y-93866452D01*
X145165473Y-93878444D01*
X145106458Y-94060072D01*
X145086496Y-94250000D01*
X123008500Y-94250000D01*
X123008500Y-93876795D01*
X124192783Y-93876795D01*
X124199538Y-93880000D01*
X125131885Y-93880000D01*
X125147124Y-93875525D01*
X125148329Y-93874135D01*
X125150000Y-93866452D01*
X125150000Y-93861885D01*
X125750000Y-93861885D01*
X125754475Y-93877124D01*
X125755865Y-93878329D01*
X125763548Y-93880000D01*
X126694386Y-93880000D01*
X126705301Y-93876795D01*
X128122783Y-93876795D01*
X128129538Y-93880000D01*
X129311885Y-93880000D01*
X129327124Y-93875525D01*
X129328329Y-93874135D01*
X129330000Y-93866452D01*
X129330000Y-93861885D01*
X129930000Y-93861885D01*
X129934475Y-93877124D01*
X129935865Y-93878329D01*
X129943548Y-93880000D01*
X131124386Y-93880000D01*
X131137917Y-93876027D01*
X131139037Y-93868232D01*
X131120864Y-93806485D01*
X131116267Y-93795108D01*
X131030393Y-93630846D01*
X131023679Y-93620585D01*
X130907532Y-93476127D01*
X130898954Y-93467368D01*
X130756961Y-93348222D01*
X130746841Y-93341292D01*
X130584415Y-93251998D01*
X130573142Y-93247166D01*
X130396462Y-93191120D01*
X130384468Y-93188570D01*
X130240239Y-93172393D01*
X130233215Y-93172000D01*
X129948115Y-93172000D01*
X129932876Y-93176475D01*
X129931671Y-93177865D01*
X129930000Y-93185548D01*
X129930000Y-93861885D01*
X129330000Y-93861885D01*
X129330000Y-93190115D01*
X129325525Y-93174876D01*
X129324135Y-93173671D01*
X129316452Y-93172000D01*
X129033343Y-93172000D01*
X129027195Y-93172301D01*
X128889397Y-93185812D01*
X128877362Y-93188195D01*
X128699924Y-93241767D01*
X128688584Y-93246441D01*
X128524923Y-93333460D01*
X128514706Y-93340249D01*
X128371067Y-93457397D01*
X128362363Y-93466041D01*
X128244216Y-93608856D01*
X128237356Y-93619027D01*
X128149196Y-93782076D01*
X128144444Y-93793381D01*
X128122989Y-93862692D01*
X128122783Y-93876795D01*
X126705301Y-93876795D01*
X126707917Y-93876027D01*
X126709037Y-93868232D01*
X126690864Y-93806485D01*
X126686267Y-93795108D01*
X126600393Y-93630846D01*
X126593679Y-93620585D01*
X126477532Y-93476127D01*
X126468954Y-93467368D01*
X126326961Y-93348222D01*
X126316841Y-93341292D01*
X126154415Y-93251998D01*
X126143142Y-93247166D01*
X125966462Y-93191120D01*
X125954468Y-93188570D01*
X125810239Y-93172393D01*
X125803215Y-93172000D01*
X125768115Y-93172000D01*
X125752876Y-93176475D01*
X125751671Y-93177865D01*
X125750000Y-93185548D01*
X125750000Y-93861885D01*
X125150000Y-93861885D01*
X125150000Y-93190115D01*
X125145525Y-93174876D01*
X125144135Y-93173671D01*
X125136452Y-93172000D01*
X125103343Y-93172000D01*
X125097195Y-93172301D01*
X124959397Y-93185812D01*
X124947362Y-93188195D01*
X124769924Y-93241767D01*
X124758584Y-93246441D01*
X124594923Y-93333460D01*
X124584706Y-93340249D01*
X124441067Y-93457397D01*
X124432363Y-93466041D01*
X124314216Y-93608856D01*
X124307356Y-93619027D01*
X124219196Y-93782076D01*
X124214444Y-93793381D01*
X124192989Y-93862692D01*
X124192783Y-93876795D01*
X123008500Y-93876795D01*
X123008500Y-86000000D01*
X149836496Y-86000000D01*
X149837186Y-86006565D01*
X149851409Y-86141885D01*
X149856458Y-86189928D01*
X149915473Y-86371556D01*
X150010960Y-86536944D01*
X150015378Y-86541851D01*
X150015379Y-86541852D01*
X150104400Y-86640720D01*
X150138747Y-86678866D01*
X150293248Y-86791118D01*
X150299276Y-86793802D01*
X150299278Y-86793803D01*
X150461681Y-86866109D01*
X150467712Y-86868794D01*
X150561112Y-86888647D01*
X150648056Y-86907128D01*
X150648061Y-86907128D01*
X150654513Y-86908500D01*
X150724212Y-86908500D01*
X150792333Y-86928502D01*
X150838826Y-86982158D01*
X150849522Y-87021329D01*
X150862511Y-87144908D01*
X150868509Y-87201979D01*
X150927524Y-87383607D01*
X151023011Y-87548995D01*
X151027429Y-87553902D01*
X151027430Y-87553903D01*
X151052236Y-87581453D01*
X151150798Y-87690917D01*
X151194440Y-87722625D01*
X151270696Y-87778028D01*
X151305299Y-87803169D01*
X151311327Y-87805853D01*
X151311329Y-87805854D01*
X151468180Y-87875688D01*
X151479763Y-87880845D01*
X151573163Y-87900698D01*
X151660107Y-87919179D01*
X151660112Y-87919179D01*
X151666564Y-87920551D01*
X151857538Y-87920551D01*
X151863990Y-87919179D01*
X151863995Y-87919179D01*
X151950938Y-87900698D01*
X152044339Y-87880845D01*
X152055922Y-87875688D01*
X152212773Y-87805854D01*
X152212775Y-87805853D01*
X152218803Y-87803169D01*
X152253407Y-87778028D01*
X152329662Y-87722625D01*
X152373304Y-87690917D01*
X152471866Y-87581453D01*
X152496672Y-87553903D01*
X152496673Y-87553902D01*
X152501091Y-87548995D01*
X152596578Y-87383607D01*
X152655593Y-87201979D01*
X152675555Y-87012051D01*
X152666774Y-86928502D01*
X152656283Y-86828686D01*
X152656283Y-86828684D01*
X152655593Y-86822123D01*
X152596578Y-86640495D01*
X152591070Y-86630954D01*
X152504392Y-86480825D01*
X152501091Y-86475107D01*
X152458489Y-86427792D01*
X152377726Y-86338096D01*
X152377725Y-86338095D01*
X152373304Y-86333185D01*
X152218803Y-86220933D01*
X152212775Y-86218249D01*
X152212773Y-86218248D01*
X152050370Y-86145942D01*
X152050369Y-86145942D01*
X152044339Y-86143257D01*
X151950939Y-86123404D01*
X151863995Y-86104923D01*
X151863990Y-86104923D01*
X151857538Y-86103551D01*
X151787839Y-86103551D01*
X151719718Y-86083549D01*
X151673225Y-86029893D01*
X151662529Y-85990722D01*
X151644232Y-85816634D01*
X151644231Y-85816631D01*
X151643542Y-85810072D01*
X151584527Y-85628444D01*
X151489040Y-85463056D01*
X151452197Y-85422137D01*
X151365675Y-85326045D01*
X151365674Y-85326044D01*
X151361253Y-85321134D01*
X151206752Y-85208882D01*
X151200724Y-85206198D01*
X151200722Y-85206197D01*
X151038319Y-85133891D01*
X151038318Y-85133891D01*
X151032288Y-85131206D01*
X150938888Y-85111353D01*
X150851944Y-85092872D01*
X150851939Y-85092872D01*
X150845487Y-85091500D01*
X150654513Y-85091500D01*
X150648061Y-85092872D01*
X150648056Y-85092872D01*
X150561112Y-85111353D01*
X150467712Y-85131206D01*
X150461682Y-85133891D01*
X150461681Y-85133891D01*
X150299278Y-85206197D01*
X150299276Y-85206198D01*
X150293248Y-85208882D01*
X150138747Y-85321134D01*
X150134326Y-85326044D01*
X150134325Y-85326045D01*
X150047804Y-85422137D01*
X150010960Y-85463056D01*
X149915473Y-85628444D01*
X149856458Y-85810072D01*
X149855768Y-85816633D01*
X149855768Y-85816635D01*
X149842844Y-85939598D01*
X149836496Y-86000000D01*
X123008500Y-86000000D01*
X123008500Y-79250000D01*
X149536693Y-79250000D01*
X149555885Y-79469371D01*
X149612880Y-79682076D01*
X149656415Y-79775438D01*
X149703618Y-79876666D01*
X149703621Y-79876671D01*
X149705944Y-79881653D01*
X149709100Y-79886160D01*
X149709101Y-79886162D01*
X149761821Y-79961453D01*
X149832251Y-80062038D01*
X149987962Y-80217749D01*
X149992471Y-80220906D01*
X149992473Y-80220908D01*
X150048428Y-80260088D01*
X150168346Y-80344056D01*
X150367924Y-80437120D01*
X150580629Y-80494115D01*
X150800000Y-80513307D01*
X151019371Y-80494115D01*
X151232076Y-80437120D01*
X151431654Y-80344056D01*
X151551572Y-80260088D01*
X151607527Y-80220908D01*
X151607529Y-80220906D01*
X151612038Y-80217749D01*
X151767749Y-80062038D01*
X151838180Y-79961453D01*
X151890899Y-79886162D01*
X151890900Y-79886160D01*
X151894056Y-79881653D01*
X151896379Y-79876671D01*
X151896382Y-79876666D01*
X151943585Y-79775438D01*
X151987120Y-79682076D01*
X152044115Y-79469371D01*
X152063307Y-79250000D01*
X154416693Y-79250000D01*
X154435885Y-79469371D01*
X154492880Y-79682076D01*
X154536415Y-79775438D01*
X154583618Y-79876666D01*
X154583621Y-79876671D01*
X154585944Y-79881653D01*
X154589100Y-79886160D01*
X154589101Y-79886162D01*
X154641821Y-79961453D01*
X154712251Y-80062038D01*
X154867962Y-80217749D01*
X154872471Y-80220906D01*
X154872473Y-80220908D01*
X154928428Y-80260088D01*
X155048346Y-80344056D01*
X155247924Y-80437120D01*
X155460629Y-80494115D01*
X155680000Y-80513307D01*
X155899371Y-80494115D01*
X156112076Y-80437120D01*
X156311654Y-80344056D01*
X156431572Y-80260088D01*
X156487527Y-80220908D01*
X156487529Y-80220906D01*
X156492038Y-80217749D01*
X156647749Y-80062038D01*
X156718180Y-79961453D01*
X156770899Y-79886162D01*
X156770900Y-79886160D01*
X156774056Y-79881653D01*
X156776379Y-79876671D01*
X156776382Y-79876666D01*
X156823585Y-79775438D01*
X156867120Y-79682076D01*
X156924115Y-79469371D01*
X156943307Y-79250000D01*
X156924115Y-79030629D01*
X156867120Y-78817924D01*
X156778379Y-78627617D01*
X156776382Y-78623334D01*
X156776379Y-78623329D01*
X156774056Y-78618347D01*
X156770899Y-78613838D01*
X156650908Y-78442473D01*
X156650906Y-78442470D01*
X156647749Y-78437962D01*
X156492038Y-78282251D01*
X156440787Y-78246364D01*
X156384025Y-78206619D01*
X156311654Y-78155944D01*
X156112076Y-78062880D01*
X155899371Y-78005885D01*
X155680000Y-77986693D01*
X155460629Y-78005885D01*
X155247924Y-78062880D01*
X155198566Y-78085896D01*
X155053334Y-78153618D01*
X155053329Y-78153621D01*
X155048347Y-78155944D01*
X155043840Y-78159100D01*
X155043838Y-78159101D01*
X154872473Y-78279092D01*
X154872470Y-78279094D01*
X154867962Y-78282251D01*
X154712251Y-78437962D01*
X154709094Y-78442470D01*
X154709092Y-78442473D01*
X154589101Y-78613838D01*
X154585944Y-78618347D01*
X154583621Y-78623329D01*
X154583618Y-78623334D01*
X154581621Y-78627617D01*
X154492880Y-78817924D01*
X154435885Y-79030629D01*
X154416693Y-79250000D01*
X152063307Y-79250000D01*
X152044115Y-79030629D01*
X151987120Y-78817924D01*
X151898379Y-78627617D01*
X151896382Y-78623334D01*
X151896379Y-78623329D01*
X151894056Y-78618347D01*
X151890899Y-78613838D01*
X151770908Y-78442473D01*
X151770906Y-78442470D01*
X151767749Y-78437962D01*
X151612038Y-78282251D01*
X151560787Y-78246364D01*
X151504025Y-78206619D01*
X151431654Y-78155944D01*
X151232076Y-78062880D01*
X151019371Y-78005885D01*
X150800000Y-77986693D01*
X150580629Y-78005885D01*
X150367924Y-78062880D01*
X150318566Y-78085896D01*
X150173334Y-78153618D01*
X150173329Y-78153621D01*
X150168347Y-78155944D01*
X150163840Y-78159100D01*
X150163838Y-78159101D01*
X149992473Y-78279092D01*
X149992470Y-78279094D01*
X149987962Y-78282251D01*
X149832251Y-78437962D01*
X149829094Y-78442470D01*
X149829092Y-78442473D01*
X149709101Y-78613838D01*
X149705944Y-78618347D01*
X149703621Y-78623329D01*
X149703618Y-78623334D01*
X149701621Y-78627617D01*
X149612880Y-78817924D01*
X149555885Y-79030629D01*
X149536693Y-79250000D01*
X123008500Y-79250000D01*
X123008500Y-78131768D01*
X124190963Y-78131768D01*
X124209136Y-78193515D01*
X124213733Y-78204892D01*
X124299607Y-78369154D01*
X124306321Y-78379415D01*
X124422468Y-78523873D01*
X124431046Y-78532632D01*
X124573039Y-78651778D01*
X124583159Y-78658708D01*
X124745585Y-78748002D01*
X124756858Y-78752834D01*
X124933538Y-78808880D01*
X124945532Y-78811430D01*
X125089761Y-78827607D01*
X125096785Y-78828000D01*
X125131885Y-78828000D01*
X125147124Y-78823525D01*
X125148329Y-78822135D01*
X125150000Y-78814452D01*
X125150000Y-78809885D01*
X125750000Y-78809885D01*
X125754475Y-78825124D01*
X125755865Y-78826329D01*
X125763548Y-78828000D01*
X125796657Y-78828000D01*
X125802805Y-78827699D01*
X125940603Y-78814188D01*
X125952638Y-78811805D01*
X126130076Y-78758233D01*
X126141416Y-78753559D01*
X126305077Y-78666540D01*
X126315294Y-78659751D01*
X126458933Y-78542603D01*
X126467637Y-78533959D01*
X126585784Y-78391144D01*
X126592644Y-78380973D01*
X126680804Y-78217924D01*
X126685556Y-78206619D01*
X126707011Y-78137308D01*
X126707092Y-78131768D01*
X128120963Y-78131768D01*
X128139136Y-78193515D01*
X128143733Y-78204892D01*
X128229607Y-78369154D01*
X128236321Y-78379415D01*
X128352468Y-78523873D01*
X128361046Y-78532632D01*
X128503039Y-78651778D01*
X128513159Y-78658708D01*
X128675585Y-78748002D01*
X128686858Y-78752834D01*
X128863538Y-78808880D01*
X128875532Y-78811430D01*
X129019761Y-78827607D01*
X129026785Y-78828000D01*
X129311885Y-78828000D01*
X129327124Y-78823525D01*
X129328329Y-78822135D01*
X129330000Y-78814452D01*
X129330000Y-78809885D01*
X129930000Y-78809885D01*
X129934475Y-78825124D01*
X129935865Y-78826329D01*
X129943548Y-78828000D01*
X130226657Y-78828000D01*
X130232805Y-78827699D01*
X130370603Y-78814188D01*
X130382638Y-78811805D01*
X130560076Y-78758233D01*
X130571416Y-78753559D01*
X130735077Y-78666540D01*
X130745294Y-78659751D01*
X130888933Y-78542603D01*
X130897637Y-78533959D01*
X131015784Y-78391144D01*
X131022644Y-78380973D01*
X131110804Y-78217924D01*
X131115556Y-78206619D01*
X131137011Y-78137308D01*
X131137217Y-78123205D01*
X131130462Y-78120000D01*
X129948115Y-78120000D01*
X129932876Y-78124475D01*
X129931671Y-78125865D01*
X129930000Y-78133548D01*
X129930000Y-78809885D01*
X129330000Y-78809885D01*
X129330000Y-78138115D01*
X129325525Y-78122876D01*
X129324135Y-78121671D01*
X129316452Y-78120000D01*
X128135614Y-78120000D01*
X128122083Y-78123973D01*
X128120963Y-78131768D01*
X126707092Y-78131768D01*
X126707217Y-78123205D01*
X126700462Y-78120000D01*
X125768115Y-78120000D01*
X125752876Y-78124475D01*
X125751671Y-78125865D01*
X125750000Y-78133548D01*
X125750000Y-78809885D01*
X125150000Y-78809885D01*
X125150000Y-78138115D01*
X125145525Y-78122876D01*
X125144135Y-78121671D01*
X125136452Y-78120000D01*
X124205614Y-78120000D01*
X124192083Y-78123973D01*
X124190963Y-78131768D01*
X123008500Y-78131768D01*
X123008500Y-77516795D01*
X124192783Y-77516795D01*
X124199538Y-77520000D01*
X125131885Y-77520000D01*
X125147124Y-77515525D01*
X125148329Y-77514135D01*
X125150000Y-77506452D01*
X125150000Y-77501885D01*
X125750000Y-77501885D01*
X125754475Y-77517124D01*
X125755865Y-77518329D01*
X125763548Y-77520000D01*
X126694386Y-77520000D01*
X126705301Y-77516795D01*
X128122783Y-77516795D01*
X128129538Y-77520000D01*
X131124386Y-77520000D01*
X131137917Y-77516027D01*
X131139037Y-77508232D01*
X131120864Y-77446485D01*
X131116267Y-77435108D01*
X131030393Y-77270846D01*
X131023679Y-77260585D01*
X131015168Y-77250000D01*
X145336496Y-77250000D01*
X145337186Y-77256565D01*
X145353508Y-77411857D01*
X145356458Y-77439928D01*
X145415473Y-77621556D01*
X145510960Y-77786944D01*
X145638747Y-77928866D01*
X145676332Y-77956173D01*
X145780192Y-78031632D01*
X145793248Y-78041118D01*
X145799276Y-78043802D01*
X145799278Y-78043803D01*
X145949119Y-78110516D01*
X145967712Y-78118794D01*
X146028750Y-78131768D01*
X146148056Y-78157128D01*
X146148061Y-78157128D01*
X146154513Y-78158500D01*
X146345487Y-78158500D01*
X146351939Y-78157128D01*
X146351944Y-78157128D01*
X146471250Y-78131768D01*
X146532288Y-78118794D01*
X146550881Y-78110516D01*
X146700722Y-78043803D01*
X146700724Y-78043802D01*
X146706752Y-78041118D01*
X146719809Y-78031632D01*
X146823668Y-77956173D01*
X146861253Y-77928866D01*
X146989040Y-77786944D01*
X147084527Y-77621556D01*
X147143542Y-77439928D01*
X147146493Y-77411857D01*
X147162814Y-77256565D01*
X147163504Y-77250000D01*
X147148490Y-77107150D01*
X147144232Y-77066635D01*
X147144232Y-77066633D01*
X147143542Y-77060072D01*
X147084527Y-76878444D01*
X146989040Y-76713056D01*
X146945507Y-76664707D01*
X146865675Y-76576045D01*
X146865674Y-76576044D01*
X146861253Y-76571134D01*
X146706752Y-76458882D01*
X146700724Y-76456198D01*
X146700722Y-76456197D01*
X146538319Y-76383891D01*
X146538318Y-76383891D01*
X146532288Y-76381206D01*
X146438888Y-76361353D01*
X146351944Y-76342872D01*
X146351939Y-76342872D01*
X146345487Y-76341500D01*
X146154513Y-76341500D01*
X146148061Y-76342872D01*
X146148056Y-76342872D01*
X146061112Y-76361353D01*
X145967712Y-76381206D01*
X145961682Y-76383891D01*
X145961681Y-76383891D01*
X145799278Y-76456197D01*
X145799276Y-76456198D01*
X145793248Y-76458882D01*
X145638747Y-76571134D01*
X145634326Y-76576044D01*
X145634325Y-76576045D01*
X145554494Y-76664707D01*
X145510960Y-76713056D01*
X145415473Y-76878444D01*
X145356458Y-77060072D01*
X145355768Y-77066633D01*
X145355768Y-77066635D01*
X145351510Y-77107150D01*
X145336496Y-77250000D01*
X131015168Y-77250000D01*
X130907532Y-77116127D01*
X130898954Y-77107368D01*
X130756961Y-76988222D01*
X130746841Y-76981292D01*
X130584415Y-76891998D01*
X130573142Y-76887166D01*
X130396462Y-76831120D01*
X130384468Y-76828570D01*
X130240239Y-76812393D01*
X130233215Y-76812000D01*
X130015023Y-76812000D01*
X129946902Y-76791998D01*
X129900409Y-76738342D01*
X129890305Y-76668068D01*
X129898034Y-76639208D01*
X129904995Y-76621803D01*
X129907530Y-76615466D01*
X129908644Y-76608738D01*
X129908645Y-76608734D01*
X129935993Y-76443539D01*
X129935993Y-76443536D01*
X129937108Y-76436802D01*
X129936564Y-76426406D01*
X129927987Y-76262766D01*
X129927630Y-76255953D01*
X129922283Y-76236538D01*
X129881352Y-76087941D01*
X129879539Y-76081359D01*
X129795078Y-75921164D01*
X129790673Y-75915951D01*
X129790670Y-75915947D01*
X129682594Y-75788057D01*
X129682590Y-75788053D01*
X129678187Y-75782843D01*
X129643770Y-75756529D01*
X129539743Y-75676994D01*
X129539739Y-75676991D01*
X129534322Y-75672850D01*
X129429186Y-75623825D01*
X129376369Y-75599195D01*
X129376366Y-75599194D01*
X129370192Y-75596315D01*
X129363544Y-75594829D01*
X129363541Y-75594828D01*
X129198494Y-75557936D01*
X129198495Y-75557936D01*
X129193457Y-75556810D01*
X129187912Y-75556500D01*
X129054756Y-75556500D01*
X128919963Y-75571143D01*
X128836609Y-75599195D01*
X128754796Y-75626728D01*
X128754794Y-75626729D01*
X128748325Y-75628906D01*
X128593095Y-75722177D01*
X128588138Y-75726865D01*
X128588135Y-75726867D01*
X128523429Y-75788057D01*
X128461515Y-75846607D01*
X128457683Y-75852245D01*
X128457680Y-75852249D01*
X128410366Y-75921870D01*
X128359723Y-75996388D01*
X128292470Y-76164534D01*
X128291356Y-76171262D01*
X128291355Y-76171266D01*
X128264007Y-76336461D01*
X128262892Y-76343198D01*
X128263249Y-76350015D01*
X128263249Y-76350019D01*
X128267945Y-76439610D01*
X128272370Y-76524047D01*
X128274181Y-76530620D01*
X128274181Y-76530623D01*
X128297551Y-76615466D01*
X128320461Y-76698641D01*
X128404922Y-76858836D01*
X128409327Y-76864049D01*
X128409330Y-76864053D01*
X128427694Y-76885783D01*
X128456386Y-76950724D01*
X128445413Y-77020868D01*
X128411092Y-77064754D01*
X128371067Y-77097397D01*
X128362363Y-77106041D01*
X128244216Y-77248856D01*
X128237356Y-77259027D01*
X128149196Y-77422076D01*
X128144444Y-77433381D01*
X128122989Y-77502692D01*
X128122783Y-77516795D01*
X126705301Y-77516795D01*
X126707917Y-77516027D01*
X126709037Y-77508232D01*
X126690864Y-77446485D01*
X126686267Y-77435108D01*
X126600393Y-77270846D01*
X126593679Y-77260585D01*
X126477532Y-77116127D01*
X126468954Y-77107368D01*
X126326961Y-76988222D01*
X126316841Y-76981292D01*
X126154415Y-76891998D01*
X126143142Y-76887166D01*
X125966462Y-76831120D01*
X125954468Y-76828570D01*
X125810239Y-76812393D01*
X125803215Y-76812000D01*
X125768115Y-76812000D01*
X125752876Y-76816475D01*
X125751671Y-76817865D01*
X125750000Y-76825548D01*
X125750000Y-77501885D01*
X125150000Y-77501885D01*
X125150000Y-76830115D01*
X125145525Y-76814876D01*
X125144135Y-76813671D01*
X125136452Y-76812000D01*
X125103343Y-76812000D01*
X125097195Y-76812301D01*
X124959397Y-76825812D01*
X124947362Y-76828195D01*
X124769924Y-76881767D01*
X124758584Y-76886441D01*
X124594923Y-76973460D01*
X124584706Y-76980249D01*
X124441067Y-77097397D01*
X124432363Y-77106041D01*
X124314216Y-77248856D01*
X124307356Y-77259027D01*
X124219196Y-77422076D01*
X124214444Y-77433381D01*
X124192989Y-77502692D01*
X124192783Y-77516795D01*
X123008500Y-77516795D01*
X123008500Y-74056885D01*
X169492000Y-74056885D01*
X169496475Y-74072124D01*
X169497865Y-74073329D01*
X169505548Y-74075000D01*
X170531885Y-74075000D01*
X170547124Y-74070525D01*
X170548329Y-74069135D01*
X170550000Y-74061452D01*
X170550000Y-74056885D01*
X171150000Y-74056885D01*
X171154475Y-74072124D01*
X171155865Y-74073329D01*
X171163548Y-74075000D01*
X173071885Y-74075000D01*
X173087124Y-74070525D01*
X173088329Y-74069135D01*
X173090000Y-74061452D01*
X173090000Y-74056885D01*
X173690000Y-74056885D01*
X173694475Y-74072124D01*
X173695865Y-74073329D01*
X173703548Y-74075000D01*
X174696789Y-74075000D01*
X174710320Y-74071027D01*
X174711625Y-74061947D01*
X174681214Y-73940875D01*
X174677894Y-73931124D01*
X174592972Y-73735814D01*
X174588105Y-73726739D01*
X174472426Y-73547926D01*
X174466136Y-73539757D01*
X174322806Y-73382240D01*
X174315273Y-73375215D01*
X174148139Y-73243222D01*
X174139552Y-73237517D01*
X173953117Y-73134599D01*
X173943705Y-73130369D01*
X173742959Y-73059280D01*
X173732988Y-73056646D01*
X173707837Y-73052166D01*
X173694541Y-73053626D01*
X173690000Y-73068184D01*
X173690000Y-74056885D01*
X173090000Y-74056885D01*
X173090000Y-73065141D01*
X173086082Y-73051798D01*
X173073500Y-73050047D01*
X173069290Y-73051050D01*
X172866868Y-73117212D01*
X172857359Y-73121209D01*
X172668463Y-73219542D01*
X172659738Y-73225036D01*
X172489433Y-73352905D01*
X172481726Y-73359748D01*
X172404094Y-73440985D01*
X172342570Y-73476415D01*
X172271657Y-73472958D01*
X172213871Y-73431712D01*
X172195018Y-73398164D01*
X172153324Y-73286946D01*
X172144786Y-73271351D01*
X172068285Y-73169276D01*
X172055724Y-73156715D01*
X171953649Y-73080214D01*
X171938054Y-73071676D01*
X171817606Y-73026522D01*
X171802351Y-73022895D01*
X171751486Y-73017369D01*
X171744672Y-73017000D01*
X171168115Y-73017000D01*
X171152876Y-73021475D01*
X171151671Y-73022865D01*
X171150000Y-73030548D01*
X171150000Y-74056885D01*
X170550000Y-74056885D01*
X170550000Y-73035116D01*
X170545525Y-73019877D01*
X170544135Y-73018672D01*
X170536452Y-73017001D01*
X169955331Y-73017001D01*
X169948510Y-73017371D01*
X169897648Y-73022895D01*
X169882396Y-73026521D01*
X169761946Y-73071676D01*
X169746351Y-73080214D01*
X169644276Y-73156715D01*
X169631715Y-73169276D01*
X169555214Y-73271351D01*
X169546676Y-73286946D01*
X169501522Y-73407394D01*
X169497895Y-73422649D01*
X169492369Y-73473514D01*
X169492000Y-73480328D01*
X169492000Y-74056885D01*
X123008500Y-74056885D01*
X123008500Y-71750000D01*
X139086496Y-71750000D01*
X139087186Y-71756565D01*
X139094489Y-71826045D01*
X139106458Y-71939928D01*
X139165473Y-72121556D01*
X139260960Y-72286944D01*
X139265378Y-72291851D01*
X139265379Y-72291852D01*
X139287694Y-72316635D01*
X139388747Y-72428866D01*
X139543248Y-72541118D01*
X139549276Y-72543802D01*
X139549278Y-72543803D01*
X139711681Y-72616109D01*
X139717712Y-72618794D01*
X139811112Y-72638647D01*
X139898056Y-72657128D01*
X139898061Y-72657128D01*
X139904513Y-72658500D01*
X140095487Y-72658500D01*
X140101939Y-72657128D01*
X140101944Y-72657128D01*
X140188888Y-72638647D01*
X140282288Y-72618794D01*
X140288319Y-72616109D01*
X140450722Y-72543803D01*
X140450724Y-72543802D01*
X140456752Y-72541118D01*
X140513346Y-72500000D01*
X166086496Y-72500000D01*
X166087186Y-72506565D01*
X166103011Y-72657128D01*
X166106458Y-72689928D01*
X166165473Y-72871556D01*
X166260960Y-73036944D01*
X166265378Y-73041851D01*
X166265379Y-73041852D01*
X166336832Y-73121209D01*
X166388747Y-73178866D01*
X166452294Y-73225036D01*
X166537506Y-73286946D01*
X166543248Y-73291118D01*
X166549276Y-73293802D01*
X166549278Y-73293803D01*
X166697394Y-73359748D01*
X166717712Y-73368794D01*
X166811113Y-73388647D01*
X166898056Y-73407128D01*
X166898061Y-73407128D01*
X166904513Y-73408500D01*
X167095487Y-73408500D01*
X167101939Y-73407128D01*
X167101944Y-73407128D01*
X167188887Y-73388647D01*
X167282288Y-73368794D01*
X167302606Y-73359748D01*
X167450722Y-73293803D01*
X167450724Y-73293802D01*
X167456752Y-73291118D01*
X167462495Y-73286946D01*
X167547706Y-73225036D01*
X167611253Y-73178866D01*
X167663168Y-73121209D01*
X167734621Y-73041852D01*
X167734622Y-73041851D01*
X167739040Y-73036944D01*
X167834527Y-72871556D01*
X167893542Y-72689928D01*
X167896990Y-72657128D01*
X167912814Y-72506565D01*
X167913504Y-72500000D01*
X167906028Y-72428866D01*
X167894232Y-72316635D01*
X167894232Y-72316633D01*
X167893542Y-72310072D01*
X167834527Y-72128444D01*
X167739040Y-71963056D01*
X167718216Y-71939928D01*
X167615675Y-71826045D01*
X167615674Y-71826044D01*
X167611253Y-71821134D01*
X167456752Y-71708882D01*
X167450724Y-71706198D01*
X167450722Y-71706197D01*
X167288319Y-71633891D01*
X167288318Y-71633891D01*
X167282288Y-71631206D01*
X167188888Y-71611353D01*
X167101944Y-71592872D01*
X167101939Y-71592872D01*
X167095487Y-71591500D01*
X166904513Y-71591500D01*
X166898061Y-71592872D01*
X166898056Y-71592872D01*
X166811112Y-71611353D01*
X166717712Y-71631206D01*
X166711682Y-71633891D01*
X166711681Y-71633891D01*
X166549278Y-71706197D01*
X166549276Y-71706198D01*
X166543248Y-71708882D01*
X166388747Y-71821134D01*
X166384326Y-71826044D01*
X166384325Y-71826045D01*
X166281785Y-71939928D01*
X166260960Y-71963056D01*
X166165473Y-72128444D01*
X166106458Y-72310072D01*
X166105768Y-72316633D01*
X166105768Y-72316635D01*
X166093972Y-72428866D01*
X166086496Y-72500000D01*
X140513346Y-72500000D01*
X140611253Y-72428866D01*
X140712306Y-72316635D01*
X140734621Y-72291852D01*
X140734622Y-72291851D01*
X140739040Y-72286944D01*
X140834527Y-72121556D01*
X140893542Y-71939928D01*
X140905512Y-71826045D01*
X140912814Y-71756565D01*
X140913504Y-71750000D01*
X140901301Y-71633891D01*
X140894232Y-71566635D01*
X140894232Y-71566633D01*
X140893542Y-71560072D01*
X140834527Y-71378444D01*
X140830284Y-71371094D01*
X140776433Y-71277823D01*
X140739040Y-71213056D01*
X140611253Y-71071134D01*
X140456752Y-70958882D01*
X140450724Y-70956198D01*
X140450722Y-70956197D01*
X140288319Y-70883891D01*
X140288318Y-70883891D01*
X140282288Y-70881206D01*
X140188887Y-70861353D01*
X140101944Y-70842872D01*
X140101939Y-70842872D01*
X140095487Y-70841500D01*
X139904513Y-70841500D01*
X139898061Y-70842872D01*
X139898056Y-70842872D01*
X139811113Y-70861353D01*
X139717712Y-70881206D01*
X139711682Y-70883891D01*
X139711681Y-70883891D01*
X139549278Y-70956197D01*
X139549276Y-70956198D01*
X139543248Y-70958882D01*
X139388747Y-71071134D01*
X139260960Y-71213056D01*
X139223567Y-71277823D01*
X139169717Y-71371094D01*
X139165473Y-71378444D01*
X139106458Y-71560072D01*
X139105768Y-71566633D01*
X139105768Y-71566635D01*
X139098699Y-71633891D01*
X139086496Y-71750000D01*
X123008500Y-71750000D01*
X123008500Y-69491768D01*
X124190963Y-69491768D01*
X124209136Y-69553515D01*
X124213733Y-69564892D01*
X124299607Y-69729154D01*
X124306321Y-69739415D01*
X124422468Y-69883873D01*
X124431046Y-69892632D01*
X124573039Y-70011778D01*
X124583159Y-70018708D01*
X124745585Y-70108002D01*
X124756858Y-70112834D01*
X124933538Y-70168880D01*
X124945532Y-70171430D01*
X125089761Y-70187607D01*
X125096785Y-70188000D01*
X125131885Y-70188000D01*
X125147124Y-70183525D01*
X125148329Y-70182135D01*
X125150000Y-70174452D01*
X125150000Y-70169885D01*
X125750000Y-70169885D01*
X125754475Y-70185124D01*
X125755865Y-70186329D01*
X125763548Y-70188000D01*
X125796657Y-70188000D01*
X125802805Y-70187699D01*
X125940603Y-70174188D01*
X125952638Y-70171805D01*
X126130076Y-70118233D01*
X126141416Y-70113559D01*
X126305077Y-70026540D01*
X126315294Y-70019751D01*
X126458933Y-69902603D01*
X126467637Y-69893959D01*
X126585784Y-69751144D01*
X126592644Y-69740973D01*
X126680804Y-69577924D01*
X126685556Y-69566619D01*
X126707011Y-69497308D01*
X126707092Y-69491768D01*
X128120963Y-69491768D01*
X128139136Y-69553515D01*
X128143733Y-69564892D01*
X128229607Y-69729154D01*
X128236321Y-69739415D01*
X128352468Y-69883873D01*
X128361045Y-69892632D01*
X128413110Y-69936319D01*
X128452436Y-69995428D01*
X128453563Y-70066416D01*
X128436331Y-70103663D01*
X128359723Y-70216388D01*
X128292470Y-70384534D01*
X128291356Y-70391262D01*
X128291355Y-70391266D01*
X128264007Y-70556461D01*
X128262892Y-70563198D01*
X128263249Y-70570015D01*
X128263249Y-70570019D01*
X128268151Y-70663539D01*
X128272370Y-70744047D01*
X128274181Y-70750620D01*
X128274181Y-70750623D01*
X128297551Y-70835466D01*
X128320461Y-70918641D01*
X128404922Y-71078836D01*
X128409327Y-71084049D01*
X128409330Y-71084053D01*
X128517406Y-71211943D01*
X128517410Y-71211947D01*
X128521813Y-71217157D01*
X128527237Y-71221304D01*
X128527238Y-71221305D01*
X128660257Y-71323006D01*
X128660261Y-71323009D01*
X128665678Y-71327150D01*
X128764587Y-71373272D01*
X128823631Y-71400805D01*
X128823634Y-71400806D01*
X128829808Y-71403685D01*
X128836456Y-71405171D01*
X128836459Y-71405172D01*
X128942421Y-71428857D01*
X129006543Y-71443190D01*
X129012088Y-71443500D01*
X129145244Y-71443500D01*
X129280037Y-71428857D01*
X129411160Y-71384729D01*
X129445204Y-71373272D01*
X129445206Y-71373271D01*
X129451675Y-71371094D01*
X129606905Y-71277823D01*
X129611862Y-71273135D01*
X129611865Y-71273133D01*
X129733527Y-71158082D01*
X129733529Y-71158080D01*
X129738485Y-71153393D01*
X129742317Y-71147755D01*
X129742320Y-71147751D01*
X129836442Y-71009255D01*
X129840277Y-71003612D01*
X129907530Y-70835466D01*
X129908644Y-70828738D01*
X129908645Y-70828734D01*
X129935993Y-70663539D01*
X129935993Y-70663536D01*
X129937108Y-70656802D01*
X129932203Y-70563198D01*
X129927987Y-70482766D01*
X129927630Y-70475953D01*
X129892237Y-70347459D01*
X129893431Y-70276474D01*
X129932814Y-70217401D01*
X129997881Y-70188999D01*
X130013713Y-70188000D01*
X130226657Y-70188000D01*
X130232805Y-70187699D01*
X130370603Y-70174188D01*
X130382638Y-70171805D01*
X130560076Y-70118233D01*
X130571416Y-70113559D01*
X130735077Y-70026540D01*
X130745294Y-70019751D01*
X130888933Y-69902603D01*
X130897637Y-69893959D01*
X131015784Y-69751144D01*
X131022644Y-69740973D01*
X131110804Y-69577924D01*
X131115556Y-69566619D01*
X131136178Y-69500000D01*
X151586496Y-69500000D01*
X151587186Y-69506565D01*
X151603141Y-69658365D01*
X151606458Y-69689928D01*
X151665473Y-69871556D01*
X151760960Y-70036944D01*
X151765378Y-70041851D01*
X151765379Y-70041852D01*
X151882389Y-70171805D01*
X151888747Y-70178866D01*
X151987843Y-70250864D01*
X152008839Y-70266118D01*
X152043248Y-70291118D01*
X152049276Y-70293802D01*
X152049278Y-70293803D01*
X152211681Y-70366109D01*
X152217712Y-70368794D01*
X152311113Y-70388647D01*
X152398056Y-70407128D01*
X152398061Y-70407128D01*
X152404513Y-70408500D01*
X152595487Y-70408500D01*
X152601939Y-70407128D01*
X152601944Y-70407128D01*
X152688887Y-70388647D01*
X152782288Y-70368794D01*
X152788319Y-70366109D01*
X152950722Y-70293803D01*
X152950724Y-70293802D01*
X152956752Y-70291118D01*
X152991162Y-70266118D01*
X153012157Y-70250864D01*
X153111253Y-70178866D01*
X153117611Y-70171805D01*
X153234621Y-70041852D01*
X153234622Y-70041851D01*
X153239040Y-70036944D01*
X153334527Y-69871556D01*
X153393542Y-69689928D01*
X153396860Y-69658365D01*
X153412814Y-69506565D01*
X153413504Y-69500000D01*
X153410876Y-69475000D01*
X157361496Y-69475000D01*
X157381458Y-69664928D01*
X157440473Y-69846556D01*
X157535960Y-70011944D01*
X157540378Y-70016851D01*
X157540379Y-70016852D01*
X157558470Y-70036944D01*
X157663747Y-70153866D01*
X157818248Y-70266118D01*
X157824276Y-70268802D01*
X157824278Y-70268803D01*
X157986681Y-70341109D01*
X157992712Y-70343794D01*
X158086112Y-70363647D01*
X158173056Y-70382128D01*
X158173061Y-70382128D01*
X158179513Y-70383500D01*
X158370487Y-70383500D01*
X158376939Y-70382128D01*
X158376944Y-70382128D01*
X158463888Y-70363647D01*
X158557288Y-70343794D01*
X158563319Y-70341109D01*
X158725722Y-70268803D01*
X158725724Y-70268802D01*
X158731752Y-70266118D01*
X158886253Y-70153866D01*
X158991530Y-70036944D01*
X159009621Y-70016852D01*
X159009622Y-70016851D01*
X159014040Y-70011944D01*
X159109527Y-69846556D01*
X159168542Y-69664928D01*
X159188504Y-69475000D01*
X159187814Y-69468435D01*
X159169232Y-69291635D01*
X159169232Y-69291633D01*
X159168542Y-69285072D01*
X159109527Y-69103444D01*
X159014040Y-68938056D01*
X158958881Y-68876795D01*
X158890675Y-68801045D01*
X158890674Y-68801044D01*
X158886253Y-68796134D01*
X158771503Y-68712763D01*
X158737094Y-68687763D01*
X158737093Y-68687762D01*
X158731752Y-68683882D01*
X158725724Y-68681198D01*
X158725722Y-68681197D01*
X158563319Y-68608891D01*
X158563318Y-68608891D01*
X158557288Y-68606206D01*
X158463888Y-68586353D01*
X158376944Y-68567872D01*
X158376939Y-68567872D01*
X158370487Y-68566500D01*
X158179513Y-68566500D01*
X158173061Y-68567872D01*
X158173056Y-68567872D01*
X158086112Y-68586353D01*
X157992712Y-68606206D01*
X157986682Y-68608891D01*
X157986681Y-68608891D01*
X157824278Y-68681197D01*
X157824276Y-68681198D01*
X157818248Y-68683882D01*
X157812907Y-68687762D01*
X157812906Y-68687763D01*
X157778497Y-68712763D01*
X157663747Y-68796134D01*
X157659326Y-68801044D01*
X157659325Y-68801045D01*
X157591120Y-68876795D01*
X157535960Y-68938056D01*
X157440473Y-69103444D01*
X157381458Y-69285072D01*
X157380768Y-69291633D01*
X157380768Y-69291635D01*
X157362186Y-69468435D01*
X157361496Y-69475000D01*
X153410876Y-69475000D01*
X153393542Y-69310072D01*
X153334527Y-69128444D01*
X153239040Y-68963056D01*
X153221679Y-68943774D01*
X153115675Y-68826045D01*
X153115674Y-68826044D01*
X153111253Y-68821134D01*
X152956752Y-68708882D01*
X152950724Y-68706198D01*
X152950722Y-68706197D01*
X152788319Y-68633891D01*
X152788318Y-68633891D01*
X152782288Y-68631206D01*
X152677140Y-68608856D01*
X152601944Y-68592872D01*
X152601939Y-68592872D01*
X152595487Y-68591500D01*
X152404513Y-68591500D01*
X152398061Y-68592872D01*
X152398056Y-68592872D01*
X152322860Y-68608856D01*
X152217712Y-68631206D01*
X152211682Y-68633891D01*
X152211681Y-68633891D01*
X152049278Y-68706197D01*
X152049276Y-68706198D01*
X152043248Y-68708882D01*
X151888747Y-68821134D01*
X151884326Y-68826044D01*
X151884325Y-68826045D01*
X151778322Y-68943774D01*
X151760960Y-68963056D01*
X151665473Y-69128444D01*
X151606458Y-69310072D01*
X151586496Y-69500000D01*
X131136178Y-69500000D01*
X131137011Y-69497308D01*
X131137217Y-69483205D01*
X131130462Y-69480000D01*
X128135614Y-69480000D01*
X128122083Y-69483973D01*
X128120963Y-69491768D01*
X126707092Y-69491768D01*
X126707217Y-69483205D01*
X126700462Y-69480000D01*
X125768115Y-69480000D01*
X125752876Y-69484475D01*
X125751671Y-69485865D01*
X125750000Y-69493548D01*
X125750000Y-70169885D01*
X125150000Y-70169885D01*
X125150000Y-69498115D01*
X125145525Y-69482876D01*
X125144135Y-69481671D01*
X125136452Y-69480000D01*
X124205614Y-69480000D01*
X124192083Y-69483973D01*
X124190963Y-69491768D01*
X123008500Y-69491768D01*
X123008500Y-68876795D01*
X124192783Y-68876795D01*
X124199538Y-68880000D01*
X125131885Y-68880000D01*
X125147124Y-68875525D01*
X125148329Y-68874135D01*
X125150000Y-68866452D01*
X125150000Y-68861885D01*
X125750000Y-68861885D01*
X125754475Y-68877124D01*
X125755865Y-68878329D01*
X125763548Y-68880000D01*
X126694386Y-68880000D01*
X126705301Y-68876795D01*
X128122783Y-68876795D01*
X128129538Y-68880000D01*
X129311885Y-68880000D01*
X129327124Y-68875525D01*
X129328329Y-68874135D01*
X129330000Y-68866452D01*
X129330000Y-68861885D01*
X129930000Y-68861885D01*
X129934475Y-68877124D01*
X129935865Y-68878329D01*
X129943548Y-68880000D01*
X131124386Y-68880000D01*
X131137917Y-68876027D01*
X131139037Y-68868232D01*
X131120864Y-68806485D01*
X131116267Y-68795108D01*
X131030393Y-68630846D01*
X131023679Y-68620585D01*
X130907532Y-68476127D01*
X130898954Y-68467368D01*
X130756961Y-68348222D01*
X130746841Y-68341292D01*
X130584415Y-68251998D01*
X130573142Y-68247166D01*
X130396462Y-68191120D01*
X130384468Y-68188570D01*
X130240239Y-68172393D01*
X130233215Y-68172000D01*
X129948115Y-68172000D01*
X129932876Y-68176475D01*
X129931671Y-68177865D01*
X129930000Y-68185548D01*
X129930000Y-68861885D01*
X129330000Y-68861885D01*
X129330000Y-68190115D01*
X129325525Y-68174876D01*
X129324135Y-68173671D01*
X129316452Y-68172000D01*
X129033343Y-68172000D01*
X129027195Y-68172301D01*
X128889397Y-68185812D01*
X128877362Y-68188195D01*
X128699924Y-68241767D01*
X128688584Y-68246441D01*
X128524923Y-68333460D01*
X128514706Y-68340249D01*
X128371067Y-68457397D01*
X128362363Y-68466041D01*
X128244216Y-68608856D01*
X128237356Y-68619027D01*
X128149196Y-68782076D01*
X128144444Y-68793381D01*
X128122989Y-68862692D01*
X128122783Y-68876795D01*
X126705301Y-68876795D01*
X126707917Y-68876027D01*
X126709037Y-68868232D01*
X126690864Y-68806485D01*
X126686267Y-68795108D01*
X126600393Y-68630846D01*
X126593679Y-68620585D01*
X126477532Y-68476127D01*
X126468954Y-68467368D01*
X126326961Y-68348222D01*
X126316841Y-68341292D01*
X126154415Y-68251998D01*
X126143142Y-68247166D01*
X125966462Y-68191120D01*
X125954468Y-68188570D01*
X125810239Y-68172393D01*
X125803215Y-68172000D01*
X125768115Y-68172000D01*
X125752876Y-68176475D01*
X125751671Y-68177865D01*
X125750000Y-68185548D01*
X125750000Y-68861885D01*
X125150000Y-68861885D01*
X125150000Y-68190115D01*
X125145525Y-68174876D01*
X125144135Y-68173671D01*
X125136452Y-68172000D01*
X125103343Y-68172000D01*
X125097195Y-68172301D01*
X124959397Y-68185812D01*
X124947362Y-68188195D01*
X124769924Y-68241767D01*
X124758584Y-68246441D01*
X124594923Y-68333460D01*
X124584706Y-68340249D01*
X124441067Y-68457397D01*
X124432363Y-68466041D01*
X124314216Y-68608856D01*
X124307356Y-68619027D01*
X124219196Y-68782076D01*
X124214444Y-68793381D01*
X124192989Y-68862692D01*
X124192783Y-68876795D01*
X123008500Y-68876795D01*
X123008500Y-67500000D01*
X168836496Y-67500000D01*
X168856458Y-67689928D01*
X168915473Y-67871556D01*
X169010960Y-68036944D01*
X169138747Y-68178866D01*
X169293248Y-68291118D01*
X169299276Y-68293802D01*
X169299278Y-68293803D01*
X169405941Y-68341292D01*
X169467712Y-68368794D01*
X169561113Y-68388647D01*
X169648056Y-68407128D01*
X169648061Y-68407128D01*
X169654513Y-68408500D01*
X169845487Y-68408500D01*
X169851939Y-68407128D01*
X169851944Y-68407128D01*
X169938887Y-68388647D01*
X170032288Y-68368794D01*
X170094059Y-68341292D01*
X170200722Y-68293803D01*
X170200724Y-68293802D01*
X170206752Y-68291118D01*
X170361253Y-68178866D01*
X170489040Y-68036944D01*
X170584527Y-67871556D01*
X170643542Y-67689928D01*
X170663504Y-67500000D01*
X170643542Y-67310072D01*
X170584527Y-67128444D01*
X170489040Y-66963056D01*
X170361253Y-66821134D01*
X170206752Y-66708882D01*
X170200724Y-66706198D01*
X170200722Y-66706197D01*
X170038319Y-66633891D01*
X170038318Y-66633891D01*
X170032288Y-66631206D01*
X169938887Y-66611353D01*
X169851944Y-66592872D01*
X169851939Y-66592872D01*
X169845487Y-66591500D01*
X169654513Y-66591500D01*
X169648061Y-66592872D01*
X169648056Y-66592872D01*
X169561113Y-66611353D01*
X169467712Y-66631206D01*
X169461682Y-66633891D01*
X169461681Y-66633891D01*
X169299278Y-66706197D01*
X169299276Y-66706198D01*
X169293248Y-66708882D01*
X169138747Y-66821134D01*
X169010960Y-66963056D01*
X168915473Y-67128444D01*
X168856458Y-67310072D01*
X168836496Y-67500000D01*
X123008500Y-67500000D01*
X123008500Y-64368966D01*
X141178624Y-64368966D01*
X141198565Y-64457446D01*
X141201645Y-64467275D01*
X141281770Y-64664603D01*
X141286413Y-64673794D01*
X141397694Y-64855388D01*
X141403777Y-64863699D01*
X141543213Y-65024667D01*
X141550580Y-65031883D01*
X141714434Y-65167916D01*
X141722881Y-65173831D01*
X141906756Y-65281279D01*
X141916042Y-65285729D01*
X142115001Y-65361703D01*
X142124898Y-65364579D01*
X142182249Y-65376247D01*
X142196299Y-65375051D01*
X142199982Y-65364755D01*
X142800000Y-65364755D01*
X142803973Y-65378286D01*
X142811617Y-65379385D01*
X142992250Y-65325192D01*
X143001845Y-65321432D01*
X143193095Y-65227739D01*
X143201945Y-65222464D01*
X143375328Y-65098792D01*
X143383200Y-65092139D01*
X143534052Y-64941812D01*
X143540730Y-64933965D01*
X143665003Y-64761020D01*
X143670313Y-64752183D01*
X143764670Y-64561267D01*
X143768469Y-64551672D01*
X143822957Y-64372333D01*
X143823089Y-64358233D01*
X143816182Y-64355000D01*
X142818115Y-64355000D01*
X142802876Y-64359475D01*
X142801671Y-64360865D01*
X142800000Y-64368548D01*
X142800000Y-65364755D01*
X142199982Y-65364755D01*
X142200000Y-65364704D01*
X142200000Y-64373115D01*
X142195525Y-64357876D01*
X142194135Y-64356671D01*
X142186452Y-64355000D01*
X141193592Y-64355000D01*
X141180061Y-64358973D01*
X141178624Y-64368966D01*
X123008500Y-64368966D01*
X123008500Y-64353966D01*
X145678624Y-64353966D01*
X145698565Y-64442446D01*
X145701645Y-64452275D01*
X145781770Y-64649603D01*
X145786413Y-64658794D01*
X145897694Y-64840388D01*
X145903777Y-64848699D01*
X146043213Y-65009667D01*
X146050580Y-65016883D01*
X146214434Y-65152916D01*
X146222881Y-65158831D01*
X146406756Y-65266279D01*
X146416042Y-65270729D01*
X146615001Y-65346703D01*
X146624898Y-65349579D01*
X146682249Y-65361247D01*
X146696299Y-65360051D01*
X146699982Y-65349755D01*
X147300000Y-65349755D01*
X147303973Y-65363286D01*
X147311617Y-65364385D01*
X147492250Y-65310192D01*
X147501845Y-65306432D01*
X147693095Y-65212739D01*
X147701945Y-65207464D01*
X147875328Y-65083792D01*
X147883200Y-65077139D01*
X148034052Y-64926812D01*
X148040730Y-64918965D01*
X148165003Y-64746020D01*
X148170313Y-64737183D01*
X148264670Y-64546267D01*
X148268469Y-64536672D01*
X148322957Y-64357333D01*
X148323089Y-64343233D01*
X148316182Y-64340000D01*
X147318115Y-64340000D01*
X147302876Y-64344475D01*
X147301671Y-64345865D01*
X147300000Y-64353548D01*
X147300000Y-65349755D01*
X146699982Y-65349755D01*
X146700000Y-65349704D01*
X146700000Y-64358115D01*
X146695525Y-64342876D01*
X146694135Y-64341671D01*
X146686452Y-64340000D01*
X145693592Y-64340000D01*
X145680061Y-64343973D01*
X145678624Y-64353966D01*
X123008500Y-64353966D01*
X123008500Y-62826495D01*
X124103705Y-62826495D01*
X124111163Y-62836863D01*
X124314943Y-63001880D01*
X124320265Y-63005747D01*
X124640685Y-63213830D01*
X124646394Y-63217127D01*
X124986811Y-63390578D01*
X124992836Y-63393260D01*
X125349502Y-63530171D01*
X125355784Y-63532212D01*
X125724816Y-63631094D01*
X125731266Y-63632465D01*
X126108629Y-63692234D01*
X126115167Y-63692920D01*
X126496699Y-63712916D01*
X126503301Y-63712916D01*
X126884833Y-63692920D01*
X126891371Y-63692234D01*
X127268734Y-63632465D01*
X127275184Y-63631094D01*
X127644216Y-63532212D01*
X127650498Y-63530171D01*
X128007164Y-63393260D01*
X128013189Y-63390578D01*
X128353606Y-63217127D01*
X128359315Y-63213830D01*
X128679735Y-63005747D01*
X128685057Y-63001880D01*
X128887889Y-62837631D01*
X128896355Y-62825376D01*
X128890021Y-62814285D01*
X126512812Y-60437076D01*
X126498868Y-60429462D01*
X126497035Y-60429593D01*
X126490420Y-60433844D01*
X124110845Y-62813419D01*
X124103705Y-62826495D01*
X123008500Y-62826495D01*
X123008500Y-61839945D01*
X123028502Y-61771824D01*
X123082158Y-61725331D01*
X123152432Y-61715227D01*
X123217012Y-61744721D01*
X123246767Y-61782742D01*
X123282872Y-61853603D01*
X123286169Y-61859313D01*
X123494251Y-62179732D01*
X123498123Y-62185062D01*
X123662369Y-62387889D01*
X123674624Y-62396355D01*
X123685715Y-62390021D01*
X126062924Y-60012812D01*
X126069302Y-60001132D01*
X126929462Y-60001132D01*
X126929593Y-60002965D01*
X126933844Y-60009580D01*
X129313419Y-62389155D01*
X129326495Y-62396295D01*
X129336863Y-62388837D01*
X129501877Y-62185062D01*
X129505749Y-62179732D01*
X129713831Y-61859313D01*
X129717128Y-61853603D01*
X129890578Y-61513189D01*
X129893260Y-61507164D01*
X129903037Y-61481695D01*
X141137251Y-61481695D01*
X141137548Y-61486848D01*
X141137548Y-61486851D01*
X141143011Y-61581590D01*
X141150110Y-61704715D01*
X141151247Y-61709761D01*
X141151248Y-61709767D01*
X141152216Y-61714061D01*
X141199222Y-61922639D01*
X141283266Y-62129616D01*
X141399987Y-62320088D01*
X141546250Y-62488938D01*
X141718126Y-62631632D01*
X141782471Y-62669232D01*
X141791955Y-62674774D01*
X141840679Y-62726412D01*
X141853750Y-62796195D01*
X141827019Y-62861967D01*
X141786562Y-62895327D01*
X141778457Y-62899546D01*
X141769738Y-62905036D01*
X141599433Y-63032905D01*
X141591726Y-63039748D01*
X141444590Y-63193717D01*
X141438104Y-63201727D01*
X141318098Y-63377649D01*
X141313000Y-63386623D01*
X141223338Y-63579783D01*
X141219775Y-63589470D01*
X141178711Y-63737540D01*
X141178924Y-63751644D01*
X141186575Y-63755000D01*
X143806789Y-63755000D01*
X143820320Y-63751027D01*
X143821625Y-63741947D01*
X143791214Y-63620875D01*
X143787894Y-63611124D01*
X143702972Y-63415814D01*
X143698105Y-63406739D01*
X143582426Y-63227926D01*
X143576136Y-63219757D01*
X143432806Y-63062240D01*
X143425273Y-63055215D01*
X143258139Y-62923222D01*
X143249556Y-62917520D01*
X143212602Y-62897120D01*
X143162631Y-62846687D01*
X143147859Y-62777245D01*
X143172975Y-62710839D01*
X143200327Y-62684232D01*
X143234616Y-62659774D01*
X143379860Y-62556173D01*
X143538096Y-62398489D01*
X143551891Y-62379292D01*
X143665435Y-62221277D01*
X143668453Y-62217077D01*
X143675867Y-62202077D01*
X143765136Y-62021453D01*
X143765137Y-62021451D01*
X143767430Y-62016811D01*
X143832370Y-61803069D01*
X143861529Y-61581590D01*
X143861611Y-61578240D01*
X143863074Y-61518365D01*
X143863074Y-61518361D01*
X143863156Y-61515000D01*
X143859185Y-61466695D01*
X145637251Y-61466695D01*
X145637548Y-61471848D01*
X145637548Y-61471851D01*
X145643876Y-61581590D01*
X145650110Y-61689715D01*
X145651247Y-61694761D01*
X145651248Y-61694767D01*
X145662506Y-61744721D01*
X145699222Y-61907639D01*
X145783266Y-62114616D01*
X145899987Y-62305088D01*
X146046250Y-62473938D01*
X146218126Y-62616632D01*
X146238140Y-62628327D01*
X146291955Y-62659774D01*
X146340679Y-62711412D01*
X146353750Y-62781195D01*
X146327019Y-62846967D01*
X146286562Y-62880327D01*
X146278457Y-62884546D01*
X146269738Y-62890036D01*
X146099433Y-63017905D01*
X146091726Y-63024748D01*
X145944590Y-63178717D01*
X145938104Y-63186727D01*
X145818098Y-63362649D01*
X145813000Y-63371623D01*
X145723338Y-63564783D01*
X145719775Y-63574470D01*
X145678711Y-63722540D01*
X145678924Y-63736644D01*
X145686575Y-63740000D01*
X148306789Y-63740000D01*
X148320320Y-63736027D01*
X148321625Y-63726947D01*
X148291214Y-63605875D01*
X148287894Y-63596124D01*
X148202972Y-63400814D01*
X148198105Y-63391739D01*
X148082426Y-63212926D01*
X148076136Y-63204757D01*
X147932806Y-63047240D01*
X147925273Y-63040215D01*
X147758139Y-62908222D01*
X147749556Y-62902520D01*
X147712602Y-62882120D01*
X147662631Y-62831687D01*
X147647859Y-62762245D01*
X147672975Y-62695839D01*
X147700327Y-62669232D01*
X147757674Y-62628327D01*
X147879860Y-62541173D01*
X148038096Y-62383489D01*
X148097594Y-62300689D01*
X148165435Y-62206277D01*
X148165454Y-62206250D01*
X151880246Y-62206250D01*
X151900208Y-62396178D01*
X151959223Y-62577806D01*
X151962526Y-62583528D01*
X151962527Y-62583529D01*
X151991806Y-62634242D01*
X152054710Y-62743194D01*
X152059128Y-62748101D01*
X152059129Y-62748102D01*
X152167596Y-62868567D01*
X152182497Y-62885116D01*
X152336998Y-62997368D01*
X152343026Y-63000052D01*
X152343028Y-63000053D01*
X152505431Y-63072359D01*
X152511462Y-63075044D01*
X152604863Y-63094897D01*
X152691806Y-63113378D01*
X152691811Y-63113378D01*
X152698263Y-63114750D01*
X152889237Y-63114750D01*
X152895689Y-63113378D01*
X152895694Y-63113378D01*
X152982637Y-63094897D01*
X153076038Y-63075044D01*
X153082069Y-63072359D01*
X153244472Y-63000053D01*
X153244474Y-63000052D01*
X153250502Y-62997368D01*
X153405003Y-62885116D01*
X153419904Y-62868567D01*
X153457786Y-62826495D01*
X171103705Y-62826495D01*
X171111163Y-62836863D01*
X171314943Y-63001880D01*
X171320265Y-63005747D01*
X171640685Y-63213830D01*
X171646394Y-63217127D01*
X171986811Y-63390578D01*
X171992836Y-63393260D01*
X172349502Y-63530171D01*
X172355784Y-63532212D01*
X172724816Y-63631094D01*
X172731266Y-63632465D01*
X173108629Y-63692234D01*
X173115167Y-63692920D01*
X173496699Y-63712916D01*
X173503301Y-63712916D01*
X173884833Y-63692920D01*
X173891371Y-63692234D01*
X174268734Y-63632465D01*
X174275184Y-63631094D01*
X174644216Y-63532212D01*
X174650498Y-63530171D01*
X175007164Y-63393260D01*
X175013189Y-63390578D01*
X175353606Y-63217127D01*
X175359315Y-63213830D01*
X175679735Y-63005747D01*
X175685057Y-63001880D01*
X175887889Y-62837631D01*
X175896355Y-62825376D01*
X175890021Y-62814285D01*
X173512812Y-60437076D01*
X173498868Y-60429462D01*
X173497035Y-60429593D01*
X173490420Y-60433844D01*
X171110845Y-62813419D01*
X171103705Y-62826495D01*
X153457786Y-62826495D01*
X153528371Y-62748102D01*
X153528372Y-62748101D01*
X153532790Y-62743194D01*
X153595694Y-62634242D01*
X153624973Y-62583529D01*
X153624974Y-62583528D01*
X153628277Y-62577806D01*
X153687292Y-62396178D01*
X153707254Y-62206250D01*
X153687292Y-62016322D01*
X153628277Y-61834694D01*
X153612879Y-61808023D01*
X153565136Y-61725331D01*
X153532790Y-61669306D01*
X153405003Y-61527384D01*
X153250502Y-61415132D01*
X153244474Y-61412448D01*
X153244472Y-61412447D01*
X153082069Y-61340141D01*
X153082068Y-61340141D01*
X153076038Y-61337456D01*
X152982638Y-61317603D01*
X152895694Y-61299122D01*
X152895689Y-61299122D01*
X152889237Y-61297750D01*
X152698263Y-61297750D01*
X152691811Y-61299122D01*
X152691806Y-61299122D01*
X152604862Y-61317603D01*
X152511462Y-61337456D01*
X152505432Y-61340141D01*
X152505431Y-61340141D01*
X152343028Y-61412447D01*
X152343026Y-61412448D01*
X152336998Y-61415132D01*
X152182497Y-61527384D01*
X152054710Y-61669306D01*
X152022364Y-61725331D01*
X151974622Y-61808023D01*
X151959223Y-61834694D01*
X151900208Y-62016322D01*
X151880246Y-62206250D01*
X148165454Y-62206250D01*
X148168453Y-62202077D01*
X148176863Y-62185062D01*
X148265136Y-62006453D01*
X148265137Y-62006451D01*
X148267430Y-62001811D01*
X148319943Y-61828971D01*
X148330865Y-61793023D01*
X148330865Y-61793021D01*
X148332370Y-61788069D01*
X148361529Y-61566590D01*
X148362834Y-61513189D01*
X148363074Y-61503365D01*
X148363074Y-61503361D01*
X148363156Y-61500000D01*
X148344852Y-61277361D01*
X148290431Y-61060702D01*
X148201354Y-60855840D01*
X148080014Y-60668277D01*
X148076532Y-60664450D01*
X147932798Y-60506488D01*
X147901746Y-60442642D01*
X147910141Y-60372143D01*
X147955317Y-60317375D01*
X147981761Y-60303706D01*
X148088297Y-60263767D01*
X148096705Y-60260615D01*
X148213261Y-60173261D01*
X148300615Y-60056705D01*
X148320635Y-60003301D01*
X169787084Y-60003301D01*
X169807080Y-60384833D01*
X169807766Y-60391371D01*
X169867535Y-60768734D01*
X169868906Y-60775184D01*
X169967788Y-61144216D01*
X169969829Y-61150498D01*
X170106740Y-61507164D01*
X170109422Y-61513189D01*
X170282872Y-61853603D01*
X170286169Y-61859313D01*
X170494251Y-62179732D01*
X170498123Y-62185062D01*
X170662369Y-62387889D01*
X170674624Y-62396355D01*
X170685715Y-62390021D01*
X173062924Y-60012812D01*
X173070538Y-59998868D01*
X173070407Y-59997035D01*
X173066156Y-59990420D01*
X170686581Y-57610845D01*
X170673505Y-57603705D01*
X170663137Y-57611163D01*
X170498123Y-57814938D01*
X170494251Y-57820268D01*
X170286169Y-58140687D01*
X170282872Y-58146397D01*
X170109422Y-58486811D01*
X170106740Y-58492836D01*
X169969829Y-58849502D01*
X169967788Y-58855784D01*
X169868906Y-59224816D01*
X169867535Y-59231266D01*
X169807766Y-59608629D01*
X169807080Y-59615167D01*
X169787084Y-59996699D01*
X169787084Y-60003301D01*
X148320635Y-60003301D01*
X148351745Y-59920316D01*
X148358500Y-59858134D01*
X148358500Y-58061866D01*
X148351745Y-57999684D01*
X148300615Y-57863295D01*
X148213261Y-57746739D01*
X148096705Y-57659385D01*
X147960316Y-57608255D01*
X147898134Y-57601500D01*
X146101866Y-57601500D01*
X146039684Y-57608255D01*
X145903295Y-57659385D01*
X145786739Y-57746739D01*
X145699385Y-57863295D01*
X145648255Y-57999684D01*
X145641500Y-58061866D01*
X145641500Y-59858134D01*
X145648255Y-59920316D01*
X145699385Y-60056705D01*
X145786739Y-60173261D01*
X145903295Y-60260615D01*
X145911704Y-60263767D01*
X145911705Y-60263768D01*
X146020451Y-60304535D01*
X146077216Y-60347176D01*
X146101916Y-60413738D01*
X146086709Y-60483087D01*
X146067316Y-60509568D01*
X145940629Y-60642138D01*
X145814743Y-60826680D01*
X145720688Y-61029305D01*
X145660989Y-61244570D01*
X145637251Y-61466695D01*
X143859185Y-61466695D01*
X143844852Y-61292361D01*
X143790431Y-61075702D01*
X143701354Y-60870840D01*
X143580014Y-60683277D01*
X143562883Y-60664450D01*
X143432798Y-60521488D01*
X143401746Y-60457642D01*
X143410141Y-60387143D01*
X143455317Y-60332375D01*
X143481761Y-60318706D01*
X143588297Y-60278767D01*
X143596705Y-60275615D01*
X143713261Y-60188261D01*
X143800615Y-60071705D01*
X143851745Y-59935316D01*
X143858500Y-59873134D01*
X143858500Y-58076866D01*
X143851745Y-58014684D01*
X143800615Y-57878295D01*
X143713261Y-57761739D01*
X143596705Y-57674385D01*
X143460316Y-57623255D01*
X143398134Y-57616500D01*
X141601866Y-57616500D01*
X141539684Y-57623255D01*
X141403295Y-57674385D01*
X141286739Y-57761739D01*
X141199385Y-57878295D01*
X141148255Y-58014684D01*
X141141500Y-58076866D01*
X141141500Y-59873134D01*
X141148255Y-59935316D01*
X141199385Y-60071705D01*
X141286739Y-60188261D01*
X141403295Y-60275615D01*
X141411704Y-60278767D01*
X141411705Y-60278768D01*
X141520451Y-60319535D01*
X141577216Y-60362176D01*
X141601916Y-60428738D01*
X141586709Y-60498087D01*
X141567316Y-60524568D01*
X141458535Y-60638401D01*
X141440629Y-60657138D01*
X141314743Y-60841680D01*
X141300875Y-60871556D01*
X141225334Y-61034297D01*
X141220688Y-61044305D01*
X141160989Y-61259570D01*
X141137251Y-61481695D01*
X129903037Y-61481695D01*
X130030171Y-61150498D01*
X130032212Y-61144216D01*
X130131094Y-60775184D01*
X130132465Y-60768734D01*
X130175029Y-60500000D01*
X136586496Y-60500000D01*
X136587186Y-60506565D01*
X136604639Y-60672617D01*
X136606458Y-60689928D01*
X136665473Y-60871556D01*
X136760960Y-61036944D01*
X136765378Y-61041851D01*
X136765379Y-61041852D01*
X136782352Y-61060702D01*
X136888747Y-61178866D01*
X136938356Y-61214909D01*
X137031417Y-61282522D01*
X137043248Y-61291118D01*
X137049276Y-61293802D01*
X137049278Y-61293803D01*
X137147325Y-61337456D01*
X137217712Y-61368794D01*
X137311112Y-61388647D01*
X137398056Y-61407128D01*
X137398061Y-61407128D01*
X137404513Y-61408500D01*
X137595487Y-61408500D01*
X137601939Y-61407128D01*
X137601944Y-61407128D01*
X137688888Y-61388647D01*
X137782288Y-61368794D01*
X137852675Y-61337456D01*
X137950722Y-61293803D01*
X137950724Y-61293802D01*
X137956752Y-61291118D01*
X137968584Y-61282522D01*
X138050939Y-61222687D01*
X138117807Y-61198828D01*
X138186958Y-61214909D01*
X138199061Y-61222687D01*
X138281417Y-61282522D01*
X138293248Y-61291118D01*
X138299276Y-61293802D01*
X138299278Y-61293803D01*
X138397325Y-61337456D01*
X138467712Y-61368794D01*
X138561112Y-61388647D01*
X138648056Y-61407128D01*
X138648061Y-61407128D01*
X138654513Y-61408500D01*
X138845487Y-61408500D01*
X138851939Y-61407128D01*
X138851944Y-61407128D01*
X138938888Y-61388647D01*
X139032288Y-61368794D01*
X139102675Y-61337456D01*
X139200722Y-61293803D01*
X139200724Y-61293802D01*
X139206752Y-61291118D01*
X139218584Y-61282522D01*
X139311644Y-61214909D01*
X139361253Y-61178866D01*
X139467648Y-61060702D01*
X139484621Y-61041852D01*
X139484622Y-61041851D01*
X139489040Y-61036944D01*
X139584527Y-60871556D01*
X139643542Y-60689928D01*
X139645362Y-60672617D01*
X139662814Y-60506565D01*
X139663504Y-60500000D01*
X139657476Y-60442642D01*
X139644232Y-60316635D01*
X139644232Y-60316633D01*
X139643542Y-60310072D01*
X139584527Y-60128444D01*
X139489040Y-59963056D01*
X139361253Y-59821134D01*
X139206752Y-59708882D01*
X139200724Y-59706198D01*
X139200722Y-59706197D01*
X139038319Y-59633891D01*
X139038318Y-59633891D01*
X139032288Y-59631206D01*
X138926072Y-59608629D01*
X138851944Y-59592872D01*
X138851939Y-59592872D01*
X138845487Y-59591500D01*
X138654513Y-59591500D01*
X138648061Y-59592872D01*
X138648056Y-59592872D01*
X138573928Y-59608629D01*
X138467712Y-59631206D01*
X138461682Y-59633891D01*
X138461681Y-59633891D01*
X138299278Y-59706197D01*
X138299276Y-59706198D01*
X138293248Y-59708882D01*
X138287907Y-59712762D01*
X138287906Y-59712763D01*
X138199061Y-59777313D01*
X138132193Y-59801172D01*
X138063042Y-59785091D01*
X138050939Y-59777313D01*
X137962094Y-59712763D01*
X137962093Y-59712762D01*
X137956752Y-59708882D01*
X137950724Y-59706198D01*
X137950722Y-59706197D01*
X137788319Y-59633891D01*
X137788318Y-59633891D01*
X137782288Y-59631206D01*
X137676072Y-59608629D01*
X137601944Y-59592872D01*
X137601939Y-59592872D01*
X137595487Y-59591500D01*
X137404513Y-59591500D01*
X137398061Y-59592872D01*
X137398056Y-59592872D01*
X137323928Y-59608629D01*
X137217712Y-59631206D01*
X137211682Y-59633891D01*
X137211681Y-59633891D01*
X137049278Y-59706197D01*
X137049276Y-59706198D01*
X137043248Y-59708882D01*
X136888747Y-59821134D01*
X136760960Y-59963056D01*
X136665473Y-60128444D01*
X136606458Y-60310072D01*
X136605768Y-60316633D01*
X136605768Y-60316635D01*
X136592524Y-60442642D01*
X136586496Y-60500000D01*
X130175029Y-60500000D01*
X130192234Y-60391371D01*
X130192920Y-60384833D01*
X130212916Y-60003301D01*
X130212916Y-59996699D01*
X130192920Y-59615167D01*
X130192234Y-59608629D01*
X130132465Y-59231266D01*
X130131094Y-59224816D01*
X130032212Y-58855784D01*
X130030171Y-58849502D01*
X129893260Y-58492836D01*
X129890578Y-58486811D01*
X129717128Y-58146397D01*
X129713831Y-58140687D01*
X129505749Y-57820268D01*
X129501877Y-57814938D01*
X129337631Y-57612111D01*
X129325376Y-57603645D01*
X129314285Y-57609979D01*
X126937076Y-59987188D01*
X126929462Y-60001132D01*
X126069302Y-60001132D01*
X126070538Y-59998868D01*
X126070407Y-59997035D01*
X126066156Y-59990420D01*
X123686581Y-57610845D01*
X123673505Y-57603705D01*
X123663137Y-57611163D01*
X123498123Y-57814938D01*
X123494251Y-57820268D01*
X123286169Y-58140687D01*
X123282872Y-58146397D01*
X123246767Y-58217258D01*
X123198019Y-58268873D01*
X123129104Y-58285939D01*
X123061902Y-58263038D01*
X123017750Y-58207441D01*
X123008500Y-58160055D01*
X123008500Y-56634500D01*
X123028502Y-56566379D01*
X123082158Y-56519886D01*
X123134500Y-56508500D01*
X124660055Y-56508500D01*
X124728176Y-56528502D01*
G37*
%TD.AperFunction*%
M02*
