%TF.GenerationSoftware,KiCad,Pcbnew,(6.0.10)*%
%TF.CreationDate,2023-12-29T21:00:04+01:00*%
%TF.ProjectId,Alchemy,416c6368-656d-4792-9e6b-696361645f70,rev?*%
%TF.SameCoordinates,Original*%
%TF.FileFunction,Copper,L3,Inr*%
%TF.FilePolarity,Positive*%
%FSLAX46Y46*%
G04 Gerber Fmt 4.6, Leading zero omitted, Abs format (unit mm)*
G04 Created by KiCad (PCBNEW (6.0.10)) date 2023-12-29 21:00:04*
%MOMM*%
%LPD*%
G01*
G04 APERTURE LIST*
%TA.AperFunction,ComponentPad*%
%ADD10O,1.600000X1.000000*%
%TD*%
%TA.AperFunction,ComponentPad*%
%ADD11O,2.100000X1.000000*%
%TD*%
%TA.AperFunction,ComponentPad*%
%ADD12C,6.400000*%
%TD*%
%TA.AperFunction,ComponentPad*%
%ADD13R,1.700000X1.700000*%
%TD*%
%TA.AperFunction,ComponentPad*%
%ADD14O,1.700000X1.700000*%
%TD*%
%TA.AperFunction,ComponentPad*%
%ADD15C,1.500000*%
%TD*%
%TA.AperFunction,ComponentPad*%
%ADD16C,0.500000*%
%TD*%
%TA.AperFunction,ViaPad*%
%ADD17C,0.800000*%
%TD*%
%TA.AperFunction,Conductor*%
%ADD18C,0.250000*%
%TD*%
%TA.AperFunction,Conductor*%
%ADD19C,0.300000*%
%TD*%
G04 APERTURE END LIST*
D10*
X125450000Y-77820000D03*
D11*
X129630000Y-69180000D03*
X129630000Y-77820000D03*
D10*
X125450000Y-69180000D03*
D12*
X126500000Y-137000000D03*
D13*
X170850000Y-74375000D03*
D14*
X173390000Y-74375000D03*
X170850000Y-76915000D03*
X173390000Y-76915000D03*
X170850000Y-79455000D03*
X173390000Y-79455000D03*
X170850000Y-81995000D03*
X173390000Y-81995000D03*
X170850000Y-84535000D03*
X173390000Y-84535000D03*
X170850000Y-87075000D03*
X173390000Y-87075000D03*
X170850000Y-89615000D03*
X173390000Y-89615000D03*
X170850000Y-92155000D03*
X173390000Y-92155000D03*
X170850000Y-94695000D03*
X173390000Y-94695000D03*
X170850000Y-97235000D03*
X173390000Y-97235000D03*
X170850000Y-99775000D03*
X173390000Y-99775000D03*
X170850000Y-102315000D03*
X173390000Y-102315000D03*
X170850000Y-104855000D03*
X173390000Y-104855000D03*
X170850000Y-107395000D03*
X173390000Y-107395000D03*
X170850000Y-109935000D03*
X173390000Y-109935000D03*
X170850000Y-112475000D03*
X173390000Y-112475000D03*
X170850000Y-115015000D03*
X173390000Y-115015000D03*
X170850000Y-117555000D03*
X173390000Y-117555000D03*
X170850000Y-120095000D03*
X173390000Y-120095000D03*
X170850000Y-122635000D03*
X173390000Y-122635000D03*
D15*
X150800000Y-79250000D03*
X155680000Y-79250000D03*
D13*
X142500000Y-58975000D03*
D14*
X142500000Y-61515000D03*
X142500000Y-64055000D03*
D13*
X147000000Y-58960000D03*
D14*
X147000000Y-61500000D03*
X147000000Y-64040000D03*
D10*
X125450000Y-94180000D03*
X125450000Y-102820000D03*
D11*
X129630000Y-102820000D03*
X129630000Y-94180000D03*
D12*
X173500000Y-60000000D03*
D15*
X136050000Y-106500000D03*
X140930000Y-106500000D03*
D12*
X173500000Y-137000000D03*
D16*
X158545000Y-129700000D03*
X158545000Y-132300000D03*
X158545000Y-131000000D03*
X160455000Y-131000000D03*
X160455000Y-129700000D03*
X160455000Y-132300000D03*
D12*
X126500000Y-60000000D03*
D17*
X154250000Y-94500000D03*
X158275000Y-69475000D03*
X143500000Y-102750000D03*
X167000000Y-72500000D03*
X146000000Y-94250000D03*
X140000000Y-71750000D03*
X152500000Y-69500000D03*
X146250000Y-77250000D03*
X139500000Y-103250000D03*
X154750000Y-103250000D03*
X142262299Y-99000000D03*
X143750000Y-98750000D03*
X150750000Y-99750000D03*
X152250000Y-100750000D03*
X145837500Y-103912500D03*
X146750000Y-105000000D03*
X148250000Y-108250000D03*
X149500000Y-109250000D03*
X151000000Y-109750000D03*
X152500000Y-110250000D03*
X160500000Y-98750000D03*
X147875000Y-96875000D03*
X136844670Y-99094670D03*
X147920091Y-98139865D03*
X138625000Y-98500000D03*
X149500000Y-96000000D03*
X169750000Y-67500000D03*
X151750000Y-98750000D03*
X152793750Y-62206250D03*
X158130862Y-97630862D03*
X150750000Y-86000000D03*
X151762051Y-87012051D03*
X157512299Y-96512299D03*
X136000000Y-123500000D03*
X160750000Y-123750000D03*
X138500000Y-108500000D03*
X139000000Y-123500000D03*
X139000000Y-135500000D03*
X129750000Y-129500000D03*
X163750000Y-135500000D03*
X127750000Y-114750000D03*
X130750000Y-109250000D03*
X162500000Y-66500000D03*
X162250000Y-134000000D03*
X139000000Y-122250000D03*
X167250000Y-135500000D03*
X136000000Y-122250000D03*
X153250000Y-81250000D03*
X146250000Y-81250000D03*
X147250000Y-92500000D03*
X139500000Y-100250000D03*
X126337500Y-128162500D03*
X139500000Y-77000000D03*
X134000000Y-59000000D03*
X156500000Y-75000000D03*
X165500000Y-123750000D03*
X156000000Y-94500000D03*
X154500000Y-66500000D03*
X136000000Y-136750000D03*
X136000000Y-135500000D03*
X153000000Y-104500000D03*
X142500000Y-101500000D03*
X139000000Y-136750000D03*
X125500000Y-113500000D03*
X137500000Y-60500000D03*
X125500000Y-112250000D03*
X126500000Y-120000000D03*
X126500000Y-121250000D03*
X138750000Y-60500000D03*
D18*
X142250000Y-99000000D02*
X136050000Y-105200000D01*
X136050000Y-105200000D02*
X136050000Y-106500000D01*
X142262299Y-99000000D02*
X142250000Y-99000000D01*
X143750000Y-98750000D02*
X140930000Y-101570000D01*
X140930000Y-101570000D02*
X140930000Y-106500000D01*
X150775000Y-99775000D02*
X170850000Y-99775000D01*
X150750000Y-99750000D02*
X150775000Y-99775000D01*
X172215000Y-100950000D02*
X173390000Y-99775000D01*
X152250000Y-100750000D02*
X152450000Y-100950000D01*
X152450000Y-100950000D02*
X172215000Y-100950000D01*
X167665000Y-105500000D02*
X149000000Y-105500000D01*
X147412500Y-103912500D02*
X145837500Y-103912500D01*
X149000000Y-105500000D02*
X147412500Y-103912500D01*
X170850000Y-102315000D02*
X167665000Y-105500000D01*
X172215000Y-103490000D02*
X170311396Y-103490000D01*
X170311396Y-103490000D02*
X167851396Y-105950000D01*
X147700000Y-105950000D02*
X146750000Y-105000000D01*
X173390000Y-102315000D02*
X172215000Y-103490000D01*
X167851396Y-105950000D02*
X147700000Y-105950000D01*
X169935000Y-105770000D02*
X170850000Y-104855000D01*
X166363604Y-108250000D02*
X168843604Y-105770000D01*
X168843604Y-105770000D02*
X169935000Y-105770000D01*
X148250000Y-108250000D02*
X166363604Y-108250000D01*
X166550000Y-108700000D02*
X169030000Y-106220000D01*
X169030000Y-106220000D02*
X172025000Y-106220000D01*
X149500000Y-109250000D02*
X150050000Y-108700000D01*
X172025000Y-106220000D02*
X173390000Y-104855000D01*
X150050000Y-108700000D02*
X166550000Y-108700000D01*
X151600000Y-109150000D02*
X166736396Y-109150000D01*
X151000000Y-109750000D02*
X151600000Y-109150000D01*
X168491396Y-107395000D02*
X170850000Y-107395000D01*
X166736396Y-109150000D02*
X168491396Y-107395000D01*
X153150000Y-109600000D02*
X166922792Y-109600000D01*
X152500000Y-110250000D02*
X153150000Y-109600000D01*
X172215000Y-108570000D02*
X173390000Y-107395000D01*
X166922792Y-109600000D02*
X167952792Y-108570000D01*
X167952792Y-108570000D02*
X172215000Y-108570000D01*
X160500000Y-98750000D02*
X160650000Y-98600000D01*
X174565000Y-99288299D02*
X174565000Y-113840000D01*
X160650000Y-98600000D02*
X173876701Y-98600000D01*
X173876701Y-98600000D02*
X174565000Y-99288299D01*
X174565000Y-113840000D02*
X173390000Y-115015000D01*
D19*
X136844670Y-99094670D02*
X138689340Y-97250000D01*
X147500000Y-97250000D02*
X147875000Y-96875000D01*
X138689340Y-97250000D02*
X147500000Y-97250000D01*
X139375000Y-97750000D02*
X138625000Y-98500000D01*
X147530226Y-97750000D02*
X147920091Y-98139865D01*
X139375000Y-97750000D02*
X147530226Y-97750000D01*
D18*
X148500000Y-92724695D02*
X149500000Y-93724695D01*
X148500000Y-63000000D02*
X148500000Y-92724695D01*
X149500000Y-93724695D02*
X149500000Y-96000000D01*
X147000000Y-61500000D02*
X148500000Y-63000000D01*
X169750000Y-64500000D02*
X165500000Y-60250000D01*
X169750000Y-67500000D02*
X169750000Y-64500000D01*
X146000000Y-60250000D02*
X144735000Y-61515000D01*
X144735000Y-61515000D02*
X142500000Y-61515000D01*
X165500000Y-60250000D02*
X146000000Y-60250000D01*
X151750000Y-98750000D02*
X151750000Y-95000000D01*
X149000000Y-66000000D02*
X152793750Y-62206250D01*
X149000000Y-92250000D02*
X149000000Y-66000000D01*
X151750000Y-95000000D02*
X149000000Y-92250000D01*
X152000000Y-86000000D02*
X150750000Y-86000000D01*
X158130862Y-97630862D02*
X158500000Y-97261724D01*
X158500000Y-92500000D02*
X152000000Y-86000000D01*
X158500000Y-97261724D02*
X158500000Y-92500000D01*
X157512299Y-92148695D02*
X157512299Y-96512299D01*
X151762051Y-87012051D02*
X152375655Y-87012051D01*
X152375655Y-87012051D02*
X157512299Y-92148695D01*
%TA.AperFunction,Conductor*%
G36*
X124728176Y-56528502D02*
G01*
X124774669Y-56582158D01*
X124784773Y-56652432D01*
X124755279Y-56717012D01*
X124717258Y-56746767D01*
X124646397Y-56782872D01*
X124640687Y-56786169D01*
X124320268Y-56994251D01*
X124314938Y-56998123D01*
X124112111Y-57162369D01*
X124103645Y-57174624D01*
X124109979Y-57185715D01*
X126487188Y-59562924D01*
X126501132Y-59570538D01*
X126502965Y-59570407D01*
X126509580Y-59566156D01*
X128889155Y-57186581D01*
X128896295Y-57173505D01*
X128888837Y-57163137D01*
X128685057Y-56998120D01*
X128679735Y-56994253D01*
X128359315Y-56786170D01*
X128353606Y-56782874D01*
X128282743Y-56746767D01*
X128231128Y-56698019D01*
X128214062Y-56629104D01*
X128236963Y-56561902D01*
X128292560Y-56517750D01*
X128339946Y-56508500D01*
X171660055Y-56508500D01*
X171728176Y-56528502D01*
X171774669Y-56582158D01*
X171784773Y-56652432D01*
X171755279Y-56717012D01*
X171717258Y-56746767D01*
X171646397Y-56782872D01*
X171640687Y-56786169D01*
X171320268Y-56994251D01*
X171314938Y-56998123D01*
X171112111Y-57162369D01*
X171103645Y-57174624D01*
X171109979Y-57185715D01*
X173487188Y-59562924D01*
X173501132Y-59570538D01*
X173502965Y-59570407D01*
X173509580Y-59566156D01*
X175889155Y-57186581D01*
X175896295Y-57173505D01*
X175888837Y-57163137D01*
X175685057Y-56998120D01*
X175679735Y-56994253D01*
X175359315Y-56786170D01*
X175353606Y-56782874D01*
X175282743Y-56746767D01*
X175231128Y-56698019D01*
X175214062Y-56629104D01*
X175236963Y-56561902D01*
X175292560Y-56517750D01*
X175339946Y-56508500D01*
X176865500Y-56508500D01*
X176933621Y-56528502D01*
X176980114Y-56582158D01*
X176991500Y-56634500D01*
X176991500Y-58160055D01*
X176971498Y-58228176D01*
X176917842Y-58274669D01*
X176847568Y-58284773D01*
X176782988Y-58255279D01*
X176753233Y-58217258D01*
X176717128Y-58146397D01*
X176713831Y-58140687D01*
X176505749Y-57820268D01*
X176501877Y-57814938D01*
X176337631Y-57612111D01*
X176325376Y-57603645D01*
X176314285Y-57609979D01*
X173937076Y-59987188D01*
X173929462Y-60001132D01*
X173929593Y-60002965D01*
X173933844Y-60009580D01*
X176313419Y-62389155D01*
X176326495Y-62396295D01*
X176336863Y-62388837D01*
X176501877Y-62185062D01*
X176505749Y-62179732D01*
X176713831Y-61859313D01*
X176717128Y-61853603D01*
X176753233Y-61782742D01*
X176801981Y-61731127D01*
X176870896Y-61714061D01*
X176938098Y-61736962D01*
X176982250Y-61792559D01*
X176991500Y-61839945D01*
X176991500Y-135160055D01*
X176971498Y-135228176D01*
X176917842Y-135274669D01*
X176847568Y-135284773D01*
X176782988Y-135255279D01*
X176753233Y-135217258D01*
X176717128Y-135146397D01*
X176713831Y-135140687D01*
X176505749Y-134820268D01*
X176501877Y-134814938D01*
X176337631Y-134612111D01*
X176325376Y-134603645D01*
X176314285Y-134609979D01*
X173937076Y-136987188D01*
X173929462Y-137001132D01*
X173929593Y-137002965D01*
X173933844Y-137009580D01*
X176313419Y-139389155D01*
X176326495Y-139396295D01*
X176336863Y-139388837D01*
X176501877Y-139185062D01*
X176505749Y-139179732D01*
X176713831Y-138859313D01*
X176717128Y-138853603D01*
X176753233Y-138782742D01*
X176801981Y-138731127D01*
X176870896Y-138714061D01*
X176938098Y-138736962D01*
X176982250Y-138792559D01*
X176991500Y-138839945D01*
X176991500Y-140365500D01*
X176971498Y-140433621D01*
X176917842Y-140480114D01*
X176865500Y-140491500D01*
X175339946Y-140491500D01*
X175271825Y-140471498D01*
X175225332Y-140417842D01*
X175215228Y-140347568D01*
X175244722Y-140282988D01*
X175282743Y-140253233D01*
X175353606Y-140217126D01*
X175359315Y-140213830D01*
X175679735Y-140005747D01*
X175685057Y-140001880D01*
X175887889Y-139837631D01*
X175896355Y-139825376D01*
X175890021Y-139814285D01*
X173512812Y-137437076D01*
X173498868Y-137429462D01*
X173497035Y-137429593D01*
X173490420Y-137433844D01*
X171110845Y-139813419D01*
X171103705Y-139826495D01*
X171111163Y-139836863D01*
X171314943Y-140001880D01*
X171320265Y-140005747D01*
X171640685Y-140213830D01*
X171646394Y-140217126D01*
X171717257Y-140253233D01*
X171768872Y-140301981D01*
X171785938Y-140370896D01*
X171763037Y-140438098D01*
X171707440Y-140482250D01*
X171660054Y-140491500D01*
X128339946Y-140491500D01*
X128271825Y-140471498D01*
X128225332Y-140417842D01*
X128215228Y-140347568D01*
X128244722Y-140282988D01*
X128282743Y-140253233D01*
X128353606Y-140217126D01*
X128359315Y-140213830D01*
X128679735Y-140005747D01*
X128685057Y-140001880D01*
X128887889Y-139837631D01*
X128896355Y-139825376D01*
X128890021Y-139814285D01*
X126512812Y-137437076D01*
X126498868Y-137429462D01*
X126497035Y-137429593D01*
X126490420Y-137433844D01*
X124110845Y-139813419D01*
X124103705Y-139826495D01*
X124111163Y-139836863D01*
X124314943Y-140001880D01*
X124320265Y-140005747D01*
X124640685Y-140213830D01*
X124646394Y-140217126D01*
X124717257Y-140253233D01*
X124768872Y-140301981D01*
X124785938Y-140370896D01*
X124763037Y-140438098D01*
X124707440Y-140482250D01*
X124660054Y-140491500D01*
X123134500Y-140491500D01*
X123066379Y-140471498D01*
X123019886Y-140417842D01*
X123008500Y-140365500D01*
X123008500Y-138839945D01*
X123028502Y-138771824D01*
X123082158Y-138725331D01*
X123152432Y-138715227D01*
X123217012Y-138744721D01*
X123246767Y-138782742D01*
X123282872Y-138853603D01*
X123286169Y-138859313D01*
X123494251Y-139179732D01*
X123498123Y-139185062D01*
X123662369Y-139387889D01*
X123674624Y-139396355D01*
X123685715Y-139390021D01*
X126062924Y-137012812D01*
X126069302Y-137001132D01*
X126929462Y-137001132D01*
X126929593Y-137002965D01*
X126933844Y-137009580D01*
X129313419Y-139389155D01*
X129326495Y-139396295D01*
X129336863Y-139388837D01*
X129501877Y-139185062D01*
X129505749Y-139179732D01*
X129713831Y-138859313D01*
X129717128Y-138853603D01*
X129890578Y-138513189D01*
X129893260Y-138507164D01*
X130030171Y-138150498D01*
X130032212Y-138144216D01*
X130131094Y-137775184D01*
X130132465Y-137768734D01*
X130192234Y-137391371D01*
X130192920Y-137384833D01*
X130212916Y-137003301D01*
X169787084Y-137003301D01*
X169807080Y-137384833D01*
X169807766Y-137391371D01*
X169867535Y-137768734D01*
X169868906Y-137775184D01*
X169967788Y-138144216D01*
X169969829Y-138150498D01*
X170106740Y-138507164D01*
X170109422Y-138513189D01*
X170282872Y-138853603D01*
X170286169Y-138859313D01*
X170494251Y-139179732D01*
X170498123Y-139185062D01*
X170662369Y-139387889D01*
X170674624Y-139396355D01*
X170685715Y-139390021D01*
X173062924Y-137012812D01*
X173070538Y-136998868D01*
X173070407Y-136997035D01*
X173066156Y-136990420D01*
X170686581Y-134610845D01*
X170673505Y-134603705D01*
X170663137Y-134611163D01*
X170498123Y-134814938D01*
X170494251Y-134820268D01*
X170286169Y-135140687D01*
X170282872Y-135146397D01*
X170109422Y-135486811D01*
X170106740Y-135492836D01*
X169969829Y-135849502D01*
X169967788Y-135855784D01*
X169868906Y-136224816D01*
X169867535Y-136231266D01*
X169807766Y-136608629D01*
X169807080Y-136615167D01*
X169787084Y-136996699D01*
X169787084Y-137003301D01*
X130212916Y-137003301D01*
X130212916Y-136996699D01*
X130192920Y-136615167D01*
X130192234Y-136608629D01*
X130132465Y-136231266D01*
X130131094Y-136224816D01*
X130032212Y-135855784D01*
X130030171Y-135849502D01*
X129893260Y-135492836D01*
X129890578Y-135486811D01*
X129717128Y-135146397D01*
X129713831Y-135140687D01*
X129505749Y-134820268D01*
X129501877Y-134814938D01*
X129337631Y-134612111D01*
X129325376Y-134603645D01*
X129314285Y-134609979D01*
X126937076Y-136987188D01*
X126929462Y-137001132D01*
X126069302Y-137001132D01*
X126070538Y-136998868D01*
X126070407Y-136997035D01*
X126066156Y-136990420D01*
X123686581Y-134610845D01*
X123673505Y-134603705D01*
X123663137Y-134611163D01*
X123498123Y-134814938D01*
X123494251Y-134820268D01*
X123286169Y-135140687D01*
X123282872Y-135146397D01*
X123246767Y-135217258D01*
X123198019Y-135268873D01*
X123129104Y-135285939D01*
X123061902Y-135263038D01*
X123017750Y-135207441D01*
X123008500Y-135160055D01*
X123008500Y-134174624D01*
X124103645Y-134174624D01*
X124109979Y-134185715D01*
X126487188Y-136562924D01*
X126501132Y-136570538D01*
X126502965Y-136570407D01*
X126509580Y-136566156D01*
X128889155Y-134186581D01*
X128895684Y-134174624D01*
X171103645Y-134174624D01*
X171109979Y-134185715D01*
X173487188Y-136562924D01*
X173501132Y-136570538D01*
X173502965Y-136570407D01*
X173509580Y-136566156D01*
X175889155Y-134186581D01*
X175896295Y-134173505D01*
X175888837Y-134163137D01*
X175685057Y-133998120D01*
X175679735Y-133994253D01*
X175359315Y-133786170D01*
X175353606Y-133782873D01*
X175013189Y-133609422D01*
X175007164Y-133606740D01*
X174650498Y-133469829D01*
X174644216Y-133467788D01*
X174275184Y-133368906D01*
X174268734Y-133367535D01*
X173891371Y-133307766D01*
X173884833Y-133307080D01*
X173503301Y-133287084D01*
X173496699Y-133287084D01*
X173115167Y-133307080D01*
X173108629Y-133307766D01*
X172731266Y-133367535D01*
X172724816Y-133368906D01*
X172355784Y-133467788D01*
X172349502Y-133469829D01*
X171992836Y-133606740D01*
X171986811Y-133609422D01*
X171646397Y-133782872D01*
X171640687Y-133786169D01*
X171320268Y-133994251D01*
X171314938Y-133998123D01*
X171112111Y-134162369D01*
X171103645Y-134174624D01*
X128895684Y-134174624D01*
X128896295Y-134173505D01*
X128888837Y-134163137D01*
X128685057Y-133998120D01*
X128679735Y-133994253D01*
X128359315Y-133786170D01*
X128353606Y-133782873D01*
X128013189Y-133609422D01*
X128007164Y-133606740D01*
X127650498Y-133469829D01*
X127644216Y-133467788D01*
X127275184Y-133368906D01*
X127268734Y-133367535D01*
X126891371Y-133307766D01*
X126884833Y-133307080D01*
X126503301Y-133287084D01*
X126496699Y-133287084D01*
X126115167Y-133307080D01*
X126108629Y-133307766D01*
X125731266Y-133367535D01*
X125724816Y-133368906D01*
X125355784Y-133467788D01*
X125349502Y-133469829D01*
X124992836Y-133606740D01*
X124986811Y-133609422D01*
X124646397Y-133782872D01*
X124640687Y-133786169D01*
X124320268Y-133994251D01*
X124314938Y-133998123D01*
X124112111Y-134162369D01*
X124103645Y-134174624D01*
X123008500Y-134174624D01*
X123008500Y-132984934D01*
X158219239Y-132984934D01*
X158222022Y-132988652D01*
X158353857Y-133037681D01*
X158367448Y-133041070D01*
X158522044Y-133061697D01*
X158536040Y-133061991D01*
X158691360Y-133047855D01*
X158705085Y-133045038D01*
X158853415Y-132996843D01*
X158862055Y-132992924D01*
X158869463Y-132984934D01*
X160129239Y-132984934D01*
X160132022Y-132988652D01*
X160263857Y-133037681D01*
X160277448Y-133041070D01*
X160432044Y-133061697D01*
X160446040Y-133061991D01*
X160601360Y-133047855D01*
X160615085Y-133045038D01*
X160763415Y-132996843D01*
X160772055Y-132992924D01*
X160780430Y-132983891D01*
X160776925Y-132975478D01*
X160467812Y-132666365D01*
X160453868Y-132658751D01*
X160452035Y-132658882D01*
X160445420Y-132663133D01*
X160135999Y-132972554D01*
X160129239Y-132984934D01*
X158869463Y-132984934D01*
X158870430Y-132983891D01*
X158866925Y-132975478D01*
X158557812Y-132666365D01*
X158543868Y-132658751D01*
X158542035Y-132658882D01*
X158535420Y-132663133D01*
X158225999Y-132972554D01*
X158219239Y-132984934D01*
X123008500Y-132984934D01*
X123008500Y-132296362D01*
X157782966Y-132296362D01*
X157798186Y-132451585D01*
X157801097Y-132465280D01*
X157850327Y-132613270D01*
X157852729Y-132618468D01*
X157860717Y-132625772D01*
X157869338Y-132622109D01*
X158178635Y-132312812D01*
X158185013Y-132301132D01*
X158903751Y-132301132D01*
X158903882Y-132302965D01*
X158908133Y-132309580D01*
X159217178Y-132618625D01*
X159229558Y-132625385D01*
X159233374Y-132622528D01*
X159281331Y-132496283D01*
X159284811Y-132482727D01*
X159306948Y-132325221D01*
X159307554Y-132317338D01*
X159307741Y-132303962D01*
X159307369Y-132296362D01*
X159692966Y-132296362D01*
X159708186Y-132451585D01*
X159711097Y-132465280D01*
X159760327Y-132613270D01*
X159762729Y-132618468D01*
X159770717Y-132625772D01*
X159779338Y-132622109D01*
X160088635Y-132312812D01*
X160095013Y-132301132D01*
X160813751Y-132301132D01*
X160813882Y-132302965D01*
X160818133Y-132309580D01*
X161127178Y-132618625D01*
X161139558Y-132625385D01*
X161143374Y-132622528D01*
X161191331Y-132496283D01*
X161194811Y-132482727D01*
X161216948Y-132325221D01*
X161217554Y-132317338D01*
X161217741Y-132303962D01*
X161217354Y-132296062D01*
X161199625Y-132138003D01*
X161196523Y-132124350D01*
X161145700Y-131978407D01*
X161140141Y-131973467D01*
X161131088Y-131977465D01*
X160821365Y-132287188D01*
X160813751Y-132301132D01*
X160095013Y-132301132D01*
X160096249Y-132298868D01*
X160096118Y-132297035D01*
X160091867Y-132290420D01*
X159782039Y-131980592D01*
X159769659Y-131973832D01*
X159766037Y-131976543D01*
X159716001Y-132114016D01*
X159712709Y-132127625D01*
X159693162Y-132282356D01*
X159692966Y-132296362D01*
X159307369Y-132296362D01*
X159307354Y-132296062D01*
X159289625Y-132138003D01*
X159286523Y-132124350D01*
X159235700Y-131978407D01*
X159230141Y-131973467D01*
X159221088Y-131977465D01*
X158911365Y-132287188D01*
X158903751Y-132301132D01*
X158185013Y-132301132D01*
X158186249Y-132298868D01*
X158186118Y-132297035D01*
X158181867Y-132290420D01*
X157872039Y-131980592D01*
X157859659Y-131973832D01*
X157856037Y-131976543D01*
X157806001Y-132114016D01*
X157802709Y-132127625D01*
X157783162Y-132282356D01*
X157782966Y-132296362D01*
X123008500Y-132296362D01*
X123008500Y-131651132D01*
X158253751Y-131651132D01*
X158253882Y-131652965D01*
X158258133Y-131659580D01*
X158532188Y-131933635D01*
X158546132Y-131941249D01*
X158547965Y-131941118D01*
X158554580Y-131936867D01*
X158828635Y-131662812D01*
X158835013Y-131651132D01*
X160163751Y-131651132D01*
X160163882Y-131652965D01*
X160168133Y-131659580D01*
X160442188Y-131933635D01*
X160456132Y-131941249D01*
X160457965Y-131941118D01*
X160464580Y-131936867D01*
X160738635Y-131662812D01*
X160746249Y-131648868D01*
X160746118Y-131647035D01*
X160741867Y-131640420D01*
X160467812Y-131366365D01*
X160453868Y-131358751D01*
X160452035Y-131358882D01*
X160445420Y-131363133D01*
X160171365Y-131637188D01*
X160163751Y-131651132D01*
X158835013Y-131651132D01*
X158836249Y-131648868D01*
X158836118Y-131647035D01*
X158831867Y-131640420D01*
X158557812Y-131366365D01*
X158543868Y-131358751D01*
X158542035Y-131358882D01*
X158535420Y-131363133D01*
X158261365Y-131637188D01*
X158253751Y-131651132D01*
X123008500Y-131651132D01*
X123008500Y-130996362D01*
X157782966Y-130996362D01*
X157798186Y-131151585D01*
X157801097Y-131165280D01*
X157850327Y-131313270D01*
X157852729Y-131318468D01*
X157860717Y-131325772D01*
X157869338Y-131322109D01*
X158178635Y-131012812D01*
X158185013Y-131001132D01*
X158903751Y-131001132D01*
X158903882Y-131002965D01*
X158908133Y-131009580D01*
X159217178Y-131318625D01*
X159229558Y-131325385D01*
X159233374Y-131322528D01*
X159281331Y-131196283D01*
X159284811Y-131182727D01*
X159306948Y-131025221D01*
X159307554Y-131017338D01*
X159307741Y-131003962D01*
X159307369Y-130996362D01*
X159692966Y-130996362D01*
X159708186Y-131151585D01*
X159711097Y-131165280D01*
X159760327Y-131313270D01*
X159762729Y-131318468D01*
X159770717Y-131325772D01*
X159779338Y-131322109D01*
X160088635Y-131012812D01*
X160095013Y-131001132D01*
X160813751Y-131001132D01*
X160813882Y-131002965D01*
X160818133Y-131009580D01*
X161127178Y-131318625D01*
X161139558Y-131325385D01*
X161143374Y-131322528D01*
X161191331Y-131196283D01*
X161194811Y-131182727D01*
X161216948Y-131025221D01*
X161217554Y-131017338D01*
X161217741Y-131003962D01*
X161217354Y-130996062D01*
X161199625Y-130838003D01*
X161196523Y-130824350D01*
X161145700Y-130678407D01*
X161140141Y-130673467D01*
X161131088Y-130677465D01*
X160821365Y-130987188D01*
X160813751Y-131001132D01*
X160095013Y-131001132D01*
X160096249Y-130998868D01*
X160096118Y-130997035D01*
X160091867Y-130990420D01*
X159782039Y-130680592D01*
X159769659Y-130673832D01*
X159766037Y-130676543D01*
X159716001Y-130814016D01*
X159712709Y-130827625D01*
X159693162Y-130982356D01*
X159692966Y-130996362D01*
X159307369Y-130996362D01*
X159307354Y-130996062D01*
X159289625Y-130838003D01*
X159286523Y-130824350D01*
X159235700Y-130678407D01*
X159230141Y-130673467D01*
X159221088Y-130677465D01*
X158911365Y-130987188D01*
X158903751Y-131001132D01*
X158185013Y-131001132D01*
X158186249Y-130998868D01*
X158186118Y-130997035D01*
X158181867Y-130990420D01*
X157872039Y-130680592D01*
X157859659Y-130673832D01*
X157856037Y-130676543D01*
X157806001Y-130814016D01*
X157802709Y-130827625D01*
X157783162Y-130982356D01*
X157782966Y-130996362D01*
X123008500Y-130996362D01*
X123008500Y-130351132D01*
X158253751Y-130351132D01*
X158253882Y-130352965D01*
X158258133Y-130359580D01*
X158532188Y-130633635D01*
X158546132Y-130641249D01*
X158547965Y-130641118D01*
X158554580Y-130636867D01*
X158828635Y-130362812D01*
X158835013Y-130351132D01*
X160163751Y-130351132D01*
X160163882Y-130352965D01*
X160168133Y-130359580D01*
X160442188Y-130633635D01*
X160456132Y-130641249D01*
X160457965Y-130641118D01*
X160464580Y-130636867D01*
X160738635Y-130362812D01*
X160746249Y-130348868D01*
X160746118Y-130347035D01*
X160741867Y-130340420D01*
X160467812Y-130066365D01*
X160453868Y-130058751D01*
X160452035Y-130058882D01*
X160445420Y-130063133D01*
X160171365Y-130337188D01*
X160163751Y-130351132D01*
X158835013Y-130351132D01*
X158836249Y-130348868D01*
X158836118Y-130347035D01*
X158831867Y-130340420D01*
X158557812Y-130066365D01*
X158543868Y-130058751D01*
X158542035Y-130058882D01*
X158535420Y-130063133D01*
X158261365Y-130337188D01*
X158253751Y-130351132D01*
X123008500Y-130351132D01*
X123008500Y-129696362D01*
X157782966Y-129696362D01*
X157798186Y-129851585D01*
X157801097Y-129865280D01*
X157850327Y-130013270D01*
X157852729Y-130018468D01*
X157860717Y-130025772D01*
X157869338Y-130022109D01*
X158178635Y-129712812D01*
X158185013Y-129701132D01*
X158903751Y-129701132D01*
X158903882Y-129702965D01*
X158908133Y-129709580D01*
X159217178Y-130018625D01*
X159229558Y-130025385D01*
X159233374Y-130022528D01*
X159281331Y-129896283D01*
X159284811Y-129882727D01*
X159306948Y-129725221D01*
X159307554Y-129717338D01*
X159307741Y-129703962D01*
X159307369Y-129696362D01*
X159692966Y-129696362D01*
X159708186Y-129851585D01*
X159711097Y-129865280D01*
X159760327Y-130013270D01*
X159762729Y-130018468D01*
X159770717Y-130025772D01*
X159779338Y-130022109D01*
X160088635Y-129712812D01*
X160095013Y-129701132D01*
X160813751Y-129701132D01*
X160813882Y-129702965D01*
X160818133Y-129709580D01*
X161127178Y-130018625D01*
X161139558Y-130025385D01*
X161143374Y-130022528D01*
X161191331Y-129896283D01*
X161194811Y-129882727D01*
X161216948Y-129725221D01*
X161217554Y-129717338D01*
X161217741Y-129703962D01*
X161217354Y-129696062D01*
X161199625Y-129538003D01*
X161196523Y-129524350D01*
X161145700Y-129378407D01*
X161140141Y-129373467D01*
X161131088Y-129377465D01*
X160821365Y-129687188D01*
X160813751Y-129701132D01*
X160095013Y-129701132D01*
X160096249Y-129698868D01*
X160096118Y-129697035D01*
X160091867Y-129690420D01*
X159782039Y-129380592D01*
X159769659Y-129373832D01*
X159766037Y-129376543D01*
X159716001Y-129514016D01*
X159712709Y-129527625D01*
X159693162Y-129682356D01*
X159692966Y-129696362D01*
X159307369Y-129696362D01*
X159307354Y-129696062D01*
X159289625Y-129538003D01*
X159286523Y-129524350D01*
X159235700Y-129378407D01*
X159230141Y-129373467D01*
X159221088Y-129377465D01*
X158911365Y-129687188D01*
X158903751Y-129701132D01*
X158185013Y-129701132D01*
X158186249Y-129698868D01*
X158186118Y-129697035D01*
X158181867Y-129690420D01*
X157872039Y-129380592D01*
X157859659Y-129373832D01*
X157856037Y-129376543D01*
X157806001Y-129514016D01*
X157802709Y-129527625D01*
X157783162Y-129682356D01*
X157782966Y-129696362D01*
X123008500Y-129696362D01*
X123008500Y-129015302D01*
X158218860Y-129015302D01*
X158222684Y-129024131D01*
X158532188Y-129333635D01*
X158546132Y-129341249D01*
X158547965Y-129341118D01*
X158554580Y-129336867D01*
X158864847Y-129026600D01*
X158871016Y-129015302D01*
X160128860Y-129015302D01*
X160132684Y-129024131D01*
X160442188Y-129333635D01*
X160456132Y-129341249D01*
X160457965Y-129341118D01*
X160464580Y-129336867D01*
X160774847Y-129026600D01*
X160781607Y-129014220D01*
X160779022Y-129010766D01*
X160778722Y-129010606D01*
X160635820Y-128959720D01*
X160622195Y-128956524D01*
X160467318Y-128938057D01*
X160453321Y-128937959D01*
X160298207Y-128954262D01*
X160284533Y-128957268D01*
X160136884Y-129007532D01*
X160135113Y-129008366D01*
X160128860Y-129015302D01*
X158871016Y-129015302D01*
X158871607Y-129014220D01*
X158869022Y-129010766D01*
X158868722Y-129010606D01*
X158725820Y-128959720D01*
X158712195Y-128956524D01*
X158557318Y-128938057D01*
X158543321Y-128937959D01*
X158388207Y-128954262D01*
X158374533Y-128957268D01*
X158226884Y-129007532D01*
X158225113Y-129008366D01*
X158218860Y-129015302D01*
X123008500Y-129015302D01*
X123008500Y-122601695D01*
X169487251Y-122601695D01*
X169487548Y-122606848D01*
X169487548Y-122606851D01*
X169493011Y-122701590D01*
X169500110Y-122824715D01*
X169501247Y-122829761D01*
X169501248Y-122829767D01*
X169521119Y-122917939D01*
X169549222Y-123042639D01*
X169633266Y-123249616D01*
X169684019Y-123332438D01*
X169747291Y-123435688D01*
X169749987Y-123440088D01*
X169896250Y-123608938D01*
X170068126Y-123751632D01*
X170261000Y-123864338D01*
X170469692Y-123944030D01*
X170474760Y-123945061D01*
X170474763Y-123945062D01*
X170582017Y-123966883D01*
X170688597Y-123988567D01*
X170693772Y-123988757D01*
X170693774Y-123988757D01*
X170906673Y-123996564D01*
X170906677Y-123996564D01*
X170911837Y-123996753D01*
X170916957Y-123996097D01*
X170916959Y-123996097D01*
X171128288Y-123969025D01*
X171128289Y-123969025D01*
X171133416Y-123968368D01*
X171138366Y-123966883D01*
X171342429Y-123905661D01*
X171342434Y-123905659D01*
X171347384Y-123904174D01*
X171547994Y-123805896D01*
X171729860Y-123676173D01*
X171888096Y-123518489D01*
X171947594Y-123435689D01*
X172018453Y-123337077D01*
X172019776Y-123338028D01*
X172066645Y-123294857D01*
X172136580Y-123282625D01*
X172202026Y-123310144D01*
X172229875Y-123341994D01*
X172289987Y-123440088D01*
X172436250Y-123608938D01*
X172608126Y-123751632D01*
X172801000Y-123864338D01*
X173009692Y-123944030D01*
X173014760Y-123945061D01*
X173014763Y-123945062D01*
X173122017Y-123966883D01*
X173228597Y-123988567D01*
X173233772Y-123988757D01*
X173233774Y-123988757D01*
X173446673Y-123996564D01*
X173446677Y-123996564D01*
X173451837Y-123996753D01*
X173456957Y-123996097D01*
X173456959Y-123996097D01*
X173668288Y-123969025D01*
X173668289Y-123969025D01*
X173673416Y-123968368D01*
X173678366Y-123966883D01*
X173882429Y-123905661D01*
X173882434Y-123905659D01*
X173887384Y-123904174D01*
X174087994Y-123805896D01*
X174269860Y-123676173D01*
X174428096Y-123518489D01*
X174487594Y-123435689D01*
X174555435Y-123341277D01*
X174558453Y-123337077D01*
X174579320Y-123294857D01*
X174655136Y-123141453D01*
X174655137Y-123141451D01*
X174657430Y-123136811D01*
X174722370Y-122923069D01*
X174751529Y-122701590D01*
X174753156Y-122635000D01*
X174734852Y-122412361D01*
X174680431Y-122195702D01*
X174591354Y-121990840D01*
X174470014Y-121803277D01*
X174319670Y-121638051D01*
X174315619Y-121634852D01*
X174315615Y-121634848D01*
X174148414Y-121502800D01*
X174148410Y-121502798D01*
X174144359Y-121499598D01*
X174102569Y-121476529D01*
X174052598Y-121426097D01*
X174037826Y-121356654D01*
X174062942Y-121290248D01*
X174090294Y-121263641D01*
X174265328Y-121138792D01*
X174273200Y-121132139D01*
X174424052Y-120981812D01*
X174430730Y-120973965D01*
X174555003Y-120801020D01*
X174560313Y-120792183D01*
X174654670Y-120601267D01*
X174658469Y-120591672D01*
X174712957Y-120412333D01*
X174713089Y-120398233D01*
X174706182Y-120395000D01*
X169543592Y-120395000D01*
X169530061Y-120398973D01*
X169528624Y-120408966D01*
X169548565Y-120497446D01*
X169551645Y-120507275D01*
X169631770Y-120704603D01*
X169636413Y-120713794D01*
X169747694Y-120895388D01*
X169753777Y-120903699D01*
X169893213Y-121064667D01*
X169900580Y-121071883D01*
X170064434Y-121207916D01*
X170072881Y-121213831D01*
X170141969Y-121254203D01*
X170190693Y-121305842D01*
X170203764Y-121375625D01*
X170177033Y-121441396D01*
X170136584Y-121474752D01*
X170123607Y-121481507D01*
X170119474Y-121484610D01*
X170119471Y-121484612D01*
X170095247Y-121502800D01*
X169944965Y-121615635D01*
X169790629Y-121777138D01*
X169664743Y-121961680D01*
X169649003Y-121995590D01*
X169573383Y-122158500D01*
X169570688Y-122164305D01*
X169510989Y-122379570D01*
X169487251Y-122601695D01*
X123008500Y-122601695D01*
X123008500Y-121250000D01*
X125586496Y-121250000D01*
X125587186Y-121256565D01*
X125601383Y-121391638D01*
X125606458Y-121439928D01*
X125665473Y-121621556D01*
X125760960Y-121786944D01*
X125888747Y-121928866D01*
X126043248Y-122041118D01*
X126049276Y-122043802D01*
X126049278Y-122043803D01*
X126211681Y-122116109D01*
X126217712Y-122118794D01*
X126311113Y-122138647D01*
X126398056Y-122157128D01*
X126398061Y-122157128D01*
X126404513Y-122158500D01*
X126595487Y-122158500D01*
X126601939Y-122157128D01*
X126601944Y-122157128D01*
X126688887Y-122138647D01*
X126782288Y-122118794D01*
X126788319Y-122116109D01*
X126950722Y-122043803D01*
X126950724Y-122043802D01*
X126956752Y-122041118D01*
X127111253Y-121928866D01*
X127239040Y-121786944D01*
X127334527Y-121621556D01*
X127393542Y-121439928D01*
X127398618Y-121391638D01*
X127412814Y-121256565D01*
X127413504Y-121250000D01*
X127401816Y-121138792D01*
X127394232Y-121066635D01*
X127394232Y-121066633D01*
X127393542Y-121060072D01*
X127334527Y-120878444D01*
X127239040Y-120713056D01*
X127234620Y-120708148D01*
X127230741Y-120702808D01*
X127232080Y-120701835D01*
X127204950Y-120645304D01*
X127213713Y-120574851D01*
X127231250Y-120547562D01*
X127230741Y-120547192D01*
X127234620Y-120541852D01*
X127239040Y-120536944D01*
X127334527Y-120371556D01*
X127393542Y-120189928D01*
X127413504Y-120000000D01*
X127393542Y-119810072D01*
X127334527Y-119628444D01*
X127239040Y-119463056D01*
X127198156Y-119417649D01*
X127115675Y-119326045D01*
X127115674Y-119326044D01*
X127111253Y-119321134D01*
X126956752Y-119208882D01*
X126950724Y-119206198D01*
X126950722Y-119206197D01*
X126788319Y-119133891D01*
X126788318Y-119133891D01*
X126782288Y-119131206D01*
X126688888Y-119111353D01*
X126601944Y-119092872D01*
X126601939Y-119092872D01*
X126595487Y-119091500D01*
X126404513Y-119091500D01*
X126398061Y-119092872D01*
X126398056Y-119092872D01*
X126311112Y-119111353D01*
X126217712Y-119131206D01*
X126211682Y-119133891D01*
X126211681Y-119133891D01*
X126049278Y-119206197D01*
X126049276Y-119206198D01*
X126043248Y-119208882D01*
X125888747Y-119321134D01*
X125884326Y-119326044D01*
X125884325Y-119326045D01*
X125801845Y-119417649D01*
X125760960Y-119463056D01*
X125665473Y-119628444D01*
X125606458Y-119810072D01*
X125586496Y-120000000D01*
X125606458Y-120189928D01*
X125665473Y-120371556D01*
X125760960Y-120536944D01*
X125765380Y-120541852D01*
X125769259Y-120547192D01*
X125767920Y-120548165D01*
X125795050Y-120604696D01*
X125786287Y-120675149D01*
X125768750Y-120702438D01*
X125769259Y-120702808D01*
X125765380Y-120708148D01*
X125760960Y-120713056D01*
X125665473Y-120878444D01*
X125606458Y-121060072D01*
X125605768Y-121066633D01*
X125605768Y-121066635D01*
X125598184Y-121138792D01*
X125586496Y-121250000D01*
X123008500Y-121250000D01*
X123008500Y-113500000D01*
X124586496Y-113500000D01*
X124606458Y-113689928D01*
X124665473Y-113871556D01*
X124668776Y-113877278D01*
X124668777Y-113877279D01*
X124697894Y-113927711D01*
X124760960Y-114036944D01*
X124765378Y-114041851D01*
X124765379Y-114041852D01*
X124777612Y-114055438D01*
X124888747Y-114178866D01*
X124938923Y-114215321D01*
X125031179Y-114282349D01*
X125043248Y-114291118D01*
X125049276Y-114293802D01*
X125049278Y-114293803D01*
X125197109Y-114359621D01*
X125217712Y-114368794D01*
X125311113Y-114388647D01*
X125398056Y-114407128D01*
X125398061Y-114407128D01*
X125404513Y-114408500D01*
X125595487Y-114408500D01*
X125601939Y-114407128D01*
X125601944Y-114407128D01*
X125688887Y-114388647D01*
X125782288Y-114368794D01*
X125802891Y-114359621D01*
X125950722Y-114293803D01*
X125950724Y-114293802D01*
X125956752Y-114291118D01*
X125968822Y-114282349D01*
X126061077Y-114215321D01*
X126111253Y-114178866D01*
X126222388Y-114055438D01*
X126234621Y-114041852D01*
X126234622Y-114041851D01*
X126239040Y-114036944D01*
X126302106Y-113927711D01*
X126331223Y-113877279D01*
X126331224Y-113877278D01*
X126334527Y-113871556D01*
X126393542Y-113689928D01*
X126413504Y-113500000D01*
X126393542Y-113310072D01*
X126334527Y-113128444D01*
X126331168Y-113122625D01*
X126242341Y-112968774D01*
X126239040Y-112963056D01*
X126234620Y-112958148D01*
X126230741Y-112952808D01*
X126232080Y-112951835D01*
X126204950Y-112895304D01*
X126213713Y-112824851D01*
X126231250Y-112797562D01*
X126230741Y-112797192D01*
X126234620Y-112791852D01*
X126239040Y-112786944D01*
X126334527Y-112621556D01*
X126393542Y-112439928D01*
X126413504Y-112250000D01*
X126393542Y-112060072D01*
X126334527Y-111878444D01*
X126239040Y-111713056D01*
X126156516Y-111621403D01*
X126115675Y-111576045D01*
X126115674Y-111576044D01*
X126111253Y-111571134D01*
X125956752Y-111458882D01*
X125950724Y-111456198D01*
X125950722Y-111456197D01*
X125788319Y-111383891D01*
X125788318Y-111383891D01*
X125782288Y-111381206D01*
X125688888Y-111361353D01*
X125601944Y-111342872D01*
X125601939Y-111342872D01*
X125595487Y-111341500D01*
X125404513Y-111341500D01*
X125398061Y-111342872D01*
X125398056Y-111342872D01*
X125311112Y-111361353D01*
X125217712Y-111381206D01*
X125211682Y-111383891D01*
X125211681Y-111383891D01*
X125049278Y-111456197D01*
X125049276Y-111456198D01*
X125043248Y-111458882D01*
X124888747Y-111571134D01*
X124884326Y-111576044D01*
X124884325Y-111576045D01*
X124843485Y-111621403D01*
X124760960Y-111713056D01*
X124665473Y-111878444D01*
X124606458Y-112060072D01*
X124586496Y-112250000D01*
X124606458Y-112439928D01*
X124665473Y-112621556D01*
X124760960Y-112786944D01*
X124765380Y-112791852D01*
X124769259Y-112797192D01*
X124767920Y-112798165D01*
X124795050Y-112854696D01*
X124786287Y-112925149D01*
X124768750Y-112952438D01*
X124769259Y-112952808D01*
X124765380Y-112958148D01*
X124760960Y-112963056D01*
X124757659Y-112968774D01*
X124668833Y-113122625D01*
X124665473Y-113128444D01*
X124606458Y-113310072D01*
X124586496Y-113500000D01*
X123008500Y-113500000D01*
X123008500Y-106500000D01*
X134786693Y-106500000D01*
X134805885Y-106719371D01*
X134862880Y-106932076D01*
X134865205Y-106937061D01*
X134953618Y-107126666D01*
X134953621Y-107126671D01*
X134955944Y-107131653D01*
X135082251Y-107312038D01*
X135237962Y-107467749D01*
X135418346Y-107594056D01*
X135617924Y-107687120D01*
X135830629Y-107744115D01*
X136050000Y-107763307D01*
X136269371Y-107744115D01*
X136482076Y-107687120D01*
X136681654Y-107594056D01*
X136862038Y-107467749D01*
X137017749Y-107312038D01*
X137144056Y-107131653D01*
X137146379Y-107126671D01*
X137146382Y-107126666D01*
X137234795Y-106937061D01*
X137237120Y-106932076D01*
X137294115Y-106719371D01*
X137313307Y-106500000D01*
X137294115Y-106280629D01*
X137237120Y-106067924D01*
X137162140Y-105907128D01*
X137146382Y-105873334D01*
X137146379Y-105873329D01*
X137144056Y-105868347D01*
X137017749Y-105687962D01*
X136862038Y-105532251D01*
X136838949Y-105516084D01*
X136794622Y-105460627D01*
X136787314Y-105390008D01*
X136822127Y-105323777D01*
X138497707Y-103648198D01*
X138560019Y-103614172D01*
X138630835Y-103619237D01*
X138687670Y-103661784D01*
X138695919Y-103674290D01*
X138760960Y-103786944D01*
X138888747Y-103928866D01*
X138903561Y-103939629D01*
X139002326Y-104011386D01*
X139043248Y-104041118D01*
X139049276Y-104043802D01*
X139049278Y-104043803D01*
X139211681Y-104116109D01*
X139217712Y-104118794D01*
X139311112Y-104138647D01*
X139398056Y-104157128D01*
X139398061Y-104157128D01*
X139404513Y-104158500D01*
X139595487Y-104158500D01*
X139601939Y-104157128D01*
X139601944Y-104157128D01*
X139688888Y-104138647D01*
X139782288Y-104118794D01*
X139788319Y-104116109D01*
X139950722Y-104043803D01*
X139950724Y-104043802D01*
X139956752Y-104041118D01*
X139997675Y-104011386D01*
X140096439Y-103939629D01*
X140163307Y-103915771D01*
X140232458Y-103931851D01*
X140281938Y-103982765D01*
X140296500Y-104041565D01*
X140296500Y-105341646D01*
X140276498Y-105409767D01*
X140242772Y-105444858D01*
X140175866Y-105491706D01*
X140122473Y-105529092D01*
X140122470Y-105529094D01*
X140117962Y-105532251D01*
X139962251Y-105687962D01*
X139835944Y-105868347D01*
X139833621Y-105873329D01*
X139833618Y-105873334D01*
X139817860Y-105907128D01*
X139742880Y-106067924D01*
X139685885Y-106280629D01*
X139666693Y-106500000D01*
X139685885Y-106719371D01*
X139742880Y-106932076D01*
X139745205Y-106937061D01*
X139833618Y-107126666D01*
X139833621Y-107126671D01*
X139835944Y-107131653D01*
X139962251Y-107312038D01*
X140117962Y-107467749D01*
X140298346Y-107594056D01*
X140497924Y-107687120D01*
X140710629Y-107744115D01*
X140930000Y-107763307D01*
X141149371Y-107744115D01*
X141362076Y-107687120D01*
X141561654Y-107594056D01*
X141742038Y-107467749D01*
X141897749Y-107312038D01*
X142024056Y-107131653D01*
X142026379Y-107126671D01*
X142026382Y-107126666D01*
X142114795Y-106937061D01*
X142117120Y-106932076D01*
X142174115Y-106719371D01*
X142193307Y-106500000D01*
X142174115Y-106280629D01*
X142117120Y-106067924D01*
X142042140Y-105907128D01*
X142026382Y-105873334D01*
X142026379Y-105873329D01*
X142024056Y-105868347D01*
X141897749Y-105687962D01*
X141742038Y-105532251D01*
X141737530Y-105529094D01*
X141737527Y-105529092D01*
X141684134Y-105491706D01*
X141617228Y-105444858D01*
X141572901Y-105389402D01*
X141563500Y-105341646D01*
X141563500Y-102750000D01*
X142586496Y-102750000D01*
X142606458Y-102939928D01*
X142665473Y-103121556D01*
X142760960Y-103286944D01*
X142765378Y-103291851D01*
X142765379Y-103291852D01*
X142850287Y-103386152D01*
X142888747Y-103428866D01*
X142930026Y-103458857D01*
X143035132Y-103535221D01*
X143043248Y-103541118D01*
X143049276Y-103543802D01*
X143049278Y-103543803D01*
X143209799Y-103615271D01*
X143217712Y-103618794D01*
X143311112Y-103638647D01*
X143398056Y-103657128D01*
X143398061Y-103657128D01*
X143404513Y-103658500D01*
X143595487Y-103658500D01*
X143601939Y-103657128D01*
X143601944Y-103657128D01*
X143688888Y-103638647D01*
X143782288Y-103618794D01*
X143790201Y-103615271D01*
X143950722Y-103543803D01*
X143950724Y-103543802D01*
X143956752Y-103541118D01*
X143964869Y-103535221D01*
X144069974Y-103458857D01*
X144111253Y-103428866D01*
X144149713Y-103386152D01*
X144234621Y-103291852D01*
X144234622Y-103291851D01*
X144239040Y-103286944D01*
X144334527Y-103121556D01*
X144393542Y-102939928D01*
X144413504Y-102750000D01*
X144393542Y-102560072D01*
X144334527Y-102378444D01*
X144313990Y-102342872D01*
X144275705Y-102276562D01*
X144239040Y-102213056D01*
X144177408Y-102144606D01*
X144115675Y-102076045D01*
X144115674Y-102076044D01*
X144111253Y-102071134D01*
X143956752Y-101958882D01*
X143950724Y-101956198D01*
X143950722Y-101956197D01*
X143788319Y-101883891D01*
X143788318Y-101883891D01*
X143782288Y-101881206D01*
X143677046Y-101858836D01*
X143601944Y-101842872D01*
X143601939Y-101842872D01*
X143595487Y-101841500D01*
X143404513Y-101841500D01*
X143398061Y-101842872D01*
X143398056Y-101842872D01*
X143322954Y-101858836D01*
X143217712Y-101881206D01*
X143211682Y-101883891D01*
X143211681Y-101883891D01*
X143049278Y-101956197D01*
X143049276Y-101956198D01*
X143043248Y-101958882D01*
X142888747Y-102071134D01*
X142884326Y-102076044D01*
X142884325Y-102076045D01*
X142822593Y-102144606D01*
X142760960Y-102213056D01*
X142724295Y-102276562D01*
X142686011Y-102342872D01*
X142665473Y-102378444D01*
X142606458Y-102560072D01*
X142586496Y-102750000D01*
X141563500Y-102750000D01*
X141563500Y-101884594D01*
X141583502Y-101816473D01*
X141600405Y-101795499D01*
X143700499Y-99695405D01*
X143762811Y-99661379D01*
X143789594Y-99658500D01*
X143845487Y-99658500D01*
X143851939Y-99657128D01*
X143851944Y-99657128D01*
X143948885Y-99636522D01*
X144032288Y-99618794D01*
X144149440Y-99566635D01*
X144200722Y-99543803D01*
X144200724Y-99543802D01*
X144206752Y-99541118D01*
X144361253Y-99428866D01*
X144433713Y-99348391D01*
X144484621Y-99291852D01*
X144484622Y-99291851D01*
X144489040Y-99286944D01*
X144575401Y-99137363D01*
X144581223Y-99127279D01*
X144581224Y-99127278D01*
X144584527Y-99121556D01*
X144643542Y-98939928D01*
X144646551Y-98911305D01*
X144662814Y-98756565D01*
X144663504Y-98750000D01*
X144643542Y-98560072D01*
X144643117Y-98558763D01*
X144648372Y-98489905D01*
X144691189Y-98433273D01*
X144757827Y-98408780D01*
X144766216Y-98408500D01*
X146960579Y-98408500D01*
X147028700Y-98428502D01*
X147075193Y-98482158D01*
X147080409Y-98495557D01*
X147085564Y-98511421D01*
X147181051Y-98676809D01*
X147185469Y-98681716D01*
X147185470Y-98681717D01*
X147295389Y-98803794D01*
X147308838Y-98818731D01*
X147381545Y-98871556D01*
X147427222Y-98904742D01*
X147463339Y-98930983D01*
X147469367Y-98933667D01*
X147469369Y-98933668D01*
X147631772Y-99005974D01*
X147637803Y-99008659D01*
X147725064Y-99027207D01*
X147818147Y-99046993D01*
X147818152Y-99046993D01*
X147824604Y-99048365D01*
X148015578Y-99048365D01*
X148022030Y-99046993D01*
X148022035Y-99046993D01*
X148115118Y-99027207D01*
X148202379Y-99008659D01*
X148208410Y-99005974D01*
X148370813Y-98933668D01*
X148370815Y-98933667D01*
X148376843Y-98930983D01*
X148412961Y-98904742D01*
X148458637Y-98871556D01*
X148531344Y-98818731D01*
X148544793Y-98803794D01*
X148654712Y-98681717D01*
X148654713Y-98681716D01*
X148659131Y-98676809D01*
X148754618Y-98511421D01*
X148813633Y-98329793D01*
X148819546Y-98273539D01*
X148832905Y-98146430D01*
X148833595Y-98139865D01*
X148825963Y-98067251D01*
X148814323Y-97956500D01*
X148814323Y-97956498D01*
X148813633Y-97949937D01*
X148754618Y-97768309D01*
X148659131Y-97602921D01*
X148625185Y-97565220D01*
X148594469Y-97501214D01*
X148603234Y-97430761D01*
X148613873Y-97412130D01*
X148614040Y-97411944D01*
X148709527Y-97246556D01*
X148768542Y-97064928D01*
X148788504Y-96875000D01*
X148787479Y-96865249D01*
X148787814Y-96863417D01*
X148787814Y-96861830D01*
X148788104Y-96861830D01*
X148800251Y-96795411D01*
X148848753Y-96743564D01*
X148917586Y-96726169D01*
X148986849Y-96750142D01*
X149043248Y-96791118D01*
X149049276Y-96793802D01*
X149049278Y-96793803D01*
X149211681Y-96866109D01*
X149217712Y-96868794D01*
X149311112Y-96888647D01*
X149398056Y-96907128D01*
X149398061Y-96907128D01*
X149404513Y-96908500D01*
X149595487Y-96908500D01*
X149601939Y-96907128D01*
X149601944Y-96907128D01*
X149688888Y-96888647D01*
X149782288Y-96868794D01*
X149788319Y-96866109D01*
X149950722Y-96793803D01*
X149950724Y-96793802D01*
X149956752Y-96791118D01*
X150111253Y-96678866D01*
X150176749Y-96606125D01*
X150234621Y-96541852D01*
X150234622Y-96541851D01*
X150239040Y-96536944D01*
X150334527Y-96371556D01*
X150393542Y-96189928D01*
X150397862Y-96148831D01*
X150412814Y-96006565D01*
X150412814Y-96006564D01*
X150413504Y-96000000D01*
X150399409Y-95865896D01*
X150394232Y-95816635D01*
X150394232Y-95816633D01*
X150393542Y-95810072D01*
X150334527Y-95628444D01*
X150239040Y-95463056D01*
X150165863Y-95381785D01*
X150135147Y-95317779D01*
X150133500Y-95297476D01*
X150133500Y-94583594D01*
X150153502Y-94515473D01*
X150207158Y-94468980D01*
X150277432Y-94458876D01*
X150342012Y-94488370D01*
X150348595Y-94494499D01*
X151079595Y-95225499D01*
X151113621Y-95287811D01*
X151116500Y-95314594D01*
X151116500Y-98047476D01*
X151096498Y-98115597D01*
X151084142Y-98131779D01*
X151010960Y-98213056D01*
X150915473Y-98378444D01*
X150856458Y-98560072D01*
X150855768Y-98566633D01*
X150855768Y-98566635D01*
X150838738Y-98728670D01*
X150811725Y-98794327D01*
X150753503Y-98834957D01*
X150713428Y-98841500D01*
X150654513Y-98841500D01*
X150648061Y-98842872D01*
X150648056Y-98842872D01*
X150561112Y-98861353D01*
X150467712Y-98881206D01*
X150461682Y-98883891D01*
X150461681Y-98883891D01*
X150299278Y-98956197D01*
X150299276Y-98956198D01*
X150293248Y-98958882D01*
X150287907Y-98962762D01*
X150287906Y-98962763D01*
X150237843Y-98999136D01*
X150138747Y-99071134D01*
X150134326Y-99076044D01*
X150134325Y-99076045D01*
X150026016Y-99196335D01*
X150010960Y-99213056D01*
X149966031Y-99290876D01*
X149922042Y-99367067D01*
X149915473Y-99378444D01*
X149856458Y-99560072D01*
X149836496Y-99750000D01*
X149856458Y-99939928D01*
X149915473Y-100121556D01*
X150010960Y-100286944D01*
X150138747Y-100428866D01*
X150293248Y-100541118D01*
X150299276Y-100543802D01*
X150299278Y-100543803D01*
X150417223Y-100596315D01*
X150467712Y-100618794D01*
X150561113Y-100638647D01*
X150648056Y-100657128D01*
X150648061Y-100657128D01*
X150654513Y-100658500D01*
X150845487Y-100658500D01*
X150851939Y-100657128D01*
X150851944Y-100657128D01*
X150938887Y-100638647D01*
X151032288Y-100618794D01*
X151166528Y-100559027D01*
X151236893Y-100549593D01*
X151301190Y-100579699D01*
X151339003Y-100639788D01*
X151343085Y-100687303D01*
X151339420Y-100722177D01*
X151336496Y-100750000D01*
X151356458Y-100939928D01*
X151415473Y-101121556D01*
X151510960Y-101286944D01*
X151638747Y-101428866D01*
X151793248Y-101541118D01*
X151799276Y-101543802D01*
X151799278Y-101543803D01*
X151912906Y-101594393D01*
X151967712Y-101618794D01*
X152061112Y-101638647D01*
X152148056Y-101657128D01*
X152148061Y-101657128D01*
X152154513Y-101658500D01*
X152345487Y-101658500D01*
X152351939Y-101657128D01*
X152351944Y-101657128D01*
X152438888Y-101638647D01*
X152532288Y-101618794D01*
X152538315Y-101616111D01*
X152538323Y-101616108D01*
X152587095Y-101594393D01*
X152638343Y-101583500D01*
X169494349Y-101583500D01*
X169562470Y-101603502D01*
X169608963Y-101657158D01*
X169619067Y-101727432D01*
X169608637Y-101762550D01*
X169598861Y-101783612D01*
X169570688Y-101844305D01*
X169510989Y-102059570D01*
X169487251Y-102281695D01*
X169487548Y-102286848D01*
X169487548Y-102286851D01*
X169497467Y-102458882D01*
X169500110Y-102504715D01*
X169501247Y-102509761D01*
X169501248Y-102509767D01*
X169533453Y-102652668D01*
X169528917Y-102723520D01*
X169499631Y-102769464D01*
X167439500Y-104829595D01*
X167377188Y-104863621D01*
X167350405Y-104866500D01*
X149314594Y-104866500D01*
X149246473Y-104846498D01*
X149225499Y-104829595D01*
X148577585Y-104181680D01*
X147916152Y-103520247D01*
X147908612Y-103511961D01*
X147904500Y-103505482D01*
X147854848Y-103458856D01*
X147852007Y-103456102D01*
X147832270Y-103436365D01*
X147829073Y-103433885D01*
X147820051Y-103426180D01*
X147793600Y-103401341D01*
X147787821Y-103395914D01*
X147780875Y-103392095D01*
X147780872Y-103392093D01*
X147770066Y-103386152D01*
X147753547Y-103375301D01*
X147747548Y-103370648D01*
X147737541Y-103362886D01*
X147730272Y-103359741D01*
X147730268Y-103359738D01*
X147696963Y-103345326D01*
X147686313Y-103340109D01*
X147647560Y-103318805D01*
X147627937Y-103313767D01*
X147609234Y-103307363D01*
X147597920Y-103302467D01*
X147597919Y-103302467D01*
X147590645Y-103299319D01*
X147582822Y-103298080D01*
X147582812Y-103298077D01*
X147546976Y-103292401D01*
X147535356Y-103289995D01*
X147500211Y-103280972D01*
X147500210Y-103280972D01*
X147492530Y-103279000D01*
X147472276Y-103279000D01*
X147452565Y-103277449D01*
X147440386Y-103275520D01*
X147432557Y-103274280D01*
X147424665Y-103275026D01*
X147388539Y-103278441D01*
X147376681Y-103279000D01*
X146545700Y-103279000D01*
X146477579Y-103258998D01*
X146466992Y-103250000D01*
X153836496Y-103250000D01*
X153837186Y-103256565D01*
X153849666Y-103375301D01*
X153856458Y-103439928D01*
X153915473Y-103621556D01*
X153918776Y-103627278D01*
X153918777Y-103627279D01*
X153936803Y-103658500D01*
X154010960Y-103786944D01*
X154138747Y-103928866D01*
X154153561Y-103939629D01*
X154252326Y-104011386D01*
X154293248Y-104041118D01*
X154299276Y-104043802D01*
X154299278Y-104043803D01*
X154461681Y-104116109D01*
X154467712Y-104118794D01*
X154561112Y-104138647D01*
X154648056Y-104157128D01*
X154648061Y-104157128D01*
X154654513Y-104158500D01*
X154845487Y-104158500D01*
X154851939Y-104157128D01*
X154851944Y-104157128D01*
X154938888Y-104138647D01*
X155032288Y-104118794D01*
X155038319Y-104116109D01*
X155200722Y-104043803D01*
X155200724Y-104043802D01*
X155206752Y-104041118D01*
X155247675Y-104011386D01*
X155346439Y-103939629D01*
X155361253Y-103928866D01*
X155489040Y-103786944D01*
X155563197Y-103658500D01*
X155581223Y-103627279D01*
X155581224Y-103627278D01*
X155584527Y-103621556D01*
X155643542Y-103439928D01*
X155650335Y-103375301D01*
X155662814Y-103256565D01*
X155663504Y-103250000D01*
X155643542Y-103060072D01*
X155584527Y-102878444D01*
X155489040Y-102713056D01*
X155434667Y-102652668D01*
X155365675Y-102576045D01*
X155365674Y-102576044D01*
X155361253Y-102571134D01*
X155206752Y-102458882D01*
X155200724Y-102456198D01*
X155200722Y-102456197D01*
X155038319Y-102383891D01*
X155038318Y-102383891D01*
X155032288Y-102381206D01*
X154938887Y-102361353D01*
X154851944Y-102342872D01*
X154851939Y-102342872D01*
X154845487Y-102341500D01*
X154654513Y-102341500D01*
X154648061Y-102342872D01*
X154648056Y-102342872D01*
X154561113Y-102361353D01*
X154467712Y-102381206D01*
X154461682Y-102383891D01*
X154461681Y-102383891D01*
X154299278Y-102456197D01*
X154299276Y-102456198D01*
X154293248Y-102458882D01*
X154138747Y-102571134D01*
X154134326Y-102576044D01*
X154134325Y-102576045D01*
X154065334Y-102652668D01*
X154010960Y-102713056D01*
X153915473Y-102878444D01*
X153856458Y-103060072D01*
X153836496Y-103250000D01*
X146466992Y-103250000D01*
X146458353Y-103242657D01*
X146458080Y-103242960D01*
X146453168Y-103238537D01*
X146448753Y-103233634D01*
X146427171Y-103217954D01*
X146299594Y-103125263D01*
X146299593Y-103125262D01*
X146294252Y-103121382D01*
X146288224Y-103118698D01*
X146288222Y-103118697D01*
X146125819Y-103046391D01*
X146125818Y-103046391D01*
X146119788Y-103043706D01*
X146026387Y-103023853D01*
X145939444Y-103005372D01*
X145939439Y-103005372D01*
X145932987Y-103004000D01*
X145742013Y-103004000D01*
X145735561Y-103005372D01*
X145735556Y-103005372D01*
X145648613Y-103023853D01*
X145555212Y-103043706D01*
X145549182Y-103046391D01*
X145549181Y-103046391D01*
X145386778Y-103118697D01*
X145386776Y-103118698D01*
X145380748Y-103121382D01*
X145375407Y-103125262D01*
X145375406Y-103125263D01*
X145325343Y-103161636D01*
X145226247Y-103233634D01*
X145221826Y-103238544D01*
X145221825Y-103238545D01*
X145112703Y-103359738D01*
X145098460Y-103375556D01*
X145002973Y-103540944D01*
X144943958Y-103722572D01*
X144923996Y-103912500D01*
X144924686Y-103919065D01*
X144933193Y-104000000D01*
X144943958Y-104102428D01*
X145002973Y-104284056D01*
X145098460Y-104449444D01*
X145226247Y-104591366D01*
X145325343Y-104663364D01*
X145370742Y-104696348D01*
X145380748Y-104703618D01*
X145386776Y-104706302D01*
X145386778Y-104706303D01*
X145505316Y-104759079D01*
X145555212Y-104781294D01*
X145712051Y-104814631D01*
X145741862Y-104820968D01*
X145804335Y-104854697D01*
X145838657Y-104916846D01*
X145840975Y-104957384D01*
X145836496Y-105000000D01*
X145837186Y-105006565D01*
X145855409Y-105179943D01*
X145856458Y-105189928D01*
X145915473Y-105371556D01*
X146010960Y-105536944D01*
X146138747Y-105678866D01*
X146293248Y-105791118D01*
X146299276Y-105793802D01*
X146299278Y-105793803D01*
X146461681Y-105866109D01*
X146467712Y-105868794D01*
X146561112Y-105888647D01*
X146648056Y-105907128D01*
X146648061Y-105907128D01*
X146654513Y-105908500D01*
X146710405Y-105908500D01*
X146778526Y-105928502D01*
X146799501Y-105945405D01*
X147196353Y-106342258D01*
X147203887Y-106350537D01*
X147208000Y-106357018D01*
X147257651Y-106403643D01*
X147260493Y-106406398D01*
X147280230Y-106426135D01*
X147283427Y-106428615D01*
X147292447Y-106436318D01*
X147324679Y-106466586D01*
X147331625Y-106470405D01*
X147331628Y-106470407D01*
X147342434Y-106476348D01*
X147358953Y-106487199D01*
X147374959Y-106499614D01*
X147382228Y-106502759D01*
X147382232Y-106502762D01*
X147415537Y-106517174D01*
X147426187Y-106522391D01*
X147464940Y-106543695D01*
X147472615Y-106545666D01*
X147472616Y-106545666D01*
X147484562Y-106548733D01*
X147503267Y-106555137D01*
X147521855Y-106563181D01*
X147529678Y-106564420D01*
X147529688Y-106564423D01*
X147565524Y-106570099D01*
X147577144Y-106572505D01*
X147612289Y-106581528D01*
X147619970Y-106583500D01*
X147640224Y-106583500D01*
X147659934Y-106585051D01*
X147679943Y-106588220D01*
X147687835Y-106587474D01*
X147723961Y-106584059D01*
X147735819Y-106583500D01*
X166830009Y-106583500D01*
X166898130Y-106603502D01*
X166944623Y-106657158D01*
X166954727Y-106727432D01*
X166925233Y-106792012D01*
X166919104Y-106798595D01*
X166138104Y-107579595D01*
X166075792Y-107613621D01*
X166049009Y-107616500D01*
X148958200Y-107616500D01*
X148890079Y-107596498D01*
X148870853Y-107580157D01*
X148870580Y-107580460D01*
X148865668Y-107576037D01*
X148861253Y-107571134D01*
X148839671Y-107555454D01*
X148712094Y-107462763D01*
X148712093Y-107462762D01*
X148706752Y-107458882D01*
X148700724Y-107456198D01*
X148700722Y-107456197D01*
X148538319Y-107383891D01*
X148538318Y-107383891D01*
X148532288Y-107381206D01*
X148438888Y-107361353D01*
X148351944Y-107342872D01*
X148351939Y-107342872D01*
X148345487Y-107341500D01*
X148154513Y-107341500D01*
X148148061Y-107342872D01*
X148148056Y-107342872D01*
X148061113Y-107361353D01*
X147967712Y-107381206D01*
X147961682Y-107383891D01*
X147961681Y-107383891D01*
X147799278Y-107456197D01*
X147799276Y-107456198D01*
X147793248Y-107458882D01*
X147787907Y-107462762D01*
X147787906Y-107462763D01*
X147737843Y-107499136D01*
X147638747Y-107571134D01*
X147634326Y-107576044D01*
X147634325Y-107576045D01*
X147533032Y-107688543D01*
X147510960Y-107713056D01*
X147415473Y-107878444D01*
X147356458Y-108060072D01*
X147336496Y-108250000D01*
X147356458Y-108439928D01*
X147415473Y-108621556D01*
X147418776Y-108627278D01*
X147418777Y-108627279D01*
X147441593Y-108666797D01*
X147510960Y-108786944D01*
X147638747Y-108928866D01*
X147793248Y-109041118D01*
X147799276Y-109043802D01*
X147799278Y-109043803D01*
X147896375Y-109087033D01*
X147967712Y-109118794D01*
X148061112Y-109138647D01*
X148148056Y-109157128D01*
X148148061Y-109157128D01*
X148154513Y-109158500D01*
X148345487Y-109158500D01*
X148351939Y-109157128D01*
X148351944Y-109157128D01*
X148434989Y-109139476D01*
X148505780Y-109144878D01*
X148562413Y-109187695D01*
X148585357Y-109250120D01*
X148586496Y-109250000D01*
X148606458Y-109439928D01*
X148665473Y-109621556D01*
X148760960Y-109786944D01*
X148765378Y-109791851D01*
X148765379Y-109791852D01*
X148884325Y-109923955D01*
X148888747Y-109928866D01*
X148987843Y-110000864D01*
X149035842Y-110035737D01*
X149043248Y-110041118D01*
X149049276Y-110043802D01*
X149049278Y-110043803D01*
X149209810Y-110115276D01*
X149217712Y-110118794D01*
X149311112Y-110138647D01*
X149398056Y-110157128D01*
X149398061Y-110157128D01*
X149404513Y-110158500D01*
X149595487Y-110158500D01*
X149601939Y-110157128D01*
X149601944Y-110157128D01*
X149688888Y-110138647D01*
X149782288Y-110118794D01*
X149790190Y-110115276D01*
X149950722Y-110043803D01*
X149950724Y-110043802D01*
X149956752Y-110041118D01*
X149964158Y-110035737D01*
X149965555Y-110035238D01*
X149967811Y-110033936D01*
X149968049Y-110034348D01*
X150031024Y-110011875D01*
X150100177Y-110027952D01*
X150149659Y-110078863D01*
X150158055Y-110098727D01*
X150165473Y-110121556D01*
X150168776Y-110127278D01*
X150168777Y-110127279D01*
X150186803Y-110158500D01*
X150260960Y-110286944D01*
X150388747Y-110428866D01*
X150487843Y-110500864D01*
X150535842Y-110535737D01*
X150543248Y-110541118D01*
X150549276Y-110543802D01*
X150549278Y-110543803D01*
X150709799Y-110615271D01*
X150717712Y-110618794D01*
X150803726Y-110637077D01*
X150898056Y-110657128D01*
X150898061Y-110657128D01*
X150904513Y-110658500D01*
X151095487Y-110658500D01*
X151101939Y-110657128D01*
X151101944Y-110657128D01*
X151196274Y-110637077D01*
X151282288Y-110618794D01*
X151290201Y-110615271D01*
X151450722Y-110543803D01*
X151450724Y-110543802D01*
X151456752Y-110541118D01*
X151464158Y-110535737D01*
X151465555Y-110535238D01*
X151467811Y-110533936D01*
X151468049Y-110534348D01*
X151531024Y-110511875D01*
X151600177Y-110527952D01*
X151649659Y-110578863D01*
X151658055Y-110598727D01*
X151665473Y-110621556D01*
X151668776Y-110627278D01*
X151668777Y-110627279D01*
X151686803Y-110658500D01*
X151760960Y-110786944D01*
X151888747Y-110928866D01*
X152043248Y-111041118D01*
X152049276Y-111043802D01*
X152049278Y-111043803D01*
X152188742Y-111105896D01*
X152217712Y-111118794D01*
X152311112Y-111138647D01*
X152398056Y-111157128D01*
X152398061Y-111157128D01*
X152404513Y-111158500D01*
X152595487Y-111158500D01*
X152601939Y-111157128D01*
X152601944Y-111157128D01*
X152688888Y-111138647D01*
X152782288Y-111118794D01*
X152811258Y-111105896D01*
X152950722Y-111043803D01*
X152950724Y-111043802D01*
X152956752Y-111041118D01*
X153111253Y-110928866D01*
X153239040Y-110786944D01*
X153313197Y-110658500D01*
X153331223Y-110627279D01*
X153331224Y-110627278D01*
X153334527Y-110621556D01*
X153393542Y-110439928D01*
X153403380Y-110346329D01*
X153430392Y-110280673D01*
X153488613Y-110240043D01*
X153528689Y-110233500D01*
X166844025Y-110233500D01*
X166855208Y-110234027D01*
X166862701Y-110235702D01*
X166870627Y-110235453D01*
X166870628Y-110235453D01*
X166930778Y-110233562D01*
X166934737Y-110233500D01*
X166962648Y-110233500D01*
X166966583Y-110233003D01*
X166966648Y-110232995D01*
X166978485Y-110232062D01*
X167010743Y-110231048D01*
X167014762Y-110230922D01*
X167022681Y-110230673D01*
X167042135Y-110225021D01*
X167061492Y-110221013D01*
X167073722Y-110219468D01*
X167073723Y-110219468D01*
X167081589Y-110218474D01*
X167088960Y-110215555D01*
X167088962Y-110215555D01*
X167122704Y-110202196D01*
X167133934Y-110198351D01*
X167168775Y-110188229D01*
X167168776Y-110188229D01*
X167176385Y-110186018D01*
X167183204Y-110181985D01*
X167183209Y-110181983D01*
X167193820Y-110175707D01*
X167211568Y-110167012D01*
X167230409Y-110159552D01*
X167266179Y-110133564D01*
X167276099Y-110127048D01*
X167307327Y-110108580D01*
X167307330Y-110108578D01*
X167314154Y-110104542D01*
X167328475Y-110090221D01*
X167343509Y-110077380D01*
X167353486Y-110070131D01*
X167359899Y-110065472D01*
X167364949Y-110059368D01*
X167364954Y-110059363D01*
X167388085Y-110031402D01*
X167396075Y-110022621D01*
X168178293Y-109240404D01*
X168240605Y-109206379D01*
X168267388Y-109203500D01*
X169494349Y-109203500D01*
X169562470Y-109223502D01*
X169608963Y-109277158D01*
X169619067Y-109347432D01*
X169608637Y-109382550D01*
X169570688Y-109464305D01*
X169510989Y-109679570D01*
X169487251Y-109901695D01*
X169487548Y-109906848D01*
X169487548Y-109906851D01*
X169494951Y-110035238D01*
X169500110Y-110124715D01*
X169501247Y-110129761D01*
X169501248Y-110129767D01*
X169516705Y-110198351D01*
X169549222Y-110342639D01*
X169581723Y-110422680D01*
X169630906Y-110543803D01*
X169633266Y-110549616D01*
X169673499Y-110615271D01*
X169747291Y-110735688D01*
X169749987Y-110740088D01*
X169896250Y-110908938D01*
X170068126Y-111051632D01*
X170138595Y-111092811D01*
X170141445Y-111094476D01*
X170190169Y-111146114D01*
X170203240Y-111215897D01*
X170176509Y-111281669D01*
X170136055Y-111315027D01*
X170123607Y-111321507D01*
X170119474Y-111324610D01*
X170119471Y-111324612D01*
X170044095Y-111381206D01*
X169944965Y-111455635D01*
X169790629Y-111617138D01*
X169664743Y-111801680D01*
X169570688Y-112004305D01*
X169510989Y-112219570D01*
X169487251Y-112441695D01*
X169487548Y-112446848D01*
X169487548Y-112446851D01*
X169497951Y-112627279D01*
X169500110Y-112664715D01*
X169501247Y-112669761D01*
X169501248Y-112669767D01*
X169525304Y-112776508D01*
X169549222Y-112882639D01*
X169633266Y-113089616D01*
X169684942Y-113173944D01*
X169747291Y-113275688D01*
X169749987Y-113280088D01*
X169896250Y-113448938D01*
X170068126Y-113591632D01*
X170138595Y-113632811D01*
X170141445Y-113634476D01*
X170190169Y-113686114D01*
X170203240Y-113755897D01*
X170176509Y-113821669D01*
X170136055Y-113855027D01*
X170123607Y-113861507D01*
X170119474Y-113864610D01*
X170119471Y-113864612D01*
X169973146Y-113974476D01*
X169944965Y-113995635D01*
X169790629Y-114157138D01*
X169787720Y-114161403D01*
X169787714Y-114161411D01*
X169750939Y-114215321D01*
X169664743Y-114341680D01*
X169570688Y-114544305D01*
X169510989Y-114759570D01*
X169487251Y-114981695D01*
X169487548Y-114986848D01*
X169487548Y-114986851D01*
X169493011Y-115081590D01*
X169500110Y-115204715D01*
X169501247Y-115209761D01*
X169501248Y-115209767D01*
X169521119Y-115297939D01*
X169549222Y-115422639D01*
X169633266Y-115629616D01*
X169684019Y-115712438D01*
X169747291Y-115815688D01*
X169749987Y-115820088D01*
X169896250Y-115988938D01*
X170068126Y-116131632D01*
X170138595Y-116172811D01*
X170141445Y-116174476D01*
X170190169Y-116226114D01*
X170203240Y-116295897D01*
X170176509Y-116361669D01*
X170136055Y-116395027D01*
X170123607Y-116401507D01*
X170119474Y-116404610D01*
X170119471Y-116404612D01*
X170095247Y-116422800D01*
X169944965Y-116535635D01*
X169790629Y-116697138D01*
X169664743Y-116881680D01*
X169570688Y-117084305D01*
X169510989Y-117299570D01*
X169487251Y-117521695D01*
X169487548Y-117526848D01*
X169487548Y-117526851D01*
X169493011Y-117621590D01*
X169500110Y-117744715D01*
X169501247Y-117749761D01*
X169501248Y-117749767D01*
X169521119Y-117837939D01*
X169549222Y-117962639D01*
X169633266Y-118169616D01*
X169684019Y-118252438D01*
X169747291Y-118355688D01*
X169749987Y-118360088D01*
X169896250Y-118528938D01*
X170068126Y-118671632D01*
X170141955Y-118714774D01*
X170190679Y-118766412D01*
X170203750Y-118836195D01*
X170177019Y-118901967D01*
X170136562Y-118935327D01*
X170128457Y-118939546D01*
X170119738Y-118945036D01*
X169949433Y-119072905D01*
X169941726Y-119079748D01*
X169794590Y-119233717D01*
X169788104Y-119241727D01*
X169668098Y-119417649D01*
X169663000Y-119426623D01*
X169573338Y-119619783D01*
X169569775Y-119629470D01*
X169528711Y-119777540D01*
X169528924Y-119791644D01*
X169536575Y-119795000D01*
X174696789Y-119795000D01*
X174710320Y-119791027D01*
X174711625Y-119781947D01*
X174681214Y-119660875D01*
X174677894Y-119651124D01*
X174592972Y-119455814D01*
X174588105Y-119446739D01*
X174472426Y-119267926D01*
X174466136Y-119259757D01*
X174322806Y-119102240D01*
X174315273Y-119095215D01*
X174148139Y-118963222D01*
X174139556Y-118957520D01*
X174102602Y-118937120D01*
X174052631Y-118886687D01*
X174037859Y-118817245D01*
X174062975Y-118750839D01*
X174090327Y-118724232D01*
X174113797Y-118707491D01*
X174269860Y-118596173D01*
X174428096Y-118438489D01*
X174487594Y-118355689D01*
X174555435Y-118261277D01*
X174558453Y-118257077D01*
X174579320Y-118214857D01*
X174655136Y-118061453D01*
X174655137Y-118061451D01*
X174657430Y-118056811D01*
X174722370Y-117843069D01*
X174751529Y-117621590D01*
X174753156Y-117555000D01*
X174734852Y-117332361D01*
X174680431Y-117115702D01*
X174591354Y-116910840D01*
X174470014Y-116723277D01*
X174319670Y-116558051D01*
X174315619Y-116554852D01*
X174315615Y-116554848D01*
X174148414Y-116422800D01*
X174148410Y-116422798D01*
X174144359Y-116419598D01*
X174103053Y-116396796D01*
X174053084Y-116346364D01*
X174038312Y-116276921D01*
X174063428Y-116210516D01*
X174090780Y-116183909D01*
X174134603Y-116152650D01*
X174269860Y-116056173D01*
X174428096Y-115898489D01*
X174487594Y-115815689D01*
X174555435Y-115721277D01*
X174558453Y-115717077D01*
X174579320Y-115674857D01*
X174655136Y-115521453D01*
X174655137Y-115521451D01*
X174657430Y-115516811D01*
X174722370Y-115303069D01*
X174751529Y-115081590D01*
X174753156Y-115015000D01*
X174734852Y-114792361D01*
X174706821Y-114680766D01*
X174709625Y-114609825D01*
X174739930Y-114560975D01*
X174957253Y-114343652D01*
X174965539Y-114336112D01*
X174972018Y-114332000D01*
X175018644Y-114282348D01*
X175021398Y-114279507D01*
X175041135Y-114259770D01*
X175043615Y-114256573D01*
X175051320Y-114247551D01*
X175076159Y-114221100D01*
X175081586Y-114215321D01*
X175085405Y-114208375D01*
X175085407Y-114208372D01*
X175091348Y-114197566D01*
X175102199Y-114181047D01*
X175109758Y-114171301D01*
X175114614Y-114165041D01*
X175117759Y-114157772D01*
X175117762Y-114157768D01*
X175132174Y-114124463D01*
X175137391Y-114113813D01*
X175158695Y-114075060D01*
X175163733Y-114055437D01*
X175170137Y-114036734D01*
X175175033Y-114025420D01*
X175175033Y-114025419D01*
X175178181Y-114018145D01*
X175179420Y-114010322D01*
X175179423Y-114010312D01*
X175185099Y-113974476D01*
X175187505Y-113962856D01*
X175196528Y-113927711D01*
X175196528Y-113927710D01*
X175198500Y-113920030D01*
X175198500Y-113899776D01*
X175200051Y-113880065D01*
X175201980Y-113867886D01*
X175203220Y-113860057D01*
X175199059Y-113816038D01*
X175198500Y-113804181D01*
X175198500Y-99367067D01*
X175199027Y-99355884D01*
X175200702Y-99348391D01*
X175198562Y-99280300D01*
X175198500Y-99276343D01*
X175198500Y-99248443D01*
X175197996Y-99244452D01*
X175197063Y-99232610D01*
X175196449Y-99213056D01*
X175195674Y-99188410D01*
X175193462Y-99180796D01*
X175193461Y-99180791D01*
X175190023Y-99168958D01*
X175186012Y-99149594D01*
X175184467Y-99137363D01*
X175183474Y-99129502D01*
X175180557Y-99122135D01*
X175180556Y-99122130D01*
X175167198Y-99088391D01*
X175163354Y-99077164D01*
X175160474Y-99067251D01*
X175151018Y-99034706D01*
X175140707Y-99017271D01*
X175132012Y-98999523D01*
X175124552Y-98980682D01*
X175098564Y-98944912D01*
X175092048Y-98934992D01*
X175073580Y-98903764D01*
X175073578Y-98903761D01*
X175069542Y-98896937D01*
X175055221Y-98882616D01*
X175042380Y-98867582D01*
X175035132Y-98857606D01*
X175030472Y-98851192D01*
X174996407Y-98823011D01*
X174987626Y-98815021D01*
X174446145Y-98273539D01*
X174412120Y-98211227D01*
X174417185Y-98140411D01*
X174432919Y-98110918D01*
X174555003Y-97941020D01*
X174560313Y-97932183D01*
X174654670Y-97741267D01*
X174658469Y-97731672D01*
X174712957Y-97552333D01*
X174713089Y-97538233D01*
X174706182Y-97535000D01*
X169543592Y-97535000D01*
X169530061Y-97538973D01*
X169528624Y-97548966D01*
X169548565Y-97637446D01*
X169551644Y-97647275D01*
X169610856Y-97793096D01*
X169617952Y-97863737D01*
X169585730Y-97927000D01*
X169524420Y-97962801D01*
X169494113Y-97966500D01*
X161000645Y-97966500D01*
X160949396Y-97955607D01*
X160788319Y-97883891D01*
X160788318Y-97883891D01*
X160782288Y-97881206D01*
X160688887Y-97861353D01*
X160601944Y-97842872D01*
X160601939Y-97842872D01*
X160595487Y-97841500D01*
X160404513Y-97841500D01*
X160398061Y-97842872D01*
X160398056Y-97842872D01*
X160311113Y-97861353D01*
X160217712Y-97881206D01*
X160211682Y-97883891D01*
X160211681Y-97883891D01*
X160049278Y-97956197D01*
X160049276Y-97956198D01*
X160043248Y-97958882D01*
X159888747Y-98071134D01*
X159884326Y-98076044D01*
X159884325Y-98076045D01*
X159818398Y-98149265D01*
X159760960Y-98213056D01*
X159665473Y-98378444D01*
X159606458Y-98560072D01*
X159605768Y-98566633D01*
X159605768Y-98566635D01*
X159594189Y-98676809D01*
X159586496Y-98750000D01*
X159587186Y-98756565D01*
X159603450Y-98911305D01*
X159606458Y-98939928D01*
X159611745Y-98956197D01*
X159618362Y-98976563D01*
X159620390Y-99047531D01*
X159583728Y-99108329D01*
X159520016Y-99139654D01*
X159498529Y-99141500D01*
X152751471Y-99141500D01*
X152683350Y-99121498D01*
X152636857Y-99067842D01*
X152626753Y-98997568D01*
X152631638Y-98976563D01*
X152638256Y-98956197D01*
X152643542Y-98939928D01*
X152646551Y-98911305D01*
X152662814Y-98756565D01*
X152663504Y-98750000D01*
X152655811Y-98676809D01*
X152644232Y-98566635D01*
X152644232Y-98566633D01*
X152643542Y-98560072D01*
X152584527Y-98378444D01*
X152489040Y-98213056D01*
X152415863Y-98131785D01*
X152385147Y-98067779D01*
X152383500Y-98047476D01*
X152383500Y-95078767D01*
X152384027Y-95067584D01*
X152385702Y-95060091D01*
X152384975Y-95036944D01*
X152383562Y-94992014D01*
X152383500Y-94988055D01*
X152383500Y-94960144D01*
X152382995Y-94956144D01*
X152382062Y-94944301D01*
X152381996Y-94942177D01*
X152380673Y-94900110D01*
X152375022Y-94880658D01*
X152371014Y-94861306D01*
X152369467Y-94849063D01*
X152368474Y-94841203D01*
X152365556Y-94833832D01*
X152352200Y-94800097D01*
X152348355Y-94788870D01*
X152340429Y-94761590D01*
X152336018Y-94746407D01*
X152331984Y-94739585D01*
X152331981Y-94739579D01*
X152325706Y-94728968D01*
X152317010Y-94711218D01*
X152312472Y-94699756D01*
X152312469Y-94699751D01*
X152309552Y-94692383D01*
X152283573Y-94656625D01*
X152277057Y-94646707D01*
X152258575Y-94615457D01*
X152254542Y-94608637D01*
X152240218Y-94594313D01*
X152227376Y-94579278D01*
X152215472Y-94562893D01*
X152181406Y-94534711D01*
X152172627Y-94526722D01*
X152145905Y-94500000D01*
X153336496Y-94500000D01*
X153337186Y-94506565D01*
X153354033Y-94666851D01*
X153356458Y-94689928D01*
X153415473Y-94871556D01*
X153418776Y-94877278D01*
X153418777Y-94877279D01*
X153420728Y-94880658D01*
X153510960Y-95036944D01*
X153515378Y-95041851D01*
X153515379Y-95041852D01*
X153565571Y-95097596D01*
X153638747Y-95178866D01*
X153793248Y-95291118D01*
X153799276Y-95293802D01*
X153799278Y-95293803D01*
X153960531Y-95365597D01*
X153967712Y-95368794D01*
X154061113Y-95388647D01*
X154148056Y-95407128D01*
X154148061Y-95407128D01*
X154154513Y-95408500D01*
X154345487Y-95408500D01*
X154351939Y-95407128D01*
X154351944Y-95407128D01*
X154438888Y-95388647D01*
X154532288Y-95368794D01*
X154539469Y-95365597D01*
X154700722Y-95293803D01*
X154700724Y-95293802D01*
X154706752Y-95291118D01*
X154861253Y-95178866D01*
X154934429Y-95097596D01*
X154984621Y-95041852D01*
X154984622Y-95041851D01*
X154989040Y-95036944D01*
X155079272Y-94880658D01*
X155081223Y-94877279D01*
X155081224Y-94877278D01*
X155084527Y-94871556D01*
X155143542Y-94689928D01*
X155145968Y-94666851D01*
X155162814Y-94506565D01*
X155163504Y-94500000D01*
X155162282Y-94488370D01*
X155144232Y-94316635D01*
X155144232Y-94316633D01*
X155143542Y-94310072D01*
X155084527Y-94128444D01*
X154989040Y-93963056D01*
X154903107Y-93867617D01*
X154865675Y-93826045D01*
X154865674Y-93826044D01*
X154861253Y-93821134D01*
X154706752Y-93708882D01*
X154700724Y-93706198D01*
X154700722Y-93706197D01*
X154538319Y-93633891D01*
X154538318Y-93633891D01*
X154532288Y-93631206D01*
X154438887Y-93611353D01*
X154351944Y-93592872D01*
X154351939Y-93592872D01*
X154345487Y-93591500D01*
X154154513Y-93591500D01*
X154148061Y-93592872D01*
X154148056Y-93592872D01*
X154061113Y-93611353D01*
X153967712Y-93631206D01*
X153961682Y-93633891D01*
X153961681Y-93633891D01*
X153799278Y-93706197D01*
X153799276Y-93706198D01*
X153793248Y-93708882D01*
X153638747Y-93821134D01*
X153634326Y-93826044D01*
X153634325Y-93826045D01*
X153596894Y-93867617D01*
X153510960Y-93963056D01*
X153415473Y-94128444D01*
X153356458Y-94310072D01*
X153355768Y-94316633D01*
X153355768Y-94316635D01*
X153337718Y-94488370D01*
X153336496Y-94500000D01*
X152145905Y-94500000D01*
X149670405Y-92024500D01*
X149636379Y-91962188D01*
X149633500Y-91935405D01*
X149633500Y-86299265D01*
X149653502Y-86231144D01*
X149707158Y-86184651D01*
X149777432Y-86174547D01*
X149842012Y-86204041D01*
X149879333Y-86260329D01*
X149915473Y-86371556D01*
X150010960Y-86536944D01*
X150138747Y-86678866D01*
X150293248Y-86791118D01*
X150299276Y-86793802D01*
X150299278Y-86793803D01*
X150461681Y-86866109D01*
X150467712Y-86868794D01*
X150561112Y-86888647D01*
X150648056Y-86907128D01*
X150648061Y-86907128D01*
X150654513Y-86908500D01*
X150724212Y-86908500D01*
X150792333Y-86928502D01*
X150838826Y-86982158D01*
X150849522Y-87021329D01*
X150862511Y-87144908D01*
X150868509Y-87201979D01*
X150927524Y-87383607D01*
X151023011Y-87548995D01*
X151027429Y-87553902D01*
X151027430Y-87553903D01*
X151052236Y-87581453D01*
X151150798Y-87690917D01*
X151194440Y-87722625D01*
X151275143Y-87781259D01*
X151305299Y-87803169D01*
X151311327Y-87805853D01*
X151311329Y-87805854D01*
X151468180Y-87875688D01*
X151479763Y-87880845D01*
X151573163Y-87900698D01*
X151660107Y-87919179D01*
X151660112Y-87919179D01*
X151666564Y-87920551D01*
X151857538Y-87920551D01*
X151863990Y-87919179D01*
X151863995Y-87919179D01*
X151950938Y-87900698D01*
X152044339Y-87880845D01*
X152175719Y-87822351D01*
X152246086Y-87812917D01*
X152310383Y-87843023D01*
X152316063Y-87848363D01*
X156841894Y-92374194D01*
X156875920Y-92436506D01*
X156878799Y-92463289D01*
X156878799Y-95809775D01*
X156858797Y-95877896D01*
X156846441Y-95894078D01*
X156773259Y-95975355D01*
X156730990Y-96048567D01*
X156709935Y-96085036D01*
X156677772Y-96140743D01*
X156618757Y-96322371D01*
X156618067Y-96328932D01*
X156618067Y-96328934D01*
X156606026Y-96443500D01*
X156598795Y-96512299D01*
X156599485Y-96518864D01*
X156616302Y-96678866D01*
X156618757Y-96702227D01*
X156677772Y-96883855D01*
X156773259Y-97049243D01*
X156777677Y-97054150D01*
X156777678Y-97054151D01*
X156896624Y-97186254D01*
X156901046Y-97191165D01*
X157055547Y-97303417D01*
X157061575Y-97306101D01*
X157061577Y-97306102D01*
X157159372Y-97349643D01*
X157213468Y-97395623D01*
X157234117Y-97463551D01*
X157233433Y-97477913D01*
X157217358Y-97630862D01*
X157218048Y-97637427D01*
X157232465Y-97774594D01*
X157237320Y-97820790D01*
X157296335Y-98002418D01*
X157391822Y-98167806D01*
X157396240Y-98172713D01*
X157396241Y-98172714D01*
X157514048Y-98303552D01*
X157519609Y-98309728D01*
X157674110Y-98421980D01*
X157680138Y-98424664D01*
X157680140Y-98424665D01*
X157842543Y-98496971D01*
X157848574Y-98499656D01*
X157930848Y-98517144D01*
X158028918Y-98537990D01*
X158028923Y-98537990D01*
X158035375Y-98539362D01*
X158226349Y-98539362D01*
X158232801Y-98537990D01*
X158232806Y-98537990D01*
X158330876Y-98517144D01*
X158413150Y-98499656D01*
X158419181Y-98496971D01*
X158581584Y-98424665D01*
X158581586Y-98424664D01*
X158587614Y-98421980D01*
X158742115Y-98309728D01*
X158747676Y-98303552D01*
X158865483Y-98172714D01*
X158865484Y-98172713D01*
X158869902Y-98167806D01*
X158965389Y-98002418D01*
X159024404Y-97820790D01*
X159029260Y-97774594D01*
X159043676Y-97637427D01*
X159044366Y-97630862D01*
X159043835Y-97625811D01*
X159054039Y-97576539D01*
X159058937Y-97565222D01*
X159067175Y-97546184D01*
X159072391Y-97535537D01*
X159093695Y-97496784D01*
X159098733Y-97477161D01*
X159105137Y-97458458D01*
X159110033Y-97447144D01*
X159110033Y-97447143D01*
X159113181Y-97439869D01*
X159114420Y-97432046D01*
X159114423Y-97432036D01*
X159120099Y-97396200D01*
X159122505Y-97384580D01*
X159131528Y-97349435D01*
X159131528Y-97349434D01*
X159133500Y-97341754D01*
X159133500Y-97321500D01*
X159135051Y-97301789D01*
X159136980Y-97289610D01*
X159138220Y-97281781D01*
X159134059Y-97237762D01*
X159133500Y-97225905D01*
X159133500Y-94661695D01*
X169487251Y-94661695D01*
X169487548Y-94666848D01*
X169487548Y-94666851D01*
X169493011Y-94761590D01*
X169500110Y-94884715D01*
X169501247Y-94889761D01*
X169501248Y-94889767D01*
X169501864Y-94892500D01*
X169549222Y-95102639D01*
X169633266Y-95309616D01*
X169670371Y-95370166D01*
X169747291Y-95495688D01*
X169749987Y-95500088D01*
X169896250Y-95668938D01*
X170068126Y-95811632D01*
X170076688Y-95816635D01*
X170141955Y-95854774D01*
X170190679Y-95906412D01*
X170203750Y-95976195D01*
X170177019Y-96041967D01*
X170136562Y-96075327D01*
X170128457Y-96079546D01*
X170119738Y-96085036D01*
X169949433Y-96212905D01*
X169941726Y-96219748D01*
X169794590Y-96373717D01*
X169788104Y-96381727D01*
X169668098Y-96557649D01*
X169663000Y-96566623D01*
X169573338Y-96759783D01*
X169569775Y-96769470D01*
X169528711Y-96917540D01*
X169528924Y-96931644D01*
X169536575Y-96935000D01*
X174696789Y-96935000D01*
X174710320Y-96931027D01*
X174711625Y-96921947D01*
X174681214Y-96800875D01*
X174677892Y-96791118D01*
X174592972Y-96595814D01*
X174588105Y-96586739D01*
X174472426Y-96407926D01*
X174466136Y-96399757D01*
X174322806Y-96242240D01*
X174315273Y-96235215D01*
X174148139Y-96103222D01*
X174139556Y-96097520D01*
X174102602Y-96077120D01*
X174052631Y-96026687D01*
X174037859Y-95957245D01*
X174062975Y-95890839D01*
X174090327Y-95864232D01*
X174113797Y-95847491D01*
X174269860Y-95736173D01*
X174428096Y-95578489D01*
X174487594Y-95495689D01*
X174555435Y-95401277D01*
X174558453Y-95397077D01*
X174572432Y-95368794D01*
X174655136Y-95201453D01*
X174655137Y-95201451D01*
X174657430Y-95196811D01*
X174704733Y-95041118D01*
X174720865Y-94988023D01*
X174720865Y-94988021D01*
X174722370Y-94983069D01*
X174751529Y-94761590D01*
X174753156Y-94695000D01*
X174734852Y-94472361D01*
X174680431Y-94255702D01*
X174591354Y-94050840D01*
X174470014Y-93863277D01*
X174319670Y-93698051D01*
X174315619Y-93694852D01*
X174315615Y-93694848D01*
X174148414Y-93562800D01*
X174148410Y-93562798D01*
X174144359Y-93559598D01*
X174103053Y-93536796D01*
X174053084Y-93486364D01*
X174038312Y-93416921D01*
X174063428Y-93350516D01*
X174090780Y-93323909D01*
X174134603Y-93292650D01*
X174269860Y-93196173D01*
X174428096Y-93038489D01*
X174487594Y-92955689D01*
X174555435Y-92861277D01*
X174558453Y-92857077D01*
X174579320Y-92814857D01*
X174655136Y-92661453D01*
X174655137Y-92661451D01*
X174657430Y-92656811D01*
X174707499Y-92492014D01*
X174720865Y-92448023D01*
X174720865Y-92448021D01*
X174722370Y-92443069D01*
X174751529Y-92221590D01*
X174751611Y-92218240D01*
X174753074Y-92158365D01*
X174753074Y-92158361D01*
X174753156Y-92155000D01*
X174734852Y-91932361D01*
X174680431Y-91715702D01*
X174591354Y-91510840D01*
X174470014Y-91323277D01*
X174319670Y-91158051D01*
X174315619Y-91154852D01*
X174315615Y-91154848D01*
X174148414Y-91022800D01*
X174148410Y-91022798D01*
X174144359Y-91019598D01*
X174103053Y-90996796D01*
X174053084Y-90946364D01*
X174038312Y-90876921D01*
X174063428Y-90810516D01*
X174090780Y-90783909D01*
X174134603Y-90752650D01*
X174269860Y-90656173D01*
X174428096Y-90498489D01*
X174487594Y-90415689D01*
X174555435Y-90321277D01*
X174558453Y-90317077D01*
X174579320Y-90274857D01*
X174655136Y-90121453D01*
X174655137Y-90121451D01*
X174657430Y-90116811D01*
X174722370Y-89903069D01*
X174751529Y-89681590D01*
X174753156Y-89615000D01*
X174734852Y-89392361D01*
X174680431Y-89175702D01*
X174591354Y-88970840D01*
X174470014Y-88783277D01*
X174319670Y-88618051D01*
X174315619Y-88614852D01*
X174315615Y-88614848D01*
X174148414Y-88482800D01*
X174148410Y-88482798D01*
X174144359Y-88479598D01*
X174103053Y-88456796D01*
X174053084Y-88406364D01*
X174038312Y-88336921D01*
X174063428Y-88270516D01*
X174090780Y-88243909D01*
X174134603Y-88212650D01*
X174269860Y-88116173D01*
X174428096Y-87958489D01*
X174487594Y-87875689D01*
X174555435Y-87781277D01*
X174558453Y-87777077D01*
X174579320Y-87734857D01*
X174655136Y-87581453D01*
X174655137Y-87581451D01*
X174657430Y-87576811D01*
X174722370Y-87363069D01*
X174751529Y-87141590D01*
X174753156Y-87075000D01*
X174734852Y-86852361D01*
X174680431Y-86635702D01*
X174591354Y-86430840D01*
X174551906Y-86369862D01*
X174472822Y-86247617D01*
X174472820Y-86247614D01*
X174470014Y-86243277D01*
X174319670Y-86078051D01*
X174315619Y-86074852D01*
X174315615Y-86074848D01*
X174148414Y-85942800D01*
X174148410Y-85942798D01*
X174144359Y-85939598D01*
X174103053Y-85916796D01*
X174053084Y-85866364D01*
X174038312Y-85796921D01*
X174063428Y-85730516D01*
X174090780Y-85703909D01*
X174134603Y-85672650D01*
X174269860Y-85576173D01*
X174299781Y-85546357D01*
X174424435Y-85422137D01*
X174428096Y-85418489D01*
X174479827Y-85346498D01*
X174555435Y-85241277D01*
X174558453Y-85237077D01*
X174579320Y-85194857D01*
X174655136Y-85041453D01*
X174655137Y-85041451D01*
X174657430Y-85036811D01*
X174722370Y-84823069D01*
X174751529Y-84601590D01*
X174753156Y-84535000D01*
X174734852Y-84312361D01*
X174680431Y-84095702D01*
X174591354Y-83890840D01*
X174470014Y-83703277D01*
X174319670Y-83538051D01*
X174315619Y-83534852D01*
X174315615Y-83534848D01*
X174148414Y-83402800D01*
X174148410Y-83402798D01*
X174144359Y-83399598D01*
X174103053Y-83376796D01*
X174053084Y-83326364D01*
X174038312Y-83256921D01*
X174063428Y-83190516D01*
X174090780Y-83163909D01*
X174134603Y-83132650D01*
X174269860Y-83036173D01*
X174428096Y-82878489D01*
X174487594Y-82795689D01*
X174555435Y-82701277D01*
X174558453Y-82697077D01*
X174579320Y-82654857D01*
X174655136Y-82501453D01*
X174655137Y-82501451D01*
X174657430Y-82496811D01*
X174722370Y-82283069D01*
X174751529Y-82061590D01*
X174753156Y-81995000D01*
X174734852Y-81772361D01*
X174680431Y-81555702D01*
X174591354Y-81350840D01*
X174470014Y-81163277D01*
X174319670Y-80998051D01*
X174315619Y-80994852D01*
X174315615Y-80994848D01*
X174148414Y-80862800D01*
X174148410Y-80862798D01*
X174144359Y-80859598D01*
X174103053Y-80836796D01*
X174053084Y-80786364D01*
X174038312Y-80716921D01*
X174063428Y-80650516D01*
X174090780Y-80623909D01*
X174134603Y-80592650D01*
X174269860Y-80496173D01*
X174428096Y-80338489D01*
X174487594Y-80255689D01*
X174555435Y-80161277D01*
X174558453Y-80157077D01*
X174579320Y-80114857D01*
X174655136Y-79961453D01*
X174655137Y-79961451D01*
X174657430Y-79956811D01*
X174722370Y-79743069D01*
X174751529Y-79521590D01*
X174753156Y-79455000D01*
X174734852Y-79232361D01*
X174680431Y-79015702D01*
X174591354Y-78810840D01*
X174470014Y-78623277D01*
X174319670Y-78458051D01*
X174315619Y-78454852D01*
X174315615Y-78454848D01*
X174148414Y-78322800D01*
X174148410Y-78322798D01*
X174144359Y-78319598D01*
X174103053Y-78296796D01*
X174053084Y-78246364D01*
X174038312Y-78176921D01*
X174063428Y-78110516D01*
X174090780Y-78083909D01*
X174134603Y-78052650D01*
X174269860Y-77956173D01*
X174428096Y-77798489D01*
X174487594Y-77715689D01*
X174555435Y-77621277D01*
X174558453Y-77617077D01*
X174579320Y-77574857D01*
X174655136Y-77421453D01*
X174655137Y-77421451D01*
X174657430Y-77416811D01*
X174716257Y-77223190D01*
X174720865Y-77208023D01*
X174720865Y-77208021D01*
X174722370Y-77203069D01*
X174751529Y-76981590D01*
X174753156Y-76915000D01*
X174734852Y-76692361D01*
X174680431Y-76475702D01*
X174591354Y-76270840D01*
X174470014Y-76083277D01*
X174319670Y-75918051D01*
X174315619Y-75914852D01*
X174315615Y-75914848D01*
X174148414Y-75782800D01*
X174148410Y-75782798D01*
X174144359Y-75779598D01*
X174102569Y-75756529D01*
X174052598Y-75706097D01*
X174037826Y-75636654D01*
X174062942Y-75570248D01*
X174090294Y-75543641D01*
X174265328Y-75418792D01*
X174273200Y-75412139D01*
X174424052Y-75261812D01*
X174430730Y-75253965D01*
X174555003Y-75081020D01*
X174560313Y-75072183D01*
X174654670Y-74881267D01*
X174658469Y-74871672D01*
X174712957Y-74692333D01*
X174713089Y-74678233D01*
X174706182Y-74675000D01*
X169510116Y-74675000D01*
X169494877Y-74679475D01*
X169493672Y-74680865D01*
X169492001Y-74688548D01*
X169492001Y-75269669D01*
X169492371Y-75276490D01*
X169497895Y-75327352D01*
X169501521Y-75342604D01*
X169546676Y-75463054D01*
X169555214Y-75478649D01*
X169631715Y-75580724D01*
X169644276Y-75593285D01*
X169746351Y-75669786D01*
X169761946Y-75678324D01*
X169870827Y-75719142D01*
X169927591Y-75761784D01*
X169952291Y-75828345D01*
X169937083Y-75897694D01*
X169917691Y-75924175D01*
X169848683Y-75996388D01*
X169790629Y-76057138D01*
X169787720Y-76061403D01*
X169787714Y-76061411D01*
X169772798Y-76083277D01*
X169664743Y-76241680D01*
X169649003Y-76275590D01*
X169574171Y-76436802D01*
X169570688Y-76444305D01*
X169510989Y-76659570D01*
X169487251Y-76881695D01*
X169487548Y-76886848D01*
X169487548Y-76886851D01*
X169493011Y-76981590D01*
X169500110Y-77104715D01*
X169501247Y-77109761D01*
X169501248Y-77109767D01*
X169510562Y-77151094D01*
X169549222Y-77322639D01*
X169633266Y-77529616D01*
X169684019Y-77612438D01*
X169747291Y-77715688D01*
X169749987Y-77720088D01*
X169896250Y-77888938D01*
X170068126Y-78031632D01*
X170119166Y-78061457D01*
X170141445Y-78074476D01*
X170190169Y-78126114D01*
X170203240Y-78195897D01*
X170176509Y-78261669D01*
X170136055Y-78295027D01*
X170123607Y-78301507D01*
X170119474Y-78304610D01*
X170119471Y-78304612D01*
X169949100Y-78432530D01*
X169944965Y-78435635D01*
X169790629Y-78597138D01*
X169664743Y-78781680D01*
X169570688Y-78984305D01*
X169510989Y-79199570D01*
X169487251Y-79421695D01*
X169487548Y-79426848D01*
X169487548Y-79426851D01*
X169493011Y-79521590D01*
X169500110Y-79644715D01*
X169501247Y-79649761D01*
X169501248Y-79649767D01*
X169509653Y-79687061D01*
X169549222Y-79862639D01*
X169587461Y-79956811D01*
X169622361Y-80042759D01*
X169633266Y-80069616D01*
X169684019Y-80152438D01*
X169747291Y-80255688D01*
X169749987Y-80260088D01*
X169896250Y-80428938D01*
X170068126Y-80571632D01*
X170138595Y-80612811D01*
X170141445Y-80614476D01*
X170190169Y-80666114D01*
X170203240Y-80735897D01*
X170176509Y-80801669D01*
X170136055Y-80835027D01*
X170123607Y-80841507D01*
X170119474Y-80844610D01*
X170119471Y-80844612D01*
X170095247Y-80862800D01*
X169944965Y-80975635D01*
X169790629Y-81137138D01*
X169664743Y-81321680D01*
X169570688Y-81524305D01*
X169510989Y-81739570D01*
X169487251Y-81961695D01*
X169487548Y-81966848D01*
X169487548Y-81966851D01*
X169493011Y-82061590D01*
X169500110Y-82184715D01*
X169501247Y-82189761D01*
X169501248Y-82189767D01*
X169521119Y-82277939D01*
X169549222Y-82402639D01*
X169633266Y-82609616D01*
X169684019Y-82692438D01*
X169747291Y-82795688D01*
X169749987Y-82800088D01*
X169896250Y-82968938D01*
X170068126Y-83111632D01*
X170138595Y-83152811D01*
X170141445Y-83154476D01*
X170190169Y-83206114D01*
X170203240Y-83275897D01*
X170176509Y-83341669D01*
X170136055Y-83375027D01*
X170123607Y-83381507D01*
X170119474Y-83384610D01*
X170119471Y-83384612D01*
X170095247Y-83402800D01*
X169944965Y-83515635D01*
X169790629Y-83677138D01*
X169664743Y-83861680D01*
X169570688Y-84064305D01*
X169510989Y-84279570D01*
X169487251Y-84501695D01*
X169487548Y-84506848D01*
X169487548Y-84506851D01*
X169493011Y-84601590D01*
X169500110Y-84724715D01*
X169501247Y-84729761D01*
X169501248Y-84729767D01*
X169521119Y-84817939D01*
X169549222Y-84942639D01*
X169587461Y-85036811D01*
X169625791Y-85131206D01*
X169633266Y-85149616D01*
X169671962Y-85212763D01*
X169747291Y-85335688D01*
X169749987Y-85340088D01*
X169896250Y-85508938D01*
X170068126Y-85651632D01*
X170138595Y-85692811D01*
X170141445Y-85694476D01*
X170190169Y-85746114D01*
X170203240Y-85815897D01*
X170176509Y-85881669D01*
X170136055Y-85915027D01*
X170123607Y-85921507D01*
X170119474Y-85924610D01*
X170119471Y-85924612D01*
X169949100Y-86052530D01*
X169944965Y-86055635D01*
X169941393Y-86059373D01*
X169816632Y-86189928D01*
X169790629Y-86217138D01*
X169664743Y-86401680D01*
X169649003Y-86435590D01*
X169599678Y-86541852D01*
X169570688Y-86604305D01*
X169510989Y-86819570D01*
X169487251Y-87041695D01*
X169487548Y-87046848D01*
X169487548Y-87046851D01*
X169493011Y-87141590D01*
X169500110Y-87264715D01*
X169501247Y-87269761D01*
X169501248Y-87269767D01*
X169521119Y-87357939D01*
X169549222Y-87482639D01*
X169633266Y-87689616D01*
X169684019Y-87772438D01*
X169747291Y-87875688D01*
X169749987Y-87880088D01*
X169896250Y-88048938D01*
X170068126Y-88191632D01*
X170138595Y-88232811D01*
X170141445Y-88234476D01*
X170190169Y-88286114D01*
X170203240Y-88355897D01*
X170176509Y-88421669D01*
X170136055Y-88455027D01*
X170123607Y-88461507D01*
X170119474Y-88464610D01*
X170119471Y-88464612D01*
X170095247Y-88482800D01*
X169944965Y-88595635D01*
X169790629Y-88757138D01*
X169664743Y-88941680D01*
X169570688Y-89144305D01*
X169510989Y-89359570D01*
X169487251Y-89581695D01*
X169487548Y-89586848D01*
X169487548Y-89586851D01*
X169493011Y-89681590D01*
X169500110Y-89804715D01*
X169501247Y-89809761D01*
X169501248Y-89809767D01*
X169521119Y-89897939D01*
X169549222Y-90022639D01*
X169633266Y-90229616D01*
X169684019Y-90312438D01*
X169747291Y-90415688D01*
X169749987Y-90420088D01*
X169896250Y-90588938D01*
X170068126Y-90731632D01*
X170138595Y-90772811D01*
X170141445Y-90774476D01*
X170190169Y-90826114D01*
X170203240Y-90895897D01*
X170176509Y-90961669D01*
X170136055Y-90995027D01*
X170123607Y-91001507D01*
X170119474Y-91004610D01*
X170119471Y-91004612D01*
X170095247Y-91022800D01*
X169944965Y-91135635D01*
X169790629Y-91297138D01*
X169664743Y-91481680D01*
X169570688Y-91684305D01*
X169510989Y-91899570D01*
X169487251Y-92121695D01*
X169487548Y-92126848D01*
X169487548Y-92126851D01*
X169499812Y-92339547D01*
X169500110Y-92344715D01*
X169501247Y-92349761D01*
X169501248Y-92349767D01*
X169515070Y-92411099D01*
X169549222Y-92562639D01*
X169633266Y-92769616D01*
X169678869Y-92844034D01*
X169747291Y-92955688D01*
X169749987Y-92960088D01*
X169896250Y-93128938D01*
X170068126Y-93271632D01*
X170138595Y-93312811D01*
X170141445Y-93314476D01*
X170190169Y-93366114D01*
X170203240Y-93435897D01*
X170176509Y-93501669D01*
X170136055Y-93535027D01*
X170123607Y-93541507D01*
X170119474Y-93544610D01*
X170119471Y-93544612D01*
X169949100Y-93672530D01*
X169944965Y-93675635D01*
X169790629Y-93837138D01*
X169664743Y-94021680D01*
X169570688Y-94224305D01*
X169510989Y-94439570D01*
X169487251Y-94661695D01*
X159133500Y-94661695D01*
X159133500Y-92578767D01*
X159134027Y-92567584D01*
X159135702Y-92560091D01*
X159133562Y-92492014D01*
X159133500Y-92488055D01*
X159133500Y-92460144D01*
X159132995Y-92456144D01*
X159132062Y-92444301D01*
X159132024Y-92443069D01*
X159130673Y-92400110D01*
X159125022Y-92380658D01*
X159121014Y-92361306D01*
X159119467Y-92349063D01*
X159118474Y-92341203D01*
X159115556Y-92333832D01*
X159102200Y-92300097D01*
X159098355Y-92288870D01*
X159097721Y-92286687D01*
X159086018Y-92246407D01*
X159081984Y-92239585D01*
X159081981Y-92239579D01*
X159075706Y-92228968D01*
X159067010Y-92211218D01*
X159062472Y-92199756D01*
X159062469Y-92199751D01*
X159059552Y-92192383D01*
X159033573Y-92156625D01*
X159027057Y-92146707D01*
X159008575Y-92115457D01*
X159004542Y-92108637D01*
X158990218Y-92094313D01*
X158977376Y-92079278D01*
X158965472Y-92062893D01*
X158931406Y-92034711D01*
X158922627Y-92026722D01*
X152503652Y-85607747D01*
X152496112Y-85599461D01*
X152492000Y-85592982D01*
X152442348Y-85546356D01*
X152439507Y-85543602D01*
X152419770Y-85523865D01*
X152416573Y-85521385D01*
X152407551Y-85513680D01*
X152381100Y-85488841D01*
X152375321Y-85483414D01*
X152368375Y-85479595D01*
X152368372Y-85479593D01*
X152357566Y-85473652D01*
X152341047Y-85462801D01*
X152335048Y-85458148D01*
X152325041Y-85450386D01*
X152317772Y-85447241D01*
X152317768Y-85447238D01*
X152284463Y-85432826D01*
X152273813Y-85427609D01*
X152235060Y-85406305D01*
X152215437Y-85401267D01*
X152196734Y-85394863D01*
X152185420Y-85389967D01*
X152185419Y-85389967D01*
X152178145Y-85386819D01*
X152170322Y-85385580D01*
X152170312Y-85385577D01*
X152134476Y-85379901D01*
X152122856Y-85377495D01*
X152087711Y-85368472D01*
X152087710Y-85368472D01*
X152080030Y-85366500D01*
X152059776Y-85366500D01*
X152040065Y-85364949D01*
X152027886Y-85363020D01*
X152020057Y-85361780D01*
X152012165Y-85362526D01*
X151976039Y-85365941D01*
X151964181Y-85366500D01*
X151458200Y-85366500D01*
X151390079Y-85346498D01*
X151370853Y-85330157D01*
X151370580Y-85330460D01*
X151365668Y-85326037D01*
X151361253Y-85321134D01*
X151206752Y-85208882D01*
X151200724Y-85206198D01*
X151200722Y-85206197D01*
X151038319Y-85133891D01*
X151038318Y-85133891D01*
X151032288Y-85131206D01*
X150938888Y-85111353D01*
X150851944Y-85092872D01*
X150851939Y-85092872D01*
X150845487Y-85091500D01*
X150654513Y-85091500D01*
X150648061Y-85092872D01*
X150648056Y-85092872D01*
X150561112Y-85111353D01*
X150467712Y-85131206D01*
X150461682Y-85133891D01*
X150461681Y-85133891D01*
X150299278Y-85206197D01*
X150299276Y-85206198D01*
X150293248Y-85208882D01*
X150138747Y-85321134D01*
X150134326Y-85326044D01*
X150134325Y-85326045D01*
X150025203Y-85447238D01*
X150010960Y-85463056D01*
X149915473Y-85628444D01*
X149913431Y-85634729D01*
X149879333Y-85739671D01*
X149839259Y-85798277D01*
X149773863Y-85825914D01*
X149703906Y-85813807D01*
X149651600Y-85765801D01*
X149633500Y-85700735D01*
X149633500Y-80167477D01*
X149653502Y-80099356D01*
X149707158Y-80052863D01*
X149777432Y-80042759D01*
X149842012Y-80072253D01*
X149848595Y-80078382D01*
X149987962Y-80217749D01*
X149992471Y-80220906D01*
X149992473Y-80220908D01*
X150048428Y-80260088D01*
X150168346Y-80344056D01*
X150367924Y-80437120D01*
X150580629Y-80494115D01*
X150800000Y-80513307D01*
X151019371Y-80494115D01*
X151232076Y-80437120D01*
X151431654Y-80344056D01*
X151551572Y-80260088D01*
X151607527Y-80220908D01*
X151607529Y-80220906D01*
X151612038Y-80217749D01*
X151767749Y-80062038D01*
X151774174Y-80052863D01*
X151890899Y-79886162D01*
X151890900Y-79886160D01*
X151894056Y-79881653D01*
X151896379Y-79876671D01*
X151896382Y-79876666D01*
X151943585Y-79775438D01*
X151987120Y-79682076D01*
X152044115Y-79469371D01*
X152063307Y-79250000D01*
X154416693Y-79250000D01*
X154435885Y-79469371D01*
X154492880Y-79682076D01*
X154536415Y-79775438D01*
X154583618Y-79876666D01*
X154583621Y-79876671D01*
X154585944Y-79881653D01*
X154589100Y-79886160D01*
X154589101Y-79886162D01*
X154705827Y-80052863D01*
X154712251Y-80062038D01*
X154867962Y-80217749D01*
X154872471Y-80220906D01*
X154872473Y-80220908D01*
X154928428Y-80260088D01*
X155048346Y-80344056D01*
X155247924Y-80437120D01*
X155460629Y-80494115D01*
X155680000Y-80513307D01*
X155899371Y-80494115D01*
X156112076Y-80437120D01*
X156311654Y-80344056D01*
X156431572Y-80260088D01*
X156487527Y-80220908D01*
X156487529Y-80220906D01*
X156492038Y-80217749D01*
X156647749Y-80062038D01*
X156654174Y-80052863D01*
X156770899Y-79886162D01*
X156770900Y-79886160D01*
X156774056Y-79881653D01*
X156776379Y-79876671D01*
X156776382Y-79876666D01*
X156823585Y-79775438D01*
X156867120Y-79682076D01*
X156924115Y-79469371D01*
X156943307Y-79250000D01*
X156924115Y-79030629D01*
X156867120Y-78817924D01*
X156778379Y-78627617D01*
X156776382Y-78623334D01*
X156776379Y-78623329D01*
X156774056Y-78618347D01*
X156770899Y-78613838D01*
X156650908Y-78442473D01*
X156650906Y-78442470D01*
X156647749Y-78437962D01*
X156492038Y-78282251D01*
X156440787Y-78246364D01*
X156391193Y-78211638D01*
X156311654Y-78155944D01*
X156112076Y-78062880D01*
X155899371Y-78005885D01*
X155680000Y-77986693D01*
X155460629Y-78005885D01*
X155247924Y-78062880D01*
X155198566Y-78085896D01*
X155053334Y-78153618D01*
X155053329Y-78153621D01*
X155048347Y-78155944D01*
X155043840Y-78159100D01*
X155043838Y-78159101D01*
X154872473Y-78279092D01*
X154872470Y-78279094D01*
X154867962Y-78282251D01*
X154712251Y-78437962D01*
X154709094Y-78442470D01*
X154709092Y-78442473D01*
X154589101Y-78613838D01*
X154585944Y-78618347D01*
X154583621Y-78623329D01*
X154583618Y-78623334D01*
X154581621Y-78627617D01*
X154492880Y-78817924D01*
X154435885Y-79030629D01*
X154416693Y-79250000D01*
X152063307Y-79250000D01*
X152044115Y-79030629D01*
X151987120Y-78817924D01*
X151898379Y-78627617D01*
X151896382Y-78623334D01*
X151896379Y-78623329D01*
X151894056Y-78618347D01*
X151890899Y-78613838D01*
X151770908Y-78442473D01*
X151770906Y-78442470D01*
X151767749Y-78437962D01*
X151612038Y-78282251D01*
X151560787Y-78246364D01*
X151511193Y-78211638D01*
X151431654Y-78155944D01*
X151232076Y-78062880D01*
X151019371Y-78005885D01*
X150800000Y-77986693D01*
X150580629Y-78005885D01*
X150367924Y-78062880D01*
X150318566Y-78085896D01*
X150173334Y-78153618D01*
X150173329Y-78153621D01*
X150168347Y-78155944D01*
X150163840Y-78159100D01*
X150163838Y-78159101D01*
X149992473Y-78279092D01*
X149992470Y-78279094D01*
X149987962Y-78282251D01*
X149848595Y-78421618D01*
X149786283Y-78455644D01*
X149715468Y-78450579D01*
X149658632Y-78408032D01*
X149633821Y-78341512D01*
X149633500Y-78332523D01*
X149633500Y-74056885D01*
X169492000Y-74056885D01*
X169496475Y-74072124D01*
X169497865Y-74073329D01*
X169505548Y-74075000D01*
X170531885Y-74075000D01*
X170547124Y-74070525D01*
X170548329Y-74069135D01*
X170550000Y-74061452D01*
X170550000Y-74056885D01*
X171150000Y-74056885D01*
X171154475Y-74072124D01*
X171155865Y-74073329D01*
X171163548Y-74075000D01*
X173071885Y-74075000D01*
X173087124Y-74070525D01*
X173088329Y-74069135D01*
X173090000Y-74061452D01*
X173090000Y-74056885D01*
X173690000Y-74056885D01*
X173694475Y-74072124D01*
X173695865Y-74073329D01*
X173703548Y-74075000D01*
X174696789Y-74075000D01*
X174710320Y-74071027D01*
X174711625Y-74061947D01*
X174681214Y-73940875D01*
X174677894Y-73931124D01*
X174592972Y-73735814D01*
X174588105Y-73726739D01*
X174472426Y-73547926D01*
X174466136Y-73539757D01*
X174322806Y-73382240D01*
X174315273Y-73375215D01*
X174148139Y-73243222D01*
X174139552Y-73237517D01*
X173953117Y-73134599D01*
X173943705Y-73130369D01*
X173742959Y-73059280D01*
X173732988Y-73056646D01*
X173707837Y-73052166D01*
X173694541Y-73053626D01*
X173690000Y-73068184D01*
X173690000Y-74056885D01*
X173090000Y-74056885D01*
X173090000Y-73065141D01*
X173086082Y-73051798D01*
X173073500Y-73050047D01*
X173069290Y-73051050D01*
X172866868Y-73117212D01*
X172857359Y-73121209D01*
X172668463Y-73219542D01*
X172659738Y-73225036D01*
X172489433Y-73352905D01*
X172481726Y-73359748D01*
X172404094Y-73440985D01*
X172342570Y-73476415D01*
X172271657Y-73472958D01*
X172213871Y-73431712D01*
X172195018Y-73398164D01*
X172153324Y-73286946D01*
X172144786Y-73271351D01*
X172068285Y-73169276D01*
X172055724Y-73156715D01*
X171953649Y-73080214D01*
X171938054Y-73071676D01*
X171817606Y-73026522D01*
X171802351Y-73022895D01*
X171751486Y-73017369D01*
X171744672Y-73017000D01*
X171168115Y-73017000D01*
X171152876Y-73021475D01*
X171151671Y-73022865D01*
X171150000Y-73030548D01*
X171150000Y-74056885D01*
X170550000Y-74056885D01*
X170550000Y-73035116D01*
X170545525Y-73019877D01*
X170544135Y-73018672D01*
X170536452Y-73017001D01*
X169955331Y-73017001D01*
X169948510Y-73017371D01*
X169897648Y-73022895D01*
X169882396Y-73026521D01*
X169761946Y-73071676D01*
X169746351Y-73080214D01*
X169644276Y-73156715D01*
X169631715Y-73169276D01*
X169555214Y-73271351D01*
X169546676Y-73286946D01*
X169501522Y-73407394D01*
X169497895Y-73422649D01*
X169492369Y-73473514D01*
X169492000Y-73480328D01*
X169492000Y-74056885D01*
X149633500Y-74056885D01*
X149633500Y-72500000D01*
X166086496Y-72500000D01*
X166087186Y-72506565D01*
X166103011Y-72657128D01*
X166106458Y-72689928D01*
X166165473Y-72871556D01*
X166260960Y-73036944D01*
X166265378Y-73041851D01*
X166265379Y-73041852D01*
X166336832Y-73121209D01*
X166388747Y-73178866D01*
X166452294Y-73225036D01*
X166537506Y-73286946D01*
X166543248Y-73291118D01*
X166549276Y-73293802D01*
X166549278Y-73293803D01*
X166697394Y-73359748D01*
X166717712Y-73368794D01*
X166811113Y-73388647D01*
X166898056Y-73407128D01*
X166898061Y-73407128D01*
X166904513Y-73408500D01*
X167095487Y-73408500D01*
X167101939Y-73407128D01*
X167101944Y-73407128D01*
X167188887Y-73388647D01*
X167282288Y-73368794D01*
X167302606Y-73359748D01*
X167450722Y-73293803D01*
X167450724Y-73293802D01*
X167456752Y-73291118D01*
X167462495Y-73286946D01*
X167547706Y-73225036D01*
X167611253Y-73178866D01*
X167663168Y-73121209D01*
X167734621Y-73041852D01*
X167734622Y-73041851D01*
X167739040Y-73036944D01*
X167834527Y-72871556D01*
X167893542Y-72689928D01*
X167896990Y-72657128D01*
X167912814Y-72506565D01*
X167913504Y-72500000D01*
X167906028Y-72428866D01*
X167894232Y-72316635D01*
X167894232Y-72316633D01*
X167893542Y-72310072D01*
X167834527Y-72128444D01*
X167739040Y-71963056D01*
X167718216Y-71939928D01*
X167615675Y-71826045D01*
X167615674Y-71826044D01*
X167611253Y-71821134D01*
X167456752Y-71708882D01*
X167450724Y-71706198D01*
X167450722Y-71706197D01*
X167288319Y-71633891D01*
X167288318Y-71633891D01*
X167282288Y-71631206D01*
X167188888Y-71611353D01*
X167101944Y-71592872D01*
X167101939Y-71592872D01*
X167095487Y-71591500D01*
X166904513Y-71591500D01*
X166898061Y-71592872D01*
X166898056Y-71592872D01*
X166811112Y-71611353D01*
X166717712Y-71631206D01*
X166711682Y-71633891D01*
X166711681Y-71633891D01*
X166549278Y-71706197D01*
X166549276Y-71706198D01*
X166543248Y-71708882D01*
X166388747Y-71821134D01*
X166384326Y-71826044D01*
X166384325Y-71826045D01*
X166281785Y-71939928D01*
X166260960Y-71963056D01*
X166165473Y-72128444D01*
X166106458Y-72310072D01*
X166105768Y-72316633D01*
X166105768Y-72316635D01*
X166093972Y-72428866D01*
X166086496Y-72500000D01*
X149633500Y-72500000D01*
X149633500Y-69500000D01*
X151586496Y-69500000D01*
X151587186Y-69506565D01*
X151603141Y-69658365D01*
X151606458Y-69689928D01*
X151665473Y-69871556D01*
X151760960Y-70036944D01*
X151765378Y-70041851D01*
X151765379Y-70041852D01*
X151854800Y-70141164D01*
X151888747Y-70178866D01*
X151987843Y-70250864D01*
X152008839Y-70266118D01*
X152043248Y-70291118D01*
X152049276Y-70293802D01*
X152049278Y-70293803D01*
X152164642Y-70345166D01*
X152217712Y-70368794D01*
X152311113Y-70388647D01*
X152398056Y-70407128D01*
X152398061Y-70407128D01*
X152404513Y-70408500D01*
X152595487Y-70408500D01*
X152601939Y-70407128D01*
X152601944Y-70407128D01*
X152688887Y-70388647D01*
X152782288Y-70368794D01*
X152835358Y-70345166D01*
X152950722Y-70293803D01*
X152950724Y-70293802D01*
X152956752Y-70291118D01*
X152991162Y-70266118D01*
X153012157Y-70250864D01*
X153111253Y-70178866D01*
X153145200Y-70141164D01*
X153234621Y-70041852D01*
X153234622Y-70041851D01*
X153239040Y-70036944D01*
X153334527Y-69871556D01*
X153393542Y-69689928D01*
X153396860Y-69658365D01*
X153412814Y-69506565D01*
X153413504Y-69500000D01*
X153410876Y-69475000D01*
X157361496Y-69475000D01*
X157381458Y-69664928D01*
X157440473Y-69846556D01*
X157535960Y-70011944D01*
X157540378Y-70016851D01*
X157540379Y-70016852D01*
X157558470Y-70036944D01*
X157663747Y-70153866D01*
X157818248Y-70266118D01*
X157824276Y-70268802D01*
X157824278Y-70268803D01*
X157986681Y-70341109D01*
X157992712Y-70343794D01*
X158086112Y-70363647D01*
X158173056Y-70382128D01*
X158173061Y-70382128D01*
X158179513Y-70383500D01*
X158370487Y-70383500D01*
X158376939Y-70382128D01*
X158376944Y-70382128D01*
X158463888Y-70363647D01*
X158557288Y-70343794D01*
X158563319Y-70341109D01*
X158725722Y-70268803D01*
X158725724Y-70268802D01*
X158731752Y-70266118D01*
X158886253Y-70153866D01*
X158991530Y-70036944D01*
X159009621Y-70016852D01*
X159009622Y-70016851D01*
X159014040Y-70011944D01*
X159109527Y-69846556D01*
X159168542Y-69664928D01*
X159188504Y-69475000D01*
X159187814Y-69468435D01*
X159169232Y-69291635D01*
X159169232Y-69291633D01*
X159168542Y-69285072D01*
X159109527Y-69103444D01*
X159014040Y-68938056D01*
X158886253Y-68796134D01*
X158771503Y-68712763D01*
X158737094Y-68687763D01*
X158737093Y-68687762D01*
X158731752Y-68683882D01*
X158725724Y-68681198D01*
X158725722Y-68681197D01*
X158563319Y-68608891D01*
X158563318Y-68608891D01*
X158557288Y-68606206D01*
X158463888Y-68586353D01*
X158376944Y-68567872D01*
X158376939Y-68567872D01*
X158370487Y-68566500D01*
X158179513Y-68566500D01*
X158173061Y-68567872D01*
X158173056Y-68567872D01*
X158086112Y-68586353D01*
X157992712Y-68606206D01*
X157986682Y-68608891D01*
X157986681Y-68608891D01*
X157824278Y-68681197D01*
X157824276Y-68681198D01*
X157818248Y-68683882D01*
X157812907Y-68687762D01*
X157812906Y-68687763D01*
X157778497Y-68712763D01*
X157663747Y-68796134D01*
X157535960Y-68938056D01*
X157440473Y-69103444D01*
X157381458Y-69285072D01*
X157380768Y-69291633D01*
X157380768Y-69291635D01*
X157362186Y-69468435D01*
X157361496Y-69475000D01*
X153410876Y-69475000D01*
X153393542Y-69310072D01*
X153334527Y-69128444D01*
X153239040Y-68963056D01*
X153221679Y-68943774D01*
X153115675Y-68826045D01*
X153115674Y-68826044D01*
X153111253Y-68821134D01*
X152956752Y-68708882D01*
X152950724Y-68706198D01*
X152950722Y-68706197D01*
X152788319Y-68633891D01*
X152788318Y-68633891D01*
X152782288Y-68631206D01*
X152677305Y-68608891D01*
X152601944Y-68592872D01*
X152601939Y-68592872D01*
X152595487Y-68591500D01*
X152404513Y-68591500D01*
X152398061Y-68592872D01*
X152398056Y-68592872D01*
X152322695Y-68608891D01*
X152217712Y-68631206D01*
X152211682Y-68633891D01*
X152211681Y-68633891D01*
X152049278Y-68706197D01*
X152049276Y-68706198D01*
X152043248Y-68708882D01*
X151888747Y-68821134D01*
X151884326Y-68826044D01*
X151884325Y-68826045D01*
X151778322Y-68943774D01*
X151760960Y-68963056D01*
X151665473Y-69128444D01*
X151606458Y-69310072D01*
X151586496Y-69500000D01*
X149633500Y-69500000D01*
X149633500Y-66314594D01*
X149653502Y-66246473D01*
X149670405Y-66225499D01*
X152744249Y-63151655D01*
X152806561Y-63117629D01*
X152833344Y-63114750D01*
X152889237Y-63114750D01*
X152895689Y-63113378D01*
X152895694Y-63113378D01*
X152982637Y-63094897D01*
X153076038Y-63075044D01*
X153082069Y-63072359D01*
X153244472Y-63000053D01*
X153244474Y-63000052D01*
X153250502Y-62997368D01*
X153405003Y-62885116D01*
X153419904Y-62868567D01*
X153528371Y-62748102D01*
X153528372Y-62748101D01*
X153532790Y-62743194D01*
X153595694Y-62634242D01*
X153624973Y-62583529D01*
X153624974Y-62583528D01*
X153628277Y-62577806D01*
X153687292Y-62396178D01*
X153707254Y-62206250D01*
X153699872Y-62136013D01*
X153687982Y-62022885D01*
X153687982Y-62022883D01*
X153687292Y-62016322D01*
X153628277Y-61834694D01*
X153532790Y-61669306D01*
X153523656Y-61659161D01*
X153409425Y-61532295D01*
X153409424Y-61532294D01*
X153405003Y-61527384D01*
X153250502Y-61415132D01*
X153244474Y-61412448D01*
X153244472Y-61412447D01*
X153082069Y-61340141D01*
X153082068Y-61340141D01*
X153076038Y-61337456D01*
X152982638Y-61317603D01*
X152895694Y-61299122D01*
X152895689Y-61299122D01*
X152889237Y-61297750D01*
X152698263Y-61297750D01*
X152691811Y-61299122D01*
X152691806Y-61299122D01*
X152604862Y-61317603D01*
X152511462Y-61337456D01*
X152505432Y-61340141D01*
X152505431Y-61340141D01*
X152343028Y-61412447D01*
X152343026Y-61412448D01*
X152336998Y-61415132D01*
X152182497Y-61527384D01*
X152178076Y-61532294D01*
X152178075Y-61532295D01*
X152063845Y-61659161D01*
X152054710Y-61669306D01*
X151959223Y-61834694D01*
X151900208Y-62016322D01*
X151884948Y-62161518D01*
X151882843Y-62181543D01*
X151855830Y-62247200D01*
X151846628Y-62257468D01*
X149348595Y-64755500D01*
X149286283Y-64789526D01*
X149215467Y-64784461D01*
X149158632Y-64741914D01*
X149133821Y-64675394D01*
X149133500Y-64666405D01*
X149133500Y-63078763D01*
X149134027Y-63067579D01*
X149135701Y-63060091D01*
X149133562Y-62992032D01*
X149133500Y-62988075D01*
X149133500Y-62960144D01*
X149132994Y-62956138D01*
X149132061Y-62944292D01*
X149130922Y-62908037D01*
X149130673Y-62900110D01*
X149125022Y-62880658D01*
X149121014Y-62861306D01*
X149119467Y-62849063D01*
X149118474Y-62841203D01*
X149107474Y-62813419D01*
X149102200Y-62800097D01*
X149098355Y-62788870D01*
X149094977Y-62777245D01*
X149086018Y-62746407D01*
X149081984Y-62739585D01*
X149081981Y-62739579D01*
X149075706Y-62728968D01*
X149067010Y-62711218D01*
X149062472Y-62699756D01*
X149062469Y-62699751D01*
X149059552Y-62692383D01*
X149046758Y-62674774D01*
X149033573Y-62656625D01*
X149027057Y-62646707D01*
X149008575Y-62615457D01*
X149004542Y-62608637D01*
X148990218Y-62594313D01*
X148977376Y-62579278D01*
X148976307Y-62577806D01*
X148965472Y-62562893D01*
X148931406Y-62534711D01*
X148922627Y-62526722D01*
X148351218Y-61955313D01*
X148317192Y-61893001D01*
X148319755Y-61829589D01*
X148330865Y-61793022D01*
X148332370Y-61788069D01*
X148361529Y-61566590D01*
X148362981Y-61507164D01*
X148363074Y-61503365D01*
X148363074Y-61503361D01*
X148363156Y-61500000D01*
X148344852Y-61277361D01*
X148290431Y-61060702D01*
X148288366Y-61055952D01*
X148286703Y-61051068D01*
X148288837Y-61050342D01*
X148281193Y-60989297D01*
X148311859Y-60925265D01*
X148372275Y-60887977D01*
X148405563Y-60883500D01*
X165185406Y-60883500D01*
X165253527Y-60903502D01*
X165274501Y-60920405D01*
X169079595Y-64725499D01*
X169113621Y-64787811D01*
X169116500Y-64814594D01*
X169116500Y-66797476D01*
X169096498Y-66865597D01*
X169084142Y-66881779D01*
X169010960Y-66963056D01*
X168915473Y-67128444D01*
X168856458Y-67310072D01*
X168836496Y-67500000D01*
X168856458Y-67689928D01*
X168915473Y-67871556D01*
X169010960Y-68036944D01*
X169138747Y-68178866D01*
X169293248Y-68291118D01*
X169299276Y-68293802D01*
X169299278Y-68293803D01*
X169461681Y-68366109D01*
X169467712Y-68368794D01*
X169561113Y-68388647D01*
X169648056Y-68407128D01*
X169648061Y-68407128D01*
X169654513Y-68408500D01*
X169845487Y-68408500D01*
X169851939Y-68407128D01*
X169851944Y-68407128D01*
X169938887Y-68388647D01*
X170032288Y-68368794D01*
X170038319Y-68366109D01*
X170200722Y-68293803D01*
X170200724Y-68293802D01*
X170206752Y-68291118D01*
X170361253Y-68178866D01*
X170489040Y-68036944D01*
X170584527Y-67871556D01*
X170643542Y-67689928D01*
X170663504Y-67500000D01*
X170643542Y-67310072D01*
X170584527Y-67128444D01*
X170489040Y-66963056D01*
X170415863Y-66881785D01*
X170385147Y-66817779D01*
X170383500Y-66797476D01*
X170383500Y-64578768D01*
X170384027Y-64567585D01*
X170385702Y-64560092D01*
X170385438Y-64551672D01*
X170383562Y-64492002D01*
X170383500Y-64488044D01*
X170383500Y-64460144D01*
X170382996Y-64456153D01*
X170382063Y-64444311D01*
X170382005Y-64442446D01*
X170380674Y-64400111D01*
X170375021Y-64380652D01*
X170371012Y-64361293D01*
X170370086Y-64353966D01*
X170368474Y-64341203D01*
X170365558Y-64333837D01*
X170365556Y-64333831D01*
X170352200Y-64300098D01*
X170348355Y-64288868D01*
X170338230Y-64254017D01*
X170338230Y-64254016D01*
X170336019Y-64246407D01*
X170325705Y-64228966D01*
X170317008Y-64211213D01*
X170312472Y-64199758D01*
X170309552Y-64192383D01*
X170283563Y-64156612D01*
X170277047Y-64146692D01*
X170258578Y-64115463D01*
X170254542Y-64108638D01*
X170240221Y-64094317D01*
X170227380Y-64079283D01*
X170220131Y-64069306D01*
X170215472Y-64062893D01*
X170181395Y-64034702D01*
X170172616Y-64026712D01*
X168972399Y-62826495D01*
X171103705Y-62826495D01*
X171111163Y-62836863D01*
X171314943Y-63001880D01*
X171320265Y-63005747D01*
X171640685Y-63213830D01*
X171646394Y-63217127D01*
X171986811Y-63390578D01*
X171992836Y-63393260D01*
X172349502Y-63530171D01*
X172355784Y-63532212D01*
X172724816Y-63631094D01*
X172731266Y-63632465D01*
X173108629Y-63692234D01*
X173115167Y-63692920D01*
X173496699Y-63712916D01*
X173503301Y-63712916D01*
X173884833Y-63692920D01*
X173891371Y-63692234D01*
X174268734Y-63632465D01*
X174275184Y-63631094D01*
X174644216Y-63532212D01*
X174650498Y-63530171D01*
X175007164Y-63393260D01*
X175013189Y-63390578D01*
X175353606Y-63217127D01*
X175359315Y-63213830D01*
X175679735Y-63005747D01*
X175685057Y-63001880D01*
X175887889Y-62837631D01*
X175896355Y-62825376D01*
X175890021Y-62814285D01*
X173512812Y-60437076D01*
X173498868Y-60429462D01*
X173497035Y-60429593D01*
X173490420Y-60433844D01*
X171110845Y-62813419D01*
X171103705Y-62826495D01*
X168972399Y-62826495D01*
X166149206Y-60003301D01*
X169787084Y-60003301D01*
X169807080Y-60384833D01*
X169807766Y-60391371D01*
X169867535Y-60768734D01*
X169868906Y-60775184D01*
X169967788Y-61144216D01*
X169969829Y-61150498D01*
X170106740Y-61507164D01*
X170109422Y-61513189D01*
X170282872Y-61853603D01*
X170286169Y-61859313D01*
X170494251Y-62179732D01*
X170498123Y-62185062D01*
X170662369Y-62387889D01*
X170674624Y-62396355D01*
X170685715Y-62390021D01*
X173062924Y-60012812D01*
X173070538Y-59998868D01*
X173070407Y-59997035D01*
X173066156Y-59990420D01*
X170686581Y-57610845D01*
X170673505Y-57603705D01*
X170663137Y-57611163D01*
X170498123Y-57814938D01*
X170494251Y-57820268D01*
X170286169Y-58140687D01*
X170282872Y-58146397D01*
X170109422Y-58486811D01*
X170106740Y-58492836D01*
X169969829Y-58849502D01*
X169967788Y-58855784D01*
X169868906Y-59224816D01*
X169867535Y-59231266D01*
X169807766Y-59608629D01*
X169807080Y-59615167D01*
X169787084Y-59996699D01*
X169787084Y-60003301D01*
X166149206Y-60003301D01*
X166003652Y-59857747D01*
X165996112Y-59849461D01*
X165992000Y-59842982D01*
X165942348Y-59796356D01*
X165939507Y-59793602D01*
X165919770Y-59773865D01*
X165916573Y-59771385D01*
X165907551Y-59763680D01*
X165892451Y-59749500D01*
X165875321Y-59733414D01*
X165868375Y-59729595D01*
X165868372Y-59729593D01*
X165857566Y-59723652D01*
X165841047Y-59712801D01*
X165835994Y-59708882D01*
X165825041Y-59700386D01*
X165817772Y-59697241D01*
X165817768Y-59697238D01*
X165784463Y-59682826D01*
X165773813Y-59677609D01*
X165735060Y-59656305D01*
X165715437Y-59651267D01*
X165696734Y-59644863D01*
X165685420Y-59639967D01*
X165685419Y-59639967D01*
X165678145Y-59636819D01*
X165670322Y-59635580D01*
X165670312Y-59635577D01*
X165634476Y-59629901D01*
X165622856Y-59627495D01*
X165587711Y-59618472D01*
X165587710Y-59618472D01*
X165580030Y-59616500D01*
X165559776Y-59616500D01*
X165540065Y-59614949D01*
X165527886Y-59613020D01*
X165520057Y-59611780D01*
X165512165Y-59612526D01*
X165476039Y-59615941D01*
X165464181Y-59616500D01*
X148484500Y-59616500D01*
X148416379Y-59596498D01*
X148369886Y-59542842D01*
X148358500Y-59490500D01*
X148358500Y-58061866D01*
X148351745Y-57999684D01*
X148300615Y-57863295D01*
X148213261Y-57746739D01*
X148096705Y-57659385D01*
X147960316Y-57608255D01*
X147898134Y-57601500D01*
X146101866Y-57601500D01*
X146039684Y-57608255D01*
X145903295Y-57659385D01*
X145786739Y-57746739D01*
X145699385Y-57863295D01*
X145648255Y-57999684D01*
X145641500Y-58061866D01*
X145641500Y-59660405D01*
X145621498Y-59728526D01*
X145604595Y-59749500D01*
X145594313Y-59759782D01*
X145579281Y-59772621D01*
X145562893Y-59784528D01*
X145549124Y-59801172D01*
X145534712Y-59818593D01*
X145526722Y-59827373D01*
X144509500Y-60844595D01*
X144447188Y-60878621D01*
X144420405Y-60881500D01*
X143776805Y-60881500D01*
X143708684Y-60861498D01*
X143671013Y-60823940D01*
X143582822Y-60687617D01*
X143582820Y-60687614D01*
X143580014Y-60683277D01*
X143576532Y-60679450D01*
X143432798Y-60521488D01*
X143401746Y-60457642D01*
X143410141Y-60387143D01*
X143455317Y-60332375D01*
X143481761Y-60318706D01*
X143588297Y-60278767D01*
X143596705Y-60275615D01*
X143713261Y-60188261D01*
X143800615Y-60071705D01*
X143851745Y-59935316D01*
X143858500Y-59873134D01*
X143858500Y-58076866D01*
X143851745Y-58014684D01*
X143800615Y-57878295D01*
X143713261Y-57761739D01*
X143596705Y-57674385D01*
X143460316Y-57623255D01*
X143398134Y-57616500D01*
X141601866Y-57616500D01*
X141539684Y-57623255D01*
X141403295Y-57674385D01*
X141286739Y-57761739D01*
X141199385Y-57878295D01*
X141148255Y-58014684D01*
X141141500Y-58076866D01*
X141141500Y-59873134D01*
X141148255Y-59935316D01*
X141199385Y-60071705D01*
X141286739Y-60188261D01*
X141403295Y-60275615D01*
X141411704Y-60278767D01*
X141411705Y-60278768D01*
X141520451Y-60319535D01*
X141577216Y-60362176D01*
X141601916Y-60428738D01*
X141586709Y-60498087D01*
X141567316Y-60524568D01*
X141440629Y-60657138D01*
X141314743Y-60841680D01*
X141220688Y-61044305D01*
X141160989Y-61259570D01*
X141137251Y-61481695D01*
X141137548Y-61486848D01*
X141137548Y-61486851D01*
X141141953Y-61563240D01*
X141150110Y-61704715D01*
X141151247Y-61709761D01*
X141151248Y-61709767D01*
X141152216Y-61714061D01*
X141199222Y-61922639D01*
X141259014Y-62069890D01*
X141276662Y-62113351D01*
X141283266Y-62129616D01*
X141302816Y-62161518D01*
X141361614Y-62257468D01*
X141399987Y-62320088D01*
X141546250Y-62488938D01*
X141718126Y-62631632D01*
X141791955Y-62674774D01*
X141840679Y-62726412D01*
X141853750Y-62796195D01*
X141827019Y-62861967D01*
X141786562Y-62895327D01*
X141778457Y-62899546D01*
X141769738Y-62905036D01*
X141599433Y-63032905D01*
X141591726Y-63039748D01*
X141444590Y-63193717D01*
X141438104Y-63201727D01*
X141318098Y-63377649D01*
X141313000Y-63386623D01*
X141223338Y-63579783D01*
X141219775Y-63589470D01*
X141178711Y-63737540D01*
X141178924Y-63751644D01*
X141186575Y-63755000D01*
X143806789Y-63755000D01*
X143820320Y-63751027D01*
X143821625Y-63741947D01*
X143791214Y-63620875D01*
X143787894Y-63611124D01*
X143702972Y-63415814D01*
X143698105Y-63406739D01*
X143582426Y-63227926D01*
X143576136Y-63219757D01*
X143432806Y-63062240D01*
X143425273Y-63055215D01*
X143258139Y-62923222D01*
X143249556Y-62917520D01*
X143212602Y-62897120D01*
X143162631Y-62846687D01*
X143147859Y-62777245D01*
X143172975Y-62710839D01*
X143200327Y-62684232D01*
X143252935Y-62646707D01*
X143379860Y-62556173D01*
X143405194Y-62530928D01*
X143534435Y-62402137D01*
X143538096Y-62398489D01*
X143597594Y-62315689D01*
X143665435Y-62221277D01*
X143668453Y-62217077D01*
X143670746Y-62212437D01*
X143672446Y-62209608D01*
X143724674Y-62161518D01*
X143780451Y-62148500D01*
X144656233Y-62148500D01*
X144667416Y-62149027D01*
X144674909Y-62150702D01*
X144682835Y-62150453D01*
X144682836Y-62150453D01*
X144742986Y-62148562D01*
X144746945Y-62148500D01*
X144774856Y-62148500D01*
X144778791Y-62148003D01*
X144778856Y-62147995D01*
X144790693Y-62147062D01*
X144822951Y-62146048D01*
X144826970Y-62145922D01*
X144834889Y-62145673D01*
X144854343Y-62140021D01*
X144873700Y-62136013D01*
X144885930Y-62134468D01*
X144885931Y-62134468D01*
X144893797Y-62133474D01*
X144901168Y-62130555D01*
X144901170Y-62130555D01*
X144934912Y-62117196D01*
X144946142Y-62113351D01*
X144980983Y-62103229D01*
X144980984Y-62103229D01*
X144988593Y-62101018D01*
X144995412Y-62096985D01*
X144995417Y-62096983D01*
X145006028Y-62090707D01*
X145023776Y-62082012D01*
X145042617Y-62074552D01*
X145078387Y-62048564D01*
X145088307Y-62042048D01*
X145119535Y-62023580D01*
X145119538Y-62023578D01*
X145126362Y-62019542D01*
X145140683Y-62005221D01*
X145155717Y-61992380D01*
X145165694Y-61985131D01*
X145172107Y-61980472D01*
X145200298Y-61946395D01*
X145208288Y-61937616D01*
X145452717Y-61693187D01*
X145515029Y-61659161D01*
X145585844Y-61664226D01*
X145642680Y-61706773D01*
X145664728Y-61754578D01*
X145699222Y-61907639D01*
X145753799Y-62042048D01*
X145770025Y-62082006D01*
X145783266Y-62114616D01*
X145823169Y-62179732D01*
X145870806Y-62257468D01*
X145899987Y-62305088D01*
X146046250Y-62473938D01*
X146218126Y-62616632D01*
X146278328Y-62651811D01*
X146291955Y-62659774D01*
X146340679Y-62711412D01*
X146353750Y-62781195D01*
X146327019Y-62846967D01*
X146286562Y-62880327D01*
X146278457Y-62884546D01*
X146269738Y-62890036D01*
X146099433Y-63017905D01*
X146091726Y-63024748D01*
X145944590Y-63178717D01*
X145938104Y-63186727D01*
X145818098Y-63362649D01*
X145813000Y-63371623D01*
X145723338Y-63564783D01*
X145719775Y-63574470D01*
X145678711Y-63722540D01*
X145678924Y-63736644D01*
X145686575Y-63740000D01*
X147174000Y-63740000D01*
X147242121Y-63760002D01*
X147288614Y-63813658D01*
X147300000Y-63866000D01*
X147300000Y-65349755D01*
X147303973Y-65363286D01*
X147311617Y-65364385D01*
X147492250Y-65310192D01*
X147501845Y-65306432D01*
X147685067Y-65216672D01*
X147755041Y-65204665D01*
X147820399Y-65232395D01*
X147860389Y-65291058D01*
X147866500Y-65329823D01*
X147866500Y-92645928D01*
X147865973Y-92657111D01*
X147864298Y-92664604D01*
X147864547Y-92672530D01*
X147864547Y-92672531D01*
X147866438Y-92732681D01*
X147866500Y-92736640D01*
X147866500Y-92764551D01*
X147866997Y-92768485D01*
X147866997Y-92768486D01*
X147867005Y-92768551D01*
X147867938Y-92780388D01*
X147869327Y-92824584D01*
X147874978Y-92844034D01*
X147878987Y-92863395D01*
X147881526Y-92883492D01*
X147884445Y-92890863D01*
X147884445Y-92890865D01*
X147897804Y-92924607D01*
X147901649Y-92935837D01*
X147909828Y-92963990D01*
X147913982Y-92978288D01*
X147918015Y-92985107D01*
X147918017Y-92985112D01*
X147924293Y-92995723D01*
X147932988Y-93013471D01*
X147940448Y-93032312D01*
X147945110Y-93038728D01*
X147945110Y-93038729D01*
X147966436Y-93068082D01*
X147972952Y-93078002D01*
X147995458Y-93116057D01*
X148009779Y-93130378D01*
X148022619Y-93145411D01*
X148034528Y-93161802D01*
X148040634Y-93166853D01*
X148068605Y-93189993D01*
X148077384Y-93197983D01*
X148829595Y-93950194D01*
X148863621Y-94012506D01*
X148866500Y-94039289D01*
X148866500Y-95297476D01*
X148846498Y-95365597D01*
X148834142Y-95381779D01*
X148760960Y-95463056D01*
X148665473Y-95628444D01*
X148606458Y-95810072D01*
X148605768Y-95816633D01*
X148605768Y-95816635D01*
X148600591Y-95865896D01*
X148586496Y-96000000D01*
X148587431Y-96008891D01*
X148587521Y-96009751D01*
X148587186Y-96011583D01*
X148587186Y-96013170D01*
X148586896Y-96013170D01*
X148574749Y-96079589D01*
X148526247Y-96131436D01*
X148457414Y-96148831D01*
X148388150Y-96124858D01*
X148337094Y-96087763D01*
X148337093Y-96087762D01*
X148331752Y-96083882D01*
X148325724Y-96081198D01*
X148325722Y-96081197D01*
X148163319Y-96008891D01*
X148163318Y-96008891D01*
X148157288Y-96006206D01*
X148063888Y-95986353D01*
X147976944Y-95967872D01*
X147976939Y-95967872D01*
X147970487Y-95966500D01*
X147779513Y-95966500D01*
X147773061Y-95967872D01*
X147773056Y-95967872D01*
X147686113Y-95986353D01*
X147592712Y-96006206D01*
X147586682Y-96008891D01*
X147586681Y-96008891D01*
X147424278Y-96081197D01*
X147424276Y-96081198D01*
X147418248Y-96083882D01*
X147263747Y-96196134D01*
X147259326Y-96201044D01*
X147259325Y-96201045D01*
X147155736Y-96316093D01*
X147135960Y-96338056D01*
X147040473Y-96503444D01*
X147038431Y-96509728D01*
X147035747Y-96515757D01*
X147033182Y-96514615D01*
X147000106Y-96563019D01*
X146934717Y-96590674D01*
X146920318Y-96591500D01*
X138771396Y-96591500D01*
X138759540Y-96590941D01*
X138759537Y-96590941D01*
X138751803Y-96589212D01*
X138705282Y-96590674D01*
X138680971Y-96591438D01*
X138677013Y-96591500D01*
X138647908Y-96591500D01*
X138643508Y-96592056D01*
X138631676Y-96592988D01*
X138585509Y-96594438D01*
X138564919Y-96600420D01*
X138545558Y-96604430D01*
X138538570Y-96605312D01*
X138532136Y-96606125D01*
X138532135Y-96606125D01*
X138524276Y-96607118D01*
X138516911Y-96610034D01*
X138516907Y-96610035D01*
X138481319Y-96624126D01*
X138470109Y-96627965D01*
X138425740Y-96640855D01*
X138407283Y-96651771D01*
X138389533Y-96660466D01*
X138369584Y-96668365D01*
X138363173Y-96673023D01*
X138363171Y-96673024D01*
X138332204Y-96695523D01*
X138322286Y-96702038D01*
X138282533Y-96725548D01*
X138267372Y-96740709D01*
X138252340Y-96753548D01*
X138234983Y-96766159D01*
X138205533Y-96801758D01*
X138197543Y-96810538D01*
X136858815Y-98149265D01*
X136796503Y-98183291D01*
X136769720Y-98186170D01*
X136749183Y-98186170D01*
X136742731Y-98187542D01*
X136742726Y-98187542D01*
X136655782Y-98206023D01*
X136562382Y-98225876D01*
X136556352Y-98228561D01*
X136556351Y-98228561D01*
X136393948Y-98300867D01*
X136393946Y-98300868D01*
X136387918Y-98303552D01*
X136382577Y-98307432D01*
X136382576Y-98307433D01*
X136343160Y-98336071D01*
X136233417Y-98415804D01*
X136228996Y-98420714D01*
X136228995Y-98420715D01*
X136152979Y-98505140D01*
X136105630Y-98557726D01*
X136010143Y-98723114D01*
X135951128Y-98904742D01*
X135950438Y-98911303D01*
X135950438Y-98911305D01*
X135938186Y-99027880D01*
X135931166Y-99094670D01*
X135931856Y-99101235D01*
X135946915Y-99244510D01*
X135951128Y-99284598D01*
X136010143Y-99466226D01*
X136105630Y-99631614D01*
X136110048Y-99636521D01*
X136110049Y-99636522D01*
X136206314Y-99743435D01*
X136233417Y-99773536D01*
X136387918Y-99885788D01*
X136393946Y-99888472D01*
X136393948Y-99888473D01*
X136556351Y-99960779D01*
X136562382Y-99963464D01*
X136655782Y-99983317D01*
X136742726Y-100001798D01*
X136742731Y-100001798D01*
X136749183Y-100003170D01*
X136940157Y-100003170D01*
X136946609Y-100001798D01*
X136946614Y-100001798D01*
X137033557Y-99983317D01*
X137126958Y-99963464D01*
X137132989Y-99960779D01*
X137295392Y-99888473D01*
X137295394Y-99888472D01*
X137301422Y-99885788D01*
X137455923Y-99773536D01*
X137483026Y-99743435D01*
X137579291Y-99636522D01*
X137579292Y-99636521D01*
X137583710Y-99631614D01*
X137679197Y-99466226D01*
X137738212Y-99284598D01*
X137747383Y-99197342D01*
X137774396Y-99131686D01*
X137832618Y-99091056D01*
X137903563Y-99088353D01*
X137966329Y-99126203D01*
X137980103Y-99141500D01*
X138013747Y-99178866D01*
X138087719Y-99232610D01*
X138161763Y-99286406D01*
X138168248Y-99291118D01*
X138174276Y-99293802D01*
X138174278Y-99293803D01*
X138336681Y-99366109D01*
X138342712Y-99368794D01*
X138417680Y-99384729D01*
X138523056Y-99407128D01*
X138523061Y-99407128D01*
X138529513Y-99408500D01*
X138720487Y-99408500D01*
X138726939Y-99407128D01*
X138726944Y-99407128D01*
X138832320Y-99384729D01*
X138907288Y-99368794D01*
X138913319Y-99366109D01*
X139075722Y-99293803D01*
X139075724Y-99293802D01*
X139081752Y-99291118D01*
X139088238Y-99286406D01*
X139162281Y-99232610D01*
X139236253Y-99178866D01*
X139262610Y-99149594D01*
X139359621Y-99041852D01*
X139359622Y-99041851D01*
X139364040Y-99036944D01*
X139448113Y-98891326D01*
X139456223Y-98877279D01*
X139456224Y-98877278D01*
X139459527Y-98871556D01*
X139518542Y-98689928D01*
X139531755Y-98564213D01*
X139558768Y-98498558D01*
X139567970Y-98488290D01*
X139610855Y-98445405D01*
X139673167Y-98411379D01*
X139699950Y-98408500D01*
X141336519Y-98408500D01*
X141404640Y-98428502D01*
X141451133Y-98482158D01*
X141461237Y-98552432D01*
X141445637Y-98597501D01*
X141427772Y-98628444D01*
X141368757Y-98810072D01*
X141368068Y-98816631D01*
X141368067Y-98816634D01*
X141352836Y-98961551D01*
X141325823Y-99027207D01*
X141316621Y-99037475D01*
X138474261Y-101879834D01*
X135657747Y-104696348D01*
X135649461Y-104703888D01*
X135642982Y-104708000D01*
X135637557Y-104713777D01*
X135596357Y-104757651D01*
X135593602Y-104760493D01*
X135573865Y-104780230D01*
X135571385Y-104783427D01*
X135563682Y-104792447D01*
X135533414Y-104824679D01*
X135529595Y-104831625D01*
X135529593Y-104831628D01*
X135523652Y-104842434D01*
X135512801Y-104858953D01*
X135500386Y-104874959D01*
X135497241Y-104882228D01*
X135497238Y-104882232D01*
X135482826Y-104915537D01*
X135477609Y-104926187D01*
X135456305Y-104964940D01*
X135454334Y-104972615D01*
X135454334Y-104972616D01*
X135451267Y-104984562D01*
X135444863Y-105003266D01*
X135443436Y-105006565D01*
X135436819Y-105021855D01*
X135435580Y-105029678D01*
X135435577Y-105029688D01*
X135429901Y-105065524D01*
X135427495Y-105077144D01*
X135416500Y-105119970D01*
X135416500Y-105140224D01*
X135414949Y-105159934D01*
X135411780Y-105179943D01*
X135412526Y-105187835D01*
X135415941Y-105223961D01*
X135416500Y-105235819D01*
X135416500Y-105341646D01*
X135396498Y-105409767D01*
X135362772Y-105444858D01*
X135295866Y-105491706D01*
X135242473Y-105529092D01*
X135242470Y-105529094D01*
X135237962Y-105532251D01*
X135082251Y-105687962D01*
X134955944Y-105868347D01*
X134953621Y-105873329D01*
X134953618Y-105873334D01*
X134937860Y-105907128D01*
X134862880Y-106067924D01*
X134805885Y-106280629D01*
X134786693Y-106500000D01*
X123008500Y-106500000D01*
X123008500Y-104126000D01*
X123028502Y-104057879D01*
X123082158Y-104011386D01*
X123134500Y-104000000D01*
X132000000Y-104000000D01*
X132000000Y-94250000D01*
X145086496Y-94250000D01*
X145087186Y-94256565D01*
X145093500Y-94316635D01*
X145106458Y-94439928D01*
X145165473Y-94621556D01*
X145260960Y-94786944D01*
X145265378Y-94791851D01*
X145265379Y-94791852D01*
X145337145Y-94871556D01*
X145388747Y-94928866D01*
X145543248Y-95041118D01*
X145549276Y-95043802D01*
X145549278Y-95043803D01*
X145711681Y-95116109D01*
X145717712Y-95118794D01*
X145811112Y-95138647D01*
X145898056Y-95157128D01*
X145898061Y-95157128D01*
X145904513Y-95158500D01*
X146095487Y-95158500D01*
X146101939Y-95157128D01*
X146101944Y-95157128D01*
X146188888Y-95138647D01*
X146282288Y-95118794D01*
X146288319Y-95116109D01*
X146450722Y-95043803D01*
X146450724Y-95043802D01*
X146456752Y-95041118D01*
X146611253Y-94928866D01*
X146662855Y-94871556D01*
X146734621Y-94791852D01*
X146734622Y-94791851D01*
X146739040Y-94786944D01*
X146834527Y-94621556D01*
X146893542Y-94439928D01*
X146906501Y-94316635D01*
X146912814Y-94256565D01*
X146913504Y-94250000D01*
X146893542Y-94060072D01*
X146834527Y-93878444D01*
X146739040Y-93713056D01*
X146725530Y-93698051D01*
X146615675Y-93576045D01*
X146615674Y-93576044D01*
X146611253Y-93571134D01*
X146456752Y-93458882D01*
X146450724Y-93456198D01*
X146450722Y-93456197D01*
X146288319Y-93383891D01*
X146288318Y-93383891D01*
X146282288Y-93381206D01*
X146188887Y-93361353D01*
X146101944Y-93342872D01*
X146101939Y-93342872D01*
X146095487Y-93341500D01*
X145904513Y-93341500D01*
X145898061Y-93342872D01*
X145898056Y-93342872D01*
X145811113Y-93361353D01*
X145717712Y-93381206D01*
X145711682Y-93383891D01*
X145711681Y-93383891D01*
X145549278Y-93456197D01*
X145549276Y-93456198D01*
X145543248Y-93458882D01*
X145388747Y-93571134D01*
X145384326Y-93576044D01*
X145384325Y-93576045D01*
X145274471Y-93698051D01*
X145260960Y-93713056D01*
X145165473Y-93878444D01*
X145106458Y-94060072D01*
X145086496Y-94250000D01*
X132000000Y-94250000D01*
X132000000Y-93000000D01*
X123134500Y-93000000D01*
X123066379Y-92979998D01*
X123019886Y-92926342D01*
X123008500Y-92874000D01*
X123008500Y-79126000D01*
X123028502Y-79057879D01*
X123082158Y-79011386D01*
X123134500Y-79000000D01*
X132000000Y-79000000D01*
X132000000Y-77250000D01*
X145336496Y-77250000D01*
X145337186Y-77256565D01*
X145353508Y-77411857D01*
X145356458Y-77439928D01*
X145415473Y-77621556D01*
X145510960Y-77786944D01*
X145638747Y-77928866D01*
X145676332Y-77956173D01*
X145780192Y-78031632D01*
X145793248Y-78041118D01*
X145799276Y-78043802D01*
X145799278Y-78043803D01*
X145949119Y-78110516D01*
X145967712Y-78118794D01*
X146061112Y-78138647D01*
X146148056Y-78157128D01*
X146148061Y-78157128D01*
X146154513Y-78158500D01*
X146345487Y-78158500D01*
X146351939Y-78157128D01*
X146351944Y-78157128D01*
X146438888Y-78138647D01*
X146532288Y-78118794D01*
X146550881Y-78110516D01*
X146700722Y-78043803D01*
X146700724Y-78043802D01*
X146706752Y-78041118D01*
X146719809Y-78031632D01*
X146823668Y-77956173D01*
X146861253Y-77928866D01*
X146989040Y-77786944D01*
X147084527Y-77621556D01*
X147143542Y-77439928D01*
X147146493Y-77411857D01*
X147162814Y-77256565D01*
X147163504Y-77250000D01*
X147143542Y-77060072D01*
X147084527Y-76878444D01*
X146989040Y-76713056D01*
X146945507Y-76664707D01*
X146865675Y-76576045D01*
X146865674Y-76576044D01*
X146861253Y-76571134D01*
X146706752Y-76458882D01*
X146700724Y-76456198D01*
X146700722Y-76456197D01*
X146538319Y-76383891D01*
X146538318Y-76383891D01*
X146532288Y-76381206D01*
X146438888Y-76361353D01*
X146351944Y-76342872D01*
X146351939Y-76342872D01*
X146345487Y-76341500D01*
X146154513Y-76341500D01*
X146148061Y-76342872D01*
X146148056Y-76342872D01*
X146061112Y-76361353D01*
X145967712Y-76381206D01*
X145961682Y-76383891D01*
X145961681Y-76383891D01*
X145799278Y-76456197D01*
X145799276Y-76456198D01*
X145793248Y-76458882D01*
X145638747Y-76571134D01*
X145634326Y-76576044D01*
X145634325Y-76576045D01*
X145554494Y-76664707D01*
X145510960Y-76713056D01*
X145415473Y-76878444D01*
X145356458Y-77060072D01*
X145336496Y-77250000D01*
X132000000Y-77250000D01*
X132000000Y-71750000D01*
X139086496Y-71750000D01*
X139087186Y-71756565D01*
X139094489Y-71826045D01*
X139106458Y-71939928D01*
X139165473Y-72121556D01*
X139260960Y-72286944D01*
X139265378Y-72291851D01*
X139265379Y-72291852D01*
X139287694Y-72316635D01*
X139388747Y-72428866D01*
X139543248Y-72541118D01*
X139549276Y-72543802D01*
X139549278Y-72543803D01*
X139711681Y-72616109D01*
X139717712Y-72618794D01*
X139811112Y-72638647D01*
X139898056Y-72657128D01*
X139898061Y-72657128D01*
X139904513Y-72658500D01*
X140095487Y-72658500D01*
X140101939Y-72657128D01*
X140101944Y-72657128D01*
X140188888Y-72638647D01*
X140282288Y-72618794D01*
X140288319Y-72616109D01*
X140450722Y-72543803D01*
X140450724Y-72543802D01*
X140456752Y-72541118D01*
X140611253Y-72428866D01*
X140712306Y-72316635D01*
X140734621Y-72291852D01*
X140734622Y-72291851D01*
X140739040Y-72286944D01*
X140834527Y-72121556D01*
X140893542Y-71939928D01*
X140905512Y-71826045D01*
X140912814Y-71756565D01*
X140913504Y-71750000D01*
X140901301Y-71633891D01*
X140894232Y-71566635D01*
X140894232Y-71566633D01*
X140893542Y-71560072D01*
X140834527Y-71378444D01*
X140830284Y-71371094D01*
X140742341Y-71218774D01*
X140739040Y-71213056D01*
X140611253Y-71071134D01*
X140456752Y-70958882D01*
X140450724Y-70956198D01*
X140450722Y-70956197D01*
X140288319Y-70883891D01*
X140288318Y-70883891D01*
X140282288Y-70881206D01*
X140188887Y-70861353D01*
X140101944Y-70842872D01*
X140101939Y-70842872D01*
X140095487Y-70841500D01*
X139904513Y-70841500D01*
X139898061Y-70842872D01*
X139898056Y-70842872D01*
X139811113Y-70861353D01*
X139717712Y-70881206D01*
X139711682Y-70883891D01*
X139711681Y-70883891D01*
X139549278Y-70956197D01*
X139549276Y-70956198D01*
X139543248Y-70958882D01*
X139388747Y-71071134D01*
X139260960Y-71213056D01*
X139257659Y-71218774D01*
X139169717Y-71371094D01*
X139165473Y-71378444D01*
X139106458Y-71560072D01*
X139105768Y-71566633D01*
X139105768Y-71566635D01*
X139098699Y-71633891D01*
X139086496Y-71750000D01*
X132000000Y-71750000D01*
X132000000Y-68000000D01*
X123134500Y-68000000D01*
X123066379Y-67979998D01*
X123019886Y-67926342D01*
X123008500Y-67874000D01*
X123008500Y-64368966D01*
X141178624Y-64368966D01*
X141198565Y-64457446D01*
X141201645Y-64467275D01*
X141281770Y-64664603D01*
X141286413Y-64673794D01*
X141397694Y-64855388D01*
X141403777Y-64863699D01*
X141543213Y-65024667D01*
X141550580Y-65031883D01*
X141714434Y-65167916D01*
X141722881Y-65173831D01*
X141906756Y-65281279D01*
X141916042Y-65285729D01*
X142115001Y-65361703D01*
X142124898Y-65364579D01*
X142182249Y-65376247D01*
X142196299Y-65375051D01*
X142199982Y-65364755D01*
X142800000Y-65364755D01*
X142803973Y-65378286D01*
X142811617Y-65379385D01*
X142992250Y-65325192D01*
X143001845Y-65321432D01*
X143193095Y-65227739D01*
X143201945Y-65222464D01*
X143375328Y-65098792D01*
X143383200Y-65092139D01*
X143534052Y-64941812D01*
X143540730Y-64933965D01*
X143665003Y-64761020D01*
X143670313Y-64752183D01*
X143764670Y-64561267D01*
X143768469Y-64551672D01*
X143822957Y-64372333D01*
X143823089Y-64358233D01*
X143816182Y-64355000D01*
X142818115Y-64355000D01*
X142802876Y-64359475D01*
X142801671Y-64360865D01*
X142800000Y-64368548D01*
X142800000Y-65364755D01*
X142199982Y-65364755D01*
X142200000Y-65364704D01*
X142200000Y-64373115D01*
X142195525Y-64357876D01*
X142194135Y-64356671D01*
X142186452Y-64355000D01*
X141193592Y-64355000D01*
X141180061Y-64358973D01*
X141178624Y-64368966D01*
X123008500Y-64368966D01*
X123008500Y-64353966D01*
X145678624Y-64353966D01*
X145698565Y-64442446D01*
X145701645Y-64452275D01*
X145781770Y-64649603D01*
X145786413Y-64658794D01*
X145897694Y-64840388D01*
X145903777Y-64848699D01*
X146043213Y-65009667D01*
X146050580Y-65016883D01*
X146214434Y-65152916D01*
X146222881Y-65158831D01*
X146406756Y-65266279D01*
X146416042Y-65270729D01*
X146615001Y-65346703D01*
X146624898Y-65349579D01*
X146682249Y-65361247D01*
X146696299Y-65360051D01*
X146700000Y-65349704D01*
X146700000Y-64358115D01*
X146695525Y-64342876D01*
X146694135Y-64341671D01*
X146686452Y-64340000D01*
X145693592Y-64340000D01*
X145680061Y-64343973D01*
X145678624Y-64353966D01*
X123008500Y-64353966D01*
X123008500Y-62826495D01*
X124103705Y-62826495D01*
X124111163Y-62836863D01*
X124314943Y-63001880D01*
X124320265Y-63005747D01*
X124640685Y-63213830D01*
X124646394Y-63217127D01*
X124986811Y-63390578D01*
X124992836Y-63393260D01*
X125349502Y-63530171D01*
X125355784Y-63532212D01*
X125724816Y-63631094D01*
X125731266Y-63632465D01*
X126108629Y-63692234D01*
X126115167Y-63692920D01*
X126496699Y-63712916D01*
X126503301Y-63712916D01*
X126884833Y-63692920D01*
X126891371Y-63692234D01*
X127268734Y-63632465D01*
X127275184Y-63631094D01*
X127644216Y-63532212D01*
X127650498Y-63530171D01*
X128007164Y-63393260D01*
X128013189Y-63390578D01*
X128353606Y-63217127D01*
X128359315Y-63213830D01*
X128679735Y-63005747D01*
X128685057Y-63001880D01*
X128887889Y-62837631D01*
X128896355Y-62825376D01*
X128890021Y-62814285D01*
X126512812Y-60437076D01*
X126498868Y-60429462D01*
X126497035Y-60429593D01*
X126490420Y-60433844D01*
X124110845Y-62813419D01*
X124103705Y-62826495D01*
X123008500Y-62826495D01*
X123008500Y-61839945D01*
X123028502Y-61771824D01*
X123082158Y-61725331D01*
X123152432Y-61715227D01*
X123217012Y-61744721D01*
X123246767Y-61782742D01*
X123282872Y-61853603D01*
X123286169Y-61859313D01*
X123494251Y-62179732D01*
X123498123Y-62185062D01*
X123662369Y-62387889D01*
X123674624Y-62396355D01*
X123685715Y-62390021D01*
X126062924Y-60012812D01*
X126069302Y-60001132D01*
X126929462Y-60001132D01*
X126929593Y-60002965D01*
X126933844Y-60009580D01*
X129313419Y-62389155D01*
X129326495Y-62396295D01*
X129336863Y-62388837D01*
X129501877Y-62185062D01*
X129505749Y-62179732D01*
X129713831Y-61859313D01*
X129717128Y-61853603D01*
X129890578Y-61513189D01*
X129893260Y-61507164D01*
X130030171Y-61150498D01*
X130032212Y-61144216D01*
X130131094Y-60775184D01*
X130132465Y-60768734D01*
X130175029Y-60500000D01*
X136586496Y-60500000D01*
X136587186Y-60506565D01*
X136603012Y-60657138D01*
X136606458Y-60689928D01*
X136665473Y-60871556D01*
X136760960Y-61036944D01*
X136765378Y-61041851D01*
X136765379Y-61041852D01*
X136773677Y-61051068D01*
X136888747Y-61178866D01*
X136938356Y-61214909D01*
X137031417Y-61282522D01*
X137043248Y-61291118D01*
X137049276Y-61293802D01*
X137049278Y-61293803D01*
X137147325Y-61337456D01*
X137217712Y-61368794D01*
X137311112Y-61388647D01*
X137398056Y-61407128D01*
X137398061Y-61407128D01*
X137404513Y-61408500D01*
X137595487Y-61408500D01*
X137601939Y-61407128D01*
X137601944Y-61407128D01*
X137688888Y-61388647D01*
X137782288Y-61368794D01*
X137852675Y-61337456D01*
X137950722Y-61293803D01*
X137950724Y-61293802D01*
X137956752Y-61291118D01*
X137968584Y-61282522D01*
X138050939Y-61222687D01*
X138117807Y-61198828D01*
X138186958Y-61214909D01*
X138199061Y-61222687D01*
X138281417Y-61282522D01*
X138293248Y-61291118D01*
X138299276Y-61293802D01*
X138299278Y-61293803D01*
X138397325Y-61337456D01*
X138467712Y-61368794D01*
X138561112Y-61388647D01*
X138648056Y-61407128D01*
X138648061Y-61407128D01*
X138654513Y-61408500D01*
X138845487Y-61408500D01*
X138851939Y-61407128D01*
X138851944Y-61407128D01*
X138938888Y-61388647D01*
X139032288Y-61368794D01*
X139102675Y-61337456D01*
X139200722Y-61293803D01*
X139200724Y-61293802D01*
X139206752Y-61291118D01*
X139218584Y-61282522D01*
X139311644Y-61214909D01*
X139361253Y-61178866D01*
X139476323Y-61051068D01*
X139484621Y-61041852D01*
X139484622Y-61041851D01*
X139489040Y-61036944D01*
X139584527Y-60871556D01*
X139643542Y-60689928D01*
X139646989Y-60657138D01*
X139662814Y-60506565D01*
X139663504Y-60500000D01*
X139659052Y-60457642D01*
X139644232Y-60316635D01*
X139644232Y-60316633D01*
X139643542Y-60310072D01*
X139584527Y-60128444D01*
X139489040Y-59963056D01*
X139394220Y-59857747D01*
X139365675Y-59826045D01*
X139365674Y-59826044D01*
X139361253Y-59821134D01*
X139233790Y-59728526D01*
X139212094Y-59712763D01*
X139212093Y-59712762D01*
X139206752Y-59708882D01*
X139200724Y-59706198D01*
X139200722Y-59706197D01*
X139038319Y-59633891D01*
X139038318Y-59633891D01*
X139032288Y-59631206D01*
X138926072Y-59608629D01*
X138851944Y-59592872D01*
X138851939Y-59592872D01*
X138845487Y-59591500D01*
X138654513Y-59591500D01*
X138648061Y-59592872D01*
X138648056Y-59592872D01*
X138573928Y-59608629D01*
X138467712Y-59631206D01*
X138461682Y-59633891D01*
X138461681Y-59633891D01*
X138299278Y-59706197D01*
X138299276Y-59706198D01*
X138293248Y-59708882D01*
X138287907Y-59712762D01*
X138287906Y-59712763D01*
X138199061Y-59777313D01*
X138132193Y-59801172D01*
X138063042Y-59785091D01*
X138050939Y-59777313D01*
X137962094Y-59712763D01*
X137962093Y-59712762D01*
X137956752Y-59708882D01*
X137950724Y-59706198D01*
X137950722Y-59706197D01*
X137788319Y-59633891D01*
X137788318Y-59633891D01*
X137782288Y-59631206D01*
X137676072Y-59608629D01*
X137601944Y-59592872D01*
X137601939Y-59592872D01*
X137595487Y-59591500D01*
X137404513Y-59591500D01*
X137398061Y-59592872D01*
X137398056Y-59592872D01*
X137323928Y-59608629D01*
X137217712Y-59631206D01*
X137211682Y-59633891D01*
X137211681Y-59633891D01*
X137049278Y-59706197D01*
X137049276Y-59706198D01*
X137043248Y-59708882D01*
X137037907Y-59712762D01*
X137037906Y-59712763D01*
X137016210Y-59728526D01*
X136888747Y-59821134D01*
X136884326Y-59826044D01*
X136884325Y-59826045D01*
X136855781Y-59857747D01*
X136760960Y-59963056D01*
X136665473Y-60128444D01*
X136606458Y-60310072D01*
X136605768Y-60316633D01*
X136605768Y-60316635D01*
X136590948Y-60457642D01*
X136586496Y-60500000D01*
X130175029Y-60500000D01*
X130192234Y-60391371D01*
X130192920Y-60384833D01*
X130212916Y-60003301D01*
X130212916Y-59996699D01*
X130192920Y-59615167D01*
X130192234Y-59608629D01*
X130132465Y-59231266D01*
X130131094Y-59224816D01*
X130032212Y-58855784D01*
X130030171Y-58849502D01*
X129893260Y-58492836D01*
X129890578Y-58486811D01*
X129717128Y-58146397D01*
X129713831Y-58140687D01*
X129505749Y-57820268D01*
X129501877Y-57814938D01*
X129337631Y-57612111D01*
X129325376Y-57603645D01*
X129314285Y-57609979D01*
X126937076Y-59987188D01*
X126929462Y-60001132D01*
X126069302Y-60001132D01*
X126070538Y-59998868D01*
X126070407Y-59997035D01*
X126066156Y-59990420D01*
X123686581Y-57610845D01*
X123673505Y-57603705D01*
X123663137Y-57611163D01*
X123498123Y-57814938D01*
X123494251Y-57820268D01*
X123286169Y-58140687D01*
X123282872Y-58146397D01*
X123246767Y-58217258D01*
X123198019Y-58268873D01*
X123129104Y-58285939D01*
X123061902Y-58263038D01*
X123017750Y-58207441D01*
X123008500Y-58160055D01*
X123008500Y-56634500D01*
X123028502Y-56566379D01*
X123082158Y-56519886D01*
X123134500Y-56508500D01*
X124660055Y-56508500D01*
X124728176Y-56528502D01*
G37*
%TD.AperFunction*%
M02*
