M48
; DRILL file {KiCad (6.0.10)} date Fri Dec 29 21:02:49 2023
; FORMAT={-:-/ absolute / metric / decimal}
; #@! TF.CreationDate,2023-12-29T21:02:49+01:00
; #@! TF.GenerationSoftware,Kicad,Pcbnew,(6.0.10)
; #@! TF.FileFunction,Plated,1,4,PTH
FMAT,2
METRIC
; #@! TA.AperFunction,Plated,PTH,ComponentDrill
T1C0.200
; #@! TA.AperFunction,Plated,PTH,ViaDrill
T2C0.400
; #@! TA.AperFunction,Plated,PTH,ComponentDrill
T3C0.600
; #@! TA.AperFunction,Plated,PTH,ComponentDrill
T4C0.800
; #@! TA.AperFunction,Plated,PTH,ComponentDrill
T5C1.000
; #@! TA.AperFunction,Plated,PTH,ComponentDrill
T6C3.200
%
G90
G05
T1
X158.545Y-129.7
X158.545Y-131.0
X158.545Y-132.3
X160.455Y-129.7
X160.455Y-131.0
X160.455Y-132.3
T2
X125.5Y-112.25
X125.5Y-113.5
X126.337Y-128.162
X126.5Y-120.0
X126.5Y-121.25
X127.75Y-114.75
X129.75Y-129.5
X130.75Y-109.25
X134.0Y-59.0
X136.0Y-122.25
X136.0Y-123.5
X136.0Y-135.5
X136.0Y-136.75
X136.845Y-99.095
X137.5Y-60.5
X138.5Y-108.5
X138.625Y-98.5
X138.75Y-60.5
X139.0Y-122.25
X139.0Y-123.5
X139.0Y-135.5
X139.0Y-136.75
X139.5Y-77.0
X139.5Y-100.25
X139.5Y-103.25
X140.0Y-71.75
X142.262Y-99.0
X142.5Y-101.5
X143.5Y-102.75
X143.75Y-98.75
X145.838Y-103.912
X146.0Y-94.25
X146.25Y-77.25
X146.25Y-81.25
X146.75Y-105.0
X147.25Y-92.5
X147.875Y-96.875
X147.92Y-98.14
X148.25Y-108.25
X149.5Y-96.0
X149.5Y-109.25
X150.75Y-86.0
X150.75Y-99.75
X151.0Y-109.75
X151.75Y-98.75
X151.762Y-87.012
X152.25Y-100.75
X152.5Y-69.5
X152.5Y-110.25
X152.794Y-62.206
X153.0Y-104.5
X153.25Y-81.25
X154.25Y-94.5
X154.5Y-66.5
X154.75Y-103.25
X156.0Y-94.5
X156.5Y-75.0
X157.512Y-96.512
X158.131Y-97.631
X158.275Y-69.475
X160.5Y-98.75
X160.75Y-123.75
X162.25Y-134.0
X162.5Y-66.5
X163.75Y-135.5
X165.5Y-123.75
X167.0Y-72.5
X167.25Y-135.5
X169.75Y-67.5
T4
X136.05Y-106.5
X140.93Y-106.5
X150.8Y-79.25
X155.68Y-79.25
T5
X142.5Y-58.975
X142.5Y-61.515
X142.5Y-64.055
X147.0Y-58.96
X147.0Y-61.5
X147.0Y-64.04
X170.85Y-74.375
X170.85Y-76.915
X170.85Y-79.455
X170.85Y-81.995
X170.85Y-84.535
X170.85Y-87.075
X170.85Y-89.615
X170.85Y-92.155
X170.85Y-94.695
X170.85Y-97.235
X170.85Y-99.775
X170.85Y-102.315
X170.85Y-104.855
X170.85Y-107.395
X170.85Y-109.935
X170.85Y-112.475
X170.85Y-115.015
X170.85Y-117.555
X170.85Y-120.095
X170.85Y-122.635
X173.39Y-74.375
X173.39Y-76.915
X173.39Y-79.455
X173.39Y-81.995
X173.39Y-84.535
X173.39Y-87.075
X173.39Y-89.615
X173.39Y-92.155
X173.39Y-94.695
X173.39Y-97.235
X173.39Y-99.775
X173.39Y-102.315
X173.39Y-104.855
X173.39Y-107.395
X173.39Y-109.935
X173.39Y-112.475
X173.39Y-115.015
X173.39Y-117.555
X173.39Y-120.095
X173.39Y-122.635
T6
X126.5Y-60.0
X126.5Y-137.0
X173.5Y-60.0
X173.5Y-137.0
T3
X125.75Y-69.18G85X125.15Y-69.18
G05
X125.75Y-77.82G85X125.15Y-77.82
G05
X125.75Y-94.18G85X125.15Y-94.18
G05
X125.75Y-102.82G85X125.15Y-102.82
G05
X130.18Y-69.18G85X129.08Y-69.18
G05
X130.18Y-77.82G85X129.08Y-77.82
G05
X130.18Y-94.18G85X129.08Y-94.18
G05
X130.18Y-102.82G85X129.08Y-102.82
G05
T0
M30
