%TF.GenerationSoftware,KiCad,Pcbnew,(6.0.10)*%
%TF.CreationDate,2023-12-29T21:00:04+01:00*%
%TF.ProjectId,Alchemy,416c6368-656d-4792-9e6b-696361645f70,rev?*%
%TF.SameCoordinates,Original*%
%TF.FileFunction,Legend,Top*%
%TF.FilePolarity,Positive*%
%FSLAX46Y46*%
G04 Gerber Fmt 4.6, Leading zero omitted, Abs format (unit mm)*
G04 Created by KiCad (PCBNEW (6.0.10)) date 2023-12-29 21:00:04*
%MOMM*%
%LPD*%
G01*
G04 APERTURE LIST*
G04 Aperture macros list*
%AMRoundRect*
0 Rectangle with rounded corners*
0 $1 Rounding radius*
0 $2 $3 $4 $5 $6 $7 $8 $9 X,Y pos of 4 corners*
0 Add a 4 corners polygon primitive as box body*
4,1,4,$2,$3,$4,$5,$6,$7,$8,$9,$2,$3,0*
0 Add four circle primitives for the rounded corners*
1,1,$1+$1,$2,$3*
1,1,$1+$1,$4,$5*
1,1,$1+$1,$6,$7*
1,1,$1+$1,$8,$9*
0 Add four rect primitives between the rounded corners*
20,1,$1+$1,$2,$3,$4,$5,0*
20,1,$1+$1,$4,$5,$6,$7,0*
20,1,$1+$1,$6,$7,$8,$9,0*
20,1,$1+$1,$8,$9,$2,$3,0*%
G04 Aperture macros list end*
%ADD10C,0.300000*%
%ADD11C,0.150000*%
%ADD12C,0.254000*%
%ADD13C,0.120000*%
%ADD14C,0.100000*%
%ADD15C,0.200000*%
%ADD16RoundRect,0.250000X-0.475000X0.250000X-0.475000X-0.250000X0.475000X-0.250000X0.475000X0.250000X0*%
%ADD17C,0.650000*%
%ADD18R,1.450000X0.600000*%
%ADD19R,1.450000X0.300000*%
%ADD20O,1.600000X1.000000*%
%ADD21O,2.100000X1.000000*%
%ADD22RoundRect,0.243750X0.243750X0.456250X-0.243750X0.456250X-0.243750X-0.456250X0.243750X-0.456250X0*%
%ADD23RoundRect,0.250000X0.250000X0.475000X-0.250000X0.475000X-0.250000X-0.475000X0.250000X-0.475000X0*%
%ADD24R,2.100000X1.400000*%
%ADD25RoundRect,0.250000X-0.262500X-0.450000X0.262500X-0.450000X0.262500X0.450000X-0.262500X0.450000X0*%
%ADD26C,6.400000*%
%ADD27RoundRect,0.250000X0.475000X-0.250000X0.475000X0.250000X-0.475000X0.250000X-0.475000X-0.250000X0*%
%ADD28RoundRect,0.250000X0.262500X0.450000X-0.262500X0.450000X-0.262500X-0.450000X0.262500X-0.450000X0*%
%ADD29R,1.500000X1.500000*%
%ADD30R,2.700000X3.600000*%
%ADD31RoundRect,0.250000X-0.650000X0.325000X-0.650000X-0.325000X0.650000X-0.325000X0.650000X0.325000X0*%
%ADD32RoundRect,0.250000X-0.450000X0.262500X-0.450000X-0.262500X0.450000X-0.262500X0.450000X0.262500X0*%
%ADD33R,1.700000X1.700000*%
%ADD34O,1.700000X1.700000*%
%ADD35RoundRect,0.250000X-0.250000X-0.475000X0.250000X-0.475000X0.250000X0.475000X-0.250000X0.475000X0*%
%ADD36RoundRect,0.250000X0.650000X-0.325000X0.650000X0.325000X-0.650000X0.325000X-0.650000X-0.325000X0*%
%ADD37C,1.500000*%
%ADD38RoundRect,0.250000X0.450000X-0.262500X0.450000X0.262500X-0.450000X0.262500X-0.450000X-0.262500X0*%
%ADD39RoundRect,0.150000X-0.512500X-0.150000X0.512500X-0.150000X0.512500X0.150000X-0.512500X0.150000X0*%
%ADD40RoundRect,0.150000X0.150000X-0.512500X0.150000X0.512500X-0.150000X0.512500X-0.150000X-0.512500X0*%
%ADD41RoundRect,0.075000X-0.662500X-0.075000X0.662500X-0.075000X0.662500X0.075000X-0.662500X0.075000X0*%
%ADD42RoundRect,0.075000X-0.075000X-0.662500X0.075000X-0.662500X0.075000X0.662500X-0.075000X0.662500X0*%
%ADD43R,2.000000X1.500000*%
%ADD44R,2.000000X3.800000*%
%ADD45RoundRect,0.150000X0.150000X-0.850000X0.150000X0.850000X-0.150000X0.850000X-0.150000X-0.850000X0*%
%ADD46RoundRect,0.150000X0.650000X0.150000X-0.650000X0.150000X-0.650000X-0.150000X0.650000X-0.150000X0*%
%ADD47R,2.410000X3.100000*%
%ADD48RoundRect,0.150000X-0.150000X0.512500X-0.150000X-0.512500X0.150000X-0.512500X0.150000X0.512500X0*%
%ADD49RoundRect,0.250000X-0.325000X-0.650000X0.325000X-0.650000X0.325000X0.650000X-0.325000X0.650000X0*%
G04 APERTURE END LIST*
D10*
X139357142Y-86678571D02*
X139357142Y-87750000D01*
X139285714Y-87964285D01*
X139142857Y-88107142D01*
X138928571Y-88178571D01*
X138785714Y-88178571D01*
X139928571Y-86678571D02*
X140285714Y-88178571D01*
X140571428Y-87107142D01*
X140857142Y-88178571D01*
X141214285Y-86678571D01*
X142571428Y-86750000D02*
X142428571Y-86678571D01*
X142214285Y-86678571D01*
X142000000Y-86750000D01*
X141857142Y-86892857D01*
X141785714Y-87035714D01*
X141714285Y-87321428D01*
X141714285Y-87535714D01*
X141785714Y-87821428D01*
X141857142Y-87964285D01*
X142000000Y-88107142D01*
X142214285Y-88178571D01*
X142357142Y-88178571D01*
X142571428Y-88107142D01*
X142642857Y-88035714D01*
X142642857Y-87535714D01*
X142357142Y-87535714D01*
X138821428Y-84392857D02*
X139321428Y-84392857D01*
X139535714Y-85178571D02*
X138821428Y-85178571D01*
X138821428Y-83678571D01*
X139535714Y-83678571D01*
X140892857Y-85178571D02*
X140178571Y-85178571D01*
X140178571Y-83678571D01*
X142250000Y-85178571D02*
X141750000Y-84464285D01*
X141392857Y-85178571D02*
X141392857Y-83678571D01*
X141964285Y-83678571D01*
X142107142Y-83750000D01*
X142178571Y-83821428D01*
X142250000Y-83964285D01*
X142250000Y-84178571D01*
X142178571Y-84321428D01*
X142107142Y-84392857D01*
X141964285Y-84464285D01*
X141392857Y-84464285D01*
X143214285Y-138500000D02*
X143928571Y-138500000D01*
X143071428Y-138928571D02*
X143571428Y-137428571D01*
X144071428Y-138928571D01*
X144785714Y-138928571D02*
X144642857Y-138857142D01*
X144571428Y-138714285D01*
X144571428Y-137428571D01*
X146000000Y-138857142D02*
X145857142Y-138928571D01*
X145571428Y-138928571D01*
X145428571Y-138857142D01*
X145357142Y-138785714D01*
X145285714Y-138642857D01*
X145285714Y-138214285D01*
X145357142Y-138071428D01*
X145428571Y-138000000D01*
X145571428Y-137928571D01*
X145857142Y-137928571D01*
X146000000Y-138000000D01*
X146642857Y-138928571D02*
X146642857Y-137428571D01*
X147285714Y-138928571D02*
X147285714Y-138142857D01*
X147214285Y-138000000D01*
X147071428Y-137928571D01*
X146857142Y-137928571D01*
X146714285Y-138000000D01*
X146642857Y-138071428D01*
X148571428Y-138857142D02*
X148428571Y-138928571D01*
X148142857Y-138928571D01*
X148000000Y-138857142D01*
X147928571Y-138714285D01*
X147928571Y-138142857D01*
X148000000Y-138000000D01*
X148142857Y-137928571D01*
X148428571Y-137928571D01*
X148571428Y-138000000D01*
X148642857Y-138142857D01*
X148642857Y-138285714D01*
X147928571Y-138428571D01*
X149285714Y-138928571D02*
X149285714Y-137928571D01*
X149285714Y-138071428D02*
X149357142Y-138000000D01*
X149500000Y-137928571D01*
X149714285Y-137928571D01*
X149857142Y-138000000D01*
X149928571Y-138142857D01*
X149928571Y-138928571D01*
X149928571Y-138142857D02*
X150000000Y-138000000D01*
X150142857Y-137928571D01*
X150357142Y-137928571D01*
X150500000Y-138000000D01*
X150571428Y-138142857D01*
X150571428Y-138928571D01*
X151142857Y-137928571D02*
X151500000Y-138928571D01*
X151857142Y-137928571D02*
X151500000Y-138928571D01*
X151357142Y-139285714D01*
X151285714Y-139357142D01*
X151142857Y-139428571D01*
X153357142Y-137428571D02*
X153857142Y-138928571D01*
X154357142Y-137428571D01*
X155642857Y-138928571D02*
X154785714Y-138928571D01*
X155214285Y-138928571D02*
X155214285Y-137428571D01*
X155071428Y-137642857D01*
X154928571Y-137785714D01*
X154785714Y-137857142D01*
X156285714Y-138785714D02*
X156357142Y-138857142D01*
X156285714Y-138928571D01*
X156214285Y-138857142D01*
X156285714Y-138785714D01*
X156285714Y-138928571D01*
X157285714Y-137428571D02*
X157428571Y-137428571D01*
X157571428Y-137500000D01*
X157642857Y-137571428D01*
X157714285Y-137714285D01*
X157785714Y-138000000D01*
X157785714Y-138357142D01*
X157714285Y-138642857D01*
X157642857Y-138785714D01*
X157571428Y-138857142D01*
X157428571Y-138928571D01*
X157285714Y-138928571D01*
X157142857Y-138857142D01*
X157071428Y-138785714D01*
X157000000Y-138642857D01*
X156928571Y-138357142D01*
X156928571Y-138000000D01*
X157000000Y-137714285D01*
X157071428Y-137571428D01*
X157142857Y-137500000D01*
X157285714Y-137428571D01*
D11*
X161037142Y-104142857D02*
X161084761Y-104190476D01*
X161132380Y-104333333D01*
X161132380Y-104428571D01*
X161084761Y-104571428D01*
X160989523Y-104666666D01*
X160894285Y-104714285D01*
X160703809Y-104761904D01*
X160560952Y-104761904D01*
X160370476Y-104714285D01*
X160275238Y-104666666D01*
X160180000Y-104571428D01*
X160132380Y-104428571D01*
X160132380Y-104333333D01*
X160180000Y-104190476D01*
X160227619Y-104142857D01*
X160227619Y-103761904D02*
X160180000Y-103714285D01*
X160132380Y-103619047D01*
X160132380Y-103380952D01*
X160180000Y-103285714D01*
X160227619Y-103238095D01*
X160322857Y-103190476D01*
X160418095Y-103190476D01*
X160560952Y-103238095D01*
X161132380Y-103809523D01*
X161132380Y-103190476D01*
X160465714Y-102333333D02*
X161132380Y-102333333D01*
X160084761Y-102571428D02*
X160799047Y-102809523D01*
X160799047Y-102190476D01*
X131597380Y-73833333D02*
X132311666Y-73833333D01*
X132454523Y-73880952D01*
X132549761Y-73976190D01*
X132597380Y-74119047D01*
X132597380Y-74214285D01*
X131597380Y-73452380D02*
X131597380Y-72833333D01*
X131978333Y-73166666D01*
X131978333Y-73023809D01*
X132025952Y-72928571D01*
X132073571Y-72880952D01*
X132168809Y-72833333D01*
X132406904Y-72833333D01*
X132502142Y-72880952D01*
X132549761Y-72928571D01*
X132597380Y-73023809D01*
X132597380Y-73309523D01*
X132549761Y-73404761D01*
X132502142Y-73452380D01*
X174011904Y-69952380D02*
X174011904Y-68952380D01*
X174250000Y-68952380D01*
X174392857Y-69000000D01*
X174488095Y-69095238D01*
X174535714Y-69190476D01*
X174583333Y-69380952D01*
X174583333Y-69523809D01*
X174535714Y-69714285D01*
X174488095Y-69809523D01*
X174392857Y-69904761D01*
X174250000Y-69952380D01*
X174011904Y-69952380D01*
X175535714Y-69952380D02*
X174964285Y-69952380D01*
X175250000Y-69952380D02*
X175250000Y-68952380D01*
X175154761Y-69095238D01*
X175059523Y-69190476D01*
X174964285Y-69238095D01*
X136107142Y-59107142D02*
X136059523Y-59154761D01*
X135916666Y-59202380D01*
X135821428Y-59202380D01*
X135678571Y-59154761D01*
X135583333Y-59059523D01*
X135535714Y-58964285D01*
X135488095Y-58773809D01*
X135488095Y-58630952D01*
X135535714Y-58440476D01*
X135583333Y-58345238D01*
X135678571Y-58250000D01*
X135821428Y-58202380D01*
X135916666Y-58202380D01*
X136059523Y-58250000D01*
X136107142Y-58297619D01*
X136488095Y-58297619D02*
X136535714Y-58250000D01*
X136630952Y-58202380D01*
X136869047Y-58202380D01*
X136964285Y-58250000D01*
X137011904Y-58297619D01*
X137059523Y-58392857D01*
X137059523Y-58488095D01*
X137011904Y-58630952D01*
X136440476Y-59202380D01*
X137059523Y-59202380D01*
X138011904Y-59202380D02*
X137440476Y-59202380D01*
X137726190Y-59202380D02*
X137726190Y-58202380D01*
X137630952Y-58345238D01*
X137535714Y-58440476D01*
X137440476Y-58488095D01*
D12*
X159332380Y-61514047D02*
X159513809Y-61574523D01*
X159816190Y-61574523D01*
X159937142Y-61514047D01*
X159997619Y-61453571D01*
X160058095Y-61332619D01*
X160058095Y-61211666D01*
X159997619Y-61090714D01*
X159937142Y-61030238D01*
X159816190Y-60969761D01*
X159574285Y-60909285D01*
X159453333Y-60848809D01*
X159392857Y-60788333D01*
X159332380Y-60667380D01*
X159332380Y-60546428D01*
X159392857Y-60425476D01*
X159453333Y-60365000D01*
X159574285Y-60304523D01*
X159876666Y-60304523D01*
X160058095Y-60365000D01*
X161267619Y-61574523D02*
X160541904Y-61574523D01*
X160904761Y-61574523D02*
X160904761Y-60304523D01*
X160783809Y-60485952D01*
X160662857Y-60606904D01*
X160541904Y-60667380D01*
D11*
X134333333Y-99302380D02*
X134000000Y-98826190D01*
X133761904Y-99302380D02*
X133761904Y-98302380D01*
X134142857Y-98302380D01*
X134238095Y-98350000D01*
X134285714Y-98397619D01*
X134333333Y-98492857D01*
X134333333Y-98635714D01*
X134285714Y-98730952D01*
X134238095Y-98778571D01*
X134142857Y-98826190D01*
X133761904Y-98826190D01*
X134904761Y-98730952D02*
X134809523Y-98683333D01*
X134761904Y-98635714D01*
X134714285Y-98540476D01*
X134714285Y-98492857D01*
X134761904Y-98397619D01*
X134809523Y-98350000D01*
X134904761Y-98302380D01*
X135095238Y-98302380D01*
X135190476Y-98350000D01*
X135238095Y-98397619D01*
X135285714Y-98492857D01*
X135285714Y-98540476D01*
X135238095Y-98635714D01*
X135190476Y-98683333D01*
X135095238Y-98730952D01*
X134904761Y-98730952D01*
X134809523Y-98778571D01*
X134761904Y-98826190D01*
X134714285Y-98921428D01*
X134714285Y-99111904D01*
X134761904Y-99207142D01*
X134809523Y-99254761D01*
X134904761Y-99302380D01*
X135095238Y-99302380D01*
X135190476Y-99254761D01*
X135238095Y-99207142D01*
X135285714Y-99111904D01*
X135285714Y-98921428D01*
X135238095Y-98826190D01*
X135190476Y-98778571D01*
X135095238Y-98730952D01*
X125357142Y-124642857D02*
X125404761Y-124690476D01*
X125452380Y-124833333D01*
X125452380Y-124928571D01*
X125404761Y-125071428D01*
X125309523Y-125166666D01*
X125214285Y-125214285D01*
X125023809Y-125261904D01*
X124880952Y-125261904D01*
X124690476Y-125214285D01*
X124595238Y-125166666D01*
X124500000Y-125071428D01*
X124452380Y-124928571D01*
X124452380Y-124833333D01*
X124500000Y-124690476D01*
X124547619Y-124642857D01*
X124547619Y-124261904D02*
X124500000Y-124214285D01*
X124452380Y-124119047D01*
X124452380Y-123880952D01*
X124500000Y-123785714D01*
X124547619Y-123738095D01*
X124642857Y-123690476D01*
X124738095Y-123690476D01*
X124880952Y-123738095D01*
X125452380Y-124309523D01*
X125452380Y-123690476D01*
X124547619Y-123309523D02*
X124500000Y-123261904D01*
X124452380Y-123166666D01*
X124452380Y-122928571D01*
X124500000Y-122833333D01*
X124547619Y-122785714D01*
X124642857Y-122738095D01*
X124738095Y-122738095D01*
X124880952Y-122785714D01*
X125452380Y-123357142D01*
X125452380Y-122738095D01*
X125738095Y-133252380D02*
X125738095Y-132252380D01*
X125738095Y-132728571D02*
X126309523Y-132728571D01*
X126309523Y-133252380D02*
X126309523Y-132252380D01*
X126690476Y-132252380D02*
X127309523Y-132252380D01*
X126976190Y-132633333D01*
X127119047Y-132633333D01*
X127214285Y-132680952D01*
X127261904Y-132728571D01*
X127309523Y-132823809D01*
X127309523Y-133061904D01*
X127261904Y-133157142D01*
X127214285Y-133204761D01*
X127119047Y-133252380D01*
X126833333Y-133252380D01*
X126738095Y-133204761D01*
X126690476Y-133157142D01*
X134333333Y-95802380D02*
X134000000Y-95326190D01*
X133761904Y-95802380D02*
X133761904Y-94802380D01*
X134142857Y-94802380D01*
X134238095Y-94850000D01*
X134285714Y-94897619D01*
X134333333Y-94992857D01*
X134333333Y-95135714D01*
X134285714Y-95230952D01*
X134238095Y-95278571D01*
X134142857Y-95326190D01*
X133761904Y-95326190D01*
X134666666Y-94802380D02*
X135333333Y-94802380D01*
X134904761Y-95802380D01*
X156857142Y-120916666D02*
X156904761Y-120964285D01*
X156952380Y-121107142D01*
X156952380Y-121202380D01*
X156904761Y-121345238D01*
X156809523Y-121440476D01*
X156714285Y-121488095D01*
X156523809Y-121535714D01*
X156380952Y-121535714D01*
X156190476Y-121488095D01*
X156095238Y-121440476D01*
X156000000Y-121345238D01*
X155952380Y-121202380D01*
X155952380Y-121107142D01*
X156000000Y-120964285D01*
X156047619Y-120916666D01*
X155952380Y-120583333D02*
X155952380Y-119964285D01*
X156333333Y-120297619D01*
X156333333Y-120154761D01*
X156380952Y-120059523D01*
X156428571Y-120011904D01*
X156523809Y-119964285D01*
X156761904Y-119964285D01*
X156857142Y-120011904D01*
X156904761Y-120059523D01*
X156952380Y-120154761D01*
X156952380Y-120440476D01*
X156904761Y-120535714D01*
X156857142Y-120583333D01*
X171607142Y-66452380D02*
X171273809Y-65976190D01*
X171035714Y-66452380D02*
X171035714Y-65452380D01*
X171416666Y-65452380D01*
X171511904Y-65500000D01*
X171559523Y-65547619D01*
X171607142Y-65642857D01*
X171607142Y-65785714D01*
X171559523Y-65880952D01*
X171511904Y-65928571D01*
X171416666Y-65976190D01*
X171035714Y-65976190D01*
X172559523Y-66452380D02*
X171988095Y-66452380D01*
X172273809Y-66452380D02*
X172273809Y-65452380D01*
X172178571Y-65595238D01*
X172083333Y-65690476D01*
X171988095Y-65738095D01*
X172892857Y-65452380D02*
X173511904Y-65452380D01*
X173178571Y-65833333D01*
X173321428Y-65833333D01*
X173416666Y-65880952D01*
X173464285Y-65928571D01*
X173511904Y-66023809D01*
X173511904Y-66261904D01*
X173464285Y-66357142D01*
X173416666Y-66404761D01*
X173321428Y-66452380D01*
X173035714Y-66452380D01*
X172940476Y-66404761D01*
X172892857Y-66357142D01*
X158988095Y-87804380D02*
X159559523Y-87804380D01*
X159273809Y-88804380D02*
X159273809Y-87804380D01*
X159892857Y-88804380D02*
X159892857Y-87804380D01*
X160273809Y-87804380D01*
X160369047Y-87852000D01*
X160416666Y-87899619D01*
X160464285Y-87994857D01*
X160464285Y-88137714D01*
X160416666Y-88232952D01*
X160369047Y-88280571D01*
X160273809Y-88328190D01*
X159892857Y-88328190D01*
X161416666Y-88804380D02*
X160845238Y-88804380D01*
X161130952Y-88804380D02*
X161130952Y-87804380D01*
X161035714Y-87947238D01*
X160940476Y-88042476D01*
X160845238Y-88090095D01*
X146333333Y-136302380D02*
X145857142Y-136302380D01*
X145857142Y-135302380D01*
X147190476Y-136302380D02*
X146619047Y-136302380D01*
X146904761Y-136302380D02*
X146904761Y-135302380D01*
X146809523Y-135445238D01*
X146714285Y-135540476D01*
X146619047Y-135588095D01*
X141207142Y-126666666D02*
X141254761Y-126714285D01*
X141302380Y-126857142D01*
X141302380Y-126952380D01*
X141254761Y-127095238D01*
X141159523Y-127190476D01*
X141064285Y-127238095D01*
X140873809Y-127285714D01*
X140730952Y-127285714D01*
X140540476Y-127238095D01*
X140445238Y-127190476D01*
X140350000Y-127095238D01*
X140302380Y-126952380D01*
X140302380Y-126857142D01*
X140350000Y-126714285D01*
X140397619Y-126666666D01*
X140302380Y-126333333D02*
X140302380Y-125666666D01*
X141302380Y-126095238D01*
X163452380Y-123416666D02*
X162976190Y-123750000D01*
X163452380Y-123988095D02*
X162452380Y-123988095D01*
X162452380Y-123607142D01*
X162500000Y-123511904D01*
X162547619Y-123464285D01*
X162642857Y-123416666D01*
X162785714Y-123416666D01*
X162880952Y-123464285D01*
X162928571Y-123511904D01*
X162976190Y-123607142D01*
X162976190Y-123988095D01*
X162452380Y-123083333D02*
X162452380Y-122464285D01*
X162833333Y-122797619D01*
X162833333Y-122654761D01*
X162880952Y-122559523D01*
X162928571Y-122511904D01*
X163023809Y-122464285D01*
X163261904Y-122464285D01*
X163357142Y-122511904D01*
X163404761Y-122559523D01*
X163452380Y-122654761D01*
X163452380Y-122940476D01*
X163404761Y-123035714D01*
X163357142Y-123083333D01*
X176171666Y-71557380D02*
X176171666Y-72271666D01*
X176124047Y-72414523D01*
X176028809Y-72509761D01*
X175885952Y-72557380D01*
X175790714Y-72557380D01*
X177171666Y-72557380D02*
X176600238Y-72557380D01*
X176885952Y-72557380D02*
X176885952Y-71557380D01*
X176790714Y-71700238D01*
X176695476Y-71795476D01*
X176600238Y-71843095D01*
X149333333Y-121107142D02*
X149285714Y-121154761D01*
X149142857Y-121202380D01*
X149047619Y-121202380D01*
X148904761Y-121154761D01*
X148809523Y-121059523D01*
X148761904Y-120964285D01*
X148714285Y-120773809D01*
X148714285Y-120630952D01*
X148761904Y-120440476D01*
X148809523Y-120345238D01*
X148904761Y-120250000D01*
X149047619Y-120202380D01*
X149142857Y-120202380D01*
X149285714Y-120250000D01*
X149333333Y-120297619D01*
X150190476Y-120535714D02*
X150190476Y-121202380D01*
X149952380Y-120154761D02*
X149714285Y-120869047D01*
X150333333Y-120869047D01*
X135857142Y-112607142D02*
X135809523Y-112654761D01*
X135666666Y-112702380D01*
X135571428Y-112702380D01*
X135428571Y-112654761D01*
X135333333Y-112559523D01*
X135285714Y-112464285D01*
X135238095Y-112273809D01*
X135238095Y-112130952D01*
X135285714Y-111940476D01*
X135333333Y-111845238D01*
X135428571Y-111750000D01*
X135571428Y-111702380D01*
X135666666Y-111702380D01*
X135809523Y-111750000D01*
X135857142Y-111797619D01*
X136809523Y-112702380D02*
X136238095Y-112702380D01*
X136523809Y-112702380D02*
X136523809Y-111702380D01*
X136428571Y-111845238D01*
X136333333Y-111940476D01*
X136238095Y-111988095D01*
X137142857Y-111702380D02*
X137761904Y-111702380D01*
X137428571Y-112083333D01*
X137571428Y-112083333D01*
X137666666Y-112130952D01*
X137714285Y-112178571D01*
X137761904Y-112273809D01*
X137761904Y-112511904D01*
X137714285Y-112607142D01*
X137666666Y-112654761D01*
X137571428Y-112702380D01*
X137285714Y-112702380D01*
X137190476Y-112654761D01*
X137142857Y-112607142D01*
X141107142Y-132666666D02*
X141154761Y-132714285D01*
X141202380Y-132857142D01*
X141202380Y-132952380D01*
X141154761Y-133095238D01*
X141059523Y-133190476D01*
X140964285Y-133238095D01*
X140773809Y-133285714D01*
X140630952Y-133285714D01*
X140440476Y-133238095D01*
X140345238Y-133190476D01*
X140250000Y-133095238D01*
X140202380Y-132952380D01*
X140202380Y-132857142D01*
X140250000Y-132714285D01*
X140297619Y-132666666D01*
X140202380Y-131761904D02*
X140202380Y-132238095D01*
X140678571Y-132285714D01*
X140630952Y-132238095D01*
X140583333Y-132142857D01*
X140583333Y-131904761D01*
X140630952Y-131809523D01*
X140678571Y-131761904D01*
X140773809Y-131714285D01*
X141011904Y-131714285D01*
X141107142Y-131761904D01*
X141154761Y-131809523D01*
X141202380Y-131904761D01*
X141202380Y-132142857D01*
X141154761Y-132238095D01*
X141107142Y-132285714D01*
X138232142Y-62357142D02*
X138184523Y-62404761D01*
X138041666Y-62452380D01*
X137946428Y-62452380D01*
X137803571Y-62404761D01*
X137708333Y-62309523D01*
X137660714Y-62214285D01*
X137613095Y-62023809D01*
X137613095Y-61880952D01*
X137660714Y-61690476D01*
X137708333Y-61595238D01*
X137803571Y-61500000D01*
X137946428Y-61452380D01*
X138041666Y-61452380D01*
X138184523Y-61500000D01*
X138232142Y-61547619D01*
X139184523Y-62452380D02*
X138613095Y-62452380D01*
X138898809Y-62452380D02*
X138898809Y-61452380D01*
X138803571Y-61595238D01*
X138708333Y-61690476D01*
X138613095Y-61738095D01*
X139755952Y-61880952D02*
X139660714Y-61833333D01*
X139613095Y-61785714D01*
X139565476Y-61690476D01*
X139565476Y-61642857D01*
X139613095Y-61547619D01*
X139660714Y-61500000D01*
X139755952Y-61452380D01*
X139946428Y-61452380D01*
X140041666Y-61500000D01*
X140089285Y-61547619D01*
X140136904Y-61642857D01*
X140136904Y-61690476D01*
X140089285Y-61785714D01*
X140041666Y-61833333D01*
X139946428Y-61880952D01*
X139755952Y-61880952D01*
X139660714Y-61928571D01*
X139613095Y-61976190D01*
X139565476Y-62071428D01*
X139565476Y-62261904D01*
X139613095Y-62357142D01*
X139660714Y-62404761D01*
X139755952Y-62452380D01*
X139946428Y-62452380D01*
X140041666Y-62404761D01*
X140089285Y-62357142D01*
X140136904Y-62261904D01*
X140136904Y-62071428D01*
X140089285Y-61976190D01*
X140041666Y-61928571D01*
X139946428Y-61880952D01*
X152763809Y-75701190D02*
X152763809Y-76177380D01*
X152430476Y-75177380D02*
X152763809Y-75701190D01*
X153097142Y-75177380D01*
X153954285Y-76177380D02*
X153382857Y-76177380D01*
X153668571Y-76177380D02*
X153668571Y-75177380D01*
X153573333Y-75320238D01*
X153478095Y-75415476D01*
X153382857Y-75463095D01*
X167602380Y-129786666D02*
X167126190Y-130120000D01*
X167602380Y-130358095D02*
X166602380Y-130358095D01*
X166602380Y-129977142D01*
X166650000Y-129881904D01*
X166697619Y-129834285D01*
X166792857Y-129786666D01*
X166935714Y-129786666D01*
X167030952Y-129834285D01*
X167078571Y-129881904D01*
X167126190Y-129977142D01*
X167126190Y-130358095D01*
X167602380Y-128834285D02*
X167602380Y-129405714D01*
X167602380Y-129120000D02*
X166602380Y-129120000D01*
X166745238Y-129215238D01*
X166840476Y-129310476D01*
X166888095Y-129405714D01*
X150607142Y-85107142D02*
X150559523Y-85154761D01*
X150416666Y-85202380D01*
X150321428Y-85202380D01*
X150178571Y-85154761D01*
X150083333Y-85059523D01*
X150035714Y-84964285D01*
X149988095Y-84773809D01*
X149988095Y-84630952D01*
X150035714Y-84440476D01*
X150083333Y-84345238D01*
X150178571Y-84250000D01*
X150321428Y-84202380D01*
X150416666Y-84202380D01*
X150559523Y-84250000D01*
X150607142Y-84297619D01*
X151559523Y-85202380D02*
X150988095Y-85202380D01*
X151273809Y-85202380D02*
X151273809Y-84202380D01*
X151178571Y-84345238D01*
X151083333Y-84440476D01*
X150988095Y-84488095D01*
X152178571Y-84202380D02*
X152273809Y-84202380D01*
X152369047Y-84250000D01*
X152416666Y-84297619D01*
X152464285Y-84392857D01*
X152511904Y-84583333D01*
X152511904Y-84821428D01*
X152464285Y-85011904D01*
X152416666Y-85107142D01*
X152369047Y-85154761D01*
X152273809Y-85202380D01*
X152178571Y-85202380D01*
X152083333Y-85154761D01*
X152035714Y-85107142D01*
X151988095Y-85011904D01*
X151940476Y-84821428D01*
X151940476Y-84583333D01*
X151988095Y-84392857D01*
X152035714Y-84297619D01*
X152083333Y-84250000D01*
X152178571Y-84202380D01*
X143833333Y-123102380D02*
X143500000Y-122626190D01*
X143261904Y-123102380D02*
X143261904Y-122102380D01*
X143642857Y-122102380D01*
X143738095Y-122150000D01*
X143785714Y-122197619D01*
X143833333Y-122292857D01*
X143833333Y-122435714D01*
X143785714Y-122530952D01*
X143738095Y-122578571D01*
X143642857Y-122626190D01*
X143261904Y-122626190D01*
X144738095Y-122102380D02*
X144261904Y-122102380D01*
X144214285Y-122578571D01*
X144261904Y-122530952D01*
X144357142Y-122483333D01*
X144595238Y-122483333D01*
X144690476Y-122530952D01*
X144738095Y-122578571D01*
X144785714Y-122673809D01*
X144785714Y-122911904D01*
X144738095Y-123007142D01*
X144690476Y-123054761D01*
X144595238Y-123102380D01*
X144357142Y-123102380D01*
X144261904Y-123054761D01*
X144214285Y-123007142D01*
X134507142Y-132666666D02*
X134554761Y-132714285D01*
X134602380Y-132857142D01*
X134602380Y-132952380D01*
X134554761Y-133095238D01*
X134459523Y-133190476D01*
X134364285Y-133238095D01*
X134173809Y-133285714D01*
X134030952Y-133285714D01*
X133840476Y-133238095D01*
X133745238Y-133190476D01*
X133650000Y-133095238D01*
X133602380Y-132952380D01*
X133602380Y-132857142D01*
X133650000Y-132714285D01*
X133697619Y-132666666D01*
X133602380Y-131809523D02*
X133602380Y-132000000D01*
X133650000Y-132095238D01*
X133697619Y-132142857D01*
X133840476Y-132238095D01*
X134030952Y-132285714D01*
X134411904Y-132285714D01*
X134507142Y-132238095D01*
X134554761Y-132190476D01*
X134602380Y-132095238D01*
X134602380Y-131904761D01*
X134554761Y-131809523D01*
X134507142Y-131761904D01*
X134411904Y-131714285D01*
X134173809Y-131714285D01*
X134078571Y-131761904D01*
X134030952Y-131809523D01*
X133983333Y-131904761D01*
X133983333Y-132095238D01*
X134030952Y-132190476D01*
X134078571Y-132238095D01*
X134173809Y-132285714D01*
X133857142Y-74302380D02*
X133523809Y-73826190D01*
X133285714Y-74302380D02*
X133285714Y-73302380D01*
X133666666Y-73302380D01*
X133761904Y-73350000D01*
X133809523Y-73397619D01*
X133857142Y-73492857D01*
X133857142Y-73635714D01*
X133809523Y-73730952D01*
X133761904Y-73778571D01*
X133666666Y-73826190D01*
X133285714Y-73826190D01*
X134809523Y-74302380D02*
X134238095Y-74302380D01*
X134523809Y-74302380D02*
X134523809Y-73302380D01*
X134428571Y-73445238D01*
X134333333Y-73540476D01*
X134238095Y-73588095D01*
X135428571Y-73302380D02*
X135523809Y-73302380D01*
X135619047Y-73350000D01*
X135666666Y-73397619D01*
X135714285Y-73492857D01*
X135761904Y-73683333D01*
X135761904Y-73921428D01*
X135714285Y-74111904D01*
X135666666Y-74207142D01*
X135619047Y-74254761D01*
X135523809Y-74302380D01*
X135428571Y-74302380D01*
X135333333Y-74254761D01*
X135285714Y-74207142D01*
X135238095Y-74111904D01*
X135190476Y-73921428D01*
X135190476Y-73683333D01*
X135238095Y-73492857D01*
X135285714Y-73397619D01*
X135333333Y-73350000D01*
X135428571Y-73302380D01*
X143166666Y-65952380D02*
X143166666Y-66666666D01*
X143119047Y-66809523D01*
X143023809Y-66904761D01*
X142880952Y-66952380D01*
X142785714Y-66952380D01*
X144119047Y-65952380D02*
X143642857Y-65952380D01*
X143595238Y-66428571D01*
X143642857Y-66380952D01*
X143738095Y-66333333D01*
X143976190Y-66333333D01*
X144071428Y-66380952D01*
X144119047Y-66428571D01*
X144166666Y-66523809D01*
X144166666Y-66761904D01*
X144119047Y-66857142D01*
X144071428Y-66904761D01*
X143976190Y-66952380D01*
X143738095Y-66952380D01*
X143642857Y-66904761D01*
X143595238Y-66857142D01*
X154452380Y-120916666D02*
X153976190Y-121250000D01*
X154452380Y-121488095D02*
X153452380Y-121488095D01*
X153452380Y-121107142D01*
X153500000Y-121011904D01*
X153547619Y-120964285D01*
X153642857Y-120916666D01*
X153785714Y-120916666D01*
X153880952Y-120964285D01*
X153928571Y-121011904D01*
X153976190Y-121107142D01*
X153976190Y-121488095D01*
X153785714Y-120059523D02*
X154452380Y-120059523D01*
X153404761Y-120297619D02*
X154119047Y-120535714D01*
X154119047Y-119916666D01*
X147666666Y-65952380D02*
X147666666Y-66666666D01*
X147619047Y-66809523D01*
X147523809Y-66904761D01*
X147380952Y-66952380D01*
X147285714Y-66952380D01*
X148571428Y-66285714D02*
X148571428Y-66952380D01*
X148333333Y-65904761D02*
X148095238Y-66619047D01*
X148714285Y-66619047D01*
X129107142Y-111107142D02*
X129059523Y-111154761D01*
X128916666Y-111202380D01*
X128821428Y-111202380D01*
X128678571Y-111154761D01*
X128583333Y-111059523D01*
X128535714Y-110964285D01*
X128488095Y-110773809D01*
X128488095Y-110630952D01*
X128535714Y-110440476D01*
X128583333Y-110345238D01*
X128678571Y-110250000D01*
X128821428Y-110202380D01*
X128916666Y-110202380D01*
X129059523Y-110250000D01*
X129107142Y-110297619D01*
X129488095Y-110297619D02*
X129535714Y-110250000D01*
X129630952Y-110202380D01*
X129869047Y-110202380D01*
X129964285Y-110250000D01*
X130011904Y-110297619D01*
X130059523Y-110392857D01*
X130059523Y-110488095D01*
X130011904Y-110630952D01*
X129440476Y-111202380D01*
X130059523Y-111202380D01*
X130678571Y-110202380D02*
X130773809Y-110202380D01*
X130869047Y-110250000D01*
X130916666Y-110297619D01*
X130964285Y-110392857D01*
X131011904Y-110583333D01*
X131011904Y-110821428D01*
X130964285Y-111011904D01*
X130916666Y-111107142D01*
X130869047Y-111154761D01*
X130773809Y-111202380D01*
X130678571Y-111202380D01*
X130583333Y-111154761D01*
X130535714Y-111107142D01*
X130488095Y-111011904D01*
X130440476Y-110821428D01*
X130440476Y-110583333D01*
X130488095Y-110392857D01*
X130535714Y-110297619D01*
X130583333Y-110250000D01*
X130678571Y-110202380D01*
X158412142Y-73142857D02*
X158459761Y-73190476D01*
X158507380Y-73333333D01*
X158507380Y-73428571D01*
X158459761Y-73571428D01*
X158364523Y-73666666D01*
X158269285Y-73714285D01*
X158078809Y-73761904D01*
X157935952Y-73761904D01*
X157745476Y-73714285D01*
X157650238Y-73666666D01*
X157555000Y-73571428D01*
X157507380Y-73428571D01*
X157507380Y-73333333D01*
X157555000Y-73190476D01*
X157602619Y-73142857D01*
X158507380Y-72190476D02*
X158507380Y-72761904D01*
X158507380Y-72476190D02*
X157507380Y-72476190D01*
X157650238Y-72571428D01*
X157745476Y-72666666D01*
X157793095Y-72761904D01*
X157507380Y-71857142D02*
X157507380Y-71190476D01*
X158507380Y-71619047D01*
X141677142Y-93892857D02*
X141724761Y-93940476D01*
X141772380Y-94083333D01*
X141772380Y-94178571D01*
X141724761Y-94321428D01*
X141629523Y-94416666D01*
X141534285Y-94464285D01*
X141343809Y-94511904D01*
X141200952Y-94511904D01*
X141010476Y-94464285D01*
X140915238Y-94416666D01*
X140820000Y-94321428D01*
X140772380Y-94178571D01*
X140772380Y-94083333D01*
X140820000Y-93940476D01*
X140867619Y-93892857D01*
X140867619Y-93511904D02*
X140820000Y-93464285D01*
X140772380Y-93369047D01*
X140772380Y-93130952D01*
X140820000Y-93035714D01*
X140867619Y-92988095D01*
X140962857Y-92940476D01*
X141058095Y-92940476D01*
X141200952Y-92988095D01*
X141772380Y-93559523D01*
X141772380Y-92940476D01*
X140772380Y-92035714D02*
X140772380Y-92511904D01*
X141248571Y-92559523D01*
X141200952Y-92511904D01*
X141153333Y-92416666D01*
X141153333Y-92178571D01*
X141200952Y-92083333D01*
X141248571Y-92035714D01*
X141343809Y-91988095D01*
X141581904Y-91988095D01*
X141677142Y-92035714D01*
X141724761Y-92083333D01*
X141772380Y-92178571D01*
X141772380Y-92416666D01*
X141724761Y-92511904D01*
X141677142Y-92559523D01*
X129238095Y-120802380D02*
X129238095Y-121611904D01*
X129285714Y-121707142D01*
X129333333Y-121754761D01*
X129428571Y-121802380D01*
X129619047Y-121802380D01*
X129714285Y-121754761D01*
X129761904Y-121707142D01*
X129809523Y-121611904D01*
X129809523Y-120802380D01*
X130190476Y-120802380D02*
X130857142Y-120802380D01*
X130428571Y-121802380D01*
X143107142Y-68107142D02*
X143059523Y-68154761D01*
X142916666Y-68202380D01*
X142821428Y-68202380D01*
X142678571Y-68154761D01*
X142583333Y-68059523D01*
X142535714Y-67964285D01*
X142488095Y-67773809D01*
X142488095Y-67630952D01*
X142535714Y-67440476D01*
X142583333Y-67345238D01*
X142678571Y-67250000D01*
X142821428Y-67202380D01*
X142916666Y-67202380D01*
X143059523Y-67250000D01*
X143107142Y-67297619D01*
X143488095Y-67297619D02*
X143535714Y-67250000D01*
X143630952Y-67202380D01*
X143869047Y-67202380D01*
X143964285Y-67250000D01*
X144011904Y-67297619D01*
X144059523Y-67392857D01*
X144059523Y-67488095D01*
X144011904Y-67630952D01*
X143440476Y-68202380D01*
X144059523Y-68202380D01*
X144392857Y-67202380D02*
X145011904Y-67202380D01*
X144678571Y-67583333D01*
X144821428Y-67583333D01*
X144916666Y-67630952D01*
X144964285Y-67678571D01*
X145011904Y-67773809D01*
X145011904Y-68011904D01*
X144964285Y-68107142D01*
X144916666Y-68154761D01*
X144821428Y-68202380D01*
X144535714Y-68202380D01*
X144440476Y-68154761D01*
X144392857Y-68107142D01*
X124552380Y-107961904D02*
X125361904Y-107961904D01*
X125457142Y-107914285D01*
X125504761Y-107866666D01*
X125552380Y-107771428D01*
X125552380Y-107580952D01*
X125504761Y-107485714D01*
X125457142Y-107438095D01*
X125361904Y-107390476D01*
X124552380Y-107390476D01*
X124552380Y-106438095D02*
X124552380Y-106914285D01*
X125028571Y-106961904D01*
X124980952Y-106914285D01*
X124933333Y-106819047D01*
X124933333Y-106580952D01*
X124980952Y-106485714D01*
X125028571Y-106438095D01*
X125123809Y-106390476D01*
X125361904Y-106390476D01*
X125457142Y-106438095D01*
X125504761Y-106485714D01*
X125552380Y-106580952D01*
X125552380Y-106819047D01*
X125504761Y-106914285D01*
X125457142Y-106961904D01*
X168607142Y-71952380D02*
X168273809Y-71476190D01*
X168035714Y-71952380D02*
X168035714Y-70952380D01*
X168416666Y-70952380D01*
X168511904Y-71000000D01*
X168559523Y-71047619D01*
X168607142Y-71142857D01*
X168607142Y-71285714D01*
X168559523Y-71380952D01*
X168511904Y-71428571D01*
X168416666Y-71476190D01*
X168035714Y-71476190D01*
X169559523Y-71952380D02*
X168988095Y-71952380D01*
X169273809Y-71952380D02*
X169273809Y-70952380D01*
X169178571Y-71095238D01*
X169083333Y-71190476D01*
X168988095Y-71238095D01*
X169940476Y-71047619D02*
X169988095Y-71000000D01*
X170083333Y-70952380D01*
X170321428Y-70952380D01*
X170416666Y-71000000D01*
X170464285Y-71047619D01*
X170511904Y-71142857D01*
X170511904Y-71238095D01*
X170464285Y-71380952D01*
X169892857Y-71952380D01*
X170511904Y-71952380D01*
X153602380Y-60642857D02*
X153126190Y-60976190D01*
X153602380Y-61214285D02*
X152602380Y-61214285D01*
X152602380Y-60833333D01*
X152650000Y-60738095D01*
X152697619Y-60690476D01*
X152792857Y-60642857D01*
X152935714Y-60642857D01*
X153030952Y-60690476D01*
X153078571Y-60738095D01*
X153126190Y-60833333D01*
X153126190Y-61214285D01*
X153602380Y-59690476D02*
X153602380Y-60261904D01*
X153602380Y-59976190D02*
X152602380Y-59976190D01*
X152745238Y-60071428D01*
X152840476Y-60166666D01*
X152888095Y-60261904D01*
X153602380Y-58738095D02*
X153602380Y-59309523D01*
X153602380Y-59023809D02*
X152602380Y-59023809D01*
X152745238Y-59119047D01*
X152840476Y-59214285D01*
X152888095Y-59309523D01*
X154607142Y-85107142D02*
X154559523Y-85154761D01*
X154416666Y-85202380D01*
X154321428Y-85202380D01*
X154178571Y-85154761D01*
X154083333Y-85059523D01*
X154035714Y-84964285D01*
X153988095Y-84773809D01*
X153988095Y-84630952D01*
X154035714Y-84440476D01*
X154083333Y-84345238D01*
X154178571Y-84250000D01*
X154321428Y-84202380D01*
X154416666Y-84202380D01*
X154559523Y-84250000D01*
X154607142Y-84297619D01*
X155559523Y-85202380D02*
X154988095Y-85202380D01*
X155273809Y-85202380D02*
X155273809Y-84202380D01*
X155178571Y-84345238D01*
X155083333Y-84440476D01*
X154988095Y-84488095D01*
X156511904Y-85202380D02*
X155940476Y-85202380D01*
X156226190Y-85202380D02*
X156226190Y-84202380D01*
X156130952Y-84345238D01*
X156035714Y-84440476D01*
X155940476Y-84488095D01*
X131597380Y-98833333D02*
X132311666Y-98833333D01*
X132454523Y-98880952D01*
X132549761Y-98976190D01*
X132597380Y-99119047D01*
X132597380Y-99214285D01*
X131692619Y-98404761D02*
X131645000Y-98357142D01*
X131597380Y-98261904D01*
X131597380Y-98023809D01*
X131645000Y-97928571D01*
X131692619Y-97880952D01*
X131787857Y-97833333D01*
X131883095Y-97833333D01*
X132025952Y-97880952D01*
X132597380Y-98452380D01*
X132597380Y-97833333D01*
X134607142Y-126666666D02*
X134654761Y-126714285D01*
X134702380Y-126857142D01*
X134702380Y-126952380D01*
X134654761Y-127095238D01*
X134559523Y-127190476D01*
X134464285Y-127238095D01*
X134273809Y-127285714D01*
X134130952Y-127285714D01*
X133940476Y-127238095D01*
X133845238Y-127190476D01*
X133750000Y-127095238D01*
X133702380Y-126952380D01*
X133702380Y-126857142D01*
X133750000Y-126714285D01*
X133797619Y-126666666D01*
X134130952Y-126095238D02*
X134083333Y-126190476D01*
X134035714Y-126238095D01*
X133940476Y-126285714D01*
X133892857Y-126285714D01*
X133797619Y-126238095D01*
X133750000Y-126190476D01*
X133702380Y-126095238D01*
X133702380Y-125904761D01*
X133750000Y-125809523D01*
X133797619Y-125761904D01*
X133892857Y-125714285D01*
X133940476Y-125714285D01*
X134035714Y-125761904D01*
X134083333Y-125809523D01*
X134130952Y-125904761D01*
X134130952Y-126095238D01*
X134178571Y-126190476D01*
X134226190Y-126238095D01*
X134321428Y-126285714D01*
X134511904Y-126285714D01*
X134607142Y-126238095D01*
X134654761Y-126190476D01*
X134702380Y-126095238D01*
X134702380Y-125904761D01*
X134654761Y-125809523D01*
X134607142Y-125761904D01*
X134511904Y-125714285D01*
X134321428Y-125714285D01*
X134226190Y-125761904D01*
X134178571Y-125809523D01*
X134130952Y-125904761D01*
X155007142Y-68642857D02*
X155054761Y-68690476D01*
X155102380Y-68833333D01*
X155102380Y-68928571D01*
X155054761Y-69071428D01*
X154959523Y-69166666D01*
X154864285Y-69214285D01*
X154673809Y-69261904D01*
X154530952Y-69261904D01*
X154340476Y-69214285D01*
X154245238Y-69166666D01*
X154150000Y-69071428D01*
X154102380Y-68928571D01*
X154102380Y-68833333D01*
X154150000Y-68690476D01*
X154197619Y-68642857D01*
X155102380Y-67690476D02*
X155102380Y-68261904D01*
X155102380Y-67976190D02*
X154102380Y-67976190D01*
X154245238Y-68071428D01*
X154340476Y-68166666D01*
X154388095Y-68261904D01*
X154102380Y-66833333D02*
X154102380Y-67023809D01*
X154150000Y-67119047D01*
X154197619Y-67166666D01*
X154340476Y-67261904D01*
X154530952Y-67309523D01*
X154911904Y-67309523D01*
X155007142Y-67261904D01*
X155054761Y-67214285D01*
X155102380Y-67119047D01*
X155102380Y-66928571D01*
X155054761Y-66833333D01*
X155007142Y-66785714D01*
X154911904Y-66738095D01*
X154673809Y-66738095D01*
X154578571Y-66785714D01*
X154530952Y-66833333D01*
X154483333Y-66928571D01*
X154483333Y-67119047D01*
X154530952Y-67214285D01*
X154578571Y-67261904D01*
X154673809Y-67309523D01*
X149238095Y-92102380D02*
X149238095Y-92911904D01*
X149285714Y-93007142D01*
X149333333Y-93054761D01*
X149428571Y-93102380D01*
X149619047Y-93102380D01*
X149714285Y-93054761D01*
X149761904Y-93007142D01*
X149809523Y-92911904D01*
X149809523Y-92102380D01*
X150809523Y-93102380D02*
X150238095Y-93102380D01*
X150523809Y-93102380D02*
X150523809Y-92102380D01*
X150428571Y-92245238D01*
X150333333Y-92340476D01*
X150238095Y-92388095D01*
X131883333Y-128177142D02*
X131835714Y-128224761D01*
X131692857Y-128272380D01*
X131597619Y-128272380D01*
X131454761Y-128224761D01*
X131359523Y-128129523D01*
X131311904Y-128034285D01*
X131264285Y-127843809D01*
X131264285Y-127700952D01*
X131311904Y-127510476D01*
X131359523Y-127415238D01*
X131454761Y-127320000D01*
X131597619Y-127272380D01*
X131692857Y-127272380D01*
X131835714Y-127320000D01*
X131883333Y-127367619D01*
X132359523Y-128272380D02*
X132550000Y-128272380D01*
X132645238Y-128224761D01*
X132692857Y-128177142D01*
X132788095Y-128034285D01*
X132835714Y-127843809D01*
X132835714Y-127462857D01*
X132788095Y-127367619D01*
X132740476Y-127320000D01*
X132645238Y-127272380D01*
X132454761Y-127272380D01*
X132359523Y-127320000D01*
X132311904Y-127367619D01*
X132264285Y-127462857D01*
X132264285Y-127700952D01*
X132311904Y-127796190D01*
X132359523Y-127843809D01*
X132454761Y-127891428D01*
X132645238Y-127891428D01*
X132740476Y-127843809D01*
X132788095Y-127796190D01*
X132835714Y-127700952D01*
X126607142Y-128602380D02*
X126273809Y-128126190D01*
X126035714Y-128602380D02*
X126035714Y-127602380D01*
X126416666Y-127602380D01*
X126511904Y-127650000D01*
X126559523Y-127697619D01*
X126607142Y-127792857D01*
X126607142Y-127935714D01*
X126559523Y-128030952D01*
X126511904Y-128078571D01*
X126416666Y-128126190D01*
X126035714Y-128126190D01*
X127559523Y-128602380D02*
X126988095Y-128602380D01*
X127273809Y-128602380D02*
X127273809Y-127602380D01*
X127178571Y-127745238D01*
X127083333Y-127840476D01*
X126988095Y-127888095D01*
X128416666Y-127602380D02*
X128226190Y-127602380D01*
X128130952Y-127650000D01*
X128083333Y-127697619D01*
X127988095Y-127840476D01*
X127940476Y-128030952D01*
X127940476Y-128411904D01*
X127988095Y-128507142D01*
X128035714Y-128554761D01*
X128130952Y-128602380D01*
X128321428Y-128602380D01*
X128416666Y-128554761D01*
X128464285Y-128507142D01*
X128511904Y-128411904D01*
X128511904Y-128173809D01*
X128464285Y-128078571D01*
X128416666Y-128030952D01*
X128321428Y-127983333D01*
X128130952Y-127983333D01*
X128035714Y-128030952D01*
X127988095Y-128078571D01*
X127940476Y-128173809D01*
X166238095Y-65702380D02*
X166238095Y-66511904D01*
X166285714Y-66607142D01*
X166333333Y-66654761D01*
X166428571Y-66702380D01*
X166619047Y-66702380D01*
X166714285Y-66654761D01*
X166761904Y-66607142D01*
X166809523Y-66511904D01*
X166809523Y-65702380D01*
X167714285Y-66035714D02*
X167714285Y-66702380D01*
X167476190Y-65654761D02*
X167238095Y-66369047D01*
X167857142Y-66369047D01*
X139857142Y-112537142D02*
X139809523Y-112584761D01*
X139666666Y-112632380D01*
X139571428Y-112632380D01*
X139428571Y-112584761D01*
X139333333Y-112489523D01*
X139285714Y-112394285D01*
X139238095Y-112203809D01*
X139238095Y-112060952D01*
X139285714Y-111870476D01*
X139333333Y-111775238D01*
X139428571Y-111680000D01*
X139571428Y-111632380D01*
X139666666Y-111632380D01*
X139809523Y-111680000D01*
X139857142Y-111727619D01*
X140809523Y-112632380D02*
X140238095Y-112632380D01*
X140523809Y-112632380D02*
X140523809Y-111632380D01*
X140428571Y-111775238D01*
X140333333Y-111870476D01*
X140238095Y-111918095D01*
X141666666Y-111965714D02*
X141666666Y-112632380D01*
X141428571Y-111584761D02*
X141190476Y-112299047D01*
X141809523Y-112299047D01*
X132537142Y-107642857D02*
X132584761Y-107690476D01*
X132632380Y-107833333D01*
X132632380Y-107928571D01*
X132584761Y-108071428D01*
X132489523Y-108166666D01*
X132394285Y-108214285D01*
X132203809Y-108261904D01*
X132060952Y-108261904D01*
X131870476Y-108214285D01*
X131775238Y-108166666D01*
X131680000Y-108071428D01*
X131632380Y-107928571D01*
X131632380Y-107833333D01*
X131680000Y-107690476D01*
X131727619Y-107642857D01*
X132632380Y-106690476D02*
X132632380Y-107261904D01*
X132632380Y-106976190D02*
X131632380Y-106976190D01*
X131775238Y-107071428D01*
X131870476Y-107166666D01*
X131918095Y-107261904D01*
X132632380Y-106214285D02*
X132632380Y-106023809D01*
X132584761Y-105928571D01*
X132537142Y-105880952D01*
X132394285Y-105785714D01*
X132203809Y-105738095D01*
X131822857Y-105738095D01*
X131727619Y-105785714D01*
X131680000Y-105833333D01*
X131632380Y-105928571D01*
X131632380Y-106119047D01*
X131680000Y-106214285D01*
X131727619Y-106261904D01*
X131822857Y-106309523D01*
X132060952Y-106309523D01*
X132156190Y-106261904D01*
X132203809Y-106214285D01*
X132251428Y-106119047D01*
X132251428Y-105928571D01*
X132203809Y-105833333D01*
X132156190Y-105785714D01*
X132060952Y-105738095D01*
X159583333Y-127352380D02*
X159250000Y-126876190D01*
X159011904Y-127352380D02*
X159011904Y-126352380D01*
X159392857Y-126352380D01*
X159488095Y-126400000D01*
X159535714Y-126447619D01*
X159583333Y-126542857D01*
X159583333Y-126685714D01*
X159535714Y-126780952D01*
X159488095Y-126828571D01*
X159392857Y-126876190D01*
X159011904Y-126876190D01*
X160440476Y-126352380D02*
X160250000Y-126352380D01*
X160154761Y-126400000D01*
X160107142Y-126447619D01*
X160011904Y-126590476D01*
X159964285Y-126780952D01*
X159964285Y-127161904D01*
X160011904Y-127257142D01*
X160059523Y-127304761D01*
X160154761Y-127352380D01*
X160345238Y-127352380D01*
X160440476Y-127304761D01*
X160488095Y-127257142D01*
X160535714Y-127161904D01*
X160535714Y-126923809D01*
X160488095Y-126828571D01*
X160440476Y-126780952D01*
X160345238Y-126733333D01*
X160154761Y-126733333D01*
X160059523Y-126780952D01*
X160011904Y-126828571D01*
X159964285Y-126923809D01*
X168488095Y-57952380D02*
X168488095Y-56952380D01*
X168488095Y-57428571D02*
X169059523Y-57428571D01*
X169059523Y-57952380D02*
X169059523Y-56952380D01*
X169488095Y-57047619D02*
X169535714Y-57000000D01*
X169630952Y-56952380D01*
X169869047Y-56952380D01*
X169964285Y-57000000D01*
X170011904Y-57047619D01*
X170059523Y-57142857D01*
X170059523Y-57238095D01*
X170011904Y-57380952D01*
X169440476Y-57952380D01*
X170059523Y-57952380D01*
X167602380Y-126166666D02*
X167126190Y-126500000D01*
X167602380Y-126738095D02*
X166602380Y-126738095D01*
X166602380Y-126357142D01*
X166650000Y-126261904D01*
X166697619Y-126214285D01*
X166792857Y-126166666D01*
X166935714Y-126166666D01*
X167030952Y-126214285D01*
X167078571Y-126261904D01*
X167126190Y-126357142D01*
X167126190Y-126738095D01*
X166697619Y-125785714D02*
X166650000Y-125738095D01*
X166602380Y-125642857D01*
X166602380Y-125404761D01*
X166650000Y-125309523D01*
X166697619Y-125261904D01*
X166792857Y-125214285D01*
X166888095Y-125214285D01*
X167030952Y-125261904D01*
X167602380Y-125833333D01*
X167602380Y-125214285D01*
X134023809Y-103226190D02*
X134023809Y-103702380D01*
X133690476Y-102702380D02*
X134023809Y-103226190D01*
X134357142Y-102702380D01*
X134642857Y-102797619D02*
X134690476Y-102750000D01*
X134785714Y-102702380D01*
X135023809Y-102702380D01*
X135119047Y-102750000D01*
X135166666Y-102797619D01*
X135214285Y-102892857D01*
X135214285Y-102988095D01*
X135166666Y-103130952D01*
X134595238Y-103702380D01*
X135214285Y-103702380D01*
X154857142Y-129916666D02*
X154904761Y-129964285D01*
X154952380Y-130107142D01*
X154952380Y-130202380D01*
X154904761Y-130345238D01*
X154809523Y-130440476D01*
X154714285Y-130488095D01*
X154523809Y-130535714D01*
X154380952Y-130535714D01*
X154190476Y-130488095D01*
X154095238Y-130440476D01*
X154000000Y-130345238D01*
X153952380Y-130202380D01*
X153952380Y-130107142D01*
X154000000Y-129964285D01*
X154047619Y-129916666D01*
X154047619Y-129535714D02*
X154000000Y-129488095D01*
X153952380Y-129392857D01*
X153952380Y-129154761D01*
X154000000Y-129059523D01*
X154047619Y-129011904D01*
X154142857Y-128964285D01*
X154238095Y-128964285D01*
X154380952Y-129011904D01*
X154952380Y-129583333D01*
X154952380Y-128964285D01*
X172738095Y-133252380D02*
X172738095Y-132252380D01*
X172738095Y-132728571D02*
X173309523Y-132728571D01*
X173309523Y-133252380D02*
X173309523Y-132252380D01*
X174214285Y-132585714D02*
X174214285Y-133252380D01*
X173976190Y-132204761D02*
X173738095Y-132919047D01*
X174357142Y-132919047D01*
X131107142Y-113702380D02*
X130773809Y-113226190D01*
X130535714Y-113702380D02*
X130535714Y-112702380D01*
X130916666Y-112702380D01*
X131011904Y-112750000D01*
X131059523Y-112797619D01*
X131107142Y-112892857D01*
X131107142Y-113035714D01*
X131059523Y-113130952D01*
X131011904Y-113178571D01*
X130916666Y-113226190D01*
X130535714Y-113226190D01*
X132059523Y-113702380D02*
X131488095Y-113702380D01*
X131773809Y-113702380D02*
X131773809Y-112702380D01*
X131678571Y-112845238D01*
X131583333Y-112940476D01*
X131488095Y-112988095D01*
X132916666Y-113035714D02*
X132916666Y-113702380D01*
X132678571Y-112654761D02*
X132440476Y-113369047D01*
X133059523Y-113369047D01*
X137552380Y-73261904D02*
X138361904Y-73261904D01*
X138457142Y-73214285D01*
X138504761Y-73166666D01*
X138552380Y-73071428D01*
X138552380Y-72880952D01*
X138504761Y-72785714D01*
X138457142Y-72738095D01*
X138361904Y-72690476D01*
X137552380Y-72690476D01*
X137552380Y-72309523D02*
X137552380Y-71690476D01*
X137933333Y-72023809D01*
X137933333Y-71880952D01*
X137980952Y-71785714D01*
X138028571Y-71738095D01*
X138123809Y-71690476D01*
X138361904Y-71690476D01*
X138457142Y-71738095D01*
X138504761Y-71785714D01*
X138552380Y-71880952D01*
X138552380Y-72166666D01*
X138504761Y-72261904D01*
X138457142Y-72309523D01*
X158738095Y-133852380D02*
X158738095Y-134661904D01*
X158785714Y-134757142D01*
X158833333Y-134804761D01*
X158928571Y-134852380D01*
X159119047Y-134852380D01*
X159214285Y-134804761D01*
X159261904Y-134757142D01*
X159309523Y-134661904D01*
X159309523Y-133852380D01*
X159738095Y-133947619D02*
X159785714Y-133900000D01*
X159880952Y-133852380D01*
X160119047Y-133852380D01*
X160214285Y-133900000D01*
X160261904Y-133947619D01*
X160309523Y-134042857D01*
X160309523Y-134138095D01*
X160261904Y-134280952D01*
X159690476Y-134852380D01*
X160309523Y-134852380D01*
X134333333Y-70552380D02*
X134000000Y-70076190D01*
X133761904Y-70552380D02*
X133761904Y-69552380D01*
X134142857Y-69552380D01*
X134238095Y-69600000D01*
X134285714Y-69647619D01*
X134333333Y-69742857D01*
X134333333Y-69885714D01*
X134285714Y-69980952D01*
X134238095Y-70028571D01*
X134142857Y-70076190D01*
X133761904Y-70076190D01*
X134809523Y-70552380D02*
X135000000Y-70552380D01*
X135095238Y-70504761D01*
X135142857Y-70457142D01*
X135238095Y-70314285D01*
X135285714Y-70123809D01*
X135285714Y-69742857D01*
X135238095Y-69647619D01*
X135190476Y-69600000D01*
X135095238Y-69552380D01*
X134904761Y-69552380D01*
X134809523Y-69600000D01*
X134761904Y-69647619D01*
X134714285Y-69742857D01*
X134714285Y-69980952D01*
X134761904Y-70076190D01*
X134809523Y-70123809D01*
X134904761Y-70171428D01*
X135095238Y-70171428D01*
X135190476Y-70123809D01*
X135238095Y-70076190D01*
X135285714Y-69980952D01*
X146037142Y-78642857D02*
X146084761Y-78690476D01*
X146132380Y-78833333D01*
X146132380Y-78928571D01*
X146084761Y-79071428D01*
X145989523Y-79166666D01*
X145894285Y-79214285D01*
X145703809Y-79261904D01*
X145560952Y-79261904D01*
X145370476Y-79214285D01*
X145275238Y-79166666D01*
X145180000Y-79071428D01*
X145132380Y-78928571D01*
X145132380Y-78833333D01*
X145180000Y-78690476D01*
X145227619Y-78642857D01*
X146132380Y-77690476D02*
X146132380Y-78261904D01*
X146132380Y-77976190D02*
X145132380Y-77976190D01*
X145275238Y-78071428D01*
X145370476Y-78166666D01*
X145418095Y-78261904D01*
X145227619Y-77309523D02*
X145180000Y-77261904D01*
X145132380Y-77166666D01*
X145132380Y-76928571D01*
X145180000Y-76833333D01*
X145227619Y-76785714D01*
X145322857Y-76738095D01*
X145418095Y-76738095D01*
X145560952Y-76785714D01*
X146132380Y-77357142D01*
X146132380Y-76738095D01*
X164238095Y-87804380D02*
X164809523Y-87804380D01*
X164523809Y-88804380D02*
X164523809Y-87804380D01*
X165142857Y-88804380D02*
X165142857Y-87804380D01*
X165523809Y-87804380D01*
X165619047Y-87852000D01*
X165666666Y-87899619D01*
X165714285Y-87994857D01*
X165714285Y-88137714D01*
X165666666Y-88232952D01*
X165619047Y-88280571D01*
X165523809Y-88328190D01*
X165142857Y-88328190D01*
X166095238Y-87899619D02*
X166142857Y-87852000D01*
X166238095Y-87804380D01*
X166476190Y-87804380D01*
X166571428Y-87852000D01*
X166619047Y-87899619D01*
X166666666Y-87994857D01*
X166666666Y-88090095D01*
X166619047Y-88232952D01*
X166047619Y-88804380D01*
X166666666Y-88804380D01*
X134238095Y-66452380D02*
X134238095Y-67261904D01*
X134285714Y-67357142D01*
X134333333Y-67404761D01*
X134428571Y-67452380D01*
X134619047Y-67452380D01*
X134714285Y-67404761D01*
X134761904Y-67357142D01*
X134809523Y-67261904D01*
X134809523Y-66452380D01*
X135714285Y-66452380D02*
X135523809Y-66452380D01*
X135428571Y-66500000D01*
X135380952Y-66547619D01*
X135285714Y-66690476D01*
X135238095Y-66880952D01*
X135238095Y-67261904D01*
X135285714Y-67357142D01*
X135333333Y-67404761D01*
X135428571Y-67452380D01*
X135619047Y-67452380D01*
X135714285Y-67404761D01*
X135761904Y-67357142D01*
X135809523Y-67261904D01*
X135809523Y-67023809D01*
X135761904Y-66928571D01*
X135714285Y-66880952D01*
X135619047Y-66833333D01*
X135428571Y-66833333D01*
X135333333Y-66880952D01*
X135285714Y-66928571D01*
X135238095Y-67023809D01*
X140857142Y-102392857D02*
X140904761Y-102440476D01*
X140952380Y-102583333D01*
X140952380Y-102678571D01*
X140904761Y-102821428D01*
X140809523Y-102916666D01*
X140714285Y-102964285D01*
X140523809Y-103011904D01*
X140380952Y-103011904D01*
X140190476Y-102964285D01*
X140095238Y-102916666D01*
X140000000Y-102821428D01*
X139952380Y-102678571D01*
X139952380Y-102583333D01*
X140000000Y-102440476D01*
X140047619Y-102392857D01*
X140047619Y-102011904D02*
X140000000Y-101964285D01*
X139952380Y-101869047D01*
X139952380Y-101630952D01*
X140000000Y-101535714D01*
X140047619Y-101488095D01*
X140142857Y-101440476D01*
X140238095Y-101440476D01*
X140380952Y-101488095D01*
X140952380Y-102059523D01*
X140952380Y-101440476D01*
X139952380Y-101107142D02*
X139952380Y-100440476D01*
X140952380Y-100869047D01*
X129738095Y-57702380D02*
X129738095Y-56702380D01*
X129738095Y-57178571D02*
X130309523Y-57178571D01*
X130309523Y-57702380D02*
X130309523Y-56702380D01*
X131309523Y-57702380D02*
X130738095Y-57702380D01*
X131023809Y-57702380D02*
X131023809Y-56702380D01*
X130928571Y-56845238D01*
X130833333Y-56940476D01*
X130738095Y-56988095D01*
X160037142Y-93892857D02*
X160084761Y-93940476D01*
X160132380Y-94083333D01*
X160132380Y-94178571D01*
X160084761Y-94321428D01*
X159989523Y-94416666D01*
X159894285Y-94464285D01*
X159703809Y-94511904D01*
X159560952Y-94511904D01*
X159370476Y-94464285D01*
X159275238Y-94416666D01*
X159180000Y-94321428D01*
X159132380Y-94178571D01*
X159132380Y-94083333D01*
X159180000Y-93940476D01*
X159227619Y-93892857D01*
X159227619Y-93511904D02*
X159180000Y-93464285D01*
X159132380Y-93369047D01*
X159132380Y-93130952D01*
X159180000Y-93035714D01*
X159227619Y-92988095D01*
X159322857Y-92940476D01*
X159418095Y-92940476D01*
X159560952Y-92988095D01*
X160132380Y-93559523D01*
X160132380Y-92940476D01*
X159132380Y-92083333D02*
X159132380Y-92273809D01*
X159180000Y-92369047D01*
X159227619Y-92416666D01*
X159370476Y-92511904D01*
X159560952Y-92559523D01*
X159941904Y-92559523D01*
X160037142Y-92511904D01*
X160084761Y-92464285D01*
X160132380Y-92369047D01*
X160132380Y-92178571D01*
X160084761Y-92083333D01*
X160037142Y-92035714D01*
X159941904Y-91988095D01*
X159703809Y-91988095D01*
X159608571Y-92035714D01*
X159560952Y-92083333D01*
X159513333Y-92178571D01*
X159513333Y-92369047D01*
X159560952Y-92464285D01*
X159608571Y-92511904D01*
X159703809Y-92559523D01*
X167857142Y-134166666D02*
X167904761Y-134214285D01*
X167952380Y-134357142D01*
X167952380Y-134452380D01*
X167904761Y-134595238D01*
X167809523Y-134690476D01*
X167714285Y-134738095D01*
X167523809Y-134785714D01*
X167380952Y-134785714D01*
X167190476Y-134738095D01*
X167095238Y-134690476D01*
X167000000Y-134595238D01*
X166952380Y-134452380D01*
X166952380Y-134357142D01*
X167000000Y-134214285D01*
X167047619Y-134166666D01*
X167952380Y-133214285D02*
X167952380Y-133785714D01*
X167952380Y-133500000D02*
X166952380Y-133500000D01*
X167095238Y-133595238D01*
X167190476Y-133690476D01*
X167238095Y-133785714D01*
X160857142Y-76857142D02*
X160809523Y-76904761D01*
X160666666Y-76952380D01*
X160571428Y-76952380D01*
X160428571Y-76904761D01*
X160333333Y-76809523D01*
X160285714Y-76714285D01*
X160238095Y-76523809D01*
X160238095Y-76380952D01*
X160285714Y-76190476D01*
X160333333Y-76095238D01*
X160428571Y-76000000D01*
X160571428Y-75952380D01*
X160666666Y-75952380D01*
X160809523Y-76000000D01*
X160857142Y-76047619D01*
X161809523Y-76952380D02*
X161238095Y-76952380D01*
X161523809Y-76952380D02*
X161523809Y-75952380D01*
X161428571Y-76095238D01*
X161333333Y-76190476D01*
X161238095Y-76238095D01*
X162714285Y-75952380D02*
X162238095Y-75952380D01*
X162190476Y-76428571D01*
X162238095Y-76380952D01*
X162333333Y-76333333D01*
X162571428Y-76333333D01*
X162666666Y-76380952D01*
X162714285Y-76428571D01*
X162761904Y-76523809D01*
X162761904Y-76761904D01*
X162714285Y-76857142D01*
X162666666Y-76904761D01*
X162571428Y-76952380D01*
X162333333Y-76952380D01*
X162238095Y-76904761D01*
X162190476Y-76857142D01*
X130857142Y-64702380D02*
X130523809Y-64226190D01*
X130285714Y-64702380D02*
X130285714Y-63702380D01*
X130666666Y-63702380D01*
X130761904Y-63750000D01*
X130809523Y-63797619D01*
X130857142Y-63892857D01*
X130857142Y-64035714D01*
X130809523Y-64130952D01*
X130761904Y-64178571D01*
X130666666Y-64226190D01*
X130285714Y-64226190D01*
X131809523Y-64702380D02*
X131238095Y-64702380D01*
X131523809Y-64702380D02*
X131523809Y-63702380D01*
X131428571Y-63845238D01*
X131333333Y-63940476D01*
X131238095Y-63988095D01*
X132714285Y-63702380D02*
X132238095Y-63702380D01*
X132190476Y-64178571D01*
X132238095Y-64130952D01*
X132333333Y-64083333D01*
X132571428Y-64083333D01*
X132666666Y-64130952D01*
X132714285Y-64178571D01*
X132761904Y-64273809D01*
X132761904Y-64511904D01*
X132714285Y-64607142D01*
X132666666Y-64654761D01*
X132571428Y-64702380D01*
X132333333Y-64702380D01*
X132238095Y-64654761D01*
X132190476Y-64607142D01*
D13*
X159735000Y-103238748D02*
X159735000Y-103761252D01*
X158265000Y-103238748D02*
X158265000Y-103761252D01*
X128400000Y-78200000D02*
X126400000Y-78200000D01*
X124500000Y-68800000D02*
X122600000Y-68800000D01*
X122600000Y-68800000D02*
X122600000Y-78200000D01*
X124500000Y-78200000D02*
X122600000Y-78200000D01*
X128400000Y-68800000D02*
X126400000Y-68800000D01*
X173935000Y-68540000D02*
X171250000Y-68540000D01*
X173935000Y-70460000D02*
X173935000Y-68540000D01*
X171250000Y-70460000D02*
X173935000Y-70460000D01*
X135261252Y-61235000D02*
X134738748Y-61235000D01*
X135261252Y-59765000D02*
X134738748Y-59765000D01*
D14*
X163000000Y-58000000D02*
X163000000Y-64000000D01*
X157000000Y-64000000D02*
X157000000Y-58000000D01*
D15*
X166100000Y-63300000D02*
X166100000Y-63300000D01*
D14*
X163000000Y-64000000D02*
X157000000Y-64000000D01*
D15*
X166100000Y-63100000D02*
X166100000Y-63100000D01*
D14*
X157000000Y-58000000D02*
X163000000Y-58000000D01*
D15*
X166100000Y-63100000D02*
G75*
G03*
X166100000Y-63300000I0J-100000D01*
G01*
X166100000Y-63300000D02*
G75*
G03*
X166100000Y-63100000I0J100000D01*
G01*
D13*
X134272936Y-101235000D02*
X134727064Y-101235000D01*
X134272936Y-99765000D02*
X134727064Y-99765000D01*
X127235000Y-123488748D02*
X127235000Y-124011252D01*
X125765000Y-123488748D02*
X125765000Y-124011252D01*
X134272936Y-97735000D02*
X134727064Y-97735000D01*
X134272936Y-96265000D02*
X134727064Y-96265000D01*
X157235000Y-123761252D02*
X157235000Y-123238748D01*
X155765000Y-123761252D02*
X155765000Y-123238748D01*
X172477064Y-68235000D02*
X172022936Y-68235000D01*
X172477064Y-66765000D02*
X172022936Y-66765000D01*
X161200000Y-89050000D02*
X161200000Y-90950000D01*
X161200000Y-90950000D02*
X159300000Y-90950000D01*
X159300000Y-90950000D02*
X159300000Y-89050000D01*
X159300000Y-89050000D02*
X161200000Y-89050000D01*
X141200000Y-127400000D02*
X141200000Y-124200000D01*
X141200000Y-124200000D02*
X151800000Y-124200000D01*
X151800000Y-124200000D02*
X151800000Y-127400000D01*
X141200000Y-134800000D02*
X141200000Y-131600000D01*
X151800000Y-131600000D02*
X151800000Y-134800000D01*
X151800000Y-134800000D02*
X141200000Y-134800000D01*
X139910000Y-125788748D02*
X139910000Y-127211252D01*
X138090000Y-125788748D02*
X138090000Y-127211252D01*
X162265000Y-125772936D02*
X162265000Y-126227064D01*
X163735000Y-125772936D02*
X163735000Y-126227064D01*
X174432929Y-97615000D02*
X174830000Y-97615000D01*
X174432929Y-79835000D02*
X174830000Y-79835000D01*
X177490000Y-74055000D02*
X183490000Y-74055000D01*
X183490000Y-94315000D02*
X183490000Y-95075000D01*
X174432929Y-110315000D02*
X174830000Y-110315000D01*
X171892929Y-120475000D02*
X172347071Y-120475000D01*
X177490000Y-81615000D02*
X183490000Y-81615000D01*
X174432929Y-112095000D02*
X174830000Y-112095000D01*
X183490000Y-87455000D02*
X177490000Y-87455000D01*
X174432929Y-114635000D02*
X174830000Y-114635000D01*
X183490000Y-100155000D02*
X177490000Y-100155000D01*
X183490000Y-81615000D02*
X183490000Y-82375000D01*
X171892929Y-92535000D02*
X172347071Y-92535000D01*
X171892929Y-79835000D02*
X172347071Y-79835000D01*
X174432929Y-91775000D02*
X174830000Y-91775000D01*
X169580000Y-73105000D02*
X170850000Y-73105000D01*
X177490000Y-109555000D02*
X183490000Y-109555000D01*
X177490000Y-123965000D02*
X177490000Y-73045000D01*
X177490000Y-74415000D02*
X183490000Y-74415000D01*
X174432929Y-94315000D02*
X174830000Y-94315000D01*
X171892929Y-107775000D02*
X172347071Y-107775000D01*
X171892929Y-107015000D02*
X172347071Y-107015000D01*
X174830000Y-75645000D02*
X177490000Y-75645000D01*
X174830000Y-108665000D02*
X177490000Y-108665000D01*
X171892929Y-97615000D02*
X172347071Y-97615000D01*
X174830000Y-90885000D02*
X177490000Y-90885000D01*
X174432929Y-112855000D02*
X174830000Y-112855000D01*
X174830000Y-95965000D02*
X177490000Y-95965000D01*
X177490000Y-112095000D02*
X183490000Y-112095000D01*
X171892929Y-112095000D02*
X172347071Y-112095000D01*
X174432929Y-77295000D02*
X174830000Y-77295000D01*
X174432929Y-107775000D02*
X174830000Y-107775000D01*
X174830000Y-121365000D02*
X177490000Y-121365000D01*
X171892929Y-95075000D02*
X172347071Y-95075000D01*
X174432929Y-102695000D02*
X174830000Y-102695000D01*
X183490000Y-84155000D02*
X183490000Y-84915000D01*
X183490000Y-122255000D02*
X183490000Y-123015000D01*
X171892929Y-84155000D02*
X172347071Y-84155000D01*
X174432929Y-123015000D02*
X174830000Y-123015000D01*
X174830000Y-106125000D02*
X177490000Y-106125000D01*
X171960000Y-74755000D02*
X172347071Y-74755000D01*
X183490000Y-84915000D02*
X177490000Y-84915000D01*
X174432929Y-117935000D02*
X174830000Y-117935000D01*
X174432929Y-115395000D02*
X174830000Y-115395000D01*
X171892929Y-82375000D02*
X172347071Y-82375000D01*
X183490000Y-102695000D02*
X177490000Y-102695000D01*
X174830000Y-101045000D02*
X177490000Y-101045000D01*
X171892929Y-102695000D02*
X172347071Y-102695000D01*
X174432929Y-87455000D02*
X174830000Y-87455000D01*
X174432929Y-79075000D02*
X174830000Y-79075000D01*
X183490000Y-107015000D02*
X183490000Y-107775000D01*
X183490000Y-117935000D02*
X177490000Y-117935000D01*
X177490000Y-107015000D02*
X183490000Y-107015000D01*
X177490000Y-119715000D02*
X183490000Y-119715000D01*
X171892929Y-94315000D02*
X172347071Y-94315000D01*
X171892929Y-112855000D02*
X172347071Y-112855000D01*
X171892929Y-119715000D02*
X172347071Y-119715000D01*
X174830000Y-93425000D02*
X177490000Y-93425000D01*
X174830000Y-113745000D02*
X177490000Y-113745000D01*
X171892929Y-77295000D02*
X172347071Y-77295000D01*
X177490000Y-94315000D02*
X183490000Y-94315000D01*
X183490000Y-77295000D02*
X177490000Y-77295000D01*
X171892929Y-105235000D02*
X172347071Y-105235000D01*
X177490000Y-104475000D02*
X183490000Y-104475000D01*
X177490000Y-73045000D02*
X174830000Y-73045000D01*
X174830000Y-80725000D02*
X177490000Y-80725000D01*
X183490000Y-105235000D02*
X177490000Y-105235000D01*
X177490000Y-117175000D02*
X183490000Y-117175000D01*
X174432929Y-76535000D02*
X174830000Y-76535000D01*
X177490000Y-76535000D02*
X183490000Y-76535000D01*
X183490000Y-89235000D02*
X183490000Y-89995000D01*
X171892929Y-99395000D02*
X172347071Y-99395000D01*
X174830000Y-73045000D02*
X174830000Y-123965000D01*
X174432929Y-81615000D02*
X174830000Y-81615000D01*
X183490000Y-97615000D02*
X177490000Y-97615000D01*
X183490000Y-112855000D02*
X177490000Y-112855000D01*
X171892929Y-123015000D02*
X172347071Y-123015000D01*
X174432929Y-84915000D02*
X174830000Y-84915000D01*
X171892929Y-104475000D02*
X172347071Y-104475000D01*
X174830000Y-116285000D02*
X177490000Y-116285000D01*
X177490000Y-74655000D02*
X183490000Y-74655000D01*
X174830000Y-83265000D02*
X177490000Y-83265000D01*
X177490000Y-89235000D02*
X183490000Y-89235000D01*
X174830000Y-103585000D02*
X177490000Y-103585000D01*
X177490000Y-74175000D02*
X183490000Y-74175000D01*
X171892929Y-114635000D02*
X172347071Y-114635000D01*
X183490000Y-73995000D02*
X183490000Y-74755000D01*
X183490000Y-120475000D02*
X177490000Y-120475000D01*
X171892929Y-91775000D02*
X172347071Y-91775000D01*
X183490000Y-115395000D02*
X177490000Y-115395000D01*
X171960000Y-73995000D02*
X172347071Y-73995000D01*
X174432929Y-119715000D02*
X174830000Y-119715000D01*
X174432929Y-117175000D02*
X174830000Y-117175000D01*
X174432929Y-107015000D02*
X174830000Y-107015000D01*
X171892929Y-96855000D02*
X172347071Y-96855000D01*
X171892929Y-89995000D02*
X172347071Y-89995000D01*
X174432929Y-95075000D02*
X174830000Y-95075000D01*
X174432929Y-89995000D02*
X174830000Y-89995000D01*
X174432929Y-109555000D02*
X174830000Y-109555000D01*
X183490000Y-92535000D02*
X177490000Y-92535000D01*
X174432929Y-99395000D02*
X174830000Y-99395000D01*
X171892929Y-81615000D02*
X172347071Y-81615000D01*
X171892929Y-76535000D02*
X172347071Y-76535000D01*
X183490000Y-79835000D02*
X177490000Y-79835000D01*
X183490000Y-110315000D02*
X177490000Y-110315000D01*
X183490000Y-76535000D02*
X183490000Y-77295000D01*
X177490000Y-114635000D02*
X183490000Y-114635000D01*
X177490000Y-122255000D02*
X183490000Y-122255000D01*
X183490000Y-79075000D02*
X183490000Y-79835000D01*
X177490000Y-74295000D02*
X183490000Y-74295000D01*
X171892929Y-117935000D02*
X172347071Y-117935000D01*
X177490000Y-99395000D02*
X183490000Y-99395000D01*
X174830000Y-78185000D02*
X177490000Y-78185000D01*
X171892929Y-87455000D02*
X172347071Y-87455000D01*
X183490000Y-99395000D02*
X183490000Y-100155000D01*
X174432929Y-86695000D02*
X174830000Y-86695000D01*
X174830000Y-98505000D02*
X177490000Y-98505000D01*
X183490000Y-86695000D02*
X183490000Y-87455000D01*
X183490000Y-114635000D02*
X183490000Y-115395000D01*
X174432929Y-105235000D02*
X174830000Y-105235000D01*
X177490000Y-91775000D02*
X183490000Y-91775000D01*
X171892929Y-100155000D02*
X172347071Y-100155000D01*
X183490000Y-117175000D02*
X183490000Y-117935000D01*
X171892929Y-115395000D02*
X172347071Y-115395000D01*
X183490000Y-109555000D02*
X183490000Y-110315000D01*
X177490000Y-84155000D02*
X183490000Y-84155000D01*
X183490000Y-95075000D02*
X177490000Y-95075000D01*
X177490000Y-79075000D02*
X183490000Y-79075000D01*
X183490000Y-112095000D02*
X183490000Y-112855000D01*
X169580000Y-74375000D02*
X169580000Y-73105000D01*
X177490000Y-74535000D02*
X183490000Y-74535000D01*
X171892929Y-89235000D02*
X172347071Y-89235000D01*
X183490000Y-119715000D02*
X183490000Y-120475000D01*
X177490000Y-86695000D02*
X183490000Y-86695000D01*
X174432929Y-101935000D02*
X174830000Y-101935000D01*
X174432929Y-73995000D02*
X174830000Y-73995000D01*
X174432929Y-104475000D02*
X174830000Y-104475000D01*
X171892929Y-101935000D02*
X172347071Y-101935000D01*
X174432929Y-84155000D02*
X174830000Y-84155000D01*
X174432929Y-74755000D02*
X174830000Y-74755000D01*
X183490000Y-104475000D02*
X183490000Y-105235000D01*
X174432929Y-122255000D02*
X174830000Y-122255000D01*
X177490000Y-73995000D02*
X183490000Y-73995000D01*
X174432929Y-89235000D02*
X174830000Y-89235000D01*
X183490000Y-74755000D02*
X177490000Y-74755000D01*
X174432929Y-82375000D02*
X174830000Y-82375000D01*
X171892929Y-109555000D02*
X172347071Y-109555000D01*
X174432929Y-96855000D02*
X174830000Y-96855000D01*
X174830000Y-118825000D02*
X177490000Y-118825000D01*
X174830000Y-123965000D02*
X177490000Y-123965000D01*
X174830000Y-85805000D02*
X177490000Y-85805000D01*
X174432929Y-100155000D02*
X174830000Y-100155000D01*
X171892929Y-110315000D02*
X172347071Y-110315000D01*
X183490000Y-96855000D02*
X183490000Y-97615000D01*
X171892929Y-117175000D02*
X172347071Y-117175000D01*
X183490000Y-89995000D02*
X177490000Y-89995000D01*
X183490000Y-82375000D02*
X177490000Y-82375000D01*
X174830000Y-88345000D02*
X177490000Y-88345000D01*
X177490000Y-101935000D02*
X183490000Y-101935000D01*
X183490000Y-101935000D02*
X183490000Y-102695000D01*
X183490000Y-91775000D02*
X183490000Y-92535000D01*
X183490000Y-107775000D02*
X177490000Y-107775000D01*
X174432929Y-120475000D02*
X174830000Y-120475000D01*
X171892929Y-86695000D02*
X172347071Y-86695000D01*
X171892929Y-122255000D02*
X172347071Y-122255000D01*
X177490000Y-96855000D02*
X183490000Y-96855000D01*
X171892929Y-79075000D02*
X172347071Y-79075000D01*
X174830000Y-111205000D02*
X177490000Y-111205000D01*
X174432929Y-92535000D02*
X174830000Y-92535000D01*
X183490000Y-123015000D02*
X177490000Y-123015000D01*
X171892929Y-84915000D02*
X172347071Y-84915000D01*
X149761252Y-123235000D02*
X149238748Y-123235000D01*
X149761252Y-121765000D02*
X149238748Y-121765000D01*
X136238748Y-111235000D02*
X136761252Y-111235000D01*
X136238748Y-109765000D02*
X136761252Y-109765000D01*
X138090000Y-133211252D02*
X138090000Y-131788748D01*
X139910000Y-133211252D02*
X139910000Y-131788748D01*
X137405000Y-64522504D02*
X137405000Y-64000000D01*
X138875000Y-64522504D02*
X138875000Y-64000000D01*
X150040000Y-76725000D02*
X156440000Y-76725000D01*
X150040000Y-81775000D02*
X156440000Y-81775000D01*
X156440000Y-81775000D02*
G75*
G03*
X156440000Y-76725000I0J2525000D01*
G01*
X150040000Y-76725000D02*
G75*
G03*
X150040000Y-81775000I0J-2525000D01*
G01*
X166235000Y-129392936D02*
X166235000Y-129847064D01*
X164765000Y-129392936D02*
X164765000Y-129847064D01*
X150988748Y-82515000D02*
X151511252Y-82515000D01*
X150988748Y-83985000D02*
X151511252Y-83985000D01*
X144227064Y-120265000D02*
X143772936Y-120265000D01*
X144227064Y-121735000D02*
X143772936Y-121735000D01*
X136910000Y-133211252D02*
X136910000Y-131788748D01*
X135090000Y-133211252D02*
X135090000Y-131788748D01*
X134272936Y-76235000D02*
X134727064Y-76235000D01*
X134272936Y-74765000D02*
X134727064Y-74765000D01*
X143830000Y-60245000D02*
X143830000Y-65385000D01*
X141170000Y-57645000D02*
X142500000Y-57645000D01*
X141170000Y-60245000D02*
X143830000Y-60245000D01*
X141170000Y-60245000D02*
X141170000Y-65385000D01*
X141170000Y-65385000D02*
X143830000Y-65385000D01*
X141170000Y-58975000D02*
X141170000Y-57645000D01*
X154735000Y-123727064D02*
X154735000Y-123272936D01*
X153265000Y-123727064D02*
X153265000Y-123272936D01*
X148330000Y-60230000D02*
X148330000Y-65370000D01*
X145670000Y-65370000D02*
X148330000Y-65370000D01*
X145670000Y-57630000D02*
X147000000Y-57630000D01*
X145670000Y-58960000D02*
X145670000Y-57630000D01*
X145670000Y-60230000D02*
X145670000Y-65370000D01*
X145670000Y-60230000D02*
X148330000Y-60230000D01*
X126238748Y-109765000D02*
X126761252Y-109765000D01*
X126238748Y-111235000D02*
X126761252Y-111235000D01*
X155640000Y-72238748D02*
X155640000Y-72761252D01*
X157110000Y-72238748D02*
X157110000Y-72761252D01*
X142265000Y-93511252D02*
X142265000Y-92988748D01*
X143735000Y-93511252D02*
X143735000Y-92988748D01*
X130000000Y-125310000D02*
X129200000Y-125310000D01*
X130000000Y-122190000D02*
X128200000Y-122190000D01*
X130000000Y-125310000D02*
X130800000Y-125310000D01*
X130000000Y-122190000D02*
X130800000Y-122190000D01*
X140438748Y-68235000D02*
X140961252Y-68235000D01*
X140438748Y-66765000D02*
X140961252Y-66765000D01*
X129060000Y-107200000D02*
X129060000Y-106400000D01*
X125940000Y-107200000D02*
X125940000Y-109000000D01*
X129060000Y-107200000D02*
X129060000Y-108000000D01*
X125940000Y-107200000D02*
X125940000Y-106400000D01*
X172022936Y-70765000D02*
X172477064Y-70765000D01*
X172022936Y-72235000D02*
X172477064Y-72235000D01*
X152235000Y-59772936D02*
X152235000Y-60227064D01*
X150765000Y-59772936D02*
X150765000Y-60227064D01*
X154988748Y-83985000D02*
X155511252Y-83985000D01*
X154988748Y-82515000D02*
X155511252Y-82515000D01*
X122600000Y-93800000D02*
X122600000Y-103200000D01*
X128400000Y-93800000D02*
X126400000Y-93800000D01*
X128400000Y-103200000D02*
X126400000Y-103200000D01*
X124500000Y-103200000D02*
X122600000Y-103200000D01*
X124500000Y-93800000D02*
X122600000Y-93800000D01*
X136910000Y-125788748D02*
X136910000Y-127211252D01*
X135090000Y-125788748D02*
X135090000Y-127211252D01*
X157410000Y-68711252D02*
X157410000Y-67288748D01*
X155590000Y-68711252D02*
X155590000Y-67288748D01*
X146390000Y-95340000D02*
X145100000Y-95340000D01*
X153610000Y-94890000D02*
X153610000Y-95340000D01*
X146840000Y-94890000D02*
X146390000Y-94890000D01*
X146390000Y-94890000D02*
X146390000Y-95340000D01*
X153160000Y-94890000D02*
X153610000Y-94890000D01*
X153160000Y-102110000D02*
X153610000Y-102110000D01*
X146840000Y-102110000D02*
X146390000Y-102110000D01*
X153610000Y-102110000D02*
X153610000Y-101660000D01*
X146390000Y-102110000D02*
X146390000Y-101660000D01*
X131788748Y-130235000D02*
X132311252Y-130235000D01*
X131788748Y-128765000D02*
X132311252Y-128765000D01*
X127477064Y-125765000D02*
X127022936Y-125765000D01*
X127477064Y-127235000D02*
X127022936Y-127235000D01*
X165410000Y-72410000D02*
X165410000Y-71150000D01*
X161650000Y-72410000D02*
X165410000Y-72410000D01*
X165410000Y-65590000D02*
X165410000Y-66850000D01*
X159400000Y-65590000D02*
X165410000Y-65590000D01*
X140761252Y-109765000D02*
X140238748Y-109765000D01*
X140761252Y-111235000D02*
X140238748Y-111235000D01*
X129765000Y-106738748D02*
X129765000Y-107261252D01*
X131235000Y-106738748D02*
X131235000Y-107261252D01*
X159977064Y-124515000D02*
X159522936Y-124515000D01*
X159977064Y-125985000D02*
X159522936Y-125985000D01*
X164765000Y-125772936D02*
X164765000Y-126227064D01*
X166235000Y-125772936D02*
X166235000Y-126227064D01*
X135290000Y-109025000D02*
X141690000Y-109025000D01*
X135290000Y-103975000D02*
X141690000Y-103975000D01*
X135290000Y-103975000D02*
G75*
G03*
X135290000Y-109025000I0J-2525000D01*
G01*
X141690000Y-109025000D02*
G75*
G03*
X141690000Y-103975000I0J2525000D01*
G01*
X153765000Y-132238748D02*
X153765000Y-132761252D01*
X155235000Y-132238748D02*
X155235000Y-132761252D01*
X128727064Y-113735000D02*
X128272936Y-113735000D01*
X128727064Y-112265000D02*
X128272936Y-112265000D01*
X138940000Y-72500000D02*
X138940000Y-70550000D01*
X138940000Y-72500000D02*
X138940000Y-76000000D01*
X149060000Y-72500000D02*
X149060000Y-70550000D01*
X149060000Y-72500000D02*
X149060000Y-74450000D01*
X159500000Y-133560000D02*
X162950000Y-133560000D01*
X159500000Y-128440000D02*
X161450000Y-128440000D01*
X159500000Y-133560000D02*
X157550000Y-133560000D01*
X159500000Y-128440000D02*
X157550000Y-128440000D01*
X134272936Y-72485000D02*
X134727064Y-72485000D01*
X134272936Y-71015000D02*
X134727064Y-71015000D01*
X143265000Y-77738748D02*
X143265000Y-78261252D01*
X144735000Y-77738748D02*
X144735000Y-78261252D01*
X164550000Y-89050000D02*
X166450000Y-89050000D01*
X166450000Y-89050000D02*
X166450000Y-90950000D01*
X164550000Y-90950000D02*
X164550000Y-89050000D01*
X166450000Y-90950000D02*
X164550000Y-90950000D01*
X136560000Y-64000000D02*
X136560000Y-62200000D01*
X136560000Y-64000000D02*
X136560000Y-64800000D01*
X133440000Y-64000000D02*
X133440000Y-64800000D01*
X133440000Y-64000000D02*
X133440000Y-63200000D01*
X137265000Y-102011252D02*
X137265000Y-101488748D01*
X138735000Y-102011252D02*
X138735000Y-101488748D01*
X157265000Y-92988748D02*
X157265000Y-93511252D01*
X158735000Y-92988748D02*
X158735000Y-93511252D01*
X164590000Y-134711252D02*
X164590000Y-133288748D01*
X166410000Y-134711252D02*
X166410000Y-133288748D01*
X160788748Y-75410000D02*
X162211252Y-75410000D01*
X160788748Y-73590000D02*
X162211252Y-73590000D01*
X131265000Y-62227064D02*
X131265000Y-61772936D01*
X132735000Y-62227064D02*
X132735000Y-61772936D01*
%LPC*%
D16*
X159000000Y-102550000D03*
X159000000Y-104450000D03*
D17*
X129100000Y-76390000D03*
X129100000Y-70610000D03*
D18*
X130545000Y-70250000D03*
X130545000Y-71050000D03*
D19*
X130545000Y-72250000D03*
X130545000Y-73250000D03*
X130545000Y-73750000D03*
X130545000Y-74750000D03*
D18*
X130545000Y-75950000D03*
X130545000Y-76750000D03*
X130545000Y-76750000D03*
X130545000Y-75950000D03*
D19*
X130545000Y-75250000D03*
X130545000Y-74250000D03*
X130545000Y-72750000D03*
X130545000Y-71750000D03*
D18*
X130545000Y-71050000D03*
X130545000Y-70250000D03*
D20*
X125450000Y-77820000D03*
D21*
X129630000Y-69180000D03*
X129630000Y-77820000D03*
D20*
X125450000Y-69180000D03*
D22*
X173187500Y-69500000D03*
X171312500Y-69500000D03*
D23*
X135950000Y-60500000D03*
X134050000Y-60500000D03*
D24*
X164550000Y-63250000D03*
X155450000Y-63250000D03*
X164550000Y-58750000D03*
X155450000Y-58750000D03*
D25*
X133587500Y-100500000D03*
X135412500Y-100500000D03*
D16*
X126500000Y-122800000D03*
X126500000Y-124700000D03*
D26*
X126500000Y-137000000D03*
D25*
X133587500Y-97000000D03*
X135412500Y-97000000D03*
D27*
X156500000Y-124450000D03*
X156500000Y-122550000D03*
D28*
X173162500Y-67500000D03*
X171337500Y-67500000D03*
D29*
X160250000Y-90000000D03*
D30*
X150650000Y-129500000D03*
X142350000Y-129500000D03*
D31*
X139000000Y-125025000D03*
X139000000Y-127975000D03*
D32*
X163000000Y-125087500D03*
X163000000Y-126912500D03*
D33*
X170850000Y-74375000D03*
D34*
X173390000Y-74375000D03*
X170850000Y-76915000D03*
X173390000Y-76915000D03*
X170850000Y-79455000D03*
X173390000Y-79455000D03*
X170850000Y-81995000D03*
X173390000Y-81995000D03*
X170850000Y-84535000D03*
X173390000Y-84535000D03*
X170850000Y-87075000D03*
X173390000Y-87075000D03*
X170850000Y-89615000D03*
X173390000Y-89615000D03*
X170850000Y-92155000D03*
X173390000Y-92155000D03*
X170850000Y-94695000D03*
X173390000Y-94695000D03*
X170850000Y-97235000D03*
X173390000Y-97235000D03*
X170850000Y-99775000D03*
X173390000Y-99775000D03*
X170850000Y-102315000D03*
X173390000Y-102315000D03*
X170850000Y-104855000D03*
X173390000Y-104855000D03*
X170850000Y-107395000D03*
X173390000Y-107395000D03*
X170850000Y-109935000D03*
X173390000Y-109935000D03*
X170850000Y-112475000D03*
X173390000Y-112475000D03*
X170850000Y-115015000D03*
X173390000Y-115015000D03*
X170850000Y-117555000D03*
X173390000Y-117555000D03*
X170850000Y-120095000D03*
X173390000Y-120095000D03*
X170850000Y-122635000D03*
X173390000Y-122635000D03*
D23*
X150450000Y-122500000D03*
X148550000Y-122500000D03*
D35*
X135550000Y-110500000D03*
X137450000Y-110500000D03*
D36*
X139000000Y-133975000D03*
X139000000Y-131025000D03*
D27*
X138140000Y-65211252D03*
X138140000Y-63311252D03*
D37*
X150800000Y-79250000D03*
X155680000Y-79250000D03*
D32*
X165500000Y-128707500D03*
X165500000Y-130532500D03*
D35*
X150300000Y-83250000D03*
X152200000Y-83250000D03*
D28*
X144912500Y-121000000D03*
X143087500Y-121000000D03*
D36*
X136000000Y-133975000D03*
X136000000Y-131025000D03*
D25*
X133587500Y-75500000D03*
X135412500Y-75500000D03*
D33*
X142500000Y-58975000D03*
D34*
X142500000Y-61515000D03*
X142500000Y-64055000D03*
D38*
X154000000Y-124412500D03*
X154000000Y-122587500D03*
D33*
X147000000Y-58960000D03*
D34*
X147000000Y-61500000D03*
X147000000Y-64040000D03*
D35*
X125550000Y-110500000D03*
X127450000Y-110500000D03*
D16*
X156375000Y-71550000D03*
X156375000Y-73450000D03*
D27*
X143000000Y-94200000D03*
X143000000Y-92300000D03*
D39*
X128862500Y-122800000D03*
X128862500Y-123750000D03*
X128862500Y-124700000D03*
X131137500Y-124700000D03*
X131137500Y-122800000D03*
D35*
X139750000Y-67500000D03*
X141650000Y-67500000D03*
D40*
X126550000Y-108337500D03*
X127500000Y-108337500D03*
X128450000Y-108337500D03*
X128450000Y-106062500D03*
X126550000Y-106062500D03*
D25*
X171337500Y-71500000D03*
X173162500Y-71500000D03*
D32*
X151500000Y-59087500D03*
X151500000Y-60912500D03*
D35*
X154300000Y-83250000D03*
X156200000Y-83250000D03*
D17*
X129100000Y-101390000D03*
X129100000Y-95610000D03*
D18*
X130545000Y-95250000D03*
X130545000Y-96050000D03*
D19*
X130545000Y-97250000D03*
X130545000Y-98250000D03*
X130545000Y-98750000D03*
X130545000Y-99750000D03*
D18*
X130545000Y-100950000D03*
X130545000Y-101750000D03*
X130545000Y-101750000D03*
X130545000Y-100950000D03*
D19*
X130545000Y-100250000D03*
X130545000Y-99250000D03*
X130545000Y-97750000D03*
X130545000Y-96750000D03*
D18*
X130545000Y-96050000D03*
X130545000Y-95250000D03*
D20*
X125450000Y-94180000D03*
X125450000Y-102820000D03*
D21*
X129630000Y-102820000D03*
X129630000Y-94180000D03*
D31*
X136000000Y-125025000D03*
X136000000Y-127975000D03*
D36*
X156500000Y-69475000D03*
X156500000Y-66525000D03*
D41*
X145837500Y-95750000D03*
X145837500Y-96250000D03*
X145837500Y-96750000D03*
X145837500Y-97250000D03*
X145837500Y-97750000D03*
X145837500Y-98250000D03*
X145837500Y-98750000D03*
X145837500Y-99250000D03*
X145837500Y-99750000D03*
X145837500Y-100250000D03*
X145837500Y-100750000D03*
X145837500Y-101250000D03*
D42*
X147250000Y-102662500D03*
X147750000Y-102662500D03*
X148250000Y-102662500D03*
X148750000Y-102662500D03*
X149250000Y-102662500D03*
X149750000Y-102662500D03*
X150250000Y-102662500D03*
X150750000Y-102662500D03*
X151250000Y-102662500D03*
X151750000Y-102662500D03*
X152250000Y-102662500D03*
X152750000Y-102662500D03*
D41*
X154162500Y-101250000D03*
X154162500Y-100750000D03*
X154162500Y-100250000D03*
X154162500Y-99750000D03*
X154162500Y-99250000D03*
X154162500Y-98750000D03*
X154162500Y-98250000D03*
X154162500Y-97750000D03*
X154162500Y-97250000D03*
X154162500Y-96750000D03*
X154162500Y-96250000D03*
X154162500Y-95750000D03*
D42*
X152750000Y-94337500D03*
X152250000Y-94337500D03*
X151750000Y-94337500D03*
X151250000Y-94337500D03*
X150750000Y-94337500D03*
X150250000Y-94337500D03*
X149750000Y-94337500D03*
X149250000Y-94337500D03*
X148750000Y-94337500D03*
X148250000Y-94337500D03*
X147750000Y-94337500D03*
X147250000Y-94337500D03*
D35*
X131100000Y-129500000D03*
X133000000Y-129500000D03*
D28*
X128162500Y-126500000D03*
X126337500Y-126500000D03*
D43*
X160350000Y-66700000D03*
X160350000Y-69000000D03*
D44*
X166650000Y-69000000D03*
D43*
X160350000Y-71300000D03*
D23*
X141450000Y-110500000D03*
X139550000Y-110500000D03*
D16*
X130500000Y-106050000D03*
X130500000Y-107950000D03*
D28*
X160662500Y-125250000D03*
X158837500Y-125250000D03*
D26*
X173500000Y-60000000D03*
D32*
X165500000Y-125087500D03*
X165500000Y-126912500D03*
D37*
X136050000Y-106500000D03*
X140930000Y-106500000D03*
D16*
X154500000Y-131550000D03*
X154500000Y-133450000D03*
D26*
X173500000Y-137000000D03*
D28*
X129412500Y-113000000D03*
X127587500Y-113000000D03*
D45*
X139555000Y-75000000D03*
X140825000Y-75000000D03*
X142095000Y-75000000D03*
X143365000Y-75000000D03*
X144635000Y-75000000D03*
X145905000Y-75000000D03*
X147175000Y-75000000D03*
X148445000Y-75000000D03*
X148445000Y-70000000D03*
X147175000Y-70000000D03*
X145905000Y-70000000D03*
X144635000Y-70000000D03*
X143365000Y-70000000D03*
X142095000Y-70000000D03*
X140825000Y-70000000D03*
X139555000Y-70000000D03*
D46*
X162150000Y-132905000D03*
X162150000Y-131635000D03*
X162150000Y-130365000D03*
X162150000Y-129095000D03*
X156850000Y-129095000D03*
X156850000Y-130365000D03*
X156850000Y-131635000D03*
X156850000Y-132905000D03*
D47*
X159500000Y-131000000D03*
D25*
X133587500Y-71750000D03*
X135412500Y-71750000D03*
D16*
X144000000Y-77050000D03*
X144000000Y-78950000D03*
D29*
X165500000Y-90000000D03*
D48*
X135950000Y-62862500D03*
X135000000Y-62862500D03*
X134050000Y-62862500D03*
X134050000Y-65137500D03*
X135950000Y-65137500D03*
D27*
X138000000Y-102700000D03*
X138000000Y-100800000D03*
D26*
X126500000Y-60000000D03*
D16*
X158000000Y-92300000D03*
X158000000Y-94200000D03*
D36*
X165500000Y-135475000D03*
X165500000Y-132525000D03*
D49*
X160025000Y-74500000D03*
X162975000Y-74500000D03*
D38*
X132000000Y-62912500D03*
X132000000Y-61087500D03*
M02*
