M48
; DRILL file {KiCad (6.0.5)} date Mon Aug 25 10:48:04 2025
; FORMAT={-:-/ absolute / metric / decimal}
; #@! TF.CreationDate,2025-08-25T10:48:04+02:00
; #@! TF.GenerationSoftware,Kicad,Pcbnew,(6.0.5)
; #@! TF.FileFunction,Plated,1,2,PTH
FMAT,2
METRIC
; #@! TA.AperFunction,Plated,PTH,ViaDrill
T1C0.400
; #@! TA.AperFunction,Plated,PTH,ComponentDrill
T2C1.000
%
G90
G05
T1
X141.0Y-104.5
X141.7Y-101.0
X142.5Y-104.5
X143.1Y-101.2
X149.3Y-94.4
X150.0Y-95.5
X150.75Y-82.0
X151.0Y-83.3
X157.25Y-96.75
X157.5Y-98.0
X159.5Y-94.5
X159.9Y-95.8
X160.6Y-99.5
X161.5Y-98.1
X162.0Y-74.1
T2
X135.73Y-75.37
X135.73Y-77.91
X135.73Y-80.45
X135.73Y-82.99
X135.73Y-85.53
X135.73Y-88.07
X135.73Y-90.61
X135.73Y-93.15
X135.73Y-95.69
X135.73Y-98.23
X135.73Y-100.77
X135.73Y-103.31
X135.73Y-105.85
X135.73Y-108.39
X135.73Y-110.93
X135.73Y-113.47
X135.73Y-116.01
X135.73Y-118.55
X135.73Y-121.09
X135.73Y-123.63
X138.27Y-75.37
X138.27Y-77.91
X138.27Y-80.45
X138.27Y-82.99
X138.27Y-85.53
X138.27Y-88.07
X138.27Y-90.61
X138.27Y-93.15
X138.27Y-95.69
X138.27Y-98.23
X138.27Y-100.77
X138.27Y-103.31
X138.27Y-105.85
X138.27Y-108.39
X138.27Y-110.93
X138.27Y-113.47
X138.27Y-116.01
X138.27Y-118.55
X138.27Y-121.09
X138.27Y-123.63
X163.725Y-72.835
X163.725Y-75.375
X163.725Y-77.915
X163.725Y-80.455
X163.725Y-82.995
X163.725Y-85.535
X163.725Y-88.075
X163.725Y-90.615
X163.725Y-93.155
X163.725Y-95.695
X163.725Y-98.235
X163.725Y-100.775
X163.725Y-103.315
X163.725Y-105.855
X163.725Y-108.395
X163.725Y-110.935
X163.725Y-113.475
X163.725Y-116.015
X163.725Y-118.555
X163.725Y-121.095
X163.725Y-123.635
X163.725Y-126.175
X166.265Y-72.835
X166.265Y-75.375
X166.265Y-77.915
X166.265Y-80.455
X166.265Y-82.995
X166.265Y-85.535
X166.265Y-88.075
X166.265Y-90.615
X166.265Y-93.155
X166.265Y-95.695
X166.265Y-98.235
X166.265Y-100.775
X166.265Y-103.315
X166.265Y-105.855
X166.265Y-108.395
X166.265Y-110.935
X166.265Y-113.475
X166.265Y-116.015
X166.265Y-118.555
X166.265Y-121.095
X166.265Y-123.635
X166.265Y-126.175
T0
M30
