%TF.GenerationSoftware,KiCad,Pcbnew,6.0.2+dfsg-1*%
%TF.CreationDate,2025-09-20T13:23:04+02:00*%
%TF.ProjectId,Alchemy_to_Landungsbruecke,416c6368-656d-4795-9f74-6f5f4c616e64,rev?*%
%TF.SameCoordinates,Original*%
%TF.FileFunction,Copper,L2,Bot*%
%TF.FilePolarity,Positive*%
%FSLAX46Y46*%
G04 Gerber Fmt 4.6, Leading zero omitted, Abs format (unit mm)*
G04 Created by KiCad (PCBNEW 6.0.2+dfsg-1) date 2025-09-20 13:23:04*
%MOMM*%
%LPD*%
G01*
G04 APERTURE LIST*
%TA.AperFunction,ComponentPad*%
%ADD10R,1.700000X1.700000*%
%TD*%
%TA.AperFunction,ComponentPad*%
%ADD11O,1.700000X1.700000*%
%TD*%
%TA.AperFunction,ViaPad*%
%ADD12C,0.800000*%
%TD*%
%TA.AperFunction,Conductor*%
%ADD13C,0.400000*%
%TD*%
G04 APERTURE END LIST*
D10*
%TO.P,J2,1,Pin_1*%
%TO.N,/VM*%
X163725000Y-126175000D03*
D11*
%TO.P,J2,2,Pin_2*%
%TO.N,GND*%
X166265000Y-126175000D03*
%TO.P,J2,3,Pin_3*%
X163725000Y-123635000D03*
%TO.P,J2,4,Pin_4*%
%TO.N,unconnected-(J2-Pad4)*%
X166265000Y-123635000D03*
%TO.P,J2,5,Pin_5*%
%TO.N,+5V*%
X163725000Y-121095000D03*
%TO.P,J2,6,Pin_6*%
%TO.N,unconnected-(J2-Pad6)*%
X166265000Y-121095000D03*
%TO.P,J2,7,Pin_7*%
%TO.N,unconnected-(J2-Pad7)*%
X163725000Y-118555000D03*
%TO.P,J2,8,Pin_8*%
%TO.N,/GPIO3*%
X166265000Y-118555000D03*
%TO.P,J2,9,Pin_9*%
%TO.N,/GPIO2*%
X163725000Y-116015000D03*
%TO.P,J2,10,Pin_10*%
%TO.N,unconnected-(J2-Pad10)*%
X166265000Y-116015000D03*
%TO.P,J2,11,Pin_11*%
%TO.N,unconnected-(J2-Pad11)*%
X163725000Y-113475000D03*
%TO.P,J2,12,Pin_12*%
%TO.N,/GPIO1*%
X166265000Y-113475000D03*
%TO.P,J2,13,Pin_13*%
%TO.N,/GPIO0*%
X163725000Y-110935000D03*
%TO.P,J2,14,Pin_14*%
%TO.N,unconnected-(J2-Pad14)*%
X166265000Y-110935000D03*
%TO.P,J2,15,Pin_15*%
%TO.N,unconnected-(J2-Pad15)*%
X163725000Y-108395000D03*
%TO.P,J2,16,Pin_16*%
%TO.N,unconnected-(J2-Pad16)*%
X166265000Y-108395000D03*
%TO.P,J2,17,Pin_17*%
%TO.N,/ADC8*%
X163725000Y-105855000D03*
%TO.P,J2,18,Pin_18*%
%TO.N,/ADC9*%
X166265000Y-105855000D03*
%TO.P,J2,19,Pin_19*%
%TO.N,/ADC6*%
X163725000Y-103315000D03*
%TO.P,J2,20,Pin_20*%
%TO.N,/ADC7*%
X166265000Y-103315000D03*
%TO.P,J2,21,Pin_21*%
%TO.N,/ADC2*%
X163725000Y-100775000D03*
%TO.P,J2,22,Pin_22*%
%TO.N,/ADC3*%
X166265000Y-100775000D03*
%TO.P,J2,23,Pin_23*%
%TO.N,Net-(J2-Pad23)*%
X163725000Y-98235000D03*
%TO.P,J2,24,Pin_24*%
%TO.N,/SPI2_NCS*%
X166265000Y-98235000D03*
%TO.P,J2,25,Pin_25*%
%TO.N,/ADC1*%
X163725000Y-95695000D03*
%TO.P,J2,26,Pin_26*%
%TO.N,/ADC0*%
X166265000Y-95695000D03*
%TO.P,J2,27,Pin_27*%
%TO.N,/SPI2_SCK*%
X163725000Y-93155000D03*
%TO.P,J2,28,Pin_28*%
%TO.N,/SPI2_MISO*%
X166265000Y-93155000D03*
%TO.P,J2,29,Pin_29*%
%TO.N,/SPI2_MOSI*%
X163725000Y-90615000D03*
%TO.P,J2,30,Pin_30*%
%TO.N,/SPI1_NCS*%
X166265000Y-90615000D03*
%TO.P,J2,31,Pin_31*%
%TO.N,/SPI1_SCK*%
X163725000Y-88075000D03*
%TO.P,J2,32,Pin_32*%
%TO.N,/SPI1_MOSI*%
X166265000Y-88075000D03*
%TO.P,J2,33,Pin_33*%
%TO.N,/SPI1_MISO*%
X163725000Y-85535000D03*
%TO.P,J2,34,Pin_34*%
%TO.N,/ADC4*%
X166265000Y-85535000D03*
%TO.P,J2,35,Pin_35*%
%TO.N,/I2C2_SCL*%
X163725000Y-82995000D03*
%TO.P,J2,36,Pin_36*%
%TO.N,/ADC5*%
X166265000Y-82995000D03*
%TO.P,J2,37,Pin_37*%
%TO.N,/I2C2_SDA*%
X163725000Y-80455000D03*
%TO.P,J2,38,Pin_38*%
%TO.N,/I2C1_SDA*%
X166265000Y-80455000D03*
%TO.P,J2,39,Pin_39*%
%TO.N,/UART1_TX*%
X163725000Y-77915000D03*
%TO.P,J2,40,Pin_40*%
%TO.N,/UART1_RX*%
X166265000Y-77915000D03*
%TO.P,J2,41,Pin_41*%
%TO.N,/I2C1_SCL*%
X163725000Y-75375000D03*
%TO.P,J2,42,Pin_42*%
%TO.N,+5V*%
X166265000Y-75375000D03*
%TO.P,J2,43,Pin_43*%
%TO.N,GND*%
X163725000Y-72835000D03*
%TO.P,J2,44,Pin_44*%
X166265000Y-72835000D03*
%TD*%
D10*
%TO.P,J1,1,Pin_1*%
%TO.N,GND*%
X135730000Y-75370000D03*
D11*
%TO.P,J1,2,Pin_2*%
X138270000Y-75370000D03*
%TO.P,J1,3,Pin_3*%
%TO.N,+5V*%
X135730000Y-77910000D03*
%TO.P,J1,4,Pin_4*%
X138270000Y-77910000D03*
%TO.P,J1,5,Pin_5*%
%TO.N,/I2C1_SDA*%
X135730000Y-80450000D03*
%TO.P,J1,6,Pin_6*%
%TO.N,/I2C1_SCL*%
X138270000Y-80450000D03*
%TO.P,J1,7,Pin_7*%
%TO.N,/UART1_RX*%
X135730000Y-82990000D03*
%TO.P,J1,8,Pin_8*%
%TO.N,/UART1_TX*%
X138270000Y-82990000D03*
%TO.P,J1,9,Pin_9*%
%TO.N,/SPI1_MOSI*%
X135730000Y-85530000D03*
%TO.P,J1,10,Pin_10*%
%TO.N,/SPI1_MISO*%
X138270000Y-85530000D03*
%TO.P,J1,11,Pin_11*%
%TO.N,/SPI1_SCK*%
X135730000Y-88070000D03*
%TO.P,J1,12,Pin_12*%
%TO.N,/SPI1_NCS*%
X138270000Y-88070000D03*
%TO.P,J1,13,Pin_13*%
%TO.N,/SPI2_MOSI*%
X135730000Y-90610000D03*
%TO.P,J1,14,Pin_14*%
%TO.N,/SPI2_MISO*%
X138270000Y-90610000D03*
%TO.P,J1,15,Pin_15*%
%TO.N,/SPI2_SCK*%
X135730000Y-93150000D03*
%TO.P,J1,16,Pin_16*%
%TO.N,/SPI2_NCS*%
X138270000Y-93150000D03*
%TO.P,J1,17,Pin_17*%
%TO.N,/I2C2_SDA*%
X135730000Y-95690000D03*
%TO.P,J1,18,Pin_18*%
%TO.N,/I2C2_SCL*%
X138270000Y-95690000D03*
%TO.P,J1,19,Pin_19*%
%TO.N,GND*%
X135730000Y-98230000D03*
%TO.P,J1,20,Pin_20*%
X138270000Y-98230000D03*
%TO.P,J1,21,Pin_21*%
%TO.N,/ADC0*%
X135730000Y-100770000D03*
%TO.P,J1,22,Pin_22*%
%TO.N,/ADC1*%
X138270000Y-100770000D03*
%TO.P,J1,23,Pin_23*%
%TO.N,/ADC2*%
X135730000Y-103310000D03*
%TO.P,J1,24,Pin_24*%
%TO.N,/ADC3*%
X138270000Y-103310000D03*
%TO.P,J1,25,Pin_25*%
%TO.N,/ADC4*%
X135730000Y-105850000D03*
%TO.P,J1,26,Pin_26*%
%TO.N,/ADC5*%
X138270000Y-105850000D03*
%TO.P,J1,27,Pin_27*%
%TO.N,/ADC6*%
X135730000Y-108390000D03*
%TO.P,J1,28,Pin_28*%
%TO.N,/ADC7*%
X138270000Y-108390000D03*
%TO.P,J1,29,Pin_29*%
%TO.N,/ADC8*%
X135730000Y-110930000D03*
%TO.P,J1,30,Pin_30*%
%TO.N,/ADC9*%
X138270000Y-110930000D03*
%TO.P,J1,31,Pin_31*%
%TO.N,/GPIO0*%
X135730000Y-113470000D03*
%TO.P,J1,32,Pin_32*%
%TO.N,/GPIO1*%
X138270000Y-113470000D03*
%TO.P,J1,33,Pin_33*%
%TO.N,/GPIO2*%
X135730000Y-116010000D03*
%TO.P,J1,34,Pin_34*%
%TO.N,/GPIO3*%
X138270000Y-116010000D03*
%TO.P,J1,35,Pin_35*%
%TO.N,unconnected-(J1-Pad35)*%
X135730000Y-118550000D03*
%TO.P,J1,36,Pin_36*%
%TO.N,unconnected-(J1-Pad36)*%
X138270000Y-118550000D03*
%TO.P,J1,37,Pin_37*%
%TO.N,GND*%
X135730000Y-121090000D03*
%TO.P,J1,38,Pin_38*%
X138270000Y-121090000D03*
%TO.P,J1,39,Pin_39*%
%TO.N,/VM*%
X135730000Y-123630000D03*
%TO.P,J1,40,Pin_40*%
X138270000Y-123630000D03*
%TD*%
D12*
%TO.N,/I2C1_SDA*%
X162000000Y-74100000D03*
%TO.N,/I2C2_SDA*%
X150750000Y-82000000D03*
X149300000Y-94400000D03*
%TO.N,/I2C2_SCL*%
X150000000Y-95500000D03*
X151000000Y-83300000D03*
%TO.N,/ADC0*%
X155200000Y-94500000D03*
X156750000Y-93000000D03*
%TO.N,/ADC1*%
X156200000Y-95500000D03*
X157750000Y-94000000D03*
%TO.N,/ADC4*%
X157600000Y-97000000D03*
X141700000Y-101000000D03*
X141000000Y-104500000D03*
%TO.N,/ADC5*%
X142500000Y-104500000D03*
X165000000Y-99500000D03*
X143100000Y-101200000D03*
%TO.N,GND*%
X158000000Y-98300000D03*
%TD*%
D13*
%TO.N,/I2C1_SDA*%
X165015489Y-74857435D02*
X164258054Y-74100000D01*
X165015489Y-79205489D02*
X165015489Y-74857435D01*
X166265000Y-80455000D02*
X165015489Y-79205489D01*
X164258054Y-74100000D02*
X162000000Y-74100000D01*
%TO.N,/I2C2_SDA*%
X149800000Y-82950000D02*
X149800000Y-93900000D01*
X150750000Y-82000000D02*
X149800000Y-82950000D01*
X149800000Y-93900000D02*
X149300000Y-94400000D01*
%TO.N,/I2C2_SCL*%
X150500000Y-83800000D02*
X151000000Y-83300000D01*
X150500000Y-95000000D02*
X150500000Y-83800000D01*
X150000000Y-95500000D02*
X150500000Y-95000000D01*
%TO.N,/ADC0*%
X156750000Y-93000000D02*
X156700000Y-93000000D01*
X156700000Y-93000000D02*
X155200000Y-94500000D01*
%TO.N,/ADC1*%
X157750000Y-94000000D02*
X157700000Y-94000000D01*
X157700000Y-94000000D02*
X156200000Y-95500000D01*
%TO.N,/ADC4*%
X141750000Y-103750000D02*
X141750000Y-101050000D01*
X165015489Y-96212565D02*
X165015489Y-86784511D01*
X157614511Y-96985489D02*
X164242565Y-96985489D01*
X141750000Y-101050000D02*
X141700000Y-101000000D01*
X164242565Y-96985489D02*
X165015489Y-96212565D01*
X157600000Y-97000000D02*
X157614511Y-96985489D01*
X165015489Y-86784511D02*
X166265000Y-85535000D01*
X141000000Y-104500000D02*
X141750000Y-103750000D01*
%TO.N,/ADC5*%
X165000000Y-99500000D02*
X166808054Y-99500000D01*
X167514511Y-98793543D02*
X167514511Y-84244511D01*
X142500000Y-104500000D02*
X142800000Y-104200000D01*
X166808054Y-99500000D02*
X167514511Y-98793543D01*
X167514511Y-84244511D02*
X166265000Y-82995000D01*
X142800000Y-101500000D02*
X143100000Y-101200000D01*
X142800000Y-104200000D02*
X142800000Y-101500000D01*
%TD*%
%TA.AperFunction,Conductor*%
%TO.N,GND*%
G36*
X165978311Y-69401551D02*
G01*
X166000000Y-69404986D01*
X166009856Y-69403425D01*
X166011157Y-69403219D01*
X166037046Y-69401820D01*
X166238755Y-69411729D01*
X166346684Y-69417031D01*
X166358980Y-69418242D01*
X166696201Y-69468265D01*
X166708323Y-69470675D01*
X166765406Y-69484974D01*
X167039019Y-69553511D01*
X167050851Y-69557100D01*
X167371832Y-69671949D01*
X167383256Y-69676681D01*
X167527467Y-69744887D01*
X167691438Y-69822439D01*
X167702339Y-69828266D01*
X167994747Y-70003529D01*
X168005028Y-70010399D01*
X168278838Y-70213470D01*
X168288397Y-70221314D01*
X168541003Y-70450264D01*
X168549741Y-70459002D01*
X168778686Y-70711603D01*
X168786530Y-70721162D01*
X168989601Y-70994972D01*
X168996471Y-71005253D01*
X169171734Y-71297661D01*
X169177563Y-71308566D01*
X169323319Y-71616744D01*
X169328051Y-71628168D01*
X169442900Y-71949149D01*
X169446489Y-71960981D01*
X169529324Y-72291674D01*
X169531735Y-72303799D01*
X169574722Y-72593586D01*
X169581757Y-72641015D01*
X169582969Y-72653321D01*
X169598180Y-72962954D01*
X169596781Y-72988843D01*
X169595014Y-73000000D01*
X169596565Y-73009793D01*
X169598449Y-73021687D01*
X169600000Y-73041398D01*
X169600000Y-125958602D01*
X169598449Y-125978311D01*
X169595014Y-126000000D01*
X169596566Y-126009798D01*
X169596781Y-126011157D01*
X169598180Y-126037046D01*
X169582969Y-126346679D01*
X169581758Y-126358980D01*
X169565599Y-126467910D01*
X169531736Y-126696198D01*
X169529324Y-126708326D01*
X169446489Y-127039019D01*
X169442900Y-127050851D01*
X169328051Y-127371832D01*
X169323319Y-127383256D01*
X169177563Y-127691434D01*
X169171734Y-127702339D01*
X168996471Y-127994747D01*
X168989601Y-128005028D01*
X168786530Y-128278838D01*
X168778686Y-128288397D01*
X168549741Y-128540998D01*
X168541003Y-128549736D01*
X168425497Y-128654425D01*
X168288397Y-128778686D01*
X168278838Y-128786530D01*
X168005028Y-128989601D01*
X167994747Y-128996471D01*
X167702339Y-129171734D01*
X167691438Y-129177561D01*
X167552421Y-129243311D01*
X167383256Y-129323319D01*
X167371832Y-129328051D01*
X167050851Y-129442900D01*
X167039019Y-129446489D01*
X166804233Y-129505300D01*
X166708323Y-129529325D01*
X166696201Y-129531735D01*
X166358980Y-129581758D01*
X166346684Y-129582969D01*
X166238755Y-129588271D01*
X166037046Y-129598180D01*
X166011157Y-129596781D01*
X166009798Y-129596566D01*
X166000000Y-129595014D01*
X165978311Y-129598449D01*
X165958602Y-129600000D01*
X136041398Y-129600000D01*
X136021689Y-129598449D01*
X136000000Y-129595014D01*
X135990202Y-129596566D01*
X135988843Y-129596781D01*
X135962954Y-129598180D01*
X135761245Y-129588271D01*
X135653316Y-129582969D01*
X135641020Y-129581758D01*
X135303799Y-129531735D01*
X135291677Y-129529325D01*
X135195767Y-129505300D01*
X134960981Y-129446489D01*
X134949149Y-129442900D01*
X134628168Y-129328051D01*
X134616744Y-129323319D01*
X134447579Y-129243311D01*
X134308562Y-129177561D01*
X134297661Y-129171734D01*
X134005253Y-128996471D01*
X133994972Y-128989601D01*
X133721162Y-128786530D01*
X133711603Y-128778686D01*
X133574503Y-128654425D01*
X133458997Y-128549736D01*
X133450259Y-128540998D01*
X133221314Y-128288397D01*
X133213470Y-128278838D01*
X133010399Y-128005028D01*
X133003529Y-127994747D01*
X132828266Y-127702339D01*
X132822437Y-127691434D01*
X132676681Y-127383256D01*
X132671949Y-127371832D01*
X132557100Y-127050851D01*
X132553511Y-127039019D01*
X132470676Y-126708326D01*
X132468264Y-126696198D01*
X132434401Y-126467910D01*
X132418242Y-126358980D01*
X132417031Y-126346679D01*
X132401820Y-126037046D01*
X132403219Y-126011157D01*
X132403434Y-126009798D01*
X132404986Y-126000000D01*
X132401551Y-125978311D01*
X132400000Y-125958602D01*
X132400000Y-121357966D01*
X134398257Y-121357966D01*
X134428565Y-121492446D01*
X134431645Y-121502275D01*
X134511770Y-121699603D01*
X134516413Y-121708794D01*
X134627694Y-121890388D01*
X134633777Y-121898699D01*
X134773213Y-122059667D01*
X134780580Y-122066883D01*
X134944434Y-122202916D01*
X134952876Y-122208828D01*
X135129533Y-122312058D01*
X135178256Y-122363697D01*
X135191327Y-122433480D01*
X135164595Y-122499252D01*
X135119211Y-122535041D01*
X135102362Y-122542898D01*
X134923123Y-122668402D01*
X134768402Y-122823123D01*
X134642898Y-123002362D01*
X134640577Y-123007340D01*
X134640575Y-123007343D01*
X134638241Y-123012348D01*
X134550425Y-123200670D01*
X134493793Y-123412023D01*
X134474723Y-123630000D01*
X134493793Y-123847977D01*
X134550425Y-124059330D01*
X134552747Y-124064310D01*
X134552748Y-124064312D01*
X134636820Y-124244603D01*
X134642898Y-124257638D01*
X134768402Y-124436877D01*
X134923123Y-124591598D01*
X134927631Y-124594755D01*
X134927634Y-124594757D01*
X135097852Y-124713945D01*
X135102361Y-124717102D01*
X135107343Y-124719425D01*
X135107348Y-124719428D01*
X135214096Y-124769205D01*
X135300670Y-124809575D01*
X135305978Y-124810997D01*
X135305980Y-124810998D01*
X135319330Y-124814575D01*
X135512023Y-124866207D01*
X135730000Y-124885277D01*
X135947977Y-124866207D01*
X136140670Y-124814575D01*
X136154020Y-124810998D01*
X136154022Y-124810997D01*
X136159330Y-124809575D01*
X136245904Y-124769205D01*
X136352652Y-124719428D01*
X136352657Y-124719425D01*
X136357639Y-124717102D01*
X136362148Y-124713945D01*
X136532366Y-124594757D01*
X136532369Y-124594755D01*
X136536877Y-124591598D01*
X136691598Y-124436877D01*
X136817102Y-124257638D01*
X136823181Y-124244603D01*
X136885805Y-124110305D01*
X136932723Y-124057020D01*
X137001000Y-124037559D01*
X137068960Y-124058101D01*
X137114195Y-124110305D01*
X137176820Y-124244603D01*
X137182898Y-124257638D01*
X137308402Y-124436877D01*
X137463123Y-124591598D01*
X137467631Y-124594755D01*
X137467634Y-124594757D01*
X137637852Y-124713945D01*
X137642361Y-124717102D01*
X137647343Y-124719425D01*
X137647348Y-124719428D01*
X137754096Y-124769205D01*
X137840670Y-124809575D01*
X137845978Y-124810997D01*
X137845980Y-124810998D01*
X137859330Y-124814575D01*
X138052023Y-124866207D01*
X138270000Y-124885277D01*
X138487977Y-124866207D01*
X138680670Y-124814575D01*
X138694020Y-124810998D01*
X138694022Y-124810997D01*
X138699330Y-124809575D01*
X138785904Y-124769205D01*
X138892652Y-124719428D01*
X138892657Y-124719425D01*
X138897639Y-124717102D01*
X138902148Y-124713945D01*
X139072366Y-124594757D01*
X139072369Y-124594755D01*
X139076877Y-124591598D01*
X139231598Y-124436877D01*
X139357102Y-124257638D01*
X139363181Y-124244603D01*
X139447252Y-124064312D01*
X139447253Y-124064310D01*
X139449575Y-124059330D01*
X139506207Y-123847977D01*
X139525277Y-123630000D01*
X139506207Y-123412023D01*
X139449575Y-123200670D01*
X139361759Y-123012348D01*
X139359425Y-123007343D01*
X139359423Y-123007340D01*
X139357102Y-123002362D01*
X139231598Y-122823123D01*
X139076877Y-122668402D01*
X139072369Y-122665245D01*
X139072366Y-122665243D01*
X138902148Y-122546055D01*
X138902145Y-122546053D01*
X138897639Y-122542898D01*
X138892653Y-122540573D01*
X138892646Y-122540569D01*
X138877060Y-122533301D01*
X138823775Y-122486383D01*
X138804315Y-122418106D01*
X138824858Y-122350146D01*
X138874879Y-122305955D01*
X138963100Y-122262736D01*
X138971945Y-122257464D01*
X139145328Y-122133792D01*
X139153200Y-122127139D01*
X139304052Y-121976812D01*
X139310730Y-121968965D01*
X139435003Y-121796020D01*
X139440313Y-121787183D01*
X139534670Y-121596267D01*
X139538469Y-121586672D01*
X139600377Y-121382910D01*
X139602555Y-121372837D01*
X139603986Y-121361962D01*
X139601775Y-121347778D01*
X139588617Y-121344000D01*
X134413225Y-121344000D01*
X134399694Y-121347973D01*
X134398257Y-121357966D01*
X132400000Y-121357966D01*
X132400000Y-120824183D01*
X134394389Y-120824183D01*
X134395912Y-120832607D01*
X134408292Y-120836000D01*
X139588344Y-120836000D01*
X139601875Y-120832027D01*
X139603180Y-120822947D01*
X139561214Y-120655875D01*
X139557894Y-120646124D01*
X139472972Y-120450814D01*
X139468105Y-120441739D01*
X139352426Y-120262926D01*
X139346136Y-120254757D01*
X139202806Y-120097240D01*
X139195273Y-120090215D01*
X139028139Y-119958222D01*
X139019552Y-119952517D01*
X138870952Y-119870485D01*
X138820982Y-119820053D01*
X138806210Y-119750610D01*
X138831326Y-119684205D01*
X138878596Y-119645982D01*
X138892652Y-119639428D01*
X138892657Y-119639425D01*
X138897639Y-119637102D01*
X139065225Y-119519757D01*
X139072366Y-119514757D01*
X139072369Y-119514755D01*
X139076877Y-119511598D01*
X139231598Y-119356877D01*
X139357102Y-119177638D01*
X139447244Y-118984330D01*
X139447252Y-118984312D01*
X139447253Y-118984310D01*
X139449575Y-118979330D01*
X139506207Y-118767977D01*
X139525277Y-118550000D01*
X139506207Y-118332023D01*
X139449575Y-118120670D01*
X139447252Y-118115688D01*
X139359425Y-117927343D01*
X139359423Y-117927340D01*
X139357102Y-117922362D01*
X139231598Y-117743123D01*
X139076877Y-117588402D01*
X139072369Y-117585245D01*
X139072366Y-117585243D01*
X138902148Y-117466055D01*
X138902145Y-117466053D01*
X138897639Y-117462898D01*
X138892657Y-117460575D01*
X138892652Y-117460572D01*
X138750305Y-117394195D01*
X138697020Y-117347278D01*
X138677559Y-117279000D01*
X138698101Y-117211040D01*
X138750305Y-117165805D01*
X138892652Y-117099428D01*
X138892657Y-117099425D01*
X138897639Y-117097102D01*
X139065225Y-116979757D01*
X139072366Y-116974757D01*
X139072369Y-116974755D01*
X139076877Y-116971598D01*
X139231598Y-116816877D01*
X139357102Y-116637638D01*
X139447244Y-116444330D01*
X139447252Y-116444312D01*
X139447253Y-116444310D01*
X139449575Y-116439330D01*
X139506207Y-116227977D01*
X139525277Y-116010000D01*
X139506207Y-115792023D01*
X139449575Y-115580670D01*
X139447252Y-115575688D01*
X139359425Y-115387343D01*
X139359423Y-115387340D01*
X139357102Y-115382362D01*
X139231598Y-115203123D01*
X139076877Y-115048402D01*
X139072369Y-115045245D01*
X139072366Y-115045243D01*
X138902148Y-114926055D01*
X138902145Y-114926053D01*
X138897639Y-114922898D01*
X138892657Y-114920575D01*
X138892652Y-114920572D01*
X138750305Y-114854195D01*
X138697020Y-114807278D01*
X138677559Y-114739000D01*
X138698101Y-114671040D01*
X138750305Y-114625805D01*
X138892652Y-114559428D01*
X138892657Y-114559425D01*
X138897639Y-114557102D01*
X139065225Y-114439757D01*
X139072366Y-114434757D01*
X139072369Y-114434755D01*
X139076877Y-114431598D01*
X139231598Y-114276877D01*
X139357102Y-114097638D01*
X139447244Y-113904330D01*
X139447252Y-113904312D01*
X139447253Y-113904310D01*
X139449575Y-113899330D01*
X139506207Y-113687977D01*
X139525277Y-113470000D01*
X139506207Y-113252023D01*
X139449575Y-113040670D01*
X139447252Y-113035688D01*
X139359425Y-112847343D01*
X139359423Y-112847340D01*
X139357102Y-112842362D01*
X139231598Y-112663123D01*
X139076877Y-112508402D01*
X139072369Y-112505245D01*
X139072366Y-112505243D01*
X138902148Y-112386055D01*
X138902145Y-112386053D01*
X138897639Y-112382898D01*
X138892657Y-112380575D01*
X138892652Y-112380572D01*
X138750305Y-112314195D01*
X138697020Y-112267278D01*
X138677559Y-112199000D01*
X138698101Y-112131040D01*
X138750305Y-112085805D01*
X138892652Y-112019428D01*
X138892657Y-112019425D01*
X138897639Y-112017102D01*
X139065225Y-111899757D01*
X139072366Y-111894757D01*
X139072369Y-111894755D01*
X139076877Y-111891598D01*
X139231598Y-111736877D01*
X139357102Y-111557638D01*
X139447244Y-111364330D01*
X139447252Y-111364312D01*
X139447253Y-111364310D01*
X139449575Y-111359330D01*
X139506207Y-111147977D01*
X139525277Y-110930000D01*
X139506207Y-110712023D01*
X139449575Y-110500670D01*
X139447252Y-110495688D01*
X139359425Y-110307343D01*
X139359423Y-110307340D01*
X139357102Y-110302362D01*
X139231598Y-110123123D01*
X139076877Y-109968402D01*
X139072369Y-109965245D01*
X139072366Y-109965243D01*
X138902148Y-109846055D01*
X138902145Y-109846053D01*
X138897639Y-109842898D01*
X138892657Y-109840575D01*
X138892652Y-109840572D01*
X138750305Y-109774195D01*
X138697020Y-109727278D01*
X138677559Y-109659000D01*
X138698101Y-109591040D01*
X138750305Y-109545805D01*
X138892652Y-109479428D01*
X138892657Y-109479425D01*
X138897639Y-109477102D01*
X139065225Y-109359757D01*
X139072366Y-109354757D01*
X139072369Y-109354755D01*
X139076877Y-109351598D01*
X139231598Y-109196877D01*
X139357102Y-109017638D01*
X139447244Y-108824330D01*
X139447252Y-108824312D01*
X139447253Y-108824310D01*
X139449575Y-108819330D01*
X139506207Y-108607977D01*
X139525277Y-108390000D01*
X139506207Y-108172023D01*
X139449575Y-107960670D01*
X139447252Y-107955688D01*
X139359425Y-107767343D01*
X139359423Y-107767340D01*
X139357102Y-107762362D01*
X139231598Y-107583123D01*
X139076877Y-107428402D01*
X139072369Y-107425245D01*
X139072366Y-107425243D01*
X138902148Y-107306055D01*
X138902145Y-107306053D01*
X138897639Y-107302898D01*
X138892657Y-107300575D01*
X138892652Y-107300572D01*
X138750305Y-107234195D01*
X138697020Y-107187278D01*
X138677559Y-107119000D01*
X138698101Y-107051040D01*
X138750305Y-107005805D01*
X138892652Y-106939428D01*
X138892657Y-106939425D01*
X138897639Y-106937102D01*
X139065225Y-106819757D01*
X139072366Y-106814757D01*
X139072369Y-106814755D01*
X139076877Y-106811598D01*
X139231598Y-106656877D01*
X139357102Y-106477638D01*
X139447244Y-106284330D01*
X139447252Y-106284312D01*
X139447253Y-106284310D01*
X139449575Y-106279330D01*
X139506207Y-106067977D01*
X139525277Y-105850000D01*
X139506207Y-105632023D01*
X139449575Y-105420670D01*
X139447252Y-105415688D01*
X139359425Y-105227343D01*
X139359423Y-105227340D01*
X139357102Y-105222362D01*
X139231598Y-105043123D01*
X139076877Y-104888402D01*
X139072369Y-104885245D01*
X139072366Y-104885243D01*
X138902148Y-104766055D01*
X138902145Y-104766053D01*
X138897639Y-104762898D01*
X138892657Y-104760575D01*
X138892652Y-104760572D01*
X138750305Y-104694195D01*
X138697020Y-104647278D01*
X138677559Y-104579000D01*
X138698101Y-104511040D01*
X138723822Y-104488753D01*
X140194514Y-104488753D01*
X140195201Y-104495760D01*
X140195201Y-104495763D01*
X140198480Y-104529203D01*
X140212039Y-104667486D01*
X140214262Y-104674168D01*
X140214262Y-104674169D01*
X140249714Y-104780742D01*
X140268726Y-104837896D01*
X140272373Y-104843918D01*
X140302342Y-104893402D01*
X140361759Y-104991512D01*
X140366648Y-104996575D01*
X140366649Y-104996576D01*
X140416428Y-105048123D01*
X140486514Y-105120699D01*
X140636789Y-105219036D01*
X140805116Y-105281636D01*
X140812097Y-105282567D01*
X140812099Y-105282568D01*
X140976149Y-105304457D01*
X140976153Y-105304457D01*
X140983130Y-105305388D01*
X140990142Y-105304750D01*
X140990146Y-105304750D01*
X141154960Y-105289751D01*
X141154961Y-105289751D01*
X141161981Y-105289112D01*
X141332782Y-105233615D01*
X141343272Y-105227362D01*
X141480992Y-105145265D01*
X141480994Y-105145264D01*
X141487044Y-105141657D01*
X141617099Y-105017807D01*
X141643550Y-104977995D01*
X141697907Y-104932326D01*
X141768327Y-104923294D01*
X141832451Y-104953768D01*
X141856271Y-104982450D01*
X141861759Y-104991512D01*
X141866648Y-104996575D01*
X141866649Y-104996576D01*
X141916428Y-105048123D01*
X141986514Y-105120699D01*
X142136789Y-105219036D01*
X142305116Y-105281636D01*
X142312097Y-105282567D01*
X142312099Y-105282568D01*
X142476149Y-105304457D01*
X142476153Y-105304457D01*
X142483130Y-105305388D01*
X142490142Y-105304750D01*
X142490146Y-105304750D01*
X142654960Y-105289751D01*
X142654961Y-105289751D01*
X142661981Y-105289112D01*
X142832782Y-105233615D01*
X142843272Y-105227362D01*
X142980992Y-105145265D01*
X142980994Y-105145264D01*
X142987044Y-105141657D01*
X143117099Y-105017807D01*
X143134570Y-104991512D01*
X143197164Y-104897299D01*
X143216483Y-104868222D01*
X143249714Y-104780742D01*
X143277757Y-104706919D01*
X143277758Y-104706914D01*
X143280257Y-104700336D01*
X143299691Y-104562052D01*
X143318184Y-104518162D01*
X143315380Y-104516543D01*
X143319506Y-104509396D01*
X143324536Y-104502841D01*
X143385044Y-104356762D01*
X143400500Y-104239361D01*
X143405682Y-104200000D01*
X143401578Y-104168827D01*
X143400500Y-104152381D01*
X143400500Y-102024437D01*
X143420502Y-101956316D01*
X143461983Y-101916208D01*
X143580992Y-101845265D01*
X143580994Y-101845264D01*
X143587044Y-101841657D01*
X143717099Y-101717807D01*
X143816483Y-101568222D01*
X143843699Y-101496576D01*
X143877757Y-101406919D01*
X143877758Y-101406914D01*
X143880257Y-101400336D01*
X143888186Y-101343918D01*
X143904700Y-101226416D01*
X143904700Y-101226411D01*
X143905251Y-101222493D01*
X143905565Y-101200000D01*
X143885546Y-101021528D01*
X143871700Y-100981766D01*
X143828803Y-100858584D01*
X143826485Y-100851927D01*
X143778713Y-100775475D01*
X143735049Y-100705599D01*
X143731316Y-100699625D01*
X143661900Y-100629723D01*
X143609733Y-100577190D01*
X143609729Y-100577187D01*
X143604770Y-100572193D01*
X143593761Y-100565206D01*
X143546860Y-100535442D01*
X143453136Y-100475963D01*
X143423352Y-100465357D01*
X143290586Y-100418081D01*
X143290581Y-100418080D01*
X143283951Y-100415719D01*
X143276965Y-100414886D01*
X143276961Y-100414885D01*
X143149177Y-100399648D01*
X143105624Y-100394455D01*
X143098621Y-100395191D01*
X143098620Y-100395191D01*
X142934025Y-100412490D01*
X142934021Y-100412491D01*
X142927017Y-100413227D01*
X142920346Y-100415498D01*
X142763677Y-100468832D01*
X142763674Y-100468833D01*
X142757007Y-100471103D01*
X142751009Y-100474793D01*
X142751007Y-100474794D01*
X142732911Y-100485927D01*
X142604045Y-100565206D01*
X142599014Y-100570132D01*
X142599011Y-100570135D01*
X142572240Y-100596352D01*
X142509575Y-100629723D01*
X142438816Y-100623917D01*
X142382429Y-100580778D01*
X142377228Y-100573099D01*
X142335049Y-100505599D01*
X142331316Y-100499625D01*
X142250339Y-100418081D01*
X142209733Y-100377190D01*
X142209729Y-100377187D01*
X142204770Y-100372193D01*
X142193761Y-100365206D01*
X142081370Y-100293881D01*
X142053136Y-100275963D01*
X142023352Y-100265357D01*
X141890586Y-100218081D01*
X141890581Y-100218080D01*
X141883951Y-100215719D01*
X141876965Y-100214886D01*
X141876961Y-100214885D01*
X141749177Y-100199648D01*
X141705624Y-100194455D01*
X141698621Y-100195191D01*
X141698620Y-100195191D01*
X141534025Y-100212490D01*
X141534021Y-100212491D01*
X141527017Y-100213227D01*
X141520346Y-100215498D01*
X141363677Y-100268832D01*
X141363674Y-100268833D01*
X141357007Y-100271103D01*
X141351009Y-100274793D01*
X141351007Y-100274794D01*
X141326786Y-100289695D01*
X141204045Y-100365206D01*
X141199014Y-100370132D01*
X141199011Y-100370135D01*
X141173425Y-100395191D01*
X141075732Y-100490859D01*
X141071913Y-100496784D01*
X141071912Y-100496786D01*
X141024642Y-100570135D01*
X140978446Y-100641817D01*
X140976037Y-100648437D01*
X140976035Y-100648440D01*
X140955231Y-100705599D01*
X140917022Y-100810578D01*
X140894514Y-100988753D01*
X140895201Y-100995760D01*
X140895201Y-100995763D01*
X140898414Y-101028527D01*
X140912039Y-101167486D01*
X140914262Y-101174168D01*
X140914262Y-101174169D01*
X140921864Y-101197020D01*
X140968726Y-101337896D01*
X140972373Y-101343918D01*
X141002319Y-101393364D01*
X141061759Y-101491512D01*
X141101569Y-101532736D01*
X141114137Y-101545751D01*
X141147069Y-101608648D01*
X141149500Y-101633278D01*
X141149500Y-103449075D01*
X141129498Y-103517196D01*
X141112595Y-103538170D01*
X140982069Y-103668696D01*
X140919757Y-103702722D01*
X140906149Y-103704910D01*
X140827017Y-103713227D01*
X140820346Y-103715498D01*
X140663677Y-103768832D01*
X140663674Y-103768833D01*
X140657007Y-103771103D01*
X140651009Y-103774793D01*
X140651007Y-103774794D01*
X140617667Y-103795305D01*
X140504045Y-103865206D01*
X140499014Y-103870132D01*
X140499011Y-103870135D01*
X140436883Y-103930976D01*
X140375732Y-103990859D01*
X140371913Y-103996784D01*
X140371912Y-103996786D01*
X140294519Y-104116877D01*
X140278446Y-104141817D01*
X140217022Y-104310578D01*
X140194514Y-104488753D01*
X138723822Y-104488753D01*
X138750305Y-104465805D01*
X138892652Y-104399428D01*
X138892657Y-104399425D01*
X138897639Y-104397102D01*
X138944355Y-104364391D01*
X139072366Y-104274757D01*
X139072369Y-104274755D01*
X139076877Y-104271598D01*
X139231598Y-104116877D01*
X139357102Y-103937638D01*
X139388580Y-103870135D01*
X139447252Y-103744312D01*
X139447253Y-103744310D01*
X139449575Y-103739330D01*
X139506207Y-103527977D01*
X139525277Y-103310000D01*
X139506207Y-103092023D01*
X139449575Y-102880670D01*
X139447252Y-102875688D01*
X139359425Y-102687343D01*
X139359423Y-102687340D01*
X139357102Y-102682362D01*
X139231598Y-102503123D01*
X139076877Y-102348402D01*
X139072369Y-102345245D01*
X139072366Y-102345243D01*
X138902148Y-102226055D01*
X138902145Y-102226053D01*
X138897639Y-102222898D01*
X138892657Y-102220575D01*
X138892652Y-102220572D01*
X138750305Y-102154195D01*
X138697020Y-102107278D01*
X138677559Y-102039000D01*
X138698101Y-101971040D01*
X138750305Y-101925805D01*
X138892652Y-101859428D01*
X138892657Y-101859425D01*
X138897639Y-101857102D01*
X139065225Y-101739757D01*
X139072366Y-101734757D01*
X139072369Y-101734755D01*
X139076877Y-101731598D01*
X139231598Y-101576877D01*
X139357102Y-101397638D01*
X139384961Y-101337896D01*
X139447252Y-101204312D01*
X139447253Y-101204310D01*
X139449575Y-101199330D01*
X139506207Y-100987977D01*
X139525277Y-100770000D01*
X139506207Y-100552023D01*
X139457010Y-100368418D01*
X139450998Y-100345980D01*
X139450997Y-100345978D01*
X139449575Y-100340670D01*
X139421164Y-100279742D01*
X139359425Y-100147343D01*
X139359423Y-100147340D01*
X139357102Y-100142362D01*
X139231598Y-99963123D01*
X139076877Y-99808402D01*
X139072369Y-99805245D01*
X139072366Y-99805243D01*
X138902148Y-99686055D01*
X138902145Y-99686053D01*
X138897639Y-99682898D01*
X138892653Y-99680573D01*
X138892646Y-99680569D01*
X138877060Y-99673301D01*
X138823775Y-99626383D01*
X138804315Y-99558106D01*
X138824858Y-99490146D01*
X138874879Y-99445955D01*
X138963100Y-99402736D01*
X138971945Y-99397464D01*
X139145328Y-99273792D01*
X139153200Y-99267139D01*
X139304052Y-99116812D01*
X139310730Y-99108965D01*
X139435003Y-98936020D01*
X139440313Y-98927183D01*
X139534670Y-98736267D01*
X139538469Y-98726672D01*
X139600377Y-98522910D01*
X139602555Y-98512837D01*
X139603986Y-98501962D01*
X139601775Y-98487778D01*
X139588617Y-98484000D01*
X134413225Y-98484000D01*
X134399694Y-98487973D01*
X134398257Y-98497966D01*
X134428565Y-98632446D01*
X134431645Y-98642275D01*
X134511770Y-98839603D01*
X134516413Y-98848794D01*
X134627694Y-99030388D01*
X134633777Y-99038699D01*
X134773213Y-99199667D01*
X134780580Y-99206883D01*
X134944434Y-99342916D01*
X134952876Y-99348828D01*
X135129533Y-99452058D01*
X135178256Y-99503697D01*
X135191327Y-99573480D01*
X135164595Y-99639252D01*
X135119211Y-99675041D01*
X135102362Y-99682898D01*
X134923123Y-99808402D01*
X134768402Y-99963123D01*
X134642898Y-100142362D01*
X134640577Y-100147340D01*
X134640575Y-100147343D01*
X134578836Y-100279742D01*
X134550425Y-100340670D01*
X134549003Y-100345978D01*
X134549002Y-100345980D01*
X134542990Y-100368418D01*
X134493793Y-100552023D01*
X134474723Y-100770000D01*
X134493793Y-100987977D01*
X134550425Y-101199330D01*
X134552747Y-101204310D01*
X134552748Y-101204312D01*
X134615040Y-101337896D01*
X134642898Y-101397638D01*
X134768402Y-101576877D01*
X134923123Y-101731598D01*
X134927631Y-101734755D01*
X134927634Y-101734757D01*
X134934775Y-101739757D01*
X135102361Y-101857102D01*
X135107343Y-101859425D01*
X135107348Y-101859428D01*
X135249695Y-101925805D01*
X135302980Y-101972722D01*
X135322441Y-102041000D01*
X135301899Y-102108960D01*
X135249695Y-102154195D01*
X135107343Y-102220575D01*
X135107340Y-102220577D01*
X135102362Y-102222898D01*
X134923123Y-102348402D01*
X134768402Y-102503123D01*
X134642898Y-102682362D01*
X134640577Y-102687340D01*
X134640575Y-102687343D01*
X134552748Y-102875688D01*
X134550425Y-102880670D01*
X134493793Y-103092023D01*
X134474723Y-103310000D01*
X134493793Y-103527977D01*
X134550425Y-103739330D01*
X134552747Y-103744310D01*
X134552748Y-103744312D01*
X134611421Y-103870135D01*
X134642898Y-103937638D01*
X134768402Y-104116877D01*
X134923123Y-104271598D01*
X134927631Y-104274755D01*
X134927634Y-104274757D01*
X135055645Y-104364391D01*
X135102361Y-104397102D01*
X135107343Y-104399425D01*
X135107348Y-104399428D01*
X135249695Y-104465805D01*
X135302980Y-104512722D01*
X135322441Y-104581000D01*
X135301899Y-104648960D01*
X135249695Y-104694195D01*
X135107343Y-104760575D01*
X135107340Y-104760577D01*
X135102362Y-104762898D01*
X134923123Y-104888402D01*
X134768402Y-105043123D01*
X134642898Y-105222362D01*
X134640577Y-105227340D01*
X134640575Y-105227343D01*
X134552748Y-105415688D01*
X134550425Y-105420670D01*
X134493793Y-105632023D01*
X134474723Y-105850000D01*
X134493793Y-106067977D01*
X134550425Y-106279330D01*
X134552747Y-106284310D01*
X134552757Y-106284330D01*
X134642898Y-106477638D01*
X134768402Y-106656877D01*
X134923123Y-106811598D01*
X134927631Y-106814755D01*
X134927634Y-106814757D01*
X134934775Y-106819757D01*
X135102361Y-106937102D01*
X135107343Y-106939425D01*
X135107348Y-106939428D01*
X135249695Y-107005805D01*
X135302980Y-107052722D01*
X135322441Y-107121000D01*
X135301899Y-107188960D01*
X135249695Y-107234195D01*
X135107343Y-107300575D01*
X135107340Y-107300577D01*
X135102362Y-107302898D01*
X134923123Y-107428402D01*
X134768402Y-107583123D01*
X134642898Y-107762362D01*
X134640577Y-107767340D01*
X134640575Y-107767343D01*
X134552748Y-107955688D01*
X134550425Y-107960670D01*
X134493793Y-108172023D01*
X134474723Y-108390000D01*
X134493793Y-108607977D01*
X134550425Y-108819330D01*
X134552747Y-108824310D01*
X134552757Y-108824330D01*
X134642898Y-109017638D01*
X134768402Y-109196877D01*
X134923123Y-109351598D01*
X134927631Y-109354755D01*
X134927634Y-109354757D01*
X134934775Y-109359757D01*
X135102361Y-109477102D01*
X135107343Y-109479425D01*
X135107348Y-109479428D01*
X135249695Y-109545805D01*
X135302980Y-109592722D01*
X135322441Y-109661000D01*
X135301899Y-109728960D01*
X135249695Y-109774195D01*
X135107343Y-109840575D01*
X135107340Y-109840577D01*
X135102362Y-109842898D01*
X134923123Y-109968402D01*
X134768402Y-110123123D01*
X134642898Y-110302362D01*
X134640577Y-110307340D01*
X134640575Y-110307343D01*
X134552748Y-110495688D01*
X134550425Y-110500670D01*
X134493793Y-110712023D01*
X134474723Y-110930000D01*
X134493793Y-111147977D01*
X134550425Y-111359330D01*
X134552747Y-111364310D01*
X134552757Y-111364330D01*
X134642898Y-111557638D01*
X134768402Y-111736877D01*
X134923123Y-111891598D01*
X134927631Y-111894755D01*
X134927634Y-111894757D01*
X134934775Y-111899757D01*
X135102361Y-112017102D01*
X135107343Y-112019425D01*
X135107348Y-112019428D01*
X135249695Y-112085805D01*
X135302980Y-112132722D01*
X135322441Y-112201000D01*
X135301899Y-112268960D01*
X135249695Y-112314195D01*
X135107343Y-112380575D01*
X135107340Y-112380577D01*
X135102362Y-112382898D01*
X134923123Y-112508402D01*
X134768402Y-112663123D01*
X134642898Y-112842362D01*
X134640577Y-112847340D01*
X134640575Y-112847343D01*
X134552748Y-113035688D01*
X134550425Y-113040670D01*
X134493793Y-113252023D01*
X134474723Y-113470000D01*
X134493793Y-113687977D01*
X134550425Y-113899330D01*
X134552747Y-113904310D01*
X134552757Y-113904330D01*
X134642898Y-114097638D01*
X134768402Y-114276877D01*
X134923123Y-114431598D01*
X134927631Y-114434755D01*
X134927634Y-114434757D01*
X134934775Y-114439757D01*
X135102361Y-114557102D01*
X135107343Y-114559425D01*
X135107348Y-114559428D01*
X135249695Y-114625805D01*
X135302980Y-114672722D01*
X135322441Y-114741000D01*
X135301899Y-114808960D01*
X135249695Y-114854195D01*
X135107343Y-114920575D01*
X135107340Y-114920577D01*
X135102362Y-114922898D01*
X134923123Y-115048402D01*
X134768402Y-115203123D01*
X134642898Y-115382362D01*
X134640577Y-115387340D01*
X134640575Y-115387343D01*
X134552748Y-115575688D01*
X134550425Y-115580670D01*
X134493793Y-115792023D01*
X134474723Y-116010000D01*
X134493793Y-116227977D01*
X134550425Y-116439330D01*
X134552747Y-116444310D01*
X134552757Y-116444330D01*
X134642898Y-116637638D01*
X134768402Y-116816877D01*
X134923123Y-116971598D01*
X134927631Y-116974755D01*
X134927634Y-116974757D01*
X134934775Y-116979757D01*
X135102361Y-117097102D01*
X135107343Y-117099425D01*
X135107348Y-117099428D01*
X135249695Y-117165805D01*
X135302980Y-117212722D01*
X135322441Y-117281000D01*
X135301899Y-117348960D01*
X135249695Y-117394195D01*
X135107343Y-117460575D01*
X135107340Y-117460577D01*
X135102362Y-117462898D01*
X134923123Y-117588402D01*
X134768402Y-117743123D01*
X134642898Y-117922362D01*
X134640577Y-117927340D01*
X134640575Y-117927343D01*
X134552748Y-118115688D01*
X134550425Y-118120670D01*
X134493793Y-118332023D01*
X134474723Y-118550000D01*
X134493793Y-118767977D01*
X134550425Y-118979330D01*
X134552747Y-118984310D01*
X134552757Y-118984330D01*
X134642898Y-119177638D01*
X134768402Y-119356877D01*
X134923123Y-119511598D01*
X134927631Y-119514755D01*
X134927634Y-119514757D01*
X134934775Y-119519757D01*
X135102361Y-119637102D01*
X135107343Y-119639425D01*
X135107348Y-119639428D01*
X135122663Y-119646569D01*
X135175948Y-119693486D01*
X135195409Y-119761764D01*
X135174867Y-119829724D01*
X135127593Y-119872527D01*
X135008463Y-119934542D01*
X134999738Y-119940036D01*
X134829433Y-120067905D01*
X134821726Y-120074748D01*
X134674590Y-120228717D01*
X134668104Y-120236727D01*
X134548098Y-120412649D01*
X134543000Y-120421623D01*
X134453338Y-120614783D01*
X134449775Y-120624470D01*
X134394389Y-120824183D01*
X132400000Y-120824183D01*
X132400000Y-76264669D01*
X134372001Y-76264669D01*
X134372371Y-76271490D01*
X134377895Y-76322352D01*
X134381521Y-76337604D01*
X134426676Y-76458054D01*
X134435214Y-76473649D01*
X134511715Y-76575724D01*
X134524276Y-76588285D01*
X134626351Y-76664786D01*
X134641946Y-76673324D01*
X134762394Y-76718478D01*
X134777649Y-76722105D01*
X134828514Y-76727631D01*
X134835328Y-76728000D01*
X134840353Y-76728000D01*
X134908474Y-76748002D01*
X134954967Y-76801658D01*
X134965071Y-76871932D01*
X134935577Y-76936512D01*
X134924421Y-76947493D01*
X134923123Y-76948402D01*
X134768402Y-77103123D01*
X134642898Y-77282362D01*
X134640577Y-77287340D01*
X134640575Y-77287343D01*
X134574195Y-77429695D01*
X134550425Y-77480670D01*
X134493793Y-77692023D01*
X134474723Y-77910000D01*
X134493793Y-78127977D01*
X134550425Y-78339330D01*
X134552747Y-78344310D01*
X134552757Y-78344330D01*
X134642898Y-78537638D01*
X134768402Y-78716877D01*
X134923123Y-78871598D01*
X134927631Y-78874755D01*
X134927634Y-78874757D01*
X135097852Y-78993945D01*
X135102361Y-78997102D01*
X135107343Y-78999425D01*
X135107348Y-78999428D01*
X135249695Y-79065805D01*
X135302980Y-79112722D01*
X135322441Y-79181000D01*
X135301899Y-79248960D01*
X135249695Y-79294195D01*
X135107343Y-79360575D01*
X135107340Y-79360577D01*
X135102362Y-79362898D01*
X134923123Y-79488402D01*
X134768402Y-79643123D01*
X134642898Y-79822362D01*
X134640577Y-79827340D01*
X134640575Y-79827343D01*
X134619618Y-79872285D01*
X134550425Y-80020670D01*
X134493793Y-80232023D01*
X134474723Y-80450000D01*
X134493793Y-80667977D01*
X134550425Y-80879330D01*
X134552747Y-80884310D01*
X134552757Y-80884330D01*
X134642898Y-81077638D01*
X134768402Y-81256877D01*
X134923123Y-81411598D01*
X134927631Y-81414755D01*
X134927634Y-81414757D01*
X135048838Y-81499625D01*
X135102361Y-81537102D01*
X135107343Y-81539425D01*
X135107348Y-81539428D01*
X135249695Y-81605805D01*
X135302980Y-81652722D01*
X135322441Y-81721000D01*
X135301899Y-81788960D01*
X135249695Y-81834195D01*
X135107343Y-81900575D01*
X135107340Y-81900577D01*
X135102362Y-81902898D01*
X134923123Y-82028402D01*
X134768402Y-82183123D01*
X134642898Y-82362362D01*
X134640577Y-82367340D01*
X134640575Y-82367343D01*
X134570931Y-82516695D01*
X134550425Y-82560670D01*
X134493793Y-82772023D01*
X134474723Y-82990000D01*
X134493793Y-83207977D01*
X134550425Y-83419330D01*
X134552747Y-83424310D01*
X134552748Y-83424312D01*
X134591269Y-83506919D01*
X134642898Y-83617638D01*
X134768402Y-83796877D01*
X134923123Y-83951598D01*
X134927631Y-83954755D01*
X134927634Y-83954757D01*
X135097852Y-84073945D01*
X135102361Y-84077102D01*
X135107343Y-84079425D01*
X135107348Y-84079428D01*
X135249695Y-84145805D01*
X135302980Y-84192722D01*
X135322441Y-84261000D01*
X135301899Y-84328960D01*
X135249695Y-84374195D01*
X135107343Y-84440575D01*
X135107340Y-84440577D01*
X135102362Y-84442898D01*
X134923123Y-84568402D01*
X134768402Y-84723123D01*
X134642898Y-84902362D01*
X134640577Y-84907340D01*
X134640575Y-84907343D01*
X134552748Y-85095688D01*
X134550425Y-85100670D01*
X134493793Y-85312023D01*
X134474723Y-85530000D01*
X134493793Y-85747977D01*
X134550425Y-85959330D01*
X134552747Y-85964310D01*
X134552748Y-85964312D01*
X134624282Y-86117715D01*
X134642898Y-86157638D01*
X134768402Y-86336877D01*
X134923123Y-86491598D01*
X134927631Y-86494755D01*
X134927634Y-86494757D01*
X135097852Y-86613945D01*
X135102361Y-86617102D01*
X135107343Y-86619425D01*
X135107348Y-86619428D01*
X135249695Y-86685805D01*
X135302980Y-86732722D01*
X135322441Y-86801000D01*
X135301899Y-86868960D01*
X135249695Y-86914195D01*
X135107343Y-86980575D01*
X135107340Y-86980577D01*
X135102362Y-86982898D01*
X134923123Y-87108402D01*
X134768402Y-87263123D01*
X134642898Y-87442362D01*
X134640577Y-87447340D01*
X134640575Y-87447343D01*
X134574195Y-87589695D01*
X134550425Y-87640670D01*
X134493793Y-87852023D01*
X134474723Y-88070000D01*
X134493793Y-88287977D01*
X134550425Y-88499330D01*
X134552747Y-88504310D01*
X134552757Y-88504330D01*
X134642898Y-88697638D01*
X134768402Y-88876877D01*
X134923123Y-89031598D01*
X134927631Y-89034755D01*
X134927634Y-89034757D01*
X135097852Y-89153945D01*
X135102361Y-89157102D01*
X135107343Y-89159425D01*
X135107348Y-89159428D01*
X135249695Y-89225805D01*
X135302980Y-89272722D01*
X135322441Y-89341000D01*
X135301899Y-89408960D01*
X135249695Y-89454195D01*
X135107343Y-89520575D01*
X135107340Y-89520577D01*
X135102362Y-89522898D01*
X134923123Y-89648402D01*
X134768402Y-89803123D01*
X134642898Y-89982362D01*
X134640577Y-89987340D01*
X134640575Y-89987343D01*
X134574195Y-90129695D01*
X134550425Y-90180670D01*
X134493793Y-90392023D01*
X134474723Y-90610000D01*
X134493793Y-90827977D01*
X134550425Y-91039330D01*
X134552747Y-91044310D01*
X134552757Y-91044330D01*
X134642898Y-91237638D01*
X134768402Y-91416877D01*
X134923123Y-91571598D01*
X134927631Y-91574755D01*
X134927634Y-91574757D01*
X135097852Y-91693945D01*
X135102361Y-91697102D01*
X135107343Y-91699425D01*
X135107348Y-91699428D01*
X135249695Y-91765805D01*
X135302980Y-91812722D01*
X135322441Y-91881000D01*
X135301899Y-91948960D01*
X135249695Y-91994195D01*
X135107343Y-92060575D01*
X135107340Y-92060577D01*
X135102362Y-92062898D01*
X134923123Y-92188402D01*
X134768402Y-92343123D01*
X134642898Y-92522362D01*
X134640577Y-92527340D01*
X134640575Y-92527343D01*
X134579376Y-92658584D01*
X134550425Y-92720670D01*
X134493793Y-92932023D01*
X134474723Y-93150000D01*
X134493793Y-93367977D01*
X134550425Y-93579330D01*
X134552747Y-93584310D01*
X134552748Y-93584312D01*
X134639851Y-93771103D01*
X134642898Y-93777638D01*
X134768402Y-93956877D01*
X134923123Y-94111598D01*
X134927631Y-94114755D01*
X134927634Y-94114757D01*
X135097852Y-94233945D01*
X135102361Y-94237102D01*
X135107343Y-94239425D01*
X135107348Y-94239428D01*
X135249695Y-94305805D01*
X135302980Y-94352722D01*
X135322441Y-94421000D01*
X135301899Y-94488960D01*
X135249695Y-94534195D01*
X135107343Y-94600575D01*
X135107340Y-94600577D01*
X135102362Y-94602898D01*
X134923123Y-94728402D01*
X134768402Y-94883123D01*
X134642898Y-95062362D01*
X134640577Y-95067340D01*
X134640575Y-95067343D01*
X134584847Y-95186852D01*
X134550425Y-95260670D01*
X134493793Y-95472023D01*
X134474723Y-95690000D01*
X134493793Y-95907977D01*
X134550425Y-96119330D01*
X134552747Y-96124310D01*
X134552748Y-96124312D01*
X134637186Y-96305388D01*
X134642898Y-96317638D01*
X134768402Y-96496877D01*
X134923123Y-96651598D01*
X134927631Y-96654755D01*
X134927634Y-96654757D01*
X135097852Y-96773945D01*
X135102361Y-96777102D01*
X135107343Y-96779425D01*
X135107348Y-96779428D01*
X135122663Y-96786569D01*
X135175948Y-96833486D01*
X135195409Y-96901764D01*
X135174867Y-96969724D01*
X135127593Y-97012527D01*
X135008463Y-97074542D01*
X134999738Y-97080036D01*
X134829433Y-97207905D01*
X134821726Y-97214748D01*
X134674590Y-97368717D01*
X134668104Y-97376727D01*
X134548098Y-97552649D01*
X134543000Y-97561623D01*
X134453338Y-97754783D01*
X134449775Y-97764470D01*
X134394389Y-97964183D01*
X134395912Y-97972607D01*
X134408292Y-97976000D01*
X139588344Y-97976000D01*
X139601875Y-97972027D01*
X139603180Y-97962947D01*
X139561214Y-97795875D01*
X139557894Y-97786124D01*
X139472972Y-97590814D01*
X139468105Y-97581739D01*
X139352426Y-97402926D01*
X139346136Y-97394757D01*
X139202806Y-97237240D01*
X139195273Y-97230215D01*
X139028139Y-97098222D01*
X139019552Y-97092517D01*
X138870952Y-97010485D01*
X138849419Y-96988753D01*
X156794514Y-96988753D01*
X156795201Y-96995760D01*
X156795201Y-96995763D01*
X156801051Y-97055425D01*
X156812039Y-97167486D01*
X156868726Y-97337896D01*
X156872373Y-97343918D01*
X156908110Y-97402926D01*
X156961759Y-97491512D01*
X157086514Y-97620699D01*
X157236789Y-97719036D01*
X157405116Y-97781636D01*
X157412097Y-97782567D01*
X157412099Y-97782568D01*
X157576149Y-97804457D01*
X157576153Y-97804457D01*
X157583130Y-97805388D01*
X157590142Y-97804750D01*
X157590146Y-97804750D01*
X157754960Y-97789751D01*
X157754961Y-97789751D01*
X157761981Y-97789112D01*
X157932782Y-97733615D01*
X157963714Y-97715176D01*
X158080992Y-97645265D01*
X158080994Y-97645264D01*
X158087044Y-97641657D01*
X158109006Y-97620743D01*
X158172131Y-97588251D01*
X158195898Y-97585989D01*
X162450083Y-97585989D01*
X162518204Y-97605991D01*
X162564697Y-97659647D01*
X162574801Y-97729921D01*
X162564278Y-97765238D01*
X162547750Y-97800683D01*
X162545425Y-97805670D01*
X162488793Y-98017023D01*
X162469723Y-98235000D01*
X162488793Y-98452977D01*
X162545425Y-98664330D01*
X162547747Y-98669310D01*
X162547748Y-98669312D01*
X162627157Y-98839603D01*
X162637898Y-98862638D01*
X162763402Y-99041877D01*
X162918123Y-99196598D01*
X162922631Y-99199755D01*
X162922634Y-99199757D01*
X163028367Y-99273792D01*
X163097361Y-99322102D01*
X163102343Y-99324425D01*
X163102348Y-99324428D01*
X163244695Y-99390805D01*
X163297980Y-99437722D01*
X163317441Y-99506000D01*
X163296899Y-99573960D01*
X163244695Y-99619195D01*
X163102343Y-99685575D01*
X163102340Y-99685577D01*
X163097362Y-99687898D01*
X162918123Y-99813402D01*
X162763402Y-99968123D01*
X162637898Y-100147362D01*
X162635577Y-100152340D01*
X162635575Y-100152343D01*
X162547748Y-100340688D01*
X162545425Y-100345670D01*
X162544003Y-100350978D01*
X162544002Y-100350980D01*
X162538318Y-100372193D01*
X162488793Y-100557023D01*
X162469723Y-100775000D01*
X162488793Y-100992977D01*
X162498319Y-101028527D01*
X162543210Y-101196062D01*
X162545425Y-101204330D01*
X162547747Y-101209310D01*
X162547748Y-101209312D01*
X162633244Y-101392657D01*
X162637898Y-101402638D01*
X162763402Y-101581877D01*
X162918123Y-101736598D01*
X162922631Y-101739755D01*
X162922634Y-101739757D01*
X163090220Y-101857102D01*
X163097361Y-101862102D01*
X163102343Y-101864425D01*
X163102348Y-101864428D01*
X163244695Y-101930805D01*
X163297980Y-101977722D01*
X163317441Y-102046000D01*
X163296899Y-102113960D01*
X163244695Y-102159195D01*
X163102343Y-102225575D01*
X163102340Y-102225577D01*
X163097362Y-102227898D01*
X162918123Y-102353402D01*
X162763402Y-102508123D01*
X162637898Y-102687362D01*
X162635577Y-102692340D01*
X162635575Y-102692343D01*
X162547748Y-102880688D01*
X162545425Y-102885670D01*
X162488793Y-103097023D01*
X162469723Y-103315000D01*
X162488793Y-103532977D01*
X162545425Y-103744330D01*
X162547747Y-103749310D01*
X162547748Y-103749312D01*
X162633244Y-103932657D01*
X162637898Y-103942638D01*
X162763402Y-104121877D01*
X162918123Y-104276598D01*
X162922631Y-104279755D01*
X162922634Y-104279757D01*
X163090220Y-104397102D01*
X163097361Y-104402102D01*
X163102343Y-104404425D01*
X163102348Y-104404428D01*
X163244695Y-104470805D01*
X163297980Y-104517722D01*
X163317441Y-104586000D01*
X163296899Y-104653960D01*
X163244695Y-104699195D01*
X163102343Y-104765575D01*
X163102340Y-104765577D01*
X163097362Y-104767898D01*
X162918123Y-104893402D01*
X162763402Y-105048123D01*
X162637898Y-105227362D01*
X162635577Y-105232340D01*
X162635575Y-105232343D01*
X162547748Y-105420688D01*
X162545425Y-105425670D01*
X162488793Y-105637023D01*
X162469723Y-105855000D01*
X162488793Y-106072977D01*
X162545425Y-106284330D01*
X162547747Y-106289310D01*
X162547748Y-106289312D01*
X162633244Y-106472657D01*
X162637898Y-106482638D01*
X162763402Y-106661877D01*
X162918123Y-106816598D01*
X162922631Y-106819755D01*
X162922634Y-106819757D01*
X163090220Y-106937102D01*
X163097361Y-106942102D01*
X163102343Y-106944425D01*
X163102348Y-106944428D01*
X163244695Y-107010805D01*
X163297980Y-107057722D01*
X163317441Y-107126000D01*
X163296899Y-107193960D01*
X163244695Y-107239195D01*
X163102343Y-107305575D01*
X163102340Y-107305577D01*
X163097362Y-107307898D01*
X162918123Y-107433402D01*
X162763402Y-107588123D01*
X162637898Y-107767362D01*
X162635577Y-107772340D01*
X162635575Y-107772343D01*
X162547748Y-107960688D01*
X162545425Y-107965670D01*
X162488793Y-108177023D01*
X162469723Y-108395000D01*
X162488793Y-108612977D01*
X162545425Y-108824330D01*
X162547747Y-108829310D01*
X162547748Y-108829312D01*
X162633244Y-109012657D01*
X162637898Y-109022638D01*
X162763402Y-109201877D01*
X162918123Y-109356598D01*
X162922631Y-109359755D01*
X162922634Y-109359757D01*
X163090220Y-109477102D01*
X163097361Y-109482102D01*
X163102343Y-109484425D01*
X163102348Y-109484428D01*
X163244695Y-109550805D01*
X163297980Y-109597722D01*
X163317441Y-109666000D01*
X163296899Y-109733960D01*
X163244695Y-109779195D01*
X163102343Y-109845575D01*
X163102340Y-109845577D01*
X163097362Y-109847898D01*
X162918123Y-109973402D01*
X162763402Y-110128123D01*
X162637898Y-110307362D01*
X162635577Y-110312340D01*
X162635575Y-110312343D01*
X162547748Y-110500688D01*
X162545425Y-110505670D01*
X162488793Y-110717023D01*
X162469723Y-110935000D01*
X162488793Y-111152977D01*
X162545425Y-111364330D01*
X162547747Y-111369310D01*
X162547748Y-111369312D01*
X162633244Y-111552657D01*
X162637898Y-111562638D01*
X162763402Y-111741877D01*
X162918123Y-111896598D01*
X162922631Y-111899755D01*
X162922634Y-111899757D01*
X163090220Y-112017102D01*
X163097361Y-112022102D01*
X163102343Y-112024425D01*
X163102348Y-112024428D01*
X163244695Y-112090805D01*
X163297980Y-112137722D01*
X163317441Y-112206000D01*
X163296899Y-112273960D01*
X163244695Y-112319195D01*
X163102343Y-112385575D01*
X163102340Y-112385577D01*
X163097362Y-112387898D01*
X162918123Y-112513402D01*
X162763402Y-112668123D01*
X162637898Y-112847362D01*
X162635577Y-112852340D01*
X162635575Y-112852343D01*
X162547748Y-113040688D01*
X162545425Y-113045670D01*
X162488793Y-113257023D01*
X162469723Y-113475000D01*
X162488793Y-113692977D01*
X162545425Y-113904330D01*
X162547747Y-113909310D01*
X162547748Y-113909312D01*
X162633244Y-114092657D01*
X162637898Y-114102638D01*
X162763402Y-114281877D01*
X162918123Y-114436598D01*
X162922631Y-114439755D01*
X162922634Y-114439757D01*
X163090220Y-114557102D01*
X163097361Y-114562102D01*
X163102343Y-114564425D01*
X163102348Y-114564428D01*
X163244695Y-114630805D01*
X163297980Y-114677722D01*
X163317441Y-114746000D01*
X163296899Y-114813960D01*
X163244695Y-114859195D01*
X163102343Y-114925575D01*
X163102340Y-114925577D01*
X163097362Y-114927898D01*
X162918123Y-115053402D01*
X162763402Y-115208123D01*
X162637898Y-115387362D01*
X162635577Y-115392340D01*
X162635575Y-115392343D01*
X162547748Y-115580688D01*
X162545425Y-115585670D01*
X162488793Y-115797023D01*
X162469723Y-116015000D01*
X162488793Y-116232977D01*
X162545425Y-116444330D01*
X162547747Y-116449310D01*
X162547748Y-116449312D01*
X162633244Y-116632657D01*
X162637898Y-116642638D01*
X162763402Y-116821877D01*
X162918123Y-116976598D01*
X162922631Y-116979755D01*
X162922634Y-116979757D01*
X163090220Y-117097102D01*
X163097361Y-117102102D01*
X163102343Y-117104425D01*
X163102348Y-117104428D01*
X163244695Y-117170805D01*
X163297980Y-117217722D01*
X163317441Y-117286000D01*
X163296899Y-117353960D01*
X163244695Y-117399195D01*
X163102343Y-117465575D01*
X163102340Y-117465577D01*
X163097362Y-117467898D01*
X162918123Y-117593402D01*
X162763402Y-117748123D01*
X162637898Y-117927362D01*
X162635577Y-117932340D01*
X162635575Y-117932343D01*
X162547748Y-118120688D01*
X162545425Y-118125670D01*
X162488793Y-118337023D01*
X162469723Y-118555000D01*
X162488793Y-118772977D01*
X162545425Y-118984330D01*
X162547747Y-118989310D01*
X162547748Y-118989312D01*
X162633244Y-119172657D01*
X162637898Y-119182638D01*
X162763402Y-119361877D01*
X162918123Y-119516598D01*
X162922631Y-119519755D01*
X162922634Y-119519757D01*
X163090220Y-119637102D01*
X163097361Y-119642102D01*
X163102343Y-119644425D01*
X163102348Y-119644428D01*
X163244695Y-119710805D01*
X163297980Y-119757722D01*
X163317441Y-119826000D01*
X163296899Y-119893960D01*
X163244695Y-119939195D01*
X163102343Y-120005575D01*
X163102340Y-120005577D01*
X163097362Y-120007898D01*
X162918123Y-120133402D01*
X162763402Y-120288123D01*
X162637898Y-120467362D01*
X162635577Y-120472340D01*
X162635575Y-120472343D01*
X162547748Y-120660688D01*
X162545425Y-120665670D01*
X162488793Y-120877023D01*
X162469723Y-121095000D01*
X162488793Y-121312977D01*
X162545425Y-121524330D01*
X162547747Y-121529310D01*
X162547748Y-121529312D01*
X162627157Y-121699603D01*
X162637898Y-121722638D01*
X162763402Y-121901877D01*
X162918123Y-122056598D01*
X162922631Y-122059755D01*
X162922634Y-122059757D01*
X163028367Y-122133792D01*
X163097361Y-122182102D01*
X163102343Y-122184425D01*
X163102348Y-122184428D01*
X163117663Y-122191569D01*
X163170948Y-122238486D01*
X163190409Y-122306764D01*
X163169867Y-122374724D01*
X163122593Y-122417527D01*
X163003463Y-122479542D01*
X162994738Y-122485036D01*
X162824433Y-122612905D01*
X162816726Y-122619748D01*
X162669590Y-122773717D01*
X162663104Y-122781727D01*
X162543098Y-122957649D01*
X162538000Y-122966623D01*
X162448338Y-123159783D01*
X162444775Y-123169470D01*
X162389389Y-123369183D01*
X162390912Y-123377607D01*
X162403292Y-123381000D01*
X163853000Y-123381000D01*
X163921121Y-123401002D01*
X163967614Y-123454658D01*
X163979000Y-123507000D01*
X163979000Y-123763000D01*
X163958998Y-123831121D01*
X163905342Y-123877614D01*
X163853000Y-123889000D01*
X162408225Y-123889000D01*
X162394694Y-123892973D01*
X162393257Y-123902966D01*
X162423565Y-124037446D01*
X162426645Y-124047275D01*
X162506770Y-124244603D01*
X162511413Y-124253794D01*
X162622694Y-124435388D01*
X162628777Y-124443699D01*
X162768213Y-124604667D01*
X162775580Y-124611883D01*
X162888473Y-124705608D01*
X162928108Y-124764511D01*
X162929606Y-124835491D01*
X162892491Y-124896014D01*
X162827697Y-124927001D01*
X162826238Y-124927232D01*
X162759493Y-124937802D01*
X162759490Y-124937803D01*
X162749696Y-124939354D01*
X162636658Y-124996950D01*
X162546950Y-125086658D01*
X162489354Y-125199696D01*
X162474500Y-125293481D01*
X162474501Y-127056518D01*
X162489354Y-127150304D01*
X162546950Y-127263342D01*
X162636658Y-127353050D01*
X162749696Y-127410646D01*
X162759485Y-127412196D01*
X162759487Y-127412197D01*
X162786849Y-127416530D01*
X162843481Y-127425500D01*
X163724822Y-127425500D01*
X164606518Y-127425499D01*
X164611412Y-127424724D01*
X164690506Y-127412198D01*
X164690508Y-127412197D01*
X164700304Y-127410646D01*
X164709955Y-127405729D01*
X164731895Y-127394549D01*
X164813342Y-127353050D01*
X164903050Y-127263342D01*
X164960646Y-127150304D01*
X164972761Y-127073810D01*
X165003173Y-127009658D01*
X165063441Y-126972131D01*
X165134430Y-126973144D01*
X165192447Y-127011024D01*
X165308213Y-127144667D01*
X165315580Y-127151883D01*
X165479434Y-127287916D01*
X165487881Y-127293831D01*
X165671756Y-127401279D01*
X165681042Y-127405729D01*
X165880001Y-127481703D01*
X165889899Y-127484579D01*
X165993250Y-127505606D01*
X166007299Y-127504410D01*
X166011000Y-127494065D01*
X166011000Y-127493517D01*
X166519000Y-127493517D01*
X166523064Y-127507359D01*
X166536478Y-127509393D01*
X166543184Y-127508534D01*
X166553262Y-127506392D01*
X166757255Y-127445191D01*
X166766842Y-127441433D01*
X166958095Y-127347739D01*
X166966945Y-127342464D01*
X167140328Y-127218792D01*
X167148200Y-127212139D01*
X167299052Y-127061812D01*
X167305730Y-127053965D01*
X167430003Y-126881020D01*
X167435313Y-126872183D01*
X167529670Y-126681267D01*
X167533469Y-126671672D01*
X167595377Y-126467910D01*
X167597555Y-126457837D01*
X167598986Y-126446962D01*
X167596775Y-126432778D01*
X167583617Y-126429000D01*
X166537115Y-126429000D01*
X166521876Y-126433475D01*
X166520671Y-126434865D01*
X166519000Y-126442548D01*
X166519000Y-127493517D01*
X166011000Y-127493517D01*
X166011000Y-126047000D01*
X166031002Y-125978879D01*
X166084658Y-125932386D01*
X166137000Y-125921000D01*
X167583344Y-125921000D01*
X167596875Y-125917027D01*
X167598180Y-125907947D01*
X167556214Y-125740875D01*
X167552894Y-125731124D01*
X167467972Y-125535814D01*
X167463105Y-125526739D01*
X167347426Y-125347926D01*
X167341136Y-125339757D01*
X167197806Y-125182240D01*
X167190273Y-125175215D01*
X167023139Y-125043222D01*
X167014552Y-125037517D01*
X166865952Y-124955485D01*
X166815982Y-124905053D01*
X166801210Y-124835610D01*
X166826326Y-124769205D01*
X166873596Y-124730982D01*
X166887652Y-124724428D01*
X166887657Y-124724425D01*
X166892639Y-124722102D01*
X166899780Y-124717102D01*
X167067366Y-124599757D01*
X167067369Y-124599755D01*
X167071877Y-124596598D01*
X167226598Y-124441877D01*
X167352102Y-124262638D01*
X167356757Y-124252657D01*
X167442252Y-124069312D01*
X167442253Y-124069310D01*
X167444575Y-124064330D01*
X167501207Y-123852977D01*
X167520277Y-123635000D01*
X167501207Y-123417023D01*
X167444575Y-123205670D01*
X167442252Y-123200688D01*
X167354425Y-123012343D01*
X167354423Y-123012340D01*
X167352102Y-123007362D01*
X167226598Y-122828123D01*
X167071877Y-122673402D01*
X167067369Y-122670245D01*
X167067366Y-122670243D01*
X166897148Y-122551055D01*
X166897145Y-122551053D01*
X166892639Y-122547898D01*
X166887657Y-122545575D01*
X166887652Y-122545572D01*
X166745305Y-122479195D01*
X166692020Y-122432278D01*
X166672559Y-122364000D01*
X166693101Y-122296040D01*
X166745305Y-122250805D01*
X166887652Y-122184428D01*
X166887657Y-122184425D01*
X166892639Y-122182102D01*
X166961633Y-122133792D01*
X167067366Y-122059757D01*
X167067369Y-122059755D01*
X167071877Y-122056598D01*
X167226598Y-121901877D01*
X167352102Y-121722638D01*
X167362844Y-121699603D01*
X167442252Y-121529312D01*
X167442253Y-121529310D01*
X167444575Y-121524330D01*
X167501207Y-121312977D01*
X167520277Y-121095000D01*
X167501207Y-120877023D01*
X167444575Y-120665670D01*
X167442252Y-120660688D01*
X167354425Y-120472343D01*
X167354423Y-120472340D01*
X167352102Y-120467362D01*
X167226598Y-120288123D01*
X167071877Y-120133402D01*
X167067369Y-120130245D01*
X167067366Y-120130243D01*
X166897148Y-120011055D01*
X166897145Y-120011053D01*
X166892639Y-120007898D01*
X166887657Y-120005575D01*
X166887652Y-120005572D01*
X166745305Y-119939195D01*
X166692020Y-119892278D01*
X166672559Y-119824000D01*
X166693101Y-119756040D01*
X166745305Y-119710805D01*
X166887652Y-119644428D01*
X166887657Y-119644425D01*
X166892639Y-119642102D01*
X166899780Y-119637102D01*
X167067366Y-119519757D01*
X167067369Y-119519755D01*
X167071877Y-119516598D01*
X167226598Y-119361877D01*
X167352102Y-119182638D01*
X167356757Y-119172657D01*
X167442252Y-118989312D01*
X167442253Y-118989310D01*
X167444575Y-118984330D01*
X167501207Y-118772977D01*
X167520277Y-118555000D01*
X167501207Y-118337023D01*
X167444575Y-118125670D01*
X167442252Y-118120688D01*
X167354425Y-117932343D01*
X167354423Y-117932340D01*
X167352102Y-117927362D01*
X167226598Y-117748123D01*
X167071877Y-117593402D01*
X167067369Y-117590245D01*
X167067366Y-117590243D01*
X166897148Y-117471055D01*
X166897145Y-117471053D01*
X166892639Y-117467898D01*
X166887657Y-117465575D01*
X166887652Y-117465572D01*
X166745305Y-117399195D01*
X166692020Y-117352278D01*
X166672559Y-117284000D01*
X166693101Y-117216040D01*
X166745305Y-117170805D01*
X166887652Y-117104428D01*
X166887657Y-117104425D01*
X166892639Y-117102102D01*
X166899780Y-117097102D01*
X167067366Y-116979757D01*
X167067369Y-116979755D01*
X167071877Y-116976598D01*
X167226598Y-116821877D01*
X167352102Y-116642638D01*
X167356757Y-116632657D01*
X167442252Y-116449312D01*
X167442253Y-116449310D01*
X167444575Y-116444330D01*
X167501207Y-116232977D01*
X167520277Y-116015000D01*
X167501207Y-115797023D01*
X167444575Y-115585670D01*
X167442252Y-115580688D01*
X167354425Y-115392343D01*
X167354423Y-115392340D01*
X167352102Y-115387362D01*
X167226598Y-115208123D01*
X167071877Y-115053402D01*
X167067369Y-115050245D01*
X167067366Y-115050243D01*
X166897148Y-114931055D01*
X166897145Y-114931053D01*
X166892639Y-114927898D01*
X166887657Y-114925575D01*
X166887652Y-114925572D01*
X166745305Y-114859195D01*
X166692020Y-114812278D01*
X166672559Y-114744000D01*
X166693101Y-114676040D01*
X166745305Y-114630805D01*
X166887652Y-114564428D01*
X166887657Y-114564425D01*
X166892639Y-114562102D01*
X166899780Y-114557102D01*
X167067366Y-114439757D01*
X167067369Y-114439755D01*
X167071877Y-114436598D01*
X167226598Y-114281877D01*
X167352102Y-114102638D01*
X167356757Y-114092657D01*
X167442252Y-113909312D01*
X167442253Y-113909310D01*
X167444575Y-113904330D01*
X167501207Y-113692977D01*
X167520277Y-113475000D01*
X167501207Y-113257023D01*
X167444575Y-113045670D01*
X167442252Y-113040688D01*
X167354425Y-112852343D01*
X167354423Y-112852340D01*
X167352102Y-112847362D01*
X167226598Y-112668123D01*
X167071877Y-112513402D01*
X167067369Y-112510245D01*
X167067366Y-112510243D01*
X166897148Y-112391055D01*
X166897145Y-112391053D01*
X166892639Y-112387898D01*
X166887657Y-112385575D01*
X166887652Y-112385572D01*
X166745305Y-112319195D01*
X166692020Y-112272278D01*
X166672559Y-112204000D01*
X166693101Y-112136040D01*
X166745305Y-112090805D01*
X166887652Y-112024428D01*
X166887657Y-112024425D01*
X166892639Y-112022102D01*
X166899780Y-112017102D01*
X167067366Y-111899757D01*
X167067369Y-111899755D01*
X167071877Y-111896598D01*
X167226598Y-111741877D01*
X167352102Y-111562638D01*
X167356757Y-111552657D01*
X167442252Y-111369312D01*
X167442253Y-111369310D01*
X167444575Y-111364330D01*
X167501207Y-111152977D01*
X167520277Y-110935000D01*
X167501207Y-110717023D01*
X167444575Y-110505670D01*
X167442252Y-110500688D01*
X167354425Y-110312343D01*
X167354423Y-110312340D01*
X167352102Y-110307362D01*
X167226598Y-110128123D01*
X167071877Y-109973402D01*
X167067369Y-109970245D01*
X167067366Y-109970243D01*
X166897148Y-109851055D01*
X166897145Y-109851053D01*
X166892639Y-109847898D01*
X166887657Y-109845575D01*
X166887652Y-109845572D01*
X166745305Y-109779195D01*
X166692020Y-109732278D01*
X166672559Y-109664000D01*
X166693101Y-109596040D01*
X166745305Y-109550805D01*
X166887652Y-109484428D01*
X166887657Y-109484425D01*
X166892639Y-109482102D01*
X166899780Y-109477102D01*
X167067366Y-109359757D01*
X167067369Y-109359755D01*
X167071877Y-109356598D01*
X167226598Y-109201877D01*
X167352102Y-109022638D01*
X167356757Y-109012657D01*
X167442252Y-108829312D01*
X167442253Y-108829310D01*
X167444575Y-108824330D01*
X167501207Y-108612977D01*
X167520277Y-108395000D01*
X167501207Y-108177023D01*
X167444575Y-107965670D01*
X167442252Y-107960688D01*
X167354425Y-107772343D01*
X167354423Y-107772340D01*
X167352102Y-107767362D01*
X167226598Y-107588123D01*
X167071877Y-107433402D01*
X167067369Y-107430245D01*
X167067366Y-107430243D01*
X166897148Y-107311055D01*
X166897145Y-107311053D01*
X166892639Y-107307898D01*
X166887657Y-107305575D01*
X166887652Y-107305572D01*
X166745305Y-107239195D01*
X166692020Y-107192278D01*
X166672559Y-107124000D01*
X166693101Y-107056040D01*
X166745305Y-107010805D01*
X166887652Y-106944428D01*
X166887657Y-106944425D01*
X166892639Y-106942102D01*
X166899780Y-106937102D01*
X167067366Y-106819757D01*
X167067369Y-106819755D01*
X167071877Y-106816598D01*
X167226598Y-106661877D01*
X167352102Y-106482638D01*
X167356757Y-106472657D01*
X167442252Y-106289312D01*
X167442253Y-106289310D01*
X167444575Y-106284330D01*
X167501207Y-106072977D01*
X167520277Y-105855000D01*
X167501207Y-105637023D01*
X167444575Y-105425670D01*
X167442252Y-105420688D01*
X167354425Y-105232343D01*
X167354423Y-105232340D01*
X167352102Y-105227362D01*
X167226598Y-105048123D01*
X167071877Y-104893402D01*
X167067369Y-104890245D01*
X167067366Y-104890243D01*
X166897148Y-104771055D01*
X166897145Y-104771053D01*
X166892639Y-104767898D01*
X166887657Y-104765575D01*
X166887652Y-104765572D01*
X166745305Y-104699195D01*
X166692020Y-104652278D01*
X166672559Y-104584000D01*
X166693101Y-104516040D01*
X166745305Y-104470805D01*
X166887652Y-104404428D01*
X166887657Y-104404425D01*
X166892639Y-104402102D01*
X166899780Y-104397102D01*
X167067366Y-104279757D01*
X167067369Y-104279755D01*
X167071877Y-104276598D01*
X167226598Y-104121877D01*
X167352102Y-103942638D01*
X167356757Y-103932657D01*
X167442252Y-103749312D01*
X167442253Y-103749310D01*
X167444575Y-103744330D01*
X167501207Y-103532977D01*
X167520277Y-103315000D01*
X167501207Y-103097023D01*
X167444575Y-102885670D01*
X167442252Y-102880688D01*
X167354425Y-102692343D01*
X167354423Y-102692340D01*
X167352102Y-102687362D01*
X167226598Y-102508123D01*
X167071877Y-102353402D01*
X167067369Y-102350245D01*
X167067366Y-102350243D01*
X166897148Y-102231055D01*
X166897145Y-102231053D01*
X166892639Y-102227898D01*
X166887657Y-102225575D01*
X166887652Y-102225572D01*
X166745305Y-102159195D01*
X166692020Y-102112278D01*
X166672559Y-102044000D01*
X166693101Y-101976040D01*
X166745305Y-101930805D01*
X166887652Y-101864428D01*
X166887657Y-101864425D01*
X166892639Y-101862102D01*
X166899780Y-101857102D01*
X167067366Y-101739757D01*
X167067369Y-101739755D01*
X167071877Y-101736598D01*
X167226598Y-101581877D01*
X167352102Y-101402638D01*
X167356757Y-101392657D01*
X167442252Y-101209312D01*
X167442253Y-101209310D01*
X167444575Y-101204330D01*
X167446791Y-101196062D01*
X167491681Y-101028527D01*
X167501207Y-100992977D01*
X167520277Y-100775000D01*
X167501207Y-100557023D01*
X167451682Y-100372193D01*
X167445998Y-100350980D01*
X167445997Y-100350978D01*
X167444575Y-100345670D01*
X167442252Y-100340688D01*
X167354425Y-100152343D01*
X167354423Y-100152340D01*
X167352102Y-100147362D01*
X167271824Y-100032712D01*
X167249136Y-99965438D01*
X167266421Y-99896578D01*
X167285942Y-99871347D01*
X167905449Y-99251840D01*
X167917840Y-99240972D01*
X167936247Y-99226848D01*
X167942793Y-99221825D01*
X168039047Y-99096384D01*
X168099555Y-98950305D01*
X168110758Y-98865206D01*
X168120193Y-98793543D01*
X168116089Y-98762370D01*
X168115011Y-98745924D01*
X168115011Y-84292130D01*
X168116089Y-84275684D01*
X168119115Y-84252699D01*
X168120193Y-84244511D01*
X168099555Y-84087749D01*
X168039047Y-83941670D01*
X167966961Y-83847726D01*
X167942793Y-83816229D01*
X167917839Y-83797081D01*
X167905449Y-83786214D01*
X167516934Y-83397699D01*
X167482908Y-83335387D01*
X167484322Y-83275993D01*
X167499783Y-83218290D01*
X167501207Y-83212977D01*
X167520277Y-82995000D01*
X167501207Y-82777023D01*
X167444575Y-82565670D01*
X167442252Y-82560688D01*
X167354425Y-82372343D01*
X167354423Y-82372340D01*
X167352102Y-82367362D01*
X167226598Y-82188123D01*
X167071877Y-82033402D01*
X167067369Y-82030245D01*
X167067366Y-82030243D01*
X166897148Y-81911055D01*
X166897145Y-81911053D01*
X166892639Y-81907898D01*
X166887657Y-81905575D01*
X166887652Y-81905572D01*
X166745305Y-81839195D01*
X166692020Y-81792278D01*
X166672559Y-81724000D01*
X166693101Y-81656040D01*
X166745305Y-81610805D01*
X166887652Y-81544428D01*
X166887657Y-81544425D01*
X166892639Y-81542102D01*
X166899780Y-81537102D01*
X167067366Y-81419757D01*
X167067369Y-81419755D01*
X167071877Y-81416598D01*
X167226598Y-81261877D01*
X167352102Y-81082638D01*
X167356757Y-81072657D01*
X167442252Y-80889312D01*
X167442253Y-80889310D01*
X167444575Y-80884330D01*
X167501207Y-80672977D01*
X167520277Y-80455000D01*
X167501207Y-80237023D01*
X167444575Y-80025670D01*
X167442252Y-80020688D01*
X167354425Y-79832343D01*
X167354423Y-79832340D01*
X167352102Y-79827362D01*
X167226598Y-79648123D01*
X167071877Y-79493402D01*
X167067369Y-79490245D01*
X167067366Y-79490243D01*
X166897148Y-79371055D01*
X166897145Y-79371053D01*
X166892639Y-79367898D01*
X166887657Y-79365575D01*
X166887652Y-79365572D01*
X166745305Y-79299195D01*
X166692020Y-79252278D01*
X166672559Y-79184000D01*
X166693101Y-79116040D01*
X166745305Y-79070805D01*
X166887652Y-79004428D01*
X166887657Y-79004425D01*
X166892639Y-79002102D01*
X166899780Y-78997102D01*
X167067366Y-78879757D01*
X167067369Y-78879755D01*
X167071877Y-78876598D01*
X167226598Y-78721877D01*
X167352102Y-78542638D01*
X167356757Y-78532657D01*
X167442252Y-78349312D01*
X167442253Y-78349310D01*
X167444575Y-78344330D01*
X167501207Y-78132977D01*
X167520277Y-77915000D01*
X167501207Y-77697023D01*
X167444575Y-77485670D01*
X167442252Y-77480688D01*
X167354425Y-77292343D01*
X167354423Y-77292340D01*
X167352102Y-77287362D01*
X167226598Y-77108123D01*
X167071877Y-76953402D01*
X167067369Y-76950245D01*
X167067366Y-76950243D01*
X166897148Y-76831055D01*
X166897145Y-76831053D01*
X166892639Y-76827898D01*
X166887657Y-76825575D01*
X166887652Y-76825572D01*
X166745305Y-76759195D01*
X166692020Y-76712278D01*
X166672559Y-76644000D01*
X166693101Y-76576040D01*
X166745305Y-76530805D01*
X166887652Y-76464428D01*
X166887657Y-76464425D01*
X166892639Y-76462102D01*
X166898423Y-76458052D01*
X167067366Y-76339757D01*
X167067369Y-76339755D01*
X167071877Y-76336598D01*
X167226598Y-76181877D01*
X167352102Y-76002638D01*
X167415505Y-75866672D01*
X167442252Y-75809312D01*
X167442253Y-75809310D01*
X167444575Y-75804330D01*
X167501207Y-75592977D01*
X167520277Y-75375000D01*
X167501207Y-75157023D01*
X167444575Y-74945670D01*
X167442252Y-74940688D01*
X167354425Y-74752343D01*
X167354423Y-74752340D01*
X167352102Y-74747362D01*
X167226598Y-74568123D01*
X167071877Y-74413402D01*
X167067369Y-74410245D01*
X167067366Y-74410243D01*
X166897148Y-74291055D01*
X166897145Y-74291053D01*
X166892639Y-74287898D01*
X166887653Y-74285573D01*
X166887646Y-74285569D01*
X166872060Y-74278301D01*
X166818775Y-74231383D01*
X166799315Y-74163106D01*
X166819858Y-74095146D01*
X166869879Y-74050955D01*
X166958100Y-74007736D01*
X166966945Y-74002464D01*
X167140328Y-73878792D01*
X167148200Y-73872139D01*
X167299052Y-73721812D01*
X167305730Y-73713965D01*
X167430003Y-73541020D01*
X167435313Y-73532183D01*
X167529670Y-73341267D01*
X167533469Y-73331672D01*
X167595377Y-73127910D01*
X167597555Y-73117837D01*
X167598986Y-73106962D01*
X167596775Y-73092778D01*
X167583617Y-73089000D01*
X162408225Y-73089000D01*
X162394694Y-73092973D01*
X162393257Y-73102966D01*
X162413365Y-73192190D01*
X162408829Y-73263042D01*
X162366707Y-73320193D01*
X162300374Y-73345499D01*
X162248182Y-73338590D01*
X162190589Y-73318082D01*
X162190583Y-73318081D01*
X162183951Y-73315719D01*
X162176965Y-73314886D01*
X162176961Y-73314885D01*
X162049177Y-73299648D01*
X162005624Y-73294455D01*
X161998621Y-73295191D01*
X161998620Y-73295191D01*
X161834025Y-73312490D01*
X161834021Y-73312491D01*
X161827017Y-73313227D01*
X161820346Y-73315498D01*
X161663677Y-73368832D01*
X161663674Y-73368833D01*
X161657007Y-73371103D01*
X161504045Y-73465206D01*
X161499014Y-73470132D01*
X161499011Y-73470135D01*
X161469025Y-73499500D01*
X161375732Y-73590859D01*
X161278446Y-73741817D01*
X161217022Y-73910578D01*
X161194514Y-74088753D01*
X161195201Y-74095760D01*
X161195201Y-74095763D01*
X161201804Y-74163106D01*
X161212039Y-74267486D01*
X161214262Y-74274168D01*
X161214262Y-74274169D01*
X161265616Y-74428546D01*
X161268726Y-74437896D01*
X161272373Y-74443918D01*
X161350327Y-74572635D01*
X161361759Y-74591512D01*
X161486514Y-74720699D01*
X161636789Y-74819036D01*
X161805116Y-74881636D01*
X161812097Y-74882567D01*
X161812099Y-74882568D01*
X161976149Y-74904457D01*
X161976153Y-74904457D01*
X161983130Y-74905388D01*
X161990142Y-74904750D01*
X161990146Y-74904750D01*
X162154960Y-74889751D01*
X162154961Y-74889751D01*
X162161981Y-74889112D01*
X162332782Y-74833615D01*
X162355046Y-74820343D01*
X162423798Y-74802644D01*
X162491207Y-74824926D01*
X162535870Y-74880114D01*
X162543605Y-74950688D01*
X162541268Y-74961184D01*
X162488793Y-75157023D01*
X162469723Y-75375000D01*
X162488793Y-75592977D01*
X162545425Y-75804330D01*
X162547747Y-75809310D01*
X162547748Y-75809312D01*
X162574496Y-75866672D01*
X162637898Y-76002638D01*
X162763402Y-76181877D01*
X162918123Y-76336598D01*
X162922631Y-76339755D01*
X162922634Y-76339757D01*
X163091577Y-76458052D01*
X163097361Y-76462102D01*
X163102343Y-76464425D01*
X163102348Y-76464428D01*
X163244695Y-76530805D01*
X163297980Y-76577722D01*
X163317441Y-76646000D01*
X163296899Y-76713960D01*
X163244695Y-76759195D01*
X163102343Y-76825575D01*
X163102340Y-76825577D01*
X163097362Y-76827898D01*
X162918123Y-76953402D01*
X162763402Y-77108123D01*
X162637898Y-77287362D01*
X162635577Y-77292340D01*
X162635575Y-77292343D01*
X162547748Y-77480688D01*
X162545425Y-77485670D01*
X162488793Y-77697023D01*
X162469723Y-77915000D01*
X162488793Y-78132977D01*
X162545425Y-78344330D01*
X162547747Y-78349310D01*
X162547748Y-78349312D01*
X162633244Y-78532657D01*
X162637898Y-78542638D01*
X162763402Y-78721877D01*
X162918123Y-78876598D01*
X162922631Y-78879755D01*
X162922634Y-78879757D01*
X163090220Y-78997102D01*
X163097361Y-79002102D01*
X163102343Y-79004425D01*
X163102348Y-79004428D01*
X163244695Y-79070805D01*
X163297980Y-79117722D01*
X163317441Y-79186000D01*
X163296899Y-79253960D01*
X163244695Y-79299195D01*
X163102343Y-79365575D01*
X163102340Y-79365577D01*
X163097362Y-79367898D01*
X162918123Y-79493402D01*
X162763402Y-79648123D01*
X162637898Y-79827362D01*
X162635577Y-79832340D01*
X162635575Y-79832343D01*
X162547748Y-80020688D01*
X162545425Y-80025670D01*
X162488793Y-80237023D01*
X162469723Y-80455000D01*
X162488793Y-80672977D01*
X162545425Y-80884330D01*
X162547747Y-80889310D01*
X162547748Y-80889312D01*
X162633244Y-81072657D01*
X162637898Y-81082638D01*
X162763402Y-81261877D01*
X162918123Y-81416598D01*
X162922631Y-81419755D01*
X162922634Y-81419757D01*
X163090220Y-81537102D01*
X163097361Y-81542102D01*
X163102343Y-81544425D01*
X163102348Y-81544428D01*
X163244695Y-81610805D01*
X163297980Y-81657722D01*
X163317441Y-81726000D01*
X163296899Y-81793960D01*
X163244695Y-81839195D01*
X163102343Y-81905575D01*
X163102340Y-81905577D01*
X163097362Y-81907898D01*
X162918123Y-82033402D01*
X162763402Y-82188123D01*
X162637898Y-82367362D01*
X162635577Y-82372340D01*
X162635575Y-82372343D01*
X162547748Y-82560688D01*
X162545425Y-82565670D01*
X162488793Y-82777023D01*
X162469723Y-82995000D01*
X162488793Y-83212977D01*
X162545425Y-83424330D01*
X162547747Y-83429310D01*
X162547748Y-83429312D01*
X162633244Y-83612657D01*
X162637898Y-83622638D01*
X162763402Y-83801877D01*
X162918123Y-83956598D01*
X162922631Y-83959755D01*
X162922634Y-83959757D01*
X163090220Y-84077102D01*
X163097361Y-84082102D01*
X163102343Y-84084425D01*
X163102348Y-84084428D01*
X163244695Y-84150805D01*
X163297980Y-84197722D01*
X163317441Y-84266000D01*
X163296899Y-84333960D01*
X163244695Y-84379195D01*
X163102343Y-84445575D01*
X163102340Y-84445577D01*
X163097362Y-84447898D01*
X162918123Y-84573402D01*
X162763402Y-84728123D01*
X162637898Y-84907362D01*
X162635577Y-84912340D01*
X162635575Y-84912343D01*
X162547748Y-85100688D01*
X162545425Y-85105670D01*
X162488793Y-85317023D01*
X162469723Y-85535000D01*
X162488793Y-85752977D01*
X162545425Y-85964330D01*
X162547747Y-85969310D01*
X162547748Y-85969312D01*
X162633244Y-86152657D01*
X162637898Y-86162638D01*
X162763402Y-86341877D01*
X162918123Y-86496598D01*
X162922631Y-86499755D01*
X162922634Y-86499757D01*
X163090220Y-86617102D01*
X163097361Y-86622102D01*
X163102343Y-86624425D01*
X163102348Y-86624428D01*
X163244695Y-86690805D01*
X163297980Y-86737722D01*
X163317441Y-86806000D01*
X163296899Y-86873960D01*
X163244695Y-86919195D01*
X163102343Y-86985575D01*
X163102340Y-86985577D01*
X163097362Y-86987898D01*
X162918123Y-87113402D01*
X162763402Y-87268123D01*
X162637898Y-87447362D01*
X162635577Y-87452340D01*
X162635575Y-87452343D01*
X162547748Y-87640688D01*
X162545425Y-87645670D01*
X162488793Y-87857023D01*
X162469723Y-88075000D01*
X162488793Y-88292977D01*
X162545425Y-88504330D01*
X162547747Y-88509310D01*
X162547748Y-88509312D01*
X162633244Y-88692657D01*
X162637898Y-88702638D01*
X162763402Y-88881877D01*
X162918123Y-89036598D01*
X162922631Y-89039755D01*
X162922634Y-89039757D01*
X163090220Y-89157102D01*
X163097361Y-89162102D01*
X163102343Y-89164425D01*
X163102348Y-89164428D01*
X163244695Y-89230805D01*
X163297980Y-89277722D01*
X163317441Y-89346000D01*
X163296899Y-89413960D01*
X163244695Y-89459195D01*
X163102343Y-89525575D01*
X163102340Y-89525577D01*
X163097362Y-89527898D01*
X162918123Y-89653402D01*
X162763402Y-89808123D01*
X162637898Y-89987362D01*
X162635577Y-89992340D01*
X162635575Y-89992343D01*
X162547748Y-90180688D01*
X162545425Y-90185670D01*
X162488793Y-90397023D01*
X162469723Y-90615000D01*
X162488793Y-90832977D01*
X162545425Y-91044330D01*
X162547747Y-91049310D01*
X162547748Y-91049312D01*
X162633244Y-91232657D01*
X162637898Y-91242638D01*
X162763402Y-91421877D01*
X162918123Y-91576598D01*
X162922631Y-91579755D01*
X162922634Y-91579757D01*
X163090220Y-91697102D01*
X163097361Y-91702102D01*
X163102343Y-91704425D01*
X163102348Y-91704428D01*
X163244695Y-91770805D01*
X163297980Y-91817722D01*
X163317441Y-91886000D01*
X163296899Y-91953960D01*
X163244695Y-91999195D01*
X163102343Y-92065575D01*
X163102340Y-92065577D01*
X163097362Y-92067898D01*
X162918123Y-92193402D01*
X162763402Y-92348123D01*
X162637898Y-92527362D01*
X162635577Y-92532340D01*
X162635575Y-92532343D01*
X162547748Y-92720688D01*
X162545425Y-92725670D01*
X162488793Y-92937023D01*
X162469723Y-93155000D01*
X162488793Y-93372977D01*
X162545425Y-93584330D01*
X162547747Y-93589310D01*
X162547748Y-93589312D01*
X162633244Y-93772657D01*
X162637898Y-93782638D01*
X162763402Y-93961877D01*
X162918123Y-94116598D01*
X162922631Y-94119755D01*
X162922634Y-94119757D01*
X163090220Y-94237102D01*
X163097361Y-94242102D01*
X163102343Y-94244425D01*
X163102348Y-94244428D01*
X163244695Y-94310805D01*
X163297980Y-94357722D01*
X163317441Y-94426000D01*
X163296899Y-94493960D01*
X163244695Y-94539195D01*
X163102343Y-94605575D01*
X163102340Y-94605577D01*
X163097362Y-94607898D01*
X162918123Y-94733402D01*
X162763402Y-94888123D01*
X162637898Y-95067362D01*
X162635577Y-95072340D01*
X162635575Y-95072343D01*
X162547748Y-95260688D01*
X162545425Y-95265670D01*
X162544003Y-95270978D01*
X162544002Y-95270980D01*
X162533710Y-95309392D01*
X162488793Y-95477023D01*
X162469723Y-95695000D01*
X162488793Y-95912977D01*
X162545425Y-96124330D01*
X162547747Y-96129310D01*
X162547748Y-96129312D01*
X162583387Y-96205739D01*
X162594048Y-96275930D01*
X162565068Y-96340743D01*
X162505649Y-96379600D01*
X162469192Y-96384989D01*
X158161539Y-96384989D01*
X158094025Y-96365374D01*
X157999502Y-96305388D01*
X157953136Y-96275963D01*
X157923352Y-96265357D01*
X157790586Y-96218081D01*
X157790581Y-96218080D01*
X157783951Y-96215719D01*
X157776965Y-96214886D01*
X157776961Y-96214885D01*
X157649177Y-96199648D01*
X157605624Y-96194455D01*
X157598621Y-96195191D01*
X157598620Y-96195191D01*
X157434025Y-96212490D01*
X157434021Y-96212491D01*
X157427017Y-96213227D01*
X157420346Y-96215498D01*
X157263677Y-96268832D01*
X157263674Y-96268833D01*
X157257007Y-96271103D01*
X157251009Y-96274793D01*
X157251007Y-96274794D01*
X157239886Y-96281636D01*
X157104045Y-96365206D01*
X157099014Y-96370132D01*
X157099011Y-96370135D01*
X157089346Y-96379600D01*
X156975732Y-96490859D01*
X156971913Y-96496784D01*
X156971912Y-96496786D01*
X156969343Y-96500772D01*
X156878446Y-96641817D01*
X156876037Y-96648437D01*
X156876035Y-96648440D01*
X156856605Y-96701824D01*
X156817022Y-96810578D01*
X156794514Y-96988753D01*
X138849419Y-96988753D01*
X138820982Y-96960053D01*
X138806210Y-96890610D01*
X138831326Y-96824205D01*
X138878596Y-96785982D01*
X138892652Y-96779428D01*
X138892657Y-96779425D01*
X138897639Y-96777102D01*
X138902148Y-96773945D01*
X139072366Y-96654757D01*
X139072369Y-96654755D01*
X139076877Y-96651598D01*
X139231598Y-96496877D01*
X139357102Y-96317638D01*
X139362815Y-96305388D01*
X139447252Y-96124312D01*
X139447253Y-96124310D01*
X139449575Y-96119330D01*
X139506207Y-95907977D01*
X139525277Y-95690000D01*
X139506207Y-95472023D01*
X139449575Y-95260670D01*
X139415153Y-95186852D01*
X139359425Y-95067343D01*
X139359423Y-95067340D01*
X139357102Y-95062362D01*
X139231598Y-94883123D01*
X139076877Y-94728402D01*
X139072369Y-94725245D01*
X139072366Y-94725243D01*
X138902148Y-94606055D01*
X138902145Y-94606053D01*
X138897639Y-94602898D01*
X138892657Y-94600575D01*
X138892652Y-94600572D01*
X138750305Y-94534195D01*
X138697020Y-94487278D01*
X138677559Y-94419000D01*
X138686702Y-94388753D01*
X148494514Y-94388753D01*
X148495201Y-94395760D01*
X148495201Y-94395763D01*
X148503277Y-94478120D01*
X148512039Y-94567486D01*
X148514262Y-94574168D01*
X148514262Y-94574169D01*
X148556232Y-94700336D01*
X148568726Y-94737896D01*
X148572373Y-94743918D01*
X148657348Y-94884228D01*
X148661759Y-94891512D01*
X148786514Y-95020699D01*
X148936789Y-95119036D01*
X149105116Y-95181636D01*
X149112100Y-95182568D01*
X149118931Y-95184271D01*
X149118287Y-95186852D01*
X149172045Y-95210750D01*
X149211029Y-95270086D01*
X149215504Y-95322593D01*
X149194514Y-95488753D01*
X149212039Y-95667486D01*
X149214262Y-95674168D01*
X149214262Y-95674169D01*
X149222967Y-95700336D01*
X149268726Y-95837896D01*
X149272373Y-95843918D01*
X149314197Y-95912977D01*
X149361759Y-95991512D01*
X149486514Y-96120699D01*
X149636789Y-96219036D01*
X149805116Y-96281636D01*
X149812097Y-96282567D01*
X149812099Y-96282568D01*
X149976149Y-96304457D01*
X149976153Y-96304457D01*
X149983130Y-96305388D01*
X149990142Y-96304750D01*
X149990146Y-96304750D01*
X150154960Y-96289751D01*
X150154961Y-96289751D01*
X150161981Y-96289112D01*
X150332782Y-96233615D01*
X150364202Y-96214885D01*
X150480992Y-96145265D01*
X150480994Y-96145264D01*
X150487044Y-96141657D01*
X150617099Y-96017807D01*
X150634570Y-95991512D01*
X150712582Y-95874093D01*
X150716483Y-95868222D01*
X150731168Y-95829564D01*
X150777757Y-95706919D01*
X150777758Y-95706914D01*
X150780257Y-95700336D01*
X150781710Y-95690000D01*
X150795870Y-95589245D01*
X150825158Y-95524571D01*
X150831549Y-95517686D01*
X150890938Y-95458297D01*
X150903329Y-95447429D01*
X150921736Y-95433305D01*
X150928282Y-95428282D01*
X151024536Y-95302841D01*
X151085044Y-95156762D01*
X151100500Y-95039361D01*
X151105682Y-95000000D01*
X151101578Y-94968827D01*
X151100500Y-94952381D01*
X151100500Y-94488753D01*
X154394514Y-94488753D01*
X154395201Y-94495760D01*
X154395201Y-94495763D01*
X154401883Y-94563910D01*
X154412039Y-94667486D01*
X154414262Y-94674168D01*
X154414262Y-94674169D01*
X154422967Y-94700336D01*
X154468726Y-94837896D01*
X154472373Y-94843918D01*
X154543062Y-94960639D01*
X154561759Y-94991512D01*
X154566648Y-94996575D01*
X154566649Y-94996576D01*
X154593670Y-95024557D01*
X154686514Y-95120699D01*
X154836789Y-95219036D01*
X155005116Y-95281636D01*
X155012097Y-95282567D01*
X155012099Y-95282568D01*
X155176149Y-95304457D01*
X155176153Y-95304457D01*
X155183130Y-95305388D01*
X155264342Y-95297997D01*
X155333992Y-95311744D01*
X155385156Y-95360965D01*
X155401587Y-95430034D01*
X155400765Y-95439266D01*
X155394514Y-95488753D01*
X155412039Y-95667486D01*
X155414262Y-95674168D01*
X155414262Y-95674169D01*
X155422967Y-95700336D01*
X155468726Y-95837896D01*
X155472373Y-95843918D01*
X155514197Y-95912977D01*
X155561759Y-95991512D01*
X155686514Y-96120699D01*
X155836789Y-96219036D01*
X156005116Y-96281636D01*
X156012097Y-96282567D01*
X156012099Y-96282568D01*
X156176149Y-96304457D01*
X156176153Y-96304457D01*
X156183130Y-96305388D01*
X156190142Y-96304750D01*
X156190146Y-96304750D01*
X156354960Y-96289751D01*
X156354961Y-96289751D01*
X156361981Y-96289112D01*
X156532782Y-96233615D01*
X156564202Y-96214885D01*
X156680992Y-96145265D01*
X156680994Y-96145264D01*
X156687044Y-96141657D01*
X156817099Y-96017807D01*
X156834570Y-95991512D01*
X156912582Y-95874093D01*
X156916483Y-95868222D01*
X156931168Y-95829564D01*
X156977757Y-95706919D01*
X156977758Y-95706914D01*
X156980257Y-95700336D01*
X156981710Y-95690000D01*
X156995870Y-95589245D01*
X157025158Y-95524571D01*
X157031549Y-95517686D01*
X157712668Y-94836567D01*
X157774980Y-94802541D01*
X157790323Y-94800183D01*
X157911981Y-94789112D01*
X158082782Y-94733615D01*
X158096826Y-94725243D01*
X158230992Y-94645265D01*
X158230994Y-94645264D01*
X158237044Y-94641657D01*
X158367099Y-94517807D01*
X158386403Y-94488753D01*
X158457484Y-94381766D01*
X158466483Y-94368222D01*
X158490896Y-94303955D01*
X158527757Y-94206919D01*
X158527758Y-94206914D01*
X158530257Y-94200336D01*
X158531237Y-94193364D01*
X158554700Y-94026416D01*
X158554700Y-94026411D01*
X158555251Y-94022493D01*
X158555565Y-94000000D01*
X158535546Y-93821528D01*
X158476485Y-93651927D01*
X158455050Y-93617623D01*
X158385049Y-93505599D01*
X158381316Y-93499625D01*
X158260825Y-93378290D01*
X158259733Y-93377190D01*
X158259729Y-93377187D01*
X158254770Y-93372193D01*
X158239494Y-93362498D01*
X158196860Y-93335442D01*
X158103136Y-93275963D01*
X158073352Y-93265357D01*
X157940586Y-93218081D01*
X157940581Y-93218080D01*
X157933951Y-93215719D01*
X157926965Y-93214886D01*
X157926961Y-93214885D01*
X157799177Y-93199648D01*
X157755624Y-93194455D01*
X157748621Y-93195191D01*
X157748620Y-93195191D01*
X157688106Y-93201551D01*
X157618268Y-93188778D01*
X157566421Y-93140276D01*
X157549027Y-93071443D01*
X157550162Y-93058706D01*
X157554699Y-93026419D01*
X157555251Y-93022493D01*
X157555565Y-93000000D01*
X157535546Y-92821528D01*
X157476485Y-92651927D01*
X157381316Y-92499625D01*
X157317771Y-92435635D01*
X157259733Y-92377190D01*
X157259729Y-92377187D01*
X157254770Y-92372193D01*
X157243761Y-92365206D01*
X157196860Y-92335442D01*
X157103136Y-92275963D01*
X157073352Y-92265357D01*
X156940586Y-92218081D01*
X156940581Y-92218080D01*
X156933951Y-92215719D01*
X156926965Y-92214886D01*
X156926961Y-92214885D01*
X156799177Y-92199648D01*
X156755624Y-92194455D01*
X156748621Y-92195191D01*
X156748620Y-92195191D01*
X156584025Y-92212490D01*
X156584021Y-92212491D01*
X156577017Y-92213227D01*
X156570346Y-92215498D01*
X156413677Y-92268832D01*
X156413674Y-92268833D01*
X156407007Y-92271103D01*
X156401009Y-92274793D01*
X156401007Y-92274794D01*
X156330526Y-92318155D01*
X156254045Y-92365206D01*
X156249014Y-92370132D01*
X156249011Y-92370135D01*
X156241807Y-92377190D01*
X156125732Y-92490859D01*
X156121913Y-92496784D01*
X156121912Y-92496786D01*
X156102207Y-92527362D01*
X156028446Y-92641817D01*
X156026037Y-92648437D01*
X156026035Y-92648440D01*
X155969430Y-92803961D01*
X155967022Y-92810578D01*
X155966140Y-92817562D01*
X155966138Y-92817569D01*
X155961848Y-92851526D01*
X155933466Y-92916602D01*
X155925937Y-92924828D01*
X155182069Y-93668696D01*
X155119757Y-93702722D01*
X155106149Y-93704910D01*
X155027017Y-93713227D01*
X155020346Y-93715498D01*
X154863677Y-93768832D01*
X154863674Y-93768833D01*
X154857007Y-93771103D01*
X154851009Y-93774793D01*
X154851007Y-93774794D01*
X154838257Y-93782638D01*
X154704045Y-93865206D01*
X154699014Y-93870132D01*
X154699011Y-93870135D01*
X154671796Y-93896786D01*
X154575732Y-93990859D01*
X154571913Y-93996784D01*
X154571912Y-93996786D01*
X154492663Y-94119757D01*
X154478446Y-94141817D01*
X154476037Y-94148437D01*
X154476035Y-94148440D01*
X154447734Y-94226198D01*
X154417022Y-94310578D01*
X154394514Y-94488753D01*
X151100500Y-94488753D01*
X151100500Y-84200633D01*
X151120502Y-84132512D01*
X151174158Y-84086019D01*
X151187563Y-84080800D01*
X151326085Y-84035791D01*
X151332782Y-84033615D01*
X151456681Y-83959757D01*
X151480992Y-83945265D01*
X151480994Y-83945264D01*
X151487044Y-83941657D01*
X151617099Y-83817807D01*
X151621488Y-83811202D01*
X151712582Y-83674093D01*
X151716483Y-83668222D01*
X151737590Y-83612657D01*
X151777757Y-83506919D01*
X151777758Y-83506914D01*
X151780257Y-83500336D01*
X151790939Y-83424330D01*
X151804700Y-83326416D01*
X151804700Y-83326411D01*
X151805251Y-83322493D01*
X151805565Y-83300000D01*
X151785546Y-83121528D01*
X151726485Y-82951927D01*
X151720165Y-82941812D01*
X151635049Y-82805599D01*
X151631316Y-82799625D01*
X151567771Y-82735635D01*
X151509733Y-82677190D01*
X151509729Y-82677187D01*
X151504770Y-82672193D01*
X151444416Y-82633891D01*
X151397617Y-82580502D01*
X151387112Y-82510287D01*
X151406982Y-82457779D01*
X151462582Y-82374093D01*
X151466483Y-82368222D01*
X151481168Y-82329564D01*
X151527757Y-82206919D01*
X151527758Y-82206914D01*
X151530257Y-82200336D01*
X151531339Y-82192635D01*
X151554700Y-82026416D01*
X151554700Y-82026411D01*
X151555251Y-82022493D01*
X151555565Y-82000000D01*
X151535546Y-81821528D01*
X151513700Y-81758793D01*
X151499842Y-81719000D01*
X151476485Y-81651927D01*
X151381316Y-81499625D01*
X151317771Y-81435635D01*
X151259733Y-81377190D01*
X151259729Y-81377187D01*
X151254770Y-81372193D01*
X151243761Y-81365206D01*
X151196860Y-81335442D01*
X151103136Y-81275963D01*
X151050907Y-81257365D01*
X150940586Y-81218081D01*
X150940581Y-81218080D01*
X150933951Y-81215719D01*
X150926965Y-81214886D01*
X150926961Y-81214885D01*
X150799177Y-81199648D01*
X150755624Y-81194455D01*
X150748621Y-81195191D01*
X150748620Y-81195191D01*
X150584025Y-81212490D01*
X150584021Y-81212491D01*
X150577017Y-81213227D01*
X150570346Y-81215498D01*
X150413677Y-81268832D01*
X150413674Y-81268833D01*
X150407007Y-81271103D01*
X150401009Y-81274793D01*
X150401007Y-81274794D01*
X150330526Y-81318155D01*
X150254045Y-81365206D01*
X150249014Y-81370132D01*
X150249011Y-81370135D01*
X150203445Y-81414757D01*
X150125732Y-81490859D01*
X150121913Y-81496784D01*
X150121912Y-81496786D01*
X150094431Y-81539428D01*
X150028446Y-81641817D01*
X150026037Y-81648437D01*
X150026035Y-81648440D01*
X149974890Y-81788960D01*
X149967022Y-81810578D01*
X149954619Y-81908757D01*
X149926239Y-81973829D01*
X149918709Y-81982056D01*
X149409062Y-82491703D01*
X149396671Y-82502571D01*
X149380871Y-82514695D01*
X149371718Y-82521718D01*
X149295051Y-82621633D01*
X149275464Y-82647159D01*
X149214956Y-82793238D01*
X149194318Y-82950000D01*
X149195396Y-82958188D01*
X149198422Y-82981173D01*
X149199500Y-82997619D01*
X149199500Y-93498345D01*
X149179498Y-93566466D01*
X149125842Y-93612959D01*
X149114112Y-93617620D01*
X149076851Y-93630305D01*
X148963677Y-93668832D01*
X148963674Y-93668833D01*
X148957007Y-93671103D01*
X148951009Y-93674793D01*
X148951007Y-93674794D01*
X148884844Y-93715498D01*
X148804045Y-93765206D01*
X148799014Y-93770132D01*
X148799011Y-93770135D01*
X148746531Y-93821528D01*
X148675732Y-93890859D01*
X148671913Y-93896784D01*
X148671912Y-93896786D01*
X148605395Y-94000000D01*
X148578446Y-94041817D01*
X148517022Y-94210578D01*
X148494514Y-94388753D01*
X138686702Y-94388753D01*
X138698101Y-94351040D01*
X138750305Y-94305805D01*
X138892652Y-94239428D01*
X138892657Y-94239425D01*
X138897639Y-94237102D01*
X138902148Y-94233945D01*
X139072366Y-94114757D01*
X139072369Y-94114755D01*
X139076877Y-94111598D01*
X139231598Y-93956877D01*
X139357102Y-93777638D01*
X139360150Y-93771103D01*
X139447252Y-93584312D01*
X139447253Y-93584310D01*
X139449575Y-93579330D01*
X139506207Y-93367977D01*
X139525277Y-93150000D01*
X139506207Y-92932023D01*
X139449575Y-92720670D01*
X139420624Y-92658584D01*
X139359425Y-92527343D01*
X139359423Y-92527340D01*
X139357102Y-92522362D01*
X139231598Y-92343123D01*
X139076877Y-92188402D01*
X139072369Y-92185245D01*
X139072366Y-92185243D01*
X138902148Y-92066055D01*
X138902145Y-92066053D01*
X138897639Y-92062898D01*
X138892657Y-92060575D01*
X138892652Y-92060572D01*
X138750305Y-91994195D01*
X138697020Y-91947278D01*
X138677559Y-91879000D01*
X138698101Y-91811040D01*
X138750305Y-91765805D01*
X138892652Y-91699428D01*
X138892657Y-91699425D01*
X138897639Y-91697102D01*
X138902148Y-91693945D01*
X139072366Y-91574757D01*
X139072369Y-91574755D01*
X139076877Y-91571598D01*
X139231598Y-91416877D01*
X139357102Y-91237638D01*
X139447244Y-91044330D01*
X139447252Y-91044312D01*
X139447253Y-91044310D01*
X139449575Y-91039330D01*
X139506207Y-90827977D01*
X139525277Y-90610000D01*
X139506207Y-90392023D01*
X139449575Y-90180670D01*
X139425805Y-90129695D01*
X139359425Y-89987343D01*
X139359423Y-89987340D01*
X139357102Y-89982362D01*
X139231598Y-89803123D01*
X139076877Y-89648402D01*
X139072369Y-89645245D01*
X139072366Y-89645243D01*
X138902148Y-89526055D01*
X138902145Y-89526053D01*
X138897639Y-89522898D01*
X138892657Y-89520575D01*
X138892652Y-89520572D01*
X138750305Y-89454195D01*
X138697020Y-89407278D01*
X138677559Y-89339000D01*
X138698101Y-89271040D01*
X138750305Y-89225805D01*
X138892652Y-89159428D01*
X138892657Y-89159425D01*
X138897639Y-89157102D01*
X138902148Y-89153945D01*
X139072366Y-89034757D01*
X139072369Y-89034755D01*
X139076877Y-89031598D01*
X139231598Y-88876877D01*
X139357102Y-88697638D01*
X139447244Y-88504330D01*
X139447252Y-88504312D01*
X139447253Y-88504310D01*
X139449575Y-88499330D01*
X139506207Y-88287977D01*
X139525277Y-88070000D01*
X139506207Y-87852023D01*
X139449575Y-87640670D01*
X139425805Y-87589695D01*
X139359425Y-87447343D01*
X139359423Y-87447340D01*
X139357102Y-87442362D01*
X139231598Y-87263123D01*
X139076877Y-87108402D01*
X139072369Y-87105245D01*
X139072366Y-87105243D01*
X138902148Y-86986055D01*
X138902145Y-86986053D01*
X138897639Y-86982898D01*
X138892657Y-86980575D01*
X138892652Y-86980572D01*
X138750305Y-86914195D01*
X138697020Y-86867278D01*
X138677559Y-86799000D01*
X138698101Y-86731040D01*
X138750305Y-86685805D01*
X138892652Y-86619428D01*
X138892657Y-86619425D01*
X138897639Y-86617102D01*
X138902148Y-86613945D01*
X139072366Y-86494757D01*
X139072369Y-86494755D01*
X139076877Y-86491598D01*
X139231598Y-86336877D01*
X139357102Y-86157638D01*
X139375719Y-86117715D01*
X139447252Y-85964312D01*
X139447253Y-85964310D01*
X139449575Y-85959330D01*
X139506207Y-85747977D01*
X139525277Y-85530000D01*
X139506207Y-85312023D01*
X139449575Y-85100670D01*
X139447252Y-85095688D01*
X139359425Y-84907343D01*
X139359423Y-84907340D01*
X139357102Y-84902362D01*
X139231598Y-84723123D01*
X139076877Y-84568402D01*
X139072369Y-84565245D01*
X139072366Y-84565243D01*
X138902148Y-84446055D01*
X138902145Y-84446053D01*
X138897639Y-84442898D01*
X138892657Y-84440575D01*
X138892652Y-84440572D01*
X138750305Y-84374195D01*
X138697020Y-84327278D01*
X138677559Y-84259000D01*
X138698101Y-84191040D01*
X138750305Y-84145805D01*
X138892652Y-84079428D01*
X138892657Y-84079425D01*
X138897639Y-84077102D01*
X138902148Y-84073945D01*
X139072366Y-83954757D01*
X139072369Y-83954755D01*
X139076877Y-83951598D01*
X139231598Y-83796877D01*
X139357102Y-83617638D01*
X139408732Y-83506919D01*
X139447252Y-83424312D01*
X139447253Y-83424310D01*
X139449575Y-83419330D01*
X139506207Y-83207977D01*
X139525277Y-82990000D01*
X139506207Y-82772023D01*
X139449575Y-82560670D01*
X139429069Y-82516695D01*
X139359425Y-82367343D01*
X139359423Y-82367340D01*
X139357102Y-82362362D01*
X139231598Y-82183123D01*
X139076877Y-82028402D01*
X139072369Y-82025245D01*
X139072366Y-82025243D01*
X138902148Y-81906055D01*
X138902145Y-81906053D01*
X138897639Y-81902898D01*
X138892657Y-81900575D01*
X138892652Y-81900572D01*
X138750305Y-81834195D01*
X138697020Y-81787278D01*
X138677559Y-81719000D01*
X138698101Y-81651040D01*
X138750305Y-81605805D01*
X138892652Y-81539428D01*
X138892657Y-81539425D01*
X138897639Y-81537102D01*
X138951162Y-81499625D01*
X139072366Y-81414757D01*
X139072369Y-81414755D01*
X139076877Y-81411598D01*
X139231598Y-81256877D01*
X139357102Y-81077638D01*
X139447244Y-80884330D01*
X139447252Y-80884312D01*
X139447253Y-80884310D01*
X139449575Y-80879330D01*
X139506207Y-80667977D01*
X139525277Y-80450000D01*
X139506207Y-80232023D01*
X139449575Y-80020670D01*
X139380382Y-79872285D01*
X139359425Y-79827343D01*
X139359423Y-79827340D01*
X139357102Y-79822362D01*
X139231598Y-79643123D01*
X139076877Y-79488402D01*
X139072369Y-79485245D01*
X139072366Y-79485243D01*
X138902148Y-79366055D01*
X138902145Y-79366053D01*
X138897639Y-79362898D01*
X138892657Y-79360575D01*
X138892652Y-79360572D01*
X138750305Y-79294195D01*
X138697020Y-79247278D01*
X138677559Y-79179000D01*
X138698101Y-79111040D01*
X138750305Y-79065805D01*
X138892652Y-78999428D01*
X138892657Y-78999425D01*
X138897639Y-78997102D01*
X138902148Y-78993945D01*
X139072366Y-78874757D01*
X139072369Y-78874755D01*
X139076877Y-78871598D01*
X139231598Y-78716877D01*
X139357102Y-78537638D01*
X139447244Y-78344330D01*
X139447252Y-78344312D01*
X139447253Y-78344310D01*
X139449575Y-78339330D01*
X139506207Y-78127977D01*
X139525277Y-77910000D01*
X139506207Y-77692023D01*
X139449575Y-77480670D01*
X139425805Y-77429695D01*
X139359425Y-77287343D01*
X139359423Y-77287340D01*
X139357102Y-77282362D01*
X139231598Y-77103123D01*
X139076877Y-76948402D01*
X139072369Y-76945245D01*
X139072366Y-76945243D01*
X138902148Y-76826055D01*
X138902145Y-76826053D01*
X138897639Y-76822898D01*
X138892653Y-76820573D01*
X138892646Y-76820569D01*
X138877060Y-76813301D01*
X138823775Y-76766383D01*
X138804315Y-76698106D01*
X138824858Y-76630146D01*
X138874879Y-76585955D01*
X138963100Y-76542736D01*
X138971945Y-76537464D01*
X139145328Y-76413792D01*
X139153200Y-76407139D01*
X139304052Y-76256812D01*
X139310730Y-76248965D01*
X139435003Y-76076020D01*
X139440313Y-76067183D01*
X139534670Y-75876267D01*
X139538469Y-75866672D01*
X139600377Y-75662910D01*
X139602555Y-75652837D01*
X139603986Y-75641962D01*
X139601775Y-75627778D01*
X139588617Y-75624000D01*
X134390116Y-75624000D01*
X134374877Y-75628475D01*
X134373672Y-75629865D01*
X134372001Y-75637548D01*
X134372001Y-76264669D01*
X132400000Y-76264669D01*
X132400000Y-75097885D01*
X134372000Y-75097885D01*
X134376475Y-75113124D01*
X134377865Y-75114329D01*
X134385548Y-75116000D01*
X135457885Y-75116000D01*
X135473124Y-75111525D01*
X135474329Y-75110135D01*
X135476000Y-75102452D01*
X135476000Y-75097885D01*
X135984000Y-75097885D01*
X135988475Y-75113124D01*
X135989865Y-75114329D01*
X135997548Y-75116000D01*
X137997885Y-75116000D01*
X138013124Y-75111525D01*
X138014329Y-75110135D01*
X138016000Y-75102452D01*
X138016000Y-75097885D01*
X138524000Y-75097885D01*
X138528475Y-75113124D01*
X138529865Y-75114329D01*
X138537548Y-75116000D01*
X139588344Y-75116000D01*
X139601875Y-75112027D01*
X139603180Y-75102947D01*
X139561214Y-74935875D01*
X139557894Y-74926124D01*
X139472972Y-74730814D01*
X139468105Y-74721739D01*
X139352426Y-74542926D01*
X139346136Y-74534757D01*
X139202806Y-74377240D01*
X139195273Y-74370215D01*
X139028139Y-74238222D01*
X139019552Y-74232517D01*
X138833117Y-74129599D01*
X138823705Y-74125369D01*
X138622959Y-74054280D01*
X138612988Y-74051646D01*
X138541837Y-74038972D01*
X138528540Y-74040432D01*
X138524000Y-74054989D01*
X138524000Y-75097885D01*
X138016000Y-75097885D01*
X138016000Y-74053102D01*
X138012082Y-74039758D01*
X137997806Y-74037771D01*
X137959324Y-74043660D01*
X137949288Y-74046051D01*
X137746868Y-74112212D01*
X137737359Y-74116209D01*
X137548463Y-74214542D01*
X137539738Y-74220036D01*
X137369433Y-74347905D01*
X137361726Y-74354748D01*
X137284094Y-74435985D01*
X137222570Y-74471415D01*
X137151657Y-74467958D01*
X137093871Y-74426712D01*
X137075018Y-74393164D01*
X137033324Y-74281946D01*
X137024786Y-74266351D01*
X136948285Y-74164276D01*
X136935724Y-74151715D01*
X136833649Y-74075214D01*
X136818054Y-74066676D01*
X136697606Y-74021522D01*
X136682351Y-74017895D01*
X136631486Y-74012369D01*
X136624672Y-74012000D01*
X136002115Y-74012000D01*
X135986876Y-74016475D01*
X135985671Y-74017865D01*
X135984000Y-74025548D01*
X135984000Y-75097885D01*
X135476000Y-75097885D01*
X135476000Y-74030116D01*
X135471525Y-74014877D01*
X135470135Y-74013672D01*
X135462452Y-74012001D01*
X134835331Y-74012001D01*
X134828510Y-74012371D01*
X134777648Y-74017895D01*
X134762396Y-74021521D01*
X134641946Y-74066676D01*
X134626351Y-74075214D01*
X134524276Y-74151715D01*
X134511715Y-74164276D01*
X134435214Y-74266351D01*
X134426676Y-74281946D01*
X134381522Y-74402394D01*
X134377895Y-74417649D01*
X134372369Y-74468514D01*
X134372000Y-74475328D01*
X134372000Y-75097885D01*
X132400000Y-75097885D01*
X132400000Y-73041398D01*
X132401551Y-73021687D01*
X132403435Y-73009793D01*
X132404986Y-73000000D01*
X132403219Y-72988843D01*
X132401820Y-72962954D01*
X132417031Y-72653321D01*
X132418243Y-72641015D01*
X132425279Y-72593586D01*
X132428899Y-72569183D01*
X162389389Y-72569183D01*
X162390912Y-72577607D01*
X162403292Y-72581000D01*
X163452885Y-72581000D01*
X163468124Y-72576525D01*
X163469329Y-72575135D01*
X163471000Y-72567452D01*
X163471000Y-72562885D01*
X163979000Y-72562885D01*
X163983475Y-72578124D01*
X163984865Y-72579329D01*
X163992548Y-72581000D01*
X165992885Y-72581000D01*
X166008124Y-72576525D01*
X166009329Y-72575135D01*
X166011000Y-72567452D01*
X166011000Y-72562885D01*
X166519000Y-72562885D01*
X166523475Y-72578124D01*
X166524865Y-72579329D01*
X166532548Y-72581000D01*
X167583344Y-72581000D01*
X167596875Y-72577027D01*
X167598180Y-72567947D01*
X167556214Y-72400875D01*
X167552894Y-72391124D01*
X167467972Y-72195814D01*
X167463105Y-72186739D01*
X167347426Y-72007926D01*
X167341136Y-71999757D01*
X167197806Y-71842240D01*
X167190273Y-71835215D01*
X167023139Y-71703222D01*
X167014552Y-71697517D01*
X166828117Y-71594599D01*
X166818705Y-71590369D01*
X166617959Y-71519280D01*
X166607988Y-71516646D01*
X166536837Y-71503972D01*
X166523540Y-71505432D01*
X166519000Y-71519989D01*
X166519000Y-72562885D01*
X166011000Y-72562885D01*
X166011000Y-71518102D01*
X166007082Y-71504758D01*
X165992806Y-71502771D01*
X165954324Y-71508660D01*
X165944288Y-71511051D01*
X165741868Y-71577212D01*
X165732359Y-71581209D01*
X165543463Y-71679542D01*
X165534738Y-71685036D01*
X165364433Y-71812905D01*
X165356726Y-71819748D01*
X165209590Y-71973717D01*
X165203104Y-71981727D01*
X165098193Y-72135521D01*
X165043282Y-72180524D01*
X164972757Y-72188695D01*
X164909010Y-72157441D01*
X164888313Y-72132957D01*
X164807427Y-72007926D01*
X164801136Y-71999757D01*
X164657806Y-71842240D01*
X164650273Y-71835215D01*
X164483139Y-71703222D01*
X164474552Y-71697517D01*
X164288117Y-71594599D01*
X164278705Y-71590369D01*
X164077959Y-71519280D01*
X164067988Y-71516646D01*
X163996837Y-71503972D01*
X163983540Y-71505432D01*
X163979000Y-71519989D01*
X163979000Y-72562885D01*
X163471000Y-72562885D01*
X163471000Y-71518102D01*
X163467082Y-71504758D01*
X163452806Y-71502771D01*
X163414324Y-71508660D01*
X163404288Y-71511051D01*
X163201868Y-71577212D01*
X163192359Y-71581209D01*
X163003463Y-71679542D01*
X162994738Y-71685036D01*
X162824433Y-71812905D01*
X162816726Y-71819748D01*
X162669590Y-71973717D01*
X162663104Y-71981727D01*
X162543098Y-72157649D01*
X162538000Y-72166623D01*
X162448338Y-72359783D01*
X162444775Y-72369470D01*
X162389389Y-72569183D01*
X132428899Y-72569183D01*
X132468265Y-72303799D01*
X132470676Y-72291674D01*
X132553511Y-71960981D01*
X132557100Y-71949149D01*
X132671949Y-71628168D01*
X132676681Y-71616744D01*
X132822437Y-71308566D01*
X132828266Y-71297661D01*
X133003529Y-71005253D01*
X133010399Y-70994972D01*
X133213470Y-70721162D01*
X133221314Y-70711603D01*
X133450259Y-70459002D01*
X133458997Y-70450264D01*
X133711603Y-70221314D01*
X133721162Y-70213470D01*
X133994972Y-70010399D01*
X134005253Y-70003529D01*
X134297661Y-69828266D01*
X134308562Y-69822439D01*
X134472533Y-69744887D01*
X134616744Y-69676681D01*
X134628168Y-69671949D01*
X134949149Y-69557100D01*
X134960981Y-69553511D01*
X135234594Y-69484974D01*
X135291677Y-69470675D01*
X135303799Y-69468265D01*
X135641020Y-69418242D01*
X135653316Y-69417031D01*
X135761245Y-69411729D01*
X135962954Y-69401820D01*
X135988843Y-69403219D01*
X135990144Y-69403425D01*
X136000000Y-69404986D01*
X136021689Y-69401551D01*
X136041398Y-69400000D01*
X165958602Y-69400000D01*
X165978311Y-69401551D01*
G37*
%TD.AperFunction*%
%TD*%
M02*
