%TF.GenerationSoftware,KiCad,Pcbnew,(6.0.5)*%
%TF.CreationDate,2025-08-25T10:47:48+02:00*%
%TF.ProjectId,Alchemy_to_Landungsbruecke,416c6368-656d-4795-9f74-6f5f4c616e64,rev?*%
%TF.SameCoordinates,Original*%
%TF.FileFunction,Copper,L2,Bot*%
%TF.FilePolarity,Positive*%
%FSLAX46Y46*%
G04 Gerber Fmt 4.6, Leading zero omitted, Abs format (unit mm)*
G04 Created by KiCad (PCBNEW (6.0.5)) date 2025-08-25 10:47:48*
%MOMM*%
%LPD*%
G01*
G04 APERTURE LIST*
%TA.AperFunction,ComponentPad*%
%ADD10R,1.700000X1.700000*%
%TD*%
%TA.AperFunction,ComponentPad*%
%ADD11O,1.700000X1.700000*%
%TD*%
%TA.AperFunction,ViaPad*%
%ADD12C,0.800000*%
%TD*%
%TA.AperFunction,Conductor*%
%ADD13C,0.400000*%
%TD*%
G04 APERTURE END LIST*
D10*
%TO.P,J2,1,Pin_1*%
%TO.N,/VM*%
X163725000Y-126175000D03*
D11*
%TO.P,J2,2,Pin_2*%
%TO.N,GND*%
X166265000Y-126175000D03*
%TO.P,J2,3,Pin_3*%
X163725000Y-123635000D03*
%TO.P,J2,4,Pin_4*%
%TO.N,unconnected-(J2-Pad4)*%
X166265000Y-123635000D03*
%TO.P,J2,5,Pin_5*%
%TO.N,+5V*%
X163725000Y-121095000D03*
%TO.P,J2,6,Pin_6*%
%TO.N,unconnected-(J2-Pad6)*%
X166265000Y-121095000D03*
%TO.P,J2,7,Pin_7*%
%TO.N,unconnected-(J2-Pad7)*%
X163725000Y-118555000D03*
%TO.P,J2,8,Pin_8*%
%TO.N,/GPIO3*%
X166265000Y-118555000D03*
%TO.P,J2,9,Pin_9*%
%TO.N,/GPIO2*%
X163725000Y-116015000D03*
%TO.P,J2,10,Pin_10*%
%TO.N,unconnected-(J2-Pad10)*%
X166265000Y-116015000D03*
%TO.P,J2,11,Pin_11*%
%TO.N,unconnected-(J2-Pad11)*%
X163725000Y-113475000D03*
%TO.P,J2,12,Pin_12*%
%TO.N,/GPIO1*%
X166265000Y-113475000D03*
%TO.P,J2,13,Pin_13*%
%TO.N,/GPIO0*%
X163725000Y-110935000D03*
%TO.P,J2,14,Pin_14*%
%TO.N,unconnected-(J2-Pad14)*%
X166265000Y-110935000D03*
%TO.P,J2,15,Pin_15*%
%TO.N,unconnected-(J2-Pad15)*%
X163725000Y-108395000D03*
%TO.P,J2,16,Pin_16*%
%TO.N,unconnected-(J2-Pad16)*%
X166265000Y-108395000D03*
%TO.P,J2,17,Pin_17*%
%TO.N,/ADC8*%
X163725000Y-105855000D03*
%TO.P,J2,18,Pin_18*%
%TO.N,/ADC9*%
X166265000Y-105855000D03*
%TO.P,J2,19,Pin_19*%
%TO.N,/ADC6*%
X163725000Y-103315000D03*
%TO.P,J2,20,Pin_20*%
%TO.N,/ADC7*%
X166265000Y-103315000D03*
%TO.P,J2,21,Pin_21*%
%TO.N,/ADC2*%
X163725000Y-100775000D03*
%TO.P,J2,22,Pin_22*%
%TO.N,/ADC3*%
X166265000Y-100775000D03*
%TO.P,J2,23,Pin_23*%
%TO.N,unconnected-(J2-Pad23)*%
X163725000Y-98235000D03*
%TO.P,J2,24,Pin_24*%
%TO.N,/SPI2_NCS*%
X166265000Y-98235000D03*
%TO.P,J2,25,Pin_25*%
%TO.N,/ADC1*%
X163725000Y-95695000D03*
%TO.P,J2,26,Pin_26*%
%TO.N,/ADC0*%
X166265000Y-95695000D03*
%TO.P,J2,27,Pin_27*%
%TO.N,/SPI2_SCK*%
X163725000Y-93155000D03*
%TO.P,J2,28,Pin_28*%
%TO.N,/SPI2_MISO*%
X166265000Y-93155000D03*
%TO.P,J2,29,Pin_29*%
%TO.N,/SPI2_MOSI*%
X163725000Y-90615000D03*
%TO.P,J2,30,Pin_30*%
%TO.N,/SPI1_NCS*%
X166265000Y-90615000D03*
%TO.P,J2,31,Pin_31*%
%TO.N,/SPI1_SCK*%
X163725000Y-88075000D03*
%TO.P,J2,32,Pin_32*%
%TO.N,/SPI1_MOSI*%
X166265000Y-88075000D03*
%TO.P,J2,33,Pin_33*%
%TO.N,/SPI1_MISO*%
X163725000Y-85535000D03*
%TO.P,J2,34,Pin_34*%
%TO.N,/ADC4*%
X166265000Y-85535000D03*
%TO.P,J2,35,Pin_35*%
%TO.N,/I2C2_SCL*%
X163725000Y-82995000D03*
%TO.P,J2,36,Pin_36*%
%TO.N,/ADC5*%
X166265000Y-82995000D03*
%TO.P,J2,37,Pin_37*%
%TO.N,/I2C2_SDA*%
X163725000Y-80455000D03*
%TO.P,J2,38,Pin_38*%
%TO.N,/I2C1_SDA*%
X166265000Y-80455000D03*
%TO.P,J2,39,Pin_39*%
%TO.N,/UART1_TX*%
X163725000Y-77915000D03*
%TO.P,J2,40,Pin_40*%
%TO.N,/UART1_RX*%
X166265000Y-77915000D03*
%TO.P,J2,41,Pin_41*%
%TO.N,/I2C1_SCL*%
X163725000Y-75375000D03*
%TO.P,J2,42,Pin_42*%
%TO.N,+5V*%
X166265000Y-75375000D03*
%TO.P,J2,43,Pin_43*%
%TO.N,GND*%
X163725000Y-72835000D03*
%TO.P,J2,44,Pin_44*%
X166265000Y-72835000D03*
%TD*%
D10*
%TO.P,J1,1,Pin_1*%
%TO.N,GND*%
X135730000Y-75370000D03*
D11*
%TO.P,J1,2,Pin_2*%
X138270000Y-75370000D03*
%TO.P,J1,3,Pin_3*%
%TO.N,+5V*%
X135730000Y-77910000D03*
%TO.P,J1,4,Pin_4*%
X138270000Y-77910000D03*
%TO.P,J1,5,Pin_5*%
%TO.N,/I2C1_SDA*%
X135730000Y-80450000D03*
%TO.P,J1,6,Pin_6*%
%TO.N,/I2C1_SCL*%
X138270000Y-80450000D03*
%TO.P,J1,7,Pin_7*%
%TO.N,/UART1_RX*%
X135730000Y-82990000D03*
%TO.P,J1,8,Pin_8*%
%TO.N,/UART1_TX*%
X138270000Y-82990000D03*
%TO.P,J1,9,Pin_9*%
%TO.N,/SPI1_MOSI*%
X135730000Y-85530000D03*
%TO.P,J1,10,Pin_10*%
%TO.N,/SPI1_MISO*%
X138270000Y-85530000D03*
%TO.P,J1,11,Pin_11*%
%TO.N,/SPI1_SCK*%
X135730000Y-88070000D03*
%TO.P,J1,12,Pin_12*%
%TO.N,/SPI1_NCS*%
X138270000Y-88070000D03*
%TO.P,J1,13,Pin_13*%
%TO.N,/SPI2_MOSI*%
X135730000Y-90610000D03*
%TO.P,J1,14,Pin_14*%
%TO.N,/SPI2_MISO*%
X138270000Y-90610000D03*
%TO.P,J1,15,Pin_15*%
%TO.N,/SPI2_SCK*%
X135730000Y-93150000D03*
%TO.P,J1,16,Pin_16*%
%TO.N,/SPI2_NCS*%
X138270000Y-93150000D03*
%TO.P,J1,17,Pin_17*%
%TO.N,/I2C2_SDA*%
X135730000Y-95690000D03*
%TO.P,J1,18,Pin_18*%
%TO.N,/I2C2_SCL*%
X138270000Y-95690000D03*
%TO.P,J1,19,Pin_19*%
%TO.N,GND*%
X135730000Y-98230000D03*
%TO.P,J1,20,Pin_20*%
X138270000Y-98230000D03*
%TO.P,J1,21,Pin_21*%
%TO.N,/ADC0*%
X135730000Y-100770000D03*
%TO.P,J1,22,Pin_22*%
%TO.N,/ADC1*%
X138270000Y-100770000D03*
%TO.P,J1,23,Pin_23*%
%TO.N,/ADC2*%
X135730000Y-103310000D03*
%TO.P,J1,24,Pin_24*%
%TO.N,/ADC3*%
X138270000Y-103310000D03*
%TO.P,J1,25,Pin_25*%
%TO.N,/ADC4*%
X135730000Y-105850000D03*
%TO.P,J1,26,Pin_26*%
%TO.N,/ADC5*%
X138270000Y-105850000D03*
%TO.P,J1,27,Pin_27*%
%TO.N,/ADC6*%
X135730000Y-108390000D03*
%TO.P,J1,28,Pin_28*%
%TO.N,/ADC7*%
X138270000Y-108390000D03*
%TO.P,J1,29,Pin_29*%
%TO.N,/ADC8*%
X135730000Y-110930000D03*
%TO.P,J1,30,Pin_30*%
%TO.N,/ADC9*%
X138270000Y-110930000D03*
%TO.P,J1,31,Pin_31*%
%TO.N,/GPIO0*%
X135730000Y-113470000D03*
%TO.P,J1,32,Pin_32*%
%TO.N,/GPIO1*%
X138270000Y-113470000D03*
%TO.P,J1,33,Pin_33*%
%TO.N,/GPIO2*%
X135730000Y-116010000D03*
%TO.P,J1,34,Pin_34*%
%TO.N,/GPIO3*%
X138270000Y-116010000D03*
%TO.P,J1,35,Pin_35*%
%TO.N,unconnected-(J1-Pad35)*%
X135730000Y-118550000D03*
%TO.P,J1,36,Pin_36*%
%TO.N,unconnected-(J1-Pad36)*%
X138270000Y-118550000D03*
%TO.P,J1,37,Pin_37*%
%TO.N,GND*%
X135730000Y-121090000D03*
%TO.P,J1,38,Pin_38*%
X138270000Y-121090000D03*
%TO.P,J1,39,Pin_39*%
%TO.N,/VM*%
X135730000Y-123630000D03*
%TO.P,J1,40,Pin_40*%
X138270000Y-123630000D03*
%TD*%
D12*
%TO.N,/I2C1_SDA*%
X162000000Y-74100000D03*
%TO.N,/I2C2_SDA*%
X150750000Y-82000000D03*
X149300000Y-94400000D03*
%TO.N,/I2C2_SCL*%
X150000000Y-95500000D03*
X151000000Y-83300000D03*
%TO.N,/ADC0*%
X157250000Y-96750000D03*
X159500000Y-94500000D03*
%TO.N,/ADC1*%
X157500000Y-98000000D03*
X159900000Y-95800000D03*
%TO.N,/ADC4*%
X161500000Y-98100000D03*
X141700000Y-101000000D03*
X141000000Y-104500000D03*
%TO.N,/ADC5*%
X142500000Y-104500000D03*
X160600000Y-99500000D03*
X143100000Y-101200000D03*
%TD*%
D13*
%TO.N,/I2C1_SDA*%
X165015489Y-74857435D02*
X164258054Y-74100000D01*
X165015489Y-79205489D02*
X165015489Y-74857435D01*
X166265000Y-80455000D02*
X165015489Y-79205489D01*
X164258054Y-74100000D02*
X162000000Y-74100000D01*
%TO.N,/I2C2_SDA*%
X149800000Y-82950000D02*
X149800000Y-93900000D01*
X150750000Y-82000000D02*
X149800000Y-82950000D01*
X149800000Y-93900000D02*
X149300000Y-94400000D01*
%TO.N,/I2C2_SCL*%
X150500000Y-83800000D02*
X151000000Y-83300000D01*
X150500000Y-95000000D02*
X150500000Y-83800000D01*
X150000000Y-95500000D02*
X150500000Y-95000000D01*
%TO.N,/ADC0*%
X157250000Y-96750000D02*
X159500000Y-94500000D01*
%TO.N,/ADC1*%
X159725000Y-95800000D02*
X159900000Y-95800000D01*
X157525000Y-98000000D02*
X159725000Y-95800000D01*
X157500000Y-98000000D02*
X157525000Y-98000000D01*
%TO.N,/ADC4*%
X141750000Y-103750000D02*
X141750000Y-101050000D01*
X162614511Y-96985489D02*
X161500000Y-98100000D01*
X165015489Y-96212565D02*
X164242565Y-96985489D01*
X141750000Y-101050000D02*
X141700000Y-101000000D01*
X164242565Y-96985489D02*
X162614511Y-96985489D01*
X166265000Y-85535000D02*
X165015489Y-86784511D01*
X165015489Y-86784511D02*
X165015489Y-96212565D01*
X141000000Y-104500000D02*
X141750000Y-103750000D01*
%TO.N,/ADC5*%
X166808054Y-99500000D02*
X167514511Y-98793543D01*
X167514511Y-98793543D02*
X167514511Y-84244511D01*
X160600000Y-99500000D02*
X166808054Y-99500000D01*
X142500000Y-104500000D02*
X142800000Y-104200000D01*
X167514511Y-84244511D02*
X166265000Y-82995000D01*
X142800000Y-101500000D02*
X143100000Y-101200000D01*
X142800000Y-104200000D02*
X142800000Y-101500000D01*
%TD*%
%TA.AperFunction,Conductor*%
%TO.N,GND*%
G36*
X165970018Y-69510000D02*
G01*
X165984852Y-69512310D01*
X165984855Y-69512310D01*
X165993724Y-69513691D01*
X166002627Y-69512527D01*
X166002628Y-69512527D01*
X166013076Y-69511161D01*
X166035594Y-69510249D01*
X166336051Y-69525010D01*
X166348345Y-69526221D01*
X166675034Y-69574680D01*
X166687156Y-69577090D01*
X166781196Y-69600646D01*
X167007523Y-69657339D01*
X167019355Y-69660928D01*
X167330311Y-69772190D01*
X167341735Y-69776922D01*
X167409500Y-69808972D01*
X167640292Y-69918128D01*
X167651188Y-69923953D01*
X167792101Y-70008412D01*
X167934467Y-70093744D01*
X167944748Y-70100614D01*
X168210017Y-70297350D01*
X168219556Y-70305177D01*
X168464282Y-70526985D01*
X168473015Y-70535718D01*
X168694823Y-70780444D01*
X168702650Y-70789983D01*
X168846901Y-70984483D01*
X168899386Y-71055252D01*
X168906256Y-71065533D01*
X169076045Y-71348807D01*
X169081874Y-71359712D01*
X169223078Y-71658265D01*
X169227810Y-71669689D01*
X169339072Y-71980645D01*
X169342661Y-71992477D01*
X169422909Y-72312841D01*
X169425320Y-72324966D01*
X169462873Y-72578124D01*
X169473779Y-72651650D01*
X169474991Y-72663955D01*
X169489390Y-72957034D01*
X169488042Y-72982598D01*
X169486309Y-72993724D01*
X169487474Y-73002630D01*
X169490436Y-73025283D01*
X169491500Y-73041621D01*
X169491500Y-125950633D01*
X169490000Y-125970018D01*
X169486309Y-125993724D01*
X169487473Y-126002627D01*
X169487473Y-126002628D01*
X169488839Y-126013076D01*
X169489751Y-126035597D01*
X169474991Y-126336045D01*
X169473779Y-126348350D01*
X169425321Y-126675031D01*
X169422909Y-126687159D01*
X169342661Y-127007523D01*
X169339072Y-127019355D01*
X169227810Y-127330311D01*
X169223078Y-127341735D01*
X169081874Y-127640288D01*
X169076045Y-127651193D01*
X168906256Y-127934467D01*
X168899386Y-127944748D01*
X168702650Y-128210017D01*
X168694823Y-128219556D01*
X168473020Y-128464277D01*
X168464282Y-128473015D01*
X168219556Y-128694823D01*
X168210017Y-128702650D01*
X168015517Y-128846901D01*
X167944748Y-128899386D01*
X167934467Y-128906256D01*
X167792101Y-128991588D01*
X167651188Y-129076047D01*
X167640292Y-129081872D01*
X167505870Y-129145448D01*
X167341735Y-129223078D01*
X167330311Y-129227810D01*
X167019355Y-129339072D01*
X167007523Y-129342661D01*
X166781196Y-129399354D01*
X166687156Y-129422910D01*
X166675034Y-129425320D01*
X166348345Y-129473779D01*
X166336051Y-129474990D01*
X166042961Y-129489390D01*
X166017402Y-129488042D01*
X166006276Y-129486309D01*
X165974714Y-129490436D01*
X165958379Y-129491500D01*
X136049367Y-129491500D01*
X136029982Y-129490000D01*
X136015148Y-129487690D01*
X136015145Y-129487690D01*
X136006276Y-129486309D01*
X135997373Y-129487473D01*
X135997372Y-129487473D01*
X135986924Y-129488839D01*
X135964406Y-129489751D01*
X135663949Y-129474990D01*
X135651655Y-129473779D01*
X135324966Y-129425320D01*
X135312844Y-129422910D01*
X135218804Y-129399354D01*
X134992477Y-129342661D01*
X134980645Y-129339072D01*
X134669689Y-129227810D01*
X134658265Y-129223078D01*
X134494130Y-129145448D01*
X134359708Y-129081872D01*
X134348812Y-129076047D01*
X134207899Y-128991588D01*
X134065533Y-128906256D01*
X134055252Y-128899386D01*
X133984483Y-128846901D01*
X133789983Y-128702650D01*
X133780444Y-128694823D01*
X133535718Y-128473015D01*
X133526980Y-128464277D01*
X133305177Y-128219556D01*
X133297350Y-128210017D01*
X133100614Y-127944748D01*
X133093744Y-127934467D01*
X132923955Y-127651193D01*
X132918126Y-127640288D01*
X132776922Y-127341735D01*
X132772190Y-127330311D01*
X132660928Y-127019355D01*
X132657339Y-127007523D01*
X132577091Y-126687159D01*
X132574679Y-126675031D01*
X132542462Y-126457837D01*
X132526220Y-126348343D01*
X132525009Y-126336045D01*
X132510795Y-126046695D01*
X132512387Y-126019619D01*
X132513576Y-126012552D01*
X132513729Y-126000000D01*
X132509773Y-125972376D01*
X132508500Y-125954514D01*
X132508500Y-123596695D01*
X134367251Y-123596695D01*
X134367548Y-123601848D01*
X134367548Y-123601851D01*
X134373011Y-123696590D01*
X134380110Y-123819715D01*
X134381247Y-123824761D01*
X134381248Y-123824767D01*
X134398872Y-123902966D01*
X134429222Y-124037639D01*
X134513266Y-124244616D01*
X134553136Y-124309678D01*
X134627291Y-124430688D01*
X134629987Y-124435088D01*
X134776250Y-124603938D01*
X134948126Y-124746632D01*
X135141000Y-124859338D01*
X135145825Y-124861180D01*
X135145826Y-124861181D01*
X135218612Y-124888975D01*
X135349692Y-124939030D01*
X135354760Y-124940061D01*
X135354763Y-124940062D01*
X135434861Y-124956358D01*
X135568597Y-124983567D01*
X135573772Y-124983757D01*
X135573774Y-124983757D01*
X135786673Y-124991564D01*
X135786677Y-124991564D01*
X135791837Y-124991753D01*
X135796957Y-124991097D01*
X135796959Y-124991097D01*
X136008288Y-124964025D01*
X136008289Y-124964025D01*
X136013416Y-124963368D01*
X136018846Y-124961739D01*
X136222429Y-124900661D01*
X136222434Y-124900659D01*
X136227384Y-124899174D01*
X136427994Y-124800896D01*
X136609860Y-124671173D01*
X136768096Y-124513489D01*
X136827594Y-124430689D01*
X136898453Y-124332077D01*
X136899776Y-124333028D01*
X136946645Y-124289857D01*
X137016580Y-124277625D01*
X137082026Y-124305144D01*
X137109875Y-124336994D01*
X137169987Y-124435088D01*
X137316250Y-124603938D01*
X137488126Y-124746632D01*
X137681000Y-124859338D01*
X137685825Y-124861180D01*
X137685826Y-124861181D01*
X137758612Y-124888975D01*
X137889692Y-124939030D01*
X137894760Y-124940061D01*
X137894763Y-124940062D01*
X137974861Y-124956358D01*
X138108597Y-124983567D01*
X138113772Y-124983757D01*
X138113774Y-124983757D01*
X138326673Y-124991564D01*
X138326677Y-124991564D01*
X138331837Y-124991753D01*
X138336957Y-124991097D01*
X138336959Y-124991097D01*
X138548288Y-124964025D01*
X138548289Y-124964025D01*
X138553416Y-124963368D01*
X138558846Y-124961739D01*
X138762429Y-124900661D01*
X138762434Y-124900659D01*
X138767384Y-124899174D01*
X138967994Y-124800896D01*
X139149860Y-124671173D01*
X139308096Y-124513489D01*
X139367594Y-124430689D01*
X139435435Y-124336277D01*
X139438453Y-124332077D01*
X139459320Y-124289857D01*
X139535136Y-124136453D01*
X139535137Y-124136451D01*
X139537430Y-124131811D01*
X139602370Y-123918069D01*
X139631529Y-123696590D01*
X139633156Y-123630000D01*
X139614852Y-123407361D01*
X139560431Y-123190702D01*
X139471354Y-122985840D01*
X139431906Y-122924862D01*
X139352822Y-122802617D01*
X139352820Y-122802614D01*
X139350014Y-122798277D01*
X139199670Y-122633051D01*
X139195619Y-122629852D01*
X139195615Y-122629848D01*
X139028414Y-122497800D01*
X139028410Y-122497798D01*
X139024359Y-122494598D01*
X138982569Y-122471529D01*
X138932598Y-122421097D01*
X138917826Y-122351654D01*
X138942942Y-122285248D01*
X138970294Y-122258641D01*
X139145328Y-122133792D01*
X139153200Y-122127139D01*
X139304052Y-121976812D01*
X139310730Y-121968965D01*
X139435003Y-121796020D01*
X139440313Y-121787183D01*
X139534670Y-121596267D01*
X139538469Y-121586672D01*
X139600377Y-121382910D01*
X139602555Y-121372837D01*
X139603986Y-121361962D01*
X139601775Y-121347778D01*
X139588617Y-121344000D01*
X134413225Y-121344000D01*
X134399694Y-121347973D01*
X134398257Y-121357966D01*
X134428565Y-121492446D01*
X134431645Y-121502275D01*
X134511770Y-121699603D01*
X134516413Y-121708794D01*
X134627694Y-121890388D01*
X134633777Y-121898699D01*
X134773213Y-122059667D01*
X134780580Y-122066883D01*
X134944434Y-122202916D01*
X134952881Y-122208831D01*
X135021969Y-122249203D01*
X135070693Y-122300842D01*
X135083764Y-122370625D01*
X135057033Y-122436396D01*
X135016584Y-122469752D01*
X135003607Y-122476507D01*
X134999474Y-122479610D01*
X134999471Y-122479612D01*
X134829100Y-122607530D01*
X134824965Y-122610635D01*
X134670629Y-122772138D01*
X134667720Y-122776403D01*
X134667714Y-122776411D01*
X134649838Y-122802617D01*
X134544743Y-122956680D01*
X134450688Y-123159305D01*
X134390989Y-123374570D01*
X134367251Y-123596695D01*
X132508500Y-123596695D01*
X132508500Y-118516695D01*
X134367251Y-118516695D01*
X134367548Y-118521848D01*
X134367548Y-118521851D01*
X134373011Y-118616590D01*
X134380110Y-118739715D01*
X134381247Y-118744761D01*
X134381248Y-118744767D01*
X134382375Y-118749767D01*
X134429222Y-118957639D01*
X134513266Y-119164616D01*
X134564019Y-119247438D01*
X134627291Y-119350688D01*
X134629987Y-119355088D01*
X134776250Y-119523938D01*
X134948126Y-119666632D01*
X134956683Y-119671632D01*
X135021955Y-119709774D01*
X135070679Y-119761412D01*
X135083750Y-119831195D01*
X135057019Y-119896967D01*
X135016562Y-119930327D01*
X135008457Y-119934546D01*
X134999738Y-119940036D01*
X134829433Y-120067905D01*
X134821726Y-120074748D01*
X134674590Y-120228717D01*
X134668104Y-120236727D01*
X134548098Y-120412649D01*
X134543000Y-120421623D01*
X134453338Y-120614783D01*
X134449775Y-120624470D01*
X134394389Y-120824183D01*
X134395912Y-120832607D01*
X134408292Y-120836000D01*
X139588344Y-120836000D01*
X139601875Y-120832027D01*
X139603180Y-120822947D01*
X139561214Y-120655875D01*
X139557894Y-120646124D01*
X139472972Y-120450814D01*
X139468105Y-120441739D01*
X139352426Y-120262926D01*
X139346136Y-120254757D01*
X139202806Y-120097240D01*
X139195273Y-120090215D01*
X139028139Y-119958222D01*
X139019556Y-119952520D01*
X138982602Y-119932120D01*
X138932631Y-119881687D01*
X138917859Y-119812245D01*
X138942975Y-119745839D01*
X138970327Y-119719232D01*
X139037060Y-119671632D01*
X139149860Y-119591173D01*
X139308096Y-119433489D01*
X139367594Y-119350689D01*
X139435435Y-119256277D01*
X139438453Y-119252077D01*
X139459320Y-119209857D01*
X139535136Y-119056453D01*
X139535137Y-119056451D01*
X139537430Y-119051811D01*
X139602370Y-118838069D01*
X139631529Y-118616590D01*
X139633156Y-118550000D01*
X139614852Y-118327361D01*
X139560431Y-118110702D01*
X139471354Y-117905840D01*
X139431906Y-117844862D01*
X139352822Y-117722617D01*
X139352820Y-117722614D01*
X139350014Y-117718277D01*
X139199670Y-117553051D01*
X139195619Y-117549852D01*
X139195615Y-117549848D01*
X139028414Y-117417800D01*
X139028410Y-117417798D01*
X139024359Y-117414598D01*
X138983053Y-117391796D01*
X138933084Y-117341364D01*
X138918312Y-117271921D01*
X138943428Y-117205516D01*
X138970780Y-117178909D01*
X139037060Y-117131632D01*
X139149860Y-117051173D01*
X139308096Y-116893489D01*
X139367594Y-116810689D01*
X139435435Y-116716277D01*
X139438453Y-116712077D01*
X139459320Y-116669857D01*
X139535136Y-116516453D01*
X139535137Y-116516451D01*
X139537430Y-116511811D01*
X139602370Y-116298069D01*
X139631529Y-116076590D01*
X139633156Y-116010000D01*
X139614852Y-115787361D01*
X139560431Y-115570702D01*
X139471354Y-115365840D01*
X139431906Y-115304862D01*
X139352822Y-115182617D01*
X139352820Y-115182614D01*
X139350014Y-115178277D01*
X139199670Y-115013051D01*
X139195619Y-115009852D01*
X139195615Y-115009848D01*
X139028414Y-114877800D01*
X139028410Y-114877798D01*
X139024359Y-114874598D01*
X138983053Y-114851796D01*
X138933084Y-114801364D01*
X138918312Y-114731921D01*
X138943428Y-114665516D01*
X138970780Y-114638909D01*
X139037060Y-114591632D01*
X139149860Y-114511173D01*
X139308096Y-114353489D01*
X139367594Y-114270689D01*
X139435435Y-114176277D01*
X139438453Y-114172077D01*
X139459320Y-114129857D01*
X139535136Y-113976453D01*
X139535137Y-113976451D01*
X139537430Y-113971811D01*
X139602370Y-113758069D01*
X139631529Y-113536590D01*
X139633156Y-113470000D01*
X139614852Y-113247361D01*
X139560431Y-113030702D01*
X139471354Y-112825840D01*
X139431906Y-112764862D01*
X139352822Y-112642617D01*
X139352820Y-112642614D01*
X139350014Y-112638277D01*
X139199670Y-112473051D01*
X139195619Y-112469852D01*
X139195615Y-112469848D01*
X139028414Y-112337800D01*
X139028410Y-112337798D01*
X139024359Y-112334598D01*
X138983053Y-112311796D01*
X138933084Y-112261364D01*
X138918312Y-112191921D01*
X138943428Y-112125516D01*
X138970780Y-112098909D01*
X139037060Y-112051632D01*
X139149860Y-111971173D01*
X139308096Y-111813489D01*
X139367594Y-111730689D01*
X139435435Y-111636277D01*
X139438453Y-111632077D01*
X139459320Y-111589857D01*
X139535136Y-111436453D01*
X139535137Y-111436451D01*
X139537430Y-111431811D01*
X139602370Y-111218069D01*
X139631529Y-110996590D01*
X139633156Y-110930000D01*
X139614852Y-110707361D01*
X139560431Y-110490702D01*
X139471354Y-110285840D01*
X139431906Y-110224862D01*
X139352822Y-110102617D01*
X139352820Y-110102614D01*
X139350014Y-110098277D01*
X139199670Y-109933051D01*
X139195619Y-109929852D01*
X139195615Y-109929848D01*
X139028414Y-109797800D01*
X139028410Y-109797798D01*
X139024359Y-109794598D01*
X138983053Y-109771796D01*
X138933084Y-109721364D01*
X138918312Y-109651921D01*
X138943428Y-109585516D01*
X138970780Y-109558909D01*
X139037060Y-109511632D01*
X139149860Y-109431173D01*
X139308096Y-109273489D01*
X139367594Y-109190689D01*
X139435435Y-109096277D01*
X139438453Y-109092077D01*
X139459320Y-109049857D01*
X139535136Y-108896453D01*
X139535137Y-108896451D01*
X139537430Y-108891811D01*
X139602370Y-108678069D01*
X139631529Y-108456590D01*
X139633156Y-108390000D01*
X139614852Y-108167361D01*
X139560431Y-107950702D01*
X139471354Y-107745840D01*
X139431906Y-107684862D01*
X139352822Y-107562617D01*
X139352820Y-107562614D01*
X139350014Y-107558277D01*
X139199670Y-107393051D01*
X139195619Y-107389852D01*
X139195615Y-107389848D01*
X139028414Y-107257800D01*
X139028410Y-107257798D01*
X139024359Y-107254598D01*
X138983053Y-107231796D01*
X138933084Y-107181364D01*
X138918312Y-107111921D01*
X138943428Y-107045516D01*
X138970780Y-107018909D01*
X139037060Y-106971632D01*
X139149860Y-106891173D01*
X139308096Y-106733489D01*
X139367594Y-106650689D01*
X139435435Y-106556277D01*
X139438453Y-106552077D01*
X139459320Y-106509857D01*
X139535136Y-106356453D01*
X139535137Y-106356451D01*
X139537430Y-106351811D01*
X139602370Y-106138069D01*
X139631529Y-105916590D01*
X139633156Y-105850000D01*
X139614852Y-105627361D01*
X139560431Y-105410702D01*
X139471354Y-105205840D01*
X139397400Y-105091525D01*
X139352822Y-105022617D01*
X139352820Y-105022614D01*
X139350014Y-105018277D01*
X139199670Y-104853051D01*
X139195619Y-104849852D01*
X139195615Y-104849848D01*
X139028414Y-104717800D01*
X139028410Y-104717798D01*
X139024359Y-104714598D01*
X138983053Y-104691796D01*
X138933084Y-104641364D01*
X138918312Y-104571921D01*
X138943428Y-104505516D01*
X138949098Y-104500000D01*
X140086496Y-104500000D01*
X140087186Y-104506565D01*
X140096050Y-104590897D01*
X140106458Y-104689928D01*
X140165473Y-104871556D01*
X140260960Y-105036944D01*
X140388747Y-105178866D01*
X140543248Y-105291118D01*
X140549276Y-105293802D01*
X140549278Y-105293803D01*
X140701118Y-105361406D01*
X140717712Y-105368794D01*
X140811113Y-105388647D01*
X140898056Y-105407128D01*
X140898061Y-105407128D01*
X140904513Y-105408500D01*
X141095487Y-105408500D01*
X141101939Y-105407128D01*
X141101944Y-105407128D01*
X141188887Y-105388647D01*
X141282288Y-105368794D01*
X141298882Y-105361406D01*
X141450722Y-105293803D01*
X141450724Y-105293802D01*
X141456752Y-105291118D01*
X141611253Y-105178866D01*
X141656364Y-105128765D01*
X141716810Y-105091525D01*
X141787793Y-105092877D01*
X141843636Y-105128765D01*
X141888747Y-105178866D01*
X142043248Y-105291118D01*
X142049276Y-105293802D01*
X142049278Y-105293803D01*
X142201118Y-105361406D01*
X142217712Y-105368794D01*
X142311113Y-105388647D01*
X142398056Y-105407128D01*
X142398061Y-105407128D01*
X142404513Y-105408500D01*
X142595487Y-105408500D01*
X142601939Y-105407128D01*
X142601944Y-105407128D01*
X142688887Y-105388647D01*
X142782288Y-105368794D01*
X142798882Y-105361406D01*
X142950722Y-105293803D01*
X142950724Y-105293802D01*
X142956752Y-105291118D01*
X143111253Y-105178866D01*
X143239040Y-105036944D01*
X143334527Y-104871556D01*
X143389780Y-104701507D01*
X143391502Y-104696207D01*
X143391502Y-104696205D01*
X143393542Y-104689928D01*
X143402751Y-104602312D01*
X143413185Y-104563718D01*
X143413258Y-104563556D01*
X143423335Y-104545875D01*
X143424620Y-104543478D01*
X143428990Y-104537261D01*
X143435286Y-104521114D01*
X143452202Y-104477725D01*
X143454759Y-104471642D01*
X143475083Y-104426632D01*
X143481045Y-104413427D01*
X143482430Y-104405954D01*
X143483234Y-104403388D01*
X143487855Y-104387165D01*
X143488520Y-104384573D01*
X143491282Y-104377491D01*
X143499622Y-104314139D01*
X143500654Y-104307623D01*
X143510911Y-104252281D01*
X143512295Y-104244814D01*
X143508709Y-104182620D01*
X143508500Y-104175367D01*
X143508500Y-102090375D01*
X143528502Y-102022254D01*
X143560439Y-101988439D01*
X143705909Y-101882749D01*
X143705911Y-101882747D01*
X143711253Y-101878866D01*
X143775485Y-101807529D01*
X143834621Y-101741852D01*
X143834622Y-101741851D01*
X143839040Y-101736944D01*
X143934527Y-101571556D01*
X143993542Y-101389928D01*
X143994604Y-101379829D01*
X144012814Y-101206565D01*
X144013504Y-101200000D01*
X143998573Y-101057939D01*
X143994232Y-101016635D01*
X143994232Y-101016633D01*
X143993542Y-101010072D01*
X143934527Y-100828444D01*
X143839040Y-100663056D01*
X143711253Y-100521134D01*
X143556752Y-100408882D01*
X143550724Y-100406198D01*
X143550722Y-100406197D01*
X143388319Y-100333891D01*
X143388318Y-100333891D01*
X143382288Y-100331206D01*
X143288888Y-100311353D01*
X143201944Y-100292872D01*
X143201939Y-100292872D01*
X143195487Y-100291500D01*
X143004513Y-100291500D01*
X142998061Y-100292872D01*
X142998056Y-100292872D01*
X142911113Y-100311353D01*
X142817712Y-100331206D01*
X142811682Y-100333891D01*
X142811681Y-100333891D01*
X142649278Y-100406197D01*
X142649276Y-100406198D01*
X142643248Y-100408882D01*
X142637907Y-100412762D01*
X142637906Y-100412763D01*
X142582094Y-100453313D01*
X142515226Y-100477172D01*
X142446075Y-100461091D01*
X142414397Y-100435687D01*
X142315675Y-100326045D01*
X142315674Y-100326044D01*
X142311253Y-100321134D01*
X142156752Y-100208882D01*
X142150724Y-100206198D01*
X142150722Y-100206197D01*
X141988319Y-100133891D01*
X141988318Y-100133891D01*
X141982288Y-100131206D01*
X141888887Y-100111353D01*
X141801944Y-100092872D01*
X141801939Y-100092872D01*
X141795487Y-100091500D01*
X141604513Y-100091500D01*
X141598061Y-100092872D01*
X141598056Y-100092872D01*
X141511113Y-100111353D01*
X141417712Y-100131206D01*
X141411682Y-100133891D01*
X141411681Y-100133891D01*
X141249278Y-100206197D01*
X141249276Y-100206198D01*
X141243248Y-100208882D01*
X141088747Y-100321134D01*
X141084326Y-100326044D01*
X141084325Y-100326045D01*
X140969733Y-100453313D01*
X140960960Y-100463056D01*
X140865473Y-100628444D01*
X140806458Y-100810072D01*
X140805768Y-100816633D01*
X140805768Y-100816635D01*
X140791273Y-100954547D01*
X140786496Y-101000000D01*
X140806458Y-101189928D01*
X140865473Y-101371556D01*
X140868776Y-101377278D01*
X140868777Y-101377279D01*
X140879705Y-101396206D01*
X140960960Y-101536944D01*
X140965378Y-101541851D01*
X140965379Y-101541852D01*
X141009136Y-101590449D01*
X141039854Y-101654456D01*
X141041500Y-101674759D01*
X141041500Y-103404340D01*
X141021498Y-103472461D01*
X141004595Y-103493435D01*
X140933467Y-103564563D01*
X140870569Y-103598715D01*
X140717712Y-103631206D01*
X140711682Y-103633891D01*
X140711681Y-103633891D01*
X140549278Y-103706197D01*
X140549276Y-103706198D01*
X140543248Y-103708882D01*
X140388747Y-103821134D01*
X140260960Y-103963056D01*
X140165473Y-104128444D01*
X140106458Y-104310072D01*
X140105768Y-104316633D01*
X140105768Y-104316635D01*
X140089179Y-104474476D01*
X140086496Y-104500000D01*
X138949098Y-104500000D01*
X138970780Y-104478909D01*
X139037060Y-104431632D01*
X139149860Y-104351173D01*
X139193563Y-104307623D01*
X139304435Y-104197137D01*
X139308096Y-104193489D01*
X139367594Y-104110689D01*
X139435435Y-104016277D01*
X139438453Y-104012077D01*
X139459320Y-103969857D01*
X139535136Y-103816453D01*
X139535137Y-103816451D01*
X139537430Y-103811811D01*
X139569900Y-103704940D01*
X139600865Y-103603023D01*
X139600865Y-103603021D01*
X139602370Y-103598069D01*
X139631529Y-103376590D01*
X139633156Y-103310000D01*
X139614852Y-103087361D01*
X139560431Y-102870702D01*
X139471354Y-102665840D01*
X139431906Y-102604862D01*
X139352822Y-102482617D01*
X139352820Y-102482614D01*
X139350014Y-102478277D01*
X139199670Y-102313051D01*
X139195619Y-102309852D01*
X139195615Y-102309848D01*
X139028414Y-102177800D01*
X139028410Y-102177798D01*
X139024359Y-102174598D01*
X138983053Y-102151796D01*
X138933084Y-102101364D01*
X138918312Y-102031921D01*
X138943428Y-101965516D01*
X138970780Y-101938909D01*
X139037060Y-101891632D01*
X139149860Y-101811173D01*
X139308096Y-101653489D01*
X139366971Y-101571556D01*
X139435435Y-101476277D01*
X139438453Y-101472077D01*
X139459320Y-101429857D01*
X139535136Y-101276453D01*
X139535137Y-101276451D01*
X139537430Y-101271811D01*
X139602370Y-101058069D01*
X139631529Y-100836590D01*
X139633156Y-100770000D01*
X139614852Y-100547361D01*
X139560431Y-100330702D01*
X139471354Y-100125840D01*
X139413845Y-100036944D01*
X139352822Y-99942617D01*
X139352820Y-99942614D01*
X139350014Y-99938277D01*
X139199670Y-99773051D01*
X139195619Y-99769852D01*
X139195615Y-99769848D01*
X139028414Y-99637800D01*
X139028410Y-99637798D01*
X139024359Y-99634598D01*
X138982569Y-99611529D01*
X138932598Y-99561097D01*
X138919601Y-99500000D01*
X159686496Y-99500000D01*
X159687186Y-99506565D01*
X159699068Y-99619612D01*
X159706458Y-99689928D01*
X159765473Y-99871556D01*
X159768776Y-99877278D01*
X159768777Y-99877279D01*
X159788903Y-99912138D01*
X159860960Y-100036944D01*
X159865378Y-100041851D01*
X159865379Y-100041852D01*
X159937087Y-100121492D01*
X159988747Y-100178866D01*
X160035402Y-100212763D01*
X160136763Y-100286406D01*
X160143248Y-100291118D01*
X160149276Y-100293802D01*
X160149278Y-100293803D01*
X160243426Y-100335720D01*
X160317712Y-100368794D01*
X160411113Y-100388647D01*
X160498056Y-100407128D01*
X160498061Y-100407128D01*
X160504513Y-100408500D01*
X160695487Y-100408500D01*
X160701939Y-100407128D01*
X160701944Y-100407128D01*
X160788887Y-100388647D01*
X160882288Y-100368794D01*
X160956574Y-100335720D01*
X161050722Y-100293803D01*
X161050724Y-100293802D01*
X161056752Y-100291118D01*
X161063238Y-100286406D01*
X161137344Y-100232564D01*
X161204211Y-100208706D01*
X161211405Y-100208500D01*
X162306559Y-100208500D01*
X162374680Y-100228502D01*
X162421173Y-100282158D01*
X162431277Y-100352432D01*
X162427976Y-100368170D01*
X162385989Y-100519570D01*
X162362251Y-100741695D01*
X162362548Y-100746848D01*
X162362548Y-100746851D01*
X162367914Y-100839908D01*
X162375110Y-100964715D01*
X162376247Y-100969761D01*
X162376248Y-100969767D01*
X162397265Y-101063023D01*
X162424222Y-101182639D01*
X162462316Y-101276453D01*
X162503257Y-101377279D01*
X162508266Y-101389616D01*
X162555955Y-101467438D01*
X162622291Y-101575688D01*
X162624987Y-101580088D01*
X162771250Y-101748938D01*
X162846213Y-101811173D01*
X162933123Y-101883327D01*
X162943126Y-101891632D01*
X163007889Y-101929476D01*
X163016445Y-101934476D01*
X163065169Y-101986114D01*
X163078240Y-102055897D01*
X163051509Y-102121669D01*
X163011055Y-102155027D01*
X162998607Y-102161507D01*
X162994474Y-102164610D01*
X162994471Y-102164612D01*
X162826624Y-102290635D01*
X162819965Y-102295635D01*
X162665629Y-102457138D01*
X162539743Y-102641680D01*
X162445688Y-102844305D01*
X162385989Y-103059570D01*
X162362251Y-103281695D01*
X162362548Y-103286848D01*
X162362548Y-103286851D01*
X162372332Y-103456530D01*
X162375110Y-103504715D01*
X162376247Y-103509761D01*
X162376248Y-103509767D01*
X162396294Y-103598715D01*
X162424222Y-103722639D01*
X162508266Y-103929616D01*
X162555955Y-104007438D01*
X162622291Y-104115688D01*
X162624987Y-104120088D01*
X162771250Y-104288938D01*
X162846213Y-104351173D01*
X162933123Y-104423327D01*
X162943126Y-104431632D01*
X163007889Y-104469476D01*
X163016445Y-104474476D01*
X163065169Y-104526114D01*
X163078240Y-104595897D01*
X163051509Y-104661669D01*
X163011055Y-104695027D01*
X162998607Y-104701507D01*
X162994474Y-104704610D01*
X162994471Y-104704612D01*
X162826624Y-104830635D01*
X162819965Y-104835635D01*
X162665629Y-104997138D01*
X162662720Y-105001403D01*
X162662714Y-105001411D01*
X162651209Y-105018277D01*
X162539743Y-105181680D01*
X162445688Y-105384305D01*
X162385989Y-105599570D01*
X162362251Y-105821695D01*
X162362548Y-105826848D01*
X162362548Y-105826851D01*
X162367914Y-105919908D01*
X162375110Y-106044715D01*
X162376247Y-106049761D01*
X162376248Y-106049767D01*
X162397265Y-106143023D01*
X162424222Y-106262639D01*
X162508266Y-106469616D01*
X162555955Y-106547438D01*
X162622291Y-106655688D01*
X162624987Y-106660088D01*
X162771250Y-106828938D01*
X162846213Y-106891173D01*
X162933123Y-106963327D01*
X162943126Y-106971632D01*
X163007889Y-107009476D01*
X163016445Y-107014476D01*
X163065169Y-107066114D01*
X163078240Y-107135897D01*
X163051509Y-107201669D01*
X163011055Y-107235027D01*
X162998607Y-107241507D01*
X162994474Y-107244610D01*
X162994471Y-107244612D01*
X162826624Y-107370635D01*
X162819965Y-107375635D01*
X162665629Y-107537138D01*
X162539743Y-107721680D01*
X162445688Y-107924305D01*
X162385989Y-108139570D01*
X162362251Y-108361695D01*
X162362548Y-108366848D01*
X162362548Y-108366851D01*
X162367914Y-108459908D01*
X162375110Y-108584715D01*
X162376247Y-108589761D01*
X162376248Y-108589767D01*
X162397265Y-108683023D01*
X162424222Y-108802639D01*
X162508266Y-109009616D01*
X162555955Y-109087438D01*
X162622291Y-109195688D01*
X162624987Y-109200088D01*
X162771250Y-109368938D01*
X162846213Y-109431173D01*
X162933123Y-109503327D01*
X162943126Y-109511632D01*
X163007889Y-109549476D01*
X163016445Y-109554476D01*
X163065169Y-109606114D01*
X163078240Y-109675897D01*
X163051509Y-109741669D01*
X163011055Y-109775027D01*
X162998607Y-109781507D01*
X162994474Y-109784610D01*
X162994471Y-109784612D01*
X162826624Y-109910635D01*
X162819965Y-109915635D01*
X162665629Y-110077138D01*
X162539743Y-110261680D01*
X162445688Y-110464305D01*
X162385989Y-110679570D01*
X162362251Y-110901695D01*
X162362548Y-110906848D01*
X162362548Y-110906851D01*
X162367914Y-110999908D01*
X162375110Y-111124715D01*
X162376247Y-111129761D01*
X162376248Y-111129767D01*
X162397265Y-111223023D01*
X162424222Y-111342639D01*
X162508266Y-111549616D01*
X162555955Y-111627438D01*
X162622291Y-111735688D01*
X162624987Y-111740088D01*
X162771250Y-111908938D01*
X162846213Y-111971173D01*
X162933123Y-112043327D01*
X162943126Y-112051632D01*
X163007889Y-112089476D01*
X163016445Y-112094476D01*
X163065169Y-112146114D01*
X163078240Y-112215897D01*
X163051509Y-112281669D01*
X163011055Y-112315027D01*
X162998607Y-112321507D01*
X162994474Y-112324610D01*
X162994471Y-112324612D01*
X162826624Y-112450635D01*
X162819965Y-112455635D01*
X162665629Y-112617138D01*
X162539743Y-112801680D01*
X162445688Y-113004305D01*
X162385989Y-113219570D01*
X162362251Y-113441695D01*
X162362548Y-113446848D01*
X162362548Y-113446851D01*
X162367914Y-113539908D01*
X162375110Y-113664715D01*
X162376247Y-113669761D01*
X162376248Y-113669767D01*
X162397265Y-113763023D01*
X162424222Y-113882639D01*
X162508266Y-114089616D01*
X162555955Y-114167438D01*
X162622291Y-114275688D01*
X162624987Y-114280088D01*
X162771250Y-114448938D01*
X162846213Y-114511173D01*
X162933123Y-114583327D01*
X162943126Y-114591632D01*
X163007889Y-114629476D01*
X163016445Y-114634476D01*
X163065169Y-114686114D01*
X163078240Y-114755897D01*
X163051509Y-114821669D01*
X163011055Y-114855027D01*
X162998607Y-114861507D01*
X162994474Y-114864610D01*
X162994471Y-114864612D01*
X162826624Y-114990635D01*
X162819965Y-114995635D01*
X162665629Y-115157138D01*
X162539743Y-115341680D01*
X162445688Y-115544305D01*
X162385989Y-115759570D01*
X162362251Y-115981695D01*
X162362548Y-115986848D01*
X162362548Y-115986851D01*
X162367914Y-116079908D01*
X162375110Y-116204715D01*
X162376247Y-116209761D01*
X162376248Y-116209767D01*
X162397265Y-116303023D01*
X162424222Y-116422639D01*
X162508266Y-116629616D01*
X162555955Y-116707438D01*
X162622291Y-116815688D01*
X162624987Y-116820088D01*
X162771250Y-116988938D01*
X162846213Y-117051173D01*
X162933123Y-117123327D01*
X162943126Y-117131632D01*
X163007889Y-117169476D01*
X163016445Y-117174476D01*
X163065169Y-117226114D01*
X163078240Y-117295897D01*
X163051509Y-117361669D01*
X163011055Y-117395027D01*
X162998607Y-117401507D01*
X162994474Y-117404610D01*
X162994471Y-117404612D01*
X162826624Y-117530635D01*
X162819965Y-117535635D01*
X162665629Y-117697138D01*
X162539743Y-117881680D01*
X162445688Y-118084305D01*
X162385989Y-118299570D01*
X162362251Y-118521695D01*
X162362548Y-118526848D01*
X162362548Y-118526851D01*
X162367914Y-118619908D01*
X162375110Y-118744715D01*
X162376247Y-118749761D01*
X162376248Y-118749767D01*
X162397265Y-118843023D01*
X162424222Y-118962639D01*
X162508266Y-119169616D01*
X162555955Y-119247438D01*
X162622291Y-119355688D01*
X162624987Y-119360088D01*
X162771250Y-119528938D01*
X162846213Y-119591173D01*
X162933123Y-119663327D01*
X162943126Y-119671632D01*
X163013595Y-119712811D01*
X163016445Y-119714476D01*
X163065169Y-119766114D01*
X163078240Y-119835897D01*
X163051509Y-119901669D01*
X163011055Y-119935027D01*
X162998607Y-119941507D01*
X162994474Y-119944610D01*
X162994471Y-119944612D01*
X162970247Y-119962800D01*
X162819965Y-120075635D01*
X162665629Y-120237138D01*
X162662720Y-120241403D01*
X162662714Y-120241411D01*
X162647798Y-120263277D01*
X162539743Y-120421680D01*
X162445688Y-120624305D01*
X162385989Y-120839570D01*
X162362251Y-121061695D01*
X162362548Y-121066848D01*
X162362548Y-121066851D01*
X162368011Y-121161590D01*
X162375110Y-121284715D01*
X162376247Y-121289761D01*
X162376248Y-121289767D01*
X162397275Y-121383069D01*
X162424222Y-121502639D01*
X162508266Y-121709616D01*
X162555799Y-121787183D01*
X162622291Y-121895688D01*
X162624987Y-121900088D01*
X162771250Y-122068938D01*
X162841354Y-122127139D01*
X162932628Y-122202916D01*
X162943126Y-122211632D01*
X163007421Y-122249203D01*
X163016955Y-122254774D01*
X163065679Y-122306412D01*
X163078750Y-122376195D01*
X163052019Y-122441967D01*
X163011562Y-122475327D01*
X163003457Y-122479546D01*
X162994738Y-122485036D01*
X162824433Y-122612905D01*
X162816726Y-122619748D01*
X162669590Y-122773717D01*
X162663104Y-122781727D01*
X162543098Y-122957649D01*
X162538000Y-122966623D01*
X162448338Y-123159783D01*
X162444775Y-123169470D01*
X162389389Y-123369183D01*
X162390912Y-123377607D01*
X162403292Y-123381000D01*
X163853000Y-123381000D01*
X163921121Y-123401002D01*
X163967614Y-123454658D01*
X163979000Y-123507000D01*
X163979000Y-123763000D01*
X163958998Y-123831121D01*
X163905342Y-123877614D01*
X163853000Y-123889000D01*
X162408225Y-123889000D01*
X162394694Y-123892973D01*
X162393257Y-123902966D01*
X162423565Y-124037446D01*
X162426645Y-124047275D01*
X162506770Y-124244603D01*
X162511413Y-124253794D01*
X162622694Y-124435388D01*
X162628777Y-124443699D01*
X162768213Y-124604667D01*
X162775577Y-124611879D01*
X162780522Y-124615985D01*
X162820156Y-124674889D01*
X162821653Y-124745870D01*
X162784537Y-124806392D01*
X162744264Y-124830910D01*
X162636705Y-124871232D01*
X162636704Y-124871233D01*
X162628295Y-124874385D01*
X162511739Y-124961739D01*
X162424385Y-125078295D01*
X162373255Y-125214684D01*
X162366500Y-125276866D01*
X162366500Y-127073134D01*
X162373255Y-127135316D01*
X162424385Y-127271705D01*
X162511739Y-127388261D01*
X162628295Y-127475615D01*
X162764684Y-127526745D01*
X162826866Y-127533500D01*
X164623134Y-127533500D01*
X164685316Y-127526745D01*
X164821705Y-127475615D01*
X164938261Y-127388261D01*
X165025615Y-127271705D01*
X165047945Y-127212139D01*
X165069798Y-127153848D01*
X165112440Y-127097084D01*
X165179001Y-127072384D01*
X165248350Y-127087592D01*
X165283017Y-127115580D01*
X165308218Y-127144673D01*
X165315580Y-127151883D01*
X165479434Y-127287916D01*
X165487881Y-127293831D01*
X165671756Y-127401279D01*
X165681042Y-127405729D01*
X165880001Y-127481703D01*
X165889899Y-127484579D01*
X165993250Y-127505606D01*
X166007299Y-127504410D01*
X166011000Y-127494065D01*
X166011000Y-127493517D01*
X166519000Y-127493517D01*
X166523064Y-127507359D01*
X166536478Y-127509393D01*
X166543184Y-127508534D01*
X166553262Y-127506392D01*
X166757255Y-127445191D01*
X166766842Y-127441433D01*
X166958095Y-127347739D01*
X166966945Y-127342464D01*
X167140328Y-127218792D01*
X167148200Y-127212139D01*
X167299052Y-127061812D01*
X167305730Y-127053965D01*
X167430003Y-126881020D01*
X167435313Y-126872183D01*
X167529670Y-126681267D01*
X167533469Y-126671672D01*
X167595377Y-126467910D01*
X167597555Y-126457837D01*
X167598986Y-126446962D01*
X167596775Y-126432778D01*
X167583617Y-126429000D01*
X166537115Y-126429000D01*
X166521876Y-126433475D01*
X166520671Y-126434865D01*
X166519000Y-126442548D01*
X166519000Y-127493517D01*
X166011000Y-127493517D01*
X166011000Y-126047000D01*
X166031002Y-125978879D01*
X166084658Y-125932386D01*
X166137000Y-125921000D01*
X167583344Y-125921000D01*
X167596875Y-125917027D01*
X167598180Y-125907947D01*
X167556214Y-125740875D01*
X167552894Y-125731124D01*
X167467972Y-125535814D01*
X167463105Y-125526739D01*
X167347426Y-125347926D01*
X167341136Y-125339757D01*
X167197806Y-125182240D01*
X167190273Y-125175215D01*
X167023139Y-125043222D01*
X167014556Y-125037520D01*
X166977602Y-125017120D01*
X166927631Y-124966687D01*
X166912859Y-124897245D01*
X166937975Y-124830839D01*
X166965327Y-124804232D01*
X166989310Y-124787125D01*
X167144860Y-124676173D01*
X167169906Y-124651215D01*
X167299435Y-124522137D01*
X167303096Y-124518489D01*
X167360222Y-124438990D01*
X167430435Y-124341277D01*
X167433453Y-124337077D01*
X167446995Y-124309678D01*
X167530136Y-124141453D01*
X167530137Y-124141451D01*
X167532430Y-124136811D01*
X167597370Y-123923069D01*
X167626529Y-123701590D01*
X167628156Y-123635000D01*
X167609852Y-123412361D01*
X167555431Y-123195702D01*
X167466354Y-122990840D01*
X167345014Y-122803277D01*
X167194670Y-122638051D01*
X167190619Y-122634852D01*
X167190615Y-122634848D01*
X167023414Y-122502800D01*
X167023410Y-122502798D01*
X167019359Y-122499598D01*
X166978053Y-122476796D01*
X166928084Y-122426364D01*
X166913312Y-122356921D01*
X166938428Y-122290516D01*
X166965780Y-122263909D01*
X167009603Y-122232650D01*
X167144860Y-122136173D01*
X167303096Y-121978489D01*
X167362594Y-121895689D01*
X167430435Y-121801277D01*
X167433453Y-121797077D01*
X167454320Y-121754857D01*
X167530136Y-121601453D01*
X167530137Y-121601451D01*
X167532430Y-121596811D01*
X167597370Y-121383069D01*
X167626529Y-121161590D01*
X167628156Y-121095000D01*
X167609852Y-120872361D01*
X167555431Y-120655702D01*
X167466354Y-120450840D01*
X167345014Y-120263277D01*
X167194670Y-120098051D01*
X167190619Y-120094852D01*
X167190615Y-120094848D01*
X167023414Y-119962800D01*
X167023410Y-119962798D01*
X167019359Y-119959598D01*
X166978053Y-119936796D01*
X166928084Y-119886364D01*
X166913312Y-119816921D01*
X166938428Y-119750516D01*
X166965780Y-119723909D01*
X167009603Y-119692650D01*
X167144860Y-119596173D01*
X167303096Y-119438489D01*
X167360222Y-119358990D01*
X167430435Y-119261277D01*
X167433453Y-119257077D01*
X167454320Y-119214857D01*
X167530136Y-119061453D01*
X167530137Y-119061451D01*
X167532430Y-119056811D01*
X167597370Y-118843069D01*
X167626529Y-118621590D01*
X167628156Y-118555000D01*
X167609852Y-118332361D01*
X167555431Y-118115702D01*
X167466354Y-117910840D01*
X167345014Y-117723277D01*
X167194670Y-117558051D01*
X167190619Y-117554852D01*
X167190615Y-117554848D01*
X167023414Y-117422800D01*
X167023410Y-117422798D01*
X167019359Y-117419598D01*
X166978053Y-117396796D01*
X166928084Y-117346364D01*
X166913312Y-117276921D01*
X166938428Y-117210516D01*
X166965780Y-117183909D01*
X167009603Y-117152650D01*
X167144860Y-117056173D01*
X167303096Y-116898489D01*
X167360222Y-116818990D01*
X167430435Y-116721277D01*
X167433453Y-116717077D01*
X167454320Y-116674857D01*
X167530136Y-116521453D01*
X167530137Y-116521451D01*
X167532430Y-116516811D01*
X167597370Y-116303069D01*
X167626529Y-116081590D01*
X167628156Y-116015000D01*
X167609852Y-115792361D01*
X167555431Y-115575702D01*
X167466354Y-115370840D01*
X167345014Y-115183277D01*
X167194670Y-115018051D01*
X167190619Y-115014852D01*
X167190615Y-115014848D01*
X167023414Y-114882800D01*
X167023410Y-114882798D01*
X167019359Y-114879598D01*
X166978053Y-114856796D01*
X166928084Y-114806364D01*
X166913312Y-114736921D01*
X166938428Y-114670516D01*
X166965780Y-114643909D01*
X167009603Y-114612650D01*
X167144860Y-114516173D01*
X167303096Y-114358489D01*
X167360222Y-114278990D01*
X167430435Y-114181277D01*
X167433453Y-114177077D01*
X167454320Y-114134857D01*
X167530136Y-113981453D01*
X167530137Y-113981451D01*
X167532430Y-113976811D01*
X167597370Y-113763069D01*
X167626529Y-113541590D01*
X167628156Y-113475000D01*
X167609852Y-113252361D01*
X167555431Y-113035702D01*
X167466354Y-112830840D01*
X167345014Y-112643277D01*
X167194670Y-112478051D01*
X167190619Y-112474852D01*
X167190615Y-112474848D01*
X167023414Y-112342800D01*
X167023410Y-112342798D01*
X167019359Y-112339598D01*
X166978053Y-112316796D01*
X166928084Y-112266364D01*
X166913312Y-112196921D01*
X166938428Y-112130516D01*
X166965780Y-112103909D01*
X167009603Y-112072650D01*
X167144860Y-111976173D01*
X167303096Y-111818489D01*
X167360222Y-111738990D01*
X167430435Y-111641277D01*
X167433453Y-111637077D01*
X167454320Y-111594857D01*
X167530136Y-111441453D01*
X167530137Y-111441451D01*
X167532430Y-111436811D01*
X167597370Y-111223069D01*
X167626529Y-111001590D01*
X167628156Y-110935000D01*
X167609852Y-110712361D01*
X167555431Y-110495702D01*
X167466354Y-110290840D01*
X167345014Y-110103277D01*
X167194670Y-109938051D01*
X167190619Y-109934852D01*
X167190615Y-109934848D01*
X167023414Y-109802800D01*
X167023410Y-109802798D01*
X167019359Y-109799598D01*
X166978053Y-109776796D01*
X166928084Y-109726364D01*
X166913312Y-109656921D01*
X166938428Y-109590516D01*
X166965780Y-109563909D01*
X167009603Y-109532650D01*
X167144860Y-109436173D01*
X167303096Y-109278489D01*
X167360222Y-109198990D01*
X167430435Y-109101277D01*
X167433453Y-109097077D01*
X167454320Y-109054857D01*
X167530136Y-108901453D01*
X167530137Y-108901451D01*
X167532430Y-108896811D01*
X167597370Y-108683069D01*
X167626529Y-108461590D01*
X167628156Y-108395000D01*
X167609852Y-108172361D01*
X167555431Y-107955702D01*
X167466354Y-107750840D01*
X167345014Y-107563277D01*
X167194670Y-107398051D01*
X167190619Y-107394852D01*
X167190615Y-107394848D01*
X167023414Y-107262800D01*
X167023410Y-107262798D01*
X167019359Y-107259598D01*
X166978053Y-107236796D01*
X166928084Y-107186364D01*
X166913312Y-107116921D01*
X166938428Y-107050516D01*
X166965780Y-107023909D01*
X167009603Y-106992650D01*
X167144860Y-106896173D01*
X167303096Y-106738489D01*
X167360222Y-106658990D01*
X167430435Y-106561277D01*
X167433453Y-106557077D01*
X167454320Y-106514857D01*
X167530136Y-106361453D01*
X167530137Y-106361451D01*
X167532430Y-106356811D01*
X167597370Y-106143069D01*
X167626529Y-105921590D01*
X167628156Y-105855000D01*
X167609852Y-105632361D01*
X167555431Y-105415702D01*
X167466354Y-105210840D01*
X167353856Y-105036944D01*
X167347822Y-105027617D01*
X167347820Y-105027614D01*
X167345014Y-105023277D01*
X167194670Y-104858051D01*
X167190619Y-104854852D01*
X167190615Y-104854848D01*
X167023414Y-104722800D01*
X167023410Y-104722798D01*
X167019359Y-104719598D01*
X166978053Y-104696796D01*
X166928084Y-104646364D01*
X166913312Y-104576921D01*
X166938428Y-104510516D01*
X166965780Y-104483909D01*
X167009603Y-104452650D01*
X167144860Y-104356173D01*
X167184537Y-104316635D01*
X167299435Y-104202137D01*
X167303096Y-104198489D01*
X167360222Y-104118990D01*
X167430435Y-104021277D01*
X167433453Y-104017077D01*
X167454320Y-103974857D01*
X167530136Y-103821453D01*
X167530137Y-103821451D01*
X167532430Y-103816811D01*
X167597370Y-103603069D01*
X167626529Y-103381590D01*
X167628156Y-103315000D01*
X167609852Y-103092361D01*
X167555431Y-102875702D01*
X167466354Y-102670840D01*
X167345014Y-102483277D01*
X167194670Y-102318051D01*
X167190619Y-102314852D01*
X167190615Y-102314848D01*
X167023414Y-102182800D01*
X167023410Y-102182798D01*
X167019359Y-102179598D01*
X166978053Y-102156796D01*
X166928084Y-102106364D01*
X166913312Y-102036921D01*
X166938428Y-101970516D01*
X166965780Y-101943909D01*
X167009603Y-101912650D01*
X167144860Y-101816173D01*
X167303096Y-101658489D01*
X167351988Y-101590449D01*
X167430435Y-101481277D01*
X167433453Y-101477077D01*
X167454320Y-101434857D01*
X167530136Y-101281453D01*
X167530137Y-101281451D01*
X167532430Y-101276811D01*
X167597370Y-101063069D01*
X167626529Y-100841590D01*
X167627299Y-100810072D01*
X167628074Y-100778365D01*
X167628074Y-100778361D01*
X167628156Y-100775000D01*
X167609852Y-100552361D01*
X167555431Y-100335702D01*
X167466354Y-100130840D01*
X167408872Y-100041986D01*
X167388666Y-99973930D01*
X167408462Y-99905749D01*
X167425570Y-99884454D01*
X167995031Y-99314993D01*
X168001296Y-99309139D01*
X168007423Y-99303794D01*
X168044896Y-99271104D01*
X168081640Y-99218823D01*
X168085572Y-99213529D01*
X168120302Y-99169236D01*
X168124987Y-99163261D01*
X168128110Y-99156345D01*
X168129494Y-99154059D01*
X168137868Y-99139378D01*
X168139133Y-99137018D01*
X168143501Y-99130804D01*
X168146653Y-99122721D01*
X168166713Y-99071268D01*
X168169270Y-99065185D01*
X168181230Y-99038699D01*
X168195556Y-99006970D01*
X168196941Y-98999497D01*
X168197745Y-98996931D01*
X168202366Y-98980708D01*
X168203031Y-98978116D01*
X168205793Y-98971034D01*
X168214133Y-98907682D01*
X168215165Y-98901166D01*
X168225422Y-98845824D01*
X168226806Y-98838357D01*
X168223220Y-98776163D01*
X168223011Y-98768910D01*
X168223011Y-84273423D01*
X168223303Y-84264853D01*
X168226720Y-84214735D01*
X168226720Y-84214731D01*
X168227236Y-84207159D01*
X168216250Y-84144214D01*
X168215288Y-84137693D01*
X168208526Y-84081815D01*
X168207613Y-84074269D01*
X168204927Y-84067161D01*
X168204290Y-84064567D01*
X168199829Y-84048261D01*
X168199059Y-84045710D01*
X168197753Y-84038227D01*
X168172072Y-83979723D01*
X168169580Y-83973616D01*
X168149684Y-83920963D01*
X168149684Y-83920962D01*
X168146998Y-83913855D01*
X168142695Y-83907594D01*
X168141458Y-83905228D01*
X168133231Y-83890448D01*
X168131880Y-83888163D01*
X168128826Y-83881206D01*
X168124206Y-83875186D01*
X168124203Y-83875180D01*
X168089932Y-83830520D01*
X168086052Y-83825179D01*
X168054172Y-83778791D01*
X168054167Y-83778786D01*
X168049868Y-83772530D01*
X168003340Y-83731075D01*
X167998065Y-83726095D01*
X167636383Y-83364413D01*
X167602357Y-83302101D01*
X167600556Y-83258871D01*
X167626092Y-83064908D01*
X167626529Y-83061590D01*
X167628156Y-82995000D01*
X167609852Y-82772361D01*
X167555431Y-82555702D01*
X167466354Y-82350840D01*
X167366317Y-82196206D01*
X167347822Y-82167617D01*
X167347820Y-82167614D01*
X167345014Y-82163277D01*
X167194670Y-81998051D01*
X167190619Y-81994852D01*
X167190615Y-81994848D01*
X167023414Y-81862800D01*
X167023410Y-81862798D01*
X167019359Y-81859598D01*
X166978053Y-81836796D01*
X166928084Y-81786364D01*
X166913312Y-81716921D01*
X166938428Y-81650516D01*
X166965780Y-81623909D01*
X167009603Y-81592650D01*
X167144860Y-81496173D01*
X167303096Y-81338489D01*
X167360222Y-81258990D01*
X167430435Y-81161277D01*
X167433453Y-81157077D01*
X167446918Y-81129834D01*
X167530136Y-80961453D01*
X167530137Y-80961451D01*
X167532430Y-80956811D01*
X167597370Y-80743069D01*
X167626529Y-80521590D01*
X167628156Y-80455000D01*
X167609852Y-80232361D01*
X167555431Y-80015702D01*
X167466354Y-79810840D01*
X167345014Y-79623277D01*
X167194670Y-79458051D01*
X167190619Y-79454852D01*
X167190615Y-79454848D01*
X167023414Y-79322800D01*
X167023410Y-79322798D01*
X167019359Y-79319598D01*
X166978053Y-79296796D01*
X166928084Y-79246364D01*
X166913312Y-79176921D01*
X166938428Y-79110516D01*
X166965780Y-79083909D01*
X167009603Y-79052650D01*
X167144860Y-78956173D01*
X167303096Y-78798489D01*
X167360222Y-78718990D01*
X167430435Y-78621277D01*
X167433453Y-78617077D01*
X167456791Y-78569857D01*
X167530136Y-78421453D01*
X167530137Y-78421451D01*
X167532430Y-78416811D01*
X167597370Y-78203069D01*
X167626529Y-77981590D01*
X167628156Y-77915000D01*
X167609852Y-77692361D01*
X167555431Y-77475702D01*
X167466354Y-77270840D01*
X167345014Y-77083277D01*
X167194670Y-76918051D01*
X167190619Y-76914852D01*
X167190615Y-76914848D01*
X167023414Y-76782800D01*
X167023410Y-76782798D01*
X167019359Y-76779598D01*
X166978053Y-76756796D01*
X166928084Y-76706364D01*
X166913312Y-76636921D01*
X166938428Y-76570516D01*
X166965780Y-76543909D01*
X167009603Y-76512650D01*
X167144860Y-76416173D01*
X167303096Y-76258489D01*
X167362594Y-76175689D01*
X167430435Y-76081277D01*
X167433453Y-76077077D01*
X167532430Y-75876811D01*
X167597370Y-75663069D01*
X167626529Y-75441590D01*
X167628156Y-75375000D01*
X167609852Y-75152361D01*
X167555431Y-74935702D01*
X167466354Y-74730840D01*
X167345014Y-74543277D01*
X167194670Y-74378051D01*
X167190619Y-74374852D01*
X167190615Y-74374848D01*
X167023414Y-74242800D01*
X167023410Y-74242798D01*
X167019359Y-74239598D01*
X166977569Y-74216529D01*
X166927598Y-74166097D01*
X166912826Y-74096654D01*
X166937942Y-74030248D01*
X166965294Y-74003641D01*
X167140328Y-73878792D01*
X167148200Y-73872139D01*
X167299052Y-73721812D01*
X167305730Y-73713965D01*
X167430003Y-73541020D01*
X167435313Y-73532183D01*
X167529670Y-73341267D01*
X167533469Y-73331672D01*
X167595377Y-73127910D01*
X167597555Y-73117837D01*
X167598986Y-73106962D01*
X167596775Y-73092778D01*
X167583617Y-73089000D01*
X162408225Y-73089000D01*
X162394695Y-73092973D01*
X162391245Y-73116971D01*
X162361752Y-73181552D01*
X162302026Y-73219936D01*
X162240330Y-73222287D01*
X162101944Y-73192872D01*
X162101939Y-73192872D01*
X162095487Y-73191500D01*
X161904513Y-73191500D01*
X161898061Y-73192872D01*
X161898056Y-73192872D01*
X161811113Y-73211353D01*
X161717712Y-73231206D01*
X161711682Y-73233891D01*
X161711681Y-73233891D01*
X161549278Y-73306197D01*
X161549276Y-73306198D01*
X161543248Y-73308882D01*
X161388747Y-73421134D01*
X161260960Y-73563056D01*
X161165473Y-73728444D01*
X161106458Y-73910072D01*
X161105768Y-73916633D01*
X161105768Y-73916635D01*
X161091008Y-74057069D01*
X161086496Y-74100000D01*
X161087186Y-74106565D01*
X161101024Y-74238222D01*
X161106458Y-74289928D01*
X161165473Y-74471556D01*
X161260960Y-74636944D01*
X161388747Y-74778866D01*
X161543248Y-74891118D01*
X161549276Y-74893802D01*
X161549278Y-74893803D01*
X161643774Y-74935875D01*
X161717712Y-74968794D01*
X161790116Y-74984184D01*
X161898056Y-75007128D01*
X161898061Y-75007128D01*
X161904513Y-75008500D01*
X162095487Y-75008500D01*
X162101939Y-75007128D01*
X162101944Y-75007128D01*
X162184237Y-74989636D01*
X162235298Y-74978782D01*
X162306088Y-74984184D01*
X162362720Y-75027001D01*
X162387214Y-75093638D01*
X162385634Y-75119532D01*
X162385989Y-75119570D01*
X162362251Y-75341695D01*
X162362548Y-75346848D01*
X162362548Y-75346851D01*
X162368011Y-75441590D01*
X162375110Y-75564715D01*
X162376247Y-75569761D01*
X162376248Y-75569767D01*
X162397275Y-75663069D01*
X162424222Y-75782639D01*
X162508266Y-75989616D01*
X162624987Y-76180088D01*
X162771250Y-76348938D01*
X162841354Y-76407139D01*
X162932628Y-76482916D01*
X162943126Y-76491632D01*
X163007421Y-76529203D01*
X163016445Y-76534476D01*
X163065169Y-76586114D01*
X163078240Y-76655897D01*
X163051509Y-76721669D01*
X163011055Y-76755027D01*
X162998607Y-76761507D01*
X162994474Y-76764610D01*
X162994471Y-76764612D01*
X162826624Y-76890635D01*
X162819965Y-76895635D01*
X162665629Y-77057138D01*
X162662715Y-77061410D01*
X162662714Y-77061411D01*
X162653815Y-77074457D01*
X162539743Y-77241680D01*
X162445688Y-77444305D01*
X162385989Y-77659570D01*
X162362251Y-77881695D01*
X162362548Y-77886848D01*
X162362548Y-77886851D01*
X162367914Y-77979908D01*
X162375110Y-78104715D01*
X162376247Y-78109761D01*
X162376248Y-78109767D01*
X162397265Y-78203023D01*
X162424222Y-78322639D01*
X162508266Y-78529616D01*
X162555955Y-78607438D01*
X162619227Y-78710688D01*
X162624987Y-78720088D01*
X162771250Y-78888938D01*
X162846213Y-78951173D01*
X162933123Y-79023327D01*
X162943126Y-79031632D01*
X163007889Y-79069476D01*
X163016445Y-79074476D01*
X163065169Y-79126114D01*
X163078240Y-79195897D01*
X163051509Y-79261669D01*
X163011055Y-79295027D01*
X162998607Y-79301507D01*
X162994474Y-79304610D01*
X162994471Y-79304612D01*
X162826624Y-79430635D01*
X162819965Y-79435635D01*
X162665629Y-79597138D01*
X162539743Y-79781680D01*
X162445688Y-79984305D01*
X162385989Y-80199570D01*
X162362251Y-80421695D01*
X162362548Y-80426848D01*
X162362548Y-80426851D01*
X162367914Y-80519908D01*
X162375110Y-80644715D01*
X162376247Y-80649761D01*
X162376248Y-80649767D01*
X162397265Y-80743023D01*
X162424222Y-80862639D01*
X162508266Y-81069616D01*
X162546008Y-81131206D01*
X162622291Y-81255688D01*
X162624987Y-81260088D01*
X162771250Y-81428938D01*
X162846213Y-81491173D01*
X162933123Y-81563327D01*
X162943126Y-81571632D01*
X163007889Y-81609476D01*
X163016445Y-81614476D01*
X163065169Y-81666114D01*
X163078240Y-81735897D01*
X163051509Y-81801669D01*
X163011055Y-81835027D01*
X162998607Y-81841507D01*
X162994474Y-81844610D01*
X162994471Y-81844612D01*
X162826624Y-81970635D01*
X162819965Y-81975635D01*
X162665629Y-82137138D01*
X162662720Y-82141403D01*
X162662714Y-82141411D01*
X162577556Y-82266249D01*
X162539743Y-82321680D01*
X162445688Y-82524305D01*
X162385989Y-82739570D01*
X162362251Y-82961695D01*
X162362548Y-82966848D01*
X162362548Y-82966851D01*
X162367914Y-83059908D01*
X162375110Y-83184715D01*
X162376247Y-83189761D01*
X162376248Y-83189767D01*
X162397265Y-83283023D01*
X162424222Y-83402639D01*
X162508266Y-83609616D01*
X162546223Y-83671556D01*
X162622291Y-83795688D01*
X162624987Y-83800088D01*
X162771250Y-83968938D01*
X162847846Y-84032529D01*
X162933123Y-84103327D01*
X162943126Y-84111632D01*
X162987724Y-84137693D01*
X163016445Y-84154476D01*
X163065169Y-84206114D01*
X163078240Y-84275897D01*
X163051509Y-84341669D01*
X163011055Y-84375027D01*
X162998607Y-84381507D01*
X162994474Y-84384610D01*
X162994471Y-84384612D01*
X162826624Y-84510635D01*
X162819965Y-84515635D01*
X162665629Y-84677138D01*
X162539743Y-84861680D01*
X162445688Y-85064305D01*
X162385989Y-85279570D01*
X162362251Y-85501695D01*
X162362548Y-85506848D01*
X162362548Y-85506851D01*
X162367914Y-85599908D01*
X162375110Y-85724715D01*
X162376247Y-85729761D01*
X162376248Y-85729767D01*
X162397265Y-85823023D01*
X162424222Y-85942639D01*
X162508266Y-86149616D01*
X162555955Y-86227438D01*
X162619227Y-86330688D01*
X162624987Y-86340088D01*
X162771250Y-86508938D01*
X162846213Y-86571173D01*
X162933123Y-86643327D01*
X162943126Y-86651632D01*
X163007889Y-86689476D01*
X163016445Y-86694476D01*
X163065169Y-86746114D01*
X163078240Y-86815897D01*
X163051509Y-86881669D01*
X163011055Y-86915027D01*
X162998607Y-86921507D01*
X162994474Y-86924610D01*
X162994471Y-86924612D01*
X162826624Y-87050635D01*
X162819965Y-87055635D01*
X162665629Y-87217138D01*
X162539743Y-87401680D01*
X162445688Y-87604305D01*
X162385989Y-87819570D01*
X162362251Y-88041695D01*
X162362548Y-88046848D01*
X162362548Y-88046851D01*
X162367914Y-88139908D01*
X162375110Y-88264715D01*
X162376247Y-88269761D01*
X162376248Y-88269767D01*
X162397265Y-88363023D01*
X162424222Y-88482639D01*
X162508266Y-88689616D01*
X162555955Y-88767438D01*
X162619227Y-88870688D01*
X162624987Y-88880088D01*
X162771250Y-89048938D01*
X162846213Y-89111173D01*
X162933123Y-89183327D01*
X162943126Y-89191632D01*
X163007889Y-89229476D01*
X163016445Y-89234476D01*
X163065169Y-89286114D01*
X163078240Y-89355897D01*
X163051509Y-89421669D01*
X163011055Y-89455027D01*
X162998607Y-89461507D01*
X162994474Y-89464610D01*
X162994471Y-89464612D01*
X162826624Y-89590635D01*
X162819965Y-89595635D01*
X162665629Y-89757138D01*
X162539743Y-89941680D01*
X162445688Y-90144305D01*
X162385989Y-90359570D01*
X162362251Y-90581695D01*
X162362548Y-90586848D01*
X162362548Y-90586851D01*
X162367914Y-90679908D01*
X162375110Y-90804715D01*
X162376247Y-90809761D01*
X162376248Y-90809767D01*
X162397265Y-90903023D01*
X162424222Y-91022639D01*
X162508266Y-91229616D01*
X162555955Y-91307438D01*
X162619227Y-91410688D01*
X162624987Y-91420088D01*
X162771250Y-91588938D01*
X162846213Y-91651173D01*
X162933123Y-91723327D01*
X162943126Y-91731632D01*
X163007889Y-91769476D01*
X163016445Y-91774476D01*
X163065169Y-91826114D01*
X163078240Y-91895897D01*
X163051509Y-91961669D01*
X163011055Y-91995027D01*
X162998607Y-92001507D01*
X162994474Y-92004610D01*
X162994471Y-92004612D01*
X162826624Y-92130635D01*
X162819965Y-92135635D01*
X162665629Y-92297138D01*
X162539743Y-92481680D01*
X162445688Y-92684305D01*
X162385989Y-92899570D01*
X162362251Y-93121695D01*
X162362548Y-93126848D01*
X162362548Y-93126851D01*
X162367914Y-93219908D01*
X162375110Y-93344715D01*
X162376247Y-93349761D01*
X162376248Y-93349767D01*
X162397265Y-93443023D01*
X162424222Y-93562639D01*
X162508266Y-93769616D01*
X162542846Y-93826045D01*
X162619227Y-93950688D01*
X162624987Y-93960088D01*
X162771250Y-94128938D01*
X162846213Y-94191173D01*
X162933123Y-94263327D01*
X162943126Y-94271632D01*
X162998163Y-94303793D01*
X163016445Y-94314476D01*
X163065169Y-94366114D01*
X163078240Y-94435897D01*
X163051509Y-94501669D01*
X163011055Y-94535027D01*
X162998607Y-94541507D01*
X162994474Y-94544610D01*
X162994471Y-94544612D01*
X162826624Y-94670635D01*
X162819965Y-94675635D01*
X162665629Y-94837138D01*
X162662715Y-94841410D01*
X162662714Y-94841411D01*
X162597546Y-94936944D01*
X162539743Y-95021680D01*
X162515478Y-95073955D01*
X162459302Y-95194977D01*
X162445688Y-95224305D01*
X162385989Y-95439570D01*
X162362251Y-95661695D01*
X162362548Y-95666848D01*
X162362548Y-95666851D01*
X162367914Y-95759908D01*
X162375110Y-95884715D01*
X162376247Y-95889761D01*
X162376248Y-95889767D01*
X162397265Y-95983023D01*
X162424222Y-96102639D01*
X162426166Y-96107426D01*
X162426167Y-96107430D01*
X162444494Y-96152565D01*
X162451590Y-96223206D01*
X162419367Y-96286469D01*
X162378400Y-96315340D01*
X162349688Y-96327943D01*
X162343619Y-96330419D01*
X162341485Y-96331226D01*
X162290960Y-96350317D01*
X162290958Y-96350318D01*
X162283855Y-96353002D01*
X162277596Y-96357303D01*
X162275231Y-96358540D01*
X162260459Y-96366762D01*
X162258167Y-96368117D01*
X162251206Y-96371173D01*
X162245179Y-96375798D01*
X162245175Y-96375800D01*
X162200498Y-96410082D01*
X162195173Y-96413951D01*
X162142530Y-96450132D01*
X162137479Y-96455801D01*
X162137477Y-96455803D01*
X162101083Y-96496652D01*
X162096101Y-96501929D01*
X161433467Y-97164563D01*
X161370569Y-97198715D01*
X161217712Y-97231206D01*
X161211682Y-97233891D01*
X161211681Y-97233891D01*
X161049278Y-97306197D01*
X161049276Y-97306198D01*
X161043248Y-97308882D01*
X160888747Y-97421134D01*
X160884326Y-97426044D01*
X160884325Y-97426045D01*
X160786566Y-97534618D01*
X160760960Y-97563056D01*
X160665473Y-97728444D01*
X160606458Y-97910072D01*
X160586496Y-98100000D01*
X160587186Y-98106565D01*
X160596608Y-98196206D01*
X160606458Y-98289928D01*
X160608498Y-98296206D01*
X160650854Y-98426564D01*
X160652882Y-98497531D01*
X160616219Y-98558329D01*
X160552507Y-98589655D01*
X160531021Y-98591500D01*
X160504513Y-98591500D01*
X160498061Y-98592872D01*
X160498056Y-98592872D01*
X160411112Y-98611353D01*
X160317712Y-98631206D01*
X160311682Y-98633891D01*
X160311681Y-98633891D01*
X160149278Y-98706197D01*
X160149276Y-98706198D01*
X160143248Y-98708882D01*
X159988747Y-98821134D01*
X159860960Y-98963056D01*
X159765473Y-99128444D01*
X159706458Y-99310072D01*
X159686496Y-99500000D01*
X138919601Y-99500000D01*
X138917826Y-99491654D01*
X138942942Y-99425248D01*
X138970294Y-99398641D01*
X139145328Y-99273792D01*
X139153200Y-99267139D01*
X139304052Y-99116812D01*
X139310730Y-99108965D01*
X139435003Y-98936020D01*
X139440313Y-98927183D01*
X139534670Y-98736267D01*
X139538469Y-98726672D01*
X139600377Y-98522910D01*
X139602555Y-98512837D01*
X139603986Y-98501962D01*
X139601775Y-98487778D01*
X139588617Y-98484000D01*
X134413225Y-98484000D01*
X134399694Y-98487973D01*
X134398257Y-98497966D01*
X134428565Y-98632446D01*
X134431645Y-98642275D01*
X134511770Y-98839603D01*
X134516413Y-98848794D01*
X134627694Y-99030388D01*
X134633777Y-99038699D01*
X134773213Y-99199667D01*
X134780580Y-99206883D01*
X134944434Y-99342916D01*
X134952881Y-99348831D01*
X135021969Y-99389203D01*
X135070693Y-99440842D01*
X135083764Y-99510625D01*
X135057033Y-99576396D01*
X135016584Y-99609752D01*
X135003607Y-99616507D01*
X134999474Y-99619610D01*
X134999471Y-99619612D01*
X134829100Y-99747530D01*
X134824965Y-99750635D01*
X134670629Y-99912138D01*
X134544743Y-100096680D01*
X134526682Y-100135590D01*
X134456290Y-100287237D01*
X134450688Y-100299305D01*
X134390989Y-100514570D01*
X134367251Y-100736695D01*
X134367548Y-100741848D01*
X134367548Y-100741851D01*
X134372903Y-100834729D01*
X134380110Y-100959715D01*
X134381247Y-100964761D01*
X134381248Y-100964767D01*
X134401119Y-101052939D01*
X134429222Y-101177639D01*
X134513266Y-101384616D01*
X134564019Y-101467438D01*
X134627291Y-101570688D01*
X134629987Y-101575088D01*
X134776250Y-101743938D01*
X134948126Y-101886632D01*
X134956683Y-101891632D01*
X135021445Y-101929476D01*
X135070169Y-101981114D01*
X135083240Y-102050897D01*
X135056509Y-102116669D01*
X135016055Y-102150027D01*
X135003607Y-102156507D01*
X134999474Y-102159610D01*
X134999471Y-102159612D01*
X134829100Y-102287530D01*
X134824965Y-102290635D01*
X134670629Y-102452138D01*
X134544743Y-102636680D01*
X134450688Y-102839305D01*
X134390989Y-103054570D01*
X134367251Y-103276695D01*
X134367548Y-103281848D01*
X134367548Y-103281851D01*
X134373011Y-103376590D01*
X134380110Y-103499715D01*
X134381247Y-103504761D01*
X134381248Y-103504767D01*
X134382375Y-103509767D01*
X134429222Y-103717639D01*
X134513266Y-103924616D01*
X134564019Y-104007438D01*
X134627291Y-104110688D01*
X134629987Y-104115088D01*
X134776250Y-104283938D01*
X134948126Y-104426632D01*
X134956683Y-104431632D01*
X135021445Y-104469476D01*
X135070169Y-104521114D01*
X135083240Y-104590897D01*
X135056509Y-104656669D01*
X135016055Y-104690027D01*
X135003607Y-104696507D01*
X134999474Y-104699610D01*
X134999471Y-104699612D01*
X134829100Y-104827530D01*
X134824965Y-104830635D01*
X134670629Y-104992138D01*
X134667720Y-104996403D01*
X134667714Y-104996411D01*
X134582556Y-105121249D01*
X134544743Y-105176680D01*
X134529003Y-105210590D01*
X134490377Y-105293803D01*
X134450688Y-105379305D01*
X134390989Y-105594570D01*
X134367251Y-105816695D01*
X134367548Y-105821848D01*
X134367548Y-105821851D01*
X134373011Y-105916590D01*
X134380110Y-106039715D01*
X134381247Y-106044761D01*
X134381248Y-106044767D01*
X134382375Y-106049767D01*
X134429222Y-106257639D01*
X134513266Y-106464616D01*
X134564019Y-106547438D01*
X134627291Y-106650688D01*
X134629987Y-106655088D01*
X134776250Y-106823938D01*
X134948126Y-106966632D01*
X134956683Y-106971632D01*
X135021445Y-107009476D01*
X135070169Y-107061114D01*
X135083240Y-107130897D01*
X135056509Y-107196669D01*
X135016055Y-107230027D01*
X135003607Y-107236507D01*
X134999474Y-107239610D01*
X134999471Y-107239612D01*
X134829100Y-107367530D01*
X134824965Y-107370635D01*
X134670629Y-107532138D01*
X134544743Y-107716680D01*
X134450688Y-107919305D01*
X134390989Y-108134570D01*
X134367251Y-108356695D01*
X134367548Y-108361848D01*
X134367548Y-108361851D01*
X134373011Y-108456590D01*
X134380110Y-108579715D01*
X134381247Y-108584761D01*
X134381248Y-108584767D01*
X134382375Y-108589767D01*
X134429222Y-108797639D01*
X134513266Y-109004616D01*
X134564019Y-109087438D01*
X134627291Y-109190688D01*
X134629987Y-109195088D01*
X134776250Y-109363938D01*
X134948126Y-109506632D01*
X134956683Y-109511632D01*
X135021445Y-109549476D01*
X135070169Y-109601114D01*
X135083240Y-109670897D01*
X135056509Y-109736669D01*
X135016055Y-109770027D01*
X135003607Y-109776507D01*
X134999474Y-109779610D01*
X134999471Y-109779612D01*
X134829100Y-109907530D01*
X134824965Y-109910635D01*
X134670629Y-110072138D01*
X134544743Y-110256680D01*
X134450688Y-110459305D01*
X134390989Y-110674570D01*
X134367251Y-110896695D01*
X134367548Y-110901848D01*
X134367548Y-110901851D01*
X134373011Y-110996590D01*
X134380110Y-111119715D01*
X134381247Y-111124761D01*
X134381248Y-111124767D01*
X134382375Y-111129767D01*
X134429222Y-111337639D01*
X134513266Y-111544616D01*
X134564019Y-111627438D01*
X134627291Y-111730688D01*
X134629987Y-111735088D01*
X134776250Y-111903938D01*
X134948126Y-112046632D01*
X134956683Y-112051632D01*
X135021445Y-112089476D01*
X135070169Y-112141114D01*
X135083240Y-112210897D01*
X135056509Y-112276669D01*
X135016055Y-112310027D01*
X135003607Y-112316507D01*
X134999474Y-112319610D01*
X134999471Y-112319612D01*
X134829100Y-112447530D01*
X134824965Y-112450635D01*
X134670629Y-112612138D01*
X134544743Y-112796680D01*
X134450688Y-112999305D01*
X134390989Y-113214570D01*
X134367251Y-113436695D01*
X134367548Y-113441848D01*
X134367548Y-113441851D01*
X134373011Y-113536590D01*
X134380110Y-113659715D01*
X134381247Y-113664761D01*
X134381248Y-113664767D01*
X134382375Y-113669767D01*
X134429222Y-113877639D01*
X134513266Y-114084616D01*
X134564019Y-114167438D01*
X134627291Y-114270688D01*
X134629987Y-114275088D01*
X134776250Y-114443938D01*
X134948126Y-114586632D01*
X134956683Y-114591632D01*
X135021445Y-114629476D01*
X135070169Y-114681114D01*
X135083240Y-114750897D01*
X135056509Y-114816669D01*
X135016055Y-114850027D01*
X135003607Y-114856507D01*
X134999474Y-114859610D01*
X134999471Y-114859612D01*
X134829100Y-114987530D01*
X134824965Y-114990635D01*
X134670629Y-115152138D01*
X134544743Y-115336680D01*
X134450688Y-115539305D01*
X134390989Y-115754570D01*
X134367251Y-115976695D01*
X134367548Y-115981848D01*
X134367548Y-115981851D01*
X134373011Y-116076590D01*
X134380110Y-116199715D01*
X134381247Y-116204761D01*
X134381248Y-116204767D01*
X134382375Y-116209767D01*
X134429222Y-116417639D01*
X134513266Y-116624616D01*
X134564019Y-116707438D01*
X134627291Y-116810688D01*
X134629987Y-116815088D01*
X134776250Y-116983938D01*
X134948126Y-117126632D01*
X134956683Y-117131632D01*
X135021445Y-117169476D01*
X135070169Y-117221114D01*
X135083240Y-117290897D01*
X135056509Y-117356669D01*
X135016055Y-117390027D01*
X135003607Y-117396507D01*
X134999474Y-117399610D01*
X134999471Y-117399612D01*
X134829100Y-117527530D01*
X134824965Y-117530635D01*
X134670629Y-117692138D01*
X134544743Y-117876680D01*
X134450688Y-118079305D01*
X134390989Y-118294570D01*
X134367251Y-118516695D01*
X132508500Y-118516695D01*
X132508500Y-95656695D01*
X134367251Y-95656695D01*
X134367548Y-95661848D01*
X134367548Y-95661851D01*
X134373011Y-95756590D01*
X134380110Y-95879715D01*
X134381247Y-95884761D01*
X134381248Y-95884767D01*
X134382375Y-95889767D01*
X134429222Y-96097639D01*
X134480209Y-96223206D01*
X134505631Y-96285812D01*
X134513266Y-96304616D01*
X134558508Y-96378444D01*
X134627291Y-96490688D01*
X134629987Y-96495088D01*
X134776250Y-96663938D01*
X134948126Y-96806632D01*
X134983892Y-96827532D01*
X135021955Y-96849774D01*
X135070679Y-96901412D01*
X135083750Y-96971195D01*
X135057019Y-97036967D01*
X135016562Y-97070327D01*
X135008457Y-97074546D01*
X134999738Y-97080036D01*
X134829433Y-97207905D01*
X134821726Y-97214748D01*
X134674590Y-97368717D01*
X134668104Y-97376727D01*
X134548098Y-97552649D01*
X134543000Y-97561623D01*
X134453338Y-97754783D01*
X134449775Y-97764470D01*
X134394389Y-97964183D01*
X134395912Y-97972607D01*
X134408292Y-97976000D01*
X139588344Y-97976000D01*
X139601875Y-97972027D01*
X139603180Y-97962947D01*
X139561214Y-97795875D01*
X139557894Y-97786124D01*
X139472972Y-97590814D01*
X139468105Y-97581739D01*
X139352426Y-97402926D01*
X139346136Y-97394757D01*
X139202806Y-97237240D01*
X139195273Y-97230215D01*
X139028139Y-97098222D01*
X139019556Y-97092520D01*
X138982602Y-97072120D01*
X138932631Y-97021687D01*
X138917859Y-96952245D01*
X138942975Y-96885839D01*
X138970327Y-96859232D01*
X138993797Y-96842491D01*
X139123465Y-96750000D01*
X156336496Y-96750000D01*
X156337186Y-96756565D01*
X156348152Y-96860896D01*
X156356458Y-96939928D01*
X156415473Y-97121556D01*
X156510960Y-97286944D01*
X156515378Y-97291851D01*
X156515379Y-97291852D01*
X156627588Y-97416473D01*
X156638747Y-97428866D01*
X156644088Y-97432746D01*
X156644093Y-97432751D01*
X156646965Y-97434837D01*
X156648225Y-97436471D01*
X156648998Y-97437167D01*
X156648871Y-97437308D01*
X156690320Y-97491059D01*
X156696397Y-97561795D01*
X156682026Y-97599772D01*
X156668778Y-97622719D01*
X156665473Y-97628444D01*
X156606458Y-97810072D01*
X156605768Y-97816633D01*
X156605768Y-97816635D01*
X156595948Y-97910072D01*
X156586496Y-98000000D01*
X156606458Y-98189928D01*
X156665473Y-98371556D01*
X156760960Y-98536944D01*
X156765378Y-98541851D01*
X156765379Y-98541852D01*
X156844598Y-98629834D01*
X156888747Y-98678866D01*
X156935402Y-98712763D01*
X157026385Y-98778866D01*
X157043248Y-98791118D01*
X157049276Y-98793802D01*
X157049278Y-98793803D01*
X157166120Y-98845824D01*
X157217712Y-98868794D01*
X157311112Y-98888647D01*
X157398056Y-98907128D01*
X157398061Y-98907128D01*
X157404513Y-98908500D01*
X157595487Y-98908500D01*
X157601939Y-98907128D01*
X157601944Y-98907128D01*
X157688888Y-98888647D01*
X157782288Y-98868794D01*
X157833880Y-98845824D01*
X157950722Y-98793803D01*
X157950724Y-98793802D01*
X157956752Y-98791118D01*
X157973616Y-98778866D01*
X158064598Y-98712763D01*
X158111253Y-98678866D01*
X158155402Y-98629834D01*
X158234621Y-98541852D01*
X158234622Y-98541851D01*
X158239040Y-98536944D01*
X158334527Y-98371556D01*
X158393542Y-98189928D01*
X158395514Y-98171166D01*
X158422527Y-98105509D01*
X158431729Y-98095241D01*
X159781565Y-96745405D01*
X159843877Y-96711379D01*
X159870660Y-96708500D01*
X159995487Y-96708500D01*
X160001939Y-96707128D01*
X160001944Y-96707128D01*
X160088887Y-96688647D01*
X160182288Y-96668794D01*
X160193195Y-96663938D01*
X160350722Y-96593803D01*
X160350724Y-96593802D01*
X160356752Y-96591118D01*
X160511253Y-96478866D01*
X160584971Y-96396994D01*
X160634621Y-96341852D01*
X160634622Y-96341851D01*
X160639040Y-96336944D01*
X160734527Y-96171556D01*
X160793542Y-95989928D01*
X160794789Y-95978069D01*
X160812814Y-95806565D01*
X160813504Y-95800000D01*
X160809290Y-95759908D01*
X160794232Y-95616635D01*
X160794232Y-95616633D01*
X160793542Y-95610072D01*
X160734527Y-95428444D01*
X160731150Y-95422594D01*
X160654080Y-95289106D01*
X160639040Y-95263056D01*
X160627917Y-95250702D01*
X160515675Y-95126045D01*
X160515674Y-95126044D01*
X160511253Y-95121134D01*
X160401636Y-95041492D01*
X160375737Y-95022675D01*
X160332383Y-94966452D01*
X160326308Y-94895716D01*
X160333415Y-94873482D01*
X160334527Y-94871556D01*
X160337432Y-94862617D01*
X160391502Y-94696206D01*
X160393542Y-94689928D01*
X160394652Y-94679373D01*
X160412814Y-94506565D01*
X160413504Y-94500000D01*
X160408421Y-94451638D01*
X160394232Y-94316635D01*
X160394232Y-94316633D01*
X160393542Y-94310072D01*
X160334527Y-94128444D01*
X160239040Y-93963056D01*
X160143542Y-93856994D01*
X160115675Y-93826045D01*
X160115674Y-93826044D01*
X160111253Y-93821134D01*
X159980375Y-93726045D01*
X159962094Y-93712763D01*
X159962093Y-93712762D01*
X159956752Y-93708882D01*
X159950724Y-93706198D01*
X159950722Y-93706197D01*
X159788319Y-93633891D01*
X159788318Y-93633891D01*
X159782288Y-93631206D01*
X159688887Y-93611353D01*
X159601944Y-93592872D01*
X159601939Y-93592872D01*
X159595487Y-93591500D01*
X159404513Y-93591500D01*
X159398061Y-93592872D01*
X159398056Y-93592872D01*
X159311113Y-93611353D01*
X159217712Y-93631206D01*
X159211682Y-93633891D01*
X159211681Y-93633891D01*
X159049278Y-93706197D01*
X159049276Y-93706198D01*
X159043248Y-93708882D01*
X159037907Y-93712762D01*
X159037906Y-93712763D01*
X159019625Y-93726045D01*
X158888747Y-93821134D01*
X158884326Y-93826044D01*
X158884325Y-93826045D01*
X158856459Y-93856994D01*
X158760960Y-93963056D01*
X158665473Y-94128444D01*
X158663431Y-94134729D01*
X158619725Y-94269242D01*
X158606458Y-94310072D01*
X158605768Y-94316635D01*
X158605768Y-94316637D01*
X158601550Y-94356769D01*
X158574537Y-94422426D01*
X158565335Y-94432694D01*
X157183467Y-95814563D01*
X157120569Y-95848715D01*
X156967712Y-95881206D01*
X156961682Y-95883891D01*
X156961681Y-95883891D01*
X156799278Y-95956197D01*
X156799276Y-95956198D01*
X156793248Y-95958882D01*
X156638747Y-96071134D01*
X156634326Y-96076044D01*
X156634325Y-96076045D01*
X156534550Y-96186857D01*
X156510960Y-96213056D01*
X156459466Y-96302246D01*
X156422218Y-96366762D01*
X156415473Y-96378444D01*
X156356458Y-96560072D01*
X156336496Y-96750000D01*
X139123465Y-96750000D01*
X139149860Y-96731173D01*
X139172613Y-96708500D01*
X139304435Y-96577137D01*
X139308096Y-96573489D01*
X139367594Y-96490689D01*
X139435435Y-96396277D01*
X139438453Y-96392077D01*
X139448020Y-96372721D01*
X139535136Y-96196453D01*
X139535137Y-96196451D01*
X139537430Y-96191811D01*
X139602370Y-95978069D01*
X139631529Y-95756590D01*
X139631611Y-95753240D01*
X139633074Y-95693365D01*
X139633074Y-95693361D01*
X139633156Y-95690000D01*
X139614852Y-95467361D01*
X139560431Y-95250702D01*
X139471354Y-95045840D01*
X139397207Y-94931226D01*
X139352822Y-94862617D01*
X139352820Y-94862614D01*
X139350014Y-94858277D01*
X139199670Y-94693051D01*
X139195619Y-94689852D01*
X139195615Y-94689848D01*
X139028414Y-94557800D01*
X139028410Y-94557798D01*
X139024359Y-94554598D01*
X138983053Y-94531796D01*
X138933084Y-94481364D01*
X138918312Y-94411921D01*
X138922821Y-94400000D01*
X148386496Y-94400000D01*
X148387186Y-94406565D01*
X148402483Y-94552104D01*
X148406458Y-94589928D01*
X148465473Y-94771556D01*
X148560960Y-94936944D01*
X148565378Y-94941851D01*
X148565379Y-94941852D01*
X148659010Y-95045840D01*
X148688747Y-95078866D01*
X148843248Y-95191118D01*
X148849276Y-95193802D01*
X148849278Y-95193803D01*
X149017712Y-95268794D01*
X149017108Y-95270151D01*
X149069364Y-95305884D01*
X149097000Y-95371281D01*
X149097131Y-95398812D01*
X149093373Y-95434570D01*
X149086496Y-95500000D01*
X149087186Y-95506565D01*
X149104033Y-95666851D01*
X149106458Y-95689928D01*
X149165473Y-95871556D01*
X149168776Y-95877278D01*
X149168777Y-95877279D01*
X149173070Y-95884715D01*
X149260960Y-96036944D01*
X149265378Y-96041851D01*
X149265379Y-96041852D01*
X149311069Y-96092596D01*
X149388747Y-96178866D01*
X149543248Y-96291118D01*
X149549276Y-96293802D01*
X149549278Y-96293803D01*
X149682242Y-96353002D01*
X149717712Y-96368794D01*
X149792680Y-96384729D01*
X149898056Y-96407128D01*
X149898061Y-96407128D01*
X149904513Y-96408500D01*
X150095487Y-96408500D01*
X150101939Y-96407128D01*
X150101944Y-96407128D01*
X150207320Y-96384729D01*
X150282288Y-96368794D01*
X150317758Y-96353002D01*
X150450722Y-96293803D01*
X150450724Y-96293802D01*
X150456752Y-96291118D01*
X150611253Y-96178866D01*
X150688931Y-96092596D01*
X150734621Y-96041852D01*
X150734622Y-96041851D01*
X150739040Y-96036944D01*
X150826930Y-95884715D01*
X150831223Y-95877279D01*
X150831224Y-95877278D01*
X150834527Y-95871556D01*
X150893542Y-95689928D01*
X150898450Y-95643230D01*
X150925463Y-95577573D01*
X150934665Y-95567305D01*
X150980520Y-95521450D01*
X150986785Y-95515596D01*
X151024660Y-95482555D01*
X151030385Y-95477561D01*
X151067114Y-95425300D01*
X151071046Y-95420005D01*
X151105791Y-95375694D01*
X151110477Y-95369718D01*
X151113602Y-95362796D01*
X151114964Y-95360548D01*
X151123368Y-95345815D01*
X151124622Y-95343476D01*
X151128990Y-95337261D01*
X151131749Y-95330185D01*
X151131751Y-95330181D01*
X151152200Y-95277731D01*
X151154749Y-95271666D01*
X151181045Y-95213427D01*
X151182429Y-95205962D01*
X151183226Y-95203418D01*
X151187859Y-95187152D01*
X151188521Y-95184572D01*
X151191282Y-95177491D01*
X151199622Y-95114143D01*
X151200653Y-95107629D01*
X151212296Y-95044813D01*
X151211020Y-95022675D01*
X151208709Y-94982607D01*
X151208500Y-94975353D01*
X151208500Y-84283472D01*
X151228502Y-84215351D01*
X151283252Y-84168365D01*
X151450719Y-84093805D01*
X151450726Y-84093801D01*
X151456752Y-84091118D01*
X151469557Y-84081815D01*
X151532377Y-84036173D01*
X151611253Y-83978866D01*
X151698348Y-83882137D01*
X151734621Y-83841852D01*
X151734622Y-83841851D01*
X151739040Y-83836944D01*
X151819243Y-83698028D01*
X151831223Y-83677279D01*
X151831224Y-83677278D01*
X151834527Y-83671556D01*
X151893542Y-83489928D01*
X151894830Y-83477680D01*
X151912814Y-83306565D01*
X151913504Y-83300000D01*
X151893542Y-83110072D01*
X151834527Y-82928444D01*
X151816789Y-82897720D01*
X151744499Y-82772512D01*
X151739040Y-82763056D01*
X151724219Y-82746595D01*
X151615675Y-82626045D01*
X151615674Y-82626044D01*
X151611253Y-82621134D01*
X151582696Y-82600386D01*
X151539342Y-82544163D01*
X151533267Y-82473427D01*
X151547638Y-82435450D01*
X151581223Y-82377279D01*
X151581224Y-82377278D01*
X151584527Y-82371556D01*
X151643542Y-82189928D01*
X151646413Y-82162617D01*
X151662814Y-82006565D01*
X151663504Y-82000000D01*
X151648747Y-81859598D01*
X151644232Y-81816635D01*
X151644232Y-81816633D01*
X151643542Y-81810072D01*
X151584527Y-81628444D01*
X151489040Y-81463056D01*
X151376880Y-81338489D01*
X151365675Y-81326045D01*
X151365674Y-81326044D01*
X151361253Y-81321134D01*
X151206752Y-81208882D01*
X151200724Y-81206198D01*
X151200722Y-81206197D01*
X151038319Y-81133891D01*
X151038318Y-81133891D01*
X151032288Y-81131206D01*
X150938888Y-81111353D01*
X150851944Y-81092872D01*
X150851939Y-81092872D01*
X150845487Y-81091500D01*
X150654513Y-81091500D01*
X150648061Y-81092872D01*
X150648056Y-81092872D01*
X150561112Y-81111353D01*
X150467712Y-81131206D01*
X150461682Y-81133891D01*
X150461681Y-81133891D01*
X150299278Y-81206197D01*
X150299276Y-81206198D01*
X150293248Y-81208882D01*
X150138747Y-81321134D01*
X150134326Y-81326044D01*
X150134325Y-81326045D01*
X150123121Y-81338489D01*
X150010960Y-81463056D01*
X149915473Y-81628444D01*
X149913431Y-81634729D01*
X149875445Y-81751638D01*
X149856458Y-81810072D01*
X149855768Y-81816635D01*
X149855768Y-81816637D01*
X149851550Y-81856770D01*
X149824537Y-81922427D01*
X149815335Y-81932695D01*
X149319480Y-82428550D01*
X149313215Y-82434404D01*
X149269615Y-82472439D01*
X149265248Y-82478653D01*
X149232872Y-82524719D01*
X149228939Y-82530014D01*
X149189524Y-82580282D01*
X149186401Y-82587198D01*
X149185017Y-82589484D01*
X149176643Y-82604165D01*
X149175378Y-82606525D01*
X149171010Y-82612739D01*
X149168250Y-82619818D01*
X149168249Y-82619820D01*
X149147798Y-82672275D01*
X149145247Y-82678344D01*
X149118955Y-82736573D01*
X149117571Y-82744040D01*
X149116770Y-82746595D01*
X149112141Y-82762848D01*
X149111478Y-82765428D01*
X149108718Y-82772509D01*
X149107727Y-82780040D01*
X149107726Y-82780042D01*
X149100379Y-82835852D01*
X149099348Y-82842359D01*
X149087704Y-82905186D01*
X149088141Y-82912766D01*
X149088141Y-82912767D01*
X149091291Y-82967392D01*
X149091500Y-82974646D01*
X149091500Y-93416528D01*
X149071498Y-93484649D01*
X149016748Y-93531635D01*
X148849281Y-93606195D01*
X148849274Y-93606199D01*
X148843248Y-93608882D01*
X148688747Y-93721134D01*
X148684326Y-93726044D01*
X148684325Y-93726045D01*
X148570846Y-93852077D01*
X148560960Y-93863056D01*
X148465473Y-94028444D01*
X148406458Y-94210072D01*
X148405768Y-94216633D01*
X148405768Y-94216635D01*
X148388668Y-94379338D01*
X148386496Y-94400000D01*
X138922821Y-94400000D01*
X138943428Y-94345516D01*
X138970780Y-94318909D01*
X139037060Y-94271632D01*
X139149860Y-94191173D01*
X139308096Y-94033489D01*
X139367594Y-93950689D01*
X139435435Y-93856277D01*
X139438453Y-93852077D01*
X139459320Y-93809857D01*
X139535136Y-93656453D01*
X139535137Y-93656451D01*
X139537430Y-93651811D01*
X139602370Y-93438069D01*
X139631529Y-93216590D01*
X139633156Y-93150000D01*
X139614852Y-92927361D01*
X139560431Y-92710702D01*
X139471354Y-92505840D01*
X139350014Y-92318277D01*
X139199670Y-92153051D01*
X139195619Y-92149852D01*
X139195615Y-92149848D01*
X139028414Y-92017800D01*
X139028410Y-92017798D01*
X139024359Y-92014598D01*
X138983053Y-91991796D01*
X138933084Y-91941364D01*
X138918312Y-91871921D01*
X138943428Y-91805516D01*
X138970780Y-91778909D01*
X139037060Y-91731632D01*
X139149860Y-91651173D01*
X139308096Y-91493489D01*
X139367594Y-91410689D01*
X139435435Y-91316277D01*
X139438453Y-91312077D01*
X139459320Y-91269857D01*
X139535136Y-91116453D01*
X139535137Y-91116451D01*
X139537430Y-91111811D01*
X139602370Y-90898069D01*
X139631529Y-90676590D01*
X139633156Y-90610000D01*
X139614852Y-90387361D01*
X139560431Y-90170702D01*
X139471354Y-89965840D01*
X139350014Y-89778277D01*
X139199670Y-89613051D01*
X139195619Y-89609852D01*
X139195615Y-89609848D01*
X139028414Y-89477800D01*
X139028410Y-89477798D01*
X139024359Y-89474598D01*
X138983053Y-89451796D01*
X138933084Y-89401364D01*
X138918312Y-89331921D01*
X138943428Y-89265516D01*
X138970780Y-89238909D01*
X139037060Y-89191632D01*
X139149860Y-89111173D01*
X139308096Y-88953489D01*
X139367594Y-88870689D01*
X139435435Y-88776277D01*
X139438453Y-88772077D01*
X139459320Y-88729857D01*
X139535136Y-88576453D01*
X139535137Y-88576451D01*
X139537430Y-88571811D01*
X139602370Y-88358069D01*
X139631529Y-88136590D01*
X139633156Y-88070000D01*
X139614852Y-87847361D01*
X139560431Y-87630702D01*
X139471354Y-87425840D01*
X139350014Y-87238277D01*
X139199670Y-87073051D01*
X139195619Y-87069852D01*
X139195615Y-87069848D01*
X139028414Y-86937800D01*
X139028410Y-86937798D01*
X139024359Y-86934598D01*
X138983053Y-86911796D01*
X138933084Y-86861364D01*
X138918312Y-86791921D01*
X138943428Y-86725516D01*
X138970780Y-86698909D01*
X139037060Y-86651632D01*
X139149860Y-86571173D01*
X139308096Y-86413489D01*
X139367594Y-86330689D01*
X139435435Y-86236277D01*
X139438453Y-86232077D01*
X139459320Y-86189857D01*
X139535136Y-86036453D01*
X139535137Y-86036451D01*
X139537430Y-86031811D01*
X139602370Y-85818069D01*
X139631529Y-85596590D01*
X139633156Y-85530000D01*
X139614852Y-85307361D01*
X139560431Y-85090702D01*
X139471354Y-84885840D01*
X139431906Y-84824862D01*
X139352822Y-84702617D01*
X139352820Y-84702614D01*
X139350014Y-84698277D01*
X139199670Y-84533051D01*
X139195619Y-84529852D01*
X139195615Y-84529848D01*
X139028414Y-84397800D01*
X139028410Y-84397798D01*
X139024359Y-84394598D01*
X138983053Y-84371796D01*
X138933084Y-84321364D01*
X138918312Y-84251921D01*
X138943428Y-84185516D01*
X138970780Y-84158909D01*
X139037060Y-84111632D01*
X139149860Y-84031173D01*
X139207619Y-83973616D01*
X139283108Y-83898390D01*
X139308096Y-83873489D01*
X139367594Y-83790689D01*
X139435435Y-83696277D01*
X139438453Y-83692077D01*
X139451702Y-83665271D01*
X139535136Y-83496453D01*
X139535137Y-83496451D01*
X139537430Y-83491811D01*
X139593712Y-83306565D01*
X139600865Y-83283023D01*
X139600865Y-83283021D01*
X139602370Y-83278069D01*
X139631529Y-83056590D01*
X139633156Y-82990000D01*
X139614852Y-82767361D01*
X139560431Y-82550702D01*
X139471354Y-82345840D01*
X139431906Y-82284862D01*
X139352822Y-82162617D01*
X139352820Y-82162614D01*
X139350014Y-82158277D01*
X139199670Y-81993051D01*
X139195619Y-81989852D01*
X139195615Y-81989848D01*
X139028414Y-81857800D01*
X139028410Y-81857798D01*
X139024359Y-81854598D01*
X138983053Y-81831796D01*
X138933084Y-81781364D01*
X138918312Y-81711921D01*
X138943428Y-81645516D01*
X138970780Y-81618909D01*
X139037060Y-81571632D01*
X139149860Y-81491173D01*
X139172338Y-81468774D01*
X139304435Y-81337137D01*
X139308096Y-81333489D01*
X139367594Y-81250689D01*
X139435435Y-81156277D01*
X139438453Y-81152077D01*
X139459320Y-81109857D01*
X139535136Y-80956453D01*
X139535137Y-80956451D01*
X139537430Y-80951811D01*
X139602370Y-80738069D01*
X139631529Y-80516590D01*
X139633156Y-80450000D01*
X139614852Y-80227361D01*
X139560431Y-80010702D01*
X139471354Y-79805840D01*
X139431906Y-79744862D01*
X139352822Y-79622617D01*
X139352820Y-79622614D01*
X139350014Y-79618277D01*
X139199670Y-79453051D01*
X139195619Y-79449852D01*
X139195615Y-79449848D01*
X139028414Y-79317800D01*
X139028410Y-79317798D01*
X139024359Y-79314598D01*
X138983053Y-79291796D01*
X138933084Y-79241364D01*
X138918312Y-79171921D01*
X138943428Y-79105516D01*
X138970780Y-79078909D01*
X139037060Y-79031632D01*
X139149860Y-78951173D01*
X139308096Y-78793489D01*
X139367594Y-78710689D01*
X139435435Y-78616277D01*
X139438453Y-78612077D01*
X139459320Y-78569857D01*
X139535136Y-78416453D01*
X139535137Y-78416451D01*
X139537430Y-78411811D01*
X139602370Y-78198069D01*
X139631529Y-77976590D01*
X139633156Y-77910000D01*
X139614852Y-77687361D01*
X139560431Y-77470702D01*
X139471354Y-77265840D01*
X139431906Y-77204862D01*
X139352822Y-77082617D01*
X139352820Y-77082614D01*
X139350014Y-77078277D01*
X139199670Y-76913051D01*
X139195619Y-76909852D01*
X139195615Y-76909848D01*
X139028414Y-76777800D01*
X139028410Y-76777798D01*
X139024359Y-76774598D01*
X138982569Y-76751529D01*
X138932598Y-76701097D01*
X138917826Y-76631654D01*
X138942942Y-76565248D01*
X138970294Y-76538641D01*
X139145328Y-76413792D01*
X139153200Y-76407139D01*
X139304052Y-76256812D01*
X139310730Y-76248965D01*
X139435003Y-76076020D01*
X139440313Y-76067183D01*
X139534670Y-75876267D01*
X139538469Y-75866672D01*
X139600377Y-75662910D01*
X139602555Y-75652837D01*
X139603986Y-75641962D01*
X139601775Y-75627778D01*
X139588617Y-75624000D01*
X134390116Y-75624000D01*
X134374877Y-75628475D01*
X134373672Y-75629865D01*
X134372001Y-75637548D01*
X134372001Y-76264669D01*
X134372371Y-76271490D01*
X134377895Y-76322352D01*
X134381521Y-76337604D01*
X134426676Y-76458054D01*
X134435214Y-76473649D01*
X134511715Y-76575724D01*
X134524276Y-76588285D01*
X134626351Y-76664786D01*
X134641946Y-76673324D01*
X134750827Y-76714142D01*
X134807591Y-76756784D01*
X134832291Y-76823345D01*
X134817083Y-76892694D01*
X134797691Y-76919175D01*
X134795116Y-76921870D01*
X134670629Y-77052138D01*
X134544743Y-77236680D01*
X134450688Y-77439305D01*
X134390989Y-77654570D01*
X134367251Y-77876695D01*
X134367548Y-77881848D01*
X134367548Y-77881851D01*
X134373011Y-77976590D01*
X134380110Y-78099715D01*
X134381247Y-78104761D01*
X134381248Y-78104767D01*
X134382375Y-78109767D01*
X134429222Y-78317639D01*
X134513266Y-78524616D01*
X134564019Y-78607438D01*
X134627291Y-78710688D01*
X134629987Y-78715088D01*
X134776250Y-78883938D01*
X134948126Y-79026632D01*
X134956683Y-79031632D01*
X135021445Y-79069476D01*
X135070169Y-79121114D01*
X135083240Y-79190897D01*
X135056509Y-79256669D01*
X135016055Y-79290027D01*
X135003607Y-79296507D01*
X134999474Y-79299610D01*
X134999471Y-79299612D01*
X134829100Y-79427530D01*
X134824965Y-79430635D01*
X134670629Y-79592138D01*
X134544743Y-79776680D01*
X134450688Y-79979305D01*
X134390989Y-80194570D01*
X134367251Y-80416695D01*
X134367548Y-80421848D01*
X134367548Y-80421851D01*
X134373011Y-80516590D01*
X134380110Y-80639715D01*
X134381247Y-80644761D01*
X134381248Y-80644767D01*
X134382375Y-80649767D01*
X134429222Y-80857639D01*
X134513266Y-81064616D01*
X134554072Y-81131206D01*
X134627291Y-81250688D01*
X134629987Y-81255088D01*
X134776250Y-81423938D01*
X134948126Y-81566632D01*
X134956683Y-81571632D01*
X135021445Y-81609476D01*
X135070169Y-81661114D01*
X135083240Y-81730897D01*
X135056509Y-81796669D01*
X135016055Y-81830027D01*
X135003607Y-81836507D01*
X134999474Y-81839610D01*
X134999471Y-81839612D01*
X134917518Y-81901144D01*
X134824965Y-81970635D01*
X134670629Y-82132138D01*
X134544743Y-82316680D01*
X134529003Y-82350590D01*
X134474760Y-82467447D01*
X134450688Y-82519305D01*
X134390989Y-82734570D01*
X134367251Y-82956695D01*
X134367548Y-82961848D01*
X134367548Y-82961851D01*
X134376094Y-83110072D01*
X134380110Y-83179715D01*
X134381247Y-83184761D01*
X134381248Y-83184767D01*
X134382375Y-83189767D01*
X134429222Y-83397639D01*
X134513266Y-83604616D01*
X134554287Y-83671556D01*
X134627291Y-83790688D01*
X134629987Y-83795088D01*
X134776250Y-83963938D01*
X134948126Y-84106632D01*
X134956683Y-84111632D01*
X135021445Y-84149476D01*
X135070169Y-84201114D01*
X135083240Y-84270897D01*
X135056509Y-84336669D01*
X135016055Y-84370027D01*
X135003607Y-84376507D01*
X134999474Y-84379610D01*
X134999471Y-84379612D01*
X134829100Y-84507530D01*
X134824965Y-84510635D01*
X134670629Y-84672138D01*
X134544743Y-84856680D01*
X134450688Y-85059305D01*
X134390989Y-85274570D01*
X134367251Y-85496695D01*
X134367548Y-85501848D01*
X134367548Y-85501851D01*
X134373011Y-85596590D01*
X134380110Y-85719715D01*
X134381247Y-85724761D01*
X134381248Y-85724767D01*
X134382375Y-85729767D01*
X134429222Y-85937639D01*
X134513266Y-86144616D01*
X134564019Y-86227438D01*
X134627291Y-86330688D01*
X134629987Y-86335088D01*
X134776250Y-86503938D01*
X134948126Y-86646632D01*
X134956683Y-86651632D01*
X135021445Y-86689476D01*
X135070169Y-86741114D01*
X135083240Y-86810897D01*
X135056509Y-86876669D01*
X135016055Y-86910027D01*
X135003607Y-86916507D01*
X134999474Y-86919610D01*
X134999471Y-86919612D01*
X134975247Y-86937800D01*
X134824965Y-87050635D01*
X134670629Y-87212138D01*
X134544743Y-87396680D01*
X134450688Y-87599305D01*
X134390989Y-87814570D01*
X134367251Y-88036695D01*
X134367548Y-88041848D01*
X134367548Y-88041851D01*
X134373011Y-88136590D01*
X134380110Y-88259715D01*
X134381247Y-88264761D01*
X134381248Y-88264767D01*
X134382375Y-88269767D01*
X134429222Y-88477639D01*
X134513266Y-88684616D01*
X134564019Y-88767438D01*
X134627291Y-88870688D01*
X134629987Y-88875088D01*
X134776250Y-89043938D01*
X134948126Y-89186632D01*
X134956683Y-89191632D01*
X135021445Y-89229476D01*
X135070169Y-89281114D01*
X135083240Y-89350897D01*
X135056509Y-89416669D01*
X135016055Y-89450027D01*
X135003607Y-89456507D01*
X134999474Y-89459610D01*
X134999471Y-89459612D01*
X134975247Y-89477800D01*
X134824965Y-89590635D01*
X134670629Y-89752138D01*
X134544743Y-89936680D01*
X134450688Y-90139305D01*
X134390989Y-90354570D01*
X134367251Y-90576695D01*
X134367548Y-90581848D01*
X134367548Y-90581851D01*
X134373011Y-90676590D01*
X134380110Y-90799715D01*
X134381247Y-90804761D01*
X134381248Y-90804767D01*
X134382375Y-90809767D01*
X134429222Y-91017639D01*
X134513266Y-91224616D01*
X134564019Y-91307438D01*
X134627291Y-91410688D01*
X134629987Y-91415088D01*
X134776250Y-91583938D01*
X134948126Y-91726632D01*
X134956683Y-91731632D01*
X135021445Y-91769476D01*
X135070169Y-91821114D01*
X135083240Y-91890897D01*
X135056509Y-91956669D01*
X135016055Y-91990027D01*
X135003607Y-91996507D01*
X134999474Y-91999610D01*
X134999471Y-91999612D01*
X134975247Y-92017800D01*
X134824965Y-92130635D01*
X134670629Y-92292138D01*
X134544743Y-92476680D01*
X134450688Y-92679305D01*
X134390989Y-92894570D01*
X134367251Y-93116695D01*
X134367548Y-93121848D01*
X134367548Y-93121851D01*
X134373011Y-93216590D01*
X134380110Y-93339715D01*
X134381247Y-93344761D01*
X134381248Y-93344767D01*
X134382375Y-93349767D01*
X134429222Y-93557639D01*
X134513266Y-93764616D01*
X134550910Y-93826045D01*
X134627291Y-93950688D01*
X134629987Y-93955088D01*
X134776250Y-94123938D01*
X134948126Y-94266632D01*
X134956683Y-94271632D01*
X135021445Y-94309476D01*
X135070169Y-94361114D01*
X135083240Y-94430897D01*
X135056509Y-94496669D01*
X135016055Y-94530027D01*
X135003607Y-94536507D01*
X134999474Y-94539610D01*
X134999471Y-94539612D01*
X134924095Y-94596206D01*
X134824965Y-94670635D01*
X134821393Y-94674373D01*
X134723054Y-94777279D01*
X134670629Y-94832138D01*
X134544743Y-95016680D01*
X134518157Y-95073955D01*
X134461981Y-95194977D01*
X134450688Y-95219305D01*
X134390989Y-95434570D01*
X134367251Y-95656695D01*
X132508500Y-95656695D01*
X132508500Y-75097885D01*
X134372000Y-75097885D01*
X134376475Y-75113124D01*
X134377865Y-75114329D01*
X134385548Y-75116000D01*
X135457885Y-75116000D01*
X135473124Y-75111525D01*
X135474329Y-75110135D01*
X135476000Y-75102452D01*
X135476000Y-75097885D01*
X135984000Y-75097885D01*
X135988475Y-75113124D01*
X135989865Y-75114329D01*
X135997548Y-75116000D01*
X137997885Y-75116000D01*
X138013124Y-75111525D01*
X138014329Y-75110135D01*
X138016000Y-75102452D01*
X138016000Y-75097885D01*
X138524000Y-75097885D01*
X138528475Y-75113124D01*
X138529865Y-75114329D01*
X138537548Y-75116000D01*
X139588344Y-75116000D01*
X139601875Y-75112027D01*
X139603180Y-75102947D01*
X139561214Y-74935875D01*
X139557894Y-74926124D01*
X139472972Y-74730814D01*
X139468105Y-74721739D01*
X139352426Y-74542926D01*
X139346136Y-74534757D01*
X139202806Y-74377240D01*
X139195273Y-74370215D01*
X139028139Y-74238222D01*
X139019552Y-74232517D01*
X138833117Y-74129599D01*
X138823705Y-74125369D01*
X138622959Y-74054280D01*
X138612988Y-74051646D01*
X138541837Y-74038972D01*
X138528540Y-74040432D01*
X138524000Y-74054989D01*
X138524000Y-75097885D01*
X138016000Y-75097885D01*
X138016000Y-74053102D01*
X138012082Y-74039758D01*
X137997806Y-74037771D01*
X137959324Y-74043660D01*
X137949288Y-74046051D01*
X137746868Y-74112212D01*
X137737359Y-74116209D01*
X137548463Y-74214542D01*
X137539738Y-74220036D01*
X137369433Y-74347905D01*
X137361726Y-74354748D01*
X137284094Y-74435985D01*
X137222570Y-74471415D01*
X137151657Y-74467958D01*
X137093871Y-74426712D01*
X137075018Y-74393164D01*
X137033324Y-74281946D01*
X137024786Y-74266351D01*
X136948285Y-74164276D01*
X136935724Y-74151715D01*
X136833649Y-74075214D01*
X136818054Y-74066676D01*
X136697606Y-74021522D01*
X136682351Y-74017895D01*
X136631486Y-74012369D01*
X136624672Y-74012000D01*
X136002115Y-74012000D01*
X135986876Y-74016475D01*
X135985671Y-74017865D01*
X135984000Y-74025548D01*
X135984000Y-75097885D01*
X135476000Y-75097885D01*
X135476000Y-74030116D01*
X135471525Y-74014877D01*
X135470135Y-74013672D01*
X135462452Y-74012001D01*
X134835331Y-74012001D01*
X134828510Y-74012371D01*
X134777648Y-74017895D01*
X134762396Y-74021521D01*
X134641946Y-74066676D01*
X134626351Y-74075214D01*
X134524276Y-74151715D01*
X134511715Y-74164276D01*
X134435214Y-74266351D01*
X134426676Y-74281946D01*
X134381522Y-74402394D01*
X134377895Y-74417649D01*
X134372369Y-74468514D01*
X134372000Y-74475328D01*
X134372000Y-75097885D01*
X132508500Y-75097885D01*
X132508500Y-73053250D01*
X132510246Y-73032345D01*
X132512770Y-73017344D01*
X132512770Y-73017341D01*
X132513576Y-73012552D01*
X132513729Y-73000000D01*
X132513040Y-72995185D01*
X132513039Y-72995177D01*
X132511550Y-72984781D01*
X132510429Y-72960735D01*
X132525009Y-72663955D01*
X132526221Y-72651650D01*
X132537128Y-72578124D01*
X132538454Y-72569183D01*
X162389389Y-72569183D01*
X162390912Y-72577607D01*
X162403292Y-72581000D01*
X163452885Y-72581000D01*
X163468124Y-72576525D01*
X163469329Y-72575135D01*
X163471000Y-72567452D01*
X163471000Y-72562885D01*
X163979000Y-72562885D01*
X163983475Y-72578124D01*
X163984865Y-72579329D01*
X163992548Y-72581000D01*
X165992885Y-72581000D01*
X166008124Y-72576525D01*
X166009329Y-72575135D01*
X166011000Y-72567452D01*
X166011000Y-72562885D01*
X166519000Y-72562885D01*
X166523475Y-72578124D01*
X166524865Y-72579329D01*
X166532548Y-72581000D01*
X167583344Y-72581000D01*
X167596875Y-72577027D01*
X167598180Y-72567947D01*
X167556214Y-72400875D01*
X167552894Y-72391124D01*
X167467972Y-72195814D01*
X167463105Y-72186739D01*
X167347426Y-72007926D01*
X167341136Y-71999757D01*
X167197806Y-71842240D01*
X167190273Y-71835215D01*
X167023139Y-71703222D01*
X167014552Y-71697517D01*
X166828117Y-71594599D01*
X166818705Y-71590369D01*
X166617959Y-71519280D01*
X166607988Y-71516646D01*
X166536837Y-71503972D01*
X166523540Y-71505432D01*
X166519000Y-71519989D01*
X166519000Y-72562885D01*
X166011000Y-72562885D01*
X166011000Y-71518102D01*
X166007082Y-71504758D01*
X165992806Y-71502771D01*
X165954324Y-71508660D01*
X165944288Y-71511051D01*
X165741868Y-71577212D01*
X165732359Y-71581209D01*
X165543463Y-71679542D01*
X165534738Y-71685036D01*
X165364433Y-71812905D01*
X165356726Y-71819748D01*
X165209590Y-71973717D01*
X165203104Y-71981727D01*
X165098193Y-72135521D01*
X165043282Y-72180524D01*
X164972757Y-72188695D01*
X164909010Y-72157441D01*
X164888313Y-72132957D01*
X164807427Y-72007926D01*
X164801136Y-71999757D01*
X164657806Y-71842240D01*
X164650273Y-71835215D01*
X164483139Y-71703222D01*
X164474552Y-71697517D01*
X164288117Y-71594599D01*
X164278705Y-71590369D01*
X164077959Y-71519280D01*
X164067988Y-71516646D01*
X163996837Y-71503972D01*
X163983540Y-71505432D01*
X163979000Y-71519989D01*
X163979000Y-72562885D01*
X163471000Y-72562885D01*
X163471000Y-71518102D01*
X163467082Y-71504758D01*
X163452806Y-71502771D01*
X163414324Y-71508660D01*
X163404288Y-71511051D01*
X163201868Y-71577212D01*
X163192359Y-71581209D01*
X163003463Y-71679542D01*
X162994738Y-71685036D01*
X162824433Y-71812905D01*
X162816726Y-71819748D01*
X162669590Y-71973717D01*
X162663104Y-71981727D01*
X162543098Y-72157649D01*
X162538000Y-72166623D01*
X162448338Y-72359783D01*
X162444775Y-72369470D01*
X162389389Y-72569183D01*
X132538454Y-72569183D01*
X132574680Y-72324966D01*
X132577091Y-72312841D01*
X132657339Y-71992477D01*
X132660928Y-71980645D01*
X132772190Y-71669689D01*
X132776922Y-71658265D01*
X132918126Y-71359712D01*
X132923955Y-71348807D01*
X133093744Y-71065533D01*
X133100614Y-71055252D01*
X133153099Y-70984483D01*
X133297350Y-70789983D01*
X133305177Y-70780444D01*
X133526985Y-70535718D01*
X133535718Y-70526985D01*
X133780444Y-70305177D01*
X133789983Y-70297350D01*
X134055252Y-70100614D01*
X134065533Y-70093744D01*
X134207899Y-70008412D01*
X134348812Y-69923953D01*
X134359708Y-69918128D01*
X134590500Y-69808972D01*
X134658265Y-69776922D01*
X134669689Y-69772190D01*
X134980645Y-69660928D01*
X134992477Y-69657339D01*
X135218804Y-69600646D01*
X135312844Y-69577090D01*
X135324966Y-69574680D01*
X135651655Y-69526221D01*
X135663949Y-69525010D01*
X135957039Y-69510610D01*
X135982598Y-69511958D01*
X135993724Y-69513691D01*
X136025286Y-69509564D01*
X136041621Y-69508500D01*
X165950633Y-69508500D01*
X165970018Y-69510000D01*
G37*
%TD.AperFunction*%
%TD*%
M02*
