%FSLAX45Y45*%
G04 Gerber Fmt 4.5, Leading zero omitted, Abs format (unit mm)*
G04 Created by KiCad (PCBNEW 6.0.2+dfsg-1) date 2025-09-20 13:55:49*
%MOMM*%
%LPD*%
G01*
G04 APERTURE LIST*
%TA.AperFunction,Profile*%
%ADD10C,0.100000*%
%TD*%
%ADD11C,0.200000*%
%ADD12C,0.065000*%
G04 APERTURE END LIST*
D10*
X17300000Y-14000000D02*
G75*
G03*
X17700000Y-13600000I0J400000D01*
G01*
X12200000Y-13600000D02*
G75*
G03*
X12600000Y-14000000I400000J0D01*
G01*
X12200000Y-13600000D02*
X12200000Y-5900000D01*
X17700000Y-5900000D02*
G75*
G03*
X17300000Y-5500000I-400000J0D01*
G01*
X12600000Y-5500000D02*
X17300000Y-5500000D01*
X12600000Y-5500000D02*
G75*
G03*
X12200000Y-5900000I0J-400000D01*
G01*
X17300000Y-14000000D02*
X12600000Y-14000000D01*
X17700000Y-5900000D02*
X17700000Y-13600000D01*
D11*
D12*
X12827500Y-6928500D02*
X12892500Y-6993500D01*
X12892500Y-6928500D02*
X12827500Y-6993500D01*
X12827500Y-7506500D02*
X12892500Y-7571500D01*
X12892500Y-7506500D02*
X12827500Y-7571500D01*
X12827500Y-9428500D02*
X12892500Y-9493500D01*
X12892500Y-9428500D02*
X12827500Y-9493500D01*
X12827500Y-10006500D02*
X12892500Y-10071500D01*
X12892500Y-10006500D02*
X12827500Y-10071500D01*
D11*
X12452619Y-14315476D02*
X12452619Y-14115476D01*
X12500238Y-14115476D01*
X12528809Y-14125000D01*
X12547857Y-14144048D01*
X12557381Y-14163095D01*
X12566905Y-14201190D01*
X12566905Y-14229762D01*
X12557381Y-14267857D01*
X12547857Y-14286905D01*
X12528809Y-14305952D01*
X12500238Y-14315476D01*
X12452619Y-14315476D01*
X12652619Y-14315476D02*
X12652619Y-14182143D01*
X12652619Y-14220238D02*
X12662143Y-14201190D01*
X12671667Y-14191667D01*
X12690714Y-14182143D01*
X12709762Y-14182143D01*
X12776428Y-14315476D02*
X12776428Y-14182143D01*
X12776428Y-14115476D02*
X12766905Y-14125000D01*
X12776428Y-14134524D01*
X12785952Y-14125000D01*
X12776428Y-14115476D01*
X12776428Y-14134524D01*
X12900238Y-14315476D02*
X12881190Y-14305952D01*
X12871667Y-14286905D01*
X12871667Y-14115476D01*
X13005000Y-14315476D02*
X12985952Y-14305952D01*
X12976428Y-14286905D01*
X12976428Y-14115476D01*
X13233571Y-14315476D02*
X13233571Y-14115476D01*
X13300238Y-14258333D01*
X13366905Y-14115476D01*
X13366905Y-14315476D01*
X13547857Y-14315476D02*
X13547857Y-14210714D01*
X13538333Y-14191667D01*
X13519286Y-14182143D01*
X13481190Y-14182143D01*
X13462143Y-14191667D01*
X13547857Y-14305952D02*
X13528809Y-14315476D01*
X13481190Y-14315476D01*
X13462143Y-14305952D01*
X13452619Y-14286905D01*
X13452619Y-14267857D01*
X13462143Y-14248809D01*
X13481190Y-14239286D01*
X13528809Y-14239286D01*
X13547857Y-14229762D01*
X13643095Y-14182143D02*
X13643095Y-14382143D01*
X13643095Y-14191667D02*
X13662143Y-14182143D01*
X13700238Y-14182143D01*
X13719286Y-14191667D01*
X13728809Y-14201190D01*
X13738333Y-14220238D01*
X13738333Y-14277381D01*
X13728809Y-14296428D01*
X13719286Y-14305952D01*
X13700238Y-14315476D01*
X13662143Y-14315476D01*
X13643095Y-14305952D01*
X13824048Y-14296428D02*
X13833571Y-14305952D01*
X13824048Y-14315476D01*
X13814524Y-14305952D01*
X13824048Y-14296428D01*
X13824048Y-14315476D01*
X13824048Y-14191667D02*
X13833571Y-14201190D01*
X13824048Y-14210714D01*
X13814524Y-14201190D01*
X13824048Y-14191667D01*
X13824048Y-14210714D01*
D12*
X12130000Y-14612500D02*
X12195000Y-14677500D01*
X12195000Y-14612500D02*
X12130000Y-14677500D01*
D11*
X12490714Y-14535476D02*
X12509762Y-14535476D01*
X12528809Y-14545000D01*
X12538333Y-14554524D01*
X12547857Y-14573571D01*
X12557381Y-14611667D01*
X12557381Y-14659286D01*
X12547857Y-14697381D01*
X12538333Y-14716428D01*
X12528809Y-14725952D01*
X12509762Y-14735476D01*
X12490714Y-14735476D01*
X12471667Y-14725952D01*
X12462143Y-14716428D01*
X12452619Y-14697381D01*
X12443095Y-14659286D01*
X12443095Y-14611667D01*
X12452619Y-14573571D01*
X12462143Y-14554524D01*
X12471667Y-14545000D01*
X12490714Y-14535476D01*
X12643095Y-14716428D02*
X12652619Y-14725952D01*
X12643095Y-14735476D01*
X12633571Y-14725952D01*
X12643095Y-14716428D01*
X12643095Y-14735476D01*
X12824048Y-14535476D02*
X12785952Y-14535476D01*
X12766905Y-14545000D01*
X12757381Y-14554524D01*
X12738333Y-14583095D01*
X12728809Y-14621190D01*
X12728809Y-14697381D01*
X12738333Y-14716428D01*
X12747857Y-14725952D01*
X12766905Y-14735476D01*
X12805000Y-14735476D01*
X12824048Y-14725952D01*
X12833571Y-14716428D01*
X12843095Y-14697381D01*
X12843095Y-14649762D01*
X12833571Y-14630714D01*
X12824048Y-14621190D01*
X12805000Y-14611667D01*
X12766905Y-14611667D01*
X12747857Y-14621190D01*
X12738333Y-14630714D01*
X12728809Y-14649762D01*
X13024048Y-14535476D02*
X12928809Y-14535476D01*
X12919286Y-14630714D01*
X12928809Y-14621190D01*
X12947857Y-14611667D01*
X12995476Y-14611667D01*
X13014524Y-14621190D01*
X13024048Y-14630714D01*
X13033571Y-14649762D01*
X13033571Y-14697381D01*
X13024048Y-14716428D01*
X13014524Y-14725952D01*
X12995476Y-14735476D01*
X12947857Y-14735476D01*
X12928809Y-14725952D01*
X12919286Y-14716428D01*
X13157381Y-14535476D02*
X13176428Y-14535476D01*
X13195476Y-14545000D01*
X13205000Y-14554524D01*
X13214524Y-14573571D01*
X13224048Y-14611667D01*
X13224048Y-14659286D01*
X13214524Y-14697381D01*
X13205000Y-14716428D01*
X13195476Y-14725952D01*
X13176428Y-14735476D01*
X13157381Y-14735476D01*
X13138333Y-14725952D01*
X13128809Y-14716428D01*
X13119286Y-14697381D01*
X13109762Y-14659286D01*
X13109762Y-14611667D01*
X13119286Y-14573571D01*
X13128809Y-14554524D01*
X13138333Y-14545000D01*
X13157381Y-14535476D01*
X13309762Y-14735476D02*
X13309762Y-14602143D01*
X13309762Y-14621190D02*
X13319286Y-14611667D01*
X13338333Y-14602143D01*
X13366905Y-14602143D01*
X13385952Y-14611667D01*
X13395476Y-14630714D01*
X13395476Y-14735476D01*
X13395476Y-14630714D02*
X13405000Y-14611667D01*
X13424048Y-14602143D01*
X13452619Y-14602143D01*
X13471667Y-14611667D01*
X13481190Y-14630714D01*
X13481190Y-14735476D01*
X13576428Y-14735476D02*
X13576428Y-14602143D01*
X13576428Y-14621190D02*
X13585952Y-14611667D01*
X13605000Y-14602143D01*
X13633571Y-14602143D01*
X13652619Y-14611667D01*
X13662143Y-14630714D01*
X13662143Y-14735476D01*
X13662143Y-14630714D02*
X13671667Y-14611667D01*
X13690714Y-14602143D01*
X13719286Y-14602143D01*
X13738333Y-14611667D01*
X13747857Y-14630714D01*
X13747857Y-14735476D01*
X14138333Y-14525952D02*
X13966905Y-14783095D01*
X14395476Y-14535476D02*
X14414524Y-14535476D01*
X14433571Y-14545000D01*
X14443095Y-14554524D01*
X14452619Y-14573571D01*
X14462143Y-14611667D01*
X14462143Y-14659286D01*
X14452619Y-14697381D01*
X14443095Y-14716428D01*
X14433571Y-14725952D01*
X14414524Y-14735476D01*
X14395476Y-14735476D01*
X14376428Y-14725952D01*
X14366905Y-14716428D01*
X14357381Y-14697381D01*
X14347857Y-14659286D01*
X14347857Y-14611667D01*
X14357381Y-14573571D01*
X14366905Y-14554524D01*
X14376428Y-14545000D01*
X14395476Y-14535476D01*
X14547857Y-14716428D02*
X14557381Y-14725952D01*
X14547857Y-14735476D01*
X14538333Y-14725952D01*
X14547857Y-14716428D01*
X14547857Y-14735476D01*
X14681190Y-14535476D02*
X14700238Y-14535476D01*
X14719286Y-14545000D01*
X14728809Y-14554524D01*
X14738333Y-14573571D01*
X14747857Y-14611667D01*
X14747857Y-14659286D01*
X14738333Y-14697381D01*
X14728809Y-14716428D01*
X14719286Y-14725952D01*
X14700238Y-14735476D01*
X14681190Y-14735476D01*
X14662143Y-14725952D01*
X14652619Y-14716428D01*
X14643095Y-14697381D01*
X14633571Y-14659286D01*
X14633571Y-14611667D01*
X14643095Y-14573571D01*
X14652619Y-14554524D01*
X14662143Y-14545000D01*
X14681190Y-14535476D01*
X14824048Y-14554524D02*
X14833571Y-14545000D01*
X14852619Y-14535476D01*
X14900238Y-14535476D01*
X14919286Y-14545000D01*
X14928809Y-14554524D01*
X14938333Y-14573571D01*
X14938333Y-14592619D01*
X14928809Y-14621190D01*
X14814524Y-14735476D01*
X14938333Y-14735476D01*
X15119286Y-14535476D02*
X15024048Y-14535476D01*
X15014524Y-14630714D01*
X15024048Y-14621190D01*
X15043095Y-14611667D01*
X15090714Y-14611667D01*
X15109762Y-14621190D01*
X15119286Y-14630714D01*
X15128809Y-14649762D01*
X15128809Y-14697381D01*
X15119286Y-14716428D01*
X15109762Y-14725952D01*
X15090714Y-14735476D01*
X15043095Y-14735476D01*
X15024048Y-14725952D01*
X15014524Y-14716428D01*
X15300238Y-14535476D02*
X15262143Y-14535476D01*
X15243095Y-14545000D01*
X15233571Y-14554524D01*
X15214524Y-14583095D01*
X15205000Y-14621190D01*
X15205000Y-14697381D01*
X15214524Y-14716428D01*
X15224048Y-14725952D01*
X15243095Y-14735476D01*
X15281190Y-14735476D01*
X15300238Y-14725952D01*
X15309762Y-14716428D01*
X15319286Y-14697381D01*
X15319286Y-14649762D01*
X15309762Y-14630714D01*
X15300238Y-14621190D01*
X15281190Y-14611667D01*
X15243095Y-14611667D01*
X15224048Y-14621190D01*
X15214524Y-14630714D01*
X15205000Y-14649762D01*
X15395476Y-14535476D02*
X15395476Y-14573571D01*
X15471667Y-14535476D02*
X15471667Y-14573571D01*
X15766905Y-14811667D02*
X15757381Y-14802143D01*
X15738333Y-14773571D01*
X15728809Y-14754524D01*
X15719286Y-14725952D01*
X15709762Y-14678333D01*
X15709762Y-14640238D01*
X15719286Y-14592619D01*
X15728809Y-14564048D01*
X15738333Y-14545000D01*
X15757381Y-14516428D01*
X15766905Y-14506905D01*
X15928809Y-14602143D02*
X15928809Y-14735476D01*
X15881190Y-14525952D02*
X15833571Y-14668809D01*
X15957381Y-14668809D01*
X16185952Y-14735476D02*
X16185952Y-14535476D01*
X16271667Y-14735476D02*
X16271667Y-14630714D01*
X16262143Y-14611667D01*
X16243095Y-14602143D01*
X16214524Y-14602143D01*
X16195476Y-14611667D01*
X16185952Y-14621190D01*
X16395476Y-14735476D02*
X16376428Y-14725952D01*
X16366905Y-14716428D01*
X16357381Y-14697381D01*
X16357381Y-14640238D01*
X16366905Y-14621190D01*
X16376428Y-14611667D01*
X16395476Y-14602143D01*
X16424048Y-14602143D01*
X16443095Y-14611667D01*
X16452619Y-14621190D01*
X16462143Y-14640238D01*
X16462143Y-14697381D01*
X16452619Y-14716428D01*
X16443095Y-14725952D01*
X16424048Y-14735476D01*
X16395476Y-14735476D01*
X16576428Y-14735476D02*
X16557381Y-14725952D01*
X16547857Y-14706905D01*
X16547857Y-14535476D01*
X16728809Y-14725952D02*
X16709762Y-14735476D01*
X16671667Y-14735476D01*
X16652619Y-14725952D01*
X16643095Y-14706905D01*
X16643095Y-14630714D01*
X16652619Y-14611667D01*
X16671667Y-14602143D01*
X16709762Y-14602143D01*
X16728809Y-14611667D01*
X16738333Y-14630714D01*
X16738333Y-14649762D01*
X16643095Y-14668809D01*
X16814524Y-14725952D02*
X16833571Y-14735476D01*
X16871667Y-14735476D01*
X16890714Y-14725952D01*
X16900238Y-14706905D01*
X16900238Y-14697381D01*
X16890714Y-14678333D01*
X16871667Y-14668809D01*
X16843095Y-14668809D01*
X16824048Y-14659286D01*
X16814524Y-14640238D01*
X16814524Y-14630714D01*
X16824048Y-14611667D01*
X16843095Y-14602143D01*
X16871667Y-14602143D01*
X16890714Y-14611667D01*
X16966905Y-14811667D02*
X16976429Y-14802143D01*
X16995476Y-14773571D01*
X17005000Y-14754524D01*
X17014524Y-14725952D01*
X17024048Y-14678333D01*
X17024048Y-14640238D01*
X17014524Y-14592619D01*
X17005000Y-14564048D01*
X16995476Y-14545000D01*
X16976429Y-14516428D01*
X16966905Y-14506905D01*
X17328810Y-14811667D02*
X17319286Y-14802143D01*
X17300238Y-14773571D01*
X17290714Y-14754524D01*
X17281190Y-14725952D01*
X17271667Y-14678333D01*
X17271667Y-14640238D01*
X17281190Y-14592619D01*
X17290714Y-14564048D01*
X17300238Y-14545000D01*
X17319286Y-14516428D01*
X17328810Y-14506905D01*
X17405000Y-14602143D02*
X17405000Y-14735476D01*
X17405000Y-14621190D02*
X17414524Y-14611667D01*
X17433571Y-14602143D01*
X17462143Y-14602143D01*
X17481190Y-14611667D01*
X17490714Y-14630714D01*
X17490714Y-14735476D01*
X17614524Y-14735476D02*
X17595476Y-14725952D01*
X17585952Y-14716428D01*
X17576429Y-14697381D01*
X17576429Y-14640238D01*
X17585952Y-14621190D01*
X17595476Y-14611667D01*
X17614524Y-14602143D01*
X17643095Y-14602143D01*
X17662143Y-14611667D01*
X17671667Y-14621190D01*
X17681190Y-14640238D01*
X17681190Y-14697381D01*
X17671667Y-14716428D01*
X17662143Y-14725952D01*
X17643095Y-14735476D01*
X17614524Y-14735476D01*
X17738333Y-14602143D02*
X17814524Y-14602143D01*
X17766905Y-14535476D02*
X17766905Y-14706905D01*
X17776429Y-14725952D01*
X17795476Y-14735476D01*
X17814524Y-14735476D01*
X18033571Y-14602143D02*
X18033571Y-14802143D01*
X18033571Y-14611667D02*
X18052619Y-14602143D01*
X18090714Y-14602143D01*
X18109762Y-14611667D01*
X18119286Y-14621190D01*
X18128810Y-14640238D01*
X18128810Y-14697381D01*
X18119286Y-14716428D01*
X18109762Y-14725952D01*
X18090714Y-14735476D01*
X18052619Y-14735476D01*
X18033571Y-14725952D01*
X18243095Y-14735476D02*
X18224048Y-14725952D01*
X18214524Y-14706905D01*
X18214524Y-14535476D01*
X18405000Y-14735476D02*
X18405000Y-14630714D01*
X18395476Y-14611667D01*
X18376429Y-14602143D01*
X18338333Y-14602143D01*
X18319286Y-14611667D01*
X18405000Y-14725952D02*
X18385952Y-14735476D01*
X18338333Y-14735476D01*
X18319286Y-14725952D01*
X18309762Y-14706905D01*
X18309762Y-14687857D01*
X18319286Y-14668809D01*
X18338333Y-14659286D01*
X18385952Y-14659286D01*
X18405000Y-14649762D01*
X18471667Y-14602143D02*
X18547857Y-14602143D01*
X18500238Y-14535476D02*
X18500238Y-14706905D01*
X18509762Y-14725952D01*
X18528810Y-14735476D01*
X18547857Y-14735476D01*
X18690714Y-14725952D02*
X18671667Y-14735476D01*
X18633571Y-14735476D01*
X18614524Y-14725952D01*
X18605000Y-14706905D01*
X18605000Y-14630714D01*
X18614524Y-14611667D01*
X18633571Y-14602143D01*
X18671667Y-14602143D01*
X18690714Y-14611667D01*
X18700238Y-14630714D01*
X18700238Y-14649762D01*
X18605000Y-14668809D01*
X18871667Y-14735476D02*
X18871667Y-14535476D01*
X18871667Y-14725952D02*
X18852619Y-14735476D01*
X18814524Y-14735476D01*
X18795476Y-14725952D01*
X18785952Y-14716428D01*
X18776429Y-14697381D01*
X18776429Y-14640238D01*
X18785952Y-14621190D01*
X18795476Y-14611667D01*
X18814524Y-14602143D01*
X18852619Y-14602143D01*
X18871667Y-14611667D01*
X18947857Y-14811667D02*
X18957381Y-14802143D01*
X18976429Y-14773571D01*
X18985952Y-14754524D01*
X18995476Y-14725952D01*
X19005000Y-14678333D01*
X19005000Y-14640238D01*
X18995476Y-14592619D01*
X18985952Y-14564048D01*
X18976429Y-14545000D01*
X18957381Y-14516428D01*
X18947857Y-14506905D01*
M02*
