%TF.GenerationSoftware,KiCad,Pcbnew,6.0.2+dfsg-1*%
%TF.CreationDate,2025-09-20T13:55:39+02:00*%
%TF.ProjectId,Alchemy,416c6368-656d-4792-9e6b-696361645f70,rev?*%
%TF.SameCoordinates,Original*%
%TF.FileFunction,Soldermask,Bot*%
%TF.FilePolarity,Negative*%
%FSLAX46Y46*%
G04 Gerber Fmt 4.6, Leading zero omitted, Abs format (unit mm)*
G04 Created by KiCad (PCBNEW 6.0.2+dfsg-1) date 2025-09-20 13:55:39*
%MOMM*%
%LPD*%
G01*
G04 APERTURE LIST*
%ADD10C,0.650000*%
%ADD11O,2.100000X1.000000*%
%ADD12O,1.600000X1.000000*%
%ADD13C,2.000000*%
%ADD14R,1.700000X1.700000*%
%ADD15O,1.700000X1.700000*%
%ADD16C,6.400000*%
G04 APERTURE END LIST*
D10*
%TO.C,J3*%
X128600000Y-69610000D03*
X128600000Y-75390000D03*
D11*
X129130000Y-76820000D03*
X129130000Y-68180000D03*
D12*
X124950000Y-68180000D03*
X124950000Y-76820000D03*
%TD*%
D13*
%TO.C,TP3*%
X132500000Y-136000000D03*
%TD*%
D14*
%TO.C,J6*%
X133210000Y-68000000D03*
D15*
X135750000Y-68000000D03*
%TD*%
D16*
%TO.C,H3*%
X126000000Y-136000000D03*
%TD*%
D14*
%TO.C,J1*%
X170420000Y-73370000D03*
D15*
X172960000Y-73370000D03*
X170420000Y-75910000D03*
X172960000Y-75910000D03*
X170420000Y-78450000D03*
X172960000Y-78450000D03*
X170420000Y-80990000D03*
X172960000Y-80990000D03*
X170420000Y-83530000D03*
X172960000Y-83530000D03*
X170420000Y-86070000D03*
X172960000Y-86070000D03*
X170420000Y-88610000D03*
X172960000Y-88610000D03*
X170420000Y-91150000D03*
X172960000Y-91150000D03*
X170420000Y-93690000D03*
X172960000Y-93690000D03*
X170420000Y-96230000D03*
X172960000Y-96230000D03*
X170420000Y-98770000D03*
X172960000Y-98770000D03*
X170420000Y-101310000D03*
X172960000Y-101310000D03*
X170420000Y-103850000D03*
X172960000Y-103850000D03*
X170420000Y-106390000D03*
X172960000Y-106390000D03*
X170420000Y-108930000D03*
X172960000Y-108930000D03*
X170420000Y-111470000D03*
X172960000Y-111470000D03*
X170420000Y-114010000D03*
X172960000Y-114010000D03*
X170420000Y-116550000D03*
X172960000Y-116550000D03*
X170420000Y-119090000D03*
X172960000Y-119090000D03*
X170420000Y-121630000D03*
X172960000Y-121630000D03*
%TD*%
D13*
%TO.C,TP4*%
X166500000Y-136000000D03*
%TD*%
D14*
%TO.C,J8*%
X135000000Y-88025000D03*
D15*
X135000000Y-85485000D03*
%TD*%
D14*
%TO.C,J7*%
X133225000Y-77250000D03*
D15*
X135765000Y-77250000D03*
%TD*%
D14*
%TO.C,J5*%
X142000000Y-57975000D03*
D15*
X142000000Y-60515000D03*
X142000000Y-63055000D03*
%TD*%
D14*
%TO.C,J4*%
X146500000Y-57960000D03*
D15*
X146500000Y-60500000D03*
X146500000Y-63040000D03*
%TD*%
D13*
%TO.C,TP1*%
X132500000Y-59000000D03*
%TD*%
D10*
%TO.C,J2*%
X128600000Y-100390000D03*
X128600000Y-94610000D03*
D11*
X129130000Y-93180000D03*
D12*
X124950000Y-101820000D03*
D11*
X129130000Y-101820000D03*
D12*
X124950000Y-93180000D03*
%TD*%
D16*
%TO.C,H2*%
X173000000Y-59000000D03*
%TD*%
%TO.C,H4*%
X173000000Y-136000000D03*
%TD*%
%TO.C,H1*%
X126000000Y-59000000D03*
%TD*%
D14*
%TO.C,J9*%
X158500000Y-88960000D03*
D15*
X158500000Y-91500000D03*
X158500000Y-94040000D03*
%TD*%
D13*
%TO.C,TP2*%
X166500000Y-59000000D03*
%TD*%
M02*
