%FSLAX45Y45*%
G04 Gerber Fmt 4.5, Leading zero omitted, Abs format (unit mm)*
G04 Created by KiCad (PCBNEW 6.0.2+dfsg-1) date 2025-09-20 13:55:49*
%MOMM*%
%LPD*%
G01*
G04 APERTURE LIST*
%TA.AperFunction,Profile*%
%ADD10C,0.100000*%
%TD*%
%ADD11C,0.200000*%
%ADD12C,0.020000*%
%ADD13C,0.040000*%
%ADD14C,0.060000*%
%ADD15C,0.100000*%
%ADD16C,0.320000*%
G04 APERTURE END LIST*
D10*
X17300000Y-14000000D02*
G75*
G03*
X17700000Y-13600000I0J400000D01*
G01*
X12200000Y-13600000D02*
G75*
G03*
X12600000Y-14000000I400000J0D01*
G01*
X12200000Y-13600000D02*
X12200000Y-5900000D01*
X17700000Y-5900000D02*
G75*
G03*
X17300000Y-5500000I-400000J0D01*
G01*
X12600000Y-5500000D02*
X17300000Y-5500000D01*
X12600000Y-5500000D02*
G75*
G03*
X12200000Y-5900000I0J-400000D01*
G01*
X17300000Y-14000000D02*
X12600000Y-14000000D01*
X17700000Y-5900000D02*
X17700000Y-13600000D01*
D11*
D12*
X15319500Y-12560000D02*
X15339500Y-12580000D01*
X15339500Y-12560000D02*
X15319500Y-12580000D01*
X15319500Y-12690000D02*
X15339500Y-12710000D01*
X15339500Y-12690000D02*
X15319500Y-12710000D01*
X15319500Y-12820000D02*
X15339500Y-12840000D01*
X15339500Y-12820000D02*
X15319500Y-12840000D01*
X15510500Y-12560000D02*
X15530500Y-12580000D01*
X15530500Y-12560000D02*
X15510500Y-12580000D01*
X15510500Y-12690000D02*
X15530500Y-12710000D01*
X15530500Y-12690000D02*
X15510500Y-12710000D01*
X15510500Y-12820000D02*
X15530500Y-12840000D01*
X15530500Y-12820000D02*
X15510500Y-12840000D01*
D13*
X12620000Y-11050000D02*
G75*
G03*
X12620000Y-11050000I-20000J0D01*
G01*
X12670000Y-8575000D02*
G75*
G03*
X12670000Y-8575000I-20000J0D01*
G01*
X12820000Y-11050000D02*
G75*
G03*
X12820000Y-11050000I-20000J0D01*
G01*
X12820000Y-11175000D02*
G75*
G03*
X12820000Y-11175000I-20000J0D01*
G01*
X12895000Y-9000000D02*
G75*
G03*
X12895000Y-9000000I-20000J0D01*
G01*
X12995000Y-10825000D02*
G75*
G03*
X12995000Y-10825000I-20000J0D01*
G01*
X13045000Y-12700000D02*
G75*
G03*
X13045000Y-12700000I-20000J0D01*
G01*
X13145000Y-8375000D02*
G75*
G03*
X13145000Y-8375000I-20000J0D01*
G01*
X13320000Y-8025000D02*
G75*
G03*
X13320000Y-8025000I-20000J0D01*
G01*
X13345000Y-12525000D02*
G75*
G03*
X13345000Y-12525000I-20000J0D01*
G01*
X13345000Y-12875000D02*
G75*
G03*
X13345000Y-12875000I-20000J0D01*
G01*
X13445000Y-8025000D02*
G75*
G03*
X13445000Y-8025000I-20000J0D01*
G01*
X13470000Y-10725000D02*
G75*
G03*
X13470000Y-10725000I-20000J0D01*
G01*
X13470000Y-12525000D02*
G75*
G03*
X13470000Y-12525000I-20000J0D01*
G01*
X13470000Y-12875000D02*
G75*
G03*
X13470000Y-12875000I-20000J0D01*
G01*
X13645000Y-12050000D02*
G75*
G03*
X13645000Y-12050000I-20000J0D01*
G01*
X13645000Y-12175000D02*
G75*
G03*
X13645000Y-12175000I-20000J0D01*
G01*
X13645000Y-13225000D02*
G75*
G03*
X13645000Y-13225000I-20000J0D01*
G01*
X13645000Y-13350000D02*
G75*
G03*
X13645000Y-13350000I-20000J0D01*
G01*
X13654467Y-9809467D02*
G75*
G03*
X13654467Y-9809467I-20000J0D01*
G01*
X13832500Y-9750000D02*
G75*
G03*
X13832500Y-9750000I-20000J0D01*
G01*
X13895000Y-12050000D02*
G75*
G03*
X13895000Y-12050000I-20000J0D01*
G01*
X13895000Y-12175000D02*
G75*
G03*
X13895000Y-12175000I-20000J0D01*
G01*
X13895000Y-13225000D02*
G75*
G03*
X13895000Y-13225000I-20000J0D01*
G01*
X13895000Y-13350000D02*
G75*
G03*
X13895000Y-13350000I-20000J0D01*
G01*
X14017630Y-10375000D02*
G75*
G03*
X14017630Y-10375000I-20000J0D01*
G01*
X14020000Y-11075000D02*
G75*
G03*
X14020000Y-11075000I-20000J0D01*
G01*
X14196230Y-9800000D02*
G75*
G03*
X14196230Y-9800000I-20000J0D01*
G01*
X14320000Y-10050000D02*
G75*
G03*
X14320000Y-10050000I-20000J0D01*
G01*
X14345000Y-9775000D02*
G75*
G03*
X14345000Y-9775000I-20000J0D01*
G01*
X14370000Y-10300000D02*
G75*
G03*
X14370000Y-10300000I-20000J0D01*
G01*
X14395000Y-9300000D02*
G75*
G03*
X14395000Y-9300000I-20000J0D01*
G01*
X14420000Y-7550000D02*
G75*
G03*
X14420000Y-7550000I-20000J0D01*
G01*
X14445000Y-6850000D02*
G75*
G03*
X14445000Y-6850000I-20000J0D01*
G01*
X14553750Y-10291250D02*
G75*
G03*
X14553750Y-10291250I-20000J0D01*
G01*
X14645000Y-10400000D02*
G75*
G03*
X14645000Y-10400000I-20000J0D01*
G01*
X14695000Y-9150000D02*
G75*
G03*
X14695000Y-9150000I-20000J0D01*
G01*
X14757500Y-9587500D02*
G75*
G03*
X14757500Y-9587500I-20000J0D01*
G01*
X14762009Y-9713987D02*
G75*
G03*
X14762009Y-9713987I-20000J0D01*
G01*
X14795000Y-10725000D02*
G75*
G03*
X14795000Y-10725000I-20000J0D01*
G01*
X14870000Y-8650000D02*
G75*
G03*
X14870000Y-8650000I-20000J0D01*
G01*
X14870000Y-8775000D02*
G75*
G03*
X14870000Y-8775000I-20000J0D01*
G01*
X14920000Y-10825000D02*
G75*
G03*
X14920000Y-10825000I-20000J0D01*
G01*
X14970000Y-9500000D02*
G75*
G03*
X14970000Y-9500000I-20000J0D01*
G01*
X15020000Y-6225000D02*
G75*
G03*
X15020000Y-6225000I-20000J0D01*
G01*
X15045000Y-9875000D02*
G75*
G03*
X15045000Y-9875000I-20000J0D01*
G01*
X15070000Y-10875000D02*
G75*
G03*
X15070000Y-10875000I-20000J0D01*
G01*
X15145000Y-9775000D02*
G75*
G03*
X15145000Y-9775000I-20000J0D01*
G01*
X15170000Y-8825000D02*
G75*
G03*
X15170000Y-8825000I-20000J0D01*
G01*
X15170000Y-13075000D02*
G75*
G03*
X15170000Y-13075000I-20000J0D01*
G01*
X15170000Y-13475000D02*
G75*
G03*
X15170000Y-13475000I-20000J0D01*
G01*
X15195000Y-9975000D02*
G75*
G03*
X15195000Y-9975000I-20000J0D01*
G01*
X15220000Y-10925000D02*
G75*
G03*
X15220000Y-10925000I-20000J0D01*
G01*
X15270000Y-10350000D02*
G75*
G03*
X15270000Y-10350000I-20000J0D01*
G01*
X15295000Y-13075000D02*
G75*
G03*
X15295000Y-13075000I-20000J0D01*
G01*
X15295000Y-13475000D02*
G75*
G03*
X15295000Y-13475000I-20000J0D01*
G01*
X15420000Y-6550000D02*
G75*
G03*
X15420000Y-6550000I-20000J0D01*
G01*
X15495000Y-9200000D02*
G75*
G03*
X15495000Y-9200000I-20000J0D01*
G01*
X15495000Y-12325000D02*
G75*
G03*
X15495000Y-12325000I-20000J0D01*
G01*
X15545000Y-9475000D02*
G75*
G03*
X15545000Y-9475000I-20000J0D01*
G01*
X15595000Y-10150000D02*
G75*
G03*
X15595000Y-10150000I-20000J0D01*
G01*
X15620000Y-7400000D02*
G75*
G03*
X15620000Y-7400000I-20000J0D01*
G01*
X15797500Y-6847500D02*
G75*
G03*
X15797500Y-6847500I-20000J0D01*
G01*
X15995000Y-12400000D02*
G75*
G03*
X15995000Y-12400000I-20000J0D01*
G01*
X16020000Y-9775000D02*
G75*
G03*
X16020000Y-9775000I-20000J0D01*
G01*
X16220000Y-6550000D02*
G75*
G03*
X16220000Y-6550000I-20000J0D01*
G01*
X16245000Y-12400000D02*
G75*
G03*
X16245000Y-12400000I-20000J0D01*
G01*
X16270000Y-10625000D02*
G75*
G03*
X16270000Y-10625000I-20000J0D01*
G01*
X16618770Y-8923770D02*
G75*
G03*
X16618770Y-8923770I-20000J0D01*
G01*
X16670000Y-7150000D02*
G75*
G03*
X16670000Y-7150000I-20000J0D01*
G01*
X16695000Y-11150000D02*
G75*
G03*
X16695000Y-11150000I-20000J0D01*
G01*
X16720000Y-8850000D02*
G75*
G03*
X16720000Y-8850000I-20000J0D01*
G01*
X16720000Y-10175000D02*
G75*
G03*
X16720000Y-10175000I-20000J0D01*
G01*
X16945000Y-6650000D02*
G75*
G03*
X16945000Y-6650000I-20000J0D01*
G01*
D14*
X12495000Y-6788000D02*
X12495000Y-6848000D01*
X12465000Y-6818000D02*
X12525000Y-6818000D01*
D11*
X12525000Y-6798000D02*
X12465000Y-6798000D01*
X12525000Y-6838000D02*
X12465000Y-6838000D01*
X12465000Y-6798000D02*
G75*
G03*
X12465000Y-6838000I0J-20000D01*
G01*
X12525000Y-6838000D02*
G75*
G03*
X12525000Y-6798000I0J20000D01*
G01*
D14*
X12495000Y-7652000D02*
X12495000Y-7712000D01*
X12465000Y-7682000D02*
X12525000Y-7682000D01*
D11*
X12525000Y-7662000D02*
X12465000Y-7662000D01*
X12525000Y-7702000D02*
X12465000Y-7702000D01*
X12465000Y-7662000D02*
G75*
G03*
X12465000Y-7702000I0J-20000D01*
G01*
X12525000Y-7702000D02*
G75*
G03*
X12525000Y-7662000I0J20000D01*
G01*
D14*
X12495000Y-9288000D02*
X12495000Y-9348000D01*
X12465000Y-9318000D02*
X12525000Y-9318000D01*
D11*
X12525000Y-9298000D02*
X12465000Y-9298000D01*
X12525000Y-9338000D02*
X12465000Y-9338000D01*
X12465000Y-9298000D02*
G75*
G03*
X12465000Y-9338000I0J-20000D01*
G01*
X12525000Y-9338000D02*
G75*
G03*
X12525000Y-9298000I0J20000D01*
G01*
D14*
X12495000Y-10152000D02*
X12495000Y-10212000D01*
X12465000Y-10182000D02*
X12525000Y-10182000D01*
D11*
X12525000Y-10162000D02*
X12465000Y-10162000D01*
X12525000Y-10202000D02*
X12465000Y-10202000D01*
X12465000Y-10162000D02*
G75*
G03*
X12465000Y-10202000I0J-20000D01*
G01*
X12525000Y-10202000D02*
G75*
G03*
X12525000Y-10162000I0J20000D01*
G01*
D14*
X12913000Y-6788000D02*
X12913000Y-6848000D01*
X12883000Y-6818000D02*
X12943000Y-6818000D01*
D11*
X12968000Y-6798000D02*
X12858000Y-6798000D01*
X12968000Y-6838000D02*
X12858000Y-6838000D01*
X12858000Y-6798000D02*
G75*
G03*
X12858000Y-6838000I0J-20000D01*
G01*
X12968000Y-6838000D02*
G75*
G03*
X12968000Y-6798000I0J20000D01*
G01*
D14*
X12913000Y-7652000D02*
X12913000Y-7712000D01*
X12883000Y-7682000D02*
X12943000Y-7682000D01*
D11*
X12968000Y-7662000D02*
X12858000Y-7662000D01*
X12968000Y-7702000D02*
X12858000Y-7702000D01*
X12858000Y-7662000D02*
G75*
G03*
X12858000Y-7702000I0J-20000D01*
G01*
X12968000Y-7702000D02*
G75*
G03*
X12968000Y-7662000I0J20000D01*
G01*
D14*
X12913000Y-9288000D02*
X12913000Y-9348000D01*
X12883000Y-9318000D02*
X12943000Y-9318000D01*
D11*
X12968000Y-9298000D02*
X12858000Y-9298000D01*
X12968000Y-9338000D02*
X12858000Y-9338000D01*
X12858000Y-9298000D02*
G75*
G03*
X12858000Y-9338000I0J-20000D01*
G01*
X12968000Y-9338000D02*
G75*
G03*
X12968000Y-9298000I0J20000D01*
G01*
D14*
X12913000Y-10152000D02*
X12913000Y-10212000D01*
X12883000Y-10182000D02*
X12943000Y-10182000D01*
D11*
X12968000Y-10162000D02*
X12858000Y-10162000D01*
X12968000Y-10202000D02*
X12858000Y-10202000D01*
X12858000Y-10162000D02*
G75*
G03*
X12858000Y-10202000I0J-20000D01*
G01*
X12968000Y-10202000D02*
G75*
G03*
X12968000Y-10162000I0J20000D01*
G01*
D15*
X13285356Y-5935356D02*
X13285356Y-5864644D01*
X13214644Y-5864644D01*
X13214644Y-5935356D01*
X13285356Y-5935356D01*
X13285356Y-13635356D02*
X13285356Y-13564644D01*
X13214644Y-13564644D01*
X13214644Y-13635356D01*
X13285356Y-13635356D01*
X13356356Y-6835356D02*
X13356356Y-6764644D01*
X13285644Y-6764644D01*
X13285644Y-6835356D01*
X13356356Y-6835356D01*
X13357856Y-7760356D02*
X13357856Y-7689644D01*
X13287144Y-7689644D01*
X13287144Y-7760356D01*
X13357856Y-7760356D01*
X13535356Y-8583856D02*
X13535356Y-8513144D01*
X13464644Y-8513144D01*
X13464644Y-8583856D01*
X13535356Y-8583856D01*
X13535356Y-8837856D02*
X13535356Y-8767144D01*
X13464644Y-8767144D01*
X13464644Y-8837856D01*
X13535356Y-8837856D01*
X13610356Y-6835356D02*
X13610356Y-6764644D01*
X13539644Y-6764644D01*
X13539644Y-6835356D01*
X13610356Y-6835356D01*
X13611856Y-7760356D02*
X13611856Y-7689644D01*
X13541144Y-7689644D01*
X13541144Y-7760356D01*
X13611856Y-7760356D01*
X14235356Y-5832856D02*
X14235356Y-5762144D01*
X14164644Y-5762144D01*
X14164644Y-5832856D01*
X14235356Y-5832856D01*
X14235356Y-6086856D02*
X14235356Y-6016144D01*
X14164644Y-6016144D01*
X14164644Y-6086856D01*
X14235356Y-6086856D01*
X14235356Y-6340856D02*
X14235356Y-6270144D01*
X14164644Y-6270144D01*
X14164644Y-6340856D01*
X14235356Y-6340856D01*
X14685356Y-5831356D02*
X14685356Y-5760644D01*
X14614644Y-5760644D01*
X14614644Y-5831356D01*
X14685356Y-5831356D01*
X14685356Y-6085356D02*
X14685356Y-6014644D01*
X14614644Y-6014644D01*
X14614644Y-6085356D01*
X14685356Y-6085356D01*
X14685356Y-6339356D02*
X14685356Y-6268644D01*
X14614644Y-6268644D01*
X14614644Y-6339356D01*
X14685356Y-6339356D01*
X15885356Y-8931356D02*
X15885356Y-8860644D01*
X15814644Y-8860644D01*
X15814644Y-8931356D01*
X15885356Y-8931356D01*
X15885356Y-9185356D02*
X15885356Y-9114644D01*
X15814644Y-9114644D01*
X15814644Y-9185356D01*
X15885356Y-9185356D01*
X15885356Y-9439356D02*
X15885356Y-9368644D01*
X15814644Y-9368644D01*
X15814644Y-9439356D01*
X15885356Y-9439356D01*
X16685356Y-5935356D02*
X16685356Y-5864644D01*
X16614644Y-5864644D01*
X16614644Y-5935356D01*
X16685356Y-5935356D01*
X16685356Y-13635356D02*
X16685356Y-13564644D01*
X16614644Y-13564644D01*
X16614644Y-13635356D01*
X16685356Y-13635356D01*
X17077356Y-7372356D02*
X17077356Y-7301644D01*
X17006644Y-7301644D01*
X17006644Y-7372356D01*
X17077356Y-7372356D01*
X17077356Y-7626356D02*
X17077356Y-7555644D01*
X17006644Y-7555644D01*
X17006644Y-7626356D01*
X17077356Y-7626356D01*
X17077356Y-7880356D02*
X17077356Y-7809644D01*
X17006644Y-7809644D01*
X17006644Y-7880356D01*
X17077356Y-7880356D01*
X17077356Y-8134356D02*
X17077356Y-8063644D01*
X17006644Y-8063644D01*
X17006644Y-8134356D01*
X17077356Y-8134356D01*
X17077356Y-8388356D02*
X17077356Y-8317644D01*
X17006644Y-8317644D01*
X17006644Y-8388356D01*
X17077356Y-8388356D01*
X17077356Y-8642356D02*
X17077356Y-8571644D01*
X17006644Y-8571644D01*
X17006644Y-8642356D01*
X17077356Y-8642356D01*
X17077356Y-8896356D02*
X17077356Y-8825644D01*
X17006644Y-8825644D01*
X17006644Y-8896356D01*
X17077356Y-8896356D01*
X17077356Y-9150356D02*
X17077356Y-9079644D01*
X17006644Y-9079644D01*
X17006644Y-9150356D01*
X17077356Y-9150356D01*
X17077356Y-9404356D02*
X17077356Y-9333644D01*
X17006644Y-9333644D01*
X17006644Y-9404356D01*
X17077356Y-9404356D01*
X17077356Y-9658356D02*
X17077356Y-9587644D01*
X17006644Y-9587644D01*
X17006644Y-9658356D01*
X17077356Y-9658356D01*
X17077356Y-9912356D02*
X17077356Y-9841644D01*
X17006644Y-9841644D01*
X17006644Y-9912356D01*
X17077356Y-9912356D01*
X17077356Y-10166356D02*
X17077356Y-10095644D01*
X17006644Y-10095644D01*
X17006644Y-10166356D01*
X17077356Y-10166356D01*
X17077356Y-10420356D02*
X17077356Y-10349644D01*
X17006644Y-10349644D01*
X17006644Y-10420356D01*
X17077356Y-10420356D01*
X17077356Y-10674356D02*
X17077356Y-10603644D01*
X17006644Y-10603644D01*
X17006644Y-10674356D01*
X17077356Y-10674356D01*
X17077356Y-10928356D02*
X17077356Y-10857644D01*
X17006644Y-10857644D01*
X17006644Y-10928356D01*
X17077356Y-10928356D01*
X17077356Y-11182356D02*
X17077356Y-11111644D01*
X17006644Y-11111644D01*
X17006644Y-11182356D01*
X17077356Y-11182356D01*
X17077356Y-11436356D02*
X17077356Y-11365644D01*
X17006644Y-11365644D01*
X17006644Y-11436356D01*
X17077356Y-11436356D01*
X17077356Y-11690356D02*
X17077356Y-11619644D01*
X17006644Y-11619644D01*
X17006644Y-11690356D01*
X17077356Y-11690356D01*
X17077356Y-11944356D02*
X17077356Y-11873644D01*
X17006644Y-11873644D01*
X17006644Y-11944356D01*
X17077356Y-11944356D01*
X17077356Y-12198356D02*
X17077356Y-12127644D01*
X17006644Y-12127644D01*
X17006644Y-12198356D01*
X17077356Y-12198356D01*
X17331356Y-7372356D02*
X17331356Y-7301644D01*
X17260644Y-7301644D01*
X17260644Y-7372356D01*
X17331356Y-7372356D01*
X17331356Y-7626356D02*
X17331356Y-7555644D01*
X17260644Y-7555644D01*
X17260644Y-7626356D01*
X17331356Y-7626356D01*
X17331356Y-7880356D02*
X17331356Y-7809644D01*
X17260644Y-7809644D01*
X17260644Y-7880356D01*
X17331356Y-7880356D01*
X17331356Y-8134356D02*
X17331356Y-8063644D01*
X17260644Y-8063644D01*
X17260644Y-8134356D01*
X17331356Y-8134356D01*
X17331356Y-8388356D02*
X17331356Y-8317644D01*
X17260644Y-8317644D01*
X17260644Y-8388356D01*
X17331356Y-8388356D01*
X17331356Y-8642356D02*
X17331356Y-8571644D01*
X17260644Y-8571644D01*
X17260644Y-8642356D01*
X17331356Y-8642356D01*
X17331356Y-8896356D02*
X17331356Y-8825644D01*
X17260644Y-8825644D01*
X17260644Y-8896356D01*
X17331356Y-8896356D01*
X17331356Y-9150356D02*
X17331356Y-9079644D01*
X17260644Y-9079644D01*
X17260644Y-9150356D01*
X17331356Y-9150356D01*
X17331356Y-9404356D02*
X17331356Y-9333644D01*
X17260644Y-9333644D01*
X17260644Y-9404356D01*
X17331356Y-9404356D01*
X17331356Y-9658356D02*
X17331356Y-9587644D01*
X17260644Y-9587644D01*
X17260644Y-9658356D01*
X17331356Y-9658356D01*
X17331356Y-9912356D02*
X17331356Y-9841644D01*
X17260644Y-9841644D01*
X17260644Y-9912356D01*
X17331356Y-9912356D01*
X17331356Y-10166356D02*
X17331356Y-10095644D01*
X17260644Y-10095644D01*
X17260644Y-10166356D01*
X17331356Y-10166356D01*
X17331356Y-10420356D02*
X17331356Y-10349644D01*
X17260644Y-10349644D01*
X17260644Y-10420356D01*
X17331356Y-10420356D01*
X17331356Y-10674356D02*
X17331356Y-10603644D01*
X17260644Y-10603644D01*
X17260644Y-10674356D01*
X17331356Y-10674356D01*
X17331356Y-10928356D02*
X17331356Y-10857644D01*
X17260644Y-10857644D01*
X17260644Y-10928356D01*
X17331356Y-10928356D01*
X17331356Y-11182356D02*
X17331356Y-11111644D01*
X17260644Y-11111644D01*
X17260644Y-11182356D01*
X17331356Y-11182356D01*
X17331356Y-11436356D02*
X17331356Y-11365644D01*
X17260644Y-11365644D01*
X17260644Y-11436356D01*
X17331356Y-11436356D01*
X17331356Y-11690356D02*
X17331356Y-11619644D01*
X17260644Y-11619644D01*
X17260644Y-11690356D01*
X17331356Y-11690356D01*
X17331356Y-11944356D02*
X17331356Y-11873644D01*
X17260644Y-11873644D01*
X17260644Y-11944356D01*
X17331356Y-11944356D01*
X17331356Y-12198356D02*
X17331356Y-12127644D01*
X17260644Y-12127644D01*
X17260644Y-12198356D01*
X17331356Y-12198356D01*
D16*
X12600000Y-6060000D02*
X12760000Y-5900000D01*
X12600000Y-5740000D01*
X12440000Y-5900000D01*
X12600000Y-6060000D01*
X12600000Y-13760000D02*
X12760000Y-13600000D01*
X12600000Y-13440000D01*
X12440000Y-13600000D01*
X12600000Y-13760000D01*
X17300000Y-6060000D02*
X17460000Y-5900000D01*
X17300000Y-5740000D01*
X17140000Y-5900000D01*
X17300000Y-6060000D01*
X17300000Y-13760000D02*
X17460000Y-13600000D01*
X17300000Y-13440000D01*
X17140000Y-13600000D01*
X17300000Y-13760000D01*
D11*
X12452619Y-14315476D02*
X12452619Y-14115476D01*
X12500238Y-14115476D01*
X12528809Y-14125000D01*
X12547857Y-14144048D01*
X12557381Y-14163095D01*
X12566905Y-14201190D01*
X12566905Y-14229762D01*
X12557381Y-14267857D01*
X12547857Y-14286905D01*
X12528809Y-14305952D01*
X12500238Y-14315476D01*
X12452619Y-14315476D01*
X12652619Y-14315476D02*
X12652619Y-14182143D01*
X12652619Y-14220238D02*
X12662143Y-14201190D01*
X12671667Y-14191667D01*
X12690714Y-14182143D01*
X12709762Y-14182143D01*
X12776428Y-14315476D02*
X12776428Y-14182143D01*
X12776428Y-14115476D02*
X12766905Y-14125000D01*
X12776428Y-14134524D01*
X12785952Y-14125000D01*
X12776428Y-14115476D01*
X12776428Y-14134524D01*
X12900238Y-14315476D02*
X12881190Y-14305952D01*
X12871667Y-14286905D01*
X12871667Y-14115476D01*
X13005000Y-14315476D02*
X12985952Y-14305952D01*
X12976428Y-14286905D01*
X12976428Y-14115476D01*
X13233571Y-14315476D02*
X13233571Y-14115476D01*
X13300238Y-14258333D01*
X13366905Y-14115476D01*
X13366905Y-14315476D01*
X13547857Y-14315476D02*
X13547857Y-14210714D01*
X13538333Y-14191667D01*
X13519286Y-14182143D01*
X13481190Y-14182143D01*
X13462143Y-14191667D01*
X13547857Y-14305952D02*
X13528809Y-14315476D01*
X13481190Y-14315476D01*
X13462143Y-14305952D01*
X13452619Y-14286905D01*
X13452619Y-14267857D01*
X13462143Y-14248809D01*
X13481190Y-14239286D01*
X13528809Y-14239286D01*
X13547857Y-14229762D01*
X13643095Y-14182143D02*
X13643095Y-14382143D01*
X13643095Y-14191667D02*
X13662143Y-14182143D01*
X13700238Y-14182143D01*
X13719286Y-14191667D01*
X13728809Y-14201190D01*
X13738333Y-14220238D01*
X13738333Y-14277381D01*
X13728809Y-14296428D01*
X13719286Y-14305952D01*
X13700238Y-14315476D01*
X13662143Y-14315476D01*
X13643095Y-14305952D01*
X13824048Y-14296428D02*
X13833571Y-14305952D01*
X13824048Y-14315476D01*
X13814524Y-14305952D01*
X13824048Y-14296428D01*
X13824048Y-14315476D01*
X13824048Y-14191667D02*
X13833571Y-14201190D01*
X13824048Y-14210714D01*
X13814524Y-14201190D01*
X13824048Y-14191667D01*
X13824048Y-14210714D01*
D12*
X12175000Y-14635000D02*
X12195000Y-14655000D01*
X12195000Y-14635000D02*
X12175000Y-14655000D01*
D11*
X12490714Y-14535476D02*
X12509762Y-14535476D01*
X12528809Y-14545000D01*
X12538333Y-14554524D01*
X12547857Y-14573571D01*
X12557381Y-14611667D01*
X12557381Y-14659286D01*
X12547857Y-14697381D01*
X12538333Y-14716428D01*
X12528809Y-14725952D01*
X12509762Y-14735476D01*
X12490714Y-14735476D01*
X12471667Y-14725952D01*
X12462143Y-14716428D01*
X12452619Y-14697381D01*
X12443095Y-14659286D01*
X12443095Y-14611667D01*
X12452619Y-14573571D01*
X12462143Y-14554524D01*
X12471667Y-14545000D01*
X12490714Y-14535476D01*
X12643095Y-14716428D02*
X12652619Y-14725952D01*
X12643095Y-14735476D01*
X12633571Y-14725952D01*
X12643095Y-14716428D01*
X12643095Y-14735476D01*
X12728809Y-14554524D02*
X12738333Y-14545000D01*
X12757381Y-14535476D01*
X12805000Y-14535476D01*
X12824048Y-14545000D01*
X12833571Y-14554524D01*
X12843095Y-14573571D01*
X12843095Y-14592619D01*
X12833571Y-14621190D01*
X12719286Y-14735476D01*
X12843095Y-14735476D01*
X12966905Y-14535476D02*
X12985952Y-14535476D01*
X13005000Y-14545000D01*
X13014524Y-14554524D01*
X13024048Y-14573571D01*
X13033571Y-14611667D01*
X13033571Y-14659286D01*
X13024048Y-14697381D01*
X13014524Y-14716428D01*
X13005000Y-14725952D01*
X12985952Y-14735476D01*
X12966905Y-14735476D01*
X12947857Y-14725952D01*
X12938333Y-14716428D01*
X12928809Y-14697381D01*
X12919286Y-14659286D01*
X12919286Y-14611667D01*
X12928809Y-14573571D01*
X12938333Y-14554524D01*
X12947857Y-14545000D01*
X12966905Y-14535476D01*
X13157381Y-14535476D02*
X13176428Y-14535476D01*
X13195476Y-14545000D01*
X13205000Y-14554524D01*
X13214524Y-14573571D01*
X13224048Y-14611667D01*
X13224048Y-14659286D01*
X13214524Y-14697381D01*
X13205000Y-14716428D01*
X13195476Y-14725952D01*
X13176428Y-14735476D01*
X13157381Y-14735476D01*
X13138333Y-14725952D01*
X13128809Y-14716428D01*
X13119286Y-14697381D01*
X13109762Y-14659286D01*
X13109762Y-14611667D01*
X13119286Y-14573571D01*
X13128809Y-14554524D01*
X13138333Y-14545000D01*
X13157381Y-14535476D01*
X13309762Y-14735476D02*
X13309762Y-14602143D01*
X13309762Y-14621190D02*
X13319286Y-14611667D01*
X13338333Y-14602143D01*
X13366905Y-14602143D01*
X13385952Y-14611667D01*
X13395476Y-14630714D01*
X13395476Y-14735476D01*
X13395476Y-14630714D02*
X13405000Y-14611667D01*
X13424048Y-14602143D01*
X13452619Y-14602143D01*
X13471667Y-14611667D01*
X13481190Y-14630714D01*
X13481190Y-14735476D01*
X13576428Y-14735476D02*
X13576428Y-14602143D01*
X13576428Y-14621190D02*
X13585952Y-14611667D01*
X13605000Y-14602143D01*
X13633571Y-14602143D01*
X13652619Y-14611667D01*
X13662143Y-14630714D01*
X13662143Y-14735476D01*
X13662143Y-14630714D02*
X13671667Y-14611667D01*
X13690714Y-14602143D01*
X13719286Y-14602143D01*
X13738333Y-14611667D01*
X13747857Y-14630714D01*
X13747857Y-14735476D01*
X14138333Y-14525952D02*
X13966905Y-14783095D01*
X14395476Y-14535476D02*
X14414524Y-14535476D01*
X14433571Y-14545000D01*
X14443095Y-14554524D01*
X14452619Y-14573571D01*
X14462143Y-14611667D01*
X14462143Y-14659286D01*
X14452619Y-14697381D01*
X14443095Y-14716428D01*
X14433571Y-14725952D01*
X14414524Y-14735476D01*
X14395476Y-14735476D01*
X14376428Y-14725952D01*
X14366905Y-14716428D01*
X14357381Y-14697381D01*
X14347857Y-14659286D01*
X14347857Y-14611667D01*
X14357381Y-14573571D01*
X14366905Y-14554524D01*
X14376428Y-14545000D01*
X14395476Y-14535476D01*
X14547857Y-14716428D02*
X14557381Y-14725952D01*
X14547857Y-14735476D01*
X14538333Y-14725952D01*
X14547857Y-14716428D01*
X14547857Y-14735476D01*
X14681190Y-14535476D02*
X14700238Y-14535476D01*
X14719286Y-14545000D01*
X14728809Y-14554524D01*
X14738333Y-14573571D01*
X14747857Y-14611667D01*
X14747857Y-14659286D01*
X14738333Y-14697381D01*
X14728809Y-14716428D01*
X14719286Y-14725952D01*
X14700238Y-14735476D01*
X14681190Y-14735476D01*
X14662143Y-14725952D01*
X14652619Y-14716428D01*
X14643095Y-14697381D01*
X14633571Y-14659286D01*
X14633571Y-14611667D01*
X14643095Y-14573571D01*
X14652619Y-14554524D01*
X14662143Y-14545000D01*
X14681190Y-14535476D01*
X14871667Y-14535476D02*
X14890714Y-14535476D01*
X14909762Y-14545000D01*
X14919286Y-14554524D01*
X14928809Y-14573571D01*
X14938333Y-14611667D01*
X14938333Y-14659286D01*
X14928809Y-14697381D01*
X14919286Y-14716428D01*
X14909762Y-14725952D01*
X14890714Y-14735476D01*
X14871667Y-14735476D01*
X14852619Y-14725952D01*
X14843095Y-14716428D01*
X14833571Y-14697381D01*
X14824048Y-14659286D01*
X14824048Y-14611667D01*
X14833571Y-14573571D01*
X14843095Y-14554524D01*
X14852619Y-14545000D01*
X14871667Y-14535476D01*
X15005000Y-14535476D02*
X15138333Y-14535476D01*
X15052619Y-14735476D01*
X15224048Y-14735476D02*
X15262143Y-14735476D01*
X15281190Y-14725952D01*
X15290714Y-14716428D01*
X15309762Y-14687857D01*
X15319286Y-14649762D01*
X15319286Y-14573571D01*
X15309762Y-14554524D01*
X15300238Y-14545000D01*
X15281190Y-14535476D01*
X15243095Y-14535476D01*
X15224048Y-14545000D01*
X15214524Y-14554524D01*
X15205000Y-14573571D01*
X15205000Y-14621190D01*
X15214524Y-14640238D01*
X15224048Y-14649762D01*
X15243095Y-14659286D01*
X15281190Y-14659286D01*
X15300238Y-14649762D01*
X15309762Y-14640238D01*
X15319286Y-14621190D01*
X15395476Y-14535476D02*
X15395476Y-14573571D01*
X15471667Y-14535476D02*
X15471667Y-14573571D01*
X15766905Y-14811667D02*
X15757381Y-14802143D01*
X15738333Y-14773571D01*
X15728809Y-14754524D01*
X15719286Y-14725952D01*
X15709762Y-14678333D01*
X15709762Y-14640238D01*
X15719286Y-14592619D01*
X15728809Y-14564048D01*
X15738333Y-14545000D01*
X15757381Y-14516428D01*
X15766905Y-14506905D01*
X15928809Y-14535476D02*
X15890714Y-14535476D01*
X15871667Y-14545000D01*
X15862143Y-14554524D01*
X15843095Y-14583095D01*
X15833571Y-14621190D01*
X15833571Y-14697381D01*
X15843095Y-14716428D01*
X15852619Y-14725952D01*
X15871667Y-14735476D01*
X15909762Y-14735476D01*
X15928809Y-14725952D01*
X15938333Y-14716428D01*
X15947857Y-14697381D01*
X15947857Y-14649762D01*
X15938333Y-14630714D01*
X15928809Y-14621190D01*
X15909762Y-14611667D01*
X15871667Y-14611667D01*
X15852619Y-14621190D01*
X15843095Y-14630714D01*
X15833571Y-14649762D01*
X16185952Y-14735476D02*
X16185952Y-14535476D01*
X16271667Y-14735476D02*
X16271667Y-14630714D01*
X16262143Y-14611667D01*
X16243095Y-14602143D01*
X16214524Y-14602143D01*
X16195476Y-14611667D01*
X16185952Y-14621190D01*
X16395476Y-14735476D02*
X16376428Y-14725952D01*
X16366905Y-14716428D01*
X16357381Y-14697381D01*
X16357381Y-14640238D01*
X16366905Y-14621190D01*
X16376428Y-14611667D01*
X16395476Y-14602143D01*
X16424048Y-14602143D01*
X16443095Y-14611667D01*
X16452619Y-14621190D01*
X16462143Y-14640238D01*
X16462143Y-14697381D01*
X16452619Y-14716428D01*
X16443095Y-14725952D01*
X16424048Y-14735476D01*
X16395476Y-14735476D01*
X16576428Y-14735476D02*
X16557381Y-14725952D01*
X16547857Y-14706905D01*
X16547857Y-14535476D01*
X16728809Y-14725952D02*
X16709762Y-14735476D01*
X16671667Y-14735476D01*
X16652619Y-14725952D01*
X16643095Y-14706905D01*
X16643095Y-14630714D01*
X16652619Y-14611667D01*
X16671667Y-14602143D01*
X16709762Y-14602143D01*
X16728809Y-14611667D01*
X16738333Y-14630714D01*
X16738333Y-14649762D01*
X16643095Y-14668809D01*
X16814524Y-14725952D02*
X16833571Y-14735476D01*
X16871667Y-14735476D01*
X16890714Y-14725952D01*
X16900238Y-14706905D01*
X16900238Y-14697381D01*
X16890714Y-14678333D01*
X16871667Y-14668809D01*
X16843095Y-14668809D01*
X16824048Y-14659286D01*
X16814524Y-14640238D01*
X16814524Y-14630714D01*
X16824048Y-14611667D01*
X16843095Y-14602143D01*
X16871667Y-14602143D01*
X16890714Y-14611667D01*
X16966905Y-14811667D02*
X16976429Y-14802143D01*
X16995476Y-14773571D01*
X17005000Y-14754524D01*
X17014524Y-14725952D01*
X17024048Y-14678333D01*
X17024048Y-14640238D01*
X17014524Y-14592619D01*
X17005000Y-14564048D01*
X16995476Y-14545000D01*
X16976429Y-14516428D01*
X16966905Y-14506905D01*
D13*
X12195000Y-14909000D02*
G75*
G03*
X12195000Y-14909000I-20000J0D01*
G01*
D11*
X12490714Y-14799476D02*
X12509762Y-14799476D01*
X12528809Y-14809000D01*
X12538333Y-14818524D01*
X12547857Y-14837571D01*
X12557381Y-14875667D01*
X12557381Y-14923286D01*
X12547857Y-14961381D01*
X12538333Y-14980428D01*
X12528809Y-14989952D01*
X12509762Y-14999476D01*
X12490714Y-14999476D01*
X12471667Y-14989952D01*
X12462143Y-14980428D01*
X12452619Y-14961381D01*
X12443095Y-14923286D01*
X12443095Y-14875667D01*
X12452619Y-14837571D01*
X12462143Y-14818524D01*
X12471667Y-14809000D01*
X12490714Y-14799476D01*
X12643095Y-14980428D02*
X12652619Y-14989952D01*
X12643095Y-14999476D01*
X12633571Y-14989952D01*
X12643095Y-14980428D01*
X12643095Y-14999476D01*
X12824048Y-14866143D02*
X12824048Y-14999476D01*
X12776428Y-14789952D02*
X12728809Y-14932809D01*
X12852619Y-14932809D01*
X12966905Y-14799476D02*
X12985952Y-14799476D01*
X13005000Y-14809000D01*
X13014524Y-14818524D01*
X13024048Y-14837571D01*
X13033571Y-14875667D01*
X13033571Y-14923286D01*
X13024048Y-14961381D01*
X13014524Y-14980428D01*
X13005000Y-14989952D01*
X12985952Y-14999476D01*
X12966905Y-14999476D01*
X12947857Y-14989952D01*
X12938333Y-14980428D01*
X12928809Y-14961381D01*
X12919286Y-14923286D01*
X12919286Y-14875667D01*
X12928809Y-14837571D01*
X12938333Y-14818524D01*
X12947857Y-14809000D01*
X12966905Y-14799476D01*
X13157381Y-14799476D02*
X13176428Y-14799476D01*
X13195476Y-14809000D01*
X13205000Y-14818524D01*
X13214524Y-14837571D01*
X13224048Y-14875667D01*
X13224048Y-14923286D01*
X13214524Y-14961381D01*
X13205000Y-14980428D01*
X13195476Y-14989952D01*
X13176428Y-14999476D01*
X13157381Y-14999476D01*
X13138333Y-14989952D01*
X13128809Y-14980428D01*
X13119286Y-14961381D01*
X13109762Y-14923286D01*
X13109762Y-14875667D01*
X13119286Y-14837571D01*
X13128809Y-14818524D01*
X13138333Y-14809000D01*
X13157381Y-14799476D01*
X13309762Y-14999476D02*
X13309762Y-14866143D01*
X13309762Y-14885190D02*
X13319286Y-14875667D01*
X13338333Y-14866143D01*
X13366905Y-14866143D01*
X13385952Y-14875667D01*
X13395476Y-14894714D01*
X13395476Y-14999476D01*
X13395476Y-14894714D02*
X13405000Y-14875667D01*
X13424048Y-14866143D01*
X13452619Y-14866143D01*
X13471667Y-14875667D01*
X13481190Y-14894714D01*
X13481190Y-14999476D01*
X13576428Y-14999476D02*
X13576428Y-14866143D01*
X13576428Y-14885190D02*
X13585952Y-14875667D01*
X13605000Y-14866143D01*
X13633571Y-14866143D01*
X13652619Y-14875667D01*
X13662143Y-14894714D01*
X13662143Y-14999476D01*
X13662143Y-14894714D02*
X13671667Y-14875667D01*
X13690714Y-14866143D01*
X13719286Y-14866143D01*
X13738333Y-14875667D01*
X13747857Y-14894714D01*
X13747857Y-14999476D01*
X14138333Y-14789952D02*
X13966905Y-15047095D01*
X14395476Y-14799476D02*
X14414524Y-14799476D01*
X14433571Y-14809000D01*
X14443095Y-14818524D01*
X14452619Y-14837571D01*
X14462143Y-14875667D01*
X14462143Y-14923286D01*
X14452619Y-14961381D01*
X14443095Y-14980428D01*
X14433571Y-14989952D01*
X14414524Y-14999476D01*
X14395476Y-14999476D01*
X14376428Y-14989952D01*
X14366905Y-14980428D01*
X14357381Y-14961381D01*
X14347857Y-14923286D01*
X14347857Y-14875667D01*
X14357381Y-14837571D01*
X14366905Y-14818524D01*
X14376428Y-14809000D01*
X14395476Y-14799476D01*
X14547857Y-14980428D02*
X14557381Y-14989952D01*
X14547857Y-14999476D01*
X14538333Y-14989952D01*
X14547857Y-14980428D01*
X14547857Y-14999476D01*
X14681190Y-14799476D02*
X14700238Y-14799476D01*
X14719286Y-14809000D01*
X14728809Y-14818524D01*
X14738333Y-14837571D01*
X14747857Y-14875667D01*
X14747857Y-14923286D01*
X14738333Y-14961381D01*
X14728809Y-14980428D01*
X14719286Y-14989952D01*
X14700238Y-14999476D01*
X14681190Y-14999476D01*
X14662143Y-14989952D01*
X14652619Y-14980428D01*
X14643095Y-14961381D01*
X14633571Y-14923286D01*
X14633571Y-14875667D01*
X14643095Y-14837571D01*
X14652619Y-14818524D01*
X14662143Y-14809000D01*
X14681190Y-14799476D01*
X14938333Y-14999476D02*
X14824048Y-14999476D01*
X14881190Y-14999476D02*
X14881190Y-14799476D01*
X14862143Y-14828048D01*
X14843095Y-14847095D01*
X14824048Y-14856619D01*
X15119286Y-14799476D02*
X15024048Y-14799476D01*
X15014524Y-14894714D01*
X15024048Y-14885190D01*
X15043095Y-14875667D01*
X15090714Y-14875667D01*
X15109762Y-14885190D01*
X15119286Y-14894714D01*
X15128809Y-14913762D01*
X15128809Y-14961381D01*
X15119286Y-14980428D01*
X15109762Y-14989952D01*
X15090714Y-14999476D01*
X15043095Y-14999476D01*
X15024048Y-14989952D01*
X15014524Y-14980428D01*
X15195476Y-14799476D02*
X15328809Y-14799476D01*
X15243095Y-14999476D01*
X15395476Y-14799476D02*
X15395476Y-14837571D01*
X15471667Y-14799476D02*
X15471667Y-14837571D01*
X15766905Y-15075667D02*
X15757381Y-15066143D01*
X15738333Y-15037571D01*
X15728809Y-15018524D01*
X15719286Y-14989952D01*
X15709762Y-14942333D01*
X15709762Y-14904238D01*
X15719286Y-14856619D01*
X15728809Y-14828048D01*
X15738333Y-14809000D01*
X15757381Y-14780428D01*
X15766905Y-14770905D01*
X15824048Y-14799476D02*
X15957381Y-14799476D01*
X15871667Y-14999476D01*
X16119286Y-14866143D02*
X16119286Y-14999476D01*
X16071667Y-14789952D02*
X16024048Y-14932809D01*
X16147857Y-14932809D01*
X16376428Y-14999476D02*
X16376428Y-14799476D01*
X16462143Y-14999476D02*
X16462143Y-14894714D01*
X16452619Y-14875667D01*
X16433571Y-14866143D01*
X16405000Y-14866143D01*
X16385952Y-14875667D01*
X16376428Y-14885190D01*
X16585952Y-14999476D02*
X16566905Y-14989952D01*
X16557381Y-14980428D01*
X16547857Y-14961381D01*
X16547857Y-14904238D01*
X16557381Y-14885190D01*
X16566905Y-14875667D01*
X16585952Y-14866143D01*
X16614524Y-14866143D01*
X16633571Y-14875667D01*
X16643095Y-14885190D01*
X16652619Y-14904238D01*
X16652619Y-14961381D01*
X16643095Y-14980428D01*
X16633571Y-14989952D01*
X16614524Y-14999476D01*
X16585952Y-14999476D01*
X16766905Y-14999476D02*
X16747857Y-14989952D01*
X16738333Y-14970905D01*
X16738333Y-14799476D01*
X16919286Y-14989952D02*
X16900238Y-14999476D01*
X16862143Y-14999476D01*
X16843095Y-14989952D01*
X16833571Y-14970905D01*
X16833571Y-14894714D01*
X16843095Y-14875667D01*
X16862143Y-14866143D01*
X16900238Y-14866143D01*
X16919286Y-14875667D01*
X16928810Y-14894714D01*
X16928810Y-14913762D01*
X16833571Y-14932809D01*
X17005000Y-14989952D02*
X17024048Y-14999476D01*
X17062143Y-14999476D01*
X17081190Y-14989952D01*
X17090714Y-14970905D01*
X17090714Y-14961381D01*
X17081190Y-14942333D01*
X17062143Y-14932809D01*
X17033571Y-14932809D01*
X17014524Y-14923286D01*
X17005000Y-14904238D01*
X17005000Y-14894714D01*
X17014524Y-14875667D01*
X17033571Y-14866143D01*
X17062143Y-14866143D01*
X17081190Y-14875667D01*
X17157381Y-15075667D02*
X17166905Y-15066143D01*
X17185952Y-15037571D01*
X17195476Y-15018524D01*
X17205000Y-14989952D01*
X17214524Y-14942333D01*
X17214524Y-14904238D01*
X17205000Y-14856619D01*
X17195476Y-14828048D01*
X17185952Y-14809000D01*
X17166905Y-14780428D01*
X17157381Y-14770905D01*
D14*
X12165000Y-15143000D02*
X12165000Y-15203000D01*
X12135000Y-15173000D02*
X12195000Y-15173000D01*
D11*
X12490714Y-15063476D02*
X12509762Y-15063476D01*
X12528809Y-15073000D01*
X12538333Y-15082524D01*
X12547857Y-15101571D01*
X12557381Y-15139667D01*
X12557381Y-15187286D01*
X12547857Y-15225381D01*
X12538333Y-15244428D01*
X12528809Y-15253952D01*
X12509762Y-15263476D01*
X12490714Y-15263476D01*
X12471667Y-15253952D01*
X12462143Y-15244428D01*
X12452619Y-15225381D01*
X12443095Y-15187286D01*
X12443095Y-15139667D01*
X12452619Y-15101571D01*
X12462143Y-15082524D01*
X12471667Y-15073000D01*
X12490714Y-15063476D01*
X12643095Y-15244428D02*
X12652619Y-15253952D01*
X12643095Y-15263476D01*
X12633571Y-15253952D01*
X12643095Y-15244428D01*
X12643095Y-15263476D01*
X12824048Y-15063476D02*
X12785952Y-15063476D01*
X12766905Y-15073000D01*
X12757381Y-15082524D01*
X12738333Y-15111095D01*
X12728809Y-15149190D01*
X12728809Y-15225381D01*
X12738333Y-15244428D01*
X12747857Y-15253952D01*
X12766905Y-15263476D01*
X12805000Y-15263476D01*
X12824048Y-15253952D01*
X12833571Y-15244428D01*
X12843095Y-15225381D01*
X12843095Y-15177762D01*
X12833571Y-15158714D01*
X12824048Y-15149190D01*
X12805000Y-15139667D01*
X12766905Y-15139667D01*
X12747857Y-15149190D01*
X12738333Y-15158714D01*
X12728809Y-15177762D01*
X12966905Y-15063476D02*
X12985952Y-15063476D01*
X13005000Y-15073000D01*
X13014524Y-15082524D01*
X13024048Y-15101571D01*
X13033571Y-15139667D01*
X13033571Y-15187286D01*
X13024048Y-15225381D01*
X13014524Y-15244428D01*
X13005000Y-15253952D01*
X12985952Y-15263476D01*
X12966905Y-15263476D01*
X12947857Y-15253952D01*
X12938333Y-15244428D01*
X12928809Y-15225381D01*
X12919286Y-15187286D01*
X12919286Y-15139667D01*
X12928809Y-15101571D01*
X12938333Y-15082524D01*
X12947857Y-15073000D01*
X12966905Y-15063476D01*
X13157381Y-15063476D02*
X13176428Y-15063476D01*
X13195476Y-15073000D01*
X13205000Y-15082524D01*
X13214524Y-15101571D01*
X13224048Y-15139667D01*
X13224048Y-15187286D01*
X13214524Y-15225381D01*
X13205000Y-15244428D01*
X13195476Y-15253952D01*
X13176428Y-15263476D01*
X13157381Y-15263476D01*
X13138333Y-15253952D01*
X13128809Y-15244428D01*
X13119286Y-15225381D01*
X13109762Y-15187286D01*
X13109762Y-15139667D01*
X13119286Y-15101571D01*
X13128809Y-15082524D01*
X13138333Y-15073000D01*
X13157381Y-15063476D01*
X13309762Y-15263476D02*
X13309762Y-15130143D01*
X13309762Y-15149190D02*
X13319286Y-15139667D01*
X13338333Y-15130143D01*
X13366905Y-15130143D01*
X13385952Y-15139667D01*
X13395476Y-15158714D01*
X13395476Y-15263476D01*
X13395476Y-15158714D02*
X13405000Y-15139667D01*
X13424048Y-15130143D01*
X13452619Y-15130143D01*
X13471667Y-15139667D01*
X13481190Y-15158714D01*
X13481190Y-15263476D01*
X13576428Y-15263476D02*
X13576428Y-15130143D01*
X13576428Y-15149190D02*
X13585952Y-15139667D01*
X13605000Y-15130143D01*
X13633571Y-15130143D01*
X13652619Y-15139667D01*
X13662143Y-15158714D01*
X13662143Y-15263476D01*
X13662143Y-15158714D02*
X13671667Y-15139667D01*
X13690714Y-15130143D01*
X13719286Y-15130143D01*
X13738333Y-15139667D01*
X13747857Y-15158714D01*
X13747857Y-15263476D01*
X14138333Y-15053952D02*
X13966905Y-15311095D01*
X14395476Y-15063476D02*
X14414524Y-15063476D01*
X14433571Y-15073000D01*
X14443095Y-15082524D01*
X14452619Y-15101571D01*
X14462143Y-15139667D01*
X14462143Y-15187286D01*
X14452619Y-15225381D01*
X14443095Y-15244428D01*
X14433571Y-15253952D01*
X14414524Y-15263476D01*
X14395476Y-15263476D01*
X14376428Y-15253952D01*
X14366905Y-15244428D01*
X14357381Y-15225381D01*
X14347857Y-15187286D01*
X14347857Y-15139667D01*
X14357381Y-15101571D01*
X14366905Y-15082524D01*
X14376428Y-15073000D01*
X14395476Y-15063476D01*
X14547857Y-15244428D02*
X14557381Y-15253952D01*
X14547857Y-15263476D01*
X14538333Y-15253952D01*
X14547857Y-15244428D01*
X14547857Y-15263476D01*
X14681190Y-15063476D02*
X14700238Y-15063476D01*
X14719286Y-15073000D01*
X14728809Y-15082524D01*
X14738333Y-15101571D01*
X14747857Y-15139667D01*
X14747857Y-15187286D01*
X14738333Y-15225381D01*
X14728809Y-15244428D01*
X14719286Y-15253952D01*
X14700238Y-15263476D01*
X14681190Y-15263476D01*
X14662143Y-15253952D01*
X14652619Y-15244428D01*
X14643095Y-15225381D01*
X14633571Y-15187286D01*
X14633571Y-15139667D01*
X14643095Y-15101571D01*
X14652619Y-15082524D01*
X14662143Y-15073000D01*
X14681190Y-15063476D01*
X14824048Y-15082524D02*
X14833571Y-15073000D01*
X14852619Y-15063476D01*
X14900238Y-15063476D01*
X14919286Y-15073000D01*
X14928809Y-15082524D01*
X14938333Y-15101571D01*
X14938333Y-15120619D01*
X14928809Y-15149190D01*
X14814524Y-15263476D01*
X14938333Y-15263476D01*
X15005000Y-15063476D02*
X15128809Y-15063476D01*
X15062143Y-15139667D01*
X15090714Y-15139667D01*
X15109762Y-15149190D01*
X15119286Y-15158714D01*
X15128809Y-15177762D01*
X15128809Y-15225381D01*
X15119286Y-15244428D01*
X15109762Y-15253952D01*
X15090714Y-15263476D01*
X15033571Y-15263476D01*
X15014524Y-15253952D01*
X15005000Y-15244428D01*
X15300238Y-15063476D02*
X15262143Y-15063476D01*
X15243095Y-15073000D01*
X15233571Y-15082524D01*
X15214524Y-15111095D01*
X15205000Y-15149190D01*
X15205000Y-15225381D01*
X15214524Y-15244428D01*
X15224048Y-15253952D01*
X15243095Y-15263476D01*
X15281190Y-15263476D01*
X15300238Y-15253952D01*
X15309762Y-15244428D01*
X15319286Y-15225381D01*
X15319286Y-15177762D01*
X15309762Y-15158714D01*
X15300238Y-15149190D01*
X15281190Y-15139667D01*
X15243095Y-15139667D01*
X15224048Y-15149190D01*
X15214524Y-15158714D01*
X15205000Y-15177762D01*
X15395476Y-15063476D02*
X15395476Y-15101571D01*
X15471667Y-15063476D02*
X15471667Y-15101571D01*
X15766905Y-15339667D02*
X15757381Y-15330143D01*
X15738333Y-15301571D01*
X15728809Y-15282524D01*
X15719286Y-15253952D01*
X15709762Y-15206333D01*
X15709762Y-15168238D01*
X15719286Y-15120619D01*
X15728809Y-15092048D01*
X15738333Y-15073000D01*
X15757381Y-15044428D01*
X15766905Y-15034905D01*
X15881190Y-15063476D02*
X15900238Y-15063476D01*
X15919286Y-15073000D01*
X15928809Y-15082524D01*
X15938333Y-15101571D01*
X15947857Y-15139667D01*
X15947857Y-15187286D01*
X15938333Y-15225381D01*
X15928809Y-15244428D01*
X15919286Y-15253952D01*
X15900238Y-15263476D01*
X15881190Y-15263476D01*
X15862143Y-15253952D01*
X15852619Y-15244428D01*
X15843095Y-15225381D01*
X15833571Y-15187286D01*
X15833571Y-15139667D01*
X15843095Y-15101571D01*
X15852619Y-15082524D01*
X15862143Y-15073000D01*
X15881190Y-15063476D01*
X16185952Y-15263476D02*
X16185952Y-15063476D01*
X16271667Y-15263476D02*
X16271667Y-15158714D01*
X16262143Y-15139667D01*
X16243095Y-15130143D01*
X16214524Y-15130143D01*
X16195476Y-15139667D01*
X16185952Y-15149190D01*
X16395476Y-15263476D02*
X16376428Y-15253952D01*
X16366905Y-15244428D01*
X16357381Y-15225381D01*
X16357381Y-15168238D01*
X16366905Y-15149190D01*
X16376428Y-15139667D01*
X16395476Y-15130143D01*
X16424048Y-15130143D01*
X16443095Y-15139667D01*
X16452619Y-15149190D01*
X16462143Y-15168238D01*
X16462143Y-15225381D01*
X16452619Y-15244428D01*
X16443095Y-15253952D01*
X16424048Y-15263476D01*
X16395476Y-15263476D01*
X16576428Y-15263476D02*
X16557381Y-15253952D01*
X16547857Y-15234905D01*
X16547857Y-15063476D01*
X16728809Y-15253952D02*
X16709762Y-15263476D01*
X16671667Y-15263476D01*
X16652619Y-15253952D01*
X16643095Y-15234905D01*
X16643095Y-15158714D01*
X16652619Y-15139667D01*
X16671667Y-15130143D01*
X16709762Y-15130143D01*
X16728809Y-15139667D01*
X16738333Y-15158714D01*
X16738333Y-15177762D01*
X16643095Y-15196809D01*
X16814524Y-15253952D02*
X16833571Y-15263476D01*
X16871667Y-15263476D01*
X16890714Y-15253952D01*
X16900238Y-15234905D01*
X16900238Y-15225381D01*
X16890714Y-15206333D01*
X16871667Y-15196809D01*
X16843095Y-15196809D01*
X16824048Y-15187286D01*
X16814524Y-15168238D01*
X16814524Y-15158714D01*
X16824048Y-15139667D01*
X16843095Y-15130143D01*
X16871667Y-15130143D01*
X16890714Y-15139667D01*
X17138333Y-15187286D02*
X17290714Y-15187286D01*
X17214524Y-15263476D02*
X17214524Y-15111095D01*
X17566905Y-15149190D02*
X17547857Y-15139667D01*
X17538333Y-15130143D01*
X17528810Y-15111095D01*
X17528810Y-15101571D01*
X17538333Y-15082524D01*
X17547857Y-15073000D01*
X17566905Y-15063476D01*
X17605000Y-15063476D01*
X17624048Y-15073000D01*
X17633571Y-15082524D01*
X17643095Y-15101571D01*
X17643095Y-15111095D01*
X17633571Y-15130143D01*
X17624048Y-15139667D01*
X17605000Y-15149190D01*
X17566905Y-15149190D01*
X17547857Y-15158714D01*
X17538333Y-15168238D01*
X17528810Y-15187286D01*
X17528810Y-15225381D01*
X17538333Y-15244428D01*
X17547857Y-15253952D01*
X17566905Y-15263476D01*
X17605000Y-15263476D01*
X17624048Y-15253952D01*
X17633571Y-15244428D01*
X17643095Y-15225381D01*
X17643095Y-15187286D01*
X17633571Y-15168238D01*
X17624048Y-15158714D01*
X17605000Y-15149190D01*
X17871667Y-15253952D02*
X17890714Y-15263476D01*
X17928810Y-15263476D01*
X17947857Y-15253952D01*
X17957381Y-15234905D01*
X17957381Y-15225381D01*
X17947857Y-15206333D01*
X17928810Y-15196809D01*
X17900238Y-15196809D01*
X17881190Y-15187286D01*
X17871667Y-15168238D01*
X17871667Y-15158714D01*
X17881190Y-15139667D01*
X17900238Y-15130143D01*
X17928810Y-15130143D01*
X17947857Y-15139667D01*
X18071667Y-15263476D02*
X18052619Y-15253952D01*
X18043095Y-15234905D01*
X18043095Y-15063476D01*
X18176429Y-15263476D02*
X18157381Y-15253952D01*
X18147857Y-15244428D01*
X18138333Y-15225381D01*
X18138333Y-15168238D01*
X18147857Y-15149190D01*
X18157381Y-15139667D01*
X18176429Y-15130143D01*
X18205000Y-15130143D01*
X18224048Y-15139667D01*
X18233571Y-15149190D01*
X18243095Y-15168238D01*
X18243095Y-15225381D01*
X18233571Y-15244428D01*
X18224048Y-15253952D01*
X18205000Y-15263476D01*
X18176429Y-15263476D01*
X18300238Y-15130143D02*
X18376429Y-15130143D01*
X18328810Y-15063476D02*
X18328810Y-15234905D01*
X18338333Y-15253952D01*
X18357381Y-15263476D01*
X18376429Y-15263476D01*
X18433571Y-15253952D02*
X18452619Y-15263476D01*
X18490714Y-15263476D01*
X18509762Y-15253952D01*
X18519286Y-15234905D01*
X18519286Y-15225381D01*
X18509762Y-15206333D01*
X18490714Y-15196809D01*
X18462143Y-15196809D01*
X18443095Y-15187286D01*
X18433571Y-15168238D01*
X18433571Y-15158714D01*
X18443095Y-15139667D01*
X18462143Y-15130143D01*
X18490714Y-15130143D01*
X18509762Y-15139667D01*
X18585952Y-15339667D02*
X18595476Y-15330143D01*
X18614524Y-15301571D01*
X18624048Y-15282524D01*
X18633571Y-15253952D01*
X18643095Y-15206333D01*
X18643095Y-15168238D01*
X18633571Y-15120619D01*
X18624048Y-15092048D01*
X18614524Y-15073000D01*
X18595476Y-15044428D01*
X18585952Y-15034905D01*
D15*
X12180356Y-15472356D02*
X12180356Y-15401644D01*
X12109644Y-15401644D01*
X12109644Y-15472356D01*
X12180356Y-15472356D01*
D11*
X12557381Y-15527476D02*
X12443095Y-15527476D01*
X12500238Y-15527476D02*
X12500238Y-15327476D01*
X12481190Y-15356048D01*
X12462143Y-15375095D01*
X12443095Y-15384619D01*
X12643095Y-15508428D02*
X12652619Y-15517952D01*
X12643095Y-15527476D01*
X12633571Y-15517952D01*
X12643095Y-15508428D01*
X12643095Y-15527476D01*
X12776428Y-15327476D02*
X12795476Y-15327476D01*
X12814524Y-15337000D01*
X12824048Y-15346524D01*
X12833571Y-15365571D01*
X12843095Y-15403667D01*
X12843095Y-15451286D01*
X12833571Y-15489381D01*
X12824048Y-15508428D01*
X12814524Y-15517952D01*
X12795476Y-15527476D01*
X12776428Y-15527476D01*
X12757381Y-15517952D01*
X12747857Y-15508428D01*
X12738333Y-15489381D01*
X12728809Y-15451286D01*
X12728809Y-15403667D01*
X12738333Y-15365571D01*
X12747857Y-15346524D01*
X12757381Y-15337000D01*
X12776428Y-15327476D01*
X12966905Y-15327476D02*
X12985952Y-15327476D01*
X13005000Y-15337000D01*
X13014524Y-15346524D01*
X13024048Y-15365571D01*
X13033571Y-15403667D01*
X13033571Y-15451286D01*
X13024048Y-15489381D01*
X13014524Y-15508428D01*
X13005000Y-15517952D01*
X12985952Y-15527476D01*
X12966905Y-15527476D01*
X12947857Y-15517952D01*
X12938333Y-15508428D01*
X12928809Y-15489381D01*
X12919286Y-15451286D01*
X12919286Y-15403667D01*
X12928809Y-15365571D01*
X12938333Y-15346524D01*
X12947857Y-15337000D01*
X12966905Y-15327476D01*
X13157381Y-15327476D02*
X13176428Y-15327476D01*
X13195476Y-15337000D01*
X13205000Y-15346524D01*
X13214524Y-15365571D01*
X13224048Y-15403667D01*
X13224048Y-15451286D01*
X13214524Y-15489381D01*
X13205000Y-15508428D01*
X13195476Y-15517952D01*
X13176428Y-15527476D01*
X13157381Y-15527476D01*
X13138333Y-15517952D01*
X13128809Y-15508428D01*
X13119286Y-15489381D01*
X13109762Y-15451286D01*
X13109762Y-15403667D01*
X13119286Y-15365571D01*
X13128809Y-15346524D01*
X13138333Y-15337000D01*
X13157381Y-15327476D01*
X13309762Y-15527476D02*
X13309762Y-15394143D01*
X13309762Y-15413190D02*
X13319286Y-15403667D01*
X13338333Y-15394143D01*
X13366905Y-15394143D01*
X13385952Y-15403667D01*
X13395476Y-15422714D01*
X13395476Y-15527476D01*
X13395476Y-15422714D02*
X13405000Y-15403667D01*
X13424048Y-15394143D01*
X13452619Y-15394143D01*
X13471667Y-15403667D01*
X13481190Y-15422714D01*
X13481190Y-15527476D01*
X13576428Y-15527476D02*
X13576428Y-15394143D01*
X13576428Y-15413190D02*
X13585952Y-15403667D01*
X13605000Y-15394143D01*
X13633571Y-15394143D01*
X13652619Y-15403667D01*
X13662143Y-15422714D01*
X13662143Y-15527476D01*
X13662143Y-15422714D02*
X13671667Y-15403667D01*
X13690714Y-15394143D01*
X13719286Y-15394143D01*
X13738333Y-15403667D01*
X13747857Y-15422714D01*
X13747857Y-15527476D01*
X14138333Y-15317952D02*
X13966905Y-15575095D01*
X14395476Y-15327476D02*
X14414524Y-15327476D01*
X14433571Y-15337000D01*
X14443095Y-15346524D01*
X14452619Y-15365571D01*
X14462143Y-15403667D01*
X14462143Y-15451286D01*
X14452619Y-15489381D01*
X14443095Y-15508428D01*
X14433571Y-15517952D01*
X14414524Y-15527476D01*
X14395476Y-15527476D01*
X14376428Y-15517952D01*
X14366905Y-15508428D01*
X14357381Y-15489381D01*
X14347857Y-15451286D01*
X14347857Y-15403667D01*
X14357381Y-15365571D01*
X14366905Y-15346524D01*
X14376428Y-15337000D01*
X14395476Y-15327476D01*
X14547857Y-15508428D02*
X14557381Y-15517952D01*
X14547857Y-15527476D01*
X14538333Y-15517952D01*
X14547857Y-15508428D01*
X14547857Y-15527476D01*
X14681190Y-15327476D02*
X14700238Y-15327476D01*
X14719286Y-15337000D01*
X14728809Y-15346524D01*
X14738333Y-15365571D01*
X14747857Y-15403667D01*
X14747857Y-15451286D01*
X14738333Y-15489381D01*
X14728809Y-15508428D01*
X14719286Y-15517952D01*
X14700238Y-15527476D01*
X14681190Y-15527476D01*
X14662143Y-15517952D01*
X14652619Y-15508428D01*
X14643095Y-15489381D01*
X14633571Y-15451286D01*
X14633571Y-15403667D01*
X14643095Y-15365571D01*
X14652619Y-15346524D01*
X14662143Y-15337000D01*
X14681190Y-15327476D01*
X14814524Y-15327476D02*
X14938333Y-15327476D01*
X14871667Y-15403667D01*
X14900238Y-15403667D01*
X14919286Y-15413190D01*
X14928809Y-15422714D01*
X14938333Y-15441762D01*
X14938333Y-15489381D01*
X14928809Y-15508428D01*
X14919286Y-15517952D01*
X14900238Y-15527476D01*
X14843095Y-15527476D01*
X14824048Y-15517952D01*
X14814524Y-15508428D01*
X15033571Y-15527476D02*
X15071667Y-15527476D01*
X15090714Y-15517952D01*
X15100238Y-15508428D01*
X15119286Y-15479857D01*
X15128809Y-15441762D01*
X15128809Y-15365571D01*
X15119286Y-15346524D01*
X15109762Y-15337000D01*
X15090714Y-15327476D01*
X15052619Y-15327476D01*
X15033571Y-15337000D01*
X15024048Y-15346524D01*
X15014524Y-15365571D01*
X15014524Y-15413190D01*
X15024048Y-15432238D01*
X15033571Y-15441762D01*
X15052619Y-15451286D01*
X15090714Y-15451286D01*
X15109762Y-15441762D01*
X15119286Y-15432238D01*
X15128809Y-15413190D01*
X15300238Y-15394143D02*
X15300238Y-15527476D01*
X15252619Y-15317952D02*
X15205000Y-15460809D01*
X15328809Y-15460809D01*
X15395476Y-15327476D02*
X15395476Y-15365571D01*
X15471667Y-15327476D02*
X15471667Y-15365571D01*
X15766905Y-15603667D02*
X15757381Y-15594143D01*
X15738333Y-15565571D01*
X15728809Y-15546524D01*
X15719286Y-15517952D01*
X15709762Y-15470333D01*
X15709762Y-15432238D01*
X15719286Y-15384619D01*
X15728809Y-15356048D01*
X15738333Y-15337000D01*
X15757381Y-15308428D01*
X15766905Y-15298905D01*
X15938333Y-15327476D02*
X15843095Y-15327476D01*
X15833571Y-15422714D01*
X15843095Y-15413190D01*
X15862143Y-15403667D01*
X15909762Y-15403667D01*
X15928809Y-15413190D01*
X15938333Y-15422714D01*
X15947857Y-15441762D01*
X15947857Y-15489381D01*
X15938333Y-15508428D01*
X15928809Y-15517952D01*
X15909762Y-15527476D01*
X15862143Y-15527476D01*
X15843095Y-15517952D01*
X15833571Y-15508428D01*
X16043095Y-15527476D02*
X16081190Y-15527476D01*
X16100238Y-15517952D01*
X16109762Y-15508428D01*
X16128809Y-15479857D01*
X16138333Y-15441762D01*
X16138333Y-15365571D01*
X16128809Y-15346524D01*
X16119286Y-15337000D01*
X16100238Y-15327476D01*
X16062143Y-15327476D01*
X16043095Y-15337000D01*
X16033571Y-15346524D01*
X16024048Y-15365571D01*
X16024048Y-15413190D01*
X16033571Y-15432238D01*
X16043095Y-15441762D01*
X16062143Y-15451286D01*
X16100238Y-15451286D01*
X16119286Y-15441762D01*
X16128809Y-15432238D01*
X16138333Y-15413190D01*
X16376428Y-15527476D02*
X16376428Y-15327476D01*
X16462143Y-15527476D02*
X16462143Y-15422714D01*
X16452619Y-15403667D01*
X16433571Y-15394143D01*
X16405000Y-15394143D01*
X16385952Y-15403667D01*
X16376428Y-15413190D01*
X16585952Y-15527476D02*
X16566905Y-15517952D01*
X16557381Y-15508428D01*
X16547857Y-15489381D01*
X16547857Y-15432238D01*
X16557381Y-15413190D01*
X16566905Y-15403667D01*
X16585952Y-15394143D01*
X16614524Y-15394143D01*
X16633571Y-15403667D01*
X16643095Y-15413190D01*
X16652619Y-15432238D01*
X16652619Y-15489381D01*
X16643095Y-15508428D01*
X16633571Y-15517952D01*
X16614524Y-15527476D01*
X16585952Y-15527476D01*
X16766905Y-15527476D02*
X16747857Y-15517952D01*
X16738333Y-15498905D01*
X16738333Y-15327476D01*
X16919286Y-15517952D02*
X16900238Y-15527476D01*
X16862143Y-15527476D01*
X16843095Y-15517952D01*
X16833571Y-15498905D01*
X16833571Y-15422714D01*
X16843095Y-15403667D01*
X16862143Y-15394143D01*
X16900238Y-15394143D01*
X16919286Y-15403667D01*
X16928810Y-15422714D01*
X16928810Y-15441762D01*
X16833571Y-15460809D01*
X17005000Y-15517952D02*
X17024048Y-15527476D01*
X17062143Y-15527476D01*
X17081190Y-15517952D01*
X17090714Y-15498905D01*
X17090714Y-15489381D01*
X17081190Y-15470333D01*
X17062143Y-15460809D01*
X17033571Y-15460809D01*
X17014524Y-15451286D01*
X17005000Y-15432238D01*
X17005000Y-15422714D01*
X17014524Y-15403667D01*
X17033571Y-15394143D01*
X17062143Y-15394143D01*
X17081190Y-15403667D01*
X17157381Y-15603667D02*
X17166905Y-15594143D01*
X17185952Y-15565571D01*
X17195476Y-15546524D01*
X17205000Y-15517952D01*
X17214524Y-15470333D01*
X17214524Y-15432238D01*
X17205000Y-15384619D01*
X17195476Y-15356048D01*
X17185952Y-15337000D01*
X17166905Y-15308428D01*
X17157381Y-15298905D01*
X12095000Y-15801000D02*
X12195000Y-15701000D01*
X12095000Y-15601000D01*
X11995000Y-15701000D01*
X12095000Y-15801000D01*
X12433571Y-15591476D02*
X12557381Y-15591476D01*
X12490714Y-15667667D01*
X12519286Y-15667667D01*
X12538333Y-15677190D01*
X12547857Y-15686714D01*
X12557381Y-15705762D01*
X12557381Y-15753381D01*
X12547857Y-15772428D01*
X12538333Y-15781952D01*
X12519286Y-15791476D01*
X12462143Y-15791476D01*
X12443095Y-15781952D01*
X12433571Y-15772428D01*
X12643095Y-15772428D02*
X12652619Y-15781952D01*
X12643095Y-15791476D01*
X12633571Y-15781952D01*
X12643095Y-15772428D01*
X12643095Y-15791476D01*
X12728809Y-15610524D02*
X12738333Y-15601000D01*
X12757381Y-15591476D01*
X12805000Y-15591476D01*
X12824048Y-15601000D01*
X12833571Y-15610524D01*
X12843095Y-15629571D01*
X12843095Y-15648619D01*
X12833571Y-15677190D01*
X12719286Y-15791476D01*
X12843095Y-15791476D01*
X12966905Y-15591476D02*
X12985952Y-15591476D01*
X13005000Y-15601000D01*
X13014524Y-15610524D01*
X13024048Y-15629571D01*
X13033571Y-15667667D01*
X13033571Y-15715286D01*
X13024048Y-15753381D01*
X13014524Y-15772428D01*
X13005000Y-15781952D01*
X12985952Y-15791476D01*
X12966905Y-15791476D01*
X12947857Y-15781952D01*
X12938333Y-15772428D01*
X12928809Y-15753381D01*
X12919286Y-15715286D01*
X12919286Y-15667667D01*
X12928809Y-15629571D01*
X12938333Y-15610524D01*
X12947857Y-15601000D01*
X12966905Y-15591476D01*
X13157381Y-15591476D02*
X13176428Y-15591476D01*
X13195476Y-15601000D01*
X13205000Y-15610524D01*
X13214524Y-15629571D01*
X13224048Y-15667667D01*
X13224048Y-15715286D01*
X13214524Y-15753381D01*
X13205000Y-15772428D01*
X13195476Y-15781952D01*
X13176428Y-15791476D01*
X13157381Y-15791476D01*
X13138333Y-15781952D01*
X13128809Y-15772428D01*
X13119286Y-15753381D01*
X13109762Y-15715286D01*
X13109762Y-15667667D01*
X13119286Y-15629571D01*
X13128809Y-15610524D01*
X13138333Y-15601000D01*
X13157381Y-15591476D01*
X13309762Y-15791476D02*
X13309762Y-15658143D01*
X13309762Y-15677190D02*
X13319286Y-15667667D01*
X13338333Y-15658143D01*
X13366905Y-15658143D01*
X13385952Y-15667667D01*
X13395476Y-15686714D01*
X13395476Y-15791476D01*
X13395476Y-15686714D02*
X13405000Y-15667667D01*
X13424048Y-15658143D01*
X13452619Y-15658143D01*
X13471667Y-15667667D01*
X13481190Y-15686714D01*
X13481190Y-15791476D01*
X13576428Y-15791476D02*
X13576428Y-15658143D01*
X13576428Y-15677190D02*
X13585952Y-15667667D01*
X13605000Y-15658143D01*
X13633571Y-15658143D01*
X13652619Y-15667667D01*
X13662143Y-15686714D01*
X13662143Y-15791476D01*
X13662143Y-15686714D02*
X13671667Y-15667667D01*
X13690714Y-15658143D01*
X13719286Y-15658143D01*
X13738333Y-15667667D01*
X13747857Y-15686714D01*
X13747857Y-15791476D01*
X14138333Y-15581952D02*
X13966905Y-15839095D01*
X14395476Y-15591476D02*
X14414524Y-15591476D01*
X14433571Y-15601000D01*
X14443095Y-15610524D01*
X14452619Y-15629571D01*
X14462143Y-15667667D01*
X14462143Y-15715286D01*
X14452619Y-15753381D01*
X14443095Y-15772428D01*
X14433571Y-15781952D01*
X14414524Y-15791476D01*
X14395476Y-15791476D01*
X14376428Y-15781952D01*
X14366905Y-15772428D01*
X14357381Y-15753381D01*
X14347857Y-15715286D01*
X14347857Y-15667667D01*
X14357381Y-15629571D01*
X14366905Y-15610524D01*
X14376428Y-15601000D01*
X14395476Y-15591476D01*
X14547857Y-15772428D02*
X14557381Y-15781952D01*
X14547857Y-15791476D01*
X14538333Y-15781952D01*
X14547857Y-15772428D01*
X14547857Y-15791476D01*
X14747857Y-15791476D02*
X14633571Y-15791476D01*
X14690714Y-15791476D02*
X14690714Y-15591476D01*
X14671667Y-15620048D01*
X14652619Y-15639095D01*
X14633571Y-15648619D01*
X14824048Y-15610524D02*
X14833571Y-15601000D01*
X14852619Y-15591476D01*
X14900238Y-15591476D01*
X14919286Y-15601000D01*
X14928809Y-15610524D01*
X14938333Y-15629571D01*
X14938333Y-15648619D01*
X14928809Y-15677190D01*
X14814524Y-15791476D01*
X14938333Y-15791476D01*
X15109762Y-15591476D02*
X15071667Y-15591476D01*
X15052619Y-15601000D01*
X15043095Y-15610524D01*
X15024048Y-15639095D01*
X15014524Y-15677190D01*
X15014524Y-15753381D01*
X15024048Y-15772428D01*
X15033571Y-15781952D01*
X15052619Y-15791476D01*
X15090714Y-15791476D01*
X15109762Y-15781952D01*
X15119286Y-15772428D01*
X15128809Y-15753381D01*
X15128809Y-15705762D01*
X15119286Y-15686714D01*
X15109762Y-15677190D01*
X15090714Y-15667667D01*
X15052619Y-15667667D01*
X15033571Y-15677190D01*
X15024048Y-15686714D01*
X15014524Y-15705762D01*
X15252619Y-15591476D02*
X15271667Y-15591476D01*
X15290714Y-15601000D01*
X15300238Y-15610524D01*
X15309762Y-15629571D01*
X15319286Y-15667667D01*
X15319286Y-15715286D01*
X15309762Y-15753381D01*
X15300238Y-15772428D01*
X15290714Y-15781952D01*
X15271667Y-15791476D01*
X15252619Y-15791476D01*
X15233571Y-15781952D01*
X15224048Y-15772428D01*
X15214524Y-15753381D01*
X15205000Y-15715286D01*
X15205000Y-15667667D01*
X15214524Y-15629571D01*
X15224048Y-15610524D01*
X15233571Y-15601000D01*
X15252619Y-15591476D01*
X15395476Y-15591476D02*
X15395476Y-15629571D01*
X15471667Y-15591476D02*
X15471667Y-15629571D01*
X15766905Y-15867667D02*
X15757381Y-15858143D01*
X15738333Y-15829571D01*
X15728809Y-15810524D01*
X15719286Y-15781952D01*
X15709762Y-15734333D01*
X15709762Y-15696238D01*
X15719286Y-15648619D01*
X15728809Y-15620048D01*
X15738333Y-15601000D01*
X15757381Y-15572428D01*
X15766905Y-15562905D01*
X15928809Y-15658143D02*
X15928809Y-15791476D01*
X15881190Y-15581952D02*
X15833571Y-15724809D01*
X15957381Y-15724809D01*
X16185952Y-15791476D02*
X16185952Y-15591476D01*
X16271667Y-15791476D02*
X16271667Y-15686714D01*
X16262143Y-15667667D01*
X16243095Y-15658143D01*
X16214524Y-15658143D01*
X16195476Y-15667667D01*
X16185952Y-15677190D01*
X16395476Y-15791476D02*
X16376428Y-15781952D01*
X16366905Y-15772428D01*
X16357381Y-15753381D01*
X16357381Y-15696238D01*
X16366905Y-15677190D01*
X16376428Y-15667667D01*
X16395476Y-15658143D01*
X16424048Y-15658143D01*
X16443095Y-15667667D01*
X16452619Y-15677190D01*
X16462143Y-15696238D01*
X16462143Y-15753381D01*
X16452619Y-15772428D01*
X16443095Y-15781952D01*
X16424048Y-15791476D01*
X16395476Y-15791476D01*
X16576428Y-15791476D02*
X16557381Y-15781952D01*
X16547857Y-15762905D01*
X16547857Y-15591476D01*
X16728809Y-15781952D02*
X16709762Y-15791476D01*
X16671667Y-15791476D01*
X16652619Y-15781952D01*
X16643095Y-15762905D01*
X16643095Y-15686714D01*
X16652619Y-15667667D01*
X16671667Y-15658143D01*
X16709762Y-15658143D01*
X16728809Y-15667667D01*
X16738333Y-15686714D01*
X16738333Y-15705762D01*
X16643095Y-15724809D01*
X16814524Y-15781952D02*
X16833571Y-15791476D01*
X16871667Y-15791476D01*
X16890714Y-15781952D01*
X16900238Y-15762905D01*
X16900238Y-15753381D01*
X16890714Y-15734333D01*
X16871667Y-15724809D01*
X16843095Y-15724809D01*
X16824048Y-15715286D01*
X16814524Y-15696238D01*
X16814524Y-15686714D01*
X16824048Y-15667667D01*
X16843095Y-15658143D01*
X16871667Y-15658143D01*
X16890714Y-15667667D01*
X16966905Y-15867667D02*
X16976429Y-15858143D01*
X16995476Y-15829571D01*
X17005000Y-15810524D01*
X17014524Y-15781952D01*
X17024048Y-15734333D01*
X17024048Y-15696238D01*
X17014524Y-15648619D01*
X17005000Y-15620048D01*
X16995476Y-15601000D01*
X16976429Y-15572428D01*
X16966905Y-15562905D01*
M02*
