%TF.GenerationSoftware,KiCad,Pcbnew,6.0.2+dfsg-1*%
%TF.CreationDate,2025-09-20T13:55:39+02:00*%
%TF.ProjectId,Alchemy,416c6368-656d-4792-9e6b-696361645f70,rev?*%
%TF.SameCoordinates,Original*%
%TF.FileFunction,Paste,Top*%
%TF.FilePolarity,Positive*%
%FSLAX46Y46*%
G04 Gerber Fmt 4.6, Leading zero omitted, Abs format (unit mm)*
G04 Created by KiCad (PCBNEW 6.0.2+dfsg-1) date 2025-09-20 13:55:39*
%MOMM*%
%LPD*%
G01*
G04 APERTURE LIST*
G04 Aperture macros list*
%AMRoundRect*
0 Rectangle with rounded corners*
0 $1 Rounding radius*
0 $2 $3 $4 $5 $6 $7 $8 $9 X,Y pos of 4 corners*
0 Add a 4 corners polygon primitive as box body*
4,1,4,$2,$3,$4,$5,$6,$7,$8,$9,$2,$3,0*
0 Add four circle primitives for the rounded corners*
1,1,$1+$1,$2,$3*
1,1,$1+$1,$4,$5*
1,1,$1+$1,$6,$7*
1,1,$1+$1,$8,$9*
0 Add four rect primitives between the rounded corners*
20,1,$1+$1,$2,$3,$4,$5,0*
20,1,$1+$1,$4,$5,$6,$7,0*
20,1,$1+$1,$6,$7,$8,$9,0*
20,1,$1+$1,$8,$9,$2,$3,0*%
G04 Aperture macros list end*
%ADD10RoundRect,0.250000X-0.475000X0.250000X-0.475000X-0.250000X0.475000X-0.250000X0.475000X0.250000X0*%
%ADD11R,1.450000X0.600000*%
%ADD12R,1.450000X0.300000*%
%ADD13RoundRect,0.243750X0.243750X0.456250X-0.243750X0.456250X-0.243750X-0.456250X0.243750X-0.456250X0*%
%ADD14R,2.100000X1.400000*%
%ADD15RoundRect,0.250000X-0.262500X-0.450000X0.262500X-0.450000X0.262500X0.450000X-0.262500X0.450000X0*%
%ADD16RoundRect,0.250000X0.450000X-0.262500X0.450000X0.262500X-0.450000X0.262500X-0.450000X-0.262500X0*%
%ADD17RoundRect,0.242500X0.242500X0.382500X-0.242500X0.382500X-0.242500X-0.382500X0.242500X-0.382500X0*%
%ADD18RoundRect,0.150000X0.650000X0.150000X-0.650000X0.150000X-0.650000X-0.150000X0.650000X-0.150000X0*%
%ADD19RoundRect,0.250000X-0.650000X0.325000X-0.650000X-0.325000X0.650000X-0.325000X0.650000X0.325000X0*%
%ADD20RoundRect,0.250000X0.262500X0.450000X-0.262500X0.450000X-0.262500X-0.450000X0.262500X-0.450000X0*%
%ADD21RoundRect,0.250000X0.250000X0.475000X-0.250000X0.475000X-0.250000X-0.475000X0.250000X-0.475000X0*%
%ADD22RoundRect,0.250000X0.650000X-0.325000X0.650000X0.325000X-0.650000X0.325000X-0.650000X-0.325000X0*%
%ADD23RoundRect,0.250000X-0.250000X-0.475000X0.250000X-0.475000X0.250000X0.475000X-0.250000X0.475000X0*%
%ADD24RoundRect,0.150000X0.587500X0.150000X-0.587500X0.150000X-0.587500X-0.150000X0.587500X-0.150000X0*%
%ADD25RoundRect,0.250000X0.475000X-0.250000X0.475000X0.250000X-0.475000X0.250000X-0.475000X-0.250000X0*%
%ADD26RoundRect,0.250000X-0.450000X0.262500X-0.450000X-0.262500X0.450000X-0.262500X0.450000X0.262500X0*%
%ADD27RoundRect,0.075000X-0.662500X-0.075000X0.662500X-0.075000X0.662500X0.075000X-0.662500X0.075000X0*%
%ADD28RoundRect,0.075000X-0.075000X-0.662500X0.075000X-0.662500X0.075000X0.662500X-0.075000X0.662500X0*%
%ADD29R,2.000000X1.500000*%
%ADD30R,2.000000X3.800000*%
%ADD31RoundRect,0.150000X-0.512500X-0.150000X0.512500X-0.150000X0.512500X0.150000X-0.512500X0.150000X0*%
%ADD32R,2.000000X4.500000*%
%ADD33R,1.500000X3.000000*%
%ADD34RoundRect,0.150000X0.150000X-0.587500X0.150000X0.587500X-0.150000X0.587500X-0.150000X-0.587500X0*%
%ADD35R,2.500000X1.800000*%
%ADD36RoundRect,0.250000X-0.325000X-0.650000X0.325000X-0.650000X0.325000X0.650000X-0.325000X0.650000X0*%
G04 APERTURE END LIST*
D10*
%TO.C,C24*%
X154250000Y-101550000D03*
X154250000Y-103450000D03*
%TD*%
%TO.C,C11*%
X131500000Y-80050000D03*
X131500000Y-81950000D03*
%TD*%
D11*
%TO.C,J3*%
X130045000Y-69250000D03*
X130045000Y-70050000D03*
D12*
X130045000Y-71250000D03*
X130045000Y-72250000D03*
X130045000Y-72750000D03*
X130045000Y-73750000D03*
D11*
X130045000Y-74950000D03*
X130045000Y-75750000D03*
X130045000Y-75750000D03*
X130045000Y-74950000D03*
D12*
X130045000Y-74250000D03*
X130045000Y-73250000D03*
X130045000Y-71750000D03*
X130045000Y-70750000D03*
D11*
X130045000Y-70050000D03*
X130045000Y-69250000D03*
%TD*%
D13*
%TO.C,D1*%
X172687500Y-68500000D03*
X170812500Y-68500000D03*
%TD*%
D14*
%TO.C,S1*%
X161800000Y-62250000D03*
X152700000Y-62250000D03*
X161800000Y-57750000D03*
X152700000Y-57750000D03*
%TD*%
D15*
%TO.C,R8*%
X133087500Y-99500000D03*
X134912500Y-99500000D03*
%TD*%
D16*
%TO.C,R4*%
X149000000Y-121575000D03*
X149000000Y-119750000D03*
%TD*%
D17*
%TO.C,U2*%
X153650000Y-126225000D03*
X154850000Y-127775000D03*
X153650000Y-127775000D03*
X154850000Y-126225000D03*
D18*
X156900000Y-128905000D03*
X156900000Y-127635000D03*
X156900000Y-126365000D03*
X156900000Y-125095000D03*
X151600000Y-125095000D03*
X151600000Y-126365000D03*
X151600000Y-127635000D03*
X151600000Y-128905000D03*
%TD*%
D15*
%TO.C,R7*%
X133087500Y-96000000D03*
X134912500Y-96000000D03*
%TD*%
D19*
%TO.C,C1*%
X159750000Y-125275000D03*
X159750000Y-128225000D03*
%TD*%
D20*
%TO.C,R13*%
X172662500Y-66500000D03*
X170837500Y-66500000D03*
%TD*%
%TO.C,R3*%
X147162500Y-122000000D03*
X145337500Y-122000000D03*
%TD*%
D19*
%TO.C,C10*%
X162250000Y-125275000D03*
X162250000Y-128225000D03*
%TD*%
D21*
%TO.C,C9*%
X133450000Y-127000000D03*
X131550000Y-127000000D03*
%TD*%
%TO.C,C3*%
X147200000Y-120000000D03*
X145300000Y-120000000D03*
%TD*%
D20*
%TO.C,R2*%
X155912500Y-130750000D03*
X154087500Y-130750000D03*
%TD*%
D19*
%TO.C,C5*%
X138750000Y-123025000D03*
X138750000Y-125975000D03*
%TD*%
D10*
%TO.C,C2*%
X149500000Y-127300000D03*
X149500000Y-129200000D03*
%TD*%
%TO.C,C13*%
X134500000Y-104050000D03*
X134500000Y-105950000D03*
%TD*%
D22*
%TO.C,C6*%
X138750000Y-130975000D03*
X138750000Y-128025000D03*
%TD*%
D23*
%TO.C,C18*%
X127550000Y-83750000D03*
X129450000Y-83750000D03*
%TD*%
D15*
%TO.C,R10*%
X133087500Y-74500000D03*
X134912500Y-74500000D03*
%TD*%
D21*
%TO.C,C20*%
X127950000Y-109000000D03*
X126050000Y-109000000D03*
%TD*%
D24*
%TO.C,U5*%
X129437500Y-81950000D03*
X129437500Y-80050000D03*
X127562500Y-81000000D03*
%TD*%
D22*
%TO.C,C8*%
X136250000Y-130975000D03*
X136250000Y-128025000D03*
%TD*%
D10*
%TO.C,C17*%
X155875000Y-70550000D03*
X155875000Y-72450000D03*
%TD*%
D25*
%TO.C,C25*%
X145250000Y-92950000D03*
X145250000Y-91050000D03*
%TD*%
D16*
%TO.C,R14*%
X127750000Y-88662500D03*
X127750000Y-86837500D03*
%TD*%
D15*
%TO.C,R12*%
X170837500Y-70500000D03*
X172662500Y-70500000D03*
%TD*%
D26*
%TO.C,R11*%
X149500000Y-58087500D03*
X149500000Y-59912500D03*
%TD*%
D11*
%TO.C,J2*%
X130045000Y-94250000D03*
X130045000Y-95050000D03*
D12*
X130045000Y-96250000D03*
X130045000Y-97250000D03*
X130045000Y-97750000D03*
X130045000Y-98750000D03*
D11*
X130045000Y-99950000D03*
X130045000Y-100750000D03*
X130045000Y-100750000D03*
X130045000Y-99950000D03*
D12*
X130045000Y-99250000D03*
X130045000Y-98250000D03*
X130045000Y-96750000D03*
X130045000Y-95750000D03*
D11*
X130045000Y-95050000D03*
X130045000Y-94250000D03*
%TD*%
D20*
%TO.C,R5*%
X153412500Y-123250000D03*
X151587500Y-123250000D03*
%TD*%
%TO.C,R1*%
X159412500Y-130750000D03*
X157587500Y-130750000D03*
%TD*%
D22*
%TO.C,C16*%
X156000000Y-68475000D03*
X156000000Y-65525000D03*
%TD*%
D27*
%TO.C,U1*%
X145337500Y-94750000D03*
X145337500Y-95250000D03*
X145337500Y-95750000D03*
X145337500Y-96250000D03*
X145337500Y-96750000D03*
X145337500Y-97250000D03*
X145337500Y-97750000D03*
X145337500Y-98250000D03*
X145337500Y-98750000D03*
X145337500Y-99250000D03*
X145337500Y-99750000D03*
X145337500Y-100250000D03*
D28*
X146750000Y-101662500D03*
X147250000Y-101662500D03*
X147750000Y-101662500D03*
X148250000Y-101662500D03*
X148750000Y-101662500D03*
X149250000Y-101662500D03*
X149750000Y-101662500D03*
X150250000Y-101662500D03*
X150750000Y-101662500D03*
X151250000Y-101662500D03*
X151750000Y-101662500D03*
X152250000Y-101662500D03*
D27*
X153662500Y-100250000D03*
X153662500Y-99750000D03*
X153662500Y-99250000D03*
X153662500Y-98750000D03*
X153662500Y-98250000D03*
X153662500Y-97750000D03*
X153662500Y-97250000D03*
X153662500Y-96750000D03*
X153662500Y-96250000D03*
X153662500Y-95750000D03*
X153662500Y-95250000D03*
X153662500Y-94750000D03*
D28*
X152250000Y-93337500D03*
X151750000Y-93337500D03*
X151250000Y-93337500D03*
X150750000Y-93337500D03*
X150250000Y-93337500D03*
X149750000Y-93337500D03*
X149250000Y-93337500D03*
X148750000Y-93337500D03*
X148250000Y-93337500D03*
X147750000Y-93337500D03*
X147250000Y-93337500D03*
X146750000Y-93337500D03*
%TD*%
D29*
%TO.C,U4*%
X159850000Y-65700000D03*
D30*
X166150000Y-68000000D03*
D29*
X159850000Y-68000000D03*
X159850000Y-70300000D03*
%TD*%
D25*
%TO.C,C14*%
X134500000Y-110450000D03*
X134500000Y-108550000D03*
%TD*%
D10*
%TO.C,C19*%
X129750000Y-105050000D03*
X129750000Y-106950000D03*
%TD*%
D31*
%TO.C,U6*%
X129862500Y-85550000D03*
X129862500Y-86500000D03*
X129862500Y-87450000D03*
X132137500Y-87450000D03*
X132137500Y-85550000D03*
%TD*%
D20*
%TO.C,R15*%
X131912500Y-89250000D03*
X130087500Y-89250000D03*
%TD*%
D32*
%TO.C,Y2*%
X138250000Y-103000000D03*
X138250000Y-111500000D03*
%TD*%
D33*
%TO.C,L1*%
X147350000Y-127000000D03*
X141650000Y-127000000D03*
%TD*%
D15*
%TO.C,R9*%
X133087500Y-70750000D03*
X134912500Y-70750000D03*
%TD*%
D34*
%TO.C,U3*%
X126050000Y-106937500D03*
X127950000Y-106937500D03*
X127000000Y-105062500D03*
%TD*%
D21*
%TO.C,C27*%
X144200000Y-101750000D03*
X142300000Y-101750000D03*
%TD*%
D35*
%TO.C,D2*%
X147500000Y-132750000D03*
X151500000Y-132750000D03*
%TD*%
D23*
%TO.C,C26*%
X154050000Y-93250000D03*
X155950000Y-93250000D03*
%TD*%
D19*
%TO.C,C7*%
X136250000Y-123025000D03*
X136250000Y-125975000D03*
%TD*%
D21*
%TO.C,C4*%
X143700000Y-122000000D03*
X141800000Y-122000000D03*
%TD*%
D36*
%TO.C,C15*%
X159525000Y-73500000D03*
X162475000Y-73500000D03*
%TD*%
M02*
