%TF.GenerationSoftware,KiCad,Pcbnew,6.0.2+dfsg-1*%
%TF.CreationDate,2025-09-20T13:55:39+02:00*%
%TF.ProjectId,Alchemy,416c6368-656d-4792-9e6b-696361645f70,rev?*%
%TF.SameCoordinates,Original*%
%TF.FileFunction,Legend,Top*%
%TF.FilePolarity,Positive*%
%FSLAX46Y46*%
G04 Gerber Fmt 4.6, Leading zero omitted, Abs format (unit mm)*
G04 Created by KiCad (PCBNEW 6.0.2+dfsg-1) date 2025-09-20 13:55:39*
%MOMM*%
%LPD*%
G01*
G04 APERTURE LIST*
G04 Aperture macros list*
%AMRoundRect*
0 Rectangle with rounded corners*
0 $1 Rounding radius*
0 $2 $3 $4 $5 $6 $7 $8 $9 X,Y pos of 4 corners*
0 Add a 4 corners polygon primitive as box body*
4,1,4,$2,$3,$4,$5,$6,$7,$8,$9,$2,$3,0*
0 Add four circle primitives for the rounded corners*
1,1,$1+$1,$2,$3*
1,1,$1+$1,$4,$5*
1,1,$1+$1,$6,$7*
1,1,$1+$1,$8,$9*
0 Add four rect primitives between the rounded corners*
20,1,$1+$1,$2,$3,$4,$5,0*
20,1,$1+$1,$4,$5,$6,$7,0*
20,1,$1+$1,$6,$7,$8,$9,0*
20,1,$1+$1,$8,$9,$2,$3,0*%
G04 Aperture macros list end*
%ADD10C,0.150000*%
%ADD11C,0.300000*%
%ADD12C,0.254000*%
%ADD13C,0.120000*%
%ADD14C,0.200000*%
%ADD15C,0.100000*%
%ADD16RoundRect,0.250000X-0.475000X0.250000X-0.475000X-0.250000X0.475000X-0.250000X0.475000X0.250000X0*%
%ADD17C,0.650000*%
%ADD18R,1.450000X0.600000*%
%ADD19R,1.450000X0.300000*%
%ADD20O,2.100000X1.000000*%
%ADD21O,1.600000X1.000000*%
%ADD22RoundRect,0.243750X0.243750X0.456250X-0.243750X0.456250X-0.243750X-0.456250X0.243750X-0.456250X0*%
%ADD23C,2.000000*%
%ADD24R,2.100000X1.400000*%
%ADD25RoundRect,0.250000X-0.262500X-0.450000X0.262500X-0.450000X0.262500X0.450000X-0.262500X0.450000X0*%
%ADD26R,1.700000X1.700000*%
%ADD27O,1.700000X1.700000*%
%ADD28C,6.400000*%
%ADD29RoundRect,0.250000X0.450000X-0.262500X0.450000X0.262500X-0.450000X0.262500X-0.450000X-0.262500X0*%
%ADD30RoundRect,0.150000X0.650000X0.150000X-0.650000X0.150000X-0.650000X-0.150000X0.650000X-0.150000X0*%
%ADD31R,2.410000X3.100000*%
%ADD32RoundRect,0.250000X-0.650000X0.325000X-0.650000X-0.325000X0.650000X-0.325000X0.650000X0.325000X0*%
%ADD33RoundRect,0.250000X0.262500X0.450000X-0.262500X0.450000X-0.262500X-0.450000X0.262500X-0.450000X0*%
%ADD34RoundRect,0.250000X0.250000X0.475000X-0.250000X0.475000X-0.250000X-0.475000X0.250000X-0.475000X0*%
%ADD35RoundRect,0.250000X0.650000X-0.325000X0.650000X0.325000X-0.650000X0.325000X-0.650000X-0.325000X0*%
%ADD36RoundRect,0.250000X-0.250000X-0.475000X0.250000X-0.475000X0.250000X0.475000X-0.250000X0.475000X0*%
%ADD37RoundRect,0.150000X0.587500X0.150000X-0.587500X0.150000X-0.587500X-0.150000X0.587500X-0.150000X0*%
%ADD38RoundRect,0.250000X0.475000X-0.250000X0.475000X0.250000X-0.475000X0.250000X-0.475000X-0.250000X0*%
%ADD39RoundRect,0.250000X-0.450000X0.262500X-0.450000X-0.262500X0.450000X-0.262500X0.450000X0.262500X0*%
%ADD40RoundRect,0.075000X-0.662500X-0.075000X0.662500X-0.075000X0.662500X0.075000X-0.662500X0.075000X0*%
%ADD41RoundRect,0.075000X-0.075000X-0.662500X0.075000X-0.662500X0.075000X0.662500X-0.075000X0.662500X0*%
%ADD42R,2.000000X1.500000*%
%ADD43R,2.000000X3.800000*%
%ADD44RoundRect,0.150000X-0.512500X-0.150000X0.512500X-0.150000X0.512500X0.150000X-0.512500X0.150000X0*%
%ADD45R,2.000000X4.500000*%
%ADD46R,1.500000X3.000000*%
%ADD47RoundRect,0.150000X0.150000X-0.587500X0.150000X0.587500X-0.150000X0.587500X-0.150000X-0.587500X0*%
%ADD48R,2.500000X1.800000*%
%ADD49RoundRect,0.250000X-0.325000X-0.650000X0.325000X-0.650000X0.325000X0.650000X-0.325000X0.650000X0*%
G04 APERTURE END LIST*
D10*
X160630952Y-91904761D02*
X160773809Y-91952380D01*
X161011904Y-91952380D01*
X161107142Y-91904761D01*
X161154761Y-91857142D01*
X161202380Y-91761904D01*
X161202380Y-91666666D01*
X161154761Y-91571428D01*
X161107142Y-91523809D01*
X161011904Y-91476190D01*
X160821428Y-91428571D01*
X160726190Y-91380952D01*
X160678571Y-91333333D01*
X160630952Y-91238095D01*
X160630952Y-91142857D01*
X160678571Y-91047619D01*
X160726190Y-91000000D01*
X160821428Y-90952380D01*
X161059523Y-90952380D01*
X161202380Y-91000000D01*
X161535714Y-90952380D02*
X161773809Y-91952380D01*
X161964285Y-91238095D01*
X162154761Y-91952380D01*
X162392857Y-90952380D01*
X162773809Y-91952380D02*
X162773809Y-90952380D01*
X163011904Y-90952380D01*
X163154761Y-91000000D01*
X163250000Y-91095238D01*
X163297619Y-91190476D01*
X163345238Y-91380952D01*
X163345238Y-91523809D01*
X163297619Y-91714285D01*
X163250000Y-91809523D01*
X163154761Y-91904761D01*
X163011904Y-91952380D01*
X162773809Y-91952380D01*
X163773809Y-91952380D02*
X163773809Y-90952380D01*
X164440476Y-90952380D02*
X164630952Y-90952380D01*
X164726190Y-91000000D01*
X164821428Y-91095238D01*
X164869047Y-91285714D01*
X164869047Y-91619047D01*
X164821428Y-91809523D01*
X164726190Y-91904761D01*
X164630952Y-91952380D01*
X164440476Y-91952380D01*
X164345238Y-91904761D01*
X164250000Y-91809523D01*
X164202380Y-91619047D01*
X164202380Y-91285714D01*
X164250000Y-91095238D01*
X164345238Y-91000000D01*
X164440476Y-90952380D01*
X144630952Y-69702380D02*
X144630952Y-70416666D01*
X144583333Y-70559523D01*
X144488095Y-70654761D01*
X144345238Y-70702380D01*
X144250000Y-70702380D01*
X145535714Y-70035714D02*
X145535714Y-70702380D01*
X145297619Y-69654761D02*
X145059523Y-70369047D01*
X145678571Y-70369047D01*
X146821428Y-70321428D02*
X147583333Y-70321428D01*
X149154761Y-70178571D02*
X149297619Y-70226190D01*
X149345238Y-70273809D01*
X149392857Y-70369047D01*
X149392857Y-70511904D01*
X149345238Y-70607142D01*
X149297619Y-70654761D01*
X149202380Y-70702380D01*
X148821428Y-70702380D01*
X148821428Y-69702380D01*
X149154761Y-69702380D01*
X149250000Y-69750000D01*
X149297619Y-69797619D01*
X149345238Y-69892857D01*
X149345238Y-69988095D01*
X149297619Y-70083333D01*
X149250000Y-70130952D01*
X149154761Y-70178571D01*
X148821428Y-70178571D01*
X150011904Y-69702380D02*
X150202380Y-69702380D01*
X150297619Y-69750000D01*
X150392857Y-69845238D01*
X150440476Y-70035714D01*
X150440476Y-70369047D01*
X150392857Y-70559523D01*
X150297619Y-70654761D01*
X150202380Y-70702380D01*
X150011904Y-70702380D01*
X149916666Y-70654761D01*
X149821428Y-70559523D01*
X149773809Y-70369047D01*
X149773809Y-70035714D01*
X149821428Y-69845238D01*
X149916666Y-69750000D01*
X150011904Y-69702380D01*
X151059523Y-69702380D02*
X151250000Y-69702380D01*
X151345238Y-69750000D01*
X151440476Y-69845238D01*
X151488095Y-70035714D01*
X151488095Y-70369047D01*
X151440476Y-70559523D01*
X151345238Y-70654761D01*
X151250000Y-70702380D01*
X151059523Y-70702380D01*
X150964285Y-70654761D01*
X150869047Y-70559523D01*
X150821428Y-70369047D01*
X150821428Y-70035714D01*
X150869047Y-69845238D01*
X150964285Y-69750000D01*
X151059523Y-69702380D01*
X151773809Y-69702380D02*
X152345238Y-69702380D01*
X152059523Y-70702380D02*
X152059523Y-69702380D01*
X152869047Y-69702380D02*
X152964285Y-69702380D01*
X153059523Y-69750000D01*
X153107142Y-69797619D01*
X153154761Y-69892857D01*
X153202380Y-70083333D01*
X153202380Y-70321428D01*
X153154761Y-70511904D01*
X153107142Y-70607142D01*
X153059523Y-70654761D01*
X152964285Y-70702380D01*
X152869047Y-70702380D01*
X152773809Y-70654761D01*
X152726190Y-70607142D01*
X152678571Y-70511904D01*
X152630952Y-70321428D01*
X152630952Y-70083333D01*
X152678571Y-69892857D01*
X152726190Y-69797619D01*
X152773809Y-69750000D01*
X152869047Y-69702380D01*
X124121309Y-117452380D02*
X124121309Y-118166666D01*
X124073690Y-118309523D01*
X123978452Y-118404761D01*
X123835595Y-118452380D01*
X123740357Y-118452380D01*
X124502261Y-117452380D02*
X125121309Y-117452380D01*
X124787976Y-117833333D01*
X124930833Y-117833333D01*
X125026071Y-117880952D01*
X125073690Y-117928571D01*
X125121309Y-118023809D01*
X125121309Y-118261904D01*
X125073690Y-118357142D01*
X125026071Y-118404761D01*
X124930833Y-118452380D01*
X124645119Y-118452380D01*
X124549880Y-118404761D01*
X124502261Y-118357142D01*
X126311785Y-118071428D02*
X127073690Y-118071428D01*
X128311785Y-117452380D02*
X128311785Y-118261904D01*
X128359404Y-118357142D01*
X128407023Y-118404761D01*
X128502261Y-118452380D01*
X128692738Y-118452380D01*
X128787976Y-118404761D01*
X128835595Y-118357142D01*
X128883214Y-118261904D01*
X128883214Y-117452380D01*
X129311785Y-118404761D02*
X129454642Y-118452380D01*
X129692738Y-118452380D01*
X129787976Y-118404761D01*
X129835595Y-118357142D01*
X129883214Y-118261904D01*
X129883214Y-118166666D01*
X129835595Y-118071428D01*
X129787976Y-118023809D01*
X129692738Y-117976190D01*
X129502261Y-117928571D01*
X129407023Y-117880952D01*
X129359404Y-117833333D01*
X129311785Y-117738095D01*
X129311785Y-117642857D01*
X129359404Y-117547619D01*
X129407023Y-117500000D01*
X129502261Y-117452380D01*
X129740357Y-117452380D01*
X129883214Y-117500000D01*
X130645119Y-117928571D02*
X130787976Y-117976190D01*
X130835595Y-118023809D01*
X130883214Y-118119047D01*
X130883214Y-118261904D01*
X130835595Y-118357142D01*
X130787976Y-118404761D01*
X130692738Y-118452380D01*
X130311785Y-118452380D01*
X130311785Y-117452380D01*
X130645119Y-117452380D01*
X130740357Y-117500000D01*
X130787976Y-117547619D01*
X130835595Y-117642857D01*
X130835595Y-117738095D01*
X130787976Y-117833333D01*
X130740357Y-117880952D01*
X130645119Y-117928571D01*
X130311785Y-117928571D01*
X132073690Y-118452380D02*
X132073690Y-117452380D01*
X132073690Y-117928571D02*
X132645119Y-117928571D01*
X132645119Y-118452380D02*
X132645119Y-117452380D01*
X133311785Y-117452380D02*
X133502261Y-117452380D01*
X133597500Y-117500000D01*
X133692738Y-117595238D01*
X133740357Y-117785714D01*
X133740357Y-118119047D01*
X133692738Y-118309523D01*
X133597500Y-118404761D01*
X133502261Y-118452380D01*
X133311785Y-118452380D01*
X133216547Y-118404761D01*
X133121309Y-118309523D01*
X133073690Y-118119047D01*
X133073690Y-117785714D01*
X133121309Y-117595238D01*
X133216547Y-117500000D01*
X133311785Y-117452380D01*
X134121309Y-118404761D02*
X134264166Y-118452380D01*
X134502261Y-118452380D01*
X134597500Y-118404761D01*
X134645119Y-118357142D01*
X134692738Y-118261904D01*
X134692738Y-118166666D01*
X134645119Y-118071428D01*
X134597500Y-118023809D01*
X134502261Y-117976190D01*
X134311785Y-117928571D01*
X134216547Y-117880952D01*
X134168928Y-117833333D01*
X134121309Y-117738095D01*
X134121309Y-117642857D01*
X134168928Y-117547619D01*
X134216547Y-117500000D01*
X134311785Y-117452380D01*
X134549880Y-117452380D01*
X134692738Y-117500000D01*
X134978452Y-117452380D02*
X135549880Y-117452380D01*
X135264166Y-118452380D02*
X135264166Y-117452380D01*
X136835595Y-117452380D02*
X137026071Y-117452380D01*
X137121309Y-117500000D01*
X137216547Y-117595238D01*
X137264166Y-117785714D01*
X137264166Y-118119047D01*
X137216547Y-118309523D01*
X137121309Y-118404761D01*
X137026071Y-118452380D01*
X136835595Y-118452380D01*
X136740357Y-118404761D01*
X136645119Y-118309523D01*
X136597500Y-118119047D01*
X136597500Y-117785714D01*
X136645119Y-117595238D01*
X136740357Y-117500000D01*
X136835595Y-117452380D01*
X138264166Y-118452380D02*
X137930833Y-117976190D01*
X137692738Y-118452380D02*
X137692738Y-117452380D01*
X138073690Y-117452380D01*
X138168928Y-117500000D01*
X138216547Y-117547619D01*
X138264166Y-117642857D01*
X138264166Y-117785714D01*
X138216547Y-117880952D01*
X138168928Y-117928571D01*
X138073690Y-117976190D01*
X137692738Y-117976190D01*
X139454642Y-118452380D02*
X139454642Y-117452380D01*
X139692738Y-117452380D01*
X139835595Y-117500000D01*
X139930833Y-117595238D01*
X139978452Y-117690476D01*
X140026071Y-117880952D01*
X140026071Y-118023809D01*
X139978452Y-118214285D01*
X139930833Y-118309523D01*
X139835595Y-118404761D01*
X139692738Y-118452380D01*
X139454642Y-118452380D01*
X140454642Y-117928571D02*
X140787976Y-117928571D01*
X140930833Y-118452380D02*
X140454642Y-118452380D01*
X140454642Y-117452380D01*
X140930833Y-117452380D01*
X141216547Y-117452380D02*
X141549880Y-118452380D01*
X141883214Y-117452380D01*
X142216547Y-118452380D02*
X142216547Y-117452380D01*
X143264166Y-118357142D02*
X143216547Y-118404761D01*
X143073690Y-118452380D01*
X142978452Y-118452380D01*
X142835595Y-118404761D01*
X142740357Y-118309523D01*
X142692738Y-118214285D01*
X142645119Y-118023809D01*
X142645119Y-117880952D01*
X142692738Y-117690476D01*
X142740357Y-117595238D01*
X142835595Y-117500000D01*
X142978452Y-117452380D01*
X143073690Y-117452380D01*
X143216547Y-117500000D01*
X143264166Y-117547619D01*
X143692738Y-117928571D02*
X144026071Y-117928571D01*
X144168928Y-118452380D02*
X143692738Y-118452380D01*
X143692738Y-117452380D01*
X144168928Y-117452380D01*
X145621309Y-82952380D02*
X145621309Y-83666666D01*
X145573690Y-83809523D01*
X145478452Y-83904761D01*
X145335595Y-83952380D01*
X145240357Y-83952380D01*
X146240357Y-83380952D02*
X146145119Y-83333333D01*
X146097500Y-83285714D01*
X146049880Y-83190476D01*
X146049880Y-83142857D01*
X146097500Y-83047619D01*
X146145119Y-83000000D01*
X146240357Y-82952380D01*
X146430833Y-82952380D01*
X146526071Y-83000000D01*
X146573690Y-83047619D01*
X146621309Y-83142857D01*
X146621309Y-83190476D01*
X146573690Y-83285714D01*
X146526071Y-83333333D01*
X146430833Y-83380952D01*
X146240357Y-83380952D01*
X146145119Y-83428571D01*
X146097500Y-83476190D01*
X146049880Y-83571428D01*
X146049880Y-83761904D01*
X146097500Y-83857142D01*
X146145119Y-83904761D01*
X146240357Y-83952380D01*
X146430833Y-83952380D01*
X146526071Y-83904761D01*
X146573690Y-83857142D01*
X146621309Y-83761904D01*
X146621309Y-83571428D01*
X146573690Y-83476190D01*
X146526071Y-83428571D01*
X146430833Y-83380952D01*
X147811785Y-83571428D02*
X148573690Y-83571428D01*
X149811785Y-83952380D02*
X149811785Y-82952380D01*
X150192738Y-82952380D01*
X150287976Y-83000000D01*
X150335595Y-83047619D01*
X150383214Y-83142857D01*
X150383214Y-83285714D01*
X150335595Y-83380952D01*
X150287976Y-83428571D01*
X150192738Y-83476190D01*
X149811785Y-83476190D01*
X151002261Y-82952380D02*
X151192738Y-82952380D01*
X151287976Y-83000000D01*
X151383214Y-83095238D01*
X151430833Y-83285714D01*
X151430833Y-83619047D01*
X151383214Y-83809523D01*
X151287976Y-83904761D01*
X151192738Y-83952380D01*
X151002261Y-83952380D01*
X150907023Y-83904761D01*
X150811785Y-83809523D01*
X150764166Y-83619047D01*
X150764166Y-83285714D01*
X150811785Y-83095238D01*
X150907023Y-83000000D01*
X151002261Y-82952380D01*
X151764166Y-82952380D02*
X152002261Y-83952380D01*
X152192738Y-83238095D01*
X152383214Y-83952380D01*
X152621309Y-82952380D01*
X153002261Y-83428571D02*
X153335595Y-83428571D01*
X153478452Y-83952380D02*
X153002261Y-83952380D01*
X153002261Y-82952380D01*
X153478452Y-82952380D01*
X154478452Y-83952380D02*
X154145119Y-83476190D01*
X153907023Y-83952380D02*
X153907023Y-82952380D01*
X154287976Y-82952380D01*
X154383214Y-83000000D01*
X154430833Y-83047619D01*
X154478452Y-83142857D01*
X154478452Y-83285714D01*
X154430833Y-83380952D01*
X154383214Y-83428571D01*
X154287976Y-83476190D01*
X153907023Y-83476190D01*
X155859404Y-82952380D02*
X156049880Y-82952380D01*
X156145119Y-83000000D01*
X156240357Y-83095238D01*
X156287976Y-83285714D01*
X156287976Y-83619047D01*
X156240357Y-83809523D01*
X156145119Y-83904761D01*
X156049880Y-83952380D01*
X155859404Y-83952380D01*
X155764166Y-83904761D01*
X155668928Y-83809523D01*
X155621309Y-83619047D01*
X155621309Y-83285714D01*
X155668928Y-83095238D01*
X155764166Y-83000000D01*
X155859404Y-82952380D01*
X156716547Y-82952380D02*
X156716547Y-83761904D01*
X156764166Y-83857142D01*
X156811785Y-83904761D01*
X156907023Y-83952380D01*
X157097500Y-83952380D01*
X157192738Y-83904761D01*
X157240357Y-83857142D01*
X157287976Y-83761904D01*
X157287976Y-82952380D01*
X157621309Y-82952380D02*
X158192738Y-82952380D01*
X157907023Y-83952380D02*
X157907023Y-82952380D01*
X159287976Y-83428571D02*
X159621309Y-83428571D01*
X159764166Y-83952380D02*
X159287976Y-83952380D01*
X159287976Y-82952380D01*
X159764166Y-82952380D01*
X160192738Y-83952380D02*
X160192738Y-82952380D01*
X160764166Y-83952380D01*
X160764166Y-82952380D01*
X137938095Y-62600000D02*
X137842857Y-62552380D01*
X137700000Y-62552380D01*
X137557142Y-62600000D01*
X137461904Y-62695238D01*
X137414285Y-62790476D01*
X137366666Y-62980952D01*
X137366666Y-63123809D01*
X137414285Y-63314285D01*
X137461904Y-63409523D01*
X137557142Y-63504761D01*
X137700000Y-63552380D01*
X137795238Y-63552380D01*
X137938095Y-63504761D01*
X137985714Y-63457142D01*
X137985714Y-63123809D01*
X137795238Y-63123809D01*
X138414285Y-63552380D02*
X138414285Y-62552380D01*
X138985714Y-63552380D01*
X138985714Y-62552380D01*
X139461904Y-63552380D02*
X139461904Y-62552380D01*
X139700000Y-62552380D01*
X139842857Y-62600000D01*
X139938095Y-62695238D01*
X139985714Y-62790476D01*
X140033333Y-62980952D01*
X140033333Y-63123809D01*
X139985714Y-63314285D01*
X139938095Y-63409523D01*
X139842857Y-63504761D01*
X139700000Y-63552380D01*
X139461904Y-63552380D01*
X124121309Y-115702380D02*
X124121309Y-116416666D01*
X124073690Y-116559523D01*
X123978452Y-116654761D01*
X123835595Y-116702380D01*
X123740357Y-116702380D01*
X124549880Y-115797619D02*
X124597500Y-115750000D01*
X124692738Y-115702380D01*
X124930833Y-115702380D01*
X125026071Y-115750000D01*
X125073690Y-115797619D01*
X125121309Y-115892857D01*
X125121309Y-115988095D01*
X125073690Y-116130952D01*
X124502261Y-116702380D01*
X125121309Y-116702380D01*
X126311785Y-116321428D02*
X127073690Y-116321428D01*
X128311785Y-115702380D02*
X128311785Y-116511904D01*
X128359404Y-116607142D01*
X128407023Y-116654761D01*
X128502261Y-116702380D01*
X128692738Y-116702380D01*
X128787976Y-116654761D01*
X128835595Y-116607142D01*
X128883214Y-116511904D01*
X128883214Y-115702380D01*
X129311785Y-116654761D02*
X129454642Y-116702380D01*
X129692738Y-116702380D01*
X129787976Y-116654761D01*
X129835595Y-116607142D01*
X129883214Y-116511904D01*
X129883214Y-116416666D01*
X129835595Y-116321428D01*
X129787976Y-116273809D01*
X129692738Y-116226190D01*
X129502261Y-116178571D01*
X129407023Y-116130952D01*
X129359404Y-116083333D01*
X129311785Y-115988095D01*
X129311785Y-115892857D01*
X129359404Y-115797619D01*
X129407023Y-115750000D01*
X129502261Y-115702380D01*
X129740357Y-115702380D01*
X129883214Y-115750000D01*
X130645119Y-116178571D02*
X130787976Y-116226190D01*
X130835595Y-116273809D01*
X130883214Y-116369047D01*
X130883214Y-116511904D01*
X130835595Y-116607142D01*
X130787976Y-116654761D01*
X130692738Y-116702380D01*
X130311785Y-116702380D01*
X130311785Y-115702380D01*
X130645119Y-115702380D01*
X130740357Y-115750000D01*
X130787976Y-115797619D01*
X130835595Y-115892857D01*
X130835595Y-115988095D01*
X130787976Y-116083333D01*
X130740357Y-116130952D01*
X130645119Y-116178571D01*
X130311785Y-116178571D01*
X132073690Y-116702380D02*
X132073690Y-115702380D01*
X132311785Y-115702380D01*
X132454642Y-115750000D01*
X132549880Y-115845238D01*
X132597500Y-115940476D01*
X132645119Y-116130952D01*
X132645119Y-116273809D01*
X132597500Y-116464285D01*
X132549880Y-116559523D01*
X132454642Y-116654761D01*
X132311785Y-116702380D01*
X132073690Y-116702380D01*
X133073690Y-116178571D02*
X133407023Y-116178571D01*
X133549880Y-116702380D02*
X133073690Y-116702380D01*
X133073690Y-115702380D01*
X133549880Y-115702380D01*
X133835595Y-115702380D02*
X134168928Y-116702380D01*
X134502261Y-115702380D01*
X134835595Y-116702380D02*
X134835595Y-115702380D01*
X135883214Y-116607142D02*
X135835595Y-116654761D01*
X135692738Y-116702380D01*
X135597500Y-116702380D01*
X135454642Y-116654761D01*
X135359404Y-116559523D01*
X135311785Y-116464285D01*
X135264166Y-116273809D01*
X135264166Y-116130952D01*
X135311785Y-115940476D01*
X135359404Y-115845238D01*
X135454642Y-115750000D01*
X135597500Y-115702380D01*
X135692738Y-115702380D01*
X135835595Y-115750000D01*
X135883214Y-115797619D01*
X136311785Y-116178571D02*
X136645119Y-116178571D01*
X136787976Y-116702380D02*
X136311785Y-116702380D01*
X136311785Y-115702380D01*
X136787976Y-115702380D01*
X138168928Y-115702380D02*
X138359404Y-115702380D01*
X138454642Y-115750000D01*
X138549880Y-115845238D01*
X138597500Y-116035714D01*
X138597500Y-116369047D01*
X138549880Y-116559523D01*
X138454642Y-116654761D01*
X138359404Y-116702380D01*
X138168928Y-116702380D01*
X138073690Y-116654761D01*
X137978452Y-116559523D01*
X137930833Y-116369047D01*
X137930833Y-116035714D01*
X137978452Y-115845238D01*
X138073690Y-115750000D01*
X138168928Y-115702380D01*
X139026071Y-116702380D02*
X139026071Y-115702380D01*
X139597500Y-116702380D01*
X139597500Y-115702380D01*
X140549880Y-116702380D02*
X140073690Y-116702380D01*
X140073690Y-115702380D01*
X141073690Y-116226190D02*
X141073690Y-116702380D01*
X140740357Y-115702380D02*
X141073690Y-116226190D01*
X141407023Y-115702380D01*
X145621309Y-81202380D02*
X145621309Y-81916666D01*
X145573690Y-82059523D01*
X145478452Y-82154761D01*
X145335595Y-82202380D01*
X145240357Y-82202380D01*
X146002261Y-81202380D02*
X146668928Y-81202380D01*
X146240357Y-82202380D01*
X147811785Y-81821428D02*
X148573690Y-81821428D01*
X149811785Y-81202380D02*
X149811785Y-82011904D01*
X149859404Y-82107142D01*
X149907023Y-82154761D01*
X150002261Y-82202380D01*
X150192738Y-82202380D01*
X150287976Y-82154761D01*
X150335595Y-82107142D01*
X150383214Y-82011904D01*
X150383214Y-81202380D01*
X150811785Y-82154761D02*
X150954642Y-82202380D01*
X151192738Y-82202380D01*
X151287976Y-82154761D01*
X151335595Y-82107142D01*
X151383214Y-82011904D01*
X151383214Y-81916666D01*
X151335595Y-81821428D01*
X151287976Y-81773809D01*
X151192738Y-81726190D01*
X151002261Y-81678571D01*
X150907023Y-81630952D01*
X150859404Y-81583333D01*
X150811785Y-81488095D01*
X150811785Y-81392857D01*
X150859404Y-81297619D01*
X150907023Y-81250000D01*
X151002261Y-81202380D01*
X151240357Y-81202380D01*
X151383214Y-81250000D01*
X152145119Y-81678571D02*
X152287976Y-81726190D01*
X152335595Y-81773809D01*
X152383214Y-81869047D01*
X152383214Y-82011904D01*
X152335595Y-82107142D01*
X152287976Y-82154761D01*
X152192738Y-82202380D01*
X151811785Y-82202380D01*
X151811785Y-81202380D01*
X152145119Y-81202380D01*
X152240357Y-81250000D01*
X152287976Y-81297619D01*
X152335595Y-81392857D01*
X152335595Y-81488095D01*
X152287976Y-81583333D01*
X152240357Y-81630952D01*
X152145119Y-81678571D01*
X151811785Y-81678571D01*
X154145119Y-82107142D02*
X154097500Y-82154761D01*
X153954642Y-82202380D01*
X153859404Y-82202380D01*
X153716547Y-82154761D01*
X153621309Y-82059523D01*
X153573690Y-81964285D01*
X153526071Y-81773809D01*
X153526071Y-81630952D01*
X153573690Y-81440476D01*
X153621309Y-81345238D01*
X153716547Y-81250000D01*
X153859404Y-81202380D01*
X153954642Y-81202380D01*
X154097500Y-81250000D01*
X154145119Y-81297619D01*
X155145119Y-82107142D02*
X155097500Y-82154761D01*
X154954642Y-82202380D01*
X154859404Y-82202380D01*
X154716547Y-82154761D01*
X154621309Y-82059523D01*
X154573690Y-81964285D01*
X154526071Y-81773809D01*
X154526071Y-81630952D01*
X154573690Y-81440476D01*
X154621309Y-81345238D01*
X154716547Y-81250000D01*
X154859404Y-81202380D01*
X154954642Y-81202380D01*
X155097500Y-81250000D01*
X155145119Y-81297619D01*
X155526071Y-81297619D02*
X155573690Y-81250000D01*
X155668928Y-81202380D01*
X155907023Y-81202380D01*
X156002261Y-81250000D01*
X156049880Y-81297619D01*
X156097500Y-81392857D01*
X156097500Y-81488095D01*
X156049880Y-81630952D01*
X155478452Y-82202380D01*
X156097500Y-82202380D01*
X136842857Y-60428571D02*
X136985714Y-60476190D01*
X137033333Y-60523809D01*
X137080952Y-60619047D01*
X137080952Y-60761904D01*
X137033333Y-60857142D01*
X136985714Y-60904761D01*
X136890476Y-60952380D01*
X136509523Y-60952380D01*
X136509523Y-59952380D01*
X136842857Y-59952380D01*
X136938095Y-60000000D01*
X136985714Y-60047619D01*
X137033333Y-60142857D01*
X137033333Y-60238095D01*
X136985714Y-60333333D01*
X136938095Y-60380952D01*
X136842857Y-60428571D01*
X136509523Y-60428571D01*
X137700000Y-59952380D02*
X137890476Y-59952380D01*
X137985714Y-60000000D01*
X138080952Y-60095238D01*
X138128571Y-60285714D01*
X138128571Y-60619047D01*
X138080952Y-60809523D01*
X137985714Y-60904761D01*
X137890476Y-60952380D01*
X137700000Y-60952380D01*
X137604761Y-60904761D01*
X137509523Y-60809523D01*
X137461904Y-60619047D01*
X137461904Y-60285714D01*
X137509523Y-60095238D01*
X137604761Y-60000000D01*
X137700000Y-59952380D01*
X138747619Y-59952380D02*
X138938095Y-59952380D01*
X139033333Y-60000000D01*
X139128571Y-60095238D01*
X139176190Y-60285714D01*
X139176190Y-60619047D01*
X139128571Y-60809523D01*
X139033333Y-60904761D01*
X138938095Y-60952380D01*
X138747619Y-60952380D01*
X138652380Y-60904761D01*
X138557142Y-60809523D01*
X138509523Y-60619047D01*
X138509523Y-60285714D01*
X138557142Y-60095238D01*
X138652380Y-60000000D01*
X138747619Y-59952380D01*
X139461904Y-59952380D02*
X140033333Y-59952380D01*
X139747619Y-60952380D02*
X139747619Y-59952380D01*
X144630952Y-71452380D02*
X144630952Y-72166666D01*
X144583333Y-72309523D01*
X144488095Y-72404761D01*
X144345238Y-72452380D01*
X144250000Y-72452380D01*
X145583333Y-71452380D02*
X145107142Y-71452380D01*
X145059523Y-71928571D01*
X145107142Y-71880952D01*
X145202380Y-71833333D01*
X145440476Y-71833333D01*
X145535714Y-71880952D01*
X145583333Y-71928571D01*
X145630952Y-72023809D01*
X145630952Y-72261904D01*
X145583333Y-72357142D01*
X145535714Y-72404761D01*
X145440476Y-72452380D01*
X145202380Y-72452380D01*
X145107142Y-72404761D01*
X145059523Y-72357142D01*
X146821428Y-72071428D02*
X147583333Y-72071428D01*
X149154761Y-71928571D02*
X149297619Y-71976190D01*
X149345238Y-72023809D01*
X149392857Y-72119047D01*
X149392857Y-72261904D01*
X149345238Y-72357142D01*
X149297619Y-72404761D01*
X149202380Y-72452380D01*
X148821428Y-72452380D01*
X148821428Y-71452380D01*
X149154761Y-71452380D01*
X149250000Y-71500000D01*
X149297619Y-71547619D01*
X149345238Y-71642857D01*
X149345238Y-71738095D01*
X149297619Y-71833333D01*
X149250000Y-71880952D01*
X149154761Y-71928571D01*
X148821428Y-71928571D01*
X150011904Y-71452380D02*
X150202380Y-71452380D01*
X150297619Y-71500000D01*
X150392857Y-71595238D01*
X150440476Y-71785714D01*
X150440476Y-72119047D01*
X150392857Y-72309523D01*
X150297619Y-72404761D01*
X150202380Y-72452380D01*
X150011904Y-72452380D01*
X149916666Y-72404761D01*
X149821428Y-72309523D01*
X149773809Y-72119047D01*
X149773809Y-71785714D01*
X149821428Y-71595238D01*
X149916666Y-71500000D01*
X150011904Y-71452380D01*
X151059523Y-71452380D02*
X151250000Y-71452380D01*
X151345238Y-71500000D01*
X151440476Y-71595238D01*
X151488095Y-71785714D01*
X151488095Y-72119047D01*
X151440476Y-72309523D01*
X151345238Y-72404761D01*
X151250000Y-72452380D01*
X151059523Y-72452380D01*
X150964285Y-72404761D01*
X150869047Y-72309523D01*
X150821428Y-72119047D01*
X150821428Y-71785714D01*
X150869047Y-71595238D01*
X150964285Y-71500000D01*
X151059523Y-71452380D01*
X151773809Y-71452380D02*
X152345238Y-71452380D01*
X152059523Y-72452380D02*
X152059523Y-71452380D01*
X153202380Y-72452380D02*
X152630952Y-72452380D01*
X152916666Y-72452380D02*
X152916666Y-71452380D01*
X152821428Y-71595238D01*
X152726190Y-71690476D01*
X152630952Y-71738095D01*
X145621309Y-79452380D02*
X145621309Y-80166666D01*
X145573690Y-80309523D01*
X145478452Y-80404761D01*
X145335595Y-80452380D01*
X145240357Y-80452380D01*
X146526071Y-79452380D02*
X146335595Y-79452380D01*
X146240357Y-79500000D01*
X146192738Y-79547619D01*
X146097500Y-79690476D01*
X146049880Y-79880952D01*
X146049880Y-80261904D01*
X146097500Y-80357142D01*
X146145119Y-80404761D01*
X146240357Y-80452380D01*
X146430833Y-80452380D01*
X146526071Y-80404761D01*
X146573690Y-80357142D01*
X146621309Y-80261904D01*
X146621309Y-80023809D01*
X146573690Y-79928571D01*
X146526071Y-79880952D01*
X146430833Y-79833333D01*
X146240357Y-79833333D01*
X146145119Y-79880952D01*
X146097500Y-79928571D01*
X146049880Y-80023809D01*
X147811785Y-80071428D02*
X148573690Y-80071428D01*
X149811785Y-79452380D02*
X149811785Y-80261904D01*
X149859404Y-80357142D01*
X149907023Y-80404761D01*
X150002261Y-80452380D01*
X150192738Y-80452380D01*
X150287976Y-80404761D01*
X150335595Y-80357142D01*
X150383214Y-80261904D01*
X150383214Y-79452380D01*
X150811785Y-80404761D02*
X150954642Y-80452380D01*
X151192738Y-80452380D01*
X151287976Y-80404761D01*
X151335595Y-80357142D01*
X151383214Y-80261904D01*
X151383214Y-80166666D01*
X151335595Y-80071428D01*
X151287976Y-80023809D01*
X151192738Y-79976190D01*
X151002261Y-79928571D01*
X150907023Y-79880952D01*
X150859404Y-79833333D01*
X150811785Y-79738095D01*
X150811785Y-79642857D01*
X150859404Y-79547619D01*
X150907023Y-79500000D01*
X151002261Y-79452380D01*
X151240357Y-79452380D01*
X151383214Y-79500000D01*
X152145119Y-79928571D02*
X152287976Y-79976190D01*
X152335595Y-80023809D01*
X152383214Y-80119047D01*
X152383214Y-80261904D01*
X152335595Y-80357142D01*
X152287976Y-80404761D01*
X152192738Y-80452380D01*
X151811785Y-80452380D01*
X151811785Y-79452380D01*
X152145119Y-79452380D01*
X152240357Y-79500000D01*
X152287976Y-79547619D01*
X152335595Y-79642857D01*
X152335595Y-79738095D01*
X152287976Y-79833333D01*
X152240357Y-79880952D01*
X152145119Y-79928571D01*
X151811785Y-79928571D01*
X154145119Y-80357142D02*
X154097500Y-80404761D01*
X153954642Y-80452380D01*
X153859404Y-80452380D01*
X153716547Y-80404761D01*
X153621309Y-80309523D01*
X153573690Y-80214285D01*
X153526071Y-80023809D01*
X153526071Y-79880952D01*
X153573690Y-79690476D01*
X153621309Y-79595238D01*
X153716547Y-79500000D01*
X153859404Y-79452380D01*
X153954642Y-79452380D01*
X154097500Y-79500000D01*
X154145119Y-79547619D01*
X155145119Y-80357142D02*
X155097500Y-80404761D01*
X154954642Y-80452380D01*
X154859404Y-80452380D01*
X154716547Y-80404761D01*
X154621309Y-80309523D01*
X154573690Y-80214285D01*
X154526071Y-80023809D01*
X154526071Y-79880952D01*
X154573690Y-79690476D01*
X154621309Y-79595238D01*
X154716547Y-79500000D01*
X154859404Y-79452380D01*
X154954642Y-79452380D01*
X155097500Y-79500000D01*
X155145119Y-79547619D01*
X156097500Y-80452380D02*
X155526071Y-80452380D01*
X155811785Y-80452380D02*
X155811785Y-79452380D01*
X155716547Y-79595238D01*
X155621309Y-79690476D01*
X155526071Y-79738095D01*
D11*
X138321428Y-83392857D02*
X138821428Y-83392857D01*
X139035714Y-84178571D02*
X138321428Y-84178571D01*
X138321428Y-82678571D01*
X139035714Y-82678571D01*
X140392857Y-84178571D02*
X139678571Y-84178571D01*
X139678571Y-82678571D01*
X141750000Y-84178571D02*
X141250000Y-83464285D01*
X140892857Y-84178571D02*
X140892857Y-82678571D01*
X141464285Y-82678571D01*
X141607142Y-82750000D01*
X141678571Y-82821428D01*
X141750000Y-82964285D01*
X141750000Y-83178571D01*
X141678571Y-83321428D01*
X141607142Y-83392857D01*
X141464285Y-83464285D01*
X140892857Y-83464285D01*
X141964285Y-137500000D02*
X142678571Y-137500000D01*
X141821428Y-137928571D02*
X142321428Y-136428571D01*
X142821428Y-137928571D01*
X143535714Y-137928571D02*
X143392857Y-137857142D01*
X143321428Y-137714285D01*
X143321428Y-136428571D01*
X144750000Y-137857142D02*
X144607142Y-137928571D01*
X144321428Y-137928571D01*
X144178571Y-137857142D01*
X144107142Y-137785714D01*
X144035714Y-137642857D01*
X144035714Y-137214285D01*
X144107142Y-137071428D01*
X144178571Y-137000000D01*
X144321428Y-136928571D01*
X144607142Y-136928571D01*
X144750000Y-137000000D01*
X145392857Y-137928571D02*
X145392857Y-136428571D01*
X146035714Y-137928571D02*
X146035714Y-137142857D01*
X145964285Y-137000000D01*
X145821428Y-136928571D01*
X145607142Y-136928571D01*
X145464285Y-137000000D01*
X145392857Y-137071428D01*
X147321428Y-137857142D02*
X147178571Y-137928571D01*
X146892857Y-137928571D01*
X146750000Y-137857142D01*
X146678571Y-137714285D01*
X146678571Y-137142857D01*
X146750000Y-137000000D01*
X146892857Y-136928571D01*
X147178571Y-136928571D01*
X147321428Y-137000000D01*
X147392857Y-137142857D01*
X147392857Y-137285714D01*
X146678571Y-137428571D01*
X148035714Y-137928571D02*
X148035714Y-136928571D01*
X148035714Y-137071428D02*
X148107142Y-137000000D01*
X148250000Y-136928571D01*
X148464285Y-136928571D01*
X148607142Y-137000000D01*
X148678571Y-137142857D01*
X148678571Y-137928571D01*
X148678571Y-137142857D02*
X148750000Y-137000000D01*
X148892857Y-136928571D01*
X149107142Y-136928571D01*
X149250000Y-137000000D01*
X149321428Y-137142857D01*
X149321428Y-137928571D01*
X149892857Y-136928571D02*
X150250000Y-137928571D01*
X150607142Y-136928571D02*
X150250000Y-137928571D01*
X150107142Y-138285714D01*
X150035714Y-138357142D01*
X149892857Y-138428571D01*
X152107142Y-136428571D02*
X152607142Y-137928571D01*
X153107142Y-136428571D01*
X153535714Y-136571428D02*
X153607142Y-136500000D01*
X153750000Y-136428571D01*
X154107142Y-136428571D01*
X154250000Y-136500000D01*
X154321428Y-136571428D01*
X154392857Y-136714285D01*
X154392857Y-136857142D01*
X154321428Y-137071428D01*
X153464285Y-137928571D01*
X154392857Y-137928571D01*
X155035714Y-137785714D02*
X155107142Y-137857142D01*
X155035714Y-137928571D01*
X154964285Y-137857142D01*
X155035714Y-137785714D01*
X155035714Y-137928571D01*
X156035714Y-136428571D02*
X156178571Y-136428571D01*
X156321428Y-136500000D01*
X156392857Y-136571428D01*
X156464285Y-136714285D01*
X156535714Y-137000000D01*
X156535714Y-137357142D01*
X156464285Y-137642857D01*
X156392857Y-137785714D01*
X156321428Y-137857142D01*
X156178571Y-137928571D01*
X156035714Y-137928571D01*
X155892857Y-137857142D01*
X155821428Y-137785714D01*
X155750000Y-137642857D01*
X155678571Y-137357142D01*
X155678571Y-137000000D01*
X155750000Y-136714285D01*
X155821428Y-136571428D01*
X155892857Y-136500000D01*
X156035714Y-136428571D01*
X157678571Y-137142857D02*
X157892857Y-137214285D01*
X157964285Y-137285714D01*
X158035714Y-137428571D01*
X158035714Y-137642857D01*
X157964285Y-137785714D01*
X157892857Y-137857142D01*
X157750000Y-137928571D01*
X157178571Y-137928571D01*
X157178571Y-136428571D01*
X157678571Y-136428571D01*
X157821428Y-136500000D01*
X157892857Y-136571428D01*
X157964285Y-136714285D01*
X157964285Y-136857142D01*
X157892857Y-137000000D01*
X157821428Y-137071428D01*
X157678571Y-137142857D01*
X157178571Y-137142857D01*
D10*
X161238095Y-93500000D02*
X161142857Y-93452380D01*
X161000000Y-93452380D01*
X160857142Y-93500000D01*
X160761904Y-93595238D01*
X160714285Y-93690476D01*
X160666666Y-93880952D01*
X160666666Y-94023809D01*
X160714285Y-94214285D01*
X160761904Y-94309523D01*
X160857142Y-94404761D01*
X161000000Y-94452380D01*
X161095238Y-94452380D01*
X161238095Y-94404761D01*
X161285714Y-94357142D01*
X161285714Y-94023809D01*
X161095238Y-94023809D01*
X161714285Y-94452380D02*
X161714285Y-93452380D01*
X162285714Y-94452380D01*
X162285714Y-93452380D01*
X162761904Y-94452380D02*
X162761904Y-93452380D01*
X163000000Y-93452380D01*
X163142857Y-93500000D01*
X163238095Y-93595238D01*
X163285714Y-93690476D01*
X163333333Y-93880952D01*
X163333333Y-94023809D01*
X163285714Y-94214285D01*
X163238095Y-94309523D01*
X163142857Y-94404761D01*
X163000000Y-94452380D01*
X162761904Y-94452380D01*
X165547619Y-63752380D02*
X165214285Y-63276190D01*
X164976190Y-63752380D02*
X164976190Y-62752380D01*
X165357142Y-62752380D01*
X165452380Y-62800000D01*
X165500000Y-62847619D01*
X165547619Y-62942857D01*
X165547619Y-63085714D01*
X165500000Y-63180952D01*
X165452380Y-63228571D01*
X165357142Y-63276190D01*
X164976190Y-63276190D01*
X165976190Y-63228571D02*
X166309523Y-63228571D01*
X166452380Y-63752380D02*
X165976190Y-63752380D01*
X165976190Y-62752380D01*
X166452380Y-62752380D01*
X166833333Y-63704761D02*
X166976190Y-63752380D01*
X167214285Y-63752380D01*
X167309523Y-63704761D01*
X167357142Y-63657142D01*
X167404761Y-63561904D01*
X167404761Y-63466666D01*
X167357142Y-63371428D01*
X167309523Y-63323809D01*
X167214285Y-63276190D01*
X167023809Y-63228571D01*
X166928571Y-63180952D01*
X166880952Y-63133333D01*
X166833333Y-63038095D01*
X166833333Y-62942857D01*
X166880952Y-62847619D01*
X166928571Y-62800000D01*
X167023809Y-62752380D01*
X167261904Y-62752380D01*
X167404761Y-62800000D01*
X167833333Y-63228571D02*
X168166666Y-63228571D01*
X168309523Y-63752380D02*
X167833333Y-63752380D01*
X167833333Y-62752380D01*
X168309523Y-62752380D01*
X168595238Y-62752380D02*
X169166666Y-62752380D01*
X168880952Y-63752380D02*
X168880952Y-62752380D01*
X137561904Y-57452380D02*
X138180952Y-57452380D01*
X137847619Y-57833333D01*
X137990476Y-57833333D01*
X138085714Y-57880952D01*
X138133333Y-57928571D01*
X138180952Y-58023809D01*
X138180952Y-58261904D01*
X138133333Y-58357142D01*
X138085714Y-58404761D01*
X137990476Y-58452380D01*
X137704761Y-58452380D01*
X137609523Y-58404761D01*
X137561904Y-58357142D01*
X138466666Y-57452380D02*
X138800000Y-58452380D01*
X139133333Y-57452380D01*
X139371428Y-57452380D02*
X139990476Y-57452380D01*
X139657142Y-57833333D01*
X139800000Y-57833333D01*
X139895238Y-57880952D01*
X139942857Y-57928571D01*
X139990476Y-58023809D01*
X139990476Y-58261904D01*
X139942857Y-58357142D01*
X139895238Y-58404761D01*
X139800000Y-58452380D01*
X139514285Y-58452380D01*
X139419047Y-58404761D01*
X139371428Y-58357142D01*
X160488095Y-89404761D02*
X160630952Y-89452380D01*
X160869047Y-89452380D01*
X160964285Y-89404761D01*
X161011904Y-89357142D01*
X161059523Y-89261904D01*
X161059523Y-89166666D01*
X161011904Y-89071428D01*
X160964285Y-89023809D01*
X160869047Y-88976190D01*
X160678571Y-88928571D01*
X160583333Y-88880952D01*
X160535714Y-88833333D01*
X160488095Y-88738095D01*
X160488095Y-88642857D01*
X160535714Y-88547619D01*
X160583333Y-88500000D01*
X160678571Y-88452380D01*
X160916666Y-88452380D01*
X161059523Y-88500000D01*
X161392857Y-88452380D02*
X161630952Y-89452380D01*
X161821428Y-88738095D01*
X162011904Y-89452380D01*
X162250000Y-88452380D01*
X163202380Y-89357142D02*
X163154761Y-89404761D01*
X163011904Y-89452380D01*
X162916666Y-89452380D01*
X162773809Y-89404761D01*
X162678571Y-89309523D01*
X162630952Y-89214285D01*
X162583333Y-89023809D01*
X162583333Y-88880952D01*
X162630952Y-88690476D01*
X162678571Y-88595238D01*
X162773809Y-88500000D01*
X162916666Y-88452380D01*
X163011904Y-88452380D01*
X163154761Y-88500000D01*
X163202380Y-88547619D01*
X164107142Y-89452380D02*
X163630952Y-89452380D01*
X163630952Y-88452380D01*
X164440476Y-89452380D02*
X164440476Y-88452380D01*
X165011904Y-89452380D02*
X164583333Y-88880952D01*
X165011904Y-88452380D02*
X164440476Y-89023809D01*
%TO.C,C24*%
X156357142Y-104142857D02*
X156404761Y-104190476D01*
X156452380Y-104333333D01*
X156452380Y-104428571D01*
X156404761Y-104571428D01*
X156309523Y-104666666D01*
X156214285Y-104714285D01*
X156023809Y-104761904D01*
X155880952Y-104761904D01*
X155690476Y-104714285D01*
X155595238Y-104666666D01*
X155500000Y-104571428D01*
X155452380Y-104428571D01*
X155452380Y-104333333D01*
X155500000Y-104190476D01*
X155547619Y-104142857D01*
X155547619Y-103761904D02*
X155500000Y-103714285D01*
X155452380Y-103619047D01*
X155452380Y-103380952D01*
X155500000Y-103285714D01*
X155547619Y-103238095D01*
X155642857Y-103190476D01*
X155738095Y-103190476D01*
X155880952Y-103238095D01*
X156452380Y-103809523D01*
X156452380Y-103190476D01*
X155785714Y-102333333D02*
X156452380Y-102333333D01*
X155404761Y-102571428D02*
X156119047Y-102809523D01*
X156119047Y-102190476D01*
%TO.C,C11*%
X133357142Y-81857142D02*
X133309523Y-81904761D01*
X133166666Y-81952380D01*
X133071428Y-81952380D01*
X132928571Y-81904761D01*
X132833333Y-81809523D01*
X132785714Y-81714285D01*
X132738095Y-81523809D01*
X132738095Y-81380952D01*
X132785714Y-81190476D01*
X132833333Y-81095238D01*
X132928571Y-81000000D01*
X133071428Y-80952380D01*
X133166666Y-80952380D01*
X133309523Y-81000000D01*
X133357142Y-81047619D01*
X134309523Y-81952380D02*
X133738095Y-81952380D01*
X134023809Y-81952380D02*
X134023809Y-80952380D01*
X133928571Y-81095238D01*
X133833333Y-81190476D01*
X133738095Y-81238095D01*
X135261904Y-81952380D02*
X134690476Y-81952380D01*
X134976190Y-81952380D02*
X134976190Y-80952380D01*
X134880952Y-81095238D01*
X134785714Y-81190476D01*
X134690476Y-81238095D01*
%TO.C,J3*%
X131952380Y-72833333D02*
X132666666Y-72833333D01*
X132809523Y-72880952D01*
X132904761Y-72976190D01*
X132952380Y-73119047D01*
X132952380Y-73214285D01*
X131952380Y-72452380D02*
X131952380Y-71833333D01*
X132333333Y-72166666D01*
X132333333Y-72023809D01*
X132380952Y-71928571D01*
X132428571Y-71880952D01*
X132523809Y-71833333D01*
X132761904Y-71833333D01*
X132857142Y-71880952D01*
X132904761Y-71928571D01*
X132952380Y-72023809D01*
X132952380Y-72309523D01*
X132904761Y-72404761D01*
X132857142Y-72452380D01*
%TO.C,D1*%
X173511904Y-68952380D02*
X173511904Y-67952380D01*
X173750000Y-67952380D01*
X173892857Y-68000000D01*
X173988095Y-68095238D01*
X174035714Y-68190476D01*
X174083333Y-68380952D01*
X174083333Y-68523809D01*
X174035714Y-68714285D01*
X173988095Y-68809523D01*
X173892857Y-68904761D01*
X173750000Y-68952380D01*
X173511904Y-68952380D01*
X175035714Y-68952380D02*
X174464285Y-68952380D01*
X174750000Y-68952380D02*
X174750000Y-67952380D01*
X174654761Y-68095238D01*
X174559523Y-68190476D01*
X174464285Y-68238095D01*
%TO.C,TP3*%
X131938095Y-137952380D02*
X132509523Y-137952380D01*
X132223809Y-138952380D02*
X132223809Y-137952380D01*
X132842857Y-138952380D02*
X132842857Y-137952380D01*
X133223809Y-137952380D01*
X133319047Y-138000000D01*
X133366666Y-138047619D01*
X133414285Y-138142857D01*
X133414285Y-138285714D01*
X133366666Y-138380952D01*
X133319047Y-138428571D01*
X133223809Y-138476190D01*
X132842857Y-138476190D01*
X133747619Y-137952380D02*
X134366666Y-137952380D01*
X134033333Y-138333333D01*
X134176190Y-138333333D01*
X134271428Y-138380952D01*
X134319047Y-138428571D01*
X134366666Y-138523809D01*
X134366666Y-138761904D01*
X134319047Y-138857142D01*
X134271428Y-138904761D01*
X134176190Y-138952380D01*
X133890476Y-138952380D01*
X133795238Y-138904761D01*
X133747619Y-138857142D01*
D12*
%TO.C,S1*%
X156582380Y-60514047D02*
X156763809Y-60574523D01*
X157066190Y-60574523D01*
X157187142Y-60514047D01*
X157247619Y-60453571D01*
X157308095Y-60332619D01*
X157308095Y-60211666D01*
X157247619Y-60090714D01*
X157187142Y-60030238D01*
X157066190Y-59969761D01*
X156824285Y-59909285D01*
X156703333Y-59848809D01*
X156642857Y-59788333D01*
X156582380Y-59667380D01*
X156582380Y-59546428D01*
X156642857Y-59425476D01*
X156703333Y-59365000D01*
X156824285Y-59304523D01*
X157126666Y-59304523D01*
X157308095Y-59365000D01*
X158517619Y-60574523D02*
X157791904Y-60574523D01*
X158154761Y-60574523D02*
X158154761Y-59304523D01*
X158033809Y-59485952D01*
X157912857Y-59606904D01*
X157791904Y-59667380D01*
D10*
%TO.C,R8*%
X136583333Y-99952380D02*
X136250000Y-99476190D01*
X136011904Y-99952380D02*
X136011904Y-98952380D01*
X136392857Y-98952380D01*
X136488095Y-99000000D01*
X136535714Y-99047619D01*
X136583333Y-99142857D01*
X136583333Y-99285714D01*
X136535714Y-99380952D01*
X136488095Y-99428571D01*
X136392857Y-99476190D01*
X136011904Y-99476190D01*
X137154761Y-99380952D02*
X137059523Y-99333333D01*
X137011904Y-99285714D01*
X136964285Y-99190476D01*
X136964285Y-99142857D01*
X137011904Y-99047619D01*
X137059523Y-99000000D01*
X137154761Y-98952380D01*
X137345238Y-98952380D01*
X137440476Y-99000000D01*
X137488095Y-99047619D01*
X137535714Y-99142857D01*
X137535714Y-99190476D01*
X137488095Y-99285714D01*
X137440476Y-99333333D01*
X137345238Y-99380952D01*
X137154761Y-99380952D01*
X137059523Y-99428571D01*
X137011904Y-99476190D01*
X136964285Y-99571428D01*
X136964285Y-99761904D01*
X137011904Y-99857142D01*
X137059523Y-99904761D01*
X137154761Y-99952380D01*
X137345238Y-99952380D01*
X137440476Y-99904761D01*
X137488095Y-99857142D01*
X137535714Y-99761904D01*
X137535714Y-99571428D01*
X137488095Y-99476190D01*
X137440476Y-99428571D01*
X137345238Y-99380952D01*
%TO.C,J6*%
X132916666Y-64952380D02*
X132916666Y-65666666D01*
X132869047Y-65809523D01*
X132773809Y-65904761D01*
X132630952Y-65952380D01*
X132535714Y-65952380D01*
X133821428Y-64952380D02*
X133630952Y-64952380D01*
X133535714Y-65000000D01*
X133488095Y-65047619D01*
X133392857Y-65190476D01*
X133345238Y-65380952D01*
X133345238Y-65761904D01*
X133392857Y-65857142D01*
X133440476Y-65904761D01*
X133535714Y-65952380D01*
X133726190Y-65952380D01*
X133821428Y-65904761D01*
X133869047Y-65857142D01*
X133916666Y-65761904D01*
X133916666Y-65523809D01*
X133869047Y-65428571D01*
X133821428Y-65380952D01*
X133726190Y-65333333D01*
X133535714Y-65333333D01*
X133440476Y-65380952D01*
X133392857Y-65428571D01*
X133345238Y-65523809D01*
%TO.C,H3*%
X125238095Y-132252380D02*
X125238095Y-131252380D01*
X125238095Y-131728571D02*
X125809523Y-131728571D01*
X125809523Y-132252380D02*
X125809523Y-131252380D01*
X126190476Y-131252380D02*
X126809523Y-131252380D01*
X126476190Y-131633333D01*
X126619047Y-131633333D01*
X126714285Y-131680952D01*
X126761904Y-131728571D01*
X126809523Y-131823809D01*
X126809523Y-132061904D01*
X126761904Y-132157142D01*
X126714285Y-132204761D01*
X126619047Y-132252380D01*
X126333333Y-132252380D01*
X126238095Y-132204761D01*
X126190476Y-132157142D01*
%TO.C,R4*%
X151202380Y-120666666D02*
X150726190Y-121000000D01*
X151202380Y-121238095D02*
X150202380Y-121238095D01*
X150202380Y-120857142D01*
X150250000Y-120761904D01*
X150297619Y-120714285D01*
X150392857Y-120666666D01*
X150535714Y-120666666D01*
X150630952Y-120714285D01*
X150678571Y-120761904D01*
X150726190Y-120857142D01*
X150726190Y-121238095D01*
X150535714Y-119809523D02*
X151202380Y-119809523D01*
X150154761Y-120047619D02*
X150869047Y-120285714D01*
X150869047Y-119666666D01*
%TO.C,U2*%
X155738095Y-122952380D02*
X155738095Y-123761904D01*
X155785714Y-123857142D01*
X155833333Y-123904761D01*
X155928571Y-123952380D01*
X156119047Y-123952380D01*
X156214285Y-123904761D01*
X156261904Y-123857142D01*
X156309523Y-123761904D01*
X156309523Y-122952380D01*
X156738095Y-123047619D02*
X156785714Y-123000000D01*
X156880952Y-122952380D01*
X157119047Y-122952380D01*
X157214285Y-123000000D01*
X157261904Y-123047619D01*
X157309523Y-123142857D01*
X157309523Y-123238095D01*
X157261904Y-123380952D01*
X156690476Y-123952380D01*
X157309523Y-123952380D01*
%TO.C,R7*%
X136583333Y-96452380D02*
X136250000Y-95976190D01*
X136011904Y-96452380D02*
X136011904Y-95452380D01*
X136392857Y-95452380D01*
X136488095Y-95500000D01*
X136535714Y-95547619D01*
X136583333Y-95642857D01*
X136583333Y-95785714D01*
X136535714Y-95880952D01*
X136488095Y-95928571D01*
X136392857Y-95976190D01*
X136011904Y-95976190D01*
X136916666Y-95452380D02*
X137583333Y-95452380D01*
X137154761Y-96452380D01*
%TO.C,C1*%
X160107142Y-122916666D02*
X160154761Y-122964285D01*
X160202380Y-123107142D01*
X160202380Y-123202380D01*
X160154761Y-123345238D01*
X160059523Y-123440476D01*
X159964285Y-123488095D01*
X159773809Y-123535714D01*
X159630952Y-123535714D01*
X159440476Y-123488095D01*
X159345238Y-123440476D01*
X159250000Y-123345238D01*
X159202380Y-123202380D01*
X159202380Y-123107142D01*
X159250000Y-122964285D01*
X159297619Y-122916666D01*
X160202380Y-121964285D02*
X160202380Y-122535714D01*
X160202380Y-122250000D02*
X159202380Y-122250000D01*
X159345238Y-122345238D01*
X159440476Y-122440476D01*
X159488095Y-122535714D01*
%TO.C,R13*%
X171107142Y-65452380D02*
X170773809Y-64976190D01*
X170535714Y-65452380D02*
X170535714Y-64452380D01*
X170916666Y-64452380D01*
X171011904Y-64500000D01*
X171059523Y-64547619D01*
X171107142Y-64642857D01*
X171107142Y-64785714D01*
X171059523Y-64880952D01*
X171011904Y-64928571D01*
X170916666Y-64976190D01*
X170535714Y-64976190D01*
X172059523Y-65452380D02*
X171488095Y-65452380D01*
X171773809Y-65452380D02*
X171773809Y-64452380D01*
X171678571Y-64595238D01*
X171583333Y-64690476D01*
X171488095Y-64738095D01*
X172392857Y-64452380D02*
X173011904Y-64452380D01*
X172678571Y-64833333D01*
X172821428Y-64833333D01*
X172916666Y-64880952D01*
X172964285Y-64928571D01*
X173011904Y-65023809D01*
X173011904Y-65261904D01*
X172964285Y-65357142D01*
X172916666Y-65404761D01*
X172821428Y-65452380D01*
X172535714Y-65452380D01*
X172440476Y-65404761D01*
X172392857Y-65357142D01*
%TO.C,R3*%
X149083333Y-123702380D02*
X148750000Y-123226190D01*
X148511904Y-123702380D02*
X148511904Y-122702380D01*
X148892857Y-122702380D01*
X148988095Y-122750000D01*
X149035714Y-122797619D01*
X149083333Y-122892857D01*
X149083333Y-123035714D01*
X149035714Y-123130952D01*
X148988095Y-123178571D01*
X148892857Y-123226190D01*
X148511904Y-123226190D01*
X149416666Y-122702380D02*
X150035714Y-122702380D01*
X149702380Y-123083333D01*
X149845238Y-123083333D01*
X149940476Y-123130952D01*
X149988095Y-123178571D01*
X150035714Y-123273809D01*
X150035714Y-123511904D01*
X149988095Y-123607142D01*
X149940476Y-123654761D01*
X149845238Y-123702380D01*
X149559523Y-123702380D01*
X149464285Y-123654761D01*
X149416666Y-123607142D01*
%TO.C,C10*%
X162607142Y-122892857D02*
X162654761Y-122940476D01*
X162702380Y-123083333D01*
X162702380Y-123178571D01*
X162654761Y-123321428D01*
X162559523Y-123416666D01*
X162464285Y-123464285D01*
X162273809Y-123511904D01*
X162130952Y-123511904D01*
X161940476Y-123464285D01*
X161845238Y-123416666D01*
X161750000Y-123321428D01*
X161702380Y-123178571D01*
X161702380Y-123083333D01*
X161750000Y-122940476D01*
X161797619Y-122892857D01*
X162702380Y-121940476D02*
X162702380Y-122511904D01*
X162702380Y-122226190D02*
X161702380Y-122226190D01*
X161845238Y-122321428D01*
X161940476Y-122416666D01*
X161988095Y-122511904D01*
X161702380Y-121321428D02*
X161702380Y-121226190D01*
X161750000Y-121130952D01*
X161797619Y-121083333D01*
X161892857Y-121035714D01*
X162083333Y-120988095D01*
X162321428Y-120988095D01*
X162511904Y-121035714D01*
X162607142Y-121083333D01*
X162654761Y-121130952D01*
X162702380Y-121226190D01*
X162702380Y-121321428D01*
X162654761Y-121416666D01*
X162607142Y-121464285D01*
X162511904Y-121511904D01*
X162321428Y-121559523D01*
X162083333Y-121559523D01*
X161892857Y-121511904D01*
X161797619Y-121464285D01*
X161750000Y-121416666D01*
X161702380Y-121321428D01*
%TO.C,C9*%
X131333333Y-125607142D02*
X131285714Y-125654761D01*
X131142857Y-125702380D01*
X131047619Y-125702380D01*
X130904761Y-125654761D01*
X130809523Y-125559523D01*
X130761904Y-125464285D01*
X130714285Y-125273809D01*
X130714285Y-125130952D01*
X130761904Y-124940476D01*
X130809523Y-124845238D01*
X130904761Y-124750000D01*
X131047619Y-124702380D01*
X131142857Y-124702380D01*
X131285714Y-124750000D01*
X131333333Y-124797619D01*
X131809523Y-125702380D02*
X132000000Y-125702380D01*
X132095238Y-125654761D01*
X132142857Y-125607142D01*
X132238095Y-125464285D01*
X132285714Y-125273809D01*
X132285714Y-124892857D01*
X132238095Y-124797619D01*
X132190476Y-124750000D01*
X132095238Y-124702380D01*
X131904761Y-124702380D01*
X131809523Y-124750000D01*
X131761904Y-124797619D01*
X131714285Y-124892857D01*
X131714285Y-125130952D01*
X131761904Y-125226190D01*
X131809523Y-125273809D01*
X131904761Y-125321428D01*
X132095238Y-125321428D01*
X132190476Y-125273809D01*
X132238095Y-125226190D01*
X132285714Y-125130952D01*
%TO.C,J1*%
X175741666Y-70552380D02*
X175741666Y-71266666D01*
X175694047Y-71409523D01*
X175598809Y-71504761D01*
X175455952Y-71552380D01*
X175360714Y-71552380D01*
X176741666Y-71552380D02*
X176170238Y-71552380D01*
X176455952Y-71552380D02*
X176455952Y-70552380D01*
X176360714Y-70695238D01*
X176265476Y-70790476D01*
X176170238Y-70838095D01*
%TO.C,C3*%
X146083333Y-118607142D02*
X146035714Y-118654761D01*
X145892857Y-118702380D01*
X145797619Y-118702380D01*
X145654761Y-118654761D01*
X145559523Y-118559523D01*
X145511904Y-118464285D01*
X145464285Y-118273809D01*
X145464285Y-118130952D01*
X145511904Y-117940476D01*
X145559523Y-117845238D01*
X145654761Y-117750000D01*
X145797619Y-117702380D01*
X145892857Y-117702380D01*
X146035714Y-117750000D01*
X146083333Y-117797619D01*
X146416666Y-117702380D02*
X147035714Y-117702380D01*
X146702380Y-118083333D01*
X146845238Y-118083333D01*
X146940476Y-118130952D01*
X146988095Y-118178571D01*
X147035714Y-118273809D01*
X147035714Y-118511904D01*
X146988095Y-118607142D01*
X146940476Y-118654761D01*
X146845238Y-118702380D01*
X146559523Y-118702380D01*
X146464285Y-118654761D01*
X146416666Y-118607142D01*
%TO.C,R2*%
X154833333Y-132852380D02*
X154500000Y-132376190D01*
X154261904Y-132852380D02*
X154261904Y-131852380D01*
X154642857Y-131852380D01*
X154738095Y-131900000D01*
X154785714Y-131947619D01*
X154833333Y-132042857D01*
X154833333Y-132185714D01*
X154785714Y-132280952D01*
X154738095Y-132328571D01*
X154642857Y-132376190D01*
X154261904Y-132376190D01*
X155214285Y-131947619D02*
X155261904Y-131900000D01*
X155357142Y-131852380D01*
X155595238Y-131852380D01*
X155690476Y-131900000D01*
X155738095Y-131947619D01*
X155785714Y-132042857D01*
X155785714Y-132138095D01*
X155738095Y-132280952D01*
X155166666Y-132852380D01*
X155785714Y-132852380D01*
%TO.C,C5*%
X138107142Y-121416666D02*
X138154761Y-121464285D01*
X138202380Y-121607142D01*
X138202380Y-121702380D01*
X138154761Y-121845238D01*
X138059523Y-121940476D01*
X137964285Y-121988095D01*
X137773809Y-122035714D01*
X137630952Y-122035714D01*
X137440476Y-121988095D01*
X137345238Y-121940476D01*
X137250000Y-121845238D01*
X137202380Y-121702380D01*
X137202380Y-121607142D01*
X137250000Y-121464285D01*
X137297619Y-121416666D01*
X137202380Y-120511904D02*
X137202380Y-120988095D01*
X137678571Y-121035714D01*
X137630952Y-120988095D01*
X137583333Y-120892857D01*
X137583333Y-120654761D01*
X137630952Y-120559523D01*
X137678571Y-120511904D01*
X137773809Y-120464285D01*
X138011904Y-120464285D01*
X138107142Y-120511904D01*
X138154761Y-120559523D01*
X138202380Y-120654761D01*
X138202380Y-120892857D01*
X138154761Y-120988095D01*
X138107142Y-121035714D01*
%TO.C,C2*%
X149857142Y-125416666D02*
X149904761Y-125464285D01*
X149952380Y-125607142D01*
X149952380Y-125702380D01*
X149904761Y-125845238D01*
X149809523Y-125940476D01*
X149714285Y-125988095D01*
X149523809Y-126035714D01*
X149380952Y-126035714D01*
X149190476Y-125988095D01*
X149095238Y-125940476D01*
X149000000Y-125845238D01*
X148952380Y-125702380D01*
X148952380Y-125607142D01*
X149000000Y-125464285D01*
X149047619Y-125416666D01*
X149047619Y-125035714D02*
X149000000Y-124988095D01*
X148952380Y-124892857D01*
X148952380Y-124654761D01*
X149000000Y-124559523D01*
X149047619Y-124511904D01*
X149142857Y-124464285D01*
X149238095Y-124464285D01*
X149380952Y-124511904D01*
X149952380Y-125083333D01*
X149952380Y-124464285D01*
%TO.C,C13*%
X133107142Y-105642857D02*
X133154761Y-105690476D01*
X133202380Y-105833333D01*
X133202380Y-105928571D01*
X133154761Y-106071428D01*
X133059523Y-106166666D01*
X132964285Y-106214285D01*
X132773809Y-106261904D01*
X132630952Y-106261904D01*
X132440476Y-106214285D01*
X132345238Y-106166666D01*
X132250000Y-106071428D01*
X132202380Y-105928571D01*
X132202380Y-105833333D01*
X132250000Y-105690476D01*
X132297619Y-105642857D01*
X133202380Y-104690476D02*
X133202380Y-105261904D01*
X133202380Y-104976190D02*
X132202380Y-104976190D01*
X132345238Y-105071428D01*
X132440476Y-105166666D01*
X132488095Y-105261904D01*
X132202380Y-104357142D02*
X132202380Y-103738095D01*
X132583333Y-104071428D01*
X132583333Y-103928571D01*
X132630952Y-103833333D01*
X132678571Y-103785714D01*
X132773809Y-103738095D01*
X133011904Y-103738095D01*
X133107142Y-103785714D01*
X133154761Y-103833333D01*
X133202380Y-103928571D01*
X133202380Y-104214285D01*
X133154761Y-104309523D01*
X133107142Y-104357142D01*
%TO.C,C6*%
X138107142Y-132916666D02*
X138154761Y-132964285D01*
X138202380Y-133107142D01*
X138202380Y-133202380D01*
X138154761Y-133345238D01*
X138059523Y-133440476D01*
X137964285Y-133488095D01*
X137773809Y-133535714D01*
X137630952Y-133535714D01*
X137440476Y-133488095D01*
X137345238Y-133440476D01*
X137250000Y-133345238D01*
X137202380Y-133202380D01*
X137202380Y-133107142D01*
X137250000Y-132964285D01*
X137297619Y-132916666D01*
X137202380Y-132059523D02*
X137202380Y-132250000D01*
X137250000Y-132345238D01*
X137297619Y-132392857D01*
X137440476Y-132488095D01*
X137630952Y-132535714D01*
X138011904Y-132535714D01*
X138107142Y-132488095D01*
X138154761Y-132440476D01*
X138202380Y-132345238D01*
X138202380Y-132154761D01*
X138154761Y-132059523D01*
X138107142Y-132011904D01*
X138011904Y-131964285D01*
X137773809Y-131964285D01*
X137678571Y-132011904D01*
X137630952Y-132059523D01*
X137583333Y-132154761D01*
X137583333Y-132345238D01*
X137630952Y-132440476D01*
X137678571Y-132488095D01*
X137773809Y-132535714D01*
%TO.C,C18*%
X124607142Y-84107142D02*
X124559523Y-84154761D01*
X124416666Y-84202380D01*
X124321428Y-84202380D01*
X124178571Y-84154761D01*
X124083333Y-84059523D01*
X124035714Y-83964285D01*
X123988095Y-83773809D01*
X123988095Y-83630952D01*
X124035714Y-83440476D01*
X124083333Y-83345238D01*
X124178571Y-83250000D01*
X124321428Y-83202380D01*
X124416666Y-83202380D01*
X124559523Y-83250000D01*
X124607142Y-83297619D01*
X125559523Y-84202380D02*
X124988095Y-84202380D01*
X125273809Y-84202380D02*
X125273809Y-83202380D01*
X125178571Y-83345238D01*
X125083333Y-83440476D01*
X124988095Y-83488095D01*
X126130952Y-83630952D02*
X126035714Y-83583333D01*
X125988095Y-83535714D01*
X125940476Y-83440476D01*
X125940476Y-83392857D01*
X125988095Y-83297619D01*
X126035714Y-83250000D01*
X126130952Y-83202380D01*
X126321428Y-83202380D01*
X126416666Y-83250000D01*
X126464285Y-83297619D01*
X126511904Y-83392857D01*
X126511904Y-83440476D01*
X126464285Y-83535714D01*
X126416666Y-83583333D01*
X126321428Y-83630952D01*
X126130952Y-83630952D01*
X126035714Y-83678571D01*
X125988095Y-83726190D01*
X125940476Y-83821428D01*
X125940476Y-84011904D01*
X125988095Y-84107142D01*
X126035714Y-84154761D01*
X126130952Y-84202380D01*
X126321428Y-84202380D01*
X126416666Y-84154761D01*
X126464285Y-84107142D01*
X126511904Y-84011904D01*
X126511904Y-83821428D01*
X126464285Y-83726190D01*
X126416666Y-83678571D01*
X126321428Y-83630952D01*
%TO.C,TP4*%
X165938095Y-137952380D02*
X166509523Y-137952380D01*
X166223809Y-138952380D02*
X166223809Y-137952380D01*
X166842857Y-138952380D02*
X166842857Y-137952380D01*
X167223809Y-137952380D01*
X167319047Y-138000000D01*
X167366666Y-138047619D01*
X167414285Y-138142857D01*
X167414285Y-138285714D01*
X167366666Y-138380952D01*
X167319047Y-138428571D01*
X167223809Y-138476190D01*
X166842857Y-138476190D01*
X168271428Y-138285714D02*
X168271428Y-138952380D01*
X168033333Y-137904761D02*
X167795238Y-138619047D01*
X168414285Y-138619047D01*
%TO.C,J8*%
X134666666Y-89807380D02*
X134666666Y-90521666D01*
X134619047Y-90664523D01*
X134523809Y-90759761D01*
X134380952Y-90807380D01*
X134285714Y-90807380D01*
X135285714Y-90235952D02*
X135190476Y-90188333D01*
X135142857Y-90140714D01*
X135095238Y-90045476D01*
X135095238Y-89997857D01*
X135142857Y-89902619D01*
X135190476Y-89855000D01*
X135285714Y-89807380D01*
X135476190Y-89807380D01*
X135571428Y-89855000D01*
X135619047Y-89902619D01*
X135666666Y-89997857D01*
X135666666Y-90045476D01*
X135619047Y-90140714D01*
X135571428Y-90188333D01*
X135476190Y-90235952D01*
X135285714Y-90235952D01*
X135190476Y-90283571D01*
X135142857Y-90331190D01*
X135095238Y-90426428D01*
X135095238Y-90616904D01*
X135142857Y-90712142D01*
X135190476Y-90759761D01*
X135285714Y-90807380D01*
X135476190Y-90807380D01*
X135571428Y-90759761D01*
X135619047Y-90712142D01*
X135666666Y-90616904D01*
X135666666Y-90426428D01*
X135619047Y-90331190D01*
X135571428Y-90283571D01*
X135476190Y-90235952D01*
%TO.C,J7*%
X132916666Y-78952380D02*
X132916666Y-79666666D01*
X132869047Y-79809523D01*
X132773809Y-79904761D01*
X132630952Y-79952380D01*
X132535714Y-79952380D01*
X133297619Y-78952380D02*
X133964285Y-78952380D01*
X133535714Y-79952380D01*
%TO.C,R10*%
X136607142Y-74952380D02*
X136273809Y-74476190D01*
X136035714Y-74952380D02*
X136035714Y-73952380D01*
X136416666Y-73952380D01*
X136511904Y-74000000D01*
X136559523Y-74047619D01*
X136607142Y-74142857D01*
X136607142Y-74285714D01*
X136559523Y-74380952D01*
X136511904Y-74428571D01*
X136416666Y-74476190D01*
X136035714Y-74476190D01*
X137559523Y-74952380D02*
X136988095Y-74952380D01*
X137273809Y-74952380D02*
X137273809Y-73952380D01*
X137178571Y-74095238D01*
X137083333Y-74190476D01*
X136988095Y-74238095D01*
X138178571Y-73952380D02*
X138273809Y-73952380D01*
X138369047Y-74000000D01*
X138416666Y-74047619D01*
X138464285Y-74142857D01*
X138511904Y-74333333D01*
X138511904Y-74571428D01*
X138464285Y-74761904D01*
X138416666Y-74857142D01*
X138369047Y-74904761D01*
X138273809Y-74952380D01*
X138178571Y-74952380D01*
X138083333Y-74904761D01*
X138035714Y-74857142D01*
X137988095Y-74761904D01*
X137940476Y-74571428D01*
X137940476Y-74333333D01*
X137988095Y-74142857D01*
X138035714Y-74047619D01*
X138083333Y-74000000D01*
X138178571Y-73952380D01*
%TO.C,J5*%
X142666666Y-64952380D02*
X142666666Y-65666666D01*
X142619047Y-65809523D01*
X142523809Y-65904761D01*
X142380952Y-65952380D01*
X142285714Y-65952380D01*
X143619047Y-64952380D02*
X143142857Y-64952380D01*
X143095238Y-65428571D01*
X143142857Y-65380952D01*
X143238095Y-65333333D01*
X143476190Y-65333333D01*
X143571428Y-65380952D01*
X143619047Y-65428571D01*
X143666666Y-65523809D01*
X143666666Y-65761904D01*
X143619047Y-65857142D01*
X143571428Y-65904761D01*
X143476190Y-65952380D01*
X143238095Y-65952380D01*
X143142857Y-65904761D01*
X143095238Y-65857142D01*
%TO.C,J4*%
X147166666Y-64952380D02*
X147166666Y-65666666D01*
X147119047Y-65809523D01*
X147023809Y-65904761D01*
X146880952Y-65952380D01*
X146785714Y-65952380D01*
X148071428Y-65285714D02*
X148071428Y-65952380D01*
X147833333Y-64904761D02*
X147595238Y-65619047D01*
X148214285Y-65619047D01*
%TO.C,C20*%
X123107142Y-109107142D02*
X123059523Y-109154761D01*
X122916666Y-109202380D01*
X122821428Y-109202380D01*
X122678571Y-109154761D01*
X122583333Y-109059523D01*
X122535714Y-108964285D01*
X122488095Y-108773809D01*
X122488095Y-108630952D01*
X122535714Y-108440476D01*
X122583333Y-108345238D01*
X122678571Y-108250000D01*
X122821428Y-108202380D01*
X122916666Y-108202380D01*
X123059523Y-108250000D01*
X123107142Y-108297619D01*
X123488095Y-108297619D02*
X123535714Y-108250000D01*
X123630952Y-108202380D01*
X123869047Y-108202380D01*
X123964285Y-108250000D01*
X124011904Y-108297619D01*
X124059523Y-108392857D01*
X124059523Y-108488095D01*
X124011904Y-108630952D01*
X123440476Y-109202380D01*
X124059523Y-109202380D01*
X124678571Y-108202380D02*
X124773809Y-108202380D01*
X124869047Y-108250000D01*
X124916666Y-108297619D01*
X124964285Y-108392857D01*
X125011904Y-108583333D01*
X125011904Y-108821428D01*
X124964285Y-109011904D01*
X124916666Y-109107142D01*
X124869047Y-109154761D01*
X124773809Y-109202380D01*
X124678571Y-109202380D01*
X124583333Y-109154761D01*
X124535714Y-109107142D01*
X124488095Y-109011904D01*
X124440476Y-108821428D01*
X124440476Y-108583333D01*
X124488095Y-108392857D01*
X124535714Y-108297619D01*
X124583333Y-108250000D01*
X124678571Y-108202380D01*
%TO.C,TP1*%
X131938095Y-60952380D02*
X132509523Y-60952380D01*
X132223809Y-61952380D02*
X132223809Y-60952380D01*
X132842857Y-61952380D02*
X132842857Y-60952380D01*
X133223809Y-60952380D01*
X133319047Y-61000000D01*
X133366666Y-61047619D01*
X133414285Y-61142857D01*
X133414285Y-61285714D01*
X133366666Y-61380952D01*
X133319047Y-61428571D01*
X133223809Y-61476190D01*
X132842857Y-61476190D01*
X134366666Y-61952380D02*
X133795238Y-61952380D01*
X134080952Y-61952380D02*
X134080952Y-60952380D01*
X133985714Y-61095238D01*
X133890476Y-61190476D01*
X133795238Y-61238095D01*
%TO.C,U5*%
X124738095Y-80452380D02*
X124738095Y-81261904D01*
X124785714Y-81357142D01*
X124833333Y-81404761D01*
X124928571Y-81452380D01*
X125119047Y-81452380D01*
X125214285Y-81404761D01*
X125261904Y-81357142D01*
X125309523Y-81261904D01*
X125309523Y-80452380D01*
X126261904Y-80452380D02*
X125785714Y-80452380D01*
X125738095Y-80928571D01*
X125785714Y-80880952D01*
X125880952Y-80833333D01*
X126119047Y-80833333D01*
X126214285Y-80880952D01*
X126261904Y-80928571D01*
X126309523Y-81023809D01*
X126309523Y-81261904D01*
X126261904Y-81357142D01*
X126214285Y-81404761D01*
X126119047Y-81452380D01*
X125880952Y-81452380D01*
X125785714Y-81404761D01*
X125738095Y-81357142D01*
%TO.C,C8*%
X135607142Y-132916666D02*
X135654761Y-132964285D01*
X135702380Y-133107142D01*
X135702380Y-133202380D01*
X135654761Y-133345238D01*
X135559523Y-133440476D01*
X135464285Y-133488095D01*
X135273809Y-133535714D01*
X135130952Y-133535714D01*
X134940476Y-133488095D01*
X134845238Y-133440476D01*
X134750000Y-133345238D01*
X134702380Y-133202380D01*
X134702380Y-133107142D01*
X134750000Y-132964285D01*
X134797619Y-132916666D01*
X135130952Y-132345238D02*
X135083333Y-132440476D01*
X135035714Y-132488095D01*
X134940476Y-132535714D01*
X134892857Y-132535714D01*
X134797619Y-132488095D01*
X134750000Y-132440476D01*
X134702380Y-132345238D01*
X134702380Y-132154761D01*
X134750000Y-132059523D01*
X134797619Y-132011904D01*
X134892857Y-131964285D01*
X134940476Y-131964285D01*
X135035714Y-132011904D01*
X135083333Y-132059523D01*
X135130952Y-132154761D01*
X135130952Y-132345238D01*
X135178571Y-132440476D01*
X135226190Y-132488095D01*
X135321428Y-132535714D01*
X135511904Y-132535714D01*
X135607142Y-132488095D01*
X135654761Y-132440476D01*
X135702380Y-132345238D01*
X135702380Y-132154761D01*
X135654761Y-132059523D01*
X135607142Y-132011904D01*
X135511904Y-131964285D01*
X135321428Y-131964285D01*
X135226190Y-132011904D01*
X135178571Y-132059523D01*
X135130952Y-132154761D01*
%TO.C,C17*%
X157912142Y-72142857D02*
X157959761Y-72190476D01*
X158007380Y-72333333D01*
X158007380Y-72428571D01*
X157959761Y-72571428D01*
X157864523Y-72666666D01*
X157769285Y-72714285D01*
X157578809Y-72761904D01*
X157435952Y-72761904D01*
X157245476Y-72714285D01*
X157150238Y-72666666D01*
X157055000Y-72571428D01*
X157007380Y-72428571D01*
X157007380Y-72333333D01*
X157055000Y-72190476D01*
X157102619Y-72142857D01*
X158007380Y-71190476D02*
X158007380Y-71761904D01*
X158007380Y-71476190D02*
X157007380Y-71476190D01*
X157150238Y-71571428D01*
X157245476Y-71666666D01*
X157293095Y-71761904D01*
X157007380Y-70857142D02*
X157007380Y-70190476D01*
X158007380Y-70619047D01*
%TO.C,C25*%
X143927142Y-91642857D02*
X143974761Y-91690476D01*
X144022380Y-91833333D01*
X144022380Y-91928571D01*
X143974761Y-92071428D01*
X143879523Y-92166666D01*
X143784285Y-92214285D01*
X143593809Y-92261904D01*
X143450952Y-92261904D01*
X143260476Y-92214285D01*
X143165238Y-92166666D01*
X143070000Y-92071428D01*
X143022380Y-91928571D01*
X143022380Y-91833333D01*
X143070000Y-91690476D01*
X143117619Y-91642857D01*
X143117619Y-91261904D02*
X143070000Y-91214285D01*
X143022380Y-91119047D01*
X143022380Y-90880952D01*
X143070000Y-90785714D01*
X143117619Y-90738095D01*
X143212857Y-90690476D01*
X143308095Y-90690476D01*
X143450952Y-90738095D01*
X144022380Y-91309523D01*
X144022380Y-90690476D01*
X143022380Y-89785714D02*
X143022380Y-90261904D01*
X143498571Y-90309523D01*
X143450952Y-90261904D01*
X143403333Y-90166666D01*
X143403333Y-89928571D01*
X143450952Y-89833333D01*
X143498571Y-89785714D01*
X143593809Y-89738095D01*
X143831904Y-89738095D01*
X143927142Y-89785714D01*
X143974761Y-89833333D01*
X144022380Y-89928571D01*
X144022380Y-90166666D01*
X143974761Y-90261904D01*
X143927142Y-90309523D01*
%TO.C,R14*%
X126552380Y-88392857D02*
X126076190Y-88726190D01*
X126552380Y-88964285D02*
X125552380Y-88964285D01*
X125552380Y-88583333D01*
X125600000Y-88488095D01*
X125647619Y-88440476D01*
X125742857Y-88392857D01*
X125885714Y-88392857D01*
X125980952Y-88440476D01*
X126028571Y-88488095D01*
X126076190Y-88583333D01*
X126076190Y-88964285D01*
X126552380Y-87440476D02*
X126552380Y-88011904D01*
X126552380Y-87726190D02*
X125552380Y-87726190D01*
X125695238Y-87821428D01*
X125790476Y-87916666D01*
X125838095Y-88011904D01*
X125885714Y-86583333D02*
X126552380Y-86583333D01*
X125504761Y-86821428D02*
X126219047Y-87059523D01*
X126219047Y-86440476D01*
%TO.C,R12*%
X168107142Y-70952380D02*
X167773809Y-70476190D01*
X167535714Y-70952380D02*
X167535714Y-69952380D01*
X167916666Y-69952380D01*
X168011904Y-70000000D01*
X168059523Y-70047619D01*
X168107142Y-70142857D01*
X168107142Y-70285714D01*
X168059523Y-70380952D01*
X168011904Y-70428571D01*
X167916666Y-70476190D01*
X167535714Y-70476190D01*
X169059523Y-70952380D02*
X168488095Y-70952380D01*
X168773809Y-70952380D02*
X168773809Y-69952380D01*
X168678571Y-70095238D01*
X168583333Y-70190476D01*
X168488095Y-70238095D01*
X169440476Y-70047619D02*
X169488095Y-70000000D01*
X169583333Y-69952380D01*
X169821428Y-69952380D01*
X169916666Y-70000000D01*
X169964285Y-70047619D01*
X170011904Y-70142857D01*
X170011904Y-70238095D01*
X169964285Y-70380952D01*
X169392857Y-70952380D01*
X170011904Y-70952380D01*
%TO.C,R11*%
X149952380Y-62892857D02*
X149476190Y-63226190D01*
X149952380Y-63464285D02*
X148952380Y-63464285D01*
X148952380Y-63083333D01*
X149000000Y-62988095D01*
X149047619Y-62940476D01*
X149142857Y-62892857D01*
X149285714Y-62892857D01*
X149380952Y-62940476D01*
X149428571Y-62988095D01*
X149476190Y-63083333D01*
X149476190Y-63464285D01*
X149952380Y-61940476D02*
X149952380Y-62511904D01*
X149952380Y-62226190D02*
X148952380Y-62226190D01*
X149095238Y-62321428D01*
X149190476Y-62416666D01*
X149238095Y-62511904D01*
X149952380Y-60988095D02*
X149952380Y-61559523D01*
X149952380Y-61273809D02*
X148952380Y-61273809D01*
X149095238Y-61369047D01*
X149190476Y-61464285D01*
X149238095Y-61559523D01*
%TO.C,J2*%
X132202380Y-98083333D02*
X132916666Y-98083333D01*
X133059523Y-98130952D01*
X133154761Y-98226190D01*
X133202380Y-98369047D01*
X133202380Y-98464285D01*
X132297619Y-97654761D02*
X132250000Y-97607142D01*
X132202380Y-97511904D01*
X132202380Y-97273809D01*
X132250000Y-97178571D01*
X132297619Y-97130952D01*
X132392857Y-97083333D01*
X132488095Y-97083333D01*
X132630952Y-97130952D01*
X133202380Y-97702380D01*
X133202380Y-97083333D01*
%TO.C,R5*%
X152333333Y-121952380D02*
X152000000Y-121476190D01*
X151761904Y-121952380D02*
X151761904Y-120952380D01*
X152142857Y-120952380D01*
X152238095Y-121000000D01*
X152285714Y-121047619D01*
X152333333Y-121142857D01*
X152333333Y-121285714D01*
X152285714Y-121380952D01*
X152238095Y-121428571D01*
X152142857Y-121476190D01*
X151761904Y-121476190D01*
X153238095Y-120952380D02*
X152761904Y-120952380D01*
X152714285Y-121428571D01*
X152761904Y-121380952D01*
X152857142Y-121333333D01*
X153095238Y-121333333D01*
X153190476Y-121380952D01*
X153238095Y-121428571D01*
X153285714Y-121523809D01*
X153285714Y-121761904D01*
X153238095Y-121857142D01*
X153190476Y-121904761D01*
X153095238Y-121952380D01*
X152857142Y-121952380D01*
X152761904Y-121904761D01*
X152714285Y-121857142D01*
%TO.C,R1*%
X158333333Y-132852380D02*
X158000000Y-132376190D01*
X157761904Y-132852380D02*
X157761904Y-131852380D01*
X158142857Y-131852380D01*
X158238095Y-131900000D01*
X158285714Y-131947619D01*
X158333333Y-132042857D01*
X158333333Y-132185714D01*
X158285714Y-132280952D01*
X158238095Y-132328571D01*
X158142857Y-132376190D01*
X157761904Y-132376190D01*
X159285714Y-132852380D02*
X158714285Y-132852380D01*
X159000000Y-132852380D02*
X159000000Y-131852380D01*
X158904761Y-131995238D01*
X158809523Y-132090476D01*
X158714285Y-132138095D01*
%TO.C,C16*%
X154507142Y-67642857D02*
X154554761Y-67690476D01*
X154602380Y-67833333D01*
X154602380Y-67928571D01*
X154554761Y-68071428D01*
X154459523Y-68166666D01*
X154364285Y-68214285D01*
X154173809Y-68261904D01*
X154030952Y-68261904D01*
X153840476Y-68214285D01*
X153745238Y-68166666D01*
X153650000Y-68071428D01*
X153602380Y-67928571D01*
X153602380Y-67833333D01*
X153650000Y-67690476D01*
X153697619Y-67642857D01*
X154602380Y-66690476D02*
X154602380Y-67261904D01*
X154602380Y-66976190D02*
X153602380Y-66976190D01*
X153745238Y-67071428D01*
X153840476Y-67166666D01*
X153888095Y-67261904D01*
X153602380Y-65833333D02*
X153602380Y-66023809D01*
X153650000Y-66119047D01*
X153697619Y-66166666D01*
X153840476Y-66261904D01*
X154030952Y-66309523D01*
X154411904Y-66309523D01*
X154507142Y-66261904D01*
X154554761Y-66214285D01*
X154602380Y-66119047D01*
X154602380Y-65928571D01*
X154554761Y-65833333D01*
X154507142Y-65785714D01*
X154411904Y-65738095D01*
X154173809Y-65738095D01*
X154078571Y-65785714D01*
X154030952Y-65833333D01*
X153983333Y-65928571D01*
X153983333Y-66119047D01*
X154030952Y-66214285D01*
X154078571Y-66261904D01*
X154173809Y-66309523D01*
%TO.C,U1*%
X148738095Y-91102380D02*
X148738095Y-91911904D01*
X148785714Y-92007142D01*
X148833333Y-92054761D01*
X148928571Y-92102380D01*
X149119047Y-92102380D01*
X149214285Y-92054761D01*
X149261904Y-92007142D01*
X149309523Y-91911904D01*
X149309523Y-91102380D01*
X150309523Y-92102380D02*
X149738095Y-92102380D01*
X150023809Y-92102380D02*
X150023809Y-91102380D01*
X149928571Y-91245238D01*
X149833333Y-91340476D01*
X149738095Y-91388095D01*
%TO.C,U4*%
X165738095Y-64702380D02*
X165738095Y-65511904D01*
X165785714Y-65607142D01*
X165833333Y-65654761D01*
X165928571Y-65702380D01*
X166119047Y-65702380D01*
X166214285Y-65654761D01*
X166261904Y-65607142D01*
X166309523Y-65511904D01*
X166309523Y-64702380D01*
X167214285Y-65035714D02*
X167214285Y-65702380D01*
X166976190Y-64654761D02*
X166738095Y-65369047D01*
X167357142Y-65369047D01*
%TO.C,C14*%
X133177142Y-110142857D02*
X133224761Y-110190476D01*
X133272380Y-110333333D01*
X133272380Y-110428571D01*
X133224761Y-110571428D01*
X133129523Y-110666666D01*
X133034285Y-110714285D01*
X132843809Y-110761904D01*
X132700952Y-110761904D01*
X132510476Y-110714285D01*
X132415238Y-110666666D01*
X132320000Y-110571428D01*
X132272380Y-110428571D01*
X132272380Y-110333333D01*
X132320000Y-110190476D01*
X132367619Y-110142857D01*
X133272380Y-109190476D02*
X133272380Y-109761904D01*
X133272380Y-109476190D02*
X132272380Y-109476190D01*
X132415238Y-109571428D01*
X132510476Y-109666666D01*
X132558095Y-109761904D01*
X132605714Y-108333333D02*
X133272380Y-108333333D01*
X132224761Y-108571428D02*
X132939047Y-108809523D01*
X132939047Y-108190476D01*
%TO.C,C19*%
X131787142Y-106642857D02*
X131834761Y-106690476D01*
X131882380Y-106833333D01*
X131882380Y-106928571D01*
X131834761Y-107071428D01*
X131739523Y-107166666D01*
X131644285Y-107214285D01*
X131453809Y-107261904D01*
X131310952Y-107261904D01*
X131120476Y-107214285D01*
X131025238Y-107166666D01*
X130930000Y-107071428D01*
X130882380Y-106928571D01*
X130882380Y-106833333D01*
X130930000Y-106690476D01*
X130977619Y-106642857D01*
X131882380Y-105690476D02*
X131882380Y-106261904D01*
X131882380Y-105976190D02*
X130882380Y-105976190D01*
X131025238Y-106071428D01*
X131120476Y-106166666D01*
X131168095Y-106261904D01*
X131882380Y-105214285D02*
X131882380Y-105023809D01*
X131834761Y-104928571D01*
X131787142Y-104880952D01*
X131644285Y-104785714D01*
X131453809Y-104738095D01*
X131072857Y-104738095D01*
X130977619Y-104785714D01*
X130930000Y-104833333D01*
X130882380Y-104928571D01*
X130882380Y-105119047D01*
X130930000Y-105214285D01*
X130977619Y-105261904D01*
X131072857Y-105309523D01*
X131310952Y-105309523D01*
X131406190Y-105261904D01*
X131453809Y-105214285D01*
X131501428Y-105119047D01*
X131501428Y-104928571D01*
X131453809Y-104833333D01*
X131406190Y-104785714D01*
X131310952Y-104738095D01*
%TO.C,H2*%
X167988095Y-56952380D02*
X167988095Y-55952380D01*
X167988095Y-56428571D02*
X168559523Y-56428571D01*
X168559523Y-56952380D02*
X168559523Y-55952380D01*
X168988095Y-56047619D02*
X169035714Y-56000000D01*
X169130952Y-55952380D01*
X169369047Y-55952380D01*
X169464285Y-56000000D01*
X169511904Y-56047619D01*
X169559523Y-56142857D01*
X169559523Y-56238095D01*
X169511904Y-56380952D01*
X168940476Y-56952380D01*
X169559523Y-56952380D01*
%TO.C,U6*%
X131238095Y-83702380D02*
X131238095Y-84511904D01*
X131285714Y-84607142D01*
X131333333Y-84654761D01*
X131428571Y-84702380D01*
X131619047Y-84702380D01*
X131714285Y-84654761D01*
X131761904Y-84607142D01*
X131809523Y-84511904D01*
X131809523Y-83702380D01*
X132714285Y-83702380D02*
X132523809Y-83702380D01*
X132428571Y-83750000D01*
X132380952Y-83797619D01*
X132285714Y-83940476D01*
X132238095Y-84130952D01*
X132238095Y-84511904D01*
X132285714Y-84607142D01*
X132333333Y-84654761D01*
X132428571Y-84702380D01*
X132619047Y-84702380D01*
X132714285Y-84654761D01*
X132761904Y-84607142D01*
X132809523Y-84511904D01*
X132809523Y-84273809D01*
X132761904Y-84178571D01*
X132714285Y-84130952D01*
X132619047Y-84083333D01*
X132428571Y-84083333D01*
X132333333Y-84130952D01*
X132285714Y-84178571D01*
X132238095Y-84273809D01*
%TO.C,R15*%
X130357142Y-91352380D02*
X130023809Y-90876190D01*
X129785714Y-91352380D02*
X129785714Y-90352380D01*
X130166666Y-90352380D01*
X130261904Y-90400000D01*
X130309523Y-90447619D01*
X130357142Y-90542857D01*
X130357142Y-90685714D01*
X130309523Y-90780952D01*
X130261904Y-90828571D01*
X130166666Y-90876190D01*
X129785714Y-90876190D01*
X131309523Y-91352380D02*
X130738095Y-91352380D01*
X131023809Y-91352380D02*
X131023809Y-90352380D01*
X130928571Y-90495238D01*
X130833333Y-90590476D01*
X130738095Y-90638095D01*
X132214285Y-90352380D02*
X131738095Y-90352380D01*
X131690476Y-90828571D01*
X131738095Y-90780952D01*
X131833333Y-90733333D01*
X132071428Y-90733333D01*
X132166666Y-90780952D01*
X132214285Y-90828571D01*
X132261904Y-90923809D01*
X132261904Y-91161904D01*
X132214285Y-91257142D01*
X132166666Y-91304761D01*
X132071428Y-91352380D01*
X131833333Y-91352380D01*
X131738095Y-91304761D01*
X131690476Y-91257142D01*
%TO.C,Y2*%
X141776190Y-107726190D02*
X142252380Y-107726190D01*
X141252380Y-108059523D02*
X141776190Y-107726190D01*
X141252380Y-107392857D01*
X141347619Y-107107142D02*
X141300000Y-107059523D01*
X141252380Y-106964285D01*
X141252380Y-106726190D01*
X141300000Y-106630952D01*
X141347619Y-106583333D01*
X141442857Y-106535714D01*
X141538095Y-106535714D01*
X141680952Y-106583333D01*
X142252380Y-107154761D01*
X142252380Y-106535714D01*
%TO.C,H4*%
X172238095Y-132252380D02*
X172238095Y-131252380D01*
X172238095Y-131728571D02*
X172809523Y-131728571D01*
X172809523Y-132252380D02*
X172809523Y-131252380D01*
X173714285Y-131585714D02*
X173714285Y-132252380D01*
X173476190Y-131204761D02*
X173238095Y-131919047D01*
X173857142Y-131919047D01*
%TO.C,L1*%
X144183333Y-131952380D02*
X143707142Y-131952380D01*
X143707142Y-130952380D01*
X145040476Y-131952380D02*
X144469047Y-131952380D01*
X144754761Y-131952380D02*
X144754761Y-130952380D01*
X144659523Y-131095238D01*
X144564285Y-131190476D01*
X144469047Y-131238095D01*
%TO.C,R9*%
X136583333Y-71202380D02*
X136250000Y-70726190D01*
X136011904Y-71202380D02*
X136011904Y-70202380D01*
X136392857Y-70202380D01*
X136488095Y-70250000D01*
X136535714Y-70297619D01*
X136583333Y-70392857D01*
X136583333Y-70535714D01*
X136535714Y-70630952D01*
X136488095Y-70678571D01*
X136392857Y-70726190D01*
X136011904Y-70726190D01*
X137059523Y-71202380D02*
X137250000Y-71202380D01*
X137345238Y-71154761D01*
X137392857Y-71107142D01*
X137488095Y-70964285D01*
X137535714Y-70773809D01*
X137535714Y-70392857D01*
X137488095Y-70297619D01*
X137440476Y-70250000D01*
X137345238Y-70202380D01*
X137154761Y-70202380D01*
X137059523Y-70250000D01*
X137011904Y-70297619D01*
X136964285Y-70392857D01*
X136964285Y-70630952D01*
X137011904Y-70726190D01*
X137059523Y-70773809D01*
X137154761Y-70821428D01*
X137345238Y-70821428D01*
X137440476Y-70773809D01*
X137488095Y-70726190D01*
X137535714Y-70630952D01*
%TO.C,U3*%
X124052380Y-106761904D02*
X124861904Y-106761904D01*
X124957142Y-106714285D01*
X125004761Y-106666666D01*
X125052380Y-106571428D01*
X125052380Y-106380952D01*
X125004761Y-106285714D01*
X124957142Y-106238095D01*
X124861904Y-106190476D01*
X124052380Y-106190476D01*
X124052380Y-105809523D02*
X124052380Y-105190476D01*
X124433333Y-105523809D01*
X124433333Y-105380952D01*
X124480952Y-105285714D01*
X124528571Y-105238095D01*
X124623809Y-105190476D01*
X124861904Y-105190476D01*
X124957142Y-105238095D01*
X125004761Y-105285714D01*
X125052380Y-105380952D01*
X125052380Y-105666666D01*
X125004761Y-105761904D01*
X124957142Y-105809523D01*
%TO.C,C27*%
X142107142Y-99607142D02*
X142059523Y-99654761D01*
X141916666Y-99702380D01*
X141821428Y-99702380D01*
X141678571Y-99654761D01*
X141583333Y-99559523D01*
X141535714Y-99464285D01*
X141488095Y-99273809D01*
X141488095Y-99130952D01*
X141535714Y-98940476D01*
X141583333Y-98845238D01*
X141678571Y-98750000D01*
X141821428Y-98702380D01*
X141916666Y-98702380D01*
X142059523Y-98750000D01*
X142107142Y-98797619D01*
X142488095Y-98797619D02*
X142535714Y-98750000D01*
X142630952Y-98702380D01*
X142869047Y-98702380D01*
X142964285Y-98750000D01*
X143011904Y-98797619D01*
X143059523Y-98892857D01*
X143059523Y-98988095D01*
X143011904Y-99130952D01*
X142440476Y-99702380D01*
X143059523Y-99702380D01*
X143392857Y-98702380D02*
X144059523Y-98702380D01*
X143630952Y-99702380D01*
%TO.C,D2*%
X148761904Y-135702380D02*
X148761904Y-134702380D01*
X149000000Y-134702380D01*
X149142857Y-134750000D01*
X149238095Y-134845238D01*
X149285714Y-134940476D01*
X149333333Y-135130952D01*
X149333333Y-135273809D01*
X149285714Y-135464285D01*
X149238095Y-135559523D01*
X149142857Y-135654761D01*
X149000000Y-135702380D01*
X148761904Y-135702380D01*
X149714285Y-134797619D02*
X149761904Y-134750000D01*
X149857142Y-134702380D01*
X150095238Y-134702380D01*
X150190476Y-134750000D01*
X150238095Y-134797619D01*
X150285714Y-134892857D01*
X150285714Y-134988095D01*
X150238095Y-135130952D01*
X149666666Y-135702380D01*
X150285714Y-135702380D01*
%TO.C,H1*%
X129238095Y-56702380D02*
X129238095Y-55702380D01*
X129238095Y-56178571D02*
X129809523Y-56178571D01*
X129809523Y-56702380D02*
X129809523Y-55702380D01*
X130809523Y-56702380D02*
X130238095Y-56702380D01*
X130523809Y-56702380D02*
X130523809Y-55702380D01*
X130428571Y-55845238D01*
X130333333Y-55940476D01*
X130238095Y-55988095D01*
%TO.C,C26*%
X154357142Y-91357142D02*
X154309523Y-91404761D01*
X154166666Y-91452380D01*
X154071428Y-91452380D01*
X153928571Y-91404761D01*
X153833333Y-91309523D01*
X153785714Y-91214285D01*
X153738095Y-91023809D01*
X153738095Y-90880952D01*
X153785714Y-90690476D01*
X153833333Y-90595238D01*
X153928571Y-90500000D01*
X154071428Y-90452380D01*
X154166666Y-90452380D01*
X154309523Y-90500000D01*
X154357142Y-90547619D01*
X154738095Y-90547619D02*
X154785714Y-90500000D01*
X154880952Y-90452380D01*
X155119047Y-90452380D01*
X155214285Y-90500000D01*
X155261904Y-90547619D01*
X155309523Y-90642857D01*
X155309523Y-90738095D01*
X155261904Y-90880952D01*
X154690476Y-91452380D01*
X155309523Y-91452380D01*
X156166666Y-90452380D02*
X155976190Y-90452380D01*
X155880952Y-90500000D01*
X155833333Y-90547619D01*
X155738095Y-90690476D01*
X155690476Y-90880952D01*
X155690476Y-91261904D01*
X155738095Y-91357142D01*
X155785714Y-91404761D01*
X155880952Y-91452380D01*
X156071428Y-91452380D01*
X156166666Y-91404761D01*
X156214285Y-91357142D01*
X156261904Y-91261904D01*
X156261904Y-91023809D01*
X156214285Y-90928571D01*
X156166666Y-90880952D01*
X156071428Y-90833333D01*
X155880952Y-90833333D01*
X155785714Y-90880952D01*
X155738095Y-90928571D01*
X155690476Y-91023809D01*
%TO.C,C7*%
X135607142Y-121416666D02*
X135654761Y-121464285D01*
X135702380Y-121607142D01*
X135702380Y-121702380D01*
X135654761Y-121845238D01*
X135559523Y-121940476D01*
X135464285Y-121988095D01*
X135273809Y-122035714D01*
X135130952Y-122035714D01*
X134940476Y-121988095D01*
X134845238Y-121940476D01*
X134750000Y-121845238D01*
X134702380Y-121702380D01*
X134702380Y-121607142D01*
X134750000Y-121464285D01*
X134797619Y-121416666D01*
X134702380Y-121083333D02*
X134702380Y-120416666D01*
X135702380Y-120845238D01*
%TO.C,C4*%
X142583333Y-120607142D02*
X142535714Y-120654761D01*
X142392857Y-120702380D01*
X142297619Y-120702380D01*
X142154761Y-120654761D01*
X142059523Y-120559523D01*
X142011904Y-120464285D01*
X141964285Y-120273809D01*
X141964285Y-120130952D01*
X142011904Y-119940476D01*
X142059523Y-119845238D01*
X142154761Y-119750000D01*
X142297619Y-119702380D01*
X142392857Y-119702380D01*
X142535714Y-119750000D01*
X142583333Y-119797619D01*
X143440476Y-120035714D02*
X143440476Y-120702380D01*
X143202380Y-119654761D02*
X142964285Y-120369047D01*
X143583333Y-120369047D01*
%TO.C,J9*%
X158166666Y-86082380D02*
X158166666Y-86796666D01*
X158119047Y-86939523D01*
X158023809Y-87034761D01*
X157880952Y-87082380D01*
X157785714Y-87082380D01*
X158690476Y-87082380D02*
X158880952Y-87082380D01*
X158976190Y-87034761D01*
X159023809Y-86987142D01*
X159119047Y-86844285D01*
X159166666Y-86653809D01*
X159166666Y-86272857D01*
X159119047Y-86177619D01*
X159071428Y-86130000D01*
X158976190Y-86082380D01*
X158785714Y-86082380D01*
X158690476Y-86130000D01*
X158642857Y-86177619D01*
X158595238Y-86272857D01*
X158595238Y-86510952D01*
X158642857Y-86606190D01*
X158690476Y-86653809D01*
X158785714Y-86701428D01*
X158976190Y-86701428D01*
X159071428Y-86653809D01*
X159119047Y-86606190D01*
X159166666Y-86510952D01*
%TO.C,C15*%
X160357142Y-75857142D02*
X160309523Y-75904761D01*
X160166666Y-75952380D01*
X160071428Y-75952380D01*
X159928571Y-75904761D01*
X159833333Y-75809523D01*
X159785714Y-75714285D01*
X159738095Y-75523809D01*
X159738095Y-75380952D01*
X159785714Y-75190476D01*
X159833333Y-75095238D01*
X159928571Y-75000000D01*
X160071428Y-74952380D01*
X160166666Y-74952380D01*
X160309523Y-75000000D01*
X160357142Y-75047619D01*
X161309523Y-75952380D02*
X160738095Y-75952380D01*
X161023809Y-75952380D02*
X161023809Y-74952380D01*
X160928571Y-75095238D01*
X160833333Y-75190476D01*
X160738095Y-75238095D01*
X162214285Y-74952380D02*
X161738095Y-74952380D01*
X161690476Y-75428571D01*
X161738095Y-75380952D01*
X161833333Y-75333333D01*
X162071428Y-75333333D01*
X162166666Y-75380952D01*
X162214285Y-75428571D01*
X162261904Y-75523809D01*
X162261904Y-75761904D01*
X162214285Y-75857142D01*
X162166666Y-75904761D01*
X162071428Y-75952380D01*
X161833333Y-75952380D01*
X161738095Y-75904761D01*
X161690476Y-75857142D01*
%TO.C,TP2*%
X165938095Y-60952380D02*
X166509523Y-60952380D01*
X166223809Y-61952380D02*
X166223809Y-60952380D01*
X166842857Y-61952380D02*
X166842857Y-60952380D01*
X167223809Y-60952380D01*
X167319047Y-61000000D01*
X167366666Y-61047619D01*
X167414285Y-61142857D01*
X167414285Y-61285714D01*
X167366666Y-61380952D01*
X167319047Y-61428571D01*
X167223809Y-61476190D01*
X166842857Y-61476190D01*
X167795238Y-61047619D02*
X167842857Y-61000000D01*
X167938095Y-60952380D01*
X168176190Y-60952380D01*
X168271428Y-61000000D01*
X168319047Y-61047619D01*
X168366666Y-61142857D01*
X168366666Y-61238095D01*
X168319047Y-61380952D01*
X167747619Y-61952380D01*
X168366666Y-61952380D01*
D13*
%TO.C,C24*%
X153515000Y-102238748D02*
X153515000Y-102761252D01*
X154985000Y-102238748D02*
X154985000Y-102761252D01*
%TO.C,C11*%
X132235000Y-80738748D02*
X132235000Y-81261252D01*
X130765000Y-80738748D02*
X130765000Y-81261252D01*
%TO.C,J3*%
X124000000Y-77200000D02*
X122100000Y-77200000D01*
X127900000Y-77200000D02*
X125900000Y-77200000D01*
X127900000Y-67800000D02*
X125900000Y-67800000D01*
X124000000Y-67800000D02*
X122100000Y-67800000D01*
X122100000Y-67800000D02*
X122100000Y-77200000D01*
%TO.C,D1*%
X173435000Y-67540000D02*
X170750000Y-67540000D01*
X170750000Y-69460000D02*
X173435000Y-69460000D01*
X173435000Y-69460000D02*
X173435000Y-67540000D01*
%TO.C,TP3*%
X134000000Y-136000000D02*
G75*
G03*
X134000000Y-136000000I-1500000J0D01*
G01*
D14*
%TO.C,S1*%
X163350000Y-62100000D02*
X163350000Y-62100000D01*
D15*
X160250000Y-57000000D02*
X160250000Y-63000000D01*
X154250000Y-63000000D02*
X154250000Y-57000000D01*
X160250000Y-63000000D02*
X154250000Y-63000000D01*
X154250000Y-57000000D02*
X160250000Y-57000000D01*
D14*
X163350000Y-62300000D02*
X163350000Y-62300000D01*
X163350000Y-62100000D02*
G75*
G03*
X163350000Y-62300000I0J-100000D01*
G01*
X163350000Y-62300000D02*
G75*
G03*
X163350000Y-62100000I0J100000D01*
G01*
D13*
%TO.C,R8*%
X133772936Y-100235000D02*
X134227064Y-100235000D01*
X133772936Y-98765000D02*
X134227064Y-98765000D01*
%TO.C,J6*%
X134480000Y-69330000D02*
X137080000Y-69330000D01*
X133210000Y-69330000D02*
X131880000Y-69330000D01*
X137080000Y-69330000D02*
X137080000Y-66670000D01*
X134480000Y-69330000D02*
X134480000Y-66670000D01*
X134480000Y-66670000D02*
X137080000Y-66670000D01*
X131880000Y-69330000D02*
X131880000Y-68000000D01*
%TO.C,R4*%
X149735000Y-120889564D02*
X149735000Y-120435436D01*
X148265000Y-120889564D02*
X148265000Y-120435436D01*
%TO.C,U2*%
X154250000Y-129560000D02*
X152300000Y-129560000D01*
X154250000Y-124440000D02*
X152300000Y-124440000D01*
X154250000Y-124440000D02*
X156200000Y-124440000D01*
X154250000Y-129560000D02*
X157700000Y-129560000D01*
%TO.C,R7*%
X133772936Y-95265000D02*
X134227064Y-95265000D01*
X133772936Y-96735000D02*
X134227064Y-96735000D01*
%TO.C,C1*%
X158840000Y-126038748D02*
X158840000Y-127461252D01*
X160660000Y-126038748D02*
X160660000Y-127461252D01*
%TO.C,R13*%
X171977064Y-65765000D02*
X171522936Y-65765000D01*
X171977064Y-67235000D02*
X171522936Y-67235000D01*
%TO.C,R3*%
X146477064Y-122735000D02*
X146022936Y-122735000D01*
X146477064Y-121265000D02*
X146022936Y-121265000D01*
%TO.C,C10*%
X161340000Y-126038748D02*
X161340000Y-127461252D01*
X163160000Y-126038748D02*
X163160000Y-127461252D01*
%TO.C,C9*%
X132761252Y-126265000D02*
X132238748Y-126265000D01*
X132761252Y-127735000D02*
X132238748Y-127735000D01*
%TO.C,J1*%
X177060000Y-118710000D02*
X183060000Y-118710000D01*
X183060000Y-100930000D02*
X183060000Y-101690000D01*
X174002929Y-91530000D02*
X174400000Y-91530000D01*
X183060000Y-94070000D02*
X177060000Y-94070000D01*
X174002929Y-104230000D02*
X174400000Y-104230000D01*
X174400000Y-92420000D02*
X177060000Y-92420000D01*
X174400000Y-72040000D02*
X174400000Y-122960000D01*
X177060000Y-85690000D02*
X183060000Y-85690000D01*
X183060000Y-116930000D02*
X177060000Y-116930000D01*
X171462929Y-85690000D02*
X171917071Y-85690000D01*
X177060000Y-88230000D02*
X183060000Y-88230000D01*
X174002929Y-106010000D02*
X174400000Y-106010000D01*
X177060000Y-78070000D02*
X183060000Y-78070000D01*
X174002929Y-78830000D02*
X174400000Y-78830000D01*
X174400000Y-115280000D02*
X177060000Y-115280000D01*
X183060000Y-83910000D02*
X177060000Y-83910000D01*
X171462929Y-93310000D02*
X171917071Y-93310000D01*
X171462929Y-101690000D02*
X171917071Y-101690000D01*
X183060000Y-106770000D02*
X177060000Y-106770000D01*
X171462929Y-111090000D02*
X171917071Y-111090000D01*
X183060000Y-88230000D02*
X183060000Y-88990000D01*
X177060000Y-95850000D02*
X183060000Y-95850000D01*
X171462929Y-106010000D02*
X171917071Y-106010000D01*
X174002929Y-85690000D02*
X174400000Y-85690000D01*
X174002929Y-109310000D02*
X174400000Y-109310000D01*
X177060000Y-108550000D02*
X183060000Y-108550000D01*
X183060000Y-91530000D02*
X177060000Y-91530000D01*
X183060000Y-116170000D02*
X183060000Y-116930000D01*
X174400000Y-112740000D02*
X177060000Y-112740000D01*
X183060000Y-93310000D02*
X183060000Y-94070000D01*
X174002929Y-103470000D02*
X174400000Y-103470000D01*
X183060000Y-119470000D02*
X177060000Y-119470000D01*
X177060000Y-73170000D02*
X183060000Y-73170000D01*
X171462929Y-118710000D02*
X171917071Y-118710000D01*
X171462929Y-88990000D02*
X171917071Y-88990000D01*
X171462929Y-106770000D02*
X171917071Y-106770000D01*
X183060000Y-106010000D02*
X183060000Y-106770000D01*
X171462929Y-81370000D02*
X171917071Y-81370000D01*
X174002929Y-118710000D02*
X174400000Y-118710000D01*
X174400000Y-102580000D02*
X177060000Y-102580000D01*
X183060000Y-85690000D02*
X183060000Y-86450000D01*
X174002929Y-116930000D02*
X174400000Y-116930000D01*
X183060000Y-73750000D02*
X177060000Y-73750000D01*
X171462929Y-122010000D02*
X171917071Y-122010000D01*
X177060000Y-103470000D02*
X183060000Y-103470000D01*
X183060000Y-78830000D02*
X177060000Y-78830000D01*
X171462929Y-83910000D02*
X171917071Y-83910000D01*
X174002929Y-81370000D02*
X174400000Y-81370000D01*
X174002929Y-76290000D02*
X174400000Y-76290000D01*
X177060000Y-72040000D02*
X174400000Y-72040000D01*
X171530000Y-73750000D02*
X171917071Y-73750000D01*
X171462929Y-94070000D02*
X171917071Y-94070000D01*
X183060000Y-101690000D02*
X177060000Y-101690000D01*
X174002929Y-100930000D02*
X174400000Y-100930000D01*
X183060000Y-121250000D02*
X183060000Y-122010000D01*
X177060000Y-73290000D02*
X183060000Y-73290000D01*
X171462929Y-75530000D02*
X171917071Y-75530000D01*
X174400000Y-87340000D02*
X177060000Y-87340000D01*
X174002929Y-99150000D02*
X174400000Y-99150000D01*
X174002929Y-111090000D02*
X174400000Y-111090000D01*
X183060000Y-113630000D02*
X183060000Y-114390000D01*
X177060000Y-90770000D02*
X183060000Y-90770000D01*
X174002929Y-88990000D02*
X174400000Y-88990000D01*
X174400000Y-82260000D02*
X177060000Y-82260000D01*
X177060000Y-121250000D02*
X183060000Y-121250000D01*
X171462929Y-99150000D02*
X171917071Y-99150000D01*
X183060000Y-88990000D02*
X177060000Y-88990000D01*
X174400000Y-122960000D02*
X177060000Y-122960000D01*
X174400000Y-105120000D02*
X177060000Y-105120000D01*
X174002929Y-122010000D02*
X174400000Y-122010000D01*
X177060000Y-75530000D02*
X183060000Y-75530000D01*
X174002929Y-94070000D02*
X174400000Y-94070000D01*
X171462929Y-90770000D02*
X171917071Y-90770000D01*
X171462929Y-114390000D02*
X171917071Y-114390000D01*
X174002929Y-83150000D02*
X174400000Y-83150000D01*
X174002929Y-80610000D02*
X174400000Y-80610000D01*
X174002929Y-114390000D02*
X174400000Y-114390000D01*
X177060000Y-100930000D02*
X183060000Y-100930000D01*
X183060000Y-108550000D02*
X183060000Y-109310000D01*
X177060000Y-113630000D02*
X183060000Y-113630000D01*
X171462929Y-98390000D02*
X171917071Y-98390000D01*
X171462929Y-113630000D02*
X171917071Y-113630000D01*
X174002929Y-111850000D02*
X174400000Y-111850000D01*
X177060000Y-73650000D02*
X183060000Y-73650000D01*
X174002929Y-95850000D02*
X174400000Y-95850000D01*
X174002929Y-72990000D02*
X174400000Y-72990000D01*
X174002929Y-108550000D02*
X174400000Y-108550000D01*
X174400000Y-79720000D02*
X177060000Y-79720000D01*
X171462929Y-78070000D02*
X171917071Y-78070000D01*
X174002929Y-116170000D02*
X174400000Y-116170000D01*
X183060000Y-95850000D02*
X183060000Y-96610000D01*
X171462929Y-116170000D02*
X171917071Y-116170000D01*
X174400000Y-120360000D02*
X177060000Y-120360000D01*
X183060000Y-122010000D02*
X177060000Y-122010000D01*
X174400000Y-110200000D02*
X177060000Y-110200000D01*
X171462929Y-119470000D02*
X171917071Y-119470000D01*
X171462929Y-83150000D02*
X171917071Y-83150000D01*
X171462929Y-109310000D02*
X171917071Y-109310000D01*
X183060000Y-81370000D02*
X177060000Y-81370000D01*
X174400000Y-97500000D02*
X177060000Y-97500000D01*
X183060000Y-103470000D02*
X183060000Y-104230000D01*
X174400000Y-94960000D02*
X177060000Y-94960000D01*
X171462929Y-103470000D02*
X171917071Y-103470000D01*
X177060000Y-93310000D02*
X183060000Y-93310000D01*
X171462929Y-111850000D02*
X171917071Y-111850000D01*
X171462929Y-104230000D02*
X171917071Y-104230000D01*
X171462929Y-95850000D02*
X171917071Y-95850000D01*
X174400000Y-100040000D02*
X177060000Y-100040000D01*
X171462929Y-121250000D02*
X171917071Y-121250000D01*
X183060000Y-109310000D02*
X177060000Y-109310000D01*
X171462929Y-80610000D02*
X171917071Y-80610000D01*
X174400000Y-77180000D02*
X177060000Y-77180000D01*
X183060000Y-72990000D02*
X183060000Y-73750000D01*
X183060000Y-78070000D02*
X183060000Y-78830000D01*
X177060000Y-122960000D02*
X177060000Y-72040000D01*
X177060000Y-83150000D02*
X183060000Y-83150000D01*
X171462929Y-96610000D02*
X171917071Y-96610000D01*
X169150000Y-73370000D02*
X169150000Y-72100000D01*
X171462929Y-86450000D02*
X171917071Y-86450000D01*
X174002929Y-96610000D02*
X174400000Y-96610000D01*
X174400000Y-117820000D02*
X177060000Y-117820000D01*
X183060000Y-90770000D02*
X183060000Y-91530000D01*
X169150000Y-72100000D02*
X170420000Y-72100000D01*
X174002929Y-83910000D02*
X174400000Y-83910000D01*
X174002929Y-78070000D02*
X174400000Y-78070000D01*
X174002929Y-121250000D02*
X174400000Y-121250000D01*
X171462929Y-76290000D02*
X171917071Y-76290000D01*
X177060000Y-73530000D02*
X183060000Y-73530000D01*
X174002929Y-113630000D02*
X174400000Y-113630000D01*
X183060000Y-118710000D02*
X183060000Y-119470000D01*
X177060000Y-72990000D02*
X183060000Y-72990000D01*
X174400000Y-84800000D02*
X177060000Y-84800000D01*
X183060000Y-114390000D02*
X177060000Y-114390000D01*
X174002929Y-119470000D02*
X174400000Y-119470000D01*
X174400000Y-107660000D02*
X177060000Y-107660000D01*
X177060000Y-73050000D02*
X183060000Y-73050000D01*
X183060000Y-80610000D02*
X183060000Y-81370000D01*
X177060000Y-98390000D02*
X183060000Y-98390000D01*
X177060000Y-116170000D02*
X183060000Y-116170000D01*
X174002929Y-90770000D02*
X174400000Y-90770000D01*
X183060000Y-104230000D02*
X177060000Y-104230000D01*
X183060000Y-75530000D02*
X183060000Y-76290000D01*
X183060000Y-83150000D02*
X183060000Y-83910000D01*
X171462929Y-88230000D02*
X171917071Y-88230000D01*
X183060000Y-111090000D02*
X183060000Y-111850000D01*
X174002929Y-98390000D02*
X174400000Y-98390000D01*
X174002929Y-93310000D02*
X174400000Y-93310000D01*
X183060000Y-86450000D02*
X177060000Y-86450000D01*
X177060000Y-73410000D02*
X183060000Y-73410000D01*
X177060000Y-106010000D02*
X183060000Y-106010000D01*
X183060000Y-99150000D02*
X177060000Y-99150000D01*
X174002929Y-75530000D02*
X174400000Y-75530000D01*
X174400000Y-89880000D02*
X177060000Y-89880000D01*
X171462929Y-91530000D02*
X171917071Y-91530000D01*
X177060000Y-80610000D02*
X183060000Y-80610000D01*
X171462929Y-78830000D02*
X171917071Y-78830000D01*
X174002929Y-101690000D02*
X174400000Y-101690000D01*
X171530000Y-72990000D02*
X171917071Y-72990000D01*
X171462929Y-100930000D02*
X171917071Y-100930000D01*
X171462929Y-108550000D02*
X171917071Y-108550000D01*
X183060000Y-76290000D02*
X177060000Y-76290000D01*
X174400000Y-74640000D02*
X177060000Y-74640000D01*
X171462929Y-116930000D02*
X171917071Y-116930000D01*
X174002929Y-88230000D02*
X174400000Y-88230000D01*
X183060000Y-96610000D02*
X177060000Y-96610000D01*
X174002929Y-106770000D02*
X174400000Y-106770000D01*
X183060000Y-98390000D02*
X183060000Y-99150000D01*
X174002929Y-73750000D02*
X174400000Y-73750000D01*
X183060000Y-111850000D02*
X177060000Y-111850000D01*
X177060000Y-111090000D02*
X183060000Y-111090000D01*
X174002929Y-86450000D02*
X174400000Y-86450000D01*
%TO.C,C3*%
X146511252Y-120735000D02*
X145988748Y-120735000D01*
X146511252Y-119265000D02*
X145988748Y-119265000D01*
%TO.C,R2*%
X155227064Y-130015000D02*
X154772936Y-130015000D01*
X155227064Y-131485000D02*
X154772936Y-131485000D01*
%TO.C,C5*%
X139660000Y-123788748D02*
X139660000Y-125211252D01*
X137840000Y-123788748D02*
X137840000Y-125211252D01*
%TO.C,C2*%
X148765000Y-127988748D02*
X148765000Y-128511252D01*
X150235000Y-127988748D02*
X150235000Y-128511252D01*
%TO.C,C13*%
X133765000Y-104738748D02*
X133765000Y-105261252D01*
X135235000Y-104738748D02*
X135235000Y-105261252D01*
%TO.C,C6*%
X139660000Y-130211252D02*
X139660000Y-128788748D01*
X137840000Y-130211252D02*
X137840000Y-128788748D01*
%TO.C,C18*%
X128238748Y-84485000D02*
X128761252Y-84485000D01*
X128238748Y-83015000D02*
X128761252Y-83015000D01*
%TO.C,TP4*%
X168000000Y-136000000D02*
G75*
G03*
X168000000Y-136000000I-1500000J0D01*
G01*
%TO.C,J8*%
X136330000Y-86755000D02*
X133670000Y-86755000D01*
X136330000Y-89355000D02*
X135000000Y-89355000D01*
X133670000Y-86755000D02*
X133670000Y-84155000D01*
X136330000Y-86755000D02*
X136330000Y-84155000D01*
X136330000Y-84155000D02*
X133670000Y-84155000D01*
X136330000Y-88025000D02*
X136330000Y-89355000D01*
%TO.C,J7*%
X137095000Y-78580000D02*
X137095000Y-75920000D01*
X134495000Y-78580000D02*
X137095000Y-78580000D01*
X134495000Y-78580000D02*
X134495000Y-75920000D01*
X134495000Y-75920000D02*
X137095000Y-75920000D01*
X133225000Y-78580000D02*
X131895000Y-78580000D01*
X131895000Y-78580000D02*
X131895000Y-77250000D01*
%TO.C,R10*%
X133772936Y-75235000D02*
X134227064Y-75235000D01*
X133772936Y-73765000D02*
X134227064Y-73765000D01*
%TO.C,J5*%
X140670000Y-59245000D02*
X140670000Y-64385000D01*
X140670000Y-59245000D02*
X143330000Y-59245000D01*
X140670000Y-64385000D02*
X143330000Y-64385000D01*
X140670000Y-57975000D02*
X140670000Y-56645000D01*
X143330000Y-59245000D02*
X143330000Y-64385000D01*
X140670000Y-56645000D02*
X142000000Y-56645000D01*
%TO.C,J4*%
X145170000Y-59230000D02*
X145170000Y-64370000D01*
X145170000Y-64370000D02*
X147830000Y-64370000D01*
X145170000Y-59230000D02*
X147830000Y-59230000D01*
X145170000Y-57960000D02*
X145170000Y-56630000D01*
X147830000Y-59230000D02*
X147830000Y-64370000D01*
X145170000Y-56630000D02*
X146500000Y-56630000D01*
%TO.C,C20*%
X127261252Y-109735000D02*
X126738748Y-109735000D01*
X127261252Y-108265000D02*
X126738748Y-108265000D01*
%TO.C,TP1*%
X134000000Y-59000000D02*
G75*
G03*
X134000000Y-59000000I-1500000J0D01*
G01*
%TO.C,U5*%
X128500000Y-82560000D02*
X130175000Y-82560000D01*
X128500000Y-79440000D02*
X127850000Y-79440000D01*
X128500000Y-82560000D02*
X127850000Y-82560000D01*
X128500000Y-79440000D02*
X129150000Y-79440000D01*
%TO.C,C8*%
X135340000Y-130211252D02*
X135340000Y-128788748D01*
X137160000Y-130211252D02*
X137160000Y-128788748D01*
%TO.C,C17*%
X156610000Y-71238748D02*
X156610000Y-71761252D01*
X155140000Y-71238748D02*
X155140000Y-71761252D01*
%TO.C,C25*%
X144515000Y-92261252D02*
X144515000Y-91738748D01*
X145985000Y-92261252D02*
X145985000Y-91738748D01*
%TO.C,R14*%
X127015000Y-87977064D02*
X127015000Y-87522936D01*
X128485000Y-87977064D02*
X128485000Y-87522936D01*
%TO.C,R12*%
X171522936Y-71235000D02*
X171977064Y-71235000D01*
X171522936Y-69765000D02*
X171977064Y-69765000D01*
%TO.C,R11*%
X150235000Y-58772936D02*
X150235000Y-59227064D01*
X148765000Y-58772936D02*
X148765000Y-59227064D01*
%TO.C,J2*%
X127900000Y-92800000D02*
X125900000Y-92800000D01*
X124000000Y-92800000D02*
X122100000Y-92800000D01*
X124000000Y-102200000D02*
X122100000Y-102200000D01*
X122100000Y-92800000D02*
X122100000Y-102200000D01*
X127900000Y-102200000D02*
X125900000Y-102200000D01*
%TO.C,R5*%
X152727064Y-122515000D02*
X152272936Y-122515000D01*
X152727064Y-123985000D02*
X152272936Y-123985000D01*
%TO.C,R1*%
X158727064Y-131485000D02*
X158272936Y-131485000D01*
X158727064Y-130015000D02*
X158272936Y-130015000D01*
%TO.C,C16*%
X156910000Y-67711252D02*
X156910000Y-66288748D01*
X155090000Y-67711252D02*
X155090000Y-66288748D01*
%TO.C,U1*%
X145890000Y-93890000D02*
X145890000Y-94340000D01*
X146340000Y-101110000D02*
X145890000Y-101110000D01*
X152660000Y-93890000D02*
X153110000Y-93890000D01*
X153110000Y-93890000D02*
X153110000Y-94340000D01*
X145890000Y-94340000D02*
X144600000Y-94340000D01*
X146340000Y-93890000D02*
X145890000Y-93890000D01*
X153110000Y-101110000D02*
X153110000Y-100660000D01*
X145890000Y-101110000D02*
X145890000Y-100660000D01*
X152660000Y-101110000D02*
X153110000Y-101110000D01*
%TO.C,U4*%
X161150000Y-71410000D02*
X164910000Y-71410000D01*
X164910000Y-64590000D02*
X164910000Y-65850000D01*
X164910000Y-71410000D02*
X164910000Y-70150000D01*
X158900000Y-64590000D02*
X164910000Y-64590000D01*
%TO.C,C14*%
X135235000Y-109761252D02*
X135235000Y-109238748D01*
X133765000Y-109761252D02*
X133765000Y-109238748D01*
%TO.C,C19*%
X129015000Y-105738748D02*
X129015000Y-106261252D01*
X130485000Y-105738748D02*
X130485000Y-106261252D01*
%TO.C,U6*%
X131000000Y-84940000D02*
X131800000Y-84940000D01*
X131000000Y-88060000D02*
X131800000Y-88060000D01*
X131000000Y-88060000D02*
X130200000Y-88060000D01*
X131000000Y-84940000D02*
X129200000Y-84940000D01*
%TO.C,R15*%
X131227064Y-88515000D02*
X130772936Y-88515000D01*
X131227064Y-89985000D02*
X130772936Y-89985000D01*
%TO.C,Y2*%
X135700000Y-100550000D02*
X135700000Y-113150000D01*
X140800000Y-100550000D02*
X135700000Y-100550000D01*
X140800000Y-113150000D02*
X140800000Y-100550000D01*
%TO.C,L1*%
X141050000Y-125400000D02*
X141050000Y-123650000D01*
X141050000Y-123650000D02*
X147950000Y-123650000D01*
X147950000Y-123650000D02*
X147950000Y-125400000D01*
X141050000Y-130350000D02*
X141050000Y-128600000D01*
X147950000Y-128600000D02*
X147950000Y-130350000D01*
X147950000Y-130350000D02*
X141050000Y-130350000D01*
%TO.C,R9*%
X133772936Y-71485000D02*
X134227064Y-71485000D01*
X133772936Y-70015000D02*
X134227064Y-70015000D01*
%TO.C,U3*%
X128560000Y-106000000D02*
X128560000Y-105350000D01*
X125440000Y-106000000D02*
X125440000Y-105350000D01*
X125440000Y-106000000D02*
X125440000Y-107675000D01*
X128560000Y-106000000D02*
X128560000Y-106650000D01*
%TO.C,C27*%
X143511252Y-101015000D02*
X142988748Y-101015000D01*
X143511252Y-102485000D02*
X142988748Y-102485000D01*
%TO.C,D2*%
X146100000Y-131100000D02*
X151500000Y-131100000D01*
X146100000Y-131100000D02*
X146100000Y-134400000D01*
X146100000Y-134400000D02*
X151500000Y-134400000D01*
%TO.C,C26*%
X154738748Y-93985000D02*
X155261252Y-93985000D01*
X154738748Y-92515000D02*
X155261252Y-92515000D01*
%TO.C,C7*%
X135340000Y-123788748D02*
X135340000Y-125211252D01*
X137160000Y-123788748D02*
X137160000Y-125211252D01*
%TO.C,C4*%
X143011252Y-122735000D02*
X142488748Y-122735000D01*
X143011252Y-121265000D02*
X142488748Y-121265000D01*
%TO.C,J9*%
X157170000Y-90230000D02*
X157170000Y-95370000D01*
X157170000Y-87630000D02*
X158500000Y-87630000D01*
X159830000Y-90230000D02*
X159830000Y-95370000D01*
X157170000Y-95370000D02*
X159830000Y-95370000D01*
X157170000Y-88960000D02*
X157170000Y-87630000D01*
X157170000Y-90230000D02*
X159830000Y-90230000D01*
%TO.C,C15*%
X160288748Y-72590000D02*
X161711252Y-72590000D01*
X160288748Y-74410000D02*
X161711252Y-74410000D01*
%TO.C,TP2*%
X168000000Y-59000000D02*
G75*
G03*
X168000000Y-59000000I-1500000J0D01*
G01*
%TD*%
%LPC*%
D16*
%TO.C,C24*%
X154250000Y-101550000D03*
X154250000Y-103450000D03*
%TD*%
%TO.C,C11*%
X131500000Y-80050000D03*
X131500000Y-81950000D03*
%TD*%
D17*
%TO.C,J3*%
X128600000Y-69610000D03*
X128600000Y-75390000D03*
D18*
X130045000Y-69250000D03*
X130045000Y-70050000D03*
D19*
X130045000Y-71250000D03*
X130045000Y-72250000D03*
X130045000Y-72750000D03*
X130045000Y-73750000D03*
D18*
X130045000Y-74950000D03*
X130045000Y-75750000D03*
X130045000Y-75750000D03*
X130045000Y-74950000D03*
D19*
X130045000Y-74250000D03*
X130045000Y-73250000D03*
X130045000Y-71750000D03*
X130045000Y-70750000D03*
D18*
X130045000Y-70050000D03*
X130045000Y-69250000D03*
D20*
X129130000Y-76820000D03*
X129130000Y-68180000D03*
D21*
X124950000Y-68180000D03*
X124950000Y-76820000D03*
%TD*%
D22*
%TO.C,D1*%
X172687500Y-68500000D03*
X170812500Y-68500000D03*
%TD*%
D23*
%TO.C,TP3*%
X132500000Y-136000000D03*
%TD*%
D24*
%TO.C,S1*%
X161800000Y-62250000D03*
X152700000Y-62250000D03*
X161800000Y-57750000D03*
X152700000Y-57750000D03*
%TD*%
D25*
%TO.C,R8*%
X133087500Y-99500000D03*
X134912500Y-99500000D03*
%TD*%
D26*
%TO.C,J6*%
X133210000Y-68000000D03*
D27*
X135750000Y-68000000D03*
%TD*%
D28*
%TO.C,H3*%
X126000000Y-136000000D03*
%TD*%
D29*
%TO.C,R4*%
X149000000Y-121575000D03*
X149000000Y-119750000D03*
%TD*%
D30*
%TO.C,U2*%
X156900000Y-128905000D03*
X156900000Y-127635000D03*
X156900000Y-126365000D03*
X156900000Y-125095000D03*
X151600000Y-125095000D03*
X151600000Y-126365000D03*
X151600000Y-127635000D03*
X151600000Y-128905000D03*
D31*
X154250000Y-127000000D03*
%TD*%
D25*
%TO.C,R7*%
X133087500Y-96000000D03*
X134912500Y-96000000D03*
%TD*%
D32*
%TO.C,C1*%
X159750000Y-125275000D03*
X159750000Y-128225000D03*
%TD*%
D33*
%TO.C,R13*%
X172662500Y-66500000D03*
X170837500Y-66500000D03*
%TD*%
%TO.C,R3*%
X147162500Y-122000000D03*
X145337500Y-122000000D03*
%TD*%
D32*
%TO.C,C10*%
X162250000Y-125275000D03*
X162250000Y-128225000D03*
%TD*%
D34*
%TO.C,C9*%
X133450000Y-127000000D03*
X131550000Y-127000000D03*
%TD*%
D26*
%TO.C,J1*%
X170420000Y-73370000D03*
D27*
X172960000Y-73370000D03*
X170420000Y-75910000D03*
X172960000Y-75910000D03*
X170420000Y-78450000D03*
X172960000Y-78450000D03*
X170420000Y-80990000D03*
X172960000Y-80990000D03*
X170420000Y-83530000D03*
X172960000Y-83530000D03*
X170420000Y-86070000D03*
X172960000Y-86070000D03*
X170420000Y-88610000D03*
X172960000Y-88610000D03*
X170420000Y-91150000D03*
X172960000Y-91150000D03*
X170420000Y-93690000D03*
X172960000Y-93690000D03*
X170420000Y-96230000D03*
X172960000Y-96230000D03*
X170420000Y-98770000D03*
X172960000Y-98770000D03*
X170420000Y-101310000D03*
X172960000Y-101310000D03*
X170420000Y-103850000D03*
X172960000Y-103850000D03*
X170420000Y-106390000D03*
X172960000Y-106390000D03*
X170420000Y-108930000D03*
X172960000Y-108930000D03*
X170420000Y-111470000D03*
X172960000Y-111470000D03*
X170420000Y-114010000D03*
X172960000Y-114010000D03*
X170420000Y-116550000D03*
X172960000Y-116550000D03*
X170420000Y-119090000D03*
X172960000Y-119090000D03*
X170420000Y-121630000D03*
X172960000Y-121630000D03*
%TD*%
D34*
%TO.C,C3*%
X147200000Y-120000000D03*
X145300000Y-120000000D03*
%TD*%
D33*
%TO.C,R2*%
X155912500Y-130750000D03*
X154087500Y-130750000D03*
%TD*%
D32*
%TO.C,C5*%
X138750000Y-123025000D03*
X138750000Y-125975000D03*
%TD*%
D16*
%TO.C,C2*%
X149500000Y-127300000D03*
X149500000Y-129200000D03*
%TD*%
%TO.C,C13*%
X134500000Y-104050000D03*
X134500000Y-105950000D03*
%TD*%
D35*
%TO.C,C6*%
X138750000Y-130975000D03*
X138750000Y-128025000D03*
%TD*%
D36*
%TO.C,C18*%
X127550000Y-83750000D03*
X129450000Y-83750000D03*
%TD*%
D23*
%TO.C,TP4*%
X166500000Y-136000000D03*
%TD*%
D26*
%TO.C,J8*%
X135000000Y-88025000D03*
D27*
X135000000Y-85485000D03*
%TD*%
D26*
%TO.C,J7*%
X133225000Y-77250000D03*
D27*
X135765000Y-77250000D03*
%TD*%
D25*
%TO.C,R10*%
X133087500Y-74500000D03*
X134912500Y-74500000D03*
%TD*%
D26*
%TO.C,J5*%
X142000000Y-57975000D03*
D27*
X142000000Y-60515000D03*
X142000000Y-63055000D03*
%TD*%
D26*
%TO.C,J4*%
X146500000Y-57960000D03*
D27*
X146500000Y-60500000D03*
X146500000Y-63040000D03*
%TD*%
D34*
%TO.C,C20*%
X127950000Y-109000000D03*
X126050000Y-109000000D03*
%TD*%
D23*
%TO.C,TP1*%
X132500000Y-59000000D03*
%TD*%
D37*
%TO.C,U5*%
X129437500Y-81950000D03*
X129437500Y-80050000D03*
X127562500Y-81000000D03*
%TD*%
D35*
%TO.C,C8*%
X136250000Y-130975000D03*
X136250000Y-128025000D03*
%TD*%
D16*
%TO.C,C17*%
X155875000Y-70550000D03*
X155875000Y-72450000D03*
%TD*%
D38*
%TO.C,C25*%
X145250000Y-92950000D03*
X145250000Y-91050000D03*
%TD*%
D29*
%TO.C,R14*%
X127750000Y-88662500D03*
X127750000Y-86837500D03*
%TD*%
D25*
%TO.C,R12*%
X170837500Y-70500000D03*
X172662500Y-70500000D03*
%TD*%
D39*
%TO.C,R11*%
X149500000Y-58087500D03*
X149500000Y-59912500D03*
%TD*%
D17*
%TO.C,J2*%
X128600000Y-100390000D03*
X128600000Y-94610000D03*
D18*
X130045000Y-94250000D03*
X130045000Y-95050000D03*
D19*
X130045000Y-96250000D03*
X130045000Y-97250000D03*
X130045000Y-97750000D03*
X130045000Y-98750000D03*
D18*
X130045000Y-99950000D03*
X130045000Y-100750000D03*
X130045000Y-100750000D03*
X130045000Y-99950000D03*
D19*
X130045000Y-99250000D03*
X130045000Y-98250000D03*
X130045000Y-96750000D03*
X130045000Y-95750000D03*
D18*
X130045000Y-95050000D03*
X130045000Y-94250000D03*
D20*
X129130000Y-93180000D03*
D21*
X124950000Y-101820000D03*
D20*
X129130000Y-101820000D03*
D21*
X124950000Y-93180000D03*
%TD*%
D33*
%TO.C,R5*%
X153412500Y-123250000D03*
X151587500Y-123250000D03*
%TD*%
%TO.C,R1*%
X159412500Y-130750000D03*
X157587500Y-130750000D03*
%TD*%
D35*
%TO.C,C16*%
X156000000Y-68475000D03*
X156000000Y-65525000D03*
%TD*%
D40*
%TO.C,U1*%
X145337500Y-94750000D03*
X145337500Y-95250000D03*
X145337500Y-95750000D03*
X145337500Y-96250000D03*
X145337500Y-96750000D03*
X145337500Y-97250000D03*
X145337500Y-97750000D03*
X145337500Y-98250000D03*
X145337500Y-98750000D03*
X145337500Y-99250000D03*
X145337500Y-99750000D03*
X145337500Y-100250000D03*
D41*
X146750000Y-101662500D03*
X147250000Y-101662500D03*
X147750000Y-101662500D03*
X148250000Y-101662500D03*
X148750000Y-101662500D03*
X149250000Y-101662500D03*
X149750000Y-101662500D03*
X150250000Y-101662500D03*
X150750000Y-101662500D03*
X151250000Y-101662500D03*
X151750000Y-101662500D03*
X152250000Y-101662500D03*
D40*
X153662500Y-100250000D03*
X153662500Y-99750000D03*
X153662500Y-99250000D03*
X153662500Y-98750000D03*
X153662500Y-98250000D03*
X153662500Y-97750000D03*
X153662500Y-97250000D03*
X153662500Y-96750000D03*
X153662500Y-96250000D03*
X153662500Y-95750000D03*
X153662500Y-95250000D03*
X153662500Y-94750000D03*
D41*
X152250000Y-93337500D03*
X151750000Y-93337500D03*
X151250000Y-93337500D03*
X150750000Y-93337500D03*
X150250000Y-93337500D03*
X149750000Y-93337500D03*
X149250000Y-93337500D03*
X148750000Y-93337500D03*
X148250000Y-93337500D03*
X147750000Y-93337500D03*
X147250000Y-93337500D03*
X146750000Y-93337500D03*
%TD*%
D42*
%TO.C,U4*%
X159850000Y-65700000D03*
D43*
X166150000Y-68000000D03*
D42*
X159850000Y-68000000D03*
X159850000Y-70300000D03*
%TD*%
D38*
%TO.C,C14*%
X134500000Y-110450000D03*
X134500000Y-108550000D03*
%TD*%
D16*
%TO.C,C19*%
X129750000Y-105050000D03*
X129750000Y-106950000D03*
%TD*%
D28*
%TO.C,H2*%
X173000000Y-59000000D03*
%TD*%
D44*
%TO.C,U6*%
X129862500Y-85550000D03*
X129862500Y-86500000D03*
X129862500Y-87450000D03*
X132137500Y-87450000D03*
X132137500Y-85550000D03*
%TD*%
D33*
%TO.C,R15*%
X131912500Y-89250000D03*
X130087500Y-89250000D03*
%TD*%
D45*
%TO.C,Y2*%
X138250000Y-103000000D03*
X138250000Y-111500000D03*
%TD*%
D28*
%TO.C,H4*%
X173000000Y-136000000D03*
%TD*%
D46*
%TO.C,L1*%
X147350000Y-127000000D03*
X141650000Y-127000000D03*
%TD*%
D25*
%TO.C,R9*%
X133087500Y-70750000D03*
X134912500Y-70750000D03*
%TD*%
D47*
%TO.C,U3*%
X126050000Y-106937500D03*
X127950000Y-106937500D03*
X127000000Y-105062500D03*
%TD*%
D34*
%TO.C,C27*%
X144200000Y-101750000D03*
X142300000Y-101750000D03*
%TD*%
D48*
%TO.C,D2*%
X147500000Y-132750000D03*
X151500000Y-132750000D03*
%TD*%
D28*
%TO.C,H1*%
X126000000Y-59000000D03*
%TD*%
D36*
%TO.C,C26*%
X154050000Y-93250000D03*
X155950000Y-93250000D03*
%TD*%
D32*
%TO.C,C7*%
X136250000Y-123025000D03*
X136250000Y-125975000D03*
%TD*%
D34*
%TO.C,C4*%
X143700000Y-122000000D03*
X141800000Y-122000000D03*
%TD*%
D26*
%TO.C,J9*%
X158500000Y-88960000D03*
D27*
X158500000Y-91500000D03*
X158500000Y-94040000D03*
%TD*%
D49*
%TO.C,C15*%
X159525000Y-73500000D03*
X162475000Y-73500000D03*
%TD*%
D23*
%TO.C,TP2*%
X166500000Y-59000000D03*
%TD*%
M02*
